<svg width="78" height="78" viewBox="0 0 78 78" fill="none" xmlns="http://www.w3.org/2000/svg">
<g filter="url(#filter0_d_1206_8675)">
<circle cx="37" cy="37" r="30.5" fill="white" stroke="#5F61BD" stroke-width="3"/>
</g>
<path fill-rule="evenodd" clip-rule="evenodd" d="M48.9813 40.207C48.2445 40.207 47.6472 40.8043 47.6472 41.5411V45.5446H43.6451C42.9083 45.5446 42.311 46.1419 42.311 46.8786C42.311 47.6154 42.9083 48.2127 43.6451 48.2127H47.6472V52.2134C47.6472 52.9502 48.2445 53.5475 48.9813 53.5475C49.718 53.5475 50.3153 52.9502 50.3153 52.2134V48.2127H54.3174C55.0542 48.2127 55.6515 47.6154 55.6515 46.8786C55.6515 46.1419 55.0542 45.5446 54.3174 45.5446H50.3153V41.5411C50.3153 40.8043 49.718 40.207 48.9813 40.207Z" fill="#5F61BD"/>
<path fill-rule="evenodd" clip-rule="evenodd" d="M39.2192 49.4071H29.2416L25.3782 52.9124C25.1061 53.1602 24.689 53.2841 24.3625 53.2841C23.9816 53.2664 23.6369 53.1071 23.383 52.8416C23.0021 52.4344 22.8933 51.8502 23.1109 51.3545L30.2211 34.9789L30.3481 34.6425L33.8487 26.5521C33.232 26.0564 32.7604 25.4545 32.4521 24.7641C31.9261 23.5779 31.8898 22.2679 32.3795 21.0641C32.8511 19.8602 33.7943 18.9042 35.0096 18.3908C36.8597 17.6119 39.0907 18.0191 40.5054 19.4176C41.4486 20.3382 41.9565 21.5597 41.9565 22.8521C41.9565 24.2507 41.3217 25.5607 40.2152 26.4813L45.6645 38.3995C44.7485 38.6763 43.8916 39.0893 43.1175 39.615L42.2286 37.6698L39.2902 40.3253V40.343L40.8788 41.7485C40.3117 42.5027 39.8557 43.345 39.5349 44.2514L37.2224 42.2018L32.5791 46.3975H39.051C39.0173 46.721 39 47.0494 39 47.3818C39 48.0771 39.0757 48.7548 39.2192 49.4071ZM36.2974 20.6923C35.7351 20.9047 35.2998 21.3119 35.064 21.843V21.8253C34.8282 22.3564 34.8101 22.9583 35.0277 23.4894C35.463 24.5693 36.6964 25.1181 37.821 24.7463L37.948 24.7109C39.0725 24.2684 39.6167 23.0114 39.1814 21.9138C38.7279 20.7985 37.4401 20.2497 36.2974 20.6923ZM35.8258 29.1014H38.3107H38.3289L37.6578 27.632C37.2224 27.6851 36.8234 27.6851 36.4606 27.6497L35.8258 29.1014ZM39.5623 31.8631H34.6287L33.2683 34.9966L37.1862 38.4664L40.9952 35.0143L39.5623 31.8631ZM28.2929 46.4924L32.1075 37.6698L35.1184 40.3253L28.2929 46.4924Z" fill="#5F61BD"/>
<defs>
<filter id="filter0_d_1206_8675" x="0" y="0" width="78" height="78" filterUnits="userSpaceOnUse" color-interpolation-filters="sRGB">
<feFlood flood-opacity="0" result="BackgroundImageFix"/>
<feColorMatrix in="SourceAlpha" type="matrix" values="0 0 0 0 0 0 0 0 0 0 0 0 0 0 0 0 0 0 127 0" result="hardAlpha"/>
<feOffset dx="2" dy="2"/>
<feGaussianBlur stdDeviation="3.5"/>
<feComposite in2="hardAlpha" operator="out"/>
<feColorMatrix type="matrix" values="0 0 0 0 0.403922 0 0 0 0 0.407843 0 0 0 0 0.654902 0 0 0 0.25 0"/>
<feBlend mode="normal" in2="BackgroundImageFix" result="effect1_dropShadow_1206_8675"/>
<feBlend mode="normal" in="SourceGraphic" in2="effect1_dropShadow_1206_8675" result="shape"/>
</filter>
</defs>
</svg>
