<svg width="78" height="79" viewBox="0 0 78 79" fill="none" xmlns="http://www.w3.org/2000/svg">
<g filter="url(#filter0_d_1206_8678)">
<circle cx="37" cy="37.5" r="30.5" fill="white" stroke="rgb(74 102 158)" stroke-width="3"/>
</g>
<path fill-rule="evenodd" clip-rule="evenodd" d="M31.8287 20.5C30.8335 20.5 30.0267 21.2701 30.0267 22.22V22.3502H25.8223C23.7113 22.3502 22 24.0654 22 26.1813V45.3366C22 47.4525 23.7113 49.1677 25.8223 49.1677H39.2632C39.2216 48.7911 39.2002 48.4083 39.2002 48.0206C39.2002 47.4324 39.2494 46.8557 39.3439 46.2944H25.8223C25.2945 46.2944 24.8667 45.8656 24.8667 45.3366V26.1813C24.8667 25.6523 25.2945 25.2235 25.8223 25.2235H30.0267V25.6601C30.0267 26.61 30.8335 27.3801 31.8287 27.3801H40.8383C41.8335 27.3801 42.6402 26.61 42.6402 25.6601V25.2235H46.8447C47.3724 25.2235 47.8003 25.6523 47.8003 26.1813V37.8432C48.3596 37.7493 48.9342 37.7005 49.5203 37.7005C49.9079 37.7005 50.2905 37.7218 50.6669 37.7635V26.1813C50.6669 24.0654 48.9557 22.3502 46.8447 22.3502H42.6402V22.22C42.6402 21.2701 41.8335 20.5 40.8383 20.5H31.8287ZM29.6445 30.8201C28.589 30.8201 27.7334 31.5902 27.7334 32.5401C27.7334 33.4901 28.589 34.2601 29.6445 34.2601H43.0224C44.0779 34.2601 44.9336 33.4901 44.9336 32.5401C44.9336 31.5902 44.0779 30.8201 43.0224 30.8201H29.6445ZM27.7334 40.5669C27.7334 39.6169 28.589 38.8468 29.6445 38.8468H43.0224C44.0779 38.8468 44.9336 39.6169 44.9336 40.5669C44.9336 41.5168 44.0779 42.2869 43.0224 42.2869H29.6445C28.589 42.2869 27.7334 41.5168 27.7334 40.5669Z" fill="rgb(74 102 158)"/>
<path fill-rule="evenodd" clip-rule="evenodd" d="M49.5697 41.1406C48.8042 41.1406 48.1837 41.7611 48.1837 42.5266V46.6859H44.0258C43.2604 46.6859 42.6399 47.3064 42.6399 48.0718C42.6399 48.8373 43.2604 49.4578 44.0258 49.4578H48.1837V53.6141C48.1837 54.3796 48.8042 55.0001 49.5697 55.0001C50.3351 55.0001 50.9556 54.3796 50.9556 53.6141V49.4578H55.1134C55.8789 49.4578 56.4994 48.8373 56.4994 48.0718C56.4994 47.3064 55.8789 46.6859 55.1134 46.6859H50.9556V42.5266C50.9556 41.7611 50.3351 41.1406 49.5697 41.1406Z" fill="rgb(74 102 158)"/>
<defs>
<filter id="filter0_d_1206_8678" x="0" y="0.5" width="78" height="78" filterUnits="userSpaceOnUse" color-interpolation-filters="sRGB">
<feFlood flood-opacity="0" result="BackgroundImageFix"/>
<feColorMatrix in="SourceAlpha" type="matrix" values="0 0 0 0 0 0 0 0 0 0 0 0 0 0 0 0 0 0 127 0" result="hardAlpha"/>
<feOffset dx="2" dy="2"/>
<feGaussianBlur stdDeviation="3.5"/>
<feComposite in2="hardAlpha" operator="out"/>
<feColorMatrix type="matrix" values="0 0 0 0 0.403922 0 0 0 0 0.407843 0 0 0 0 0.654902 0 0 0 0.25 0"/>
<feBlend mode="normal" in2="BackgroundImageFix" result="effect1_dropShadow_1206_8678"/>
<feBlend mode="normal" in="SourceGraphic" in2="effect1_dropShadow_1206_8678" result="shape"/>
</filter>
</defs>
</svg>
