<svg width="78" height="79" viewBox="0 0 78 79" fill="none" xmlns="http://www.w3.org/2000/svg">
<g filter="url(#filter0_d_1206_8674)">
<circle cx="37" cy="37.5" r="32" fill="white"/>
<circle cx="37" cy="37.5" r="30.5" stroke="#5F61BD" stroke-width="3"/>
</g>
<path fill-rule="evenodd" clip-rule="evenodd" d="M34.2016 37.5913L34.1969 37.5898C29.081 38.3047 24.8772 41.4314 23.6146 45.6891C23.514 46.0386 23.4791 46.3955 23.5071 46.7445C23.4794 46.3962 23.5144 46.04 23.6148 45.6913C24.8778 41.4323 29.0836 38.305 34.2016 37.5913ZM29.8054 32.6028C30.4855 34.7105 32.1441 36.3828 34.2435 37.0815L34.2459 37.0812C32.1456 36.3831 30.486 34.7109 29.8054 32.6028ZM36.4398 37.436C36.4043 37.436 36.3688 37.4357 36.3334 37.4352C36.3683 37.435 36.4032 37.4348 36.4382 37.4348C36.4739 37.4348 36.5096 37.435 36.5453 37.4352C36.5102 37.4357 36.475 37.436 36.4398 37.436ZM43.9067 30.4669C43.9067 33.4604 42.1368 36.0477 39.5883 37.2373C40.7352 37.4595 41.8333 37.801 42.8586 38.2485C42.7722 38.3908 42.6892 38.5354 42.6099 38.6823C41.395 38.1572 40.0721 37.7846 38.6817 37.5901L38.6771 37.5916C40.0688 37.7858 41.393 38.1585 42.609 38.6839C42.1906 39.4583 41.8719 40.2944 41.67 41.175C40.1125 40.4947 38.3221 40.1048 36.4382 40.1048C31.4416 40.1048 27.1023 42.8474 26.0239 46.4777C26.0166 46.5051 26.0174 46.5279 26.0208 46.5453C26.0227 46.5545 26.0251 46.5615 26.027 46.5658L26.0277 46.5674L26.0344 46.5763L26.043 46.5894C26.0774 46.6419 26.1696 46.7119 26.3379 46.7119H41.9792C42.0383 46.8799 42.1017 47.0459 42.1694 47.2097H26.3379C26.033 47.2097 25.7688 47.0793 25.6266 46.8621C25.5754 46.7937 25.5322 46.6908 25.5225 46.5698C25.5319 46.6918 25.5752 46.7954 25.6267 46.8642C25.769 47.0815 26.0332 47.2118 26.338 47.2118H42.1703C42.5746 48.1892 43.13 49.0882 43.8074 49.8796H26.3379C25.2397 49.8796 24.2104 49.3431 23.5883 48.4224C23.0172 47.5823 22.852 46.539 23.1363 45.5514L23.1374 45.5476L23.1374 45.5476C24.3969 41.3004 28.3994 38.1837 33.2904 37.2369C30.7424 36.047 28.9729 33.4601 28.9729 30.4669C28.9729 26.349 32.3219 23 36.4398 23C40.5577 23 43.9067 26.349 43.9067 30.4669ZM38.6322 37.0814L38.6351 37.0818C41.4057 36.1601 43.4089 33.5432 43.4089 30.4669C43.4089 29.7463 43.299 29.051 43.095 28.3967C43.2987 29.0506 43.4085 29.7455 43.4085 30.4656C43.4085 33.5429 41.404 36.1605 38.6322 37.0814ZM36.4398 25.9868C33.9669 25.9868 31.9597 27.994 31.9597 30.4669C31.9597 32.9398 33.9669 34.947 36.4398 34.947C38.9127 34.947 40.9199 32.9398 40.9199 30.4669C40.9199 27.994 38.9127 25.9868 36.4398 25.9868ZM31.4619 30.4669C31.4619 27.7191 33.692 25.489 36.4398 25.489C38.5951 25.489 40.4319 26.861 41.1238 28.7787C40.4322 26.8603 38.5951 25.4877 36.4394 25.4877C33.6916 25.4877 31.4615 27.7178 31.4615 30.4656C31.4615 30.9985 31.5453 31.5119 31.7006 31.9934C31.5456 31.5123 31.4619 30.9993 31.4619 30.4669Z" fill="#5F61BD"/>
<path fill-rule="evenodd" clip-rule="evenodd" d="M49.695 35.8545C48.9306 35.8545 48.3109 36.4742 48.3109 37.2387V41.3926H44.1583C43.3939 41.3926 42.7742 42.0123 42.7742 42.7768C42.7742 43.5412 43.3939 44.161 44.1583 44.161H48.3109V48.312C48.3109 49.0764 48.9306 49.6961 49.695 49.6961C50.4595 49.6961 51.0792 49.0764 51.0792 48.312V44.161H55.2317C55.9961 44.161 56.6158 43.5412 56.6158 42.7768C56.6158 42.0123 55.9961 41.3926 55.2317 41.3926H51.0792V37.2387C51.0792 36.4742 50.4595 35.8545 49.695 35.8545Z" fill="#5F61BD"/>
<defs>
<filter id="filter0_d_1206_8674" x="0" y="0.5" width="78" height="78" filterUnits="userSpaceOnUse" color-interpolation-filters="sRGB">
<feFlood flood-opacity="0" result="BackgroundImageFix"/>
<feColorMatrix in="SourceAlpha" type="matrix" values="0 0 0 0 0 0 0 0 0 0 0 0 0 0 0 0 0 0 127 0" result="hardAlpha"/>
<feOffset dx="2" dy="2"/>
<feGaussianBlur stdDeviation="3.5"/>
<feComposite in2="hardAlpha" operator="out"/>
<feColorMatrix type="matrix" values="0 0 0 0 0.403922 0 0 0 0 0.407843 0 0 0 0 0.654902 0 0 0 0.25 0"/>
<feBlend mode="normal" in2="BackgroundImageFix" result="effect1_dropShadow_1206_8674"/>
<feBlend mode="normal" in="SourceGraphic" in2="effect1_dropShadow_1206_8674" result="shape"/>
</filter>
</defs>
</svg>
