<svg width="78" height="78" viewBox="0 0 78 78" fill="none" xmlns="http://www.w3.org/2000/svg">
<g filter="url(#filter0_d_1206_8676)">
<circle cx="37" cy="37" r="30.5" fill="white" stroke="rgb(74 102 158)" stroke-width="3"/>
<path fill-rule="evenodd" clip-rule="evenodd" d="M49.0738 19.8789C49.8518 19.6888 51.8773 19.4215 53.699 21.0594C55.5206 22.6972 55.4487 24.7211 55.3333 25.507C55.26 26.0059 55.0166 26.3963 54.767 26.669L41.5156 41.1446C41.249 41.4358 40.9158 41.6592 40.5439 41.796L36.5198 43.2761C34.6999 43.9455 32.8489 42.3711 33.2406 40.4869L34.1412 36.1551C34.2305 35.7254 34.4346 35.3272 34.7322 35.0021L47.9618 20.5502C48.2115 20.2775 48.5799 19.9996 49.0738 19.8789ZM49.8948 22.488L36.8159 36.7752L36.0305 40.5534L39.5274 39.2671L52.6334 24.9503C52.6636 24.5169 52.5929 23.7418 51.8527 23.0762C51.1125 22.4107 50.3272 22.4161 49.8948 22.488Z" fill="rgb(74 102 158)"/>
<path fill-rule="evenodd" clip-rule="evenodd" d="M22 27.4697C22 25.5534 23.594 24 25.5602 24H38.7779C39.5342 24 40.1472 24.5975 40.1472 25.3345C40.1472 26.0715 39.5342 26.669 38.7779 26.669H25.5602C25.1064 26.669 24.7386 27.0275 24.7386 27.4697V49.5303C24.7386 49.9725 25.1064 50.331 25.5602 50.331H48.4398C48.8936 50.331 49.2614 49.9725 49.2614 49.5303V36.4012C49.2614 35.6641 49.8744 35.0667 50.6307 35.0667C51.3869 35.0667 52 35.6641 52 36.4012V49.5303C52 51.4466 50.4061 53 48.4398 53H25.5602C23.594 53 22 51.4466 22 49.5303V27.4697Z" fill="rgb(74 102 158)"/>
</g>
<defs>
<filter id="filter0_d_1206_8676" x="0" y="0" width="78" height="78" filterUnits="userSpaceOnUse" color-interpolation-filters="sRGB">
<feFlood flood-opacity="0" result="BackgroundImageFix"/>
<feColorMatrix in="SourceAlpha" type="matrix" values="0 0 0 0 0 0 0 0 0 0 0 0 0 0 0 0 0 0 127 0" result="hardAlpha"/>
<feOffset dx="2" dy="2"/>
<feGaussianBlur stdDeviation="3.5"/>
<feComposite in2="hardAlpha" operator="out"/>
<feColorMatrix type="matrix" values="0 0 0 0 0.403922 0 0 0 0 0.407843 0 0 0 0 0.654902 0 0 0 0.25 0"/>
<feBlend mode="normal" in2="BackgroundImageFix" result="effect1_dropShadow_1206_8676"/>
<feBlend mode="normal" in="SourceGraphic" in2="effect1_dropShadow_1206_8676" result="shape"/>
</filter>
</defs>
</svg>
