<svg width="78" height="78" viewBox="0 0 78 78" fill="none" xmlns="http://www.w3.org/2000/svg">
<g filter="url(#filter0_d_1206_8677)">
<circle cx="37" cy="37" r="30.5" fill="white" stroke="rgb(74 102 158)" stroke-width="3"/>
<path fill-rule="evenodd" clip-rule="evenodd" d="M49.5274 20.7179C50.2388 20.544 52.0907 20.2997 53.7562 21.7972C55.4217 23.2947 55.356 25.1451 55.2505 25.8637C55.1835 26.3197 54.961 26.6767 54.7327 26.926L42.617 40.161C42.3733 40.4272 42.0686 40.6315 41.7286 40.7566L38.0494 42.1098C36.3855 42.7219 34.6931 41.2824 35.0512 39.5597L35.8746 35.5991C35.9563 35.2062 36.1429 34.8422 36.4149 34.545L48.5108 21.3317C48.739 21.0823 49.0759 20.8282 49.5274 20.7179ZM50.2781 23.1033L38.3202 36.1661L37.602 39.6204L40.7992 38.4444L52.782 25.3546C52.8096 24.9584 52.7449 24.2497 52.0682 23.6412C51.3914 23.0327 50.6734 23.0377 50.2781 23.1033Z" fill="rgb(74 102 158)"/>
<path fill-rule="evenodd" clip-rule="evenodd" d="M27.6663 36.1719C27.6663 35.4815 28.2259 34.9219 28.9163 34.9219H36.6932C37.3835 34.9219 37.9432 35.4815 37.9432 36.1719C37.9432 36.8622 37.3835 37.4219 36.6932 37.4219H28.9163C28.2259 37.4219 27.6663 36.8622 27.6663 36.1719Z" fill="rgb(74 102 158)"/>
<path fill-rule="evenodd" clip-rule="evenodd" d="M27.6663 43.8799C27.6663 43.1895 28.2259 42.6299 28.9163 42.6299H44.4701C45.1605 42.6299 45.7201 43.1895 45.7201 43.8799C45.7201 44.5702 45.1605 45.1299 44.4701 45.1299H28.9163C28.2259 45.1299 27.6663 44.5702 27.6663 43.8799Z" fill="rgb(74 102 158)"/>
<path fill-rule="evenodd" clip-rule="evenodd" d="M23 28.9229C23 27.1279 24.4551 25.6729 26.25 25.6729H38.3161C39.0064 25.6729 39.5661 26.2325 39.5661 26.9229C39.5661 27.6132 39.0064 28.1729 38.3161 28.1729H26.25C25.8358 28.1729 25.5 28.5086 25.5 28.9229V49.5865C25.5 50.0008 25.8358 50.3365 26.25 50.3365H47.1361C47.5504 50.3365 47.8861 50.0008 47.8861 49.5865V37.2888C47.8861 36.5984 48.4458 36.0388 49.1361 36.0388C49.8265 36.0388 50.3861 36.5984 50.3861 37.2888V49.5865C50.3861 51.3815 48.9311 52.8365 47.1361 52.8365H26.25C24.4551 52.8365 23 51.3815 23 49.5865V28.9229Z" fill="rgb(74 102 158)"/>
</g>
<defs>
<filter id="filter0_d_1206_8677" x="0" y="0" width="78" height="78" filterUnits="userSpaceOnUse" color-interpolation-filters="sRGB">
<feFlood flood-opacity="0" result="BackgroundImageFix"/>
<feColorMatrix in="SourceAlpha" type="matrix" values="0 0 0 0 0 0 0 0 0 0 0 0 0 0 0 0 0 0 127 0" result="hardAlpha"/>
<feOffset dx="2" dy="2"/>
<feGaussianBlur stdDeviation="3.5"/>
<feComposite in2="hardAlpha" operator="out"/>
<feColorMatrix type="matrix" values="0 0 0 0 0.403922 0 0 0 0 0.407843 0 0 0 0 0.654902 0 0 0 0.25 0"/>
<feBlend mode="normal" in2="BackgroundImageFix" result="effect1_dropShadow_1206_8677"/>
<feBlend mode="normal" in="SourceGraphic" in2="effect1_dropShadow_1206_8677" result="shape"/>
</filter>
</defs>
</svg>
