<svg width="78" height="79" viewBox="0 0 78 79" fill="none" xmlns="http://www.w3.org/2000/svg">
<g filter="url(#filter0_d_1033_11047)">
<circle cx="37" cy="37.5" r="30.5" fill="white" stroke="rgb(74 102 158)" stroke-width="3"/>
<path fill-rule="evenodd" clip-rule="evenodd" d="M30.8374 45.1408C30.8451 45.1409 30.8528 45.141 30.8605 45.141H42.9402C43.4992 45.141 44.0218 44.8682 44.3377 44.4006C44.6416 43.9719 44.7145 43.4393 44.5686 42.9328C43.8136 40.3866 41.2997 38.5169 38.2404 38.0895C38.2404 38.0895 38.2404 38.0895 38.2403 38.0895C41.2995 38.517 43.8133 40.3867 44.5683 42.9328C44.7142 43.4393 44.6412 43.9719 44.3374 44.4006C44.0215 44.8682 43.4989 45.1409 42.9399 45.1409H30.8602C30.8526 45.1409 30.845 45.1409 30.8374 45.1408ZM38.783 37.8785C40.3077 37.1674 41.3666 35.6199 41.3666 33.8293C41.3666 31.3669 39.3639 29.3643 36.9015 29.3643C34.4391 29.3643 32.4364 31.3669 32.4364 33.8293C32.4364 35.6196 33.495 37.1669 35.0193 37.8782C32.094 38.4441 29.6999 40.308 28.9466 42.8481L28.9466 42.8481L28.946 42.8504C28.776 43.4409 28.8748 44.0648 29.2163 44.5672C29.5883 45.1178 30.2038 45.4386 30.8605 45.4386H42.9402C43.5957 45.4386 44.2103 45.1188 44.5825 44.57C44.9414 44.0618 45.0231 43.4354 44.8547 42.8504L44.8547 42.8504L44.854 42.8481C44.1009 40.3085 41.7076 38.4448 38.783 37.8785ZM38.2126 37.7855C39.8702 37.2349 41.0689 35.6695 41.0689 33.8293C41.0689 32.8619 40.7376 31.9704 40.1825 31.2624C40.7372 31.9703 41.0682 32.8614 41.0682 33.8284C41.0682 35.6693 39.8687 37.2351 38.2101 37.7852C38.2109 37.7853 38.2118 37.7854 38.2126 37.7855ZM35.5912 37.7851C34.8044 37.5241 34.1209 37.0345 33.6198 36.3953C34.1206 37.0343 34.8035 37.524 35.5898 37.7853C35.5903 37.7852 35.5907 37.7852 35.5912 37.7851ZM34.2225 33.8293C34.2225 32.3506 35.4228 31.1503 36.9015 31.1503C38.3803 31.1503 39.5806 32.3506 39.5806 33.8293C39.5806 35.3081 38.3803 36.5084 36.9015 36.5084C35.4228 36.5084 34.2225 35.3081 34.2225 33.8293ZM36.9015 30.8526C35.2584 30.8526 33.9248 32.1862 33.9248 33.8293C33.9248 34.5207 34.1609 35.1573 34.5568 35.6628C34.1605 35.1572 33.9241 34.5202 33.9241 33.8284C33.9241 32.1853 35.2577 30.8517 36.9008 30.8517C37.8526 30.8517 38.7005 31.2991 39.2455 31.995C38.7004 31.2996 37.8529 30.8526 36.9015 30.8526ZM36.9 39.2958C33.8254 39.2958 31.0789 40.9844 30.3862 43.3224C30.3498 43.4523 30.3862 43.5692 30.4348 43.6342C30.5189 43.7626 30.6743 43.8402 30.8539 43.842C30.6744 43.8401 30.5192 43.7625 30.4351 43.6342C30.3865 43.5692 30.3501 43.4523 30.3865 43.3224C31.0792 40.9844 33.8257 39.2958 36.9003 39.2958C36.9002 39.2958 36.9001 39.2958 36.9 39.2958ZM30.6842 43.4711L30.679 43.4633L30.675 43.4579L30.6746 43.457C30.6735 43.4544 30.672 43.4503 30.6709 43.4447C30.6688 43.4343 30.6684 43.4207 30.6727 43.4043C31.3176 41.2334 33.9124 39.5934 36.9003 39.5934C39.8895 39.5934 42.4852 41.2348 43.1287 43.407L43.1285 43.4071L43.1323 43.4183C43.136 43.429 43.1365 43.435 43.1366 43.4369L43.1366 43.4383L43.1364 43.4397C43.1363 43.4405 43.1348 43.4456 43.1272 43.4558C43.0885 43.5076 43.0204 43.5443 42.9402 43.5443H30.8605C30.7599 43.5443 30.7047 43.5025 30.6842 43.4711Z" fill="rgb(74 102 158)"/>
<path fill-rule="evenodd" clip-rule="evenodd" d="M26.356 25.6182H47.062C47.6143 25.6182 48.062 26.0659 48.062 26.6182V42.0218C48.0642 42.0218 48.0665 42.0218 48.0687 42.0218C49.1377 42.0218 50.1518 42.257 51.062 42.6786V26.6182C51.062 24.409 49.2712 22.6182 47.062 22.6182H26.356C24.1468 22.6182 22.356 24.409 22.356 26.6182V48.1444C22.356 50.3536 24.1468 52.1444 26.356 52.1444H41.5949C41.1736 51.2344 40.9385 50.2207 40.9385 49.152C40.9385 49.1494 40.9385 49.1469 40.9385 49.1444H26.356C25.8037 49.1444 25.356 48.6967 25.356 48.1444V26.6182C25.356 26.0659 25.8037 25.6182 26.356 25.6182Z" fill="rgb(74 102 158)"/>
<rect x="48.2102" y="44.5508" width="2.62218" height="13.1109" rx="1.31109" fill="rgb(74 102 158)"/>
<path d="M54.7658 49.7969C55.4899 49.7969 56.0769 50.3839 56.0769 51.108V51.108C56.0769 51.8321 55.4899 52.4191 54.7658 52.4191L44.2771 52.4191C43.553 52.4191 42.966 51.8321 42.966 51.108V51.108C42.966 50.3839 43.553 49.7969 44.2771 49.7969L54.7658 49.7969Z" fill="rgb(74 102 158)"/>
<rect x="29.9492" y="18.5166" width="3.25424" height="8.67797" rx="1.62712" fill="rgb(74 102 158)"/>
<rect x="40.5054" y="18.5166" width="3.25424" height="8.67797" rx="1.62712" fill="rgb(74 102 158)"/>
</g>
<defs>
<filter id="filter0_d_1033_11047" x="0" y="0.5" width="78" height="78" filterUnits="userSpaceOnUse" color-interpolation-filters="sRGB">
<feFlood flood-opacity="0" result="BackgroundImageFix"/>
<feColorMatrix in="SourceAlpha" type="matrix" values="0 0 0 0 0 0 0 0 0 0 0 0 0 0 0 0 0 0 127 0" result="hardAlpha"/>
<feOffset dx="2" dy="2"/>
<feGaussianBlur stdDeviation="3.5"/>
<feComposite in2="hardAlpha" operator="out"/>
<feColorMatrix type="matrix" values="0 0 0 0 0.403922 0 0 0 0 0.407843 0 0 0 0 0.654902 0 0 0 0.25 0"/>
<feBlend mode="normal" in2="BackgroundImageFix" result="effect1_dropShadow_1033_11047"/>
<feBlend mode="normal" in="SourceGraphic" in2="effect1_dropShadow_1033_11047" result="shape"/>
</filter>
</defs>
</svg>
