<svg width="19" height="20" viewBox="0 0 19 20" fill="none" xmlns="http://www.w3.org/2000/svg">
<g clip-path="url(#clip0_1963_14001)">
<path d="M12.7407 11.2212C13.3083 11.3939 13.8223 11.7159 14.2442 12.1477C14.0524 12.4932 13.8146 12.8073 13.5385 13.09C12.7254 12.3048 11.7972 11.6295 10.7617 11.0955C10.7617 11.0327 10.7771 10.962 10.7771 10.8914L12.7407 11.2212Z" fill="#0273A5"/>
<path d="M9.81064 7.30273C9.90269 8.37066 10.1251 9.57992 10.6391 10.6164C10.593 10.7342 10.5393 10.8442 10.4857 10.9541C10.57 10.9934 10.6544 11.0326 10.7311 11.0797C10.3246 12.6345 9.73394 13.6789 8.36858 13.8045C8.26886 13.8045 8.16914 13.8202 8.06943 13.8202C6.43559 13.8202 5.79894 12.6581 5.36938 10.8913C5.97536 9.79194 6.23616 8.46489 6.32821 7.30273C6.89583 7.54616 7.47879 7.67965 8.06943 7.67965C8.66006 7.67965 9.25069 7.54616 9.81064 7.30273Z" fill="#F9C491"/>
<path d="M14.2441 12.1478C13.8222 11.7159 13.3083 11.3939 12.7407 11.2212L10.777 10.8914C10.731 10.805 10.6773 10.7108 10.6389 10.6165C10.8 10.2318 10.9151 9.8313 10.9918 9.44653C11.4443 9.54076 11.9199 9.59573 12.3878 9.59573C12.8557 9.59573 13.3159 9.54076 13.7762 9.44653L14.6506 11.5745L14.5202 11.5431C14.4435 11.7551 14.3515 11.9514 14.2441 12.1478Z" fill="#DDA576"/>
<path d="M18.6087 18.2804C18.6471 18.5788 18.5167 18.7829 18.4323 18.8772C18.3479 18.9714 18.1715 19.1284 17.8877 19.1284H15.5788C15.7399 18.8929 15.809 18.5945 15.7783 18.2804C15.5942 16.5372 15.4484 15.2023 15.3487 14.4013C15.249 13.6318 14.9268 12.9251 14.4436 12.3597C14.5587 12.132 14.6354 11.8807 14.6661 11.6137L14.6507 11.5745L14.7504 11.598C14.8041 11.6844 14.8578 11.7708 14.9192 11.8571L14.8195 11.6216L15.5175 11.7943C16.8982 12.1477 17.9491 13.2549 18.1408 14.5505C18.2482 15.3122 18.417 16.6 18.6087 18.2804Z" fill="#0094A8"/>
<path d="M15.7783 18.2803C15.809 18.5944 15.74 18.8928 15.5789 19.1284H14.0218C13.8377 17.6364 13.6843 16.4664 13.5692 15.6655C13.4618 14.9431 13.2547 14.2442 12.9556 13.6003C13.1627 13.4511 13.3621 13.2783 13.5385 13.0899C13.5922 13.137 13.6459 13.1841 13.6996 13.2391C14.0141 13.0114 14.2749 12.713 14.4437 12.3596C14.9269 12.925 15.2491 13.6317 15.3488 14.4012C15.4485 15.2022 15.5942 16.5371 15.7783 18.2803Z" fill="#0273A5"/>
<path d="M15.5789 19.1285C15.5789 19.1285 15.5558 19.1835 15.5328 19.207C15.3411 19.4662 15.0726 19.6075 14.7811 19.6075H1.3883C1.09682 19.6075 0.828351 19.4662 0.636587 19.207C0.444823 18.9557 0.352776 18.6259 0.391129 18.2804C0.567552 16.5372 0.720963 15.2023 0.820681 14.4014C1.01244 12.9094 2.06331 11.6295 3.42867 11.229L5.36933 10.8914C5.43069 12.9565 6.61963 13.8203 8.06937 13.8203C8.16909 13.8203 8.2688 13.8124 8.36852 13.8046C9.64184 13.6947 10.639 12.878 10.7617 11.0955C11.7973 11.6295 12.7254 12.3048 13.5385 13.09C13.3621 13.2785 13.1626 13.4512 12.9555 13.6004C13.2547 14.2443 13.4618 14.9432 13.5692 15.6656C13.6842 16.4665 13.8376 17.6365 14.0217 19.1285H15.5789Z" fill="#0273A5"/>
<path d="M14.8195 11.6215L14.9192 11.857C14.8579 11.7707 14.8042 11.6843 14.7505 11.5979L14.8195 11.6215Z" fill="#DDA576"/>
<path d="M14.0217 9.68188L14.8195 11.6214L14.7504 11.5979C14.3746 10.9775 14.1598 10.3101 14.0217 9.68188Z" fill="#DDA576"/>
<path d="M14.6507 11.5744L14.666 11.6136C14.6353 11.8806 14.5586 12.1319 14.4436 12.3596C14.3822 12.2811 14.3132 12.2104 14.2441 12.1476C14.3515 11.9513 14.4436 11.755 14.5203 11.543L14.6507 11.5744Z" fill="#DDA576"/>
<path d="M14.2443 12.1477C14.3133 12.2105 14.3823 12.2812 14.4437 12.3597C14.2749 12.7131 14.0142 13.0115 13.6997 13.2392C13.646 13.1842 13.5923 13.1371 13.5386 13.09C13.8147 12.8073 14.0525 12.4932 14.2443 12.1477Z" fill="#0273A5"/>
<path d="M10.639 10.6165C10.6774 10.7107 10.7311 10.8049 10.7771 10.8913L10.7311 11.0797C10.6543 11.0326 10.57 10.9934 10.4856 10.9541C10.5393 10.8442 10.593 10.7342 10.639 10.6165Z" fill="#F9C491"/>
<path d="M10.777 10.8914C10.777 10.962 10.7693 11.0327 10.7616 11.0955C10.754 11.0955 10.7463 11.0955 10.731 11.0798L10.777 10.8914Z" fill="#F9C491"/>
<path d="M10.7309 11.0798C10.7309 11.0798 10.754 11.0877 10.7616 11.0955C10.6389 12.878 9.64172 13.6947 8.36841 13.8046C9.73377 13.679 10.3244 12.6346 10.7309 11.0798Z" fill="#F9C491"/>
<path d="M8.06934 13.8201C8.16905 13.8201 8.26877 13.8123 8.36849 13.8044C8.26877 13.8044 8.16905 13.8201 8.06934 13.8201Z" fill="#F9C491"/>
<path d="M5.36938 10.8914C5.79894 12.6581 6.43559 13.8203 8.06943 13.8203C6.61969 13.8203 5.43075 12.9565 5.36938 10.8914Z" fill="#F9C491"/>
<path d="M14.6506 11.5745L14.7504 11.598" stroke="#6768A8" stroke-miterlimit="10"/>
<path d="M14.8196 11.6216L15.5176 11.7943C16.8983 12.1477 17.9492 13.2549 18.1409 14.5505C18.2483 15.3122 18.4171 16.6 18.6088 18.2804C18.6472 18.5788 18.5168 18.7829 18.4324 18.8772C18.348 18.9714 18.1716 19.1285 17.8878 19.1285H15.579" stroke="#6768A8" stroke-miterlimit="10"/>
<path d="M14.0217 9.68188C14.1598 10.3101 14.3746 10.9775 14.7504 11.5979C14.8041 11.6842 14.8578 11.7706 14.9192 11.857" stroke="#6768A8" stroke-miterlimit="10"/>
<path d="M10.7771 10.8914L12.7407 11.2212C13.3084 11.3939 13.8223 11.7159 14.2442 12.1477C14.3132 12.2106 14.3822 12.2812 14.4436 12.3598C14.9269 12.9251 15.249 13.6318 15.3487 14.4014C15.4485 15.2023 15.5942 16.5372 15.7783 18.2804C15.809 18.5945 15.7399 18.8929 15.5789 19.1285C15.5712 19.1599 15.5558 19.1835 15.5328 19.207C15.3411 19.4662 15.0726 19.6075 14.7811 19.6075H1.3883C1.09682 19.6075 0.828351 19.4662 0.636587 19.207C0.444823 18.9557 0.352776 18.6259 0.391129 18.2804C0.567552 16.5372 0.720963 15.2023 0.820681 14.4014C1.01244 12.9094 2.06331 11.6295 3.42867 11.229L5.36933 10.8914" stroke="#6768A8" stroke-miterlimit="10"/>
<path d="M10.7771 10.8913C10.7771 10.9619 10.7695 11.0326 10.7618 11.0954C10.6391 12.8779 9.64189 13.6946 8.36858 13.8045C8.26886 13.8045 8.16914 13.8202 8.06943 13.8202C6.61969 13.8202 5.43075 12.9564 5.36938 10.8913C5.97536 9.79194 6.23616 8.46489 6.32821 7.30273C6.89583 7.54616 7.47879 7.67965 8.06943 7.67965C8.66006 7.67965 9.25069 7.54616 9.81064 7.30273C9.90269 8.37066 10.1251 9.57992 10.6391 10.6164C10.6774 10.7107 10.7311 10.8049 10.7771 10.8913V10.8913Z" stroke="#6768A8" stroke-miterlimit="10"/>
<path d="M15.2722 6.15635C15.2722 8.33931 13.7917 10.5615 12.342 10.5615C11.1454 10.5615 9.93344 9.06173 9.54224 7.31065H9.58059C9.58059 7.31065 12.0505 3.98124 15.2722 6.15635Z" fill="#F9C491"/>
<path d="M12.3421 3.15674C13.7611 3.15674 15.2722 3.94198 15.2722 6.15635C12.0506 3.98124 9.58066 7.30279 9.58066 7.30279H9.5423C9.48861 7.05152 9.44259 6.77668 9.42725 6.5097C9.6727 5.78728 9.84146 5.04131 9.92583 4.29533C10.4858 3.47869 11.4369 3.15674 12.3421 3.15674Z" fill="#757575"/>
<path d="M15.2722 6.15635C15.2722 8.33931 13.7918 10.5615 12.3421 10.5615C11.1455 10.5615 9.9335 9.06173 9.5423 7.31065C9.48861 7.05152 9.44259 6.77668 9.42725 6.5097C9.6727 5.78728 9.84146 5.04131 9.92583 4.29533C10.4858 3.47869 11.4369 3.15674 12.3421 3.15674C13.7611 3.15674 15.2722 3.94198 15.2722 6.15635V6.15635Z" stroke="#6768A8" stroke-miterlimit="10"/>
<path d="M4.09595 5.41816C4.37209 5.41031 6.04427 5.34749 7.58606 4.60152C8.74431 4.03614 10.0867 3.94192 11.2372 4.50729C11.7052 4.73501 12.058 5.0334 12.0657 5.41816C12.0733 5.42601 12.0733 5.43387 12.0657 5.43387C11.7282 8.08012 9.91791 10.4437 8.08464 10.4437C6.25138 10.4437 4.42578 8.06441 4.09595 5.41816Z" fill="#FFD8B8"/>
<path d="M12.0658 5.4181C12.0581 5.03333 11.7052 4.73494 11.2373 4.50722C10.0867 3.94185 8.7444 4.03608 7.58614 4.60145C6.04436 5.34743 4.37217 5.41025 4.09603 5.4181C4.05768 5.13541 4.03467 4.83702 4.03467 4.54648C4.03467 1.48406 6.21311 0.392578 8.08473 0.392578C9.95635 0.392578 12.1271 1.48406 12.1271 4.54648C12.1271 4.83702 12.1041 5.13541 12.0658 5.4181Z" fill="#757575"/>
<path d="M12.0658 5.4338C11.7282 8.08005 9.91799 10.4436 8.08473 10.4436C6.25146 10.4436 4.42587 8.06435 4.09603 5.4181C4.05768 5.13541 4.03467 4.83702 4.03467 4.54648C4.03467 1.48406 6.21311 0.392578 8.08473 0.392578C9.95635 0.392578 12.1271 1.48406 12.1271 4.54648C12.1271 4.83702 12.1041 5.13541 12.0658 5.4181" stroke="#6768A8" stroke-miterlimit="10"/>
</g>
<defs>
<clipPath id="clip0_1963_14001">
<rect width="19" height="20" fill="white"/>
</clipPath>
</defs>
</svg>
