<svg width="15" height="18" viewBox="0 0 15 18" fill="none" xmlns="http://www.w3.org/2000/svg">
<g clip-path="url(#clip0_1960_13827)">
<path d="M13.4871 1.18848H1.57471V14.4428H13.4871V1.18848Z" fill="#F55942"/>
<path d="M13.4872 1.18848H7.53101V14.4428H13.4872V1.18848Z" fill="#F55942"/>
<path d="M0.369629 17.1557L0.931016 10.2841L0.828324 0.844238H14.2332V10.3116L14.6371 17.1557H0.369629Z" fill="#FF8465"/>
<path d="M13.8909 1.18854V10.3117L14.2743 16.8115H0.746235L1.28024 10.3117L1.1707 1.18854H13.8909ZM14.5755 0.5H0.479233V1.19542L0.588772 10.2841L0.0616157 16.7564L0 17.5H15L14.9589 16.7701L14.5755 10.291V0.5Z" fill="#6768A8"/>
<path d="M7.53076 1.18848V16.8114H14.2743L13.8909 10.3116V1.18848H7.53076Z" fill="#FF6E53"/>
<path d="M7.53081 9.21677C5.71657 9.21677 4.23779 7.72953 4.23779 5.90491V2.49664C4.23779 2.11795 4.54587 1.80811 4.92241 1.80811C5.29895 1.80811 5.60703 2.11795 5.60703 2.49664V5.90491C5.60703 6.97214 6.46965 7.8397 7.53081 7.8397C8.59197 7.8397 9.45459 6.97214 9.45459 5.90491V2.49664C9.45459 2.11795 9.76267 1.80811 10.1392 1.80811C10.5157 1.80811 10.8238 2.11795 10.8238 2.49664V5.90491C10.8238 7.72953 9.34505 9.21677 7.53081 9.21677Z" fill="#BE0926"/>
</g>
<defs>
<clipPath id="clip0_1960_13827">
<rect width="15" height="17" fill="white" transform="translate(0 0.5)"/>
</clipPath>
</defs>
</svg>
