<svg width="17" height="18" viewBox="0 0 17 18" fill="none" xmlns="http://www.w3.org/2000/svg">
<g clip-path="url(#clip0_1960_13802)">
<path fill-rule="evenodd" clip-rule="evenodd" d="M5.07013 17.5733C3.82072 17.5733 2.65192 17.0612 1.7733 16.1309C-0.0484139 14.202 -0.0484139 11.0697 1.76524 9.14084L8.63295 1.86915C9.51157 0.938849 10.6804 0.426758 11.9298 0.426758C13.1792 0.426758 14.348 0.938849 15.2266 1.86915C17.0483 3.79802 17.0483 6.93031 15.2266 8.85919L8.35889 16.1309C7.48027 17.0612 6.31147 17.5733 5.06206 17.5733H5.07013Z" fill="#B0E3EB"/>
<path d="M11.9381 0.853475C13.0343 0.853475 14.1225 1.28875 14.9528 2.16784C16.6133 3.92602 16.6133 6.79373 14.9528 8.55191L8.08506 15.8236C7.25481 16.7027 6.16661 17.138 5.07036 17.138C3.9741 17.138 2.88591 16.7027 2.05566 15.8236C0.395156 14.0654 0.395156 11.1977 2.05566 9.43954L8.92337 2.16784C9.75362 1.28875 10.8418 0.853475 11.9381 0.853475ZM11.9381 -1.00713e-05C10.5839 -1.00713e-05 9.31028 0.554755 8.35106 1.5704L1.48335 8.8421C-0.49152 10.9331 -0.49152 14.3385 1.48335 16.4296C2.43451 17.4367 3.7081 18 5.07036 18C6.43261 18 7.69814 17.4452 8.65737 16.4296L15.5251 9.15788C16.4762 8.15077 17.0082 6.80227 17.0082 5.35988C17.0082 3.91749 16.4843 2.57751 15.5251 1.56187C14.5739 0.554755 13.3003 -0.00854492 11.9381 -0.00854492V-1.00713e-05Z" fill="#6768A8"/>
<path fill-rule="evenodd" clip-rule="evenodd" d="M14.9525 2.16797C16.613 3.92615 16.613 6.79386 14.9525 8.55204L8.08482 15.8237C6.42431 17.5819 3.71592 17.5819 2.05542 15.8237L14.9525 2.16797Z" fill="#B0E3EB"/>
<path fill-rule="evenodd" clip-rule="evenodd" d="M5.48926 5.8036L8.92311 2.16776C10.5836 0.409576 13.292 0.409576 14.9525 2.16776C16.613 3.92593 16.613 6.79364 14.9525 8.55182L11.5187 12.1877L5.48926 5.8036Z" fill="#00B2C8"/>
<path fill-rule="evenodd" clip-rule="evenodd" d="M14.9527 2.16797C16.6132 3.92615 16.6132 6.79386 14.9527 8.55204L11.5188 12.1879L8.50415 8.99585L14.9527 2.16797Z" fill="#0094A8"/>
</g>
<defs>
<clipPath id="clip0_1960_13802">
<rect width="17" height="18" fill="white"/>
</clipPath>
</defs>
</svg>
