<svg width="19" height="22" viewBox="0 0 19 22" fill="none" xmlns="http://www.w3.org/2000/svg">
<g clip-path="url(#clip0_1956_13606)">
<path d="M12.584 3.77572L14.407 1.74366C14.6138 1.51313 14.9554 1.50794 15.169 1.7137L17.6827 4.13536C17.9045 4.34903 17.9085 4.70306 17.7093 4.92505L15.8863 6.95711C15.6795 7.18764 15.3379 7.19283 15.1243 6.98707L12.6106 4.56541C12.3888 4.35174 12.3848 3.99771 12.584 3.77572Z" fill="#DD4E31" stroke="#6768A8" stroke-linecap="round" stroke-linejoin="round"/>
<path d="M2.96469 14.5049L1.00457 20.3082L6.30496 17.7195L2.96469 14.5049Z" fill="#F7CF9C" stroke="#6768A8" stroke-linecap="round" stroke-linejoin="round"/>
<path d="M2.63988 17.1831L1.96064 19.2057L3.80693 18.3034L2.63988 17.1831Z" fill="#2B2B38"/>
<path d="M12.6402 3.72039L2.96997 14.4919L6.31227 17.7141L15.9825 6.94257L12.6402 3.72039Z" fill="#F9CA35" stroke="#6768A8" stroke-linecap="round" stroke-linejoin="round"/>
<path d="M16.7696 6.05764L15.968 6.95664L12.6282 3.73048L13.4293 2.84312" fill="#F0F1F1"/>
<path d="M16.7696 6.05764L15.968 6.95664L12.6282 3.73048L13.4293 2.84312" stroke="#6768A8" stroke-linecap="round" stroke-linejoin="round"/>
<path d="M13.753 5.59189L4.84741 15.5083L6.27607 16.8861L15.1817 6.96969L13.753 5.59189Z" fill="#E8AF2E"/>
</g>
<defs>
<clipPath id="clip0_1956_13606">
<rect width="17.3295" height="20.4673" fill="white" transform="translate(1.26611 0.416748) rotate(2.37104)"/>
</clipPath>
</defs>
</svg>
