<svg width="19" height="16" viewBox="0 0 19 16" fill="none" xmlns="http://www.w3.org/2000/svg">
<g clip-path="url(#clip0_1961_13944)">
<path d="M9.7797 3.14164V14.5222L9.50009 14.8054L2.67582 7.89385C1.12922 6.32748 1.12922 3.76996 2.67582 2.20359C4.22242 0.637216 6.73893 0.637216 8.29427 2.20359L9.22048 3.14164C9.37776 3.30093 9.62242 3.30093 9.7797 3.14164Z" fill="#F22F2F"/>
<path d="M16.3242 2.20363C17.8708 3.77885 17.8708 6.31868 16.3242 7.8939L9.77954 14.5222V3.14169L10.7058 2.20363C12.2611 0.628412 14.7689 0.628412 16.3242 2.20363Z" fill="#CC1B1B"/>
<path d="M16.3243 7.89379C17.8709 6.31857 17.8709 3.77874 16.3243 2.20352C14.769 0.628301 12.2612 0.628301 10.7059 2.20352L9.77968 3.14158C9.6224 3.30087 9.37774 3.30087 9.22046 3.14158L8.29425 2.20352C6.73891 0.637151 4.2224 0.637151 2.6758 2.20352C1.1292 3.76989 1.1292 6.32742 2.6758 7.89379L9.50007 14.8053L9.77968 14.5221L16.3243 7.89379ZM16.8836 1.63715C18.7447 3.52211 18.7447 6.5752 16.8836 8.46016L9.77968 15.6549C9.6224 15.8141 9.37774 15.8141 9.22046 15.6549L2.11658 8.46016C0.255412 6.5752 0.255412 3.51326 2.11658 1.63715C3.969 -0.247805 6.99231 -0.247805 8.85347 1.63715L9.50007 2.29202L10.1467 1.63715C12.0078 -0.256655 15.0224 -0.256655 16.8836 1.63715Z" fill="#6768A8"/>
</g>
<defs>
<clipPath id="clip0_1961_13944">
<rect width="18" height="16" fill="white" transform="translate(0.5)"/>
</clipPath>
</defs>
</svg>
