<svg width="18" height="18" viewBox="0 0 18 18" fill="none" xmlns="http://www.w3.org/2000/svg">
<g clip-path="url(#clip0_1961_13880)">
<path d="M15.6712 13.9159C16.6905 12.5427 17.2921 10.8368 17.2921 8.9965C17.2921 8.97526 17.2921 8.96111 17.2921 8.93987L15.742 4.16913C14.7085 2.73224 13.2363 1.64219 11.5092 1.09009H6.4907C4.77068 1.63511 3.29133 2.73224 2.2579 4.16913L0.707764 8.93987C0.707764 8.93987 0.707764 8.97526 0.707764 8.9965C0.707764 10.8368 1.30942 12.5356 2.32868 13.9159L6.38452 16.8675C7.2056 17.1436 8.0833 17.2922 8.9964 17.2922C9.90949 17.2922 10.7872 17.1436 11.6083 16.8675L15.6641 13.9159H15.6712Z" fill="#D6E4F3"/>
<path d="M8.99635 8.9965V1.09717H6.48357C4.76356 1.64219 3.2842 2.73932 2.25078 4.17621L1.47925 6.56158L8.99635 9.00358V8.9965Z" fill="#F0F7FB"/>
<path d="M6.38449 16.8674C7.20556 17.1434 8.08327 17.2921 8.99636 17.2921V8.99634L4.35303 15.388L6.38449 16.8674Z" fill="#F0F7FB"/>
<path d="M9.28655 5.33683L12.3939 7.59479C12.5638 7.71512 12.6346 7.93455 12.5709 8.13982L11.3817 11.7922C11.318 11.9904 11.1269 12.1249 10.9216 12.1249H7.07813C6.86579 12.1249 6.68175 11.9904 6.61805 11.7922L5.4289 8.13982C5.3652 7.94163 5.4289 7.7222 5.60586 7.59479L8.71321 5.33683C8.88309 5.2165 9.11667 5.2165 9.28655 5.33683Z" fill="#374969"/>
<path d="M6.49072 1.09707C7.28349 0.84225 8.1258 0.707764 9.0035 0.707764C9.88121 0.707764 10.7235 0.84225 11.5163 1.09707L9.29371 2.71091C9.12383 2.83124 8.89025 2.83124 8.72037 2.71091L6.4978 1.09707H6.49072Z" fill="#374969"/>
<path d="M15.6711 13.9158C14.666 15.2748 13.2503 16.3224 11.6152 16.8674L12.4646 14.2555C12.5283 14.0573 12.7194 13.9228 12.9247 13.9228H15.6711V13.9158Z" fill="#1F2746"/>
<path d="M2.2579 4.16895C1.29526 5.51381 0.72192 7.16305 0.707764 8.93969L2.93034 7.32585C3.10021 7.20552 3.171 6.98609 3.10729 6.78082L2.2579 4.16895Z" fill="#374969"/>
<path d="M2.32861 13.9158C3.33373 15.2748 4.74938 16.3224 6.38445 16.8674L5.53506 14.2555C5.47136 14.0573 5.28025 13.9228 5.07498 13.9228H2.32861V13.9158Z" fill="#374969"/>
<path d="M15.7419 4.16895C16.7045 5.51381 17.2779 7.16305 17.292 8.93969L15.0695 7.32585C14.8996 7.20552 14.8288 6.98609 14.8925 6.78082L15.7419 4.16895Z" fill="#1F2746"/>
<path d="M10.9216 12.132C11.134 12.132 11.318 11.9975 11.3817 11.7993L12.5709 8.14696C12.6346 7.94877 12.5709 7.72934 12.3939 7.60193L9.28655 5.34397C9.20161 5.28027 9.10251 5.25195 9.00342 5.25195V12.1391H10.9216V12.132Z" fill="#1F2746"/>
<path d="M8.99634 0.707764V2.80293C9.09543 2.80293 9.19453 2.77461 9.27947 2.71091L11.502 1.09707C10.7093 0.84225 9.86696 0.707764 8.98926 0.707764H8.99634Z" fill="#1F2746"/>
<path d="M8.99646 0.707825C13.5761 0.707825 17.2851 4.41683 17.2851 8.99646C17.2851 13.5761 13.5761 17.2851 8.99646 17.2851C4.41683 17.2851 0.707825 13.5761 0.707825 8.99646C0.707825 4.41683 4.41683 0.707825 8.99646 0.707825ZM8.99646 0C4.0346 0 0 4.0346 0 8.99646C0 13.9583 4.0346 17.9929 8.99646 17.9929C13.9583 17.9929 17.9929 13.9583 17.9929 8.99646C17.9929 4.0346 13.9583 0 8.99646 0Z" fill="#6768A8"/>
</g>
<defs>
<clipPath id="clip0_1961_13880">
<rect width="18" height="18" fill="white"/>
</clipPath>
</defs>
</svg>
