<svg width="17" height="18" viewBox="0 0 17 18" fill="none" xmlns="http://www.w3.org/2000/svg">
<g clip-path="url(#clip0_1962_13960)">
<path d="M12.7349 8.61808C11.3046 7.61442 9.46934 8.02299 8.50431 9.53292C7.70299 10.7941 6.48809 10.954 6.01419 10.954C4.48049 10.954 3.43791 9.84378 3.12772 8.68913C3.12772 8.68913 3.12772 8.67137 3.12772 8.65361C3.12772 8.64472 3.12772 8.62696 3.11911 8.61808C2.99848 8.13845 2.96401 7.90752 2.96401 7.40125C2.96401 4.64786 5.704 1.59248 9.64166 1.59248C13.5793 1.59248 15.9919 4.76332 16.5864 6.52194C16.5778 6.4953 16.5692 6.45977 16.552 6.43313C15.3887 2.97806 12.2266 0.5 8.49569 0.5C3.80841 0.5 0 4.42581 0 9.25758C0 13.5831 3.02433 17.2868 7.22048 17.2868C10.5722 17.2868 12.8211 15.3506 13.855 12.686C14.4237 11.2294 14.0188 9.51515 12.7349 8.6092" fill="#003668"/>
<path d="M16.6209 6.68172C16.1211 4.96751 13.7947 1.5835 9.62443 1.5835C5.68677 1.5835 2.94678 4.64776 2.94678 7.39227C2.94678 7.89854 2.97263 8.12947 3.10187 8.6091C3.05017 8.39593 3.02432 8.19165 3.02432 7.98736C3.02432 5.12738 5.8074 3.13783 8.66801 3.13783C12.5367 3.13783 15.6731 6.37085 15.6731 10.3588C15.6731 13.4853 13.924 16.1943 11.3908 17.491C14.665 16.2742 17 13.0412 17 9.2486C17 8.35152 16.8794 7.56103 16.6295 6.67284" fill="#E6002D"/>
</g>
<defs>
<clipPath id="clip0_1962_13960">
<rect width="17" height="17" fill="white" transform="translate(0 0.5)"/>
</clipPath>
</defs>
</svg>
