<svg width="19" height="22" viewBox="0 0 19 22" fill="none" xmlns="http://www.w3.org/2000/svg">
<g clip-path="url(#clip0_1959_13711)">
<path fill-rule="evenodd" clip-rule="evenodd" d="M14.2591 6.65579C14.151 6.65579 14.0428 6.61947 13.9617 6.54684L13.5651 6.19275C13.3758 6.02933 13.3578 5.7388 13.5291 5.54814L16.8189 1.78938C16.8189 1.78938 16.864 1.74398 16.891 1.71675L17.8374 1.03581C17.9185 0.981339 18.0087 0.954102 18.0988 0.954102C18.207 0.954102 18.3151 0.990418 18.3962 1.06305C18.5495 1.19924 18.5945 1.43529 18.4954 1.61688L17.9456 2.64282C17.9456 2.64282 17.9095 2.70637 17.8915 2.72453L14.6016 6.48328C14.5205 6.57408 14.4124 6.62855 14.2952 6.63763C14.2862 6.63763 14.2772 6.63763 14.2682 6.63763L14.2591 6.65579Z" fill="#C8F3FA"/>
<path d="M18.0988 1.40796L17.549 2.4339L14.2591 6.19265L13.8625 5.83857L17.1524 2.07981L18.0988 1.39888M18.0988 0.490967C18.0988 0.490967 18.0808 0.490967 18.0717 0.490967C17.8825 0.490967 17.7112 0.5636 17.576 0.66347L16.6386 1.33532C16.5846 1.37164 16.5305 1.42612 16.4854 1.47151L13.1956 5.23027C13.0333 5.41185 12.9612 5.64791 12.9702 5.88396C12.9792 6.12002 13.0964 6.347 13.2767 6.51042L13.6733 6.86451C13.8445 7.01885 14.0608 7.09149 14.2681 7.09149C14.5205 7.09149 14.7639 6.99162 14.9441 6.7828L18.234 3.02404C18.2791 2.96957 18.3151 2.91509 18.3512 2.85154L18.8739 1.87099C18.9551 1.73481 19.0091 1.57138 19.0091 1.39888C19.0001 0.908606 18.6035 0.500046 18.1078 0.500046L18.0988 0.490967Z" fill="#6768A8"/>
<path fill-rule="evenodd" clip-rule="evenodd" d="M14.0608 6.02923L14.2591 6.20173L17.5489 2.4339L18.0987 1.40796L14.0608 6.02923Z" fill="#B0E3EB"/>
<path fill-rule="evenodd" clip-rule="evenodd" d="M15.3586 7.20056C15.2505 7.20056 15.1423 7.16424 15.0612 7.09161L13.3397 5.56632C13.2495 5.4846 13.1955 5.37565 13.1864 5.25763C13.1774 5.1396 13.2225 5.02157 13.2946 4.93078L13.3667 4.84907C13.4388 4.76735 13.538 4.71288 13.6371 4.7038L14.8629 4.52222C14.8629 4.52222 14.908 4.52222 14.926 4.52222C15.0342 4.52222 15.1423 4.55853 15.2234 4.63117L15.7462 5.0942C15.8454 5.18499 15.8994 5.3121 15.8994 5.43921L15.8814 6.68305C15.8814 6.792 15.8364 6.89187 15.7733 6.97358L15.7012 7.05529C15.62 7.14608 15.5119 7.20056 15.3947 7.20964C15.3857 7.20964 15.3767 7.20964 15.3677 7.20964L15.3586 7.20056Z" fill="#1D3867"/>
<path d="M14.9261 4.95796L15.4489 5.421L15.4309 6.66483L15.3588 6.74655L13.6372 5.22125L13.7093 5.13954L14.9351 4.95796M14.9351 4.05005C14.9351 4.05005 14.845 4.05005 14.8089 4.05913L13.5831 4.24071C13.3758 4.26795 13.1775 4.3769 13.0423 4.54032L12.9702 4.62203C12.808 4.80362 12.7269 5.03967 12.7449 5.27573C12.7629 5.51179 12.8711 5.73876 13.0514 5.90219L14.7729 7.42748C14.9351 7.57275 15.1514 7.65446 15.3678 7.65446C15.3858 7.65446 15.4038 7.65446 15.4218 7.65446C15.6562 7.6363 15.8815 7.52735 16.0438 7.34577L16.1159 7.26406C16.2601 7.10063 16.3322 6.90089 16.3412 6.68299L16.3592 5.43915C16.3592 5.17586 16.2511 4.92164 16.0528 4.74006L15.53 4.27703C15.3678 4.13176 15.1514 4.05005 14.9351 4.05005Z" fill="#6768A8"/>
<path fill-rule="evenodd" clip-rule="evenodd" d="M14.3853 5.96551L15.3407 6.74632L15.4128 6.6646L15.4488 5.39353L15.1514 5.15747L14.3853 5.96551Z" fill="#101E38"/>
<path d="M4.94517 14.7734L2.72363 17.3152L4.37432 18.779L6.59586 16.2372L4.94517 14.7734Z" fill="#757575" stroke="#6768A8" stroke-linecap="round" stroke-linejoin="round"/>
<path d="M5.78306 15.5077L3.56152 18.0496L4.38687 18.7815L6.60841 16.2397L5.78306 15.5077Z" fill="#545454"/>
<path d="M12.1752 4.19558L4.01562 13.5315L7.94616 17.0171L16.1057 7.68121L12.1752 4.19558Z" fill="#B0E3EB" stroke="#6768A8" stroke-linecap="round" stroke-linejoin="round"/>
<path d="M14.1393 5.94289L5.97974 15.2788L7.94162 17.0186L16.1012 7.68271L14.1393 5.94289Z" fill="#B0E3EB" stroke="#6768A8" stroke-linecap="round" stroke-linejoin="round"/>
<path d="M8.37488 9.95261L4.50952 14.3752L7.05321 16.631L10.9186 12.2084L8.37488 9.95261Z" fill="#B0E3EB"/>
<path d="M9.64588 11.0766L5.78052 15.4993L7.05236 16.6271L10.9177 12.2045L9.64588 11.0766Z" fill="#92C9D1"/>
<path d="M12.2073 4.46762L7.69873 9.62622L11.3181 12.8359L15.8267 7.67728L12.2073 4.46762Z" fill="#0091E4"/>
<path d="M14.0164 6.08041L9.50781 11.239L11.3141 12.8408L15.8227 7.68224L14.0164 6.08041Z" fill="#0273A5"/>
<path fill-rule="evenodd" clip-rule="evenodd" d="M2.16309 13.8826L7.74231 18.8307L9.13937 17.3326L3.55113 12.3845L2.16309 13.8826Z" fill="#757575" stroke="#6768A8" stroke-linecap="round" stroke-linejoin="round"/>
<path fill-rule="evenodd" clip-rule="evenodd" d="M4.90332 15.7801L7.69744 18.2587L8.51765 17.3326L5.72353 14.854L4.90332 15.7801Z" fill="#545454"/>
<path fill-rule="evenodd" clip-rule="evenodd" d="M0.450684 17.6686L4.25429 21.046L5.52516 19.6569L1.72156 16.2886L0.450684 17.6686Z" fill="#757575" stroke="#6768A8" stroke-linecap="round" stroke-linejoin="round"/>
<path fill-rule="evenodd" clip-rule="evenodd" d="M2.28027 18.7037L4.19109 20.4559L4.90314 19.7205L2.92923 17.9683L2.28027 18.7037Z" fill="#545454"/>
<path d="M11.6693 5.4743L11.4846 5.68555L12.9797 7.01141L13.1643 6.80016L11.6693 5.4743Z" fill="white"/>
<path d="M10.6358 6.66253L10.4512 6.87378L11.9463 8.19964L12.1309 7.98839L10.6358 6.66253Z" fill="white"/>
<path d="M9.59552 7.8449L9.41089 8.05615L10.906 9.38201L11.0906 9.17076L9.59552 7.8449Z" fill="white"/>
<path d="M8.56183 9.03313L8.3772 9.24438L9.87229 10.5702L10.0569 10.359L8.56183 9.03313Z" fill="white"/>
<path d="M7.51935 10.2214L7.33472 10.4326L8.82981 11.7585L9.01444 11.5472L7.51935 10.2214Z" fill="white"/>
<path d="M6.48569 11.4118L6.30103 11.623L7.79589 12.9492L7.98056 12.738L6.48569 11.4118Z" fill="white"/>
<path d="M5.4459 12.5979L5.26123 12.8091L6.75609 14.1352L6.94076 13.924L5.4459 12.5979Z" fill="white"/>
</g>
<defs>
<clipPath id="clip0_1959_13711">
<rect width="19" height="21" fill="white" transform="translate(0 0.5)"/>
</clipPath>
</defs>
</svg>
