<svg width="14" height="20" viewBox="0 0 14 20" fill="none" xmlns="http://www.w3.org/2000/svg">
<g clip-path="url(#clip0_1961_13861)">
<path d="M5.50331 19.6297C4.97753 19.6297 4.54988 19.178 4.54988 18.6226V9.98878H1.30402C0.778227 9.98878 0.350586 9.53709 0.350586 8.98174V5.81255C0.350586 5.2572 0.778227 4.80551 1.30402 4.80551H4.5569V1.37715C4.5569 0.821802 4.98454 0.370117 5.51033 0.370117H8.51083C9.0296 0.370117 9.45024 0.814397 9.45024 1.36234V4.81292H12.7171C13.2359 4.81292 13.6565 5.2572 13.6565 5.80514V8.98915C13.6565 9.5445 13.2289 9.99618 12.7031 9.99618H9.45024V18.63C9.45024 19.1854 9.02259 19.6371 8.49681 19.6371H5.50331V19.6297Z" fill="#FFC033"/>
<path d="M8.50376 0.740466C8.82624 0.740466 9.09264 1.02184 9.09264 1.36246V5.18327H12.7101C13.0325 5.18327 13.2989 5.46464 13.2989 5.80526V8.98926C13.2989 9.33728 13.0325 9.62606 12.696 9.62606H9.09264V18.6301C9.09264 18.9782 8.82624 19.2669 8.48973 19.2669H5.50325C5.17376 19.2669 4.90035 18.9856 4.90035 18.6301V9.61866H1.30396C0.974462 9.61866 0.701052 9.33728 0.701052 8.98186V5.81266C0.701052 5.46464 0.967451 5.17586 1.30396 5.17586H4.90736V1.37727C4.90736 1.02925 5.17376 0.740466 5.51027 0.740466H8.51077M8.51077 0H5.50325C4.78818 0 4.1993 0.614587 4.1993 1.37727V4.4428H1.30396C0.588883 4.4428 0 5.05739 0 5.82007V8.98926C0 9.74454 0.581873 10.3665 1.30396 10.3665H4.20631V18.6301C4.20631 19.3854 4.78818 20.0074 5.51027 20.0074H8.49675C9.21182 20.0074 9.8007 19.3928 9.8007 18.6301V10.3591H12.7031C13.4181 10.3591 14.007 9.74454 14.007 8.98186V5.79785C14.007 5.04998 13.4321 4.43539 12.7171 4.43539H9.8007V1.36246C9.8007 0.614587 9.22584 0 8.51077 0Z" fill="#6768A8"/>
<path d="M12.6891 5.18328H9.09273V1.39949C9.09273 1.03667 8.81231 0.740479 8.46879 0.740479H6.99658V19.2595H8.48281C8.81932 19.2595 9.09273 18.9708 9.09273 18.6153V9.61867H12.6891C13.0256 9.61867 13.299 9.32989 13.299 8.97447V5.82008C13.299 5.46465 13.0256 5.17587 12.6891 5.17587V5.18328Z" fill="#F9A926"/>
</g>
<defs>
<clipPath id="clip0_1961_13861">
<rect width="14" height="20" fill="white"/>
</clipPath>
</defs>
</svg>
