<svg width="19" height="16" viewBox="0 0 19 16" fill="none" xmlns="http://www.w3.org/2000/svg">
<g clip-path="url(#clip0_1959_13689)">
<path d="M13.5277 0.431152H5.41704C4.86368 0.431152 4.41309 1.0346 4.41309 1.45701V5.87943C4.41309 6.29322 4.86368 6.63805 5.41704 6.63805H13.5277C14.0811 6.63805 14.5317 6.30184 14.5317 5.87943V1.45701C14.5317 1.04322 14.0811 0.431152 13.5277 0.431152ZM12.7056 4.38805C12.7056 4.62943 12.3498 4.8277 11.9072 4.8277H7.0534C6.61071 4.8277 6.25498 4.62943 6.25498 4.38805V2.68115C6.25498 2.43977 6.61071 2.2415 7.0534 2.2415H11.9072C12.3498 2.2415 12.7056 2.43977 12.7056 2.68115V4.38805Z" fill="#B77E18" stroke="#6768A8" stroke-linecap="round" stroke-linejoin="round"/>
<path d="M17.7807 4.23267H1.21948V15.5775H17.7807V4.23267Z" fill="#B77E18" stroke="#6768A8" stroke-linecap="round" stroke-linejoin="round"/>
<path d="M0.895264 8.2413L9.50396 9.16371L18.1048 8.31888V4.12061H0.895264V8.2413Z" fill="#DB9B2A" stroke="#6768A8" stroke-linecap="round" stroke-linejoin="round"/>
<path d="M10.3578 8.12915H9.09296C8.95762 8.12915 8.8479 8.2488 8.8479 8.39639V9.93087C8.8479 10.0785 8.95762 10.1981 9.09296 10.1981H10.3578C10.4931 10.1981 10.6028 10.0785 10.6028 9.93087V8.39639C10.6028 8.2488 10.4931 8.12915 10.3578 8.12915Z" fill="#D0D2D3"/>
</g>
<defs>
<clipPath id="clip0_1959_13689">
<rect width="18" height="16" fill="white" transform="translate(0.5)"/>
</clipPath>
</defs>
</svg>
