<svg width="12" height="13" viewBox="0 0 12 13" fill="none" xmlns="http://www.w3.org/2000/svg">
<mask id="path-1-outside-1_2346_15485" maskUnits="userSpaceOnUse" x="-0.5" y="0" width="13" height="13" fill="black">
<rect fill="white" x="-0.5" width="13" height="13"/>
<path fill-rule="evenodd" clip-rule="evenodd" d="M5.98563 7.11108C4.30731 7.1033 2.94447 5.73568 2.94447 4.05556C2.94447 2.37064 4.3151 1 6.00002 1C7.68494 1 9.05558 2.37064 9.05558 4.05556C9.05558 5.73587 7.69243 7.10361 6.01384 7.11108C8.59846 7.11634 10.8365 8.50152 11.4485 10.4888C11.5521 10.8355 11.5003 11.2 11.2844 11.4933C11.0599 11.8133 10.6885 12 10.2913 12H1.7069C1.30963 12 0.938276 11.8133 0.713735 11.4933C0.506467 11.2 0.446014 10.8355 0.549648 10.4888C1.16176 8.50118 3.40046 7.11586 5.98563 7.11108ZM3.81748 4.05556C3.81748 2.85079 4.79526 1.87302 6.00002 1.87302C7.20478 1.87302 8.18256 2.85079 8.18256 4.05556C8.18256 5.26032 7.20478 6.23809 6.00002 6.23809C4.79526 6.23809 3.81748 5.26032 3.81748 4.05556ZM1.37008 10.7555C1.86235 9.15551 3.81412 7.99995 5.99907 7.99995C8.18402 7.99995 10.1358 9.15551 10.6281 10.7555C10.6626 10.8533 10.6281 10.9244 10.5935 10.9688C10.5244 11.0577 10.4122 11.1111 10.2913 11.1111H1.7069C1.57735 11.1111 1.46508 11.0577 1.40463 10.9688C1.37008 10.9244 1.34418 10.8444 1.37008 10.7555Z"/>
</mask>
<path fill-rule="evenodd" clip-rule="evenodd" d="M5.98563 7.11108C4.30731 7.1033 2.94447 5.73568 2.94447 4.05556C2.94447 2.37064 4.3151 1 6.00002 1C7.68494 1 9.05558 2.37064 9.05558 4.05556C9.05558 5.73587 7.69243 7.10361 6.01384 7.11108C8.59846 7.11634 10.8365 8.50152 11.4485 10.4888C11.5521 10.8355 11.5003 11.2 11.2844 11.4933C11.0599 11.8133 10.6885 12 10.2913 12H1.7069C1.30963 12 0.938276 11.8133 0.713735 11.4933C0.506467 11.2 0.446014 10.8355 0.549648 10.4888C1.16176 8.50118 3.40046 7.11586 5.98563 7.11108ZM3.81748 4.05556C3.81748 2.85079 4.79526 1.87302 6.00002 1.87302C7.20478 1.87302 8.18256 2.85079 8.18256 4.05556C8.18256 5.26032 7.20478 6.23809 6.00002 6.23809C4.79526 6.23809 3.81748 5.26032 3.81748 4.05556ZM1.37008 10.7555C1.86235 9.15551 3.81412 7.99995 5.99907 7.99995C8.18402 7.99995 10.1358 9.15551 10.6281 10.7555C10.6626 10.8533 10.6281 10.9244 10.5935 10.9688C10.5244 11.0577 10.4122 11.1111 10.2913 11.1111H1.7069C1.57735 11.1111 1.46508 11.0577 1.40463 10.9688C1.37008 10.9244 1.34418 10.8444 1.37008 10.7555Z" fill="#5F61BD"/>
<path d="M5.98563 7.11108L5.9861 7.36108L5.98679 6.86108L5.98563 7.11108ZM6.01384 7.11108L6.01273 6.86108L6.01333 7.36108L6.01384 7.11108ZM11.4485 10.4888L11.688 10.4172L11.6874 10.4153L11.4485 10.4888ZM11.2844 11.4933L11.083 11.3451L11.0798 11.3497L11.2844 11.4933ZM0.713735 11.4933L0.918382 11.3497L0.917908 11.349L0.713735 11.4933ZM0.549648 10.4888L0.310712 10.4153L0.310122 10.4172L0.549648 10.4888ZM1.37008 10.7555L1.13111 10.682L1.13007 10.6856L1.37008 10.7555ZM10.6281 10.7555L10.3889 10.8291L10.3923 10.8388L10.6281 10.7555ZM10.5935 10.9688L10.7909 11.1223L10.7909 11.1223L10.5935 10.9688ZM1.40463 10.9688L1.61135 10.8283L1.60689 10.8217L1.60202 10.8154L1.40463 10.9688ZM5.98679 6.86108C4.44601 6.85394 3.19447 5.59799 3.19447 4.05556H2.69447C2.69447 5.87337 4.1686 7.35266 5.98447 7.36107L5.98679 6.86108ZM3.19447 4.05556C3.19447 2.50871 4.45317 1.25 6.00002 1.25V0.75C4.17703 0.75 2.69447 2.23256 2.69447 4.05556H3.19447ZM6.00002 1.25C7.54687 1.25 8.80558 2.50871 8.80558 4.05556H9.30558C9.30558 2.23256 7.82301 0.75 6.00002 0.75V1.25ZM8.80558 4.05556C8.80558 5.59816 7.55375 6.85422 6.01273 6.86108L6.01496 7.36108C7.83111 7.353 9.30558 5.87357 9.30558 4.05556H8.80558ZM6.01333 7.36108C8.52398 7.36619 10.6392 8.71022 11.2096 10.5624L11.6874 10.4153C11.0338 8.29282 8.67293 6.86649 6.01435 6.86108L6.01333 7.36108ZM11.209 10.5604C11.2918 10.8376 11.2491 11.1196 11.0831 11.3451L11.4858 11.6415C11.7516 11.2803 11.8125 10.8335 11.688 10.4172L11.209 10.5604ZM11.0798 11.3497C10.904 11.6001 10.6106 11.75 10.2913 11.75V12.25C10.7664 12.25 11.2157 12.0264 11.4891 11.6369L11.0798 11.3497ZM10.2913 11.75H1.7069V12.25H10.2913V11.75ZM1.7069 11.75C1.38757 11.75 1.09412 11.6001 0.918381 11.3497L0.50909 11.6369C0.78243 12.0264 1.2317 12.25 1.7069 12.25V11.75ZM0.917908 11.349C0.754896 11.1183 0.70756 10.8335 0.789174 10.5604L0.310122 10.4172C0.184467 10.8376 0.258038 11.2816 0.509562 11.6376L0.917908 11.349ZM0.788575 10.5624C1.35906 8.7099 3.4749 7.36573 5.9861 7.36108L5.98517 6.86108C3.32602 6.866 0.964446 8.29245 0.310721 10.4153L0.788575 10.5624ZM6.00002 1.62302C4.65719 1.62302 3.56748 2.71272 3.56748 4.05556H4.06748C4.06748 2.98886 4.93333 2.12302 6.00002 2.12302V1.62302ZM8.43256 4.05556C8.43256 2.71272 7.34286 1.62302 6.00002 1.62302V2.12302C7.06671 2.12302 7.93256 2.98886 7.93256 4.05556H8.43256ZM6.00002 6.48809C7.34286 6.48809 8.43256 5.39839 8.43256 4.05556H7.93256C7.93256 5.12225 7.06671 5.98809 6.00002 5.98809V6.48809ZM3.56748 4.05556C3.56748 5.39839 4.65719 6.48809 6.00002 6.48809V5.98809C4.93333 5.98809 4.06748 5.12225 4.06748 4.05556H3.56748ZM5.99907 7.74995C3.74851 7.74995 1.66701 8.94026 1.13114 10.682L1.60903 10.829C2.05768 9.37076 3.87974 8.24995 5.99907 8.24995V7.74995ZM10.867 10.682C10.3311 8.94026 8.24964 7.74995 5.99907 7.74995V8.24995C8.11841 8.24995 9.94046 9.37076 10.3891 10.829L10.867 10.682ZM10.7909 11.1223C10.8583 11.0355 10.9358 10.8761 10.8638 10.6722L10.3923 10.8388C10.3933 10.8416 10.3926 10.8407 10.3924 10.8366C10.3922 10.8325 10.3926 10.8278 10.3938 10.8232C10.3959 10.8144 10.399 10.8117 10.3961 10.8154L10.7909 11.1223ZM10.2913 11.3611C10.484 11.3611 10.6713 11.2762 10.7909 11.1223L10.3961 10.8154C10.3776 10.8393 10.3403 10.8611 10.2913 10.8611V11.3611ZM1.7069 11.3611H10.2913V10.8611H1.7069V11.3611ZM1.19791 11.1094C1.31423 11.2805 1.51267 11.3611 1.7069 11.3611V10.8611C1.64203 10.8611 1.61593 10.835 1.61135 10.8283L1.19791 11.1094ZM1.13007 10.6856C1.08021 10.8566 1.12691 11.0189 1.20724 11.1223L1.60202 10.8154C1.60614 10.8207 1.60794 10.8243 1.6086 10.8258C1.60934 10.8274 1.60951 10.8282 1.60954 10.8284C1.60968 10.8291 1.60927 10.8283 1.6101 10.8255L1.13007 10.6856Z" fill="#5F61BD" mask="url(#path-1-outside-1_2346_15485)"/>
</svg>
