<svg width="16" height="18" viewBox="0 0 16 18" fill="none" xmlns="http://www.w3.org/2000/svg">
<path opacity="0.8" fill-rule="evenodd" clip-rule="evenodd" d="M6 1.03968C6 0.741623 5.77614 0.5 5.5 0.5H4.5C4.22386 0.5 4 0.741623 4 1.03968V2.38823H2.5C1.39543 2.38823 0.5 3.35472 0.5 4.54695V15.3406C0.5 16.5328 1.39543 17.4993 2.5 17.4993H13.5C14.6046 17.4993 15.5 16.5328 15.5 15.3406V4.54695C15.5 3.35472 14.6046 2.38823 13.5 2.38823H12V1.03968C12 0.741624 11.7761 0.5 11.5 0.5H10.5C10.2239 0.5 10 0.741623 10 1.03968V2.38823H6V1.03968ZM2.5 4.00727H4.06654C4.15291 4.16894 4.31468 4.27777 4.5 4.27777H5.5C5.68532 4.27777 5.84709 4.16894 5.93346 4.00727H10.0665C10.1529 4.16894 10.3147 4.27777 10.5 4.27777H11.5C11.6853 4.27777 11.8471 4.16894 11.9335 4.00727H13.5C13.7761 4.00727 14 4.24889 14 4.54695V15.3406C14 15.6386 13.7761 15.8803 13.5 15.8803H2.5C2.22386 15.8803 2 15.6386 2 15.3406V4.54695C2 4.24889 2.22386 4.00727 2.5 4.00727ZM7.10452 10.0175L7.1045 10.0175C5.39037 10.2848 3.99757 11.252 3.56923 12.5534C3.48364 12.8213 3.53357 13.1029 3.70474 13.3296C3.89018 13.5768 4.19687 13.7211 4.52496 13.7211H4.52505C4.19697 13.7211 3.89028 13.5768 3.70484 13.3296C3.53366 13.1029 3.48373 12.8213 3.56932 12.5534C3.99765 11.252 5.39043 10.2848 7.10452 10.0175ZM6.02657 8.96576C6.30447 9.32424 6.68734 9.60708 7.13259 9.77444L7.13283 9.7744C6.68749 9.60709 6.30454 9.32426 6.02657 8.96576ZM10.8463 7.58239C10.8463 8.55508 10.2722 9.40439 9.42434 9.84935C11.0531 10.1988 12.3782 11.1679 12.8114 12.4839L12.812 12.4858L12.812 12.4858C12.9183 12.8185 12.8669 13.1771 12.6396 13.4674C12.4047 13.779 12.0203 13.9572 11.6145 13.9572H4.52496C4.11835 13.9572 3.73315 13.7783 3.49843 13.4655C3.28276 13.1798 3.21968 12.8231 3.32746 12.4858L3.32805 12.4839L3.32806 12.4839C3.76129 11.1676 5.0869 10.1983 6.71618 9.84912C5.86855 9.4041 5.29466 8.55491 5.29466 7.58239C5.29466 6.15001 6.5396 4.98518 8.07048 4.98518C9.60136 4.98518 10.8463 6.15001 10.8463 7.58239ZM10.594 7.58239C10.594 8.57458 9.93659 9.42573 9.00794 9.7746L9.00751 9.77454C9.93632 9.42573 10.5938 8.57451 10.5938 7.58222C10.5938 7.07748 10.4237 6.60925 10.1343 6.22507C10.4238 6.60928 10.594 7.07758 10.594 7.58239ZM8.07048 6.132C7.21488 6.132 6.52035 6.78184 6.52035 7.58239C6.52035 8.38294 7.21488 9.03279 8.07048 9.03279C8.92608 9.03279 9.62061 8.38294 9.62061 7.58239C9.62061 6.78184 8.92608 6.132 8.07048 6.132ZM6.268 7.58239C6.268 6.65144 7.07551 5.89589 8.07048 5.89589C8.63663 5.89589 9.14209 6.14051 9.47261 6.52288C9.14209 6.14041 8.63658 5.89571 8.07035 5.89571C7.07538 5.89571 6.26787 6.65127 6.26787 7.58222C6.26787 7.94045 6.38744 8.27272 6.59126 8.54595C6.38752 8.27275 6.268 7.94055 6.268 7.58239ZM11.8926 12.7595C11.5147 11.6101 10.095 10.7575 8.44722 10.6432C10.095 10.7575 11.5148 11.61 11.8927 12.7595C11.9213 12.835 11.8927 12.89 11.8642 12.9243C11.8181 12.9798 11.7488 13.0173 11.6713 13.0297C11.7488 13.0173 11.8181 12.9797 11.8641 12.9243C11.8926 12.89 11.9212 12.835 11.8926 12.7595ZM4.49933 12.7955C4.506 12.797 4.51453 12.7981 4.52496 12.7981H11.6145C11.6242 12.7981 11.6326 12.7967 11.6397 12.7945C11.258 11.7086 9.78982 10.8663 8.06972 10.8663C6.34905 10.8663 4.88048 11.7091 4.49933 12.7955Z" fill="#6768A8"/>
</svg>
