<svg width="40" height="40" viewBox="0 0 40 40" fill="none" xmlns="http://www.w3.org/2000/svg">
<rect x="0.5" y="0.5" width="39" height="39" rx="19.5" fill="#C7C7C7"/>
<mask id="path-2-outside-1_1476_1747" maskUnits="userSpaceOnUse" x="8" y="8" width="24" height="24" fill="black">
<rect fill="white" x="8" y="8" width="24" height="24"/>
<path fill-rule="evenodd" clip-rule="evenodd" d="M21.1766 11.6667C21.1766 10.7462 20.6499 10 20.0002 10C19.3504 10 18.8237 10.7462 18.8237 11.6667V18.8237H11.6667C10.7462 18.8237 10 19.3504 10 20.0002C10 20.6499 10.7462 21.1766 11.6667 21.1766H18.8237V28.3333C18.8237 29.2538 19.3504 30 20.0002 30C20.6499 30 21.1766 29.2538 21.1766 28.3333V21.1766H28.3333C29.2538 21.1766 30 20.6499 30 20.0002C30 19.3504 29.2538 18.8237 28.3333 18.8237H21.1766V11.6667Z"/>
</mask>
<path fill-rule="evenodd" clip-rule="evenodd" d="M21.1766 11.6667C21.1766 10.7462 20.6499 10 20.0002 10C19.3504 10 18.8237 10.7462 18.8237 11.6667V18.8237H11.6667C10.7462 18.8237 10 19.3504 10 20.0002C10 20.6499 10.7462 21.1766 11.6667 21.1766H18.8237V28.3333C18.8237 29.2538 19.3504 30 20.0002 30C20.6499 30 21.1766 29.2538 21.1766 28.3333V21.1766H28.3333C29.2538 21.1766 30 20.6499 30 20.0002C30 19.3504 29.2538 18.8237 28.3333 18.8237H21.1766V11.6667Z" fill="white"/>
<path d="M18.8237 18.8237V20.8237H20.8237V18.8237H18.8237ZM11.6667 21.1766L11.6667 23.1766H11.6667V21.1766ZM18.8237 21.1766H20.8237V19.1766H18.8237V21.1766ZM21.1766 21.1766V19.1766H19.1766V21.1766H21.1766ZM21.1766 18.8237H19.1766V20.8237H21.1766V18.8237ZM20.0002 12C19.5009 12 19.2467 11.7103 19.1981 11.6415C19.1458 11.5675 19.1766 11.5701 19.1766 11.6667H23.1766C23.1766 10.8428 22.9441 10.0121 22.466 9.33479C21.9916 8.66276 21.1492 8 20.0002 8V12ZM20.8237 11.6667C20.8237 11.5701 20.8545 11.5675 20.8022 11.6415C20.7536 11.7103 20.4995 12 20.0002 12V8C18.8511 8 18.0087 8.66276 17.5343 9.33479C17.0563 10.0121 16.8237 10.8428 16.8237 11.6667H20.8237ZM20.8237 18.8237V11.6667H16.8237V18.8237H20.8237ZM11.6667 20.8237H18.8237V16.8237H11.6667V20.8237ZM12 20.0002C12 20.4995 11.7103 20.7536 11.6415 20.8022C11.5675 20.8545 11.5701 20.8237 11.6667 20.8237V16.8237C10.8428 16.8237 10.0121 17.0563 9.33479 17.5343C8.66276 18.0087 8 18.8511 8 20.0002H12ZM11.6667 19.1766C11.5701 19.1766 11.5675 19.1458 11.6415 19.1981C11.7103 19.2467 12 19.5009 12 20.0002H8C8 21.1492 8.66276 21.9916 9.33479 22.466C10.0121 22.9441 10.8428 23.1766 11.6667 23.1766L11.6667 19.1766ZM18.8237 19.1766H11.6667V23.1766H18.8237V19.1766ZM20.8237 28.3333V21.1766H16.8237V28.3333H20.8237ZM20.0002 28C20.4995 28 20.7536 28.2897 20.8022 28.3585C20.8545 28.4325 20.8237 28.4299 20.8237 28.3333H16.8237C16.8237 29.1572 17.0563 29.9879 17.5343 30.6652C18.0087 31.3372 18.8511 32 20.0002 32V28ZM19.1766 28.3333C19.1766 28.4299 19.1458 28.4325 19.1981 28.3585C19.2467 28.2897 19.5009 28 20.0002 28V32C21.1492 32 21.9916 31.3372 22.466 30.6652C22.9441 29.9879 23.1766 29.1572 23.1766 28.3333H19.1766ZM19.1766 21.1766V28.3333H23.1766V21.1766H19.1766ZM28.3333 19.1766H21.1766V23.1766H28.3333V19.1766ZM28 20.0002C28 19.5009 28.2897 19.2467 28.3585 19.1981C28.4325 19.1458 28.4299 19.1766 28.3333 19.1766V23.1766C29.1572 23.1766 29.9879 22.9441 30.6652 22.466C31.3372 21.9916 32 21.1492 32 20.0002H28ZM28.3333 20.8237C28.4299 20.8237 28.4325 20.8545 28.3585 20.8022C28.2897 20.7536 28 20.4995 28 20.0002H32C32 18.8511 31.3372 18.0087 30.6652 17.5343C29.9879 17.0563 29.1572 16.8237 28.3333 16.8237V20.8237ZM21.1766 20.8237H28.3333V16.8237H21.1766V20.8237ZM19.1766 11.6667V18.8237H23.1766V11.6667H19.1766Z" fill="#9C9A9A" mask="url(#path-2-outside-1_1476_1747)"/>
<rect x="0.5" y="0.5" width="39" height="39" rx="19.5" stroke="#9C9A9A"/>
</svg>
