<svg width="19" height="18" viewBox="0 0 19 18" fill="none" xmlns="http://www.w3.org/2000/svg">
<path d="M6.95762 3.903L4.16375 1.24714C3.85119 0.950657 3.36323 0.916327 3.0124 1.16912L2.75087 1.35637C-0.0972178 4.06529 0.770289 7.87275 3.62157 10.5817L8.45024 15.1725C11.0464 17.6411 15.1893 17.6036 17.7408 15.0913C18.0916 14.7449 18.0853 14.1863 17.7281 13.8461L15.1925 11.4368C14.5164 10.7939 13.4416 10.7939 12.7686 11.4368L12.0478 12.1203C11.7257 12.4261 11.2122 12.4261 10.8901 12.1203L6.47603 7.92268C6.1252 7.58875 6.14434 7.03011 6.51749 6.71803L6.87151 6.42154C7.6529 5.7724 7.69436 4.60208 6.95762 3.903V3.903Z" stroke="rgb(74 102 158)" stroke-width="1.25" stroke-miterlimit="10"/>
</svg>
