<svg width="21" height="16" viewBox="0 0 21 16" fill="none" xmlns="http://www.w3.org/2000/svg">
<path opacity="0.8" fill-rule="evenodd" clip-rule="evenodd" d="M0.56199 14.8965C0.5745 14.9164 0.58744 14.9361 0.600819 14.9556C0.918048 15.4207 1.4427 15.692 2.00395 15.692H12.1387C12.2148 15.7933 12.294 15.892 12.3763 15.9881H2.00395C1.34468 15.9881 0.726689 15.669 0.35319 15.1214C0.0103303 14.6217 -0.0888729 14.0011 0.0818012 13.4138L0.082462 13.4115L0.0824711 13.4115C0.838721 10.885 3.24221 9.03107 6.1791 8.46816C4.64903 7.76059 3.58643 6.22174 3.58643 4.4412C3.58643 1.99194 5.59707 0 8.06932 0C10.5416 0 12.5522 1.99194 12.5522 4.4412C12.5522 6.22206 11.4892 7.76115 9.95871 8.46855C10.6148 8.59444 11.2442 8.78475 11.8345 9.03259C11.5585 9.47961 11.3403 9.9661 11.1903 10.4816C10.2458 10.0951 9.17806 9.87781 8.06772 9.87781C4.98084 9.87781 2.22339 11.5574 1.52792 13.883C1.49559 13.9971 1.52039 14.1012 1.56026 14.1684C1.52049 14.1011 1.49581 13.9972 1.5281 13.8833C2.22357 11.5577 4.98102 9.8781 8.0679 9.8781C9.17815 9.8781 10.2458 10.0954 11.1902 10.4818C11.1625 10.5771 11.1371 10.6733 11.1141 10.7705C10.2015 10.3907 9.16089 10.1742 8.0679 10.1742C5.06809 10.1742 2.46292 11.8054 1.81545 13.9647C1.81108 13.981 1.81155 13.9945 1.81362 14.0049C1.81472 14.0104 1.8162 14.0145 1.81732 14.0171L1.81777 14.018L1.82179 14.0233L1.82692 14.0311C1.84756 14.0623 1.90296 14.104 2.00395 14.104H11.2888C11.4909 14.679 11.7794 15.2135 12.1385 15.6917H2.00377C1.44252 15.6917 0.917869 15.4204 0.60064 14.9553C0.587327 14.9359 0.574443 14.9163 0.56199 14.8965ZM9.38615 8.37606C11.0501 7.82817 12.2534 6.27135 12.2534 4.4412C12.2534 3.80639 12.1086 3.20447 11.85 2.66614C12.1085 3.20443 12.2532 3.80628 12.2532 4.44101C12.2532 6.2713 11.0498 7.82821 9.38568 8.376L9.38615 8.37606ZM6.75199 8.37575C5.90498 8.09677 5.17738 7.55636 4.66712 6.85154C5.1773 7.55632 5.90479 8.09675 6.75168 8.37579L6.75199 8.37575ZM5.37958 4.4412C5.37958 2.97036 6.58467 1.77648 8.06932 1.77648C9.55397 1.77648 10.7591 2.97036 10.7591 4.4412C10.7591 5.91203 9.55397 7.10591 8.06932 7.10591C6.58467 7.10591 5.37958 5.91203 5.37958 4.4412ZM8.06932 1.4804C6.41962 1.4804 5.08072 2.80684 5.08072 4.4412C5.08072 5.02052 5.24895 5.56116 5.53962 6.01775C5.24888 5.56113 5.08061 5.02042 5.08061 4.44101C5.08061 2.80665 6.4195 1.48022 8.06921 1.48022C9.05963 1.48022 9.93801 1.95832 10.4819 2.69411C9.938 1.95842 9.05967 1.4804 8.06932 1.4804ZM18.18 7.21664C18.2521 6.99014 18.0695 6.7298 17.7723 6.63516L16.6957 6.29244C16.3984 6.19779 16.099 6.30469 16.0269 6.53119L15.642 7.74021C15.1682 7.75516 14.7078 7.86993 14.2888 8.07005L13.38 7.09065C13.1993 6.89583 12.8869 6.89176 12.6823 7.08157L11.9415 7.76892C11.737 7.95873 11.7177 8.27053 11.8984 8.46536L12.8069 9.44441C12.6903 9.64843 12.5933 9.86775 12.5192 10.1007C12.4374 10.3576 12.3878 10.617 12.3682 10.8746L11.0672 11.1763C10.8083 11.2363 10.6495 11.5053 10.7126 11.7772L10.9408 12.7616C11.0038 13.0335 11.2648 13.2052 11.5237 13.1452L12.8251 12.8434C13.0477 13.2233 13.3444 13.5608 13.7027 13.8321L13.3179 15.0408C13.2458 15.2673 13.4283 15.5276 13.7256 15.6223L14.8022 15.965C15.0995 16.0596 15.3989 15.9527 15.471 15.7262L15.8558 14.5175C16.3294 14.5026 16.7896 14.3879 17.2085 14.1879L18.1175 15.1676C18.2983 15.3625 18.6107 15.3665 18.8152 15.1767L19.556 14.4894C19.7606 14.2996 19.7799 13.9877 19.5991 13.7929L18.6906 12.8138C18.8073 12.6096 18.9044 12.3902 18.9786 12.157C19.0605 11.8997 19.1101 11.6399 19.1296 11.3819L20.4306 11.0802C20.6895 11.0202 20.8483 10.7512 20.7853 10.4793L20.5571 9.49489C20.494 9.22304 20.233 9.05133 19.9741 9.11135L18.6721 9.41324C18.4495 9.03376 18.1531 8.69662 17.7951 8.42564L18.18 7.21664ZM15.2919 12.5643C16.0847 12.8167 16.9319 12.3786 17.1843 11.5858C17.4367 10.7931 16.9986 9.94581 16.2059 9.69343C15.4131 9.44106 14.5658 9.87913 14.3135 10.6719C14.0611 11.4646 14.4992 12.3119 15.2919 12.5643Z" fill="#6768A8"/>
</svg>
