<svg width="10" height="10" viewBox="0 0 10 10" fill="none" xmlns="http://www.w3.org/2000/svg">
<path fill-rule="evenodd" clip-rule="evenodd" d="M2 2.75C2 3.77982 2.56866 4.67904 3.40853 5.1502C1.7943 5.51991 0.48092 6.54626 0.0516956 7.94006L0.0516875 7.94005L0.0510968 7.94203C-0.0556781 8.2992 0.00682103 8.67683 0.220482 8.97941C0.45302 9.31055 0.834638 9.5 1.23746 9.5H8.26103C8.66304 9.5 9.04394 9.31131 9.27661 8.98139C9.50176 8.67398 9.55272 8.29436 9.44739 7.94203L9.4474 7.94203L9.44679 7.94006C9.01766 6.54657 7.70477 5.52036 6.09103 5.15044C6.93115 4.67935 7.5 3.78 7.5 2.75C7.5 1.23336 6.26664 0 4.75 0C3.23336 0 2 1.23336 2 2.75ZM3.21429 2.75C3.21429 1.90236 3.90236 1.21429 4.75 1.21429C5.59764 1.21429 6.28571 1.90236 6.28571 2.75C6.28571 3.59764 5.59764 4.28571 4.75 4.28571C3.90236 4.28571 3.21429 3.59764 3.21429 2.75ZM1.23746 8.27273C1.22713 8.27273 1.21867 8.27156 1.21207 8.27001C1.58968 7.11966 3.04458 6.22727 4.74924 6.22727C6.45334 6.22727 7.90785 7.11908 8.28605 8.26887C8.27903 8.27119 8.27068 8.27273 8.26103 8.27273H1.23746Z" fill="#8D8D8D"/>
</svg>
