<svg width="15" height="15" viewBox="0 0 15 15" fill="none" xmlns="http://www.w3.org/2000/svg">
<path d="M6.08596 7.02975L11.5216 1.09191C11.5478 1.06327 11.5803 1.04101 11.6178 1.03034C11.8085 0.976059 12.4508 0.848254 13.0317 1.3706C13.6127 1.89295 13.5467 2.53894 13.5107 2.73231C13.5036 2.77034 13.4844 2.80447 13.4582 2.83312L8.01754 8.77637C7.99046 8.80595 7.9566 8.82865 7.91882 8.84255L5.91198 9.5807C5.72711 9.64871 5.53906 9.48876 5.57886 9.29735L6.02592 7.14688C6.035 7.10322 6.05573 7.06277 6.08596 7.02975Z" stroke="#8586B9" stroke-width="1.5" stroke-linejoin="round"/>
<path d="M7.24345 2.55273H3C1.89543 2.55273 1 3.44816 1 4.55273V11.5001C1 12.6047 1.89543 13.5001 3 13.5001H10.0461C11.1507 13.5001 12.0461 12.6047 12.0461 11.5001V7.1538" stroke="#8586B9" stroke-width="1.5" stroke-linecap="round"/>
</svg>
