<svg width="18" height="17" viewBox="0 0 18 17" fill="none" xmlns="http://www.w3.org/2000/svg">
<path fill-rule="evenodd" clip-rule="evenodd" d="M2.43865 0.380859C1.36819 0.380859 0.499634 1.24941 0.499634 2.31988V11.8628C0.499634 12.9333 1.36819 13.8019 2.43865 13.8019H5.70217C5.75932 13.8019 5.8036 13.8461 5.8036 13.9033V15.8453C5.8036 16.5421 6.64171 16.875 7.12531 16.3914L9.72061 13.7961C9.74132 13.7754 9.76482 13.7661 9.79201 13.7661H15.5613C16.6318 13.7661 17.5004 12.8975 17.5004 11.827V2.31988C17.5004 1.24941 16.6318 0.380859 15.5613 0.380859H2.43865ZM1.39457 2.31988C1.39457 1.74367 1.86244 1.27579 2.43865 1.27579H15.5613C16.1375 1.27579 16.6054 1.74367 16.6054 2.31988V11.827C16.6054 12.4032 16.1375 12.8711 15.5613 12.8711H9.79201C9.52685 12.8711 9.2759 12.9752 9.0878 13.1633L6.69853 15.5525V13.9033C6.69853 13.3519 6.25358 12.9069 5.70217 12.9069H2.43865C1.86244 12.9069 1.39457 12.439 1.39457 11.8628V2.31988ZM3.92994 3.6622C3.68281 3.6622 3.48247 3.86254 3.48247 4.10966C3.48247 4.35679 3.68281 4.55713 3.92994 4.55713H14.3708C14.6179 4.55713 14.8183 4.35679 14.8183 4.10966C14.8183 3.86254 14.6179 3.6622 14.3708 3.6622H3.92994ZM3.48247 6.79509C3.48247 6.54796 3.68281 6.34762 3.92994 6.34762H14.3708C14.6179 6.34762 14.8183 6.54796 14.8183 6.79509C14.8183 7.04221 14.6179 7.24255 14.3708 7.24255H3.92994C3.68281 7.24255 3.48247 7.04221 3.48247 6.79509ZM3.92994 9.03196C3.68281 9.03196 3.48247 9.2323 3.48247 9.47942C3.48247 9.72655 3.68281 9.92689 3.92994 9.92689H12.8793C13.1264 9.92689 13.3267 9.72655 13.3267 9.47942C13.3267 9.2323 13.1264 9.03196 12.8793 9.03196H3.92994Z" fill="#5F61BD"/>
</svg>
