<svg width="11" height="11" viewBox="0 0 11 11" fill="none" xmlns="http://www.w3.org/2000/svg">
<path fill-rule="evenodd" clip-rule="evenodd" d="M8.53125 1.125H1.3125C1.13128 1.125 0.984375 1.29289 0.984375 1.5V9C0.984375 9.20711 1.13128 9.375 1.3125 9.375H8.53125C8.71247 9.375 8.85938 9.20711 8.85938 9V7.21875H8.25C8.16949 7.21875 8.09491 7.19655 8.03382 7.15877C8.05543 7.34682 8.0103 7.53784 7.89246 7.69873C7.73977 7.91523 7.48981 8.03906 7.22599 8.03906H2.61677C2.35242 8.03906 2.10198 7.91474 1.94938 7.69742C1.80916 7.49886 1.76815 7.25104 1.83822 7.01665L1.83861 7.01535L1.83861 7.01535C2.12029 6.10067 2.98219 5.42713 4.04153 5.18451C3.49037 4.87531 3.11719 4.2852 3.11719 3.60938C3.11719 2.61408 3.92658 1.80469 4.92188 1.80469C5.91717 1.80469 6.72656 2.61408 6.72656 3.60938C6.72656 4.28532 6.35325 4.87551 5.80193 5.18467C6.73101 5.39764 7.50813 5.9421 7.875 6.68998V6.23438C7.875 6.05316 8.04289 5.90625 8.25 5.90625H8.85938V3.9375H8.25C8.04289 3.9375 7.875 3.79059 7.875 3.60938V2.95312C7.875 2.77191 8.04289 2.625 8.25 2.625H8.85938V1.5C8.85938 1.29289 8.71247 1.125 8.53125 1.125ZM9.84375 9V7.21875H10.125C10.3321 7.21875 10.5 7.07184 10.5 6.89062V6.23438C10.5 6.05316 10.3321 5.90625 10.125 5.90625H9.84375V3.9375H10.125C10.3321 3.9375 10.5 3.79059 10.5 3.60938V2.95312C10.5 2.77191 10.3321 2.625 10.125 2.625H9.84375V1.5C9.84375 0.671573 9.25612 0 8.53125 0H1.3125C0.587626 0 0 0.671573 0 1.5V9C0 9.82843 0.587626 10.5 1.3125 10.5H8.53125C9.25612 10.5 9.84375 9.82843 9.84375 9ZM4.92188 2.60156C4.36561 2.60156 3.91406 3.05311 3.91406 3.60938C3.91406 4.16564 4.36561 4.61719 4.92188 4.61719C5.47814 4.61719 5.92969 4.16564 5.92969 3.60938C5.92969 3.05311 5.47814 2.60156 4.92188 2.60156ZM2.60011 7.23188C2.60444 7.2329 2.60999 7.23366 2.61677 7.23366H7.22599C7.23232 7.23366 7.2378 7.23266 7.2424 7.23113C6.99421 6.47658 6.03969 5.89134 4.92138 5.89134C3.80269 5.89134 2.84791 6.47696 2.60011 7.23188Z" fill="#8D8D8D"/>
</svg>
