<svg width="19" height="14" viewBox="0 0 19 14" fill="none" xmlns="http://www.w3.org/2000/svg">
<path fill-rule="evenodd" clip-rule="evenodd" d="M0.986321 1.98615C0.986321 1.48682 1.39111 1.08202 1.89045 1.08202H17.1094C17.6087 1.08202 18.0135 1.48682 18.0135 1.98615V4.03016L9.89432 7.76111C9.64337 7.87561 9.35561 7.8754 9.10466 7.7609L0.986321 4.03034V1.98615ZM0.986321 5.11581V11.1003L6.31236 7.56325L0.986321 5.11581ZM1.89045 12.9179C1.47703 12.9179 1.12843 12.6404 1.0207 12.2615L7.36609 8.04746L8.69379 8.65757L8.69477 8.65802C9.2063 8.89174 9.79314 8.89174 10.3047 8.65802L10.3057 8.65757L11.7246 8.00553L17.9992 12.1746C17.9234 12.5972 17.5538 12.9179 17.1094 12.9179H1.89045ZM18.0135 10.9999V5.11563L12.7782 7.52138L18.0135 10.9999ZM1.89045 0.0957031C0.846383 0.0957031 0 0.942086 0 1.98615V12.0137C0 13.0578 0.846383 13.9042 1.89045 13.9042H17.1094C18.1535 13.9042 18.9998 13.0578 18.9998 12.0137V1.98615C18.9998 0.942086 18.1535 0.0957031 17.1094 0.0957031H1.89045Z" fill="rgb(74 102 158)"/>
</svg>
