<svg width="48" height="39" viewBox="0 0 48 39" fill="none" xmlns="http://www.w3.org/2000/svg">
<g clip-path="url(#clip0_1022_10229)">
<path d="M30.9982 0L24.6855 5.65065L42.3147 12.5156L48 5.84187" fill="#7978BD" fill-opacity="0.8"/>
<path d="M46.8127 21.8953L42.111 14.4854L26 20.289L29.9271 29.7545L46.8127 21.8953Z" fill="#7978BD" fill-opacity="0.8"/>
<path d="M29.2167 30.8065L25.8629 22.7178V38.9718L41.8654 32.5849V25.6435L29.9836 31.1698C29.6892 31.3037 29.3639 31.1507 29.2245 30.8065H29.2167Z" fill="#7978BD" fill-opacity="0.8"/>
<path d="M40.3628 13.3382L23.9574 6.96094V18.1857L25.4213 18.8168L40.3628 13.3382Z" fill="#7978BD" fill-opacity="0.8"/>
<path d="M21.4788 31.6095C21.4091 31.6095 21.3471 31.6 21.2774 31.5713L6.56061 25.2514V32.4509L24.6313 39.0003V23.3965L22.0442 31.141C21.9435 31.4279 21.7189 31.6095 21.4788 31.6095Z" fill="#7978BD" fill-opacity="0.8"/>
<path d="M24.4222 20.0501L6.2198 13.0322L1.90546 21.6564L21.1302 29.9077L24.4222 20.0501Z" fill="#7978BD" fill-opacity="0.8"/>
<path d="M17.4588 15.7757L22.7258 17.8027V6.93164L8.07874 12.1616L17.4588 15.7757Z" fill="#7978BD" fill-opacity="0.8"/>
<path d="M16.3356 0.535156L0 5.4974L6.08036 11.2915L21.9668 5.6217L16.3356 0.535156Z" fill="#7978BD" fill-opacity="0.8"/>
</g>
<defs>
<clipPath id="clip0_1022_10229">
<rect width="48" height="39" fill="white"/>
</clipPath>
</defs>
</svg>
