<svg width="22" height="24" viewBox="0 0 22 24" fill="none" xmlns="http://www.w3.org/2000/svg">
<path d="M13.1115 5.37624H12.1115C12.1115 5.80005 12.3786 6.17784 12.7782 6.31908L13.1115 5.37624ZM15.4642 6.77546L14.7956 7.51909C15.121 7.81163 15.5987 7.85867 15.9749 7.6352L15.4642 6.77546ZM17.8448 5.36124L17.3341 4.50149V4.50149L17.8448 5.36124ZM19.2368 5.7521L20.0965 5.24137V5.24137L19.2368 5.7521ZM20.3062 7.55231L21.1659 7.04158L21.1659 7.04158L20.3062 7.55231ZM19.9837 8.96166L20.4944 9.8214L19.9837 8.96166ZM17.6045 10.375L17.0938 9.51525C16.7179 9.73852 16.5307 10.18 16.6314 10.6054L17.6045 10.375ZM17.6376 13.4771L16.6598 13.2678C16.5682 13.6952 16.7649 14.1325 17.1454 14.3476L17.6376 13.4771ZM20.0468 14.8393L20.539 13.9688H20.539L20.0468 14.8393ZM20.3994 16.2414L19.529 15.7492V15.7492L20.3994 16.2414ZM19.3689 18.0641L18.4984 17.572V17.572L19.3689 18.0641ZM17.9856 18.4847L18.4778 17.6143H18.4778L17.9856 18.4847ZM15.575 17.1218L16.0672 16.2513C15.6863 16.0359 15.2097 16.0932 14.8907 16.3925L15.575 17.1218ZM13.1115 18.6227L12.7783 17.6799C12.3787 17.8211 12.1115 18.1989 12.1115 18.6227H13.1115ZM8.42959 18.6228H9.42959C9.42959 18.199 9.16241 17.8212 8.76281 17.68L8.42959 18.6228ZM6.07642 17.2233L6.74504 16.4797C6.41967 16.1872 5.94188 16.1401 5.5657 16.3636L6.07642 17.2233ZM3.69605 18.6374L3.18532 17.7776H3.18532L3.69605 18.6374ZM2.3041 18.2465L3.16384 17.7358L3.16384 17.7358L2.3041 18.2465ZM1.23469 16.4463L0.374951 16.957L0.374951 16.957L1.23469 16.4463ZM1.55723 15.037L1.04651 14.1772H1.04651L1.55723 15.037ZM3.93628 13.6237L4.447 14.4834C4.82283 14.2602 5.01009 13.8187 4.90937 13.3933L3.93628 13.6237ZM3.90315 10.5223L4.88099 10.7316C4.97249 10.3042 4.77581 9.86688 4.39533 9.65176L3.90315 10.5223ZM1.49426 9.16025L1.00208 10.0307H1.00208L1.49426 9.16025ZM1.14159 7.75814L0.271099 7.26596L1.14159 7.75814ZM2.17217 5.93542L3.04266 6.4276L2.17217 5.93542ZM3.55542 5.51481L4.0476 4.64432H4.0476L3.55542 5.51481ZM5.96555 6.87752L5.47336 7.74801C5.85422 7.96335 6.33083 7.9061 6.64986 7.60671L5.96555 6.87752ZM8.42952 5.37619L8.76275 6.31903C9.16235 6.1778 9.42952 5.80001 9.42952 5.37619H8.42952ZM14.1115 2.74727C14.1115 2.12243 13.7766 1.62746 13.3747 1.32124C12.9736 1.01564 12.4634 0.855469 11.941 0.855469V2.85547C12.065 2.85547 12.1401 2.89494 12.1626 2.9121C12.1722 2.91942 12.1608 2.91366 12.1452 2.8855C12.1281 2.85472 12.1115 2.80614 12.1115 2.74727H14.1115ZM14.1115 5.37624V2.74727H12.1115V5.37624H14.1115ZM16.1328 6.03183C15.3589 5.33605 14.4481 4.78805 13.4447 4.4334L12.7782 6.31908C13.5296 6.58466 14.2134 6.99567 14.7956 7.51909L16.1328 6.03183ZM15.9749 7.6352L18.3556 6.22098L17.3341 4.50149L14.9535 5.91572L15.9749 7.6352ZM18.3556 6.22098C18.3506 6.22393 18.344 6.22612 18.3384 6.22679C18.3337 6.22734 18.3334 6.22645 18.3373 6.22755C18.3453 6.22981 18.3623 6.23802 18.3771 6.26283L20.0965 5.24137C19.5429 4.30945 18.3214 3.91499 17.3341 4.50149L18.3556 6.22098ZM18.3771 6.26283L19.4465 8.06304L21.1659 7.04158L20.0965 5.24137L18.3771 6.26283ZM19.4465 8.06303C19.4612 8.08784 19.4603 8.10669 19.4584 8.11484C19.4575 8.1188 19.4569 8.1181 19.4596 8.11426C19.4629 8.10966 19.468 8.10486 19.4729 8.10191L20.4944 9.8214C21.4817 9.23489 21.7195 7.97351 21.1659 7.04158L19.4465 8.06303ZM19.4729 8.10191L17.0938 9.51525L18.1152 11.2347L20.4944 9.8214L19.4729 8.10191ZM18.7933 11.9995C18.7933 11.3622 18.7188 10.7409 18.5776 10.1446L16.6314 10.6054C16.7371 11.0519 16.7933 11.5185 16.7933 11.9995H18.7933ZM18.6154 13.6865C18.7321 13.1417 18.7933 12.5772 18.7933 11.9995H16.7933C16.7933 12.4356 16.7471 12.8597 16.6598 13.2678L18.6154 13.6865ZM17.1454 14.3476L19.5546 15.7098L20.539 13.9688L18.1298 12.6067L17.1454 14.3476ZM19.5546 15.7098C19.5496 15.707 19.5444 15.7023 19.541 15.6978C19.5382 15.694 19.5388 15.6933 19.5398 15.6972C19.5418 15.7053 19.5432 15.7241 19.529 15.7492L21.2699 16.7336C21.8034 15.79 21.5386 14.534 20.539 13.9688L19.5546 15.7098ZM19.529 15.7492L18.4984 17.572L20.2394 18.5563L21.2699 16.7336L19.529 15.7492ZM18.4984 17.572C18.4842 17.5971 18.4674 17.6057 18.4594 17.6081C18.4555 17.6093 18.4558 17.6084 18.4605 17.6088C18.4661 17.6094 18.4728 17.6114 18.4778 17.6143L17.4934 19.3552C18.4931 19.9205 19.7059 19.4999 20.2394 18.5563L18.4984 17.572ZM18.4778 17.6143L16.0672 16.2513L15.0828 17.9923L17.4934 19.3552L18.4778 17.6143ZM13.4448 19.5656C14.5033 19.1914 15.4588 18.6021 16.2593 17.851L14.8907 16.3925C14.2885 16.9576 13.5709 17.3997 12.7783 17.6799L13.4448 19.5656ZM14.1115 21.2522V18.6227H12.1115V21.2522H14.1115ZM11.941 23.1439C12.4634 23.1439 12.9736 22.9838 13.3747 22.6782C13.7767 22.372 14.1115 21.877 14.1115 21.2522H12.1115C12.1115 21.1933 12.1281 21.1447 12.1452 21.1139C12.1609 21.0858 12.1722 21.08 12.1626 21.0873C12.1401 21.1045 12.0651 21.1439 11.941 21.1439V23.1439ZM9.60007 23.1439H11.941V21.1439H9.60007V23.1439ZM7.42959 21.2522C7.42959 21.877 7.76445 22.372 8.16637 22.6782C8.56747 22.9838 9.07768 23.1439 9.60007 23.1439V21.1439C9.47601 21.1439 9.40098 21.1045 9.37846 21.0873C9.36885 21.08 9.38025 21.0858 9.39588 21.1139C9.41297 21.1447 9.42959 21.1933 9.42959 21.2522H7.42959ZM7.42959 18.6228V21.2522H9.42959V18.6228H7.42959ZM5.4078 17.9669C6.18179 18.6629 7.0928 19.211 8.09636 19.5657L8.76281 17.68C8.01129 17.4144 7.32731 17.0033 6.74504 16.4797L5.4078 17.9669ZM4.20677 19.4971L6.58715 18.0831L5.5657 16.3636L3.18532 17.7776L4.20677 19.4971ZM1.44436 18.7572C1.99796 19.6892 3.21946 20.0836 4.20677 19.4971L3.18532 17.7776C3.19028 17.7747 3.19694 17.7725 3.20254 17.7718C3.20722 17.7713 3.20753 17.7722 3.20362 17.7711C3.19557 17.7688 3.17858 17.7606 3.16384 17.7358L1.44436 18.7572ZM0.374951 16.957L1.44436 18.7572L3.16384 17.7358L2.09444 15.9356L0.374951 16.957ZM1.04651 14.1772C0.0591959 14.7637 -0.178656 16.0251 0.374951 16.957L2.09444 15.9356C2.0797 15.9108 2.08062 15.8919 2.08248 15.8838C2.08339 15.8798 2.08402 15.8805 2.0813 15.8844C2.07804 15.889 2.07292 15.8938 2.06796 15.8967L1.04651 14.1772ZM3.42555 12.764L1.04651 14.1772L2.06796 15.8967L4.447 14.4834L3.42555 12.764ZM2.74751 11.9995C2.74751 12.6367 2.822 13.2578 2.96318 13.8541L4.90937 13.3933C4.80368 12.9469 4.74751 12.4804 4.74751 11.9995H2.74751ZM2.92531 10.3129C2.8087 10.8576 2.74751 11.422 2.74751 11.9995H4.74751C4.74751 11.5636 4.79367 11.1395 4.88099 10.7316L2.92531 10.3129ZM1.00208 10.0307L3.41097 11.3927L4.39533 9.65176L1.98645 8.28976L1.00208 10.0307ZM0.271099 7.26596C-0.262407 8.20954 0.00242573 9.46553 1.00208 10.0307L1.98645 8.28976C1.99147 8.2926 1.99669 8.29728 2.00004 8.30181C2.00285 8.3056 2.00223 8.30631 2.00124 8.30237C1.9992 8.29426 1.99788 8.27543 2.01208 8.25032L0.271099 7.26596ZM1.30168 5.44324L0.271099 7.26596L2.01208 8.25032L3.04266 6.4276L1.30168 5.44324ZM4.0476 4.64432C3.04794 4.07911 1.83518 4.49966 1.30168 5.44324L3.04266 6.4276C3.05686 6.40249 3.07367 6.39391 3.08167 6.39148C3.08556 6.3903 3.08527 6.3912 3.08058 6.39074C3.07496 6.3902 3.06826 6.38815 3.06323 6.38531L4.0476 4.64432ZM6.45773 6.00703L4.0476 4.64432L3.06323 6.38531L5.47336 7.74801L6.45773 6.00703ZM8.09628 4.43335C7.03752 4.80755 6.08179 5.39704 5.28123 6.14833L6.64986 7.60671C7.2522 7.04144 7.96989 6.59926 8.76275 6.31903L8.09628 4.43335ZM7.42952 2.74727V5.37619H9.42952V2.74727H7.42952ZM9.6 0.855469C9.07762 0.855469 8.5674 1.01564 8.1663 1.32124C7.76438 1.62746 7.42952 2.12243 7.42952 2.74727H9.42952C9.42952 2.80614 9.4129 2.85472 9.39581 2.8855C9.38018 2.91366 9.36879 2.91942 9.37839 2.9121C9.40092 2.89494 9.47594 2.85547 9.6 2.85547V0.855469ZM11.941 0.855469H9.6V2.85547H11.941V0.855469ZM10.7704 16.1208C13.0465 16.1208 14.8917 14.2756 14.8917 11.9995H12.8917C12.8917 13.1711 11.942 14.1208 10.7704 14.1208V16.1208ZM6.64913 11.9995C6.64913 14.2756 8.49429 16.1208 10.7704 16.1208V14.1208C9.59886 14.1208 8.64913 13.1711 8.64913 11.9995H6.64913ZM10.7704 7.87821C8.49429 7.87821 6.64913 9.72337 6.64913 11.9995H8.64913C8.64913 10.8279 9.59886 9.87821 10.7704 9.87821V7.87821ZM14.8917 11.9995C14.8917 9.72337 13.0465 7.87821 10.7704 7.87821V9.87821C11.942 9.87821 12.8917 10.8279 12.8917 11.9995H14.8917Z" fill="#7978BD"/>
</svg>
