<svg width="16" height="19" viewBox="0 0 16 19" fill="none" xmlns="http://www.w3.org/2000/svg">
<path fill-rule="evenodd" clip-rule="evenodd" d="M8.01049 0.206055C8.25649 0.206055 8.45592 0.40548 8.45592 0.651483V2.25936C8.45592 2.50536 8.25649 2.70479 8.01049 2.70479C7.76449 2.70479 7.56506 2.50536 7.56506 2.25936V0.651483C7.56506 0.40548 7.76449 0.206055 8.01049 0.206055Z" fill="rgb(74 102 158)"/>
<path fill-rule="evenodd" clip-rule="evenodd" d="M2.26234 7.37542C2.26234 3.96116 5.42084 1.30113 9.02478 1.90003L9.0257 1.90018C11.8459 2.37488 13.7481 4.93646 13.7481 7.66868V8.11411H13.7451C13.8115 10.1025 14.3219 12.0561 15.2443 13.8413L15.3602 14.0551L15.3629 14.0604C15.7936 14.9093 15.1536 15.8703 14.2231 15.8703H11.4383C11.2142 17.5332 9.7518 18.7928 8 18.7928C6.2482 18.7928 4.78578 17.5332 4.56168 15.8703H1.77692C0.846391 15.8703 0.206411 14.9093 0.637113 14.0604L0.63983 14.0551L0.755674 13.8413C1.74693 11.923 2.26234 9.81015 2.26234 7.66868V7.37542ZM12.8468 7.34369C12.7042 5.12876 11.1157 3.1556 8.87829 2.77876C5.7887 2.2656 3.1532 4.54034 3.1532 7.37542V7.66868C3.1532 9.95505 2.60247 12.2094 1.54504 14.2542L1.54307 14.258L1.42943 14.4678C1.32038 14.6903 1.47523 14.9795 1.77692 14.9795H5.42279V15.4249C5.42279 16.7829 6.5583 17.902 8 17.902C9.44169 17.902 10.5772 16.7829 10.5772 15.4249V14.9795H14.2231C14.5248 14.9795 14.6796 14.6903 14.5706 14.4678L14.4569 14.258L14.455 14.2542C13.3975 12.2094 12.8468 9.95505 12.8468 7.66868V7.34369Z" fill="rgb(74 102 158)"/>
<path fill-rule="evenodd" clip-rule="evenodd" d="M11.0329 15.8703H4.98767V14.9795H11.0329V15.8703Z" fill="rgb(74 102 158)"/>
</svg>
