<svg width="15" height="15" viewBox="0 0 15 15" fill="none" xmlns="http://www.w3.org/2000/svg">
<path opacity="0.8" fill-rule="evenodd" clip-rule="evenodd" d="M5 0C4.44772 0 4 0.447715 4 1H2C0.895431 1 0 1.89543 0 3V13C0 14.1046 0.89543 15 2 15H13C14.1046 15 15 14.1046 15 13V3C15 1.89543 14.1046 1 13 1H11C11 0.447715 10.5523 0 10 0H5ZM4 2.5V3C4 3.55228 4.44772 4 5 4H10C10.5523 4 11 3.55228 11 3V2.5H13C13.2761 2.5 13.5 2.72386 13.5 3V13C13.5 13.2761 13.2761 13.5 13 13.5H2C1.72386 13.5 1.5 13.2761 1.5 13V3C1.5 2.72386 1.72386 2.5 2 2.5H4ZM3 6C3 5.44772 3.44772 5 4 5H11C11.5523 5 12 5.44772 12 6C12 6.55228 11.5523 7 11 7H4C3.44772 7 3 6.55228 3 6ZM4 9C3.44772 9 3 9.44771 3 10C3 10.5523 3.44772 11 4 11H11C11.5523 11 12 10.5523 12 10C12 9.44771 11.5523 9 11 9H4Z" fill="#6768A8"/>
</svg>
