<svg width="14" height="15" viewBox="0 0 14 15" fill="none" xmlns="http://www.w3.org/2000/svg">
<path fill-rule="evenodd" clip-rule="evenodd" d="M8.5 1.59165C9.58694 1.79263 10.5965 2.31833 11.3891 3.11091C12.1817 3.90349 12.7074 4.91307 12.9084 6L8.5 6L8.5 1.59165ZM12.0962 2.40381C13.0769 3.38454 13.7119 4.64641 13.9226 6C13.9738 6.32883 14 6.66306 14 7H13L8.5 7H7.5V6L7.5 1.5V0.5C7.83694 0.5 8.17118 0.52616 8.5 0.577356C9.85359 0.7881 11.1155 1.42307 12.0962 2.40381ZM6.5 8H7.5H12H13C13 8.33626 12.9739 8.67054 12.9226 9C12.7778 9.93014 12.432 10.8219 11.9046 11.6112C11.1903 12.6801 10.1752 13.5132 8.98744 14.0052C7.79973 14.4972 6.49279 14.6259 5.23192 14.3751C3.97104 14.1243 2.81285 13.5052 1.90381 12.5962C0.994767 11.6872 0.375703 10.529 0.124899 9.26809C-0.125905 8.00721 0.00281635 6.70028 0.494786 5.51256C0.986756 4.32484 1.81988 3.30968 2.8888 2.59545C3.67813 2.06803 4.56986 1.72221 5.5 1.57738C5.82947 1.52608 6.16375 1.5 6.5 1.5V2.5V7V8ZM6.5 9H11.9083C11.7731 9.73143 11.4902 10.4314 11.0731 11.0556C10.4687 11.9601 9.60976 12.6651 8.60476 13.0813C7.59977 13.4976 6.4939 13.6065 5.42701 13.3943C4.36011 13.1821 3.3801 12.6583 2.61092 11.8891C1.84173 11.1199 1.3179 10.1399 1.10568 9.073C0.893465 8.0061 1.00238 6.90023 1.41867 5.89524C1.83495 4.89025 2.5399 4.03126 3.44437 3.42692C4.06862 3.0098 4.76857 2.72692 5.5 2.59167V8V9H6.5Z" fill="#6D6D6D"/>
</svg>
