<svg width="11" height="11" viewBox="0 0 11 11" fill="none" xmlns="http://www.w3.org/2000/svg">
<path fill-rule="evenodd" clip-rule="evenodd" d="M3 3C3 3.07943 3.00926 3.15669 3.02676 3.23077H1L1 1H3V3ZM1 0C0.447715 0 0 0.447716 0 1V3.23077V4.23077H0.0117613C0.00401768 4.28092 0 4.3323 0 4.38462V6.61538C0 6.6677 0.00401766 6.71908 0.0117613 6.76923H0V7.76923V10C0 10.5523 0.447716 11 1 11H3.23077H3.38462H4.23077H4.38462H10C10.5523 11 11 10.5523 11 10V4.38462V4V3.38462V3V1C11 0.447715 10.5523 0 10 0H4.23077H4H3.23077H1ZM10 3H4.23077V1H10V3ZM1 4.38462H3.23077V6.61538H1L1 4.38462ZM3.23077 7.76923H1V10H3.23077V7.76923ZM4.38462 4.38462H10V10H4.38462V4.38462Z" fill="#6D6D6D"/>
</svg>
