<svg width="11" height="15" viewBox="0 0 11 15" fill="none" xmlns="http://www.w3.org/2000/svg">
<path d="M2.82922 5.51831C3.03248 5.51831 4.94643 5.51831 5.878 5.51831" stroke="#6D6D6D" stroke-linecap="round" stroke-linejoin="round"/>
<path d="M2.82922 7.95728C3.19508 7.95728 6.6402 7.95728 8.31703 7.95728" stroke="#6D6D6D" stroke-linecap="round" stroke-linejoin="round"/>
<path d="M2.82922 10.3962C3.19508 10.3962 6.6402 10.3962 8.31703 10.3962" stroke="#6D6D6D" stroke-linecap="round" stroke-linejoin="round"/>
<path d="M2 1.25H7.49486C7.75265 1.25 8.00047 1.34955 8.18662 1.52787L9.8381 3.10989C10.035 3.29851 10.1463 3.55936 10.1463 3.83202V12.75C10.1463 13.3023 9.69863 13.75 9.14634 13.75H2C1.44772 13.75 1 13.3023 1 12.75V2.25C1 1.69772 1.44772 1.25 2 1.25Z" stroke="#6D6D6D"/>
<path d="M7.89661 1.25V3.83621H10.0518" stroke="#6D6D6D" stroke-linejoin="round"/>
</svg>
