<svg width="11" height="15" viewBox="0 0 11 15" fill="none" xmlns="http://www.w3.org/2000/svg">
<path fill-rule="evenodd" clip-rule="evenodd" d="M3 1.5C3 1.36193 3.11193 1.25 3.25 1.25H4.55C4.68807 1.25 4.8 1.36193 4.8 1.5V2C4.8 2.13807 4.91193 2.25 5.05 2.25H5.75C5.88807 2.25 6 2.36193 6 2.5V3C6 3.13807 5.88807 3.25 5.75 3.25H5.05C4.91193 3.25 4.8 3.36193 4.8 3.5V4C4.8 4.13807 4.91193 4.25 5.05 4.25H5.75C5.88807 4.25 6 4.36193 6 4.5V5C6 5.13807 5.88807 5.25 5.75 5.25H5.05C4.91193 5.25 4.8 5.36193 4.8 5.5V6C4.8 6.13807 4.68807 6.25 4.55 6.25H3.25C3.11193 6.25 3 6.13807 3 6V5.5C3 5.36193 3.11193 5.25 3.25 5.25L3.95 5.25C4.08807 5.25 4.2 5.13807 4.2 5L4.2 4.5C4.2 4.36193 4.08807 4.25 3.95 4.25L3.25 4.25C3.11193 4.25 3 4.13807 3 4V3.5C3 3.36193 3.11193 3.25 3.25 3.25L3.95 3.25C4.08807 3.25 4.2 3.13807 4.2 3L4.2 2.5C4.2 2.36193 4.08807 2.25 3.95 2.25L3.25 2.25C3.11193 2.25 3 2.13807 3 2V1.5Z" fill="#6D6D6D"/>
<path d="M2 1.25H7.49486C7.75265 1.25 8.00047 1.34955 8.18662 1.52787L9.8381 3.10989C10.035 3.29851 10.1463 3.55936 10.1463 3.83202V12.75C10.1463 13.3023 9.69863 13.75 9.14634 13.75H2C1.44772 13.75 1 13.3023 1 12.75V2.25C1 1.69772 1.44772 1.25 2 1.25Z" stroke="#6D6D6D"/>
<path d="M7.89661 1.25V3.83621H10.0518" stroke="#6D6D6D" stroke-linejoin="round"/>
</svg>
