<svg width="8" height="13" viewBox="0 0 8 13" fill="none" xmlns="http://www.w3.org/2000/svg">
<path d="M3.72497 6.74165C2.7467 6.74165 2.01926 6.17171 2.01926 5.35334C2.01926 4.53497 2.7467 3.96503 3.72497 3.96503C5.23897 3.96503 5.97895 4.53497 5.97895 5.35334C5.97895 6.17171 5.23897 6.74165 3.72497 6.74165ZM3.72497 2.95668C2.13214 2.95668 0.965733 3.93581 0.965733 5.35334C0.965733 6.77088 2.13214 7.75 3.72497 7.75C5.85353 7.75 7.03248 6.77088 7.03248 5.35334C7.03248 3.93581 5.85353 2.95668 3.72497 2.95668ZM4.78925 2.51827V0.75H3.21075V2.51827H0V3.512H8V2.51827H4.78925Z" fill="#6D6D6D"/>
<path d="M1.22976 10.9761V8.25H0L0 12.25H8V10.9761H1.22976Z" fill="#6D6D6D"/>
<circle cx="3.75" cy="9.5" r="0.75" fill="#6D6D6D"/>
</svg>
