<svg width="11" height="9" viewBox="0 0 11 9" fill="none" xmlns="http://www.w3.org/2000/svg">
<path d="M1.94177 9H4.11377L5.08577 4.608C5.22977 3.912 5.34977 3.228 5.46977 2.544H5.51777C5.62577 3.228 5.75777 3.912 5.90177 4.608L6.89777 9H9.10577L10.7498 0.107999H9.06977L8.36177 4.452C8.22977 5.376 8.09777 6.324 7.96577 7.284H7.90577C7.71377 6.324 7.53377 5.364 7.34177 4.452L6.32177 0.107999H4.79777L3.76577 4.452C3.57377 5.376 3.38177 6.324 3.20177 7.284H3.15377C3.02177 6.324 2.87777 5.388 2.74577 4.452L2.03777 0.107999H0.237766L1.94177 9Z" fill="#6D6D6D"/>
</svg>
