<svg width="13" height="13" viewBox="0 0 13 13" fill="none" xmlns="http://www.w3.org/2000/svg">
<path fill-rule="evenodd" clip-rule="evenodd" d="M2 1.5H11C11.5523 1.5 12 1.94772 12 2.5V10.5C12 11.0523 11.5523 11.5 11 11.5H2C1.44772 11.5 1 11.0523 1 10.5V2.5C1 1.94772 1.44772 1.5 2 1.5ZM0 2.5C0 1.39543 0.895431 0.5 2 0.5H11C12.1046 0.5 13 1.39543 13 2.5V10.5C13 11.6046 12.1046 12.5 11 12.5H2C0.89543 12.5 0 11.6046 0 10.5V2.5ZM8.76393 6.49999L5 8.38196L5 4.61803L8.76393 6.49999ZM9.21114 5.60556C9.94819 5.97408 9.94819 7.02589 9.21115 7.39441L5.44722 9.27639C4.78231 9.60884 4 9.12535 4 8.38196V4.61803C4 3.87465 4.78231 3.39115 5.44721 3.7236L9.21114 5.60556Z" fill="#6D6D6D"/>
</svg>
