<svg width="12" height="13" viewBox="0 0 12 13" fill="none" xmlns="http://www.w3.org/2000/svg">
<path fill-rule="evenodd" clip-rule="evenodd" d="M9.24126 0.193293C9.87637 0.0231766 10.5 0.50175 10.5 1.15924V8.84291C10.8154 9.08568 11.0249 9.41125 11.0711 9.7866C11.1834 10.6988 10.2884 11.5597 9.07211 11.7095C7.85579 11.8592 6.77873 11.2411 6.66643 10.3288C6.55414 9.41658 7.44913 8.55568 8.66545 8.40595C8.95526 8.37028 9.23717 8.37819 9.5 8.4233V4.11502L3.5 5.36607V9.74111C4.00314 9.98662 4.35282 10.3974 4.41421 10.8961C4.52651 11.8083 3.63152 12.6692 2.41519 12.819C1.19887 12.9687 0.121809 12.3506 0.00951186 11.4383C-0.102785 10.5261 0.792206 9.66517 2.00853 9.51544C2.1757 9.49486 2.34024 9.48879 2.5 9.49599V2.76638C2.5 2.31375 2.80404 1.91755 3.24126 1.80044L9.24126 0.193293ZM3.5 4.34457L9.5 3.09351V1.15924L3.5 2.76638V4.34457ZM2.5 10.5077V10.4975C2.3842 10.4894 2.26049 10.492 2.13071 10.508C1.71653 10.5589 1.39541 10.7275 1.20403 10.9116C1.01293 11.0955 0.99295 11.2425 1.00202 11.3161C1.01109 11.3898 1.06613 11.5276 1.29611 11.6596C1.52642 11.7917 1.87884 11.8774 2.29302 11.8265C2.70719 11.7755 3.02831 11.6069 3.21969 11.4228C3.41079 11.239 3.43077 11.092 3.4217 11.0183C3.41263 10.9446 3.3576 10.8068 3.12762 10.6748C2.99129 10.5966 2.81218 10.5346 2.6028 10.5077H2.5ZM10.0786 9.90878C10.0877 9.98246 10.0677 10.1295 9.87661 10.3133C9.68523 10.4974 9.36412 10.666 8.94994 10.717C8.53576 10.768 8.18334 10.6823 7.95303 10.5501C7.72305 10.4181 7.66801 10.2803 7.65894 10.2066C7.64987 10.133 7.66985 9.98597 7.86096 9.80214C8.05234 9.61805 8.37345 9.44944 8.78763 9.39846C9.20181 9.34747 9.55423 9.43317 9.78454 9.56535C10.0145 9.69734 10.0696 9.8351 10.0786 9.90878Z" fill="#6D6D6D"/>
</svg>
