<svg width="16" height="16" viewBox="0 0 16 16" fill="none" xmlns="http://www.w3.org/2000/svg">
<mask id="path-1-inside-1_2001_13917" fill="white">
<path fill-rule="evenodd" clip-rule="evenodd" d="M3 0.628418C1.34315 0.628418 0 1.97157 0 3.62842V9.63834C0 11.2952 1.34314 12.6383 3 12.6383H7.3782C7.44677 12.6383 7.51204 12.665 7.56687 12.7062L10.8555 15.175C11.4978 15.6572 12.3552 15.1995 12.3538 14.3752L12.3517 13.0504C12.3513 12.8229 12.5356 12.6383 12.763 12.6383C14.4199 12.6383 15.763 11.2952 15.763 9.63834V3.62842C15.763 1.97156 14.4199 0.628418 12.763 0.628418H3Z"/>
</mask>
<path d="M10.8555 15.175L11.756 13.9754L10.8555 15.175ZM12.3538 14.3752L13.8538 14.3727V14.3727L12.3538 14.3752ZM12.3517 13.0504L10.8517 13.0528L12.3517 13.0504ZM1.5 3.62842C1.5 2.79999 2.17157 2.12842 3 2.12842V-0.871582C0.514718 -0.871582 -1.5 1.14314 -1.5 3.62842H1.5ZM1.5 9.63834V3.62842H-1.5V9.63834H1.5ZM3 11.1383C2.17157 11.1383 1.5 10.4668 1.5 9.63834H-1.5C-1.5 12.1236 0.514716 14.1383 3 14.1383V11.1383ZM7.3782 11.1383H3V14.1383H7.3782V11.1383ZM11.756 13.9754L8.46741 11.5066L6.66633 13.9058L9.95492 16.3745L11.756 13.9754ZM10.8538 14.3777C10.8536 14.2391 10.9414 14.0476 11.1397 13.9417C11.3457 13.8317 11.5988 13.8574 11.756 13.9754L9.95492 16.3745C11.6796 17.6693 13.857 16.3171 13.8538 14.3727L10.8538 14.3777ZM10.8517 13.0528L10.8538 14.3777L13.8538 14.3727L13.8517 13.0479L10.8517 13.0528ZM14.263 9.63834C14.263 10.4668 13.5915 11.1383 12.763 11.1383V14.1383C15.2483 14.1383 17.263 12.1236 17.263 9.63834H14.263ZM14.263 3.62842V9.63834H17.263V3.62842H14.263ZM12.763 2.12842C13.5915 2.12842 14.263 2.79999 14.263 3.62842H17.263C17.263 1.14314 15.2483 -0.871582 12.763 -0.871582V2.12842ZM3 2.12842H12.763V-0.871582H3V2.12842ZM13.8517 13.0479C13.8526 13.6499 13.365 14.1383 12.763 14.1383V11.1383C11.7062 11.1383 10.8499 11.996 10.8517 13.0528L13.8517 13.0479ZM7.3782 14.1383C7.05325 14.1383 6.81029 14.0139 6.66631 13.9058L8.46743 11.5066C8.21379 11.3162 7.84029 11.1383 7.3782 11.1383V14.1383Z" fill="#8B8AD1" mask="url(#path-1-inside-1_2001_13917)"/>
</svg>
