<svg width="19" height="18" viewBox="0 0 19 18" fill="none" xmlns="http://www.w3.org/2000/svg">
<path d="M6.32056 8.99998C6.32056 10.7865 7.8031 12.2353 9.6204 12.2353C11.4377 12.2353 12.9202 10.7865 12.9202 8.99998C12.9202 7.21343 11.4377 5.76468 9.6204 5.76468C7.8031 5.76468 6.32056 7.21343 6.32056 8.99998ZM7.47765 8.99998C7.47765 7.84508 8.43521 6.90334 9.6204 6.90334C10.8056 6.90334 11.7631 7.84508 11.7631 8.99998C11.7631 10.1549 10.8056 11.0966 9.6204 11.0966C8.43521 11.0966 7.47765 10.1549 7.47765 8.99998Z" fill="#8B8AD1" stroke="#8B8AD1" stroke-width="0.25"/>
<path d="M3.77746 15.4487L3.77745 15.4487L3.77713 15.4497C3.65611 15.8351 3.72717 16.2409 3.96823 16.5657C4.22953 16.92 4.65827 17.1229 5.1119 17.1229H14.1284C14.5816 17.1229 15.01 16.9204 15.2714 16.5667C15.5239 16.2394 15.5835 15.8326 15.4632 15.4497L15.4629 15.4487C14.7965 13.3889 12.3745 11.9853 9.62017 11.9853C6.86582 11.9853 4.44388 13.3889 3.77746 15.4487ZM4.89612 15.8944L4.89633 15.8942L4.89123 15.888C4.87907 15.8731 4.86389 15.8363 4.87741 15.7912C5.12396 15.0296 5.73937 14.3631 6.58398 13.8853C7.42806 13.4078 8.49289 13.1239 9.62017 13.1239C10.7474 13.1239 11.8123 13.4078 12.6564 13.8853C13.5014 14.3633 14.117 15.0302 14.3633 15.7922L14.3632 15.7923L14.365 15.7973C14.3744 15.8225 14.3729 15.8387 14.3702 15.8495C14.367 15.8621 14.3598 15.8748 14.3491 15.888C14.3027 15.9449 14.2219 15.9842 14.1284 15.9842H5.1119C5.00572 15.9842 4.93066 15.9427 4.89612 15.8944Z" fill="#8B8AD1" stroke="#8B8AD1" stroke-width="0.25"/>
<path d="M2.021 3.88133C2.021 5.54347 3.39468 6.88558 5.08499 6.88558C6.7753 6.88558 8.14899 5.54347 8.14899 3.88133C8.14899 2.21919 6.7753 0.877075 5.08499 0.877075C3.39468 0.877075 2.021 2.21919 2.021 3.88133ZM3.17809 3.88133C3.17809 2.85119 4.0355 2.01573 5.08499 2.01573C6.14319 2.01573 6.99189 2.85083 6.99189 3.88133C6.99189 4.91182 6.14319 5.74692 5.08499 5.74692C4.02679 5.74692 3.17809 4.91182 3.17809 3.88133Z" fill="#8B8AD1" stroke="#8B8AD1" stroke-width="0.25"/>
<path d="M10.5298 3.88133C10.5298 5.54347 11.9035 6.88558 13.5938 6.88558C15.2841 6.88558 16.6578 5.54347 16.6578 3.88133C16.6578 2.21919 15.2841 0.877075 13.5938 0.877075C11.9035 0.877075 10.5298 2.21919 10.5298 3.88133ZM11.6869 3.88133C11.6869 2.85119 12.5443 2.01573 13.5938 2.01573C14.652 2.01573 15.5007 2.85083 15.5007 3.88133C15.5007 4.91182 14.652 5.74692 13.5938 5.74692C12.5356 5.74692 11.6869 4.91182 11.6869 3.88133Z" fill="#8B8AD1" stroke="#8B8AD1" stroke-width="0.25"/>
<path d="M16.9668 10.0959L16.9668 10.096L16.9674 10.0978C16.9708 10.1078 16.9729 10.1199 16.9572 10.1442C16.9286 10.1796 16.8773 10.208 16.8045 10.208H13.2487C12.9281 10.208 12.6702 10.4571 12.6702 10.7773C12.6702 11.0976 12.9281 11.3467 13.2487 11.3467H16.7955H16.8045V11.3466C17.2373 11.344 17.634 11.1498 17.8838 10.8172C18.1162 10.5104 18.1884 10.1213 18.0663 9.75205C17.8391 9.05778 17.586 8.39537 17.1351 7.85672C16.6804 7.3136 16.0327 6.90522 15.0336 6.70035L15.0336 6.70032L15.0308 6.69981C14.7264 6.64458 14.4101 6.83094 14.3505 7.14616C14.2922 7.45426 14.4911 7.74846 14.8005 7.81582L14.8005 7.81584L14.8022 7.81618C15.5239 7.96277 15.9611 8.23283 16.2682 8.60521C16.5801 8.98349 16.7669 9.47744 16.9668 10.0959Z" fill="#8B8AD1" stroke="#8B8AD1" stroke-width="0.25"/>
<path d="M5.74719 11.3467H5.75626V11.3466C6.07263 11.3419 6.32574 11.0946 6.32574 10.7773C6.32574 10.4571 6.06778 10.208 5.74719 10.208H2.19137C2.12225 10.208 2.07245 10.1824 2.04316 10.1494C2.03523 10.1327 2.03097 10.1206 2.02903 10.1115C2.02703 10.1021 2.02812 10.0989 2.02849 10.0978L2.0285 10.0978L2.02852 10.0978L2.02911 10.096C2.22882 9.47786 2.41797 8.98373 2.73102 8.60538C3.03916 8.23296 3.4762 7.96302 4.1926 7.81642C4.50421 7.75906 4.71514 7.45309 4.64451 7.14173C4.57573 6.83851 4.27663 6.6324 3.96167 6.70048C2.95846 6.90538 2.31083 7.31367 1.8573 7.85684C1.40749 8.39557 1.15665 9.05811 0.92962 9.75205L0.929592 9.75204L0.928809 9.75462C0.818006 10.1197 0.878052 10.5081 1.1119 10.8171C1.36348 11.1521 1.76409 11.3467 2.20044 11.3467H5.74719Z" fill="#8B8AD1" stroke="#8B8AD1" stroke-width="0.25"/>
</svg>
