<svg width="16" height="16" viewBox="0 0 16 16" fill="none" xmlns="http://www.w3.org/2000/svg">
<path d="M3.98608 4.50003C3.98608 6.71351 5.78649 8.51392 7.99997 8.51392C10.2135 8.51392 12.0139 6.71351 12.0139 4.50003C12.0139 2.28655 10.2135 0.486145 7.99997 0.486145C5.78649 0.486145 3.98608 2.28655 3.98608 4.50003ZM5.3472 4.50003C5.3472 3.03574 6.53568 1.84726 7.99997 1.84726C9.46427 1.84726 10.6528 3.03574 10.6528 4.50003C10.6528 5.96433 9.46427 7.15281 7.99997 7.15281C6.53568 7.15281 5.3472 5.96433 5.3472 4.50003Z" fill="#8B8AD1" stroke="#8B8AD1" stroke-width="0.25"/>
<path d="M0.942624 13.1923L0.94262 13.1923L0.942381 13.1932C0.801882 13.7219 0.883341 14.2794 1.16597 14.7296C1.47328 15.2223 1.9849 15.5139 2.53605 15.5139H13.4616C14.0123 15.5139 14.5236 15.2228 14.831 14.7308C15.1265 14.2782 15.1952 13.7197 15.0553 13.1932L15.055 13.1923C14.2574 10.2785 11.3432 8.26392 7.99882 8.26392C4.6544 8.26392 1.74022 10.2785 0.942624 13.1923ZM2.25832 13.8479L2.25852 13.8478L2.25419 13.8415C2.23034 13.807 2.20492 13.73 2.22819 13.6392C2.83692 11.4152 5.26102 9.78664 7.99882 9.78664C10.737 9.78664 13.1613 11.4156 13.7697 13.6401L13.7696 13.6401L13.771 13.6446C13.8002 13.7374 13.7725 13.7994 13.7435 13.8415C13.6783 13.9357 13.5735 13.9912 13.4616 13.9912H2.53605C2.40992 13.9912 2.31014 13.9336 2.25832 13.8479Z" fill="#8B8AD1" stroke="#8B8AD1" stroke-width="0.25"/>
</svg>
