<?xml version="1.0" encoding="iso-8859-1"?>
<!-- Generator: Adobe Illustrator 16.0.0, SVG Export Plug-In . SVG Version: 6.00 Build 0)  -->
<!DOCTYPE svg PUBLIC "-//W3C//DTD SVG 1.1//EN" "http://www.w3.org/Graphics/SVG/1.1/DTD/svg11.dtd">
<svg version="1.1" id="Capa_1" xmlns="http://www.w3.org/2000/svg" xmlns:xlink="http://www.w3.org/1999/xlink" x="0px" y="0px"
	 width="87.205px" height="87.205px" viewBox="0 0 87.205 87.205" style="enable-background:new 0 0 87.205 87.205;"
	 xml:space="preserve">
<g>
	<g id="Box">
		<g>
			<path style="fill:#6768a7;" d="M87.2,31.938c-0.002-0.225-0.026-0.448-0.068-0.671c-0.006-0.031-0.009-0.063-0.016-0.095
				c-0.037-0.172-0.083-0.342-0.144-0.509L79.134,9.206c-0.562-1.536-2.034-2.562-3.687-2.562H11.758
				c-1.652,0-3.125,1.026-3.687,2.562L0.232,30.664C0.171,30.831,0.126,31,0.089,31.17c-0.008,0.033-0.011,0.067-0.018,0.102
				c-0.041,0.219-0.063,0.438-0.066,0.658C0.005,31.949,0,31.964,0,31.983v44.702c0,2.144,1.757,3.876,3.919,3.876h79.367
				c2.163,0,3.919-1.732,3.919-3.876V31.983C87.205,31.968,87.2,31.954,87.2,31.938z M14.509,14.397h58.188l5.008,13.71H9.502
				L14.509,14.397z M79.366,72.809H7.839V35.86h71.527V72.809z M30.866,58.21H56.34c2.165,0,3.919-1.736,3.919-3.877
				c0-2.139-1.754-3.875-3.919-3.875H30.866c-2.166,0-3.92,1.736-3.92,3.875C26.946,56.474,28.7,58.21,30.866,58.21z"/>
		</g>
	</g>
</g>
<g>
</g>
<g>
</g>
<g>
</g>
<g>
</g>
<g>
</g>
<g>
</g>
<g>
</g>
<g>
</g>
<g>
</g>
<g>
</g>
<g>
</g>
<g>
</g>
<g>
</g>
<g>
</g>
<g>
</g>
</svg>
