<svg width="16" height="18" viewBox="0 0 16 18" fill="none" xmlns="http://www.w3.org/2000/svg">
<path d="M8.37531 1.65634C8.16583 1.44789 7.82544 1.44789 7.61596 1.65634L1.15711 8.08367C1.05237 8.1879 1 8.31818 1 8.46584V15.9615C1 16.2568 1.24439 16.5 1.54115 16.5H6.37656C6.67332 16.5 6.91771 16.2568 6.91771 15.9615V11.6795H9.07357V15.9615C9.07357 16.2568 9.31795 16.5 9.61471 16.5H14.4589C14.7556 16.5 15 16.2568 15 15.9615V8.45715C15 8.31818 14.9476 8.17921 14.8429 8.07499L13.3853 6.62449V3.10683C13.3853 2.81152 13.1409 2.56833 12.8441 2.56833H11.7706C11.4738 2.56833 11.2294 2.81152 11.2294 3.10683V4.48784L8.37531 1.65634Z" stroke="#8B8AD1" stroke-width="1.5" stroke-linecap="round"/>
</svg>
