<svg width="16" height="18" viewBox="0 0 16 18" fill="none" xmlns="http://www.w3.org/2000/svg">
<g clip-path="url(#clip0_2001_13920)">
<path d="M14.16 12.5307C14.1608 12.5747 14.1551 12.6187 14.1559 12.6635C14.1731 13.3173 14.3028 13.9636 14.5407 14.5741C14.6432 14.8301 14.7244 15.0934 14.7835 15.3624C14.7851 15.4162 14.7843 15.4708 14.7802 15.5246C14.7827 15.6077 14.7802 15.6917 14.772 15.7748L14.6178 16.4114C13.2232 14.7103 11.4709 13.3327 9.48323 12.3774C8.16493 11.6463 6.78265 11.035 5.35443 10.55C4.70226 10.3421 4.04024 10.1677 3.37084 10.0275C2.845 9.93212 2.31424 9.86202 1.78101 9.81882C1.62022 9.80822 1.45944 9.81229 1.29947 9.83104L0.892578 9.8343C1.12227 9.45854 1.4258 9.1325 1.78593 8.87574C2.04024 8.76814 2.30275 8.68011 2.571 8.61246C3.7605 8.2587 4.81218 7.55037 5.58331 6.58284C6.02876 6.05547 6.45123 5.51831 6.8893 4.98116C7.03286 4.80754 7.17642 4.6274 7.32736 4.45378L7.46436 4.28832C7.50784 4.22963 7.55624 4.1742 7.60792 4.12285C7.70062 4.01689 7.7925 3.91174 7.89586 3.80659C8.09849 3.59548 8.29947 3.39904 8.50866 3.20178C8.80152 2.90753 9.13704 2.6581 9.50374 2.46166C9.59069 2.4095 9.68093 2.36303 9.77363 2.32228C9.95985 2.23751 10.151 2.16333 10.3454 2.10057C10.4397 2.06878 10.5439 2.04433 10.6399 2.01906H10.6473C10.9197 1.96037 11.1961 1.92369 11.4742 1.90902C11.7047 1.90005 11.9352 1.91391 12.1633 1.94978C12.6908 2.02966 13.1945 2.22528 13.6375 2.52198C13.8097 2.64017 13.9722 2.7714 14.1247 2.91405C14.4004 3.16673 14.6309 3.46506 14.8073 3.79436C14.9886 4.131 15.1182 4.49209 15.1912 4.86623C15.379 5.78648 15.3585 6.73771 15.1313 7.649C14.9861 8.33043 14.804 9.01104 14.6292 9.68514C14.3922 10.5141 14.2363 11.3626 14.1633 12.2209C14.1608 12.2674 14.1617 12.3147 14.1674 12.3611C14.1699 12.4174 14.1674 12.4728 14.1625 12.529L14.16 12.5307Z" fill="white"/>
<path d="M5.75952 11.4482V11.4555L5.87929 11.4971C5.84074 11.4775 5.80054 11.4612 5.75952 11.4482ZM15.2058 4.87189C15.132 4.49531 14.9982 4.13422 14.8079 3.80084C14.9892 4.13667 15.1188 4.49857 15.1918 4.87271C15.3797 5.79296 15.3592 6.74419 15.132 7.65548C14.9868 8.33691 14.8046 9.01752 14.6299 9.69243C14.3936 10.5214 14.2378 11.3699 14.164 12.2282C14.1615 12.2747 14.1623 12.322 14.1681 12.3684C14.1754 12.322 14.1787 12.2747 14.1795 12.2282C14.2534 11.3699 14.4092 10.5206 14.6455 9.69243C14.8186 9.01834 15.0023 8.3361 15.1475 7.65548C15.374 6.74338 15.3937 5.79296 15.2058 4.87271V4.87189Z" fill="#5F61BD"/>
<path d="M14.5447 14.5742C14.6464 14.8855 14.7268 15.2026 14.7842 15.5246C14.7883 15.4708 14.7891 15.4162 14.7875 15.3624C14.7276 15.0934 14.6464 14.8301 14.5447 14.5742Z" fill="#5F61BD"/>
<path d="M15.5733 8.67516C15.8227 7.78344 15.9646 6.86644 15.9975 5.94211C16.0327 4.87106 15.7054 3.81957 15.0672 2.95637C14.9433 2.8284 14.9261 2.63196 15.0253 2.48361C15.4495 1.63019 15.0967 0.59664 14.237 0.175229L14.2148 0.164633C13.3592 -0.238845 12.3363 0.123062 11.9302 0.973219L11.9261 0.982185C11.8736 1.12238 11.7341 1.21286 11.584 1.20389C11.1763 1.22183 10.771 1.27725 10.3732 1.36855C9.39532 1.64324 8.51427 2.18365 7.8301 2.92866C7.42649 3.33621 7.06062 3.77311 6.68654 4.21001C6.14758 4.84253 5.6242 5.49625 5.07785 6.12877C4.29606 7.07429 3.22797 7.74431 2.03273 8.04019C1.84159 8.0891 1.65701 8.16083 1.48228 8.25375C0.806313 8.66212 0.301801 9.30035 0.0639015 10.0502C-0.0115702 10.2638 -0.0214144 10.4953 0.0368301 10.7146C0.13117 11.0757 0.302622 11.4123 0.539701 11.7017C1.13199 12.4524 1.8301 13.1134 2.61435 13.6644C3.78909 14.5284 5.04175 15.284 6.35512 15.9215C7.74971 16.6192 9.20828 17.1832 10.7103 17.6079C11.5922 17.8639 12.5052 17.9959 13.424 18C13.5413 17.982 13.7784 17.9617 14.0212 17.9185C14.4495 17.8557 14.8194 17.5875 15.0089 17.2012C15.1238 16.9909 15.2271 16.7749 15.3174 16.5532C15.5832 15.9223 15.5856 15.2131 15.3248 14.5806C15.1976 14.2521 15.0778 13.9236 14.9802 13.596C14.7981 12.8827 14.7858 12.1369 14.9441 11.418C15.118 10.5051 15.3461 9.59705 15.5733 8.67598V8.67516ZM8.14758 14.6752H8.14019C8.11804 14.6768 8.09507 14.6752 8.07293 14.6703L7.98351 14.6507L7.89409 14.6311C7.79073 14.6091 7.68818 14.5798 7.58892 14.5447C7.57169 14.5366 7.55447 14.5301 7.53724 14.5244C7.42157 14.4795 7.30918 14.4282 7.19926 14.3711C7.10738 14.3263 7.0196 14.2741 6.93593 14.2163C6.84815 14.1559 6.76448 14.0891 6.68654 14.0174C6.6406 13.9815 6.60369 13.9456 6.56513 13.9098C6.41829 13.7761 6.2895 13.6237 6.18285 13.4566C6.1525 13.4183 6.12707 13.3767 6.10574 13.3335C6.05816 13.2593 6.01632 13.1819 5.98105 13.1012C5.94167 13.0075 5.90229 12.9194 5.86948 12.82C5.83749 12.7205 5.8137 12.6317 5.78827 12.538C5.76366 12.4393 5.74561 12.3391 5.73576 12.238C5.70705 11.978 5.71526 11.7155 5.75955 11.4579V11.4506C5.80057 11.4636 5.83995 11.4791 5.8785 11.4987C5.89491 11.4995 5.9105 11.5044 5.92362 11.5125C7.4388 12.0921 8.89819 12.8078 10.2829 13.6506C10.3797 13.7142 10.4765 13.7704 10.5733 13.8323C9.95233 14.4918 9.04585 14.808 8.14676 14.6776L8.14758 14.6752ZM14.6439 9.69323C14.4076 10.5214 14.2518 11.3707 14.1779 12.229C14.1779 12.2763 14.1738 12.3236 14.1664 12.37C14.1689 12.4238 14.1681 12.4784 14.1632 12.5322C14.164 12.5771 14.1582 12.6203 14.1591 12.6651C14.1755 13.3188 14.3059 13.9652 14.543 14.5749C14.6455 14.8308 14.7267 15.0941 14.7858 15.3631C14.7883 15.4169 14.7866 15.4715 14.7825 15.5253C14.785 15.6093 14.7825 15.6924 14.7735 15.7756L14.6201 16.4122C13.2255 14.711 11.4733 13.3335 9.48474 12.3782C8.16644 11.647 6.78416 11.0349 5.35594 10.5507C4.70377 10.3429 4.04175 10.1684 3.37235 10.0282C2.84651 9.93206 2.31575 9.86277 1.78252 9.81957C1.62338 9.80898 1.46423 9.81305 1.3059 9.8318L0.899012 9.83506C1.12871 9.4593 1.43224 9.13325 1.79155 8.87649C2.04667 8.7689 2.30918 8.68168 2.57662 8.61321C3.76612 8.25946 4.8178 7.55113 5.58892 6.58441C6.03437 6.05704 6.45685 5.51988 6.89491 4.98273C7.03109 4.80341 7.18203 4.62164 7.32559 4.44883C7.36907 4.39667 7.41829 4.34287 7.46915 4.2907C7.51263 4.23202 7.56103 4.17659 7.61271 4.12524C7.70541 4.01927 7.79729 3.91494 7.90065 3.80897C8.10246 3.59786 8.30508 3.40142 8.51345 3.20498C8.80631 2.91073 9.14183 2.6613 9.50853 2.46486C9.59548 2.4127 9.68572 2.36624 9.77842 2.32548C9.96464 2.24152 10.1558 2.16735 10.3502 2.1054C10.4445 2.07361 10.5487 2.04916 10.6447 2.02389H10.6521C10.9212 1.9595 11.1952 1.92119 11.4708 1.90733C12.2411 1.8894 12.9983 2.10622 13.6414 2.52763C13.8137 2.64582 13.9761 2.77705 14.1287 2.91969C14.4043 3.17319 14.6349 3.47071 14.8104 3.80001C15.0007 4.13339 15.1353 4.4953 15.2083 4.87187C15.3961 5.79294 15.3756 6.74336 15.1484 7.65465C14.9991 8.33852 14.8178 9.01995 14.6431 9.69405H14.6422L14.6439 9.69323Z" fill="#5F61BD"/>
<path d="M15.1461 7.65634C15.0009 8.33776 14.8188 9.01838 14.644 9.69247C14.4078 10.5214 14.2519 11.37 14.1781 12.2283C14.1781 12.2755 14.174 12.322 14.1666 12.3685C14.1617 12.322 14.16 12.2755 14.1625 12.2283C14.2363 11.37 14.3922 10.5206 14.6285 9.69247C14.8016 9.01838 14.9853 8.33613 15.1305 7.65634C15.3577 6.74423 15.3783 5.79382 15.1904 4.87356C15.1174 4.49943 14.9878 4.13834 14.8065 3.8017C14.9968 4.13508 15.1313 4.49698 15.2052 4.87275C15.393 5.793 15.3733 6.74423 15.1461 7.65552V7.65634Z" fill="#5F61BD"/>
<path d="M10.5766 13.8315C9.95482 14.491 9.04752 14.8064 8.1476 14.6752H8.14022C8.08772 14.6703 8.03522 14.6621 7.98436 14.6507L7.89494 14.6312C7.79157 14.6092 7.68903 14.5798 7.58895 14.5439C7.57254 14.5358 7.55449 14.5293 7.53727 14.5236C7.42242 14.4787 7.30921 14.4274 7.19929 14.3703C7.10905 14.3231 7.02127 14.2717 6.93596 14.2155C6.84818 14.1551 6.7645 14.0883 6.68657 14.0166C6.64473 13.9832 6.60372 13.9465 6.56598 13.909C6.41832 13.7753 6.29034 13.6229 6.1837 13.4558C6.15335 13.4175 6.12792 13.3767 6.10659 13.3327C6.05901 13.2585 6.01799 13.1803 5.98189 13.0996C5.94252 13.0058 5.90314 12.9178 5.87033 12.8184C5.83751 12.7189 5.81372 12.6309 5.78829 12.5363C5.76368 12.4377 5.74564 12.3366 5.73579 12.2356C5.70708 11.9755 5.71528 11.7131 5.75958 11.4555L5.87853 11.4971C5.89412 11.4987 5.9097 11.5028 5.92365 11.5109C7.43883 12.0905 8.89822 12.8061 10.283 13.649C10.3798 13.7134 10.4774 13.7688 10.5758 13.8324L10.5766 13.8315Z" fill="white"/>
<path d="M5.87945 11.4971L5.7605 11.4555V11.4482C5.80152 11.4612 5.84089 11.4775 5.87945 11.4971Z" fill="#5F61BD"/>
<path d="M12.8942 8.1548C13.4175 7.02537 13.2238 5.82715 12.4616 5.4785C11.6994 5.12985 10.6573 5.7628 10.134 6.89224C9.61074 8.02167 9.8044 9.21989 10.5666 9.56854C11.3288 9.91718 12.3709 9.28423 12.8942 8.1548Z" fill="#5F61BD"/>
<path d="M8.77373 6.79226C9.19567 5.8816 9.03961 4.91552 8.42517 4.63446C7.81074 4.35339 6.97059 4.86378 6.54865 5.77444C6.12672 6.6851 6.28277 7.65119 6.89721 7.93225C7.51164 8.21331 8.35179 7.70293 8.77373 6.79226Z" fill="#5F61BD"/>
<path d="M13.0184 8.10605C13.4223 7.23423 13.221 6.2856 12.5687 5.98722C11.9164 5.68884 11.0601 6.15369 10.6562 7.02551C10.2523 7.89732 10.4536 8.84595 11.1059 9.14434C11.7582 9.44272 12.6144 8.97786 13.0184 8.10605Z" fill="white"/>
<path d="M8.85808 6.74626C9.17961 6.05232 9.02122 5.2981 8.50432 5.06165C7.98741 4.8252 7.30774 5.19607 6.98622 5.89C6.6647 6.58394 6.82308 7.33816 7.33999 7.57461C7.85689 7.81106 8.53656 7.44019 8.85808 6.74626Z" fill="white"/>
<path d="M12.7136 8.38257C12.4404 8.80806 12.1147 8.86838 11.7948 8.71432C11.4207 8.53418 11.3231 7.92204 11.5774 7.34576C11.8301 6.77192 12.3395 6.45077 12.7136 6.63091C13.0237 6.78007 13.1549 7.09063 13.0409 7.56584L12.3108 7.71174L12.7136 8.38176V8.38257Z" fill="#5F61BD"/>
<path d="M8.62832 6.94962C8.40846 7.29278 8.14513 7.36777 7.88754 7.24387C7.58648 7.09878 7.50773 6.60483 7.71199 6.14022C7.91626 5.67724 8.32643 5.41885 8.62832 5.56312C8.87852 5.68294 8.97532 6.04404 8.88344 6.42795L8.30346 6.43529L8.62832 6.9488V6.94962Z" fill="#5F61BD"/>
</g>
<defs>
<clipPath id="clip0_2001_13920">
<rect width="16" height="18" fill="white"/>
</clipPath>
</defs>
</svg>
