<svg width="17" height="16" viewBox="0 0 17 16" fill="none" xmlns="http://www.w3.org/2000/svg">
<path d="M15.9016 15.4429L15.9016 15.4429L15.904 15.4406C16.1849 15.1736 16.1965 14.7402 15.9475 14.4494L15.91 14.4058H15.8955L12.4991 10.7502C13.3184 9.66937 13.8096 8.31351 13.8096 6.84615C13.8096 3.28104 10.9054 0.375 7.3423 0.375C3.77916 0.375 0.875 3.28104 0.875 6.84615C0.875 10.4113 3.77916 13.3173 7.3423 13.3173C8.94504 13.3173 10.4027 12.7263 11.5305 11.7622L14.9067 15.3994C14.9068 15.3996 14.907 15.3998 14.9071 15.3999C15.0483 15.5551 15.2329 15.625 15.4259 15.625C15.5929 15.625 15.7617 15.5689 15.9016 15.4429ZM2.27815 6.84615C2.27815 4.05358 4.55161 1.77885 7.3423 1.77885C10.133 1.77885 12.4065 4.05358 12.4065 6.84615C12.4065 9.63873 10.133 11.9135 7.3423 11.9135C4.55161 11.9135 2.27815 9.63873 2.27815 6.84615Z" fill="#8B8AD1" stroke="#8B8AD1" stroke-width="0.25"/>
</svg>
