<svg width="29" height="34" viewBox="0 0 29 34" fill="none" xmlns="http://www.w3.org/2000/svg">
<path fill-rule="evenodd" clip-rule="evenodd" d="M0 3.39221C0 1.51874 1.51875 0 3.39221 0H23.7455C25.6189 0 27.1377 1.51874 27.1377 3.39221V10.1766C27.1377 11.1134 26.3783 11.8727 25.4416 11.8727C24.5048 11.8727 23.7455 11.1134 23.7455 10.1766V3.39221H3.39221V30.5299H23.7455V24.5935C23.7455 23.6568 24.5048 22.8974 25.4416 22.8974C26.3783 22.8974 27.1377 23.6568 27.1377 24.5935V30.5299C27.1377 32.4034 25.6189 33.9221 23.7455 33.9221H3.39221C1.51874 33.9221 0 32.4034 0 30.5299V3.39221ZM6.78447 14.5689C6.78447 14.0166 7.23218 13.5689 7.78447 13.5689H17.3852V10.5314C17.3852 10.1361 17.8224 9.89711 18.1551 10.1106L28.1778 16.5401C28.4845 16.7369 28.4845 17.1851 28.1778 17.3818L18.1551 23.8114C17.8224 24.0249 17.3852 23.7859 17.3852 23.3906V20.3534H7.78447C7.23218 20.3534 6.78447 19.9056 6.78447 19.3534V14.5689Z" fill="#5F61BD"/>
</svg>
