<?xml version="1.0" encoding="utf-8"?>
<!-- Generator: Adobe Illustrator 24.1.1, SVG Export Plug-In . SVG Version: 6.00 Build 0)  -->
<svg version="1.1" id="레이어_1" xmlns="http://www.w3.org/2000/svg" xmlns:xlink="http://www.w3.org/1999/xlink" x="0px"
	 y="0px" viewBox="0 0 576 512" style="enable-background:new 0 0 576 512;" xml:space="preserve">
<style type="text/css">
	.st0{fill:rgb(74 102 158);}
</style>
<path class="st0" d="M480.6,114.9c46.8,43.4,78.1,94.5,92.9,131.1c3.3,7.9,3.3,16.7,0,24.6c-14.8,35.7-46.1,86.8-92.9,131.1
	c-47.1,43.8-111.8,80.6-192.6,80.6s-145.5-36.8-192.6-80.6c-46.8-44.3-78.1-95.4-93-131.1c-3.3-7.9-3.3-16.7,0-24.6
	c14.9-36.6,46.2-87.7,93-131.1C142.5,71.2,207.2,34.3,288,34.3S433.5,71.2,480.6,114.9L480.6,114.9z M288,112
	c-79.5,0-144,64.5-144,144s64.5,144,144,144s144-64.5,144-144S367.5,112,288,112z M191,258.3c0-53.6,43.4-97,97-97s97,43.4,97,97
	s-43.4,97-97,97S191,311.9,191,258.3z"/>
</svg>
