<svg xmlns="http://www.w3.org/2000/svg" width="506.73" height="506.75" style="enable-background:new 0 0 506.73 506.75" xml:space="preserve"><path d="M432 24c8.54 0 16.58 3.33 22.61 9.36l18.73 18.77c6.05 6.04 9.38 14.08 9.38 22.62s-3.33 16.57-9.38 22.62l-.02.02-.02.02-13.03 13.07-64.02-64 13.11-13.09C415.42 27.33 423.46 24 432 24M192 81.85c4.31 0 8 4.4 8 8 0 5.9-4.13 8-8 8H96c-30.36 0-56 25.64-56 56v256.9c0 30.88 25.12 56 56 56h256c30.88 0 56-25.12 56-56v-96.9c0-3.6 3.69-8 8-8s8 4.4 8 8v96.9c0 39.7-32.3 72-72 72H96c-39.7 0-72-32.3-72-72v-256.9c0-39.7 32.3-72 72-72h96m147.71 21.18 64.04 64.02-150.42 150.32-.07.07-.07.07c-3.4 3.46-7.59 6.04-12.44 7.68l-88.11 29.37-.45-.5 29.36-88.07c1.64-4.85 4.23-9.04 7.68-12.44l.07-.07.07-.07 150.34-150.38M432 0c-14.32 0-28.65 5.47-39.6 16.41l-30.1 30.06 98 97.98 30-30.1c21.9-21.87 21.9-57.33 0-79.2l-18.7-18.74C460.65 5.47 446.33 0 432 0zM192 57.85H96c-53.02 0-96 43-96 96v256.9c0 53 42.98 96 96 96h256c53 0 96-43 96-96v-96.9c0-16.8-14.3-32-32-32s-32 15.2-32 32v96.9c0 17.7-14.3 32-32 32H96c-17.67 0-32-14.3-32-32v-256.9c0-16.8 14.33-32 32-32h96c17.7 0 32-13.4 32-32 0-16.77-14.3-32-32-32zm147.7 11.24L172.4 236.45c-6.2 6.1-10.8 13.6-13.6 21.9l-29.6 88.8c-2.8 8.6-.6 18.1 5.8 23.7 4.69 5.26 10.46 7.87 16.88 7.87 2.49 0 5.07-.39 7.72-1.17l88.8-29.6c8.3-2.8 15.8-7.4 21.9-13.6l167.4-167.3-98-97.96z" style="fill:#6768a7"/></svg>