<?xml version="1.0" encoding="utf-8"?>
<!-- Generator: Adobe Illustrator 24.1.1, SVG Export Plug-In . SVG Version: 6.00 Build 0)  -->
<svg version="1.1" id="레이어_1" xmlns="http://www.w3.org/2000/svg" xmlns:xlink="http://www.w3.org/1999/xlink" x="0px"
	 y="0px" viewBox="0 0 506.7 506.8" style="enable-background:new 0 0 506.7 506.8;" xml:space="preserve">
<style type="text/css">
	.st0{fill:#6768A7;}
	.st1{fill:none;stroke:#6768A7;stroke-width:35;stroke-linecap:round;stroke-linejoin:round;stroke-miterlimit:10;}
</style>
<g>
	<g>
		<path class="st0" d="M148.5,269.4c-14.4,10.8-31.9,84.5-39.2,100.5c-5.7,16.5,11.4,33.2,27.6,27.6c0,0,80.6-26.9,80.6-26.9
			c4.7,0.6,24.6-17.1,49.3-41.1l-89.2-89.2L148.5,269.4z"/>
	</g>
	<path class="st0" d="M449.4,149.4l-86.1-86.1L244.5,182.2l86.3,86.3C377.3,223.4,441.5,155.3,449.4,149.4z"/>
	<path class="st0" d="M480.8,48.3c-44.6-51-72.7-34.1-112.4,9.9l86.1,86.1C483.6,117.8,514.8,86,480.8,48.3z"/>
	<g>
		<g>
			<path class="st0" d="M257.2,133.7c39.6,0.4,39.9-59.9,0-60.7c-38.7-0.6-84.4-4.1-120.4,6.8l53.9,53.9
				C217.7,133.7,257.2,133.7,257.2,133.7z"/>
		</g>
		<path class="st0" d="M342.4,397.3v23.9c0,15.8-12.7,28.5-28.5,28.5H85.6c-15.8,0-28.5-12.7-28.5-28.5v-229
			c0-15,12.7-28.5,28.5-28.5c0,0,10,0,23.1,0L58,113c-32,9.7-55.8,31.5-58,79.2v229c0,47.3,38.3,85.6,85.6,85.6h228.2
			c37.3,0,69.1-23.9,80.8-57.2L342.4,397.3z"/>
		<g>
			<path class="st0" d="M434.7,348.9V257c0-15.9-13.6-30.4-30.4-30.4S374,241,374,257v66.5l55.6,55.6
				C432.9,369.6,434.7,359.5,434.7,348.9z"/>
		</g>
	</g>
</g>
<line class="st1" x1="24.9" y1="24.9" x2="479.8" y2="479.8"/>
</svg>
