<svg width="18" height="18" viewBox="0 0 18 18" fill="none" xmlns="http://www.w3.org/2000/svg">
<path opacity="0.8" fill-rule="evenodd" clip-rule="evenodd" d="M14.6303 1.92848H2.25081C1.94004 1.92848 1.68811 2.21628 1.68811 2.5713V15.4278C1.68811 15.7828 1.94004 16.0706 2.25081 16.0706H14.6303C14.941 16.0706 15.193 15.7828 15.193 15.4278V12H14.5714C14.2558 12 14 11.7761 14 11.5V10.5C14 10.2239 14.2558 10 14.5714 10H15.193V7H14.5714C14.2558 7 14 6.77614 14 6.5V5.5C14 5.22386 14.2558 5 14.5714 5H15.193V2.5713C15.193 2.21628 14.941 1.92848 14.6303 1.92848ZM16.8811 15.4278V12H17.4286C17.7442 12 18 11.7761 18 11.5V10.5C18 10.2239 17.7442 10 17.4286 10H16.8811V7H17.4286C17.7442 7 18 6.77614 18 6.5V5.5C18 5.22386 17.7442 5 17.4286 5H16.8811V2.5713C16.8811 1.15121 15.8733 0 14.6303 0H2.25081C1.00772 0 0 1.15121 0 2.5713V15.4278C0 16.8479 1.00772 17.9991 2.25081 17.9991H14.6303C15.8733 17.9991 16.8811 16.8479 16.8811 15.4278ZM6.68738 9.29345L6.68734 9.29344C4.98368 9.57451 3.59936 10.592 3.17364 11.9609C3.08858 12.2427 3.1382 12.5389 3.30832 12.7774C3.49262 13.0375 3.79742 13.1892 4.12348 13.1892L4.12363 13.1892C3.79757 13.1892 3.49277 13.0375 3.30847 12.7774C3.13835 12.5389 3.08873 12.2427 3.17379 11.9609C3.5995 10.592 4.98377 9.57455 6.68738 9.29345ZM8.57828 9.03791L8.57848 9.03794C9.50154 8.67103 10.155 7.77567 10.155 6.73193C10.155 5.39978 9.09054 4.30934 7.75965 4.25083C9.0904 4.30948 10.1547 5.39987 10.1547 6.73193C10.1547 7.77564 9.50129 8.67098 8.57828 9.03791ZM10.4058 6.73193C10.4058 7.75514 9.83513 8.64855 8.99239 9.11656C10.6113 9.48404 11.9283 10.5035 12.3588 11.8878L12.3594 11.8898L12.3594 11.8898C12.4651 12.2398 12.4139 12.6169 12.1881 12.9223C11.9547 13.2501 11.5726 13.4375 11.1693 13.4375H4.12348C3.71938 13.4375 3.33655 13.2493 3.10328 12.9204C2.88894 12.6198 2.82625 12.2446 2.93336 11.8898L2.93395 11.8878L2.93396 11.8878C3.36453 10.5032 4.68202 9.48364 6.30132 9.11634C5.4588 8.64828 4.88835 7.75498 4.88835 6.73193C4.88835 5.22525 6.12561 4 7.64705 4C9.1685 4 10.4058 5.22525 10.4058 6.73193ZM7.64705 5.20631C6.79673 5.20631 6.10648 5.88985 6.10648 6.73193C6.10648 7.574 6.79673 8.25755 7.64705 8.25755C8.49738 8.25755 9.18763 7.574 9.18763 6.73193C9.18763 5.88985 8.49738 5.20631 7.64705 5.20631ZM5.85569 6.73193C5.85569 5.75269 6.65822 4.95795 7.64705 4.95795L7.64677 4.95795C6.65794 4.95795 5.85541 5.75269 5.85541 6.73193C5.85541 7.67169 6.59455 8.44153 7.52815 8.50206C6.59468 8.44139 5.85569 7.6716 5.85569 6.73193ZM11.4457 12.1777C11.0543 10.9178 9.53868 9.99701 7.81391 9.94069C9.53874 9.99697 11.0545 10.9178 11.4459 12.1777C11.4742 12.2572 11.4459 12.315 11.4175 12.3511C11.3647 12.4184 11.2812 12.4606 11.1898 12.4661C11.2811 12.4605 11.3646 12.4183 11.4174 12.3511C11.4457 12.315 11.4741 12.2572 11.4457 12.1777ZM7.64653 9.93796L7.64638 9.93796C7.64643 9.93796 7.64648 9.93796 7.64653 9.93796ZM4.098 12.2156C4.10463 12.2172 4.11311 12.2183 4.12348 12.2183H11.1693C11.179 12.2183 11.1873 12.2168 11.1944 12.2145C10.815 11.0723 9.35587 10.1863 7.64638 10.1863C5.93632 10.1863 4.47681 11.0728 4.098 12.2156Z" fill="#6768A8"/>
</svg>
