<?xml version="1.0" encoding="utf-8"?>
<!-- Generator: Adobe Illustrator 24.1.1, SVG Export Plug-In . SVG Version: 6.00 Build 0)  -->
<svg version="1.1" id="레이어_1" xmlns="http://www.w3.org/2000/svg" xmlns:xlink="http://www.w3.org/1999/xlink" x="0px"
	 y="0px" viewBox="0 0 448 512" style="enable-background:new 0 0 448 512;" xml:space="preserve">
<style type="text/css">
	.st0{fill:#6768A7;}
</style>
<path class="st0" d="M80,192v-48C80,64.5,144.5,0,224,0s144,64.5,144,144v48h16c35.3,0,64,28.7,64,64v192c0,35.3-28.7,64-64,64H64
	c-35.3,0-64-28.7-64-64V256c0-35.3,28.6-64,64-64H80z M144,192h160v-48c0-44.2-35.8-80-80-80s-80,35.8-80,80V192z"/>
</svg>
