<?xml version="1.0" encoding="utf-8"?>
<!-- Generator: Adobe Illustrator 24.1.1, SVG Export Plug-In . SVG Version: 6.00 Build 0)  -->
<svg version="1.1" id="레이어_1" xmlns="http://www.w3.org/2000/svg" xmlns:xlink="http://www.w3.org/1999/xlink" x="0px"
	 y="0px" viewBox="0 0 640 512" style="enable-background:new 0 0 640 512;" xml:space="preserve">
<style type="text/css">
	.st0{fill:rgb(74 102 158);}
</style>
<g>
	<path class="st0" d="M320,159.1c-1.2,0-2.4,0.2-3.5,0.4c1.2,0,2.4-0.1,3.5-0.1c29.9,0,56.6,13.6,74.3,34.8
		C376.7,172.8,349.9,159.1,320,159.1z"/>
	<path class="st0" d="M394.3,194.3c13.6,16.6,21.7,37.7,21.7,60.8c0,14.6-2.9,27.6-8.9,39.4l1.1,0.8c5.4-12,8.4-25.3,8.4-39.3
		C416.6,232.5,408.2,211,394.3,194.3z"/>
	<path class="st0" d="M320,400c-79.5,0-144-64.5-144-144.9c0-6,0.5-12.7,1.4-19.3l-94.3-74.3c-22.8,29.7-39.1,59.3-48.6,82.2
		c-3.3,7.9-3.3,16.7,0,24.6c14.9,35.7,46.2,86.8,92.9,131.1C174.5,443.2,239.2,480,320,480c47.8,0,89.9-12.9,126.2-32.5L373,389.9
		C356.6,396.4,338.7,400,320,400z"/>
	<path class="st0" d="M630.8,469.1l-105.2-82.4c39.6-40.6,66.5-86.1,79.9-118.4c3.3-7.9,3.3-16.7,0-24.6
		c-14.8-36.6-46.1-87.7-92.9-131.1C465.5,68.8,400.8,32,320,32c-68.2,0-125,26.3-169.3,60.8L38.8,5.1C28.4-3.1,13.3-1.2,5.1,9.2
		c-8.2,10.4-6.3,25.5,4.1,33.7l222.4,174.3c6.6-15,16.8-27.9,29.7-37.8l-38.1-29.9c25.5-23.3,59.6-38.4,96.9-38.4
		c79.5,0,144,65.4,144,144c0,25.8-6.3,49.2-17.4,69.6l-38.4-29.4c-6.6,14.7-16.8,27.5-29.4,37.2l222.4,174.3
		c10.4,8.2,25.5,6.3,33.7-4.1C643.1,492.4,641.2,477.3,630.8,469.1z"/>
	<path class="st0" d="M416,255.1c0-23.1-8.2-44.3-21.7-60.8c-17.7-21.3-44.4-34.8-74.3-34.8c-1.2,0-2.4,0-3.5,0.1
		c-20.8,0.7-39.8,8-55.2,19.9c-12.8,9.8-23.1,22.8-29.7,37.8l147.2,115.4c12.6-9.7,22.8-22.5,29.4-37.2l-1.1-0.8
		C413.1,282.7,416,269.7,416,255.1z"/>
</g>
</svg>
