<svg width="17" height="22" viewBox="0 0 17 22" fill="none" xmlns="http://www.w3.org/2000/svg">
<path fill-rule="evenodd" clip-rule="evenodd" d="M5.77713 2.4864C5.04045 2.53765 4.34519 2.6119 3.73041 2.70974C3.07553 2.81396 2.48643 2.94881 2.02907 3.12256C1.80073 3.2093 1.58316 3.31389 1.40146 3.44409C1.22431 3.57102 1.03448 3.75593 0.941428 4.01805C0.775783 4.48467 0.786829 5.03769 0.818402 5.41455C0.835148 5.61444 0.860152 5.78977 0.880972 5.91542C0.891428 5.97852 0.900948 6.02981 0.90805 6.06622C0.911605 6.08445 0.914564 6.099 0.916745 6.1095L0.919414 6.12218L0.920271 6.12616L0.920572 6.12755L0.92069 6.12809L0.920741 6.12833C0.920764 6.12843 0.920786 6.12853 1.50686 6L0.920786 6.12853C0.981163 6.40383 1.22501 6.6 1.50686 6.6H15.2921C15.574 6.6 15.8178 6.40388 15.8782 6.12861L15.2921 6C15.8782 6.12861 15.8782 6.12851 15.8782 6.12841L15.8783 6.12817L15.8784 6.12763L15.8787 6.12624L15.8796 6.12226L15.8822 6.10958L15.885 6.09611L15.8909 6.06629C15.8981 6.02988 15.9076 5.97859 15.918 5.91548C15.9389 5.78982 15.9639 5.61448 15.9807 5.41458C16.0123 5.0377 16.0233 4.48461 15.8575 4.01792C15.7644 3.75567 15.5737 3.57155 15.3973 3.44585C15.216 3.31666 14.999 3.21278 14.7711 3.12654C14.3147 2.95377 13.7265 2.8191 13.0721 2.71462C12.4567 2.61638 11.7605 2.54143 11.0227 2.48937C11.0203 2.29952 11.0152 2.12425 11.0036 1.96683C10.9829 1.68315 10.9378 1.37989 10.8018 1.11479C10.6476 0.814131 10.4036 0.611978 10.0926 0.499652C9.81485 0.399368 9.49561 0.375 9.16873 0.375H9.16813H9.16751H9.16689H9.16625H9.16561H9.16496H9.16429H9.16362H9.16294H9.16225H9.16155H9.16084H9.16012H9.15939H9.15865H9.1579H9.15715H9.15638H9.1556H9.15482H9.15402H9.15321H9.1524H9.15157H9.15074H9.14989H9.14904H9.14817H9.1473H9.14641H9.14552H9.14462H9.1437H9.14278H9.14185H9.14091H9.13995H9.13899H9.13802H9.13703H9.13604H9.13504H9.13403H9.133H9.13197H9.13093H9.12988H9.12881H9.12774H9.12666H9.12557H9.12446H9.12335H9.12223H9.12109H9.11995H9.1188H9.11763H9.11646H9.11528H9.11408H9.11288H9.11166H9.11044H9.1092H9.10796H9.1067H9.10544H9.10416H9.10287H9.10157H9.10027H9.09895H9.09762H9.09628H9.09493H9.09357H9.0922H9.09082H9.08943H9.08803H9.08662H9.0852H9.08376H9.08232H9.08087H9.0794H9.07793H9.07644H9.07494H9.07344H9.07192H9.07039H9.06885H9.0673H9.06574H9.06417H9.06259H9.061H9.05939H9.05778H9.05615H9.05452H9.05287H9.05121H9.04955H9.04787H9.04618H9.04448H9.04276H9.04104H9.03931H9.03756H9.03581H9.03404H9.03226H9.03048H9.02868H9.02687H9.02505H9.02321H9.02137H9.01952H9.01765H9.01577H9.01389H9.01199H9.01008H9.00816H9.00622H9.00428H9.00233H9.00036H8.99838H8.99639H8.99439H8.99238H8.99036H8.98833H8.98628H8.98423H8.98216H8.98008H8.97799H8.97589H8.97378H8.97165H8.96952H8.96737H8.96521H8.96304H8.96086H8.95867H8.95646H8.95425H8.95202H8.94978H8.94753H8.94527H8.94299H8.94071H8.93841H8.9361H8.93378H8.93145H8.92911H8.92675H8.92439H8.92201H8.91962H8.91722H8.9148H8.91238H8.90994H8.90749H8.90503H8.90256H8.90007H8.89758H8.89507H8.89255H8.89002H8.88747H8.88492H8.88235H8.87977H8.87718H8.87458H8.87196H8.86933H8.86669H8.86404H8.86138H8.8587H8.85602H8.85332H8.8506H8.84788H8.84514H8.8424H8.83964H8.83686H8.83408H8.83128H8.82847H8.82565H8.82282H8.81997H8.81712H8.81425H8.81136H8.80847H8.80556H8.80264H8.79971H8.79677H8.79381H8.79084H8.78786H8.78487H8.78186H8.77884H8.77581H8.77277H8.76971H8.76665H8.76356H8.76047H8.75737H8.75425H8.75112H8.74797H8.74482H8.74165H8.73847H8.73527H8.73207H8.72885H8.72562H8.72237H8.71912H8.71585H8.71256H8.70927H8.70596H8.70264H8.69931H8.69596H8.6926H8.68923H8.68584H8.68245H8.67903H8.67561H8.67217H8.66873H8.66526H8.66179H8.6583H8.6548H8.65129H8.64776H8.64422H8.64067H8.6371H8.63352H8.62993H8.62633H8.62271H8.61908H8.61543H8.61177H8.6081H8.60442H8.60072H8.59701H8.59329H8.58955H8.5858H8.58204H8.57827H8.57448H8.57067H8.56686H8.56303H8.55919H8.55533H8.55146H8.54758H8.54368H8.53977H8.53585H8.53191H8.52797H8.524H8.52003H8.51604H8.51203H8.50802H8.50399H8.49994H8.49588H8.49181H8.48773H8.48363H8.47952H8.47539H8.47126H8.4671H8.46294H8.45876H8.45456H8.45036H8.44614H8.4419H8.43765H8.43339H8.42912H8.42483H8.42052H8.41621H8.41188H8.40753H8.40317H8.3988H8.39441H8.39001H8.3856H8.38117H8.37673H8.37227H8.36781H8.36332H8.35882H8.35431H8.34979H8.34525H8.34069H8.33613H8.33154H8.32695H8.32234H8.31771H8.31308H8.30842H8.30376H8.29908H8.29438H8.28967H8.28495H8.28021H8.27546H8.2707H8.26592H8.26112H8.25631H8.25149H8.24665H8.2418H8.23694H8.23206H8.22716H8.22225H8.21733H8.21239H8.20744H8.20248H8.1975H8.1925H8.18749H8.18247H8.17743H8.17237H8.16731H8.16222H8.15713H8.15202H8.14689H8.14175H8.13659H8.13142H8.12624H8.12104H8.11583H8.1106H8.10536H8.1001H8.09483H8.08954H8.08424H8.07892H8.07359H8.06824H8.06288H8.05751H8.05212H8.04671H8.04129H8.03585H8.03041H8.02494H8.01946H8.01397H8.00846H8.00293H7.99739H7.99184H7.98627H7.98068H7.97508H7.96947H7.96384H7.95819H7.95253H7.94686H7.94117H7.93546H7.92974H7.92401H7.91826H7.91249H7.90671H7.90092H7.8951H7.88928H7.88344H7.87758H7.87171H7.86582H7.85992H7.854H7.84806H7.84212H7.83615H7.83017H7.82418H7.81817H7.81214H7.8061H7.80004H7.79397H7.78788H7.78178H7.77566H7.76953H7.76338H7.75721H7.75103H7.74484H7.73863H7.7324H7.72616H7.7199H7.71362H7.70733H7.70103H7.69471H7.68837H7.68202H7.67565H7.66927H7.66287H7.65645H7.65002H7.64358H7.63711H7.63064H7.62414H7.61763H7.61111H7.60456H7.59801H7.59143H7.58484H7.57824H7.57162H7.56498H7.55833H7.55166H7.54497H7.53827H7.53156H7.52482H7.51807H7.51131H7.50453H7.49773H7.49092H7.48409H7.47724H7.47038H7.4635H7.45661H7.4497H7.44277H7.43583H7.42887H7.4219H7.41491H7.4079H7.40087H7.39383H7.38678H7.3797H7.37262H7.36551H7.35839H7.35125H7.3441H7.33693H7.32974H7.32254C7.0027 0.375 6.6891 0.444871 6.42298 0.637099C6.1559 0.830014 6.00665 1.09559 5.92136 1.35435C5.81346 1.6817 5.78468 2.08402 5.77713 2.4864ZM7.02981 2.42243C7.48301 2.40715 7.94306 2.39971 8.40203 2.40001C8.86013 2.40031 9.31928 2.40831 9.77157 2.4241C9.76917 2.28583 9.76483 2.1653 9.75698 2.05817C9.7393 1.81685 9.70745 1.72011 9.68956 1.68521L9.68898 1.68409C9.68477 1.68198 9.67803 1.67896 9.66802 1.67535C9.59957 1.65063 9.45726 1.625 9.16873 1.625H9.16813H9.16751H9.16689H9.16625H9.16561H9.16496H9.16429H9.16362H9.16294H9.16225H9.16155H9.16084H9.16012H9.15939H9.15865H9.1579H9.15715H9.15638H9.1556H9.15482H9.15402H9.15321H9.1524H9.15157H9.15074H9.14989H9.14904H9.14817H9.1473H9.14641H9.14552H9.14462H9.1437H9.14278H9.14185H9.14091H9.13995H9.13899H9.13802H9.13703H9.13604H9.13504H9.13403H9.133H9.13197H9.13093H9.12988H9.12881H9.12774H9.12666H9.12557H9.12446H9.12335H9.12223H9.12109H9.11995H9.1188H9.11763H9.11646H9.11528H9.11408H9.11288H9.11166H9.11044H9.1092H9.10796H9.1067H9.10544H9.10416H9.10287H9.10157H9.10027H9.09895H9.09762H9.09628H9.09493H9.09357H9.0922H9.09082H9.08943H9.08803H9.08662H9.0852H9.08376H9.08232H9.08087H9.0794H9.07793H9.07644H9.07494H9.07344H9.07192H9.07039H9.06885H9.0673H9.06574H9.06417H9.06259H9.061H9.05939H9.05778H9.05615H9.05452H9.05287H9.05121H9.04955H9.04787H9.04618H9.04448H9.04276H9.04104H9.03931H9.03756H9.03581H9.03404H9.03226H9.03048H9.02868H9.02687H9.02505H9.02321H9.02137H9.01952H9.01765H9.01577H9.01389H9.01199H9.01008H9.00816H9.00622H9.00428H9.00233H9.00036H8.99838H8.99639H8.99439H8.99238H8.99036H8.98833H8.98628H8.98423H8.98216H8.98008H8.97799H8.97589H8.97378H8.97165H8.96952H8.96737H8.96521H8.96304H8.96086H8.95867H8.95646H8.95425H8.95202H8.94978H8.94753H8.94527H8.94299H8.94071H8.93841H8.9361H8.93378H8.93145H8.92911H8.92675H8.92439H8.92201H8.91962H8.91722H8.9148H8.91238H8.90994H8.90749H8.90503H8.90256H8.90007H8.89758H8.89507H8.89255H8.89002H8.88747H8.88492H8.88235H8.87977H8.87718H8.87458H8.87196H8.86933H8.86669H8.86404H8.86138H8.8587H8.85602H8.85332H8.8506H8.84788H8.84514H8.8424H8.83964H8.83686H8.83408H8.83128H8.82847H8.82565H8.82282H8.81997H8.81712H8.81425H8.81136H8.80847H8.80556H8.80264H8.79971H8.79677H8.79381H8.79084H8.78786H8.78487H8.78186H8.77884H8.77581H8.77277H8.76971H8.76665H8.76356H8.76047H8.75737H8.75425H8.75112H8.74797H8.74482H8.74165H8.73847H8.73527H8.73207H8.72885H8.72562H8.72237H8.71912H8.71585H8.71256H8.70927H8.70596H8.70264H8.69931H8.69596H8.6926H8.68923H8.68584H8.68245H8.67903H8.67561H8.67217H8.66873H8.66526H8.66179H8.6583H8.6548H8.65129H8.64776H8.64422H8.64067H8.6371H8.63352H8.62993H8.62633H8.62271H8.61908H8.61543H8.61177H8.6081H8.60442H8.60072H8.59701H8.59329H8.58955H8.5858H8.58204H8.57827H8.57448H8.57067H8.56686H8.56303H8.55919H8.55533H8.55146H8.54758H8.54368H8.53977H8.53585H8.53191H8.52797H8.524H8.52003H8.51604H8.51203H8.50802H8.50399H8.49994H8.49588H8.49181H8.48773H8.48363H8.47952H8.47539H8.47126H8.4671H8.46294H8.45876H8.45456H8.45036H8.44614H8.4419H8.43765H8.43339H8.42912H8.42483H8.42052H8.41621H8.41188H8.40753H8.40317H8.3988H8.39441H8.39001H8.3856H8.38117H8.37673H8.37227H8.36781H8.36332H8.35882H8.35431H8.34979H8.34525H8.34069H8.33613H8.33154H8.32695H8.32234H8.31771H8.31308H8.30842H8.30376H8.29908H8.29438H8.28967H8.28495H8.28021H8.27546H8.2707H8.26592H8.26112H8.25631H8.25149H8.24665H8.2418H8.23694H8.23206H8.22716H8.22225H8.21733H8.21239H8.20744H8.20248H8.1975H8.1925H8.18749H8.18247H8.17743H8.17237H8.16731H8.16222H8.15713H8.15202H8.14689H8.14175H8.13659H8.13142H8.12624H8.12104H8.11583H8.1106H8.10536H8.1001H8.09483H8.08954H8.08424H8.07892H8.07359H8.06824H8.06288H8.05751H8.05212H8.04671H8.04129H8.03585H8.03041H8.02494H8.01946H8.01397H8.00846H8.00293H7.99739H7.99184H7.98627H7.98068H7.97508H7.96947H7.96384H7.95819H7.95253H7.94686H7.94117H7.93546H7.92974H7.92401H7.91826H7.91249H7.90671H7.90092H7.8951H7.88928H7.88344H7.87758H7.87171H7.86582H7.85992H7.854H7.84806H7.84212H7.83615H7.83017H7.82418H7.81817H7.81214H7.8061H7.80004H7.79397H7.78788H7.78178H7.77566H7.76953H7.76338H7.75721H7.75103H7.74484H7.73863H7.7324H7.72616H7.7199H7.71362H7.70733H7.70103H7.69471H7.68837H7.68202H7.67565H7.66927H7.66287H7.65645H7.65002H7.64358H7.63711H7.63064H7.62414H7.61763H7.61111H7.60456H7.59801H7.59143H7.58484H7.57824H7.57162H7.56498H7.55833H7.55166H7.54497H7.53827H7.53156H7.52482H7.51807H7.51131H7.50453H7.49773H7.49092H7.48409H7.47724H7.47038H7.4635H7.45661H7.4497H7.44277H7.43583H7.42887H7.4219H7.41491H7.4079H7.40087H7.39383H7.38678H7.3797H7.37262H7.36551H7.35839H7.35125H7.3441H7.33693H7.32974H7.32254C7.25149 1.625 7.20756 1.63278 7.18314 1.63947C7.1712 1.64275 7.16392 1.64576 7.16014 1.64753C7.15651 1.64923 7.15508 1.65028 7.15491 1.6504L7.1549 1.6504L7.15342 1.65178C7.15237 1.65289 7.14973 1.65585 7.14581 1.66178C7.13765 1.67408 7.12377 1.69941 7.10853 1.74565C7.05854 1.89732 7.03802 2.11178 7.02981 2.42243ZM0.933774 7.58324C1.05234 7.45073 1.22173 7.375 1.39954 7.375H15.3995C15.5778 7.375 15.7475 7.4511 15.8661 7.58416C15.9847 7.71722 16.0408 7.89458 16.0204 8.07164L14.5204 21.0716C14.484 21.387 14.217 21.625 13.8995 21.625H2.84782C2.52942 21.625 2.26191 21.3856 2.22666 21.0692L0.778382 8.0692C0.758695 7.89249 0.815208 7.71575 0.933774 7.58324ZM2.09803 8.625L3.40705 20.375H13.3425L14.6983 8.625H2.09803ZM14.7769 5.4H2.02216C2.01933 5.37214 2.01666 5.34355 2.01421 5.31437C1.98675 4.9866 1.99553 4.66438 2.06216 4.44997C2.06973 4.44302 2.08193 4.43276 2.10041 4.41952C2.16772 4.37129 2.28155 4.31031 2.45522 4.24434C2.80187 4.11265 3.2992 3.99346 3.91901 3.89482C5.15227 3.69856 6.7697 3.59895 8.40125 3.60001C10.0327 3.60107 11.65 3.70278 12.8829 3.89962C13.5025 3.99854 13.9998 4.11764 14.3463 4.24882C14.52 4.31456 14.6337 4.3752 14.7008 4.42305C14.7182 4.43542 14.7299 4.44512 14.7374 4.45189C14.8036 4.66621 14.8123 4.98749 14.7849 5.31433C14.7824 5.34353 14.7797 5.37213 14.7769 5.4ZM6.39954 9.875C6.74472 9.875 7.02454 10.1548 7.02454 10.5V18C7.02454 18.3452 6.74472 18.625 6.39954 18.625C6.05436 18.625 5.77454 18.3452 5.77454 18V10.5C5.77454 10.1548 6.05436 9.875 6.39954 9.875ZM11.5245 10.5C11.5245 10.1548 11.2447 9.875 10.8995 9.875C10.5544 9.875 10.2745 10.1548 10.2745 10.5V18C10.2745 18.3452 10.5544 18.625 10.8995 18.625C11.2447 18.625 11.5245 18.3452 11.5245 18V10.5Z" fill="#7978BD"/>
</svg>
