<?xml version="1.0" encoding="iso-8859-1"?>
<!-- Generator: Adobe Illustrator 19.1.0, SVG Export Plug-In . SVG Version: 6.00 Build 0)  -->
<svg version="1.1" id="Capa_1" xmlns="http://www.w3.org/2000/svg" xmlns:xlink="http://www.w3.org/1999/xlink" x="0px" y="0px"
	 viewBox="0 0 67 67" style="enable-background:new 0 0 67 67;" xml:space="preserve">
<g>
	<g>
		<path d="M16.5,67h34c5.514,0,10-4.605,10-10.119v-22c0-5.514-4.486-10-10-10v-8.167C50.5,7.432,43.045,0,33.882,0h-0.334
			C24.147,0,16.5,7.432,16.5,16.714v8.167c-5.514,0-10,4.486-10,10v22C6.5,62.395,10.986,67,16.5,67z M20.5,16.714
			C20.5,9.638,26.354,4,33.548,4h0.334C40.957,4,46.5,9.518,46.5,16.714V25h-26V16.714z M56.5,57c0,3.313-2.687,6-6,6h-34
			c-3.313,0-6-2.687-6-6V35c0-3.313,2.687-6,6-6h34c3.313,0,6,2.687,6,6V57z"/>
		<path d="M30.5,48.785v4.221c0,1.588,1.287,2.994,2.875,2.994h0.25c1.588,0,2.875-1.406,2.875-2.994v-4.359
			c1.798-1.068,3.007-3.023,3.007-5.266c0-3.383-2.742-6.125-6.125-6.125s-6.125,2.742-6.125,6.125
			C27.257,45.722,28.57,47.754,30.5,48.785z"/>
	</g>
</g>
<g>
</g>
<g>
</g>
<g>
</g>
<g>
</g>
<g>
</g>
<g>
</g>
<g>
</g>
<g>
</g>
<g>
</g>
<g>
</g>
<g>
</g>
<g>
</g>
<g>
</g>
<g>
</g>
<g>
</g>
</svg>
