<svg preserveAspectRatio="none" width="170" height="107" viewBox="0 0 170 107" fill="none" xmlns="http://www.w3.org/2000/svg">
<g filter="url(#filter0_di_187_5223)">
<path d="M83.4617 1.74601L85.1547 2.72684C92.5513 7.00491 98.6295 10.5282 103.75 13.4951C105.561 14.5455 107.251 15.5228 108.836 16.441C136.927 32.7047 111.546 18.1662 158.735 45.5111L160.265 46.245L160.258 48.9892L78.8406 96.4167L77.3245 95.5402V95.4463L35.488 72.0873L35.4707 69.1274L32.4281 67.3675V68.3762L30.7385 69.357L3.42465 53.5385H3.41771V53.5351L1.74203 52.5647L1.73162 49.3648L12.0771 43.3373C11.3867 42.2312 10.9843 40.9269 10.9843 39.5252C10.9843 35.5463 14.2038 32.3221 18.1762 32.3221C19.9316 32.3221 21.5345 32.9516 22.7834 33.995C22.8701 34.0681 22.9499 34.1411 23.0332 34.2176C23.4738 34.6246 23.8624 35.0837 24.1885 35.5845C24.2995 35.7515 24.4036 35.9254 24.4973 36.0993L83.4617 1.74601ZM83.4617 0.00695621C83.1599 0.00695621 82.858 0.0869528 82.5909 0.243468L25.0177 33.7864C24.7644 33.4838 24.4938 33.1986 24.2058 32.9342C24.1052 32.8403 24.0011 32.7499 23.8971 32.6595C22.2908 31.3169 20.2612 30.5795 18.1762 30.5795C13.2532 30.5795 9.24962 34.5898 9.24962 39.5218C9.24962 40.593 9.44043 41.6504 9.81165 42.6451L0.860823 47.8588C0.555524 48.0362 0.32308 48.2936 0.177369 48.5927C0.125329 48.7005 0.0836971 48.8118 0.0524732 48.9266C0.0143108 49.0727 -0.00303565 49.2257 0.000433667 49.3822L0.0108412 52.5612C0.0108412 53.1803 0.343895 53.7507 0.878169 54.0637L2.44977 54.975C2.48099 54.9959 2.51569 55.0167 2.55038 55.0376C2.58854 55.0585 2.62323 55.0793 2.6614 55.0967L29.8747 70.8561C30.1418 71.0126 30.4437 71.0891 30.742 71.0891C31.0404 71.0891 31.3422 71.0126 31.6093 70.8561L33.3024 69.8752L33.743 70.1291L33.7534 72.0908C33.7569 72.7168 34.0968 73.2942 34.645 73.6003L76.0582 96.7262C76.1727 96.848 76.3045 96.9558 76.4572 97.0427L77.9732 97.9192C78.2404 98.0757 78.5422 98.1523 78.8406 98.1523C79.1389 98.1523 79.4442 98.0723 79.7114 97.9157L161.129 50.4882C161.663 50.1787 161.99 49.6083 161.993 48.9892L162 46.245C162 45.5737 161.618 44.9615 161.015 44.6728L159.544 43.9668C133.163 28.6805 129.454 26.4754 126.471 24.705C124.105 23.2999 122.058 22.086 109.7 14.928C108.684 14.3402 107.622 13.7246 106.515 13.0846L104.611 11.9821C99.4899 9.01526 93.4117 5.49541 86.0151 1.21386C85.9908 1.19995 85.97 1.18951 85.9457 1.1756L84.3186 0.233033C84.0515 0.0765184 83.7497 0 83.4513 0L83.4617 0.00695621Z" fill="white"/>
<path d="M82.0289 5.94409L43.1449 28.437L4.25732 50.93L78.6672 93.9716L117.551 71.4786L156.439 48.9857L82.0289 5.94409Z" fill="#9BD08C"/>
<path d="M3.56688 50.283L85.2935 2.67119L85.2831 5.87105L3.55994 53.4864L3.56688 50.283Z" fill="#729046"/>
<path d="M1.8739 49.3057L83.597 1.69037L85.2935 2.6712L3.56693 50.283L1.8739 49.3057Z" fill="#D7E472"/>
<path d="M27.0091 66.3762L41.2853 74.6368L62.1532 62.8703C74.733 67.4684 91.6008 66.5745 102.619 60.1991C113.815 53.7194 115.248 43.7372 106.873 36.4263C110.342 34.4959 118.609 29.8735 124.441 26.5067L110.068 18.1905L90.6259 29.1118C79.1633 26.7815 65.8723 28.2666 56.6613 33.5985C47.3948 38.9687 44.8205 46.7284 48.9629 53.389L27.0056 66.3762H27.0091Z" fill="#F1D6A1"/>
<path d="M77.831 92.396L35.6129 68.8283L35.6337 72.0317L77.8414 95.5993L77.831 92.396Z" fill="#C2DD76"/>
<path d="M79.5275 91.4152L37.3059 67.8475L35.6129 68.8283L77.831 92.396L79.5275 91.4152Z" fill="#D7E472"/>
<path d="M77.8309 92.396L77.8413 95.5993L79.5344 94.6185L79.5274 91.4152L77.8309 92.396Z" fill="#A5A6A6"/>
<path d="M30.8704 66.098L1.8739 49.3057L1.88431 52.5056L30.8808 69.2979L30.8704 66.098Z" fill="#C2DD76"/>
<path d="M32.5669 65.1172L5.26339 49.3057L3.56689 50.283L30.8704 66.098L32.5669 65.1172Z" fill="#D7E472"/>
<path d="M30.8704 66.098L30.8808 69.2979L32.5738 68.317L32.5669 65.1172L30.8704 66.098Z" fill="#729046"/>
<path d="M157.167 46.4606L83.597 3.65202L83.6075 6.85188L157.178 49.6605L157.167 46.4606Z" fill="#C2DD76"/>
<path d="M158.878 45.4554L157.167 46.4641L108.555 18.114L100.912 13.6864L83.5936 3.65203L85.2901 2.66772C92.6867 6.94928 98.7649 10.4691 103.886 13.436C105.697 14.4829 107.386 15.4637 108.972 16.3819C137.063 32.6456 111.681 18.1071 158.871 45.452L158.878 45.4554Z" fill="#D7E472"/>
<path d="M157.167 46.4606L157.178 49.6605L158.871 48.6796L158.86 45.4798L157.167 46.4606Z" fill="#A5A6A6"/>
<path d="M78.9899 93.4986L160.408 46.1893L160.401 48.9335L78.9829 96.3611L78.9899 93.4986Z" fill="#729046"/>
<path d="M77.4775 92.8551L158.878 45.4554L160.408 46.1893L78.9902 93.7316L77.4775 92.8551Z" fill="#D7E472"/>
<path d="M78.9898 93.4986L78.9829 96.361L77.4668 95.4846L77.4772 92.6221L78.9898 93.4986Z" fill="#C2DD76"/>
<path opacity="0.7" d="M93.4568 40.92C87.2155 37.3445 77.0365 37.414 70.7224 41.066C64.4082 44.7215 64.3492 50.5787 70.5905 54.1542C76.8353 57.7297 87.0108 57.6636 93.3249 54.0046C99.6391 50.3526 99.6981 44.492 93.4568 40.9165V40.92Z" fill="#D7B16F"/>
<path d="M64.4741 43.5946H65.3068C66.0492 42.3251 67.2739 41.1287 69.0259 40.1165C75.0659 36.621 84.8251 36.6036 90.8305 40.0783C92.5929 41.0973 93.821 42.3077 94.5427 43.5912H95.3094V46.4084C95.2851 48.6831 93.769 50.9578 90.7611 52.6968C84.721 56.1923 74.9584 56.2132 68.9565 52.7386C65.9416 50.9961 64.4533 48.7005 64.4776 46.4084H64.4741V43.5912V43.5946Z" fill="#C2CBD9"/>
<path d="M90.8306 37.5114C84.8252 34.0368 75.0661 34.0577 69.026 37.5532C62.9859 41.0521 62.9547 46.7006 68.9566 50.1752C74.962 53.6499 84.7212 53.629 90.7612 50.1335C96.8013 46.638 96.8325 40.9861 90.8306 37.5114Z" fill="white"/>
<path d="M66.6945 43.8938C66.6945 44.2207 66.7465 44.5581 66.854 44.8885C67.2287 46.1789 68.3701 47.4206 70.1221 48.4501C72.679 49.9491 76.1067 50.7839 79.8015 50.7839C83.5241 50.7839 87.0142 49.9387 89.5954 48.4083C91.3682 47.3649 92.5408 46.085 92.9329 44.7772C93.0404 44.4468 93.0925 44.1094 93.0925 43.7859C93.0925 42.1547 91.8747 40.5374 89.6648 39.2366C87.1218 37.7271 83.6837 36.9028 79.9889 36.9028C76.2663 36.9028 72.79 37.7479 70.195 39.2748C67.9746 40.5756 66.6979 42.2625 66.6979 43.8903L66.6945 43.8938Z" fill="#C2CBD9"/>
<path d="M66.8506 44.8885C67.2253 46.1789 68.3667 47.4206 70.1187 48.4501C72.6756 49.9492 76.1032 50.7839 79.7981 50.7839C83.5206 50.7839 87.0108 49.9387 89.5919 48.4084C91.3648 47.3649 92.5374 46.085 92.9294 44.7772C92.5547 43.4938 91.4133 42.2521 89.6613 41.2191C87.1183 39.7096 83.6802 38.8853 79.9854 38.8853C76.2628 38.8853 72.7866 39.7305 70.1915 41.2608C68.4187 42.3043 67.2496 43.5842 66.8506 44.885V44.8885Z" fill="#4C2377"/>
<path d="M70.1915 40.2939C72.7831 38.847 76.2628 38.0505 79.9854 38.0505C83.6802 38.0505 87.1183 38.8296 89.6613 40.2556C91.8713 41.4834 93.0925 43.0173 93.0925 44.5581C93.0925 44.8676 93.0404 45.1876 92.9329 45.4937C92.5374 46.7319 91.3682 47.9457 89.5954 48.9301C87.0108 50.3735 83.5241 51.1734 79.8015 51.1734C76.1067 51.1734 72.679 50.3839 70.1221 48.9648C68.3701 47.9875 67.2287 46.8154 66.854 45.5945C66.7465 45.285 66.6945 44.965 66.6945 44.6555C66.6945 43.1146 67.9746 41.5182 70.195 40.2904L70.1915 40.2939Z" fill="#6FE0EF"/>
<path d="M71.9574 42.1095C72.0025 41.9843 72.0545 41.866 72.1031 41.7547C72.1725 41.5982 72.2627 41.4591 72.3598 41.3165C72.391 41.2678 72.4327 41.2191 72.4708 41.1704C73.1716 40.2661 74.2506 39.2227 74.2506 39.2227L74.379 39.6157C77.4771 37.9392 82.2578 37.9184 85.3628 39.5531L85.4877 39.1427C85.4877 39.1427 86.7401 40.3078 87.3819 41.2052C87.4062 41.24 87.4305 41.2713 87.4513 41.306C87.5207 41.4104 87.5832 41.5078 87.6317 41.5982C87.6352 41.6017 87.6352 41.6121 87.6352 41.6156C88.4991 43.226 87.826 45.0589 85.6091 46.3389C82.4347 48.1788 77.2966 48.1892 74.1361 46.3597C73.9418 46.2484 73.751 46.1267 73.5671 45.9945C72.8108 45.4554 72.1378 44.7215 71.8845 43.8068C71.777 43.4207 71.7527 43.0173 71.8151 42.6208C71.8429 42.4503 71.8949 42.2764 71.9539 42.1095H71.9574Z" fill="#C2CBD9"/>
<path d="M84.5336 38.4331C81.9872 36.9619 77.8448 36.9654 75.281 38.4505C72.7206 39.9357 72.7033 42.3321 75.2532 43.8033C77.7997 45.278 81.9421 45.2711 84.5059 43.7859C87.0697 42.3043 87.0836 39.9078 84.5336 38.4331Z" fill="#D9E0E9"/>
<path d="M76.9705 39.1983C77.1579 39.0001 77.876 38.1375 77.9558 36.4367C77.9558 36.3949 77.9593 36.3567 77.9593 36.3184C77.9766 35.748 78.1223 35.5046 78.3166 35.435V35.428C79.6176 34.8959 81.5119 35.4072 81.5119 35.4072V35.4315C81.7027 35.4976 81.8484 35.7445 81.8657 36.315C81.8657 36.3567 81.8657 36.3949 81.8727 36.4332C81.9663 38.3949 82.9065 39.2435 82.9065 39.2435C83.9057 40.0713 83.7634 41.2226 82.4833 41.9669C81.047 42.7982 78.7191 42.8051 77.2897 41.9738C75.9818 41.2191 75.8812 40.0296 76.9705 39.1948V39.1983Z" fill="#C2CBD9"/>
<path d="M74.386 31.4943C74.386 34.2524 76.8527 36.4854 79.8918 36.4854C82.9344 36.4854 85.4011 34.249 85.4011 31.4943C85.4011 28.7396 82.9344 26.5067 79.8918 26.5067C76.8492 26.5067 74.386 28.7396 74.386 31.4943Z" fill="#C2CBD9"/>
<path d="M79.8571 34.482C81.5778 34.482 83.2154 34.0855 84.4643 33.362C85.8902 32.5342 86.6777 31.3795 86.6743 30.103C86.6743 28.8335 85.8971 27.6892 84.4886 26.8719C83.257 26.1589 81.6368 25.7658 79.9265 25.7658C78.2161 25.7658 76.5682 26.1658 75.3192 26.8858C73.8933 27.7136 73.1093 28.8683 73.1093 30.1448C73.1093 31.4108 73.8864 32.5586 75.2949 33.3725C76.5265 34.089 78.1467 34.4785 79.8571 34.4785V34.482Z" fill="white"/>
<path d="M74.1986 30.1657C74.3721 30.8404 74.9098 31.4943 75.8049 32.0125C78.0495 33.3099 81.6958 33.2994 83.9508 31.9951C84.8632 31.4665 85.4114 30.8056 85.5849 30.117C85.8485 29.1083 85.3143 28.051 83.9786 27.2788C81.7339 25.9815 78.0877 25.985 75.8326 27.2927C74.4796 28.0753 73.9349 29.15 74.2021 30.1622L74.1986 30.1657Z" fill="#C2CBD9"/>
<path d="M74.1986 30.1656C74.3721 30.8404 74.9098 31.4943 75.8049 32.0125C78.0495 33.3099 81.6958 33.2994 83.9508 31.9951C84.8633 31.4665 85.4114 30.8056 85.5849 30.117C85.4149 29.4352 84.8806 28.7883 83.9786 28.2666C81.734 26.9727 78.0877 26.9797 75.8327 28.284C74.9202 28.8161 74.3721 29.4735 74.2021 30.1656H74.1986Z" fill="#6FE0EF"/>
<path d="M78.0773 29.6544V29.6439C78.0807 29.5674 78.1016 29.4944 78.1293 29.4179L79.1077 25.0563H80.6793L81.6541 29.397C81.7998 29.7413 81.6437 30.1204 81.1788 30.3917C80.4676 30.8056 79.3158 30.8056 78.6081 30.3917C78.2507 30.1865 78.0773 29.9187 78.0773 29.6474V29.6544Z" fill="#C2CBD9"/>
<path d="M80.4502 24.7363C80.1449 24.5555 79.6453 24.5589 79.34 24.7363C79.0313 24.9172 79.0313 25.2024 79.3366 25.3832C79.6453 25.5572 80.1415 25.5572 80.4502 25.3832C80.759 25.2024 80.759 24.9172 80.4502 24.7398V24.7363Z" fill="#7D40B1"/>
<path d="M76.8352 23.3173C76.8352 24.8476 78.2056 26.0893 79.8951 26.0893C81.5847 26.0893 82.9516 24.8511 82.9516 23.3173C82.9516 21.7904 81.5847 20.5487 79.8951 20.5487C78.2056 20.5487 76.8352 21.7904 76.8352 23.3173Z" fill="#C2CBD9"/>
<path d="M79.8744 24.9763C80.8284 24.9763 81.7374 24.7537 82.4313 24.3537C83.2223 23.8946 83.6594 23.2546 83.6594 22.5451C83.6594 21.8425 83.2292 21.2026 82.4451 20.7539C81.7617 20.3574 80.8631 20.1383 79.916 20.1383C78.9689 20.1383 78.053 20.3609 77.3591 20.7574C76.5681 21.2165 76.131 21.8599 76.131 22.566C76.131 23.272 76.5646 23.9051 77.3452 24.3572C78.0287 24.7537 78.9273 24.9728 79.8744 24.9728V24.9763Z" fill="white"/>
<path d="M76.7381 22.5764C76.8317 22.9521 77.1301 23.3138 77.6262 23.6025C78.8752 24.3224 80.8978 24.3155 82.1502 23.592C82.6567 23.2999 82.9585 22.9312 83.0557 22.5521C83.2014 21.9921 82.9065 21.4043 82.1641 20.9765C80.9186 20.2565 78.8925 20.26 77.6436 20.9834C76.8942 21.4182 76.5889 22.0164 76.7381 22.5764Z" fill="#C2CBD9"/>
<path d="M76.7382 22.5764C76.8318 22.9521 77.1302 23.3138 77.6263 23.6025C78.8753 24.3224 80.8979 24.3155 82.1503 23.592C82.6568 23.2999 82.9586 22.9312 83.0558 22.5521C82.9621 22.173 82.6672 21.8112 82.1642 21.5225C80.9187 20.8026 78.8926 20.8095 77.6437 21.533C77.1371 21.8286 76.8318 22.1938 76.7382 22.5764Z" fill="#6FE0EF"/>
<g style="mix-blend-mode:multiply">
<g style="mix-blend-mode:multiply">
<path d="M79.021 13.0986L82.0705 14.8272L84.2909 13.5542L81.2622 11.7978L79.021 13.0986Z" fill="#C7C7C7"/>
</g>
</g>
<path d="M77.5881 10.7161L80.6342 12.4447L82.858 11.1717L79.8293 9.41527L77.5881 10.7161Z" fill="#E1E1E1"/>
<path d="M78.275 10.6778L80.6966 12.0517L82.1745 11.2065L79.7668 9.81177L78.275 10.6778Z" fill="#8C6237"/>
<path d="M77.5881 13.9159L80.6342 15.648V12.4447L77.5881 10.7161V13.9159Z" fill="#CFCFCF"/>
<path d="M80.6307 15.6446L82.858 14.3611V11.1613L80.6307 12.4447V15.6446Z" fill="#C2C2C2"/>
<path d="M79.4477 8.71965C79.1979 8.67791 78.9342 8.70921 78.6948 8.82399C78.5873 8.87616 78.4902 8.93877 78.4034 9.01529C78.2959 9.1092 78.2091 9.2205 78.1398 9.34223C78.001 9.59613 77.9524 9.89525 78.0149 10.1909C78.0357 10.2918 78.0704 10.3926 78.1189 10.49C78.1606 10.57 78.2057 10.6465 78.2612 10.7126C78.3063 10.7683 78.3549 10.8204 78.4034 10.8656C78.5804 11.0256 78.7955 11.1335 79.0244 11.1787C79.2846 11.2308 79.5587 11.203 79.8154 11.0813C79.9646 11.0117 80.0895 10.9143 80.1936 10.803C80.5301 10.4378 80.6238 9.88829 80.3879 9.41179C80.1971 9.0292 79.8397 8.78225 79.4442 8.71617L79.4477 8.71965Z" fill="#B4B508"/>
<path d="M79.4095 8.86225C79.2048 8.82747 78.9897 8.85182 78.7919 8.9492C78.7017 8.99094 78.6254 9.04311 78.5526 9.10572C78.4658 9.18224 78.393 9.27615 78.3375 9.37353C78.223 9.58222 78.1848 9.82917 78.2369 10.0692C78.2542 10.1526 78.282 10.2361 78.3236 10.3161C78.3583 10.3822 78.3964 10.4448 78.4415 10.5004C78.4762 10.5457 78.5179 10.5874 78.5595 10.6257C78.7017 10.7578 78.8787 10.8448 79.0695 10.8796C79.2811 10.9213 79.5101 10.8969 79.7182 10.7996C79.8397 10.7439 79.9438 10.6639 80.0305 10.5735C80.308 10.2744 80.3844 9.82569 80.1901 9.43614C80.034 9.12311 79.7391 8.92138 79.4164 8.86573L79.4095 8.86225Z" fill="#C0C109"/>
<path d="M79.3366 8.97354C79.2083 8.95267 79.073 8.96659 78.9481 9.02571C78.8926 9.05354 78.844 9.08484 78.7989 9.1231C78.7434 9.17179 78.6983 9.22744 78.6636 9.29005C78.5907 9.41874 78.5665 9.57526 78.6012 9.72481C78.6116 9.77699 78.6289 9.82916 78.6567 9.87785C78.6775 9.91959 78.7018 9.95785 78.7295 9.99263C78.7503 10.0205 78.7781 10.0483 78.8024 10.0726C78.8926 10.1561 79.0036 10.2083 79.1216 10.2326C79.2534 10.2604 79.3956 10.2431 79.5275 10.1839C79.6038 10.1491 79.6697 10.1004 79.7217 10.0413C79.8952 9.8535 79.9438 9.57178 79.8223 9.32831C79.7252 9.13354 79.5413 9.00485 79.3366 8.97354Z" fill="#C6C709"/>
<path d="M81.1858 9.73178C80.9361 9.69004 80.6724 9.72134 80.433 9.83612C80.3255 9.88829 80.2283 9.9509 80.1416 10.0274C80.034 10.1213 79.9473 10.2326 79.8779 10.3544C79.7391 10.6083 79.6906 10.9074 79.753 11.203C79.7738 11.3039 79.8085 11.4047 79.8571 11.5021C79.8987 11.5821 79.9438 11.6587 79.9993 11.7247C80.0444 11.7804 80.0896 11.8326 80.1416 11.8778C80.3185 12.0378 80.5336 12.1456 80.7626 12.1908C81.0228 12.243 81.2969 12.2151 81.5536 12.0934C81.7028 12.0239 81.8277 11.9265 81.9318 11.8152C82.2683 11.45 82.362 10.9004 82.126 10.4239C81.9352 10.0413 81.5779 9.79438 81.1824 9.7283L81.1858 9.73178Z" fill="#B4B508"/>
<path d="M81.1442 9.87438C80.9395 9.8396 80.7244 9.86395 80.5267 9.96134C80.4365 10.0031 80.3602 10.0552 80.2873 10.1179C80.2006 10.1944 80.1277 10.2883 80.0722 10.3857C79.9577 10.5944 79.9196 10.8413 79.9716 11.0813C79.9889 11.1648 80.0167 11.2482 80.0583 11.3282C80.093 11.3943 80.1312 11.4569 80.1763 11.5126C80.211 11.5578 80.2526 11.5995 80.2942 11.6378C80.4365 11.77 80.6134 11.8569 80.8042 11.8917C81.0159 11.9334 81.2448 11.9091 81.453 11.8117C81.5744 11.756 81.6785 11.676 81.7652 11.5856C82.0428 11.2865 82.1191 10.8378 81.9248 10.4483C81.7687 10.1352 81.4738 9.93351 81.1512 9.87786L81.1442 9.87438Z" fill="#C0C109"/>
<path d="M81.0748 9.98219C80.9464 9.96133 80.8111 9.97524 80.6862 10.0344C80.6307 10.0622 80.5822 10.0935 80.5371 10.1318C80.4816 10.1804 80.4365 10.2361 80.4018 10.2987C80.3289 10.4309 80.3046 10.5839 80.3393 10.7335C80.3497 10.7856 80.3671 10.8378 80.3948 10.8865C80.4156 10.9282 80.4399 10.9665 80.4677 11.0013C80.4885 11.0291 80.5162 11.0569 80.5405 11.0813C80.6307 11.1648 80.7418 11.2169 80.8597 11.2413C80.9915 11.2691 81.1338 11.2517 81.2656 11.1926C81.3419 11.1578 81.4079 11.1091 81.4599 11.05C81.6334 10.8622 81.6819 10.5804 81.5605 10.337C81.4634 10.1422 81.2795 10.0135 81.0748 9.98219Z" fill="#C6C709"/>
<path d="M80.4191 7.91967C80.1693 7.87794 79.9057 7.90924 79.6663 8.02402C79.5587 8.07619 79.4616 8.1388 79.3749 8.21531C79.2673 8.30922 79.1806 8.42052 79.1112 8.54226C78.9724 8.79616 78.9239 9.09528 78.9863 9.39091C79.0071 9.49178 79.0418 9.59265 79.0904 9.69003C79.132 9.77003 79.1771 9.84655 79.2326 9.91263C79.2777 9.96828 79.3263 10.0205 79.3749 10.0657C79.5518 10.2257 79.7669 10.3335 79.9959 10.3787C80.2561 10.4309 80.5301 10.403 80.7869 10.2813C80.936 10.2117 81.0609 10.1144 81.165 10.0031C81.5015 9.63786 81.5952 9.08832 81.3593 8.61182C81.1685 8.22923 80.8112 7.98228 80.4157 7.9162L80.4191 7.91967Z" fill="#B4B508"/>
<path d="M80.3809 8.06228C80.1762 8.0275 79.9611 8.05185 79.7634 8.14923C79.6732 8.19097 79.5969 8.24314 79.524 8.30575C79.4373 8.38227 79.3644 8.47618 79.3089 8.57356C79.1944 8.78225 79.1562 9.02919 79.2083 9.26918C79.2256 9.35266 79.2534 9.43613 79.295 9.51613C79.3297 9.58221 79.3679 9.64482 79.413 9.70047C79.4477 9.74568 79.4893 9.78742 79.5309 9.82568C79.6732 9.95785 79.8501 10.0448 80.0409 10.0796C80.2525 10.1213 80.4815 10.097 80.6897 9.99959C80.8111 9.94394 80.9152 9.86394 81.0019 9.77351C81.2795 9.47439 81.3558 9.02572 81.1615 8.63617C81.0054 8.32314 80.7105 8.12141 80.3879 8.06576L80.3809 8.06228Z" fill="#C0C109"/>
<path d="M80.3081 8.17359C80.1797 8.15272 80.0444 8.16663 79.9195 8.22576C79.864 8.25358 79.8154 8.28489 79.7703 8.32314C79.7148 8.37184 79.6697 8.42749 79.635 8.49009C79.5622 8.62226 79.5379 8.7753 79.5726 8.92486C79.583 8.97703 79.6003 9.0292 79.6281 9.0779C79.6489 9.11963 79.6732 9.15789 79.701 9.19267C79.7218 9.2205 79.7495 9.24832 79.7738 9.27267C79.864 9.35614 79.975 9.40831 80.093 9.43266C80.2248 9.46049 80.3671 9.4431 80.4989 9.38397C80.5752 9.34919 80.6411 9.30049 80.6932 9.24137C80.8666 9.05355 80.9152 8.77182 80.7938 8.52835C80.6966 8.33358 80.5128 8.20489 80.3081 8.17359Z" fill="#C6C709"/>
<path d="M83.708 7.89185L83.7219 14.1872L84.0029 14.3472L83.989 8.0101L83.708 7.89185Z" fill="#303030"/>
<path d="M83.989 8.0101L83.9959 10.7648L82.1051 11.6621C81.6194 11.8917 81.3107 12.403 81.3107 12.9768L81.3176 16.1732L81.5813 16.0167L81.5743 13.1438C81.5743 12.5699 81.8796 12.0586 82.3688 11.8291L83.9994 11.0569L84.0063 14.3437L84.2839 14.2116L84.27 7.87793L83.9925 8.0101H83.989Z" fill="#3D3D3D"/>
<path d="M92.7039 12.2603C91.788 10.9352 89.9735 9.52307 88.5372 9.1057C87.101 8.68832 85.9838 9.06396 85.5745 8.90049C85.1651 8.73702 84.27 8.38573 84.27 8.3266L84.1312 8.50398L84.3116 10.4935C84.3116 10.5178 85.0402 10.8169 85.4496 10.9804C85.8589 11.1439 87.2085 10.7161 88.6136 11.2552C90.147 11.843 91.3543 13.4951 92.4194 14.6185C93.4845 15.7419 94.9832 16.4341 94.9832 16.4341L94.9763 13.9298C94.9763 13.9298 93.5886 13.5472 92.7039 12.2638V12.2603ZM86.1677 10.6604C85.9665 10.6743 85.793 10.6848 85.6681 10.6778C85.5814 10.6743 85.5502 10.6639 85.5502 10.6639C85.1269 10.4935 84.8112 10.3613 84.6308 10.2848V8.87266C84.8355 8.96309 85.1096 9.07439 85.4738 9.22047C85.5675 9.25873 85.6785 9.2796 85.8173 9.28656C85.8589 9.28656 85.9075 9.28656 85.9526 9.28656L86.2197 10.6604C86.2197 10.6604 86.1851 10.6604 86.1677 10.6604ZM87.2258 10.6361C86.983 10.6256 86.7506 10.6291 86.5424 10.6361L86.2683 9.26917C86.2995 9.26917 86.3273 9.26569 86.362 9.26221C86.643 9.24482 86.9587 9.22743 87.3195 9.24482C87.3577 9.24482 87.3958 9.25178 87.4375 9.25525L87.5797 10.6639C87.4652 10.65 87.3473 10.643 87.2258 10.6361ZM88.905 11.0152C88.8425 10.9874 88.7766 10.9595 88.7107 10.9352C88.454 10.8378 88.1869 10.7648 87.9058 10.7126L87.7567 9.28656C87.9995 9.31786 88.2354 9.36655 88.4644 9.43264C88.6136 9.47437 88.7662 9.53002 88.9223 9.59611L88.8981 11.0117L88.905 11.0152ZM90.1644 11.8151C89.866 11.5717 89.5538 11.3526 89.2242 11.1717L89.245 9.74219C89.6336 9.93349 90.0395 10.177 90.4315 10.4622L90.1644 11.8151ZM90.4488 12.0586L90.716 10.6743C91.1045 10.9769 91.4758 11.3143 91.8053 11.6621L91.1947 12.7855C90.9554 12.5351 90.709 12.2882 90.4523 12.0586H90.4488ZM92.3223 14.0377C92.2078 13.9124 92.0933 13.7838 91.9753 13.6481C91.7915 13.4429 91.6041 13.2307 91.4098 13.022L92.01 11.8917C92.1731 12.0795 92.3188 12.2673 92.4506 12.4551C92.6068 12.6812 92.7768 12.8794 92.9537 13.0568L92.3223 14.0342V14.0377ZM92.6415 14.382C92.6068 14.3437 92.5721 14.3055 92.5339 14.2672L93.1688 13.262C93.7412 13.7698 94.331 14.0446 94.6571 14.1698V15.8915C94.1541 15.6098 93.3006 15.0776 92.638 14.3785L92.6415 14.382Z" fill="#707070"/>
<path d="M92.527 12.4343C91.6111 11.1091 89.7967 9.69699 88.3604 9.27962C86.9241 8.86224 85.807 9.23788 85.3976 9.07441C84.9882 8.91094 84.1278 8.55965 84.1278 8.50052V10.6639C84.1313 10.6882 84.8598 10.9874 85.2692 11.1508C85.6786 11.3143 87.0282 10.8865 88.4332 11.4256C89.9667 12.0169 91.174 13.6655 92.2391 14.7889C93.3041 15.9124 94.8029 16.6045 94.8029 16.6045L94.7959 14.1003C94.7959 14.1003 93.4082 13.7177 92.5235 12.4343H92.527ZM85.9908 10.8309C85.7896 10.8448 85.6161 10.8552 85.4912 10.8482C85.4045 10.8448 85.3733 10.8343 85.3733 10.8343C84.95 10.6639 84.6343 10.5317 84.4539 10.4552V9.0431C84.6586 9.13353 84.9327 9.24483 85.297 9.39091C85.3906 9.42917 85.4982 9.45004 85.6404 9.457C85.6821 9.457 85.7306 9.457 85.7757 9.457L86.0429 10.8309C86.0429 10.8309 86.0082 10.8309 85.9908 10.8309ZM87.049 10.81C86.8061 10.7995 86.5737 10.803 86.3655 10.81L86.0914 9.44309C86.1227 9.44309 86.1504 9.43961 86.1851 9.43613C86.4661 9.41874 86.7818 9.40135 87.1426 9.41874C87.1808 9.41874 87.219 9.4257 87.2606 9.4257L87.4028 10.8343C87.2884 10.8204 87.1704 10.8135 87.049 10.8065V10.81ZM88.7281 11.1891C88.6657 11.1613 88.5998 11.1334 88.5338 11.1091C88.2771 11.0117 88.01 10.9387 87.729 10.8865L87.5798 9.46048C87.8226 9.49178 88.0585 9.54047 88.2875 9.60656C88.4367 9.64829 88.5893 9.70394 88.7455 9.77003L88.7212 11.1856L88.7281 11.1891ZM89.9875 11.9891C89.6891 11.7456 89.3769 11.5265 89.0473 11.3456L89.0681 9.91611C89.4567 10.1074 89.8626 10.3509 90.2546 10.6361L89.9875 11.9891ZM90.272 12.2325L90.5391 10.8482C90.9277 11.1508 91.2989 11.4882 91.6285 11.836L91.0179 12.9595C90.7785 12.709 90.5322 12.4621 90.2754 12.2325H90.272ZM92.1454 14.2116C92.0309 14.0864 91.9164 13.9577 91.7985 13.822C91.6146 13.6168 91.4272 13.4047 91.233 13.196L91.8331 12.0656C91.9962 12.2534 92.1419 12.4412 92.2738 12.629C92.4299 12.8551 92.5999 13.0534 92.7768 13.2307L92.1454 14.2081V14.2116ZM92.4646 14.5559C92.4299 14.5176 92.3952 14.4794 92.357 14.4411L92.9919 13.436C93.5643 13.9438 94.1541 14.2185 94.4802 14.3437V16.0654C93.9772 15.7837 93.1237 15.2515 92.4611 14.5524L92.4646 14.5559Z" fill="#383838"/>
<path d="M81.838 11.4952C81.3523 11.7247 81.0436 12.236 81.0436 12.8099L81.0505 16.0271L81.3142 16.1732L81.3072 12.9768C81.3072 12.4029 81.6125 11.8917 82.1017 11.6621L83.9925 10.7648L83.7115 10.6048L81.8346 11.4952H81.838Z" fill="#4A4A4A"/>
<path d="M84.2874 11.5926L81.6785 12.2812V12.7716L92.3501 18.8827L94.9555 17.7036V17.2167L84.2874 11.5926Z" fill="#B16D2E"/>
<path d="M92.3501 18.3436V18.8827L94.9555 17.7036V17.2167L92.3501 18.3436Z" fill="#6C391A"/>
<path d="M84.2839 11.1021L81.6785 12.2812L92.3501 18.3923L94.9555 17.2167L84.2839 11.1021Z" fill="#FF9C43"/>
<path d="M94.671 13.989L94.6814 20.2843L94.9624 20.4443L94.9486 14.1072L94.671 13.989Z" fill="#303030"/>
<path d="M94.9486 14.1072L94.9555 16.5662L92.1107 17.9158L92.1211 22.0512L92.3848 21.8947L92.3779 19.0218C92.3779 18.4479 92.6832 17.9366 93.1723 17.7071L94.959 16.8619L94.966 20.4443L95.2435 20.3122L95.2296 13.9751L94.9521 14.1072H94.9486Z" fill="#3D3D3D"/>
<path d="M92.6415 17.3732C92.1558 17.6027 91.847 18.114 91.847 18.6879L91.854 21.8843L92.1177 22.0512L92.1107 18.8549C92.1107 18.281 92.416 17.7697 92.9052 17.5401L94.959 16.5663L94.6745 16.4063L92.6415 17.3697V17.3732Z" fill="#4A4A4A"/>
<path d="M94.671 13.989L94.9486 14.1072L95.2296 13.9751L94.9486 13.8707L94.671 13.989Z" fill="#8C8C8C"/>
<path d="M83.708 7.89185L83.989 8.0101L84.27 7.87793L83.989 7.77359L83.708 7.89185Z" fill="#8C8C8C"/>
<path d="M86.0914 9.44656L86.362 10.8135L86.539 10.6361L86.2996 9.43265L86.0914 9.44656Z" fill="#575757"/>
<path d="M87.5797 9.46048L87.7289 10.8865L87.9058 10.7091L87.7809 9.49178L87.5797 9.46048Z" fill="#575757"/>
<path d="M89.0472 11.3456L89.2242 11.1717L89.2415 10.0031L89.0681 9.91611L89.0472 11.3456Z" fill="#575757"/>
<path d="M90.2684 12.229L90.4454 12.0551L90.6605 10.9526L90.5356 10.8448L90.2684 12.229Z" fill="#575757"/>
<path d="M91.2329 13.1925L91.4098 13.0151L91.899 12.1421L91.8331 12.0621L91.2329 13.1925Z" fill="#575757"/>
<path d="M92.3571 14.4411L92.534 14.2637L93.0336 13.4707L92.9919 13.4325L92.3571 14.4411Z" fill="#575757"/>
<path d="M84.4504 9.04311L84.4539 10.4552L84.6309 10.2813V9.11962L84.4504 9.04311Z" fill="#575757"/>
<g style="mix-blend-mode:multiply">
<path d="M94.168 21.5504L97.214 23.2825L99.4379 22.0095L96.4057 20.253L94.168 21.5504Z" fill="#C7C7C7"/>
</g>
<path d="M92.7351 19.1679L95.7812 20.9L98.005 19.627L94.9728 17.8705L92.7351 19.1679Z" fill="#E1E1E1"/>
<path d="M93.4186 19.1331L95.8436 20.5069L97.3216 19.6583L94.9139 18.2636L93.4186 19.1331Z" fill="#8C6237"/>
<path d="M92.7351 22.3712L95.7812 24.0998V20.9L92.7351 19.1679V22.3712Z" fill="#CFCFCF"/>
<path d="M95.7777 24.0998L98.005 22.8164V19.6166L95.7777 20.9V24.0998Z" fill="#C2C2C2"/>
<path d="M94.5947 17.1749C94.3449 17.1332 94.0812 17.1645 93.8418 17.2793C93.7343 17.3314 93.6371 17.394 93.5504 17.4705C93.4429 17.5645 93.3561 17.6758 93.2867 17.7975C93.148 18.0514 93.0994 18.3505 93.1618 18.6461C93.1827 18.747 93.2173 18.8479 93.2659 18.9453C93.3075 19.0253 93.3526 19.1018 93.4082 19.1679C93.4533 19.2235 93.5018 19.2757 93.5504 19.3209C93.7273 19.4809 93.9424 19.5887 94.1714 19.6339C94.4316 19.6861 94.7057 19.6583 94.9624 19.5365C95.1116 19.467 95.2365 19.3696 95.3406 19.2583C95.6771 18.8931 95.7708 18.3436 95.5348 17.8671C95.344 17.4845 94.9867 17.2375 94.5912 17.1714L94.5947 17.1749Z" fill="#B4B508"/>
<path d="M94.553 17.3175C94.3483 17.2827 94.1332 17.3071 93.9355 17.4045C93.8453 17.4462 93.769 17.4984 93.6961 17.561C93.6094 17.6375 93.5365 17.7314 93.481 17.8288C93.3665 18.0375 93.3284 18.2844 93.3804 18.5244C93.3978 18.6079 93.4255 18.6914 93.4671 18.7714C93.5018 18.8374 93.54 18.9001 93.5851 18.9557C93.6198 19.0009 93.6614 19.0427 93.7031 19.0809C93.8453 19.2131 94.0222 19.3 94.213 19.3348C94.4247 19.3766 94.6536 19.3522 94.8618 19.2548C94.9832 19.1992 95.0873 19.1192 95.174 19.0287C95.4516 18.7296 95.5279 18.281 95.3336 17.8914C95.1775 17.5784 94.8826 17.3766 94.56 17.321L94.553 17.3175Z" fill="#C0C109"/>
<path d="M94.4836 17.4288C94.3553 17.4079 94.22 17.4218 94.0951 17.481C94.0395 17.5088 93.991 17.5401 93.9459 17.5784C93.8904 17.6271 93.8453 17.6827 93.8106 17.7453C93.7377 17.874 93.7134 18.0305 93.7481 18.1801C93.7585 18.2322 93.7759 18.2844 93.8036 18.3331C93.8245 18.3748 93.8487 18.4131 93.8765 18.4479C93.8973 18.4757 93.9251 18.5035 93.9493 18.5279C94.0395 18.6114 94.1506 18.6635 94.2685 18.6879C94.4004 18.7157 94.5426 18.6983 94.6744 18.6392C94.7508 18.6044 94.8167 18.5557 94.8687 18.4966C95.0422 18.3088 95.0907 18.027 94.9693 17.7836C94.8722 17.5888 94.6883 17.4601 94.4836 17.4288Z" fill="#C6C709"/>
<path d="M96.3293 18.1836C96.0795 18.1418 95.8158 18.1731 95.5764 18.2879C95.4689 18.3401 95.3718 18.4027 95.285 18.4792C95.1775 18.5731 95.0907 18.6844 95.0213 18.8061C94.8826 19.06 94.834 19.3592 94.8965 19.6548C94.9173 19.7557 94.952 19.8565 95.0005 19.9539C95.0422 20.0339 95.0873 20.1104 95.1428 20.1765C95.1879 20.2322 95.233 20.2843 95.285 20.3296C95.462 20.4895 95.6771 20.5974 95.906 20.6426C96.1662 20.6948 96.4403 20.6669 96.697 20.5452C96.8462 20.4756 96.9711 20.3782 97.0752 20.2669C97.4117 19.9017 97.5054 19.3522 97.2695 18.8757C97.0787 18.4931 96.7213 18.2462 96.3258 18.1801L96.3293 18.1836Z" fill="#B4B508"/>
<path d="M96.2911 18.3262C96.0864 18.2914 95.8713 18.3157 95.6735 18.4131C95.5833 18.4549 95.507 18.507 95.4342 18.5696C95.3474 18.6462 95.2746 18.7401 95.2191 18.8374C95.1046 19.0461 95.0664 19.2931 95.1184 19.5331C95.1358 19.6165 95.1635 19.7 95.2052 19.78C95.2399 19.8461 95.278 19.9087 95.3231 19.9644C95.3578 20.0096 95.3995 20.0513 95.4411 20.0896C95.5833 20.2217 95.7603 20.3087 95.9511 20.3435C96.1627 20.3852 96.3917 20.3609 96.5998 20.2635C96.7213 20.2078 96.8253 20.1278 96.9121 20.0374C97.1896 19.7383 97.2659 19.2896 97.0717 18.9001C96.9155 18.587 96.6207 18.3853 96.298 18.3296L96.2911 18.3262Z" fill="#C0C109"/>
<path d="M96.2218 18.4375C96.0934 18.4166 95.9581 18.4305 95.8332 18.4896C95.7777 18.5175 95.7291 18.5488 95.684 18.587C95.6285 18.6357 95.5834 18.6914 95.5487 18.754C95.4759 18.8827 95.4516 19.0392 95.4863 19.1887C95.4967 19.2409 95.514 19.2931 95.5418 19.3418C95.5626 19.3835 95.5869 19.4218 95.6147 19.4566C95.6355 19.4844 95.6632 19.5122 95.6875 19.5366C95.7777 19.62 95.8887 19.6722 96.0067 19.6965C96.1385 19.7244 96.2808 19.707 96.4126 19.6479C96.4889 19.6131 96.5548 19.5644 96.6069 19.5053C96.7803 19.3174 96.8289 19.0357 96.7075 18.7922C96.6103 18.5975 96.4265 18.4688 96.2218 18.4375Z" fill="#C6C709"/>
<path d="M95.5661 16.375C95.3163 16.3332 95.0526 16.3645 94.8133 16.4793C94.7057 16.5315 94.6086 16.5941 94.5218 16.6706C94.4143 16.7645 94.3276 16.8758 94.2582 16.9975C94.1194 17.2514 94.0708 17.5506 94.1333 17.8462C94.1541 17.9471 94.1888 18.0479 94.2374 18.1453C94.279 18.2253 94.3241 18.3018 94.3796 18.3679C94.4247 18.4236 94.4698 18.4757 94.5218 18.5209C94.6988 18.6809 94.9139 18.7888 95.1428 18.834C95.403 18.8861 95.6771 18.8583 95.9338 18.7366C96.083 18.667 96.2079 18.5696 96.312 18.4583C96.6485 18.0931 96.7422 17.5436 96.5063 17.0671C96.3155 16.6845 95.9581 16.4376 95.5626 16.3715L95.5661 16.375Z" fill="#B4B508"/>
<path d="M95.528 16.5141C95.3233 16.4793 95.1082 16.5036 94.9105 16.601C94.8203 16.6428 94.7439 16.6949 94.6711 16.7575C94.5844 16.8341 94.5115 16.928 94.456 17.0254C94.3415 17.234 94.3033 17.481 94.3554 17.721C94.3727 17.8045 94.4005 17.8879 94.4421 17.9679C94.4768 18.034 94.515 18.0966 94.5601 18.1523C94.5948 18.1975 94.6364 18.2392 94.678 18.2775C94.8203 18.4096 94.9972 18.4966 95.188 18.5314C95.3996 18.5731 95.6286 18.5488 95.8368 18.4514C95.9582 18.3957 96.0623 18.3157 96.149 18.2253C96.4266 17.9262 96.5029 17.4775 96.3086 17.088C96.1525 16.7749 95.8576 16.5732 95.5349 16.5176L95.528 16.5141Z" fill="#C0C109"/>
<path d="M95.4551 16.6254C95.3267 16.6045 95.1914 16.6184 95.0665 16.6776C95.011 16.7054 94.9624 16.7367 94.9173 16.7749C94.8618 16.8236 94.8167 16.8793 94.782 16.9419C94.7092 17.0706 94.6849 17.2271 94.7196 17.3767C94.73 17.4288 94.7473 17.481 94.7751 17.5297C94.7959 17.5714 94.8202 17.6097 94.8479 17.6445C94.8687 17.6723 94.8965 17.7001 94.9208 17.7245C95.011 17.8079 95.122 17.8601 95.24 17.8845C95.3718 17.9123 95.514 17.8949 95.6459 17.8358C95.7222 17.801 95.7881 17.7523 95.8402 17.6932C96.0136 17.5053 96.0622 17.2236 95.9408 16.9802C95.8436 16.7854 95.6597 16.6567 95.4551 16.6254Z" fill="#C6C709"/>
<g style="mix-blend-mode:multiply">
<g style="mix-blend-mode:multiply">
<path d="M114.755 33.6194L117.805 35.348L120.025 34.0751L116.996 32.3186L114.755 33.6194Z" fill="#C7C7C7"/>
</g>
</g>
<path d="M113.322 31.2369L116.368 32.9655L118.592 31.6926L115.563 29.9361L113.322 31.2369Z" fill="#E1E1E1"/>
<path d="M114.009 31.1987L116.431 32.5725L117.909 31.7273L115.501 30.3326L114.009 31.1987Z" fill="#8C6237"/>
<path d="M113.322 34.4368L116.368 36.1689V32.9655L113.322 31.2369V34.4368Z" fill="#CFCFCF"/>
<path d="M116.365 36.1654L118.592 34.882V31.6821L116.365 32.9655V36.1654Z" fill="#C2C2C2"/>
<path d="M115.182 29.2405C114.932 29.1987 114.668 29.23 114.429 29.3448C114.321 29.397 114.224 29.4596 114.137 29.5361C114.03 29.63 113.943 29.7413 113.874 29.8631C113.735 30.117 113.686 30.4161 113.749 30.7117C113.77 30.8126 113.804 30.9134 113.853 31.0108C113.895 31.0908 113.94 31.1673 113.995 31.2334C114.04 31.2891 114.089 31.3413 114.137 31.3865C114.314 31.5465 114.529 31.6543 114.758 31.6995C115.019 31.7517 115.293 31.7238 115.549 31.6021C115.699 31.5325 115.824 31.4352 115.928 31.3239C116.264 30.9587 116.358 30.4091 116.122 29.9326C115.931 29.55 115.574 29.3031 115.178 29.237L115.182 29.2405Z" fill="#B4B508"/>
<path d="M115.143 29.3831C114.939 29.3483 114.724 29.3726 114.526 29.47C114.436 29.5118 114.359 29.5639 114.287 29.6265C114.2 29.7031 114.127 29.797 114.071 29.8944C113.957 30.103 113.919 30.35 113.971 30.59C113.988 30.6735 114.016 30.7569 114.058 30.8369C114.092 30.903 114.13 30.9656 114.176 31.0213C114.21 31.0665 114.252 31.1082 114.294 31.1465C114.436 31.2787 114.613 31.3656 114.804 31.4004C115.015 31.4421 115.244 31.4178 115.452 31.3204C115.574 31.2647 115.678 31.1847 115.764 31.0943C116.042 30.7952 116.118 30.3465 115.924 29.957C115.768 29.6439 115.473 29.4422 115.15 29.3866L115.143 29.3831Z" fill="#C0C109"/>
<path d="M115.071 29.4944C114.942 29.4735 114.807 29.4874 114.682 29.5465C114.627 29.5744 114.578 29.6057 114.533 29.6439C114.477 29.6926 114.432 29.7483 114.398 29.8109C114.325 29.9396 114.3 30.0961 114.335 30.2456C114.346 30.2978 114.363 30.35 114.391 30.3987C114.411 30.4404 114.436 30.4787 114.464 30.5135C114.484 30.5413 114.512 30.5691 114.536 30.5935C114.627 30.6769 114.738 30.7291 114.856 30.7534C114.987 30.7813 115.13 30.7639 115.261 30.7048C115.338 30.67 115.404 30.6213 115.456 30.5622C115.629 30.3743 115.678 30.0926 115.556 29.8491C115.459 29.6544 115.275 29.5257 115.071 29.4944Z" fill="#C6C709"/>
<path d="M116.92 30.2526C116.67 30.2109 116.406 30.2422 116.167 30.3569C116.059 30.4091 115.962 30.4717 115.876 30.5482C115.768 30.6422 115.681 30.7535 115.612 30.8752C115.473 31.1291 115.425 31.4282 115.487 31.7238C115.508 31.8247 115.543 31.9256 115.591 32.023C115.633 32.103 115.678 32.1795 115.733 32.2456C115.778 32.3012 115.824 32.3534 115.876 32.3986C116.053 32.5586 116.268 32.6664 116.497 32.7116C116.757 32.7638 117.031 32.736 117.288 32.6142C117.437 32.5447 117.562 32.4473 117.666 32.336C118.002 31.9708 118.096 31.4213 117.86 30.9447C117.669 30.5622 117.312 30.3152 116.916 30.2491L116.92 30.2526Z" fill="#B4B508"/>
<path d="M116.878 30.3952C116.674 30.3604 116.458 30.3848 116.261 30.4822C116.17 30.5239 116.094 30.5761 116.021 30.6387C115.935 30.7152 115.862 30.8091 115.806 30.9065C115.692 31.1152 115.654 31.3621 115.706 31.6021C115.723 31.6856 115.751 31.7691 115.792 31.8491C115.827 31.9151 115.865 31.9778 115.91 32.0334C115.945 32.0786 115.987 32.1204 116.028 32.1586C116.17 32.2908 116.347 32.3777 116.538 32.4125C116.75 32.4543 116.979 32.4299 117.187 32.3325C117.308 32.2769 117.413 32.1969 117.499 32.1064C117.777 31.8073 117.853 31.3586 117.659 30.9691C117.503 30.6561 117.208 30.4543 116.885 30.3987L116.878 30.3952Z" fill="#C0C109"/>
<path d="M116.809 30.503C116.68 30.4822 116.545 30.4961 116.42 30.5552C116.365 30.583 116.316 30.6143 116.271 30.6526C116.216 30.7013 116.17 30.7569 116.136 30.8195C116.063 30.9517 116.039 31.1047 116.073 31.2543C116.084 31.3065 116.101 31.3586 116.129 31.4073C116.15 31.4491 116.174 31.4873 116.202 31.5221C116.223 31.5499 116.25 31.5778 116.275 31.6021C116.365 31.6856 116.476 31.7378 116.594 31.7621C116.726 31.7899 116.868 31.7725 117 31.7134C117.076 31.6786 117.142 31.6299 117.194 31.5708C117.367 31.383 117.416 31.1013 117.295 30.8578C117.197 30.663 117.014 30.5343 116.809 30.503Z" fill="#C6C709"/>
<path d="M116.153 28.4405C115.903 28.3988 115.64 28.4301 115.4 28.5449C115.293 28.597 115.196 28.6596 115.109 28.7362C115.001 28.8301 114.915 28.9414 114.845 29.0631C114.706 29.317 114.658 29.6161 114.72 29.9118C114.741 30.0126 114.776 30.1135 114.824 30.2109C114.866 30.2909 114.911 30.3674 114.967 30.4335C115.012 30.4891 115.06 30.5413 115.109 30.5865C115.286 30.7465 115.501 30.8543 115.73 30.8995C115.99 30.9517 116.264 30.9239 116.521 30.8022C116.67 30.7326 116.795 30.6352 116.899 30.5239C117.236 30.1587 117.329 29.6092 117.093 29.1327C116.903 28.7501 116.545 28.5031 116.15 28.437L116.153 28.4405Z" fill="#B4B508"/>
<path d="M116.115 28.5831C115.91 28.5483 115.695 28.5727 115.497 28.6701C115.407 28.7118 115.331 28.764 115.258 28.8266C115.171 28.9031 115.098 28.997 115.043 29.0944C114.928 29.3031 114.89 29.55 114.942 29.79C114.96 29.8735 114.987 29.957 115.029 30.037C115.064 30.1031 115.102 30.1657 115.147 30.2213C115.182 30.2665 115.223 30.3083 115.265 30.3465C115.407 30.4787 115.584 30.5656 115.775 30.6004C115.987 30.6422 116.216 30.6178 116.424 30.5204C116.545 30.4648 116.649 30.3848 116.736 30.2944C117.013 29.9952 117.09 29.5466 116.896 29.157C116.739 28.844 116.445 28.6423 116.122 28.5866L116.115 28.5831Z" fill="#C0C109"/>
<path d="M116.042 28.6944C115.914 28.6735 115.778 28.6875 115.654 28.7466C115.598 28.7744 115.549 28.8057 115.504 28.844C115.449 28.8927 115.404 28.9483 115.369 29.0109C115.296 29.1431 115.272 29.2961 115.307 29.4457C115.317 29.4979 115.334 29.55 115.362 29.5987C115.383 29.6405 115.407 29.6787 115.435 29.7135C115.456 29.7413 115.484 29.7692 115.508 29.7935C115.598 29.877 115.709 29.9291 115.827 29.9535C115.959 29.9813 116.101 29.9639 116.233 29.9048C116.309 29.87 116.375 29.8213 116.427 29.7622C116.601 29.5744 116.649 29.2927 116.528 29.0492C116.431 28.8544 116.247 28.7257 116.042 28.6944Z" fill="#C6C709"/>
<path d="M119.442 28.4127L119.456 34.7081L119.737 34.8681L119.723 28.5309L119.442 28.4127Z" fill="#303030"/>
<path d="M119.723 28.5309L119.73 31.2856L117.839 32.183C117.353 32.4125 117.045 32.9238 117.045 33.4977L117.052 36.6941L117.315 36.5376L117.308 33.6646C117.308 33.0907 117.614 32.5795 118.103 32.3499L119.733 31.5778L119.74 34.8646L120.018 34.7324L120.004 28.3988L119.726 28.5309H119.723Z" fill="#3D3D3D"/>
<path d="M128.438 32.7812C127.522 31.456 125.708 30.0439 124.271 29.6266C122.835 29.2092 121.718 29.5848 121.308 29.4213C120.899 29.2579 120.004 28.9066 120.004 28.8475L119.865 29.0248L120.046 31.0143C120.046 31.0387 120.774 31.3378 121.184 31.5013C121.593 31.6647 122.943 31.2369 124.348 31.776C125.881 32.3638 127.088 34.0159 128.153 35.1394C129.218 36.2628 130.717 36.9549 130.717 36.9549L130.71 34.4507C130.71 34.4507 129.323 34.0681 128.438 32.7847V32.7812ZM121.902 31.1813C121.7 31.1952 121.527 31.2056 121.402 31.1987C121.315 31.1952 121.284 31.1847 121.284 31.1847C120.861 31.0143 120.545 30.8822 120.365 30.8056V29.3935C120.57 29.484 120.844 29.5953 121.208 29.7413C121.302 29.7796 121.413 29.8005 121.551 29.8074C121.593 29.8074 121.642 29.8074 121.687 29.8074L121.954 31.1813C121.954 31.1813 121.919 31.1813 121.902 31.1813ZM122.96 31.1569C122.717 31.1465 122.485 31.15 122.276 31.1569L122.002 29.79C122.034 29.79 122.061 29.7865 122.096 29.7831C122.377 29.7657 122.693 29.7483 123.054 29.7657C123.092 29.7657 123.13 29.7726 123.171 29.7761L123.314 31.1847C123.199 31.1708 123.081 31.1639 122.96 31.1569ZM124.639 31.536C124.577 31.5082 124.511 31.4804 124.445 31.456C124.188 31.3587 123.921 31.2856 123.64 31.2334L123.491 29.8074C123.734 29.8387 123.969 29.8874 124.198 29.9535C124.348 29.9952 124.5 30.0509 124.656 30.117L124.632 31.5326L124.639 31.536ZM125.898 32.336C125.6 32.0925 125.288 31.8734 124.958 31.6926L124.979 30.263C125.368 30.4543 125.773 30.6978 126.166 30.983L125.898 32.336ZM126.183 32.5795L126.45 31.1952C126.839 31.4978 127.21 31.8352 127.539 32.183L126.929 33.3064C126.689 33.056 126.443 32.809 126.186 32.5795H126.183ZM128.056 34.5585C127.942 34.4333 127.827 34.3046 127.709 34.169C127.525 33.9638 127.338 33.7516 127.144 33.5429L127.744 32.4125C127.907 32.6003 128.053 32.7882 128.185 32.976C128.341 33.202 128.511 33.4003 128.688 33.5777L128.056 34.555V34.5585ZM128.375 34.9028C128.341 34.8646 128.306 34.8263 128.268 34.7881L128.903 33.7829C129.475 34.2907 130.065 34.5655 130.391 34.6907V36.4123C129.888 36.1306 129.035 35.5985 128.372 34.8994L128.375 34.9028Z" fill="#707070"/>
<path d="M128.261 32.9551C127.345 31.6299 125.531 30.2178 124.094 29.8005C122.658 29.3831 121.541 29.7587 121.132 29.5953C120.722 29.4318 119.862 29.0805 119.862 29.0214V31.1847C119.865 31.2091 120.594 31.5082 121.003 31.6717C121.413 31.8352 122.762 31.4073 124.167 31.9465C125.701 32.5377 126.908 34.1864 127.973 35.3098C129.038 36.4332 130.537 37.1254 130.537 37.1254L130.53 34.6211C130.53 34.6211 129.142 34.2385 128.258 32.9551H128.261ZM121.725 31.3517C121.524 31.3656 121.35 31.376 121.225 31.3691C121.139 31.3656 121.107 31.3552 121.107 31.3552C120.684 31.1847 120.368 31.0526 120.188 30.9761V29.5639C120.393 29.6544 120.667 29.7657 121.031 29.9118C121.125 29.95 121.232 29.9709 121.374 29.9778C121.416 29.9778 121.465 29.9778 121.51 29.9778L121.777 31.3517C121.777 31.3517 121.742 31.3517 121.725 31.3517ZM122.783 31.3308C122.54 31.3204 122.308 31.3239 122.1 31.3308L121.825 29.9639C121.857 29.9639 121.884 29.9605 121.919 29.957C122.2 29.9396 122.516 29.9222 122.877 29.9396C122.915 29.9396 122.953 29.9465 122.995 29.9465L123.137 31.3552C123.022 31.3413 122.904 31.3343 122.783 31.3273V31.3308ZM124.462 31.7099C124.4 31.6821 124.334 31.6543 124.268 31.6299C124.011 31.5326 123.744 31.4595 123.463 31.4073L123.314 29.9813C123.557 30.0126 123.793 30.0613 124.022 30.1274C124.171 30.1691 124.323 30.2248 124.479 30.2909L124.455 31.7065L124.462 31.7099ZM125.721 32.5099C125.423 32.2664 125.111 32.0473 124.781 31.8665L124.802 30.437C125.191 30.6282 125.597 30.8717 125.989 31.1569L125.721 32.5099ZM126.006 32.7534L126.273 31.3691C126.662 31.6717 127.033 32.0091 127.362 32.3569L126.752 33.4803C126.512 33.2299 126.266 32.9829 126.009 32.7534H126.006ZM127.879 34.7324C127.765 34.6072 127.65 34.4785 127.532 34.3429C127.349 34.1377 127.161 33.9255 126.967 33.7168L127.567 32.5864C127.73 32.7742 127.876 32.9621 128.008 33.1499C128.164 33.376 128.334 33.5742 128.511 33.7516L127.879 34.7289V34.7324ZM128.199 35.0768C128.164 35.0385 128.129 35.0002 128.091 34.962L128.726 33.9568C129.298 34.4646 129.888 34.7394 130.214 34.8646V36.5863C129.711 36.3045 128.858 35.7724 128.195 35.0733L128.199 35.0768Z" fill="#383838"/>
<path d="M117.572 32.016C117.086 32.2456 116.778 32.7568 116.778 33.3307L116.785 36.548L117.048 36.6941L117.041 33.4977C117.041 32.9238 117.347 32.4125 117.836 32.183L119.727 31.2856L119.445 31.1256L117.569 32.016H117.572Z" fill="#4A4A4A"/>
<path d="M120.021 32.1134L117.412 32.8021V33.2925L128.084 39.4035L130.69 38.2244V37.7375L120.021 32.1134Z" fill="#B16D2E"/>
<path d="M128.084 38.8644V39.4035L130.69 38.2244V37.7375L128.084 38.8644Z" fill="#6C391A"/>
<path d="M120.018 31.623L117.412 32.8021L128.084 38.9131L130.69 37.7375L120.018 31.623Z" fill="#FF9C43"/>
<path d="M130.405 34.5098L130.415 40.8052L130.696 40.9652L130.683 34.6281L130.405 34.5098Z" fill="#303030"/>
<path d="M130.683 34.6281L130.69 37.0871L127.845 38.4366L127.855 42.5721L128.119 42.4156L128.112 39.5426C128.112 38.9688 128.417 38.4575 128.906 38.2279L130.693 37.3827L130.7 40.9652L130.978 40.833L130.964 34.4959L130.686 34.6281H130.683Z" fill="#3D3D3D"/>
<path d="M128.376 37.894C127.89 38.1236 127.581 38.6349 127.581 39.2088L127.588 42.4051L127.852 42.5721L127.845 39.3757C127.845 38.8018 128.15 38.2905 128.639 38.061L130.693 37.0871L130.409 36.9271L128.376 37.8905V37.894Z" fill="#4A4A4A"/>
<path d="M130.405 34.5098L130.683 34.6281L130.964 34.4959L130.683 34.3916L130.405 34.5098Z" fill="#8C8C8C"/>
<path d="M119.442 28.4127L119.723 28.5309L120.004 28.3988L119.723 28.2944L119.442 28.4127Z" fill="#8C8C8C"/>
<path d="M121.825 29.9674L122.096 31.3343L122.273 31.1569L122.034 29.9535L121.825 29.9674Z" fill="#575757"/>
<path d="M123.314 29.9813L123.463 31.4074L123.64 31.23L123.515 30.0126L123.314 29.9813Z" fill="#575757"/>
<path d="M124.781 31.8665L124.958 31.6925L124.976 30.5239L124.802 30.437L124.781 31.8665Z" fill="#575757"/>
<path d="M126.002 32.7499L126.179 32.576L126.394 31.4734L126.27 31.3656L126.002 32.7499Z" fill="#575757"/>
<path d="M126.967 33.7133L127.144 33.5359L127.633 32.6629L127.567 32.5829L126.967 33.7133Z" fill="#575757"/>
<path d="M128.091 34.962L128.268 34.7846L128.768 33.9916L128.726 33.9533L128.091 34.962Z" fill="#575757"/>
<path d="M120.184 29.5639L120.188 30.9761L120.365 30.8022V29.6405L120.184 29.5639Z" fill="#575757"/>
<g style="mix-blend-mode:multiply">
<path d="M129.902 42.0712L132.948 43.8033L135.172 42.5303L132.14 40.7739L129.902 42.0712Z" fill="#C7C7C7"/>
</g>
<path d="M128.469 39.6887L131.515 41.4208L133.739 40.1478L130.707 38.3914L128.469 39.6887Z" fill="#E1E1E1"/>
<path d="M129.153 39.6539L131.578 41.0278L133.056 40.1791L130.648 38.7844L129.153 39.6539Z" fill="#8C6237"/>
<path d="M128.469 42.8921L131.515 44.6207V41.4208L128.469 39.6887V42.8921Z" fill="#CFCFCF"/>
<path d="M131.512 44.6207L133.739 43.3373V40.1374L131.512 41.4208V44.6207Z" fill="#C2C2C2"/>
<path d="M130.329 37.6958C130.079 37.654 129.815 37.6853 129.576 37.8001C129.468 37.8523 129.371 37.9149 129.284 37.9914C129.177 38.0853 129.09 38.1966 129.021 38.3183C128.882 38.5722 128.833 38.8714 128.896 39.167C128.917 39.2679 128.951 39.3687 129 39.4661C129.042 39.5461 129.087 39.6226 129.142 39.6887C129.187 39.7444 129.236 39.7965 129.284 39.8417C129.461 40.0017 129.676 40.1096 129.905 40.1548C130.166 40.2069 130.44 40.1791 130.696 40.0574C130.846 39.9878 130.97 39.8904 131.075 39.7791C131.411 39.4139 131.505 38.8644 131.269 38.3879C131.078 38.0053 130.721 37.7584 130.325 37.6923L130.329 37.6958Z" fill="#B4B508"/>
<path d="M130.287 37.8384C130.082 37.8036 129.867 37.8279 129.669 37.9253C129.579 37.967 129.503 38.0192 129.43 38.0818C129.343 38.1583 129.271 38.2523 129.215 38.3496C129.101 38.5583 129.062 38.8053 129.114 39.0453C129.132 39.1287 129.16 39.2122 129.201 39.2922C129.236 39.3583 129.274 39.4209 129.319 39.4765C129.354 39.5218 129.395 39.5635 129.437 39.6018C129.579 39.7339 129.756 39.8209 129.947 39.8557C130.159 39.8974 130.388 39.8731 130.596 39.7757C130.717 39.72 130.821 39.64 130.908 39.5496C131.186 39.2505 131.262 38.8018 131.068 38.4122C130.912 38.0992 130.617 37.8975 130.294 37.8418L130.287 37.8384Z" fill="#C0C109"/>
<path d="M130.218 37.9497C130.089 37.9288 129.954 37.9427 129.829 38.0018C129.774 38.0297 129.725 38.061 129.68 38.0992C129.624 38.1479 129.579 38.2036 129.545 38.2662C129.472 38.3949 129.447 38.5514 129.482 38.7009C129.493 38.7531 129.51 38.8053 129.538 38.854C129.558 38.8957 129.583 38.934 129.61 38.9687C129.631 38.9966 129.659 39.0244 129.683 39.0487C129.774 39.1322 129.885 39.1844 130.003 39.2087C130.134 39.2366 130.277 39.2192 130.408 39.16C130.485 39.1253 130.551 39.0766 130.603 39.0174C130.776 38.8296 130.825 38.5479 130.703 38.3044C130.606 38.1097 130.422 37.981 130.218 37.9497Z" fill="#C6C709"/>
<path d="M132.063 38.7044C131.814 38.6627 131.55 38.694 131.31 38.8087C131.203 38.8609 131.106 38.9235 131.019 39C130.911 39.094 130.825 39.2053 130.755 39.327C130.617 39.5809 130.568 39.88 130.63 40.1756C130.651 40.2765 130.686 40.3774 130.735 40.4748C130.776 40.5548 130.821 40.6313 130.877 40.6974C130.922 40.753 130.967 40.8052 131.019 40.8504C131.196 41.0104 131.411 41.1182 131.64 41.1634C131.9 41.2156 132.174 41.1878 132.431 41.066C132.58 40.9965 132.705 40.8991 132.809 40.7878C133.146 40.4226 133.239 39.8731 133.003 39.3965C132.813 39.014 132.455 38.767 132.06 38.7009L132.063 38.7044Z" fill="#B4B508"/>
<path d="M132.025 38.847C131.82 38.8122 131.605 38.8366 131.408 38.934C131.317 38.9757 131.241 39.0279 131.168 39.0905C131.081 39.167 131.009 39.2609 130.953 39.3583C130.839 39.567 130.8 39.8139 130.852 40.0539C130.87 40.1374 130.898 40.2209 130.939 40.3009C130.974 40.3669 131.012 40.4295 131.057 40.4852C131.092 40.5304 131.133 40.5722 131.175 40.6104C131.317 40.7426 131.494 40.8295 131.685 40.8643C131.897 40.906 132.126 40.8817 132.334 40.7843C132.455 40.7287 132.559 40.6487 132.646 40.5582C132.924 40.2591 133 39.8104 132.806 39.4209C132.65 39.1079 132.355 38.9061 132.032 38.8505L132.025 38.847Z" fill="#C0C109"/>
<path d="M131.956 38.9583C131.827 38.9374 131.692 38.9514 131.567 39.0105C131.512 39.0383 131.463 39.0696 131.418 39.1079C131.362 39.1566 131.317 39.2122 131.283 39.2748C131.21 39.4035 131.185 39.56 131.22 39.7096C131.231 39.7618 131.248 39.8139 131.276 39.8626C131.296 39.9044 131.321 39.9426 131.349 39.9774C131.369 40.0052 131.397 40.033 131.421 40.0574C131.512 40.1409 131.623 40.193 131.741 40.2174C131.872 40.2452 132.015 40.2278 132.146 40.1687C132.223 40.1339 132.289 40.0852 132.341 40.0261C132.514 39.8383 132.563 39.5565 132.441 39.3131C132.344 39.1183 132.16 38.9896 131.956 38.9583Z" fill="#C6C709"/>
<path d="M131.3 36.8958C131.05 36.8541 130.787 36.8854 130.547 37.0001C130.44 37.0523 130.343 37.1149 130.256 37.1914C130.148 37.2853 130.062 37.3966 129.992 37.5184C129.853 37.7723 129.805 38.0714 129.867 38.367C129.888 38.4679 129.923 38.5688 129.971 38.6662C130.013 38.7461 130.058 38.8227 130.114 38.8888C130.159 38.9444 130.204 38.9966 130.256 39.0418C130.433 39.2018 130.648 39.3096 130.877 39.3548C131.137 39.407 131.411 39.3792 131.668 39.2574C131.817 39.1879 131.942 39.0905 132.046 38.9792C132.383 38.614 132.476 38.0644 132.24 37.5879C132.049 37.2053 131.692 36.9584 131.297 36.8923L131.3 36.8958Z" fill="#B4B508"/>
<path d="M131.262 37.0349C131.057 37.0001 130.842 37.0245 130.644 37.1219C130.554 37.1636 130.478 37.2158 130.405 37.2784C130.318 37.3549 130.246 37.4488 130.19 37.5462C130.076 37.7549 130.037 38.0018 130.089 38.2418C130.107 38.3253 130.134 38.4088 130.176 38.4888C130.211 38.5549 130.249 38.6175 130.294 38.6731C130.329 38.7183 130.37 38.7601 130.412 38.7983C130.554 38.9305 130.731 39.0174 130.922 39.0522C131.134 39.094 131.363 39.0696 131.571 38.9722C131.692 38.9166 131.796 38.8366 131.883 38.7461C132.161 38.447 132.237 37.9984 132.043 37.6088C131.886 37.2958 131.592 37.094 131.269 37.0384L131.262 37.0349Z" fill="#C0C109"/>
<path d="M131.189 37.1462C131.061 37.1253 130.925 37.1393 130.801 37.1984C130.745 37.2262 130.696 37.2575 130.651 37.2958C130.596 37.3445 130.551 37.4001 130.516 37.4627C130.443 37.5914 130.419 37.7479 130.454 37.8975C130.464 37.9497 130.481 38.0018 130.509 38.0505C130.53 38.0923 130.554 38.1305 130.582 38.1653C130.603 38.1931 130.631 38.2209 130.655 38.2453C130.745 38.3288 130.856 38.3809 130.974 38.4053C131.106 38.4331 131.248 38.4157 131.38 38.3566C131.456 38.3218 131.522 38.2731 131.574 38.214C131.748 38.0262 131.796 37.7444 131.675 37.501C131.578 37.3062 131.394 37.1775 131.189 37.1462Z" fill="#C6C709"/>
<g style="mix-blend-mode:multiply">
<path d="M71.6556 64.5363L74.4484 66.1189L76.4849 64.9537L73.7095 63.3433L71.6556 64.5363Z" fill="#C7C7C7"/>
</g>
<path d="M70.3442 62.3521L73.137 63.9381L75.1735 62.7729L72.3981 61.1626L70.3442 62.3521Z" fill="#E1E1E1"/>
<path d="M70.9722 62.3173L73.1925 63.5764L74.5456 62.8008L72.3425 61.5243L70.9722 62.3173Z" fill="#8C6237"/>
<path d="M70.3442 65.2841L73.137 66.8667V63.9381L70.3442 62.3521V65.2841Z" fill="#CFCFCF"/>
<path d="M73.1301 66.8667L75.1701 65.6911V62.7625L73.1301 63.9381V66.8667Z" fill="#C2C2C2"/>
<path d="M72.0477 60.5261C71.8187 60.4878 71.5794 60.5156 71.3573 60.6235C71.2567 60.6687 71.17 60.7313 71.0902 60.7974C70.993 60.8843 70.9098 60.9852 70.8508 61.0965C70.7224 61.3295 70.6808 61.6043 70.7363 61.8721C70.7571 61.966 70.7884 62.0564 70.8335 62.1469C70.8716 62.2199 70.9133 62.2895 70.9618 62.3521C71.0035 62.4042 71.0451 62.4495 71.0937 62.4912C71.2532 62.6373 71.451 62.7347 71.6626 62.7764C71.8985 62.8216 72.1518 62.7973 72.3877 62.686C72.523 62.6234 72.641 62.5329 72.7346 62.4321C73.0434 62.0982 73.1301 61.5938 72.9116 61.1591C72.7381 60.8078 72.4085 60.5852 72.0477 60.5226V60.5261Z" fill="#B4B508"/>
<path d="M72.013 60.6548C71.8256 60.6235 71.6279 60.6478 71.4475 60.7348C71.3677 60.773 71.2948 60.8217 71.2289 60.8774C71.1491 60.9469 71.0832 61.0304 71.0312 61.1243C70.9271 61.3156 70.8889 61.5417 70.9375 61.7608C70.9549 61.8373 70.9791 61.9138 71.0173 61.9869C71.0485 62.046 71.0832 62.1017 71.1248 62.1538C71.1561 62.1956 71.1942 62.2338 71.2324 62.2686C71.3642 62.3869 71.5273 62.4669 71.6973 62.5016C71.8916 62.5399 72.0997 62.519 72.2905 62.4286C72.4016 62.3764 72.4952 62.3034 72.575 62.2199C72.8283 61.9451 72.8977 61.5347 72.7207 61.1765C72.5785 60.8913 72.3079 60.7035 72.013 60.6548Z" fill="#C0C109"/>
<path d="M71.9471 60.7591C71.8292 60.7382 71.7077 60.7556 71.5932 60.8078C71.5412 60.8321 71.4961 60.8634 71.4579 60.8982C71.4059 60.9434 71.3643 60.9956 71.333 61.0513C71.2671 61.1695 71.2463 61.3121 71.2741 61.4512C71.2845 61.4999 71.3018 61.5452 71.3226 61.5904C71.34 61.6286 71.3643 61.6634 71.3885 61.6947C71.4094 61.7225 71.4302 61.7434 71.4545 61.7677C71.5377 61.8443 71.6383 61.893 71.7459 61.9138C71.8673 61.9382 71.9992 61.9243 72.1171 61.8686C72.1865 61.8373 72.2455 61.7921 72.294 61.7364C72.4536 61.566 72.4953 61.3052 72.3842 61.0826C72.294 60.9017 72.1275 60.7869 71.9402 60.7556L71.9471 60.7591Z" fill="#C6C709"/>
<path d="M73.6401 61.4512C73.4112 61.413 73.1718 61.4408 72.9497 61.5451C72.8491 61.5904 72.7624 61.653 72.6826 61.7191C72.5855 61.806 72.5022 61.9069 72.4432 62.0182C72.3148 62.2512 72.2732 62.526 72.3287 62.7938C72.3495 62.8877 72.3808 62.9781 72.4259 63.0686C72.464 63.1416 72.5057 63.2112 72.5542 63.2738C72.5959 63.3259 72.6375 63.3712 72.6861 63.4129C72.8457 63.559 73.0434 63.6564 73.255 63.6981C73.4909 63.7468 73.7442 63.719 73.9801 63.6077C74.1154 63.5451 74.2334 63.4546 74.327 63.3538C74.6358 63.0199 74.7226 62.5155 74.504 62.0808C74.3305 61.7295 74.0009 61.5034 73.6401 61.4443V61.4512Z" fill="#B4B508"/>
<path d="M73.602 61.5799C73.4146 61.5486 73.2169 61.573 73.0365 61.6599C72.9567 61.6982 72.8838 61.7469 72.8179 61.8025C72.7381 61.8721 72.6722 61.9556 72.6202 62.0495C72.5161 62.2408 72.4779 62.4669 72.5265 62.686C72.5438 62.7625 72.5681 62.839 72.6063 62.9121C72.6375 62.9712 72.6722 63.0268 72.7138 63.079C72.7451 63.1207 72.7832 63.159 72.8214 63.1938C72.9532 63.312 73.1163 63.392 73.2863 63.4268C73.4806 63.4651 73.6887 63.4442 73.8795 63.3538C73.9905 63.3016 74.0842 63.2286 74.164 63.1451C74.4173 62.8703 74.4867 62.4599 74.3097 62.1017C74.1675 61.8164 73.8969 61.6286 73.602 61.5799Z" fill="#C0C109"/>
<path d="M73.536 61.6808C73.418 61.6599 73.2966 61.6773 73.1821 61.7295C73.1301 61.7538 73.085 61.7851 73.0468 61.8199C72.9948 61.8651 72.9531 61.9173 72.9219 61.973C72.856 62.0912 72.8352 62.2338 72.8629 62.3729C72.8733 62.4216 72.8907 62.4668 72.9115 62.5121C72.9288 62.5503 72.9531 62.5851 72.9774 62.6164C72.9982 62.6442 73.019 62.6651 73.0433 62.6894C73.1266 62.766 73.2272 62.8147 73.3348 62.8355C73.4562 62.8599 73.588 62.846 73.706 62.7903C73.7754 62.759 73.8343 62.7138 73.8829 62.6581C74.0425 62.4877 74.0841 62.2269 73.9731 62.0043C73.8829 61.8234 73.7164 61.7086 73.529 61.6773L73.536 61.6808Z" fill="#C6C709"/>
<path d="M72.9393 59.7922C72.7103 59.7539 72.471 59.7818 72.2489 59.8861C72.1483 59.9348 72.0616 59.9939 71.9818 60.06C71.8847 60.147 71.8014 60.2478 71.7424 60.3591C71.614 60.5921 71.5724 60.8669 71.6279 61.1347C71.6487 61.2286 71.68 61.3191 71.7251 61.4095C71.7632 61.4825 71.8049 61.5521 71.8569 61.6147C71.8985 61.6669 71.9402 61.7121 71.9887 61.7538C72.1483 61.8999 72.3461 61.9973 72.5577 62.039C72.7936 62.0843 73.0469 62.0599 73.2828 61.9486C73.4181 61.886 73.536 61.7956 73.6297 61.6947C73.9385 61.3608 74.0252 60.8565 73.8066 60.4217C73.6332 60.0704 73.3036 59.8478 72.9428 59.7852L72.9393 59.7922Z" fill="#B4B508"/>
<path d="M72.9046 59.9244C72.7173 59.8931 72.5195 59.9174 72.3391 60.0044C72.2593 60.0426 72.1864 60.0913 72.1205 60.147C72.0407 60.2165 71.9748 60.3 71.9228 60.3939C71.8187 60.5852 71.7805 60.8113 71.8291 61.0304C71.8465 61.1069 71.8707 61.1834 71.9089 61.2565C71.9401 61.3156 71.9748 61.3713 72.0164 61.4234C72.0477 61.4652 72.0858 61.5034 72.124 61.5382C72.2558 61.6565 72.4189 61.7365 72.5889 61.7712C72.7832 61.8095 72.9913 61.7886 73.1821 61.6982C73.2932 61.646 73.3868 61.573 73.4666 61.4895C73.7199 61.2147 73.7893 60.8043 73.6123 60.4461C73.4701 60.1609 73.1995 59.973 72.9046 59.9244Z" fill="#C0C109"/>
<path d="M72.8387 60.0252C72.7208 60.0043 72.5993 60.0183 72.4848 60.0739C72.4328 60.0983 72.3877 60.1296 72.3495 60.1643C72.2975 60.2096 72.2559 60.2617 72.2246 60.3174C72.1587 60.4356 72.1379 60.5782 72.1657 60.7174C72.1761 60.7661 72.1934 60.8113 72.2142 60.8565C72.2316 60.8947 72.2559 60.9295 72.2802 60.9608C72.301 60.9887 72.3218 61.0095 72.3461 61.0339C72.4293 61.1104 72.5299 61.1591 72.6375 61.1799C72.7589 61.2043 72.8907 61.1904 73.0087 61.1347C73.0781 61.1034 73.1371 61.0582 73.1856 61.0026C73.3452 60.8321 73.3869 60.5713 73.2758 60.3487C73.1856 60.1678 73.0191 60.053 72.8318 60.0217L72.8387 60.0252Z" fill="#C6C709"/>
<g style="mix-blend-mode:multiply">
<path d="M73.5153 67.6006L84.6587 73.6073L87.6111 71.9586L76.6134 65.7467L73.5153 67.6006Z" fill="#C7C7C7"/>
</g>
<path d="M75.4997 62.0425L74.0287 62.6581V63.0442L75.5344 62.3625C76.0929 62.2234 76.3288 62.3347 76.3323 62.9086L76.2803 66.1745L76.5509 66.331L76.8111 62.9642C76.8111 62.3903 76.3323 61.7782 75.5031 62.046L75.4997 62.0425Z" fill="#4A4A4A"/>
<path d="M75.694 62.0773L74.223 62.6929V63.079L75.7287 62.3973C76.2873 62.2582 76.5232 62.3695 76.5266 62.9434L76.5717 65.312L76.5475 66.3276L76.8111 66.1537L77.0019 62.999C77.0019 62.4251 76.5232 61.813 75.694 62.0808V62.0773Z" fill="#3D3D3D"/>
<path d="M76.7416 63.1764L74.1396 63.8616V64.352L84.7904 70.4491L87.3924 69.277V68.7866L76.7416 63.1764Z" fill="#B16D2E"/>
<path d="M76.7416 62.686L74.1396 63.8616L84.7904 69.9622L87.3924 68.7866L76.7416 62.686Z" fill="#FF9C43"/>
<path d="M84.6205 70.5152L87.3821 69.3257L87.3925 68.797L84.6621 69.9657L84.6205 70.5152Z" fill="#6C391A"/>
<path d="M84.5442 67.291L84.5511 69.7465V70.0387L84.5581 73.6142L84.8391 73.482L84.8252 67.1588L84.5442 67.291Z" fill="#3D3D3D"/>
<path d="M86.2962 67.8475L84.8252 68.4631V68.8492L86.3309 68.1675C86.8894 68.0284 87.1253 68.1397 87.1288 68.7135L87.0768 71.9795L87.3509 72.1256L87.6076 68.7657C87.6076 68.1918 87.1288 67.5797 86.2997 67.8475H86.2962Z" fill="#4A4A4A"/>
<path d="M86.5113 68.0701L84.7523 68.8074L84.6864 69.1657L86.5425 68.3901C87.101 68.2509 87.337 68.3622 87.3404 68.9327L87.3474 72.1221L87.611 71.9517L87.6041 68.7622C87.6041 68.1883 87.3404 67.7988 86.5113 68.0666V68.0701Z" fill="#3D3D3D"/>
<path d="M73.3279 61.0895L73.3418 67.371L73.6193 67.5275L73.6054 61.2043L73.3279 61.0895Z" fill="#474747"/>
<path d="M73.6055 61.2043L73.6124 63.9555V64.2476L73.6193 67.5275L73.9004 67.3988L73.8865 61.0756L73.6055 61.2043Z" fill="#3D3D3D"/>
<path d="M82.3064 65.4441C81.394 64.1224 79.5795 62.7138 78.1502 62.2964C76.7174 61.8791 75.6037 62.2547 75.1943 62.0912C74.785 61.9278 73.928 61.5799 73.928 61.5208L73.7511 61.6947L73.9315 63.6807C73.9315 63.7051 74.6566 64.0007 75.066 64.1677C75.4754 64.3311 76.8214 63.9033 78.223 64.4424C79.753 65.0302 80.9569 66.6789 82.0185 67.7988C83.0801 68.9188 84.447 69.5483 84.447 69.5483L84.4852 67.0858C84.4852 67.0858 83.1911 66.731 82.3064 65.4511V65.4441ZM75.7841 63.8477C75.5829 63.8616 75.4094 63.872 75.2845 63.8651C75.1978 63.8616 75.1666 63.8511 75.1666 63.8511C74.7433 63.6807 74.4276 63.5486 74.2472 63.472V62.0634C74.4519 62.1538 74.726 62.2651 75.0868 62.4112C75.1805 62.4495 75.288 62.4703 75.4303 62.4773C75.4719 62.4773 75.517 62.4773 75.5656 62.4773L75.8327 63.8477C75.8327 63.8477 75.798 63.8477 75.7806 63.8477H75.7841ZM76.8388 63.8233C76.5959 63.8129 76.3635 63.8164 76.1553 63.8233L75.8847 62.4599C75.916 62.4599 75.9437 62.4599 75.9749 62.4564C76.2559 62.439 76.5717 62.4216 76.9325 62.439C76.9706 62.439 77.0088 62.446 77.0504 62.446L77.1927 63.8511C77.0782 63.8372 76.9602 63.8303 76.8423 63.8233H76.8388ZM78.5145 64.2024C78.452 64.1746 78.3861 64.1468 78.3202 64.1224C78.0635 64.0251 77.7998 63.952 77.5188 63.8998L77.3731 62.4773C77.6159 62.5086 77.8484 62.5573 78.0808 62.6234C78.23 62.6651 78.3826 62.7208 78.5388 62.7868L78.5145 64.2024ZM79.7704 64.9989C79.472 64.7555 79.1598 64.5363 78.8336 64.3589L78.8545 62.9329C79.243 63.1242 79.6455 63.3677 80.0375 63.6494L79.7704 64.9989ZM80.0548 65.2389L80.322 63.8581C80.7105 64.1607 81.0818 64.4946 81.4079 64.8424L80.7973 65.9658C80.5614 65.7154 80.3116 65.4685 80.0548 65.2389ZM81.9248 67.211C81.8103 67.0858 81.6958 66.9571 81.5779 66.8214C81.394 66.6162 81.2067 66.4041 81.0158 66.1954L81.616 65.0685C81.7791 65.2563 81.9248 65.4441 82.0566 65.6319C82.2128 65.858 82.3828 66.0563 82.5597 66.2337L81.9283 67.211H81.9248ZM84.2597 69.0648C83.7531 68.7831 82.9031 68.251 82.2405 67.5553C82.2058 67.5171 82.1711 67.4788 82.133 67.444L82.7644 66.4389C83.3368 66.9467 83.9266 67.218 84.2527 67.3466V69.0648H84.2597Z" fill="#707070"/>
<path d="M82.1295 65.6215C81.2171 64.2998 79.4061 62.8912 77.9698 62.4738C76.537 62.0564 75.4234 62.4321 75.014 62.2686C74.6046 62.1051 73.7477 61.7573 73.7477 61.6982V63.8581C73.7511 63.8825 74.4797 64.1816 74.8891 64.345C75.2985 64.5085 76.6446 64.0807 78.0462 64.6198C79.5761 65.2076 80.78 66.8562 81.8416 67.9762C82.9032 69.0961 84.4019 69.7883 84.4019 69.7883L84.395 67.2875C84.395 67.2875 83.0107 66.9049 82.1261 65.625L82.1295 65.6215ZM75.6072 64.0216C75.406 64.0355 75.2325 64.0459 75.1077 64.039C75.0209 64.0355 74.9897 64.0251 74.9897 64.0251C74.5664 63.8546 74.2507 63.7225 74.0738 63.6459V62.2373C74.2785 62.3277 74.5526 62.439 74.9134 62.5851C75.007 62.6234 75.1146 62.6442 75.2568 62.6512C75.2985 62.6512 75.347 62.6512 75.3921 62.6512L75.6593 64.0216C75.6593 64.0216 75.6246 64.0216 75.6072 64.0216ZM76.6619 64.0007C76.4191 63.9903 76.1866 63.9937 75.9785 64.0007L75.7078 62.6373C75.7391 62.6373 75.7668 62.6338 75.8015 62.6303C76.0791 62.6129 76.3982 62.5956 76.7556 62.6129C76.7937 62.6129 76.8319 62.6199 76.8735 62.6234L77.0158 64.0285C76.9013 64.0146 76.7833 64.0077 76.6654 64.0007H76.6619ZM78.3376 64.3763C78.2751 64.3485 78.2092 64.3207 78.1433 64.2963C77.8866 64.199 77.6229 64.1259 77.3419 64.0737L77.1927 62.6512C77.4356 62.6825 77.6715 62.7312 77.9004 62.7973C78.0496 62.839 78.2023 62.8947 78.3584 62.9608L78.3376 64.3763ZM79.5935 65.1728C79.2951 64.9294 78.9829 64.7102 78.6568 64.5329L78.6776 63.1034C79.0661 63.2947 79.4686 63.5381 79.8606 63.8198L79.5935 65.1693V65.1728ZM79.8745 65.4163L80.1416 64.0355C80.5302 64.3381 80.9014 64.672 81.2275 65.0198L80.6169 66.1397C80.3775 65.8893 80.1312 65.6424 79.8745 65.4128V65.4163ZM81.7444 67.3884C81.63 67.2632 81.5155 67.1345 81.3975 66.9988C81.2136 66.7936 81.0263 66.5815 80.8355 66.3728L81.4357 65.2459C81.5987 65.4337 81.7445 65.6215 81.8763 65.8093C82.0324 66.0354 82.2024 66.2337 82.3793 66.411L81.7479 67.3884H81.7444ZM82.0636 67.7327C82.0289 67.6945 81.9942 67.6562 81.9595 67.6179L82.591 66.6128C83.1634 67.1206 83.7532 67.3919 84.0793 67.5171V69.2387C83.5762 68.957 82.7263 68.4249 82.0671 67.7292L82.0636 67.7327Z" fill="#3D3D3D"/>
<path d="M84.2666 67.1727L84.2805 73.4577L84.558 73.6142L84.5442 67.291L84.2666 67.1727Z" fill="#474747"/>
<path d="M84.2666 67.1727L84.5442 67.291L84.8252 67.1588L84.5442 67.0545L84.2666 67.1727Z" fill="#8C8C8C"/>
<path d="M73.3279 61.0895L73.6054 61.2043L73.8864 61.0756L73.6054 60.9678L73.3279 61.0895Z" fill="#8C8C8C"/>
<path d="M74.0738 63.6459L74.2472 63.472L74.2542 62.3069L74.0703 62.2373L74.0738 63.6459Z" fill="#333333"/>
<path d="M75.7043 62.6373L75.9784 64.0007L76.1519 63.8268L75.909 62.6199L75.7043 62.6373Z" fill="#333333"/>
<path d="M77.1927 62.6547L77.3385 64.0772L77.5154 63.8998L77.3905 62.6686L77.1927 62.6547Z" fill="#333333"/>
<path d="M78.6533 64.5363L78.8303 64.3589L78.8511 63.1903L78.6776 63.1068L78.6533 64.5363Z" fill="#333333"/>
<path d="M79.8745 65.4163L80.0514 65.2424L80.2804 64.1398L80.1417 64.0355L79.8745 65.4163Z" fill="#333333"/>
<path d="M80.8354 66.3762L81.0124 66.2023L81.4877 65.3154L81.4322 65.2493L80.8354 66.3762Z" fill="#333333"/>
<path d="M81.9561 67.6214L82.133 67.4475L82.6326 66.6649L82.5909 66.6197L81.9561 67.6214Z" fill="#333333"/>
<g style="mix-blend-mode:multiply">
<path d="M86.8894 73.1968L89.6787 74.7794L91.7152 73.6142L88.9398 72.0073L86.8894 73.1968Z" fill="#C7C7C7"/>
</g>
<path d="M85.578 71.0126L88.3673 72.5986L90.4038 71.4334L87.6284 69.8231L85.578 71.0126Z" fill="#E1E1E1"/>
<path d="M86.2059 70.9813L88.4228 72.2369L89.7793 71.4613L87.5728 70.1848L86.2059 70.9813Z" fill="#8C6237"/>
<path d="M85.578 73.9446L88.3673 75.5306V72.5986L85.578 71.0126V73.9446Z" fill="#CFCFCF"/>
<path d="M88.3639 75.5272L90.4038 74.3516V71.423L88.3639 72.5986V75.5272Z" fill="#C2C2C2"/>
<path d="M87.2779 69.1866C87.049 69.1483 86.8096 69.1761 86.5875 69.2805C86.4869 69.3257 86.4002 69.3883 86.3204 69.4544C86.2233 69.5413 86.14 69.6422 86.081 69.7535C85.9527 69.9865 85.911 70.2613 85.9665 70.5291C85.9874 70.623 86.0186 70.7135 86.0637 70.8039C86.1018 70.8769 86.1435 70.9465 86.192 71.0091C86.2337 71.0613 86.2753 71.1065 86.3239 71.1482C86.4835 71.2943 86.6812 71.3917 86.8928 71.4334C87.1288 71.4786 87.382 71.4543 87.6179 71.343C87.7532 71.2804 87.8712 71.19 87.9649 71.0891C88.2736 70.7552 88.3604 70.2509 88.1418 69.8161C87.9683 69.4648 87.6388 69.2387 87.2779 69.1796V69.1866Z" fill="#B4B508"/>
<path d="M87.2432 69.3153C87.0559 69.284 86.8581 69.3083 86.6777 69.3953C86.5979 69.4335 86.5251 69.4822 86.4592 69.5379C86.3794 69.6074 86.3134 69.6909 86.2614 69.7848C86.1573 69.9761 86.1192 70.2022 86.1677 70.4213C86.1851 70.4978 86.2094 70.5743 86.2475 70.6474C86.2788 70.7065 86.3134 70.7622 86.3551 70.8143C86.3863 70.8561 86.4245 70.8943 86.4626 70.9291C86.5945 71.0474 86.7575 71.1274 86.9275 71.1621C87.1218 71.2004 87.33 71.1795 87.5208 71.0891C87.6318 71.0369 87.7255 70.9639 87.8052 70.8804C88.0585 70.6056 88.1279 70.1952 87.951 69.837C87.8087 69.5518 87.5381 69.3639 87.2432 69.3153Z" fill="#C0C109"/>
<path d="M87.1773 69.4196C87.0594 69.3987 86.9379 69.4161 86.8235 69.4683C86.7714 69.4926 86.7263 69.524 86.6882 69.5587C86.6361 69.6039 86.5945 69.6561 86.5633 69.7118C86.4973 69.83 86.4765 69.9726 86.5043 70.1118C86.5147 70.1604 86.532 70.2057 86.5529 70.2509C86.5702 70.2891 86.5945 70.3239 86.6188 70.3552C86.6396 70.383 86.6604 70.4039 86.6847 70.4283C86.768 70.5048 86.8686 70.5535 86.9761 70.5743C87.0975 70.5987 87.2294 70.5848 87.3473 70.5291C87.4167 70.4978 87.4757 70.4526 87.5243 70.397C87.6839 70.2265 87.7255 69.9657 87.6145 69.7431C87.5243 69.5622 87.3577 69.4474 87.1704 69.4161L87.1773 69.4196Z" fill="#C6C709"/>
<path d="M88.8704 70.1118C88.6414 70.0735 88.402 70.1013 88.18 70.2057C88.0793 70.2544 87.9926 70.3135 87.9128 70.3796C87.8157 70.4665 87.7324 70.5674 87.6734 70.6787C87.5451 70.9117 87.5034 71.1865 87.559 71.4543C87.5798 71.5482 87.611 71.6386 87.6561 71.7291C87.6943 71.8021 87.7359 71.8717 87.7845 71.9343C87.8261 71.9865 87.8677 72.0317 87.9163 72.0734C88.0759 72.2195 88.2736 72.3169 88.4853 72.3586C88.7212 72.4073 88.9744 72.3795 89.2103 72.2682C89.3456 72.2056 89.4636 72.1151 89.5573 72.0143C89.866 71.6804 89.9528 71.1761 89.7342 70.7413C89.5607 70.39 89.2312 70.1674 88.8704 70.1048V70.1118Z" fill="#B4B508"/>
<path d="M88.8356 70.2404C88.6483 70.2091 88.4505 70.2335 88.2701 70.3204C88.1903 70.3587 88.1175 70.4074 88.0516 70.463C87.9718 70.5326 87.9058 70.6161 87.8538 70.71C87.7497 70.9013 87.7116 71.1274 87.7601 71.3465C87.7775 71.423 87.8018 71.4995 87.8399 71.5726C87.8712 71.6317 87.9059 71.6873 87.9475 71.7395C87.9787 71.7812 88.0169 71.8195 88.055 71.8543C88.1869 71.9725 88.3499 72.0525 88.5199 72.0873C88.7142 72.1256 88.9224 72.1047 89.1132 72.0143C89.2242 71.9621 89.3179 71.8891 89.3977 71.8056C89.6509 71.5308 89.7203 71.1204 89.5434 70.7622C89.4011 70.477 89.1305 70.2891 88.8356 70.2404Z" fill="#C0C109"/>
<path d="M88.7697 70.3448C88.6518 70.3239 88.5304 70.3413 88.4159 70.3935C88.3638 70.4178 88.3187 70.4491 88.2806 70.4839C88.2285 70.5291 88.1869 70.5813 88.1557 70.637C88.0898 70.7552 88.0689 70.8978 88.0967 71.0369C88.1071 71.0856 88.1245 71.1308 88.1453 71.1761C88.1626 71.2143 88.1869 71.2491 88.2112 71.2804C88.232 71.3082 88.2528 71.3291 88.2771 71.3534C88.3604 71.43 88.461 71.4787 88.5685 71.4995C88.69 71.5239 88.8218 71.51 88.9397 71.4543C89.0091 71.423 89.0681 71.3778 89.1167 71.3221C89.2763 71.1517 89.3179 70.8909 89.2069 70.6683C89.1167 70.4874 88.9501 70.3726 88.7628 70.3413L88.7697 70.3448Z" fill="#C6C709"/>
<path d="M88.1695 68.4527C87.9406 68.4144 87.7012 68.4423 87.4792 68.5501C87.3785 68.5953 87.2918 68.6579 87.212 68.724C87.1149 68.8109 87.0316 68.9118 86.9726 69.0231C86.8443 69.2561 86.8026 69.5309 86.8581 69.7987C86.879 69.8926 86.9102 69.9831 86.9553 70.0735C86.9934 70.1465 87.0351 70.2161 87.0836 70.2787C87.1253 70.3309 87.1669 70.3761 87.2155 70.4178C87.3751 70.5639 87.5728 70.6613 87.7845 70.703C88.0204 70.7482 88.2736 70.7239 88.5095 70.6126C88.6448 70.55 88.7628 70.4596 88.8565 70.3587C89.1652 70.0248 89.252 69.5205 89.0334 69.0857C88.8599 68.7344 88.5304 68.5083 88.1695 68.4492V68.4527Z" fill="#B4B508"/>
<path d="M88.1348 68.5849C87.9475 68.5536 87.7497 68.5779 87.5693 68.6649C87.4895 68.7031 87.4167 68.7518 87.3508 68.8075C87.271 68.877 87.205 68.9605 87.153 69.0544C87.0489 69.2457 87.0108 69.4718 87.0593 69.6909C87.0767 69.7674 87.101 69.8405 87.1391 69.917C87.1703 69.9761 87.205 70.0318 87.2467 70.0839C87.2779 70.1257 87.3161 70.1639 87.3542 70.1987C87.4861 70.317 87.6491 70.397 87.8191 70.4317C88.0134 70.47 88.2216 70.4491 88.4124 70.3587C88.5234 70.3065 88.6171 70.2335 88.6969 70.15C88.9501 69.8752 89.0195 69.4648 88.8426 69.1066C88.7003 68.8214 88.4297 68.6336 88.1348 68.5849Z" fill="#C0C109"/>
<path d="M88.0689 68.6857C87.951 68.6648 87.8295 68.6822 87.7151 68.7344C87.663 68.7588 87.6179 68.7901 87.5798 68.8248C87.5277 68.8701 87.4861 68.9222 87.4549 68.9779C87.3889 69.0961 87.3681 69.2387 87.3959 69.3779C87.4063 69.4266 87.4236 69.4718 87.4445 69.517C87.4618 69.5552 87.4861 69.59 87.5104 69.6213C87.5312 69.6492 87.552 69.67 87.5763 69.6944C87.6596 69.7709 87.7602 69.8196 87.8677 69.8405C87.9891 69.8648 88.121 69.8509 88.2389 69.7952C88.3083 69.7639 88.3673 69.7187 88.4159 69.6631C88.5755 69.4926 88.6171 69.2318 88.5061 69.0092C88.4159 68.8283 88.2493 68.7135 88.062 68.6822L88.0689 68.6857Z" fill="#C6C709"/>
<g style="mix-blend-mode:multiply">
<path d="M37.0181 39.56L39.8109 41.1426L41.8473 39.9774L39.0719 38.3705L37.0181 39.56Z" fill="#C7C7C7"/>
</g>
<path d="M35.7067 37.3793L38.4995 38.9618L40.536 37.7966L37.757 36.1897L35.7067 37.3793Z" fill="#E1E1E1"/>
<path d="M36.3346 37.3445L38.555 38.6036L39.908 37.8279L37.705 36.5515L36.3346 37.3445Z" fill="#8C6237"/>
<path d="M35.7067 40.3113L38.496 41.8938V38.9618L35.7067 37.3793V40.3113Z" fill="#CFCFCF"/>
<path d="M38.4926 41.8938L40.5325 40.7182V37.7862L38.4926 38.9618V41.8938Z" fill="#C2C2C2"/>
<path d="M37.4101 35.5532C37.1812 35.515 36.9418 35.5428 36.7198 35.6506C36.6191 35.6958 36.5324 35.7585 36.4526 35.8245C36.3555 35.9115 36.2722 36.0124 36.2132 36.1237C36.0849 36.3567 36.0432 36.6315 36.0987 36.8993C36.1196 36.9932 36.1508 37.0836 36.1959 37.174C36.234 37.2471 36.2757 37.3166 36.3243 37.3793C36.3659 37.4314 36.4075 37.4766 36.4561 37.5184C36.6157 37.6645 36.8134 37.7618 37.0251 37.8036C37.261 37.8488 37.5142 37.8245 37.7501 37.7132C37.8854 37.6505 38.0034 37.5601 38.0971 37.4592C38.4058 37.1254 38.4926 36.621 38.274 36.1863C38.1005 35.835 37.771 35.6124 37.4101 35.5498V35.5532Z" fill="#B4B508"/>
<path d="M37.3754 35.6819C37.1881 35.6506 36.9903 35.675 36.8099 35.7619C36.7301 35.8002 36.6573 35.8489 36.5914 35.9045C36.5116 35.9741 36.4456 36.0576 36.3936 36.1515C36.2895 36.3428 36.2514 36.5689 36.2999 36.788C36.3173 36.8645 36.3416 36.941 36.3797 37.0141C36.411 37.0732 36.4456 37.1288 36.4873 37.181C36.5185 37.2227 36.5567 37.261 36.5948 37.2958C36.7267 37.414 36.8897 37.494 37.0597 37.5288C37.254 37.5671 37.4622 37.5462 37.653 37.4558C37.764 37.4036 37.8577 37.3306 37.9374 37.2471C38.1907 36.9723 38.2601 36.5619 38.0832 36.2037C37.9409 35.9185 37.6703 35.7306 37.3754 35.6819Z" fill="#C0C109"/>
<path d="M37.3095 35.7828C37.1916 35.7619 37.0702 35.7793 36.9557 35.8315C36.9036 35.8559 36.8585 35.8872 36.8204 35.9219C36.7683 35.9671 36.7267 36.0193 36.6955 36.075C36.6295 36.1932 36.6087 36.3358 36.6365 36.475C36.6469 36.5236 36.6642 36.5689 36.6851 36.6141C36.7024 36.6523 36.7267 36.6871 36.751 36.7184C36.7718 36.7462 36.7926 36.7671 36.8169 36.7915C36.9002 36.868 37.0008 36.9167 37.1083 36.9375C37.2297 36.9619 37.3616 36.948 37.4795 36.8923C37.5489 36.861 37.6079 36.8158 37.6565 36.7602C37.8161 36.5897 37.8577 36.3289 37.7467 36.1063C37.6565 35.9254 37.4899 35.8106 37.3026 35.7793L37.3095 35.7828Z" fill="#C6C709"/>
<path d="M38.999 36.4784C38.77 36.4402 38.5307 36.468 38.3086 36.5723C38.208 36.6176 38.1213 36.6802 38.0415 36.7463C37.9443 36.8332 37.8611 36.9341 37.8021 37.0454C37.6737 37.2784 37.6321 37.5532 37.6876 37.821C37.7084 37.9149 37.7397 38.0053 37.7848 38.0958C37.8229 38.1688 37.8646 38.2384 37.9131 38.301C37.9548 38.3531 37.9964 38.3984 38.045 38.4401C38.2045 38.5862 38.4023 38.6836 38.6139 38.7253C38.8498 38.774 39.1031 38.7462 39.339 38.6349C39.4743 38.5723 39.5923 38.4818 39.6859 38.381C39.9947 38.0471 40.0814 37.5427 39.8629 37.108C39.6894 36.7567 39.3598 36.5306 38.999 36.4715V36.4784Z" fill="#B4B508"/>
<path d="M38.9643 36.6071C38.7769 36.5758 38.5792 36.6002 38.3988 36.6871C38.319 36.7254 38.2461 36.7741 38.1802 36.8297C38.1004 36.8993 38.0345 36.9828 37.9825 37.0767C37.8784 37.268 37.8402 37.494 37.8888 37.7132C37.9061 37.7897 37.9304 37.8662 37.9686 37.9392C37.9998 37.9984 38.0345 38.054 38.0761 38.1062C38.1074 38.1479 38.1455 38.1862 38.1837 38.221C38.3155 38.3392 38.4786 38.4192 38.6486 38.454C38.8429 38.4923 39.051 38.4714 39.2418 38.381C39.3529 38.3288 39.4465 38.2557 39.5263 38.1723C39.7796 37.8975 39.849 37.4871 39.672 37.1288C39.5298 36.8436 39.2592 36.6558 38.9643 36.6071Z" fill="#C0C109"/>
<path d="M38.8984 36.708C38.7804 36.6871 38.659 36.7045 38.5445 36.7567C38.4925 36.781 38.4474 36.8123 38.4092 36.8471C38.3572 36.8923 38.3156 36.9445 38.2843 37.0002C38.2184 37.1184 38.1976 37.261 38.2254 37.4001C38.2358 37.4488 38.2531 37.494 38.2739 37.5393C38.2913 37.5775 38.3156 37.6123 38.3398 37.6436C38.3607 37.6714 38.3815 37.6923 38.4058 37.7166C38.489 37.7932 38.5896 37.8419 38.6972 37.8627C38.8186 37.8871 38.9504 37.8732 39.0684 37.8175C39.1378 37.7862 39.1968 37.741 39.2453 37.6853C39.4049 37.5149 39.4466 37.2541 39.3355 37.0315C39.2453 36.8506 39.0788 36.7358 38.8915 36.7045L38.8984 36.708Z" fill="#C6C709"/>
<path d="M38.3017 34.8194C38.0728 34.7811 37.8334 34.8089 37.6114 34.9133C37.5107 34.962 37.424 35.0211 37.3442 35.0872C37.2471 35.1741 37.1638 35.275 37.1048 35.3863C36.9765 35.6193 36.9348 35.8941 36.9903 36.1619C37.0112 36.2558 37.0424 36.3463 37.0875 36.4367C37.1256 36.5097 37.1673 36.5793 37.2193 36.6419C37.261 36.6941 37.3026 36.7393 37.3512 36.781C37.5107 36.9271 37.7085 37.0245 37.9201 37.0662C38.156 37.1115 38.4093 37.0871 38.6452 36.9758C38.7805 36.9132 38.8985 36.8228 38.9921 36.7219C39.3009 36.388 39.3876 35.8837 39.1691 35.4489C38.9956 35.0976 38.666 34.875 38.3052 34.8124L38.3017 34.8194Z" fill="#B4B508"/>
<path d="M38.267 34.9481C38.0797 34.9168 37.8819 34.9411 37.7015 35.0281C37.6217 35.0663 37.5489 35.115 37.483 35.1707C37.4032 35.2402 37.3372 35.3237 37.2852 35.4176C37.1811 35.6089 37.143 35.835 37.1915 36.0541C37.2089 36.1306 37.2332 36.2071 37.2713 36.2802C37.3026 36.3393 37.3372 36.395 37.3789 36.4471C37.4101 36.4889 37.4483 36.5271 37.4864 36.5619C37.6183 36.6802 37.7813 36.7602 37.9513 36.7949C38.1456 36.8332 38.3538 36.8123 38.5446 36.7219C38.6556 36.6697 38.7493 36.5967 38.8291 36.5132C39.0823 36.2384 39.1517 35.828 38.9748 35.4698C38.8325 35.1846 38.5619 34.9968 38.267 34.9481Z" fill="#C0C109"/>
<path d="M38.2011 35.0524C38.0832 35.0315 37.9618 35.0455 37.8473 35.1011C37.7952 35.1254 37.7501 35.1568 37.712 35.1915C37.6599 35.2367 37.6183 35.2889 37.5871 35.3446C37.5212 35.4628 37.5003 35.6054 37.5281 35.7446C37.5385 35.7932 37.5558 35.8385 37.5767 35.8837C37.594 35.9219 37.6183 35.9567 37.6426 35.988C37.6634 36.0158 37.6842 36.0367 37.7085 36.0611C37.7918 36.1376 37.8924 36.1863 37.9999 36.2071C38.1213 36.2315 38.2532 36.2176 38.3711 36.1619C38.4405 36.1306 38.4995 36.0854 38.5481 36.0298C38.7077 35.8593 38.7493 35.5985 38.6383 35.3759C38.5481 35.195 38.3815 35.0802 38.1942 35.0489L38.2011 35.0524Z" fill="#C6C709"/>
<g style="mix-blend-mode:multiply">
<path d="M38.8777 42.6277L50.0211 48.6344L52.9735 46.9858L41.9758 40.7704L38.8777 42.6277Z" fill="#C7C7C7"/>
</g>
<path d="M40.8621 37.0697L39.3911 37.6853V38.0714L40.8968 37.3897C41.4554 37.2506 41.6913 37.3619 41.6947 37.9357L41.6427 41.2017L41.9133 41.3582L42.1735 37.9914C42.1735 37.4175 41.6947 36.8054 40.8656 37.0732L40.8621 37.0697Z" fill="#4A4A4A"/>
<path d="M41.0563 37.101L39.5853 37.7166V38.1027L41.091 37.421C41.6496 37.2819 41.8855 37.3932 41.889 37.9671L41.9341 40.3356L41.9098 41.3513L42.1734 41.1774L42.3643 38.0227C42.3643 37.4488 41.8855 36.8367 41.0563 37.1045V37.101Z" fill="#3D3D3D"/>
<path d="M42.1041 38.2001L39.5021 38.8888V39.3757L50.1529 45.4763L52.7549 44.3007V43.8138L42.1041 38.2001Z" fill="#B16D2E"/>
<path d="M42.1041 37.7132L39.5021 38.8888L50.1529 44.9859L52.7549 43.8138L42.1041 37.7132Z" fill="#FF9C43"/>
<path d="M49.9829 45.5424L52.7445 44.3494L52.7549 43.8242L50.0245 44.9894L49.9829 45.5424Z" fill="#6C391A"/>
<path d="M49.9066 42.3182L49.9136 44.7737V45.0659L49.9205 48.6379L50.2015 48.5092L50.1876 42.186L49.9066 42.3182Z" fill="#3D3D3D"/>
<path d="M51.6586 42.8747L50.1876 43.4903V43.8764L51.6933 43.1947C52.2519 43.0555 52.4878 43.1668 52.4912 43.7407L52.4392 47.0067L52.7133 47.1527L52.97 43.7929C52.97 43.219 52.4912 42.6069 51.6621 42.8747H51.6586Z" fill="#4A4A4A"/>
<path d="M51.8737 43.0973L50.1147 43.8346L50.0488 44.1929L51.9049 43.4172C52.4635 43.2781 52.6994 43.3894 52.7029 43.9598L52.7098 47.1493L52.9735 46.9788L52.9665 43.7894C52.9665 43.2155 52.7029 42.826 51.8737 43.0938V43.0973Z" fill="#3D3D3D"/>
<path d="M38.6903 36.1132L38.7042 42.3982L38.9817 42.5547L38.9679 36.2315L38.6903 36.1132Z" fill="#474747"/>
<path d="M38.9679 36.2315L38.9748 38.9827V39.2748L38.9818 42.5547L39.2628 42.4225L39.2489 36.0993L38.9679 36.2315Z" fill="#3D3D3D"/>
<path d="M47.6689 40.4713C46.7564 39.1496 44.942 37.741 43.5126 37.3236C42.0798 36.9062 40.9661 37.2819 40.5568 37.1184C40.1474 36.9549 39.2905 36.6071 39.2905 36.548L39.1135 36.7219L39.2939 38.7079C39.2939 38.7322 40.019 39.0279 40.4284 39.1948C40.8378 39.3583 42.1839 38.9305 43.5855 39.4696C45.1154 40.0574 46.3193 41.706 47.3809 42.826C48.4425 43.9459 49.8094 44.5755 49.8094 44.5755L49.8476 42.113C49.8476 42.113 48.5535 41.7582 47.6689 40.4783V40.4713ZM41.1465 38.8748C40.9453 38.8888 40.7719 38.8992 40.647 38.8922C40.5602 38.8888 40.529 38.8783 40.529 38.8783C40.1057 38.7079 39.79 38.5757 39.6096 38.4992V37.0906C39.8143 37.181 40.0884 37.2923 40.4492 37.4384C40.5429 37.4766 40.6504 37.4975 40.7927 37.5045C40.8343 37.5045 40.8794 37.5045 40.928 37.5045L41.1951 38.8748C41.1951 38.8748 41.1604 38.8748 41.1431 38.8748H41.1465ZM42.2012 38.8505C41.9584 38.8401 41.7259 38.8435 41.5178 38.8505L41.2472 37.4871C41.2784 37.4871 41.3061 37.4871 41.3374 37.4836C41.6184 37.4662 41.9341 37.4488 42.2949 37.4662C42.333 37.4662 42.3712 37.4732 42.4128 37.4732L42.5551 38.8783C42.4406 38.8644 42.3226 38.8575 42.2047 38.8505H42.2012ZM43.8769 39.2296C43.8144 39.2018 43.7485 39.174 43.6826 39.1496C43.4259 39.0522 43.1622 38.9792 42.8812 38.927L42.7355 37.5045C42.9783 37.5358 43.2108 37.5845 43.4432 37.6505C43.5924 37.6923 43.7451 37.7479 43.9012 37.814L43.8769 39.2296ZM45.1328 40.0261C44.8344 39.7826 44.5222 39.5635 44.1961 39.3861L44.2169 37.9601C44.6055 38.1514 45.0079 38.3949 45.3999 38.6766L45.1328 40.0261ZM45.4173 40.2661L45.6844 38.8853C46.073 39.1879 46.4442 39.5218 46.7703 39.8696L46.1597 40.993C45.9238 40.7426 45.674 40.4956 45.4173 40.2661ZM47.2872 42.2382C47.1727 42.113 47.0583 41.9843 46.9403 41.8486C46.7564 41.6434 46.5691 41.4313 46.3783 41.2226L46.9785 40.0957C47.1415 40.2835 47.2872 40.4713 47.4191 40.6591C47.5752 40.8852 47.7452 41.0834 47.9221 41.2608L47.2907 42.2382H47.2872ZM49.6221 44.092C49.1156 43.8103 48.2656 43.2781 47.6029 42.5825C47.5682 42.5443 47.5335 42.506 47.4954 42.4712L48.1268 41.466C48.6992 41.9738 49.289 42.2451 49.6151 42.3738V44.092H49.6221Z" fill="#707070"/>
<path d="M47.492 40.6487C46.5795 39.327 44.7686 37.9184 43.3323 37.501C41.8994 37.0836 40.7858 37.4593 40.3764 37.2958C39.967 37.1323 39.1101 36.7845 39.1101 36.7254V38.8853C39.1136 38.9096 39.8421 39.2087 40.2515 39.3722C40.6609 39.5357 42.007 39.1079 43.4086 39.647C44.9386 40.2348 46.1424 41.8834 47.204 43.0034C48.2656 44.1233 49.7644 44.8155 49.7644 44.8155L49.7574 42.3147C49.7574 42.3147 48.3732 41.9321 47.4885 40.6522L47.492 40.6487ZM40.9697 39.0487C40.7684 39.0627 40.595 39.0731 40.4701 39.0661C40.3833 39.0627 40.3521 39.0522 40.3521 39.0522C39.9289 38.8818 39.6132 38.7496 39.4362 38.6731V37.2645C39.6409 37.3549 39.915 37.4662 40.2758 37.6123C40.3695 37.6505 40.477 37.6714 40.6193 37.6784C40.6609 37.6784 40.7095 37.6784 40.7546 37.6784L41.0217 39.0487C41.0217 39.0487 40.987 39.0487 40.9697 39.0487ZM42.0243 39.0279C41.7815 39.0174 41.549 39.0209 41.3409 39.0279L41.0703 37.6645C41.1015 37.6645 41.1292 37.661 41.1639 37.6575C41.4415 37.6401 41.7607 37.6227 42.118 37.6401C42.1562 37.6401 42.1943 37.6471 42.236 37.6505L42.3782 39.0557C42.2637 39.0418 42.1458 39.0348 42.0278 39.0279H42.0243ZM43.7 39.4035C43.6376 39.3757 43.5716 39.3479 43.5057 39.3235C43.249 39.2261 42.9853 39.1531 42.7043 39.1009L42.5551 37.6784C42.798 37.7097 43.0339 37.7584 43.2629 37.8245C43.4121 37.8662 43.5647 37.9218 43.7208 37.9879L43.7 39.4035ZM44.9559 40.2C44.6575 39.9565 44.3453 39.7374 44.0192 39.56L44.04 38.1305C44.4286 38.3218 44.831 38.5653 45.223 38.847L44.9559 40.1965V40.2ZM45.2369 40.4435L45.504 39.0627C45.8926 39.3653 46.2638 39.6992 46.5899 40.047L45.9793 41.1669C45.74 40.9165 45.4936 40.6695 45.2369 40.44V40.4435ZM47.1069 42.4156C46.9924 42.2903 46.8779 42.1617 46.7599 42.026C46.5761 41.8208 46.3887 41.6086 46.1979 41.4L46.7981 40.273C46.9612 40.4609 47.1069 40.6487 47.2387 40.8365C47.3948 41.0626 47.5648 41.2608 47.7418 41.4382L47.1103 42.4156H47.1069ZM47.4261 42.7599C47.3914 42.7216 47.3567 42.6834 47.322 42.6451L47.9534 41.6399C48.5258 42.1477 49.1156 42.419 49.4417 42.5443V44.2659C48.9387 43.9842 48.0887 43.452 47.4295 42.7564L47.4261 42.7599Z" fill="#3D3D3D"/>
<path d="M49.629 42.1999L49.6429 48.4814L49.9205 48.6379L49.9066 42.3182L49.629 42.1999Z" fill="#474747"/>
<path d="M49.629 42.1999L49.9066 42.3182L50.1876 42.186L49.9066 42.0816L49.629 42.1999Z" fill="#8C8C8C"/>
<path d="M38.6903 36.1132L38.9679 36.2315L39.2489 36.0993L38.9679 35.995L38.6903 36.1132Z" fill="#8C8C8C"/>
<path d="M39.4327 38.6731L39.6097 38.4957L39.6166 37.334L39.4327 37.261V38.6731Z" fill="#333333"/>
<path d="M41.0668 37.6645L41.3374 39.0279L41.5143 38.854L41.2715 37.6436L41.0668 37.6645Z" fill="#333333"/>
<path d="M42.5552 37.6784L42.7009 39.1009L42.8778 38.927L42.7529 37.6958L42.5552 37.6784Z" fill="#333333"/>
<path d="M44.0157 39.56L44.1927 39.3861L44.2135 38.2175L44.0366 38.134L44.0157 39.56Z" fill="#333333"/>
<path d="M45.2369 40.4435L45.4139 40.2661L45.6394 39.167L45.5041 39.0627L45.2369 40.4435Z" fill="#333333"/>
<path d="M46.1979 41.4034L46.3748 41.2295L46.8466 40.3426L46.7946 40.2765L46.1979 41.4034Z" fill="#333333"/>
<path d="M47.3185 42.6486L47.4954 42.4747L47.995 41.6886L47.9534 41.6434L47.3185 42.6486Z" fill="#333333"/>
<g style="mix-blend-mode:multiply">
<path d="M52.2517 48.2205L55.041 49.8065L57.0775 48.6414L54.3021 47.031L52.2517 48.2205Z" fill="#C7C7C7"/>
</g>
<path d="M50.9369 46.0397L53.7297 47.6223L55.7662 46.4571L52.9907 44.8502L50.9369 46.0397Z" fill="#E1E1E1"/>
<path d="M51.5684 46.005L53.7853 47.264L55.1417 46.4884L52.9353 45.212L51.5684 46.005Z" fill="#8C6237"/>
<path d="M50.9369 48.9718L53.7297 50.5543V47.6223L50.9369 46.0397V48.9718Z" fill="#CFCFCF"/>
<path d="M53.7262 50.5543L55.7661 49.3787V46.4502L53.7262 47.6223V50.5543Z" fill="#C2C2C2"/>
<path d="M52.6404 44.2137C52.4114 44.1755 52.172 44.2033 51.95 44.3077C51.8494 44.3529 51.7626 44.4155 51.6828 44.4816C51.5857 44.5685 51.5024 44.6694 51.4435 44.7807C51.3151 45.0137 51.2735 45.2885 51.329 45.5563C51.3498 45.6502 51.381 45.7406 51.4261 45.8311C51.4643 45.9041 51.5059 45.9737 51.5545 46.0363C51.5961 46.0884 51.6377 46.1337 51.6863 46.1754C51.8459 46.3215 52.0436 46.4189 52.2553 46.4606C52.4912 46.5058 52.7444 46.4815 52.9804 46.3702C53.1157 46.3076 53.2336 46.2171 53.3273 46.1163C53.6361 45.7824 53.7228 45.278 53.5042 44.8433C53.3308 44.492 53.0012 44.2659 52.6404 44.2068V44.2137Z" fill="#B4B508"/>
<path d="M52.6056 44.3424C52.4183 44.3111 52.2206 44.3355 52.0401 44.4224C51.9604 44.4607 51.8875 44.5094 51.8216 44.565C51.7418 44.6346 51.6759 44.7181 51.6238 44.812C51.5197 45.0033 51.4816 45.2293 51.5302 45.4485C51.5475 45.525 51.5718 45.6015 51.61 45.6745C51.6412 45.7337 51.6759 45.7893 51.7175 45.8415C51.7487 45.8832 51.7869 45.9215 51.825 45.9563C51.9569 46.0745 52.1199 46.1545 52.2899 46.1893C52.4842 46.2276 52.6924 46.2067 52.8832 46.1163C52.9942 46.0641 53.0879 45.9911 53.1677 45.9076C53.4209 45.6328 53.4903 45.2224 53.3134 44.8641C53.1711 44.5789 52.9005 44.3911 52.6056 44.3424Z" fill="#C0C109"/>
<path d="M52.5398 44.4433C52.4218 44.4224 52.3004 44.4398 52.1859 44.492C52.1338 44.5163 52.0887 44.5476 52.0506 44.5824C51.9985 44.6276 51.9569 44.6798 51.9257 44.7355C51.8598 44.8537 51.839 44.9963 51.8667 45.1354C51.8771 45.1841 51.8945 45.2294 51.9153 45.2746C51.9326 45.3128 51.9569 45.3476 51.9812 45.3789C52.002 45.4067 52.0228 45.4276 52.0471 45.452C52.1304 45.5285 52.231 45.5772 52.3385 45.598C52.46 45.6224 52.5918 45.6085 52.7098 45.5528C52.7791 45.5215 52.8381 45.4763 52.8867 45.4206C53.0463 45.2502 53.0879 44.9894 52.9769 44.7668C52.8867 44.5859 52.7202 44.4711 52.5328 44.4398L52.5398 44.4433Z" fill="#C6C709"/>
<path d="M54.2328 45.1389C54.0038 45.1007 53.7644 45.1285 53.5424 45.2328C53.4418 45.2815 53.355 45.3406 53.2752 45.4067C53.1781 45.4937 53.0948 45.5945 53.0359 45.7058C52.9075 45.9389 52.8659 46.2136 52.9214 46.4815C52.9422 46.5754 52.9734 46.6658 53.0185 46.7562C53.0567 46.8293 53.0983 46.8988 53.1469 46.9614C53.1885 47.0136 53.2301 47.0588 53.2787 47.1006C53.4383 47.2466 53.6361 47.344 53.8477 47.3858C54.0836 47.4345 54.3369 47.4066 54.5728 47.2953C54.7081 47.2327 54.826 47.1423 54.9197 47.0414C55.2285 46.7075 55.3152 46.2032 55.0966 45.7684C54.9232 45.4172 54.5936 45.1946 54.2328 45.132V45.1389Z" fill="#B4B508"/>
<path d="M54.1981 45.2676C54.0107 45.2363 53.813 45.2606 53.6326 45.3476C53.5528 45.3859 53.4799 45.4346 53.414 45.4902C53.3342 45.5598 53.2683 45.6432 53.2162 45.7371C53.1122 45.9284 53.074 46.1545 53.1226 46.3736C53.1399 46.4502 53.1642 46.5267 53.2024 46.5997C53.2336 46.6588 53.2683 46.7145 53.3099 46.7667C53.3411 46.8084 53.3793 46.8467 53.4175 46.8814C53.5493 46.9997 53.7123 47.0797 53.8823 47.1145C54.0766 47.1527 54.2848 47.1319 54.4756 47.0414C54.5866 46.9893 54.6803 46.9162 54.7601 46.8328C55.0133 46.558 55.0827 46.1476 54.9058 45.7893C54.7636 45.5041 54.4929 45.3163 54.1981 45.2676Z" fill="#C0C109"/>
<path d="M54.1322 45.3685C54.0142 45.3476 53.8928 45.365 53.7783 45.4172C53.7263 45.4415 53.6812 45.4728 53.643 45.5076C53.591 45.5528 53.5493 45.605 53.5181 45.6606C53.4522 45.7789 53.4314 45.9215 53.4591 46.0606C53.4695 46.1093 53.4869 46.1545 53.5077 46.1997C53.525 46.238 53.5493 46.2728 53.5736 46.3041C53.5944 46.3319 53.6152 46.3528 53.6395 46.3771C53.7228 46.4536 53.8234 46.5023 53.9309 46.5232C54.0524 46.5475 54.1842 46.5336 54.3022 46.478C54.3715 46.4467 54.4305 46.4015 54.4791 46.3458C54.6387 46.1754 54.6803 45.9145 54.5693 45.6919C54.4791 45.5111 54.3126 45.3963 54.1252 45.365L54.1322 45.3685Z" fill="#C6C709"/>
<path d="M53.532 43.4799C53.303 43.4416 53.0636 43.4694 52.8416 43.5772C52.741 43.6225 52.6542 43.6851 52.5744 43.7511C52.4773 43.8381 52.394 43.939 52.3351 44.0503C52.2067 44.2833 52.1651 44.5581 52.2206 44.8259C52.2414 44.9198 52.2726 45.0102 52.3177 45.1007C52.3559 45.1737 52.3975 45.2433 52.4461 45.3059C52.4877 45.358 52.5293 45.4032 52.5779 45.445C52.7375 45.5911 52.9352 45.6885 53.1469 45.7302C53.3828 45.7754 53.6361 45.7511 53.872 45.6398C54.0073 45.5772 54.1252 45.4867 54.2189 45.3859C54.5277 45.052 54.6144 44.5476 54.3958 44.1129C54.2224 43.7616 53.8928 43.5355 53.532 43.4764V43.4799Z" fill="#B4B508"/>
<path d="M53.4972 43.6085C53.3099 43.5772 53.1122 43.6016 52.9317 43.6885C52.852 43.7268 52.7791 43.7755 52.7132 43.8311C52.6334 43.9007 52.5675 43.9842 52.5154 44.0781C52.4114 44.2694 52.3732 44.4955 52.4218 44.7146C52.4391 44.7911 52.4634 44.8641 52.5016 44.9407C52.5328 44.9998 52.5675 45.0554 52.6091 45.1076C52.6403 45.1493 52.6785 45.1876 52.7167 45.2224C52.8485 45.3406 53.0115 45.4206 53.1815 45.4554C53.3758 45.4937 53.584 45.4728 53.7748 45.3824C53.8858 45.3302 53.9795 45.2572 54.0593 45.1737C54.3125 44.8989 54.3819 44.4885 54.205 44.1303C54.0627 43.8451 53.7921 43.6572 53.4972 43.6085Z" fill="#C0C109"/>
<path d="M53.4314 43.7129C53.3134 43.692 53.192 43.7094 53.0775 43.7616C53.0255 43.7859 52.9804 43.8172 52.9422 43.852C52.8901 43.8972 52.8485 43.9494 52.8173 44.0051C52.7514 44.1233 52.7306 44.2659 52.7583 44.405C52.7687 44.4537 52.7861 44.4989 52.8069 44.5442C52.8242 44.5824 52.8485 44.6172 52.8728 44.6485C52.8936 44.6763 52.9144 44.6972 52.9387 44.7215C53.022 44.7981 53.1226 44.8468 53.2301 44.8676C53.3516 44.892 53.4834 44.8781 53.6014 44.8224C53.6707 44.7911 53.7297 44.7459 53.7783 44.6902C53.9379 44.5198 53.9795 44.259 53.8685 44.0364C53.7783 43.8555 53.6118 43.7407 53.4244 43.7094L53.4314 43.7129Z" fill="#C6C709"/>
<path opacity="0.5" d="M32.3484 44.0016C29.5313 42.3703 24.983 42.3703 22.1867 44.0016C19.6437 45.4833 19.4217 47.8032 21.5241 49.4379C21.5033 49.4483 17.3262 51.883 17.3054 51.8969C17.3887 52.5369 18.2838 52.8116 18.9325 52.8395C19.3974 52.5682 22.7592 50.61 23.172 50.37C25.9822 51.5178 29.8851 51.3613 32.3865 49.9039C35.1828 48.2727 35.1654 45.6328 32.3518 44.0016H32.3484Z" fill="#486E54"/>
<path d="M17.2604 52.596C17.2604 52.5577 17.2604 42.6729 17.2604 42.6729C17.2604 41.9078 17.6975 41.2887 18.2387 41.2887H18.5752C19.1165 41.2887 19.5536 41.9078 19.5536 42.6729V52.596C18.8875 53.1873 17.9091 53.1699 17.2604 52.596Z" fill="#8C5455"/>
<path d="M19.5501 41.9391V47.0519C18.8701 47.6014 17.9542 47.6153 17.2534 47.1458V41.9425C17.2534 41.1773 17.6906 40.5582 18.2318 40.5582H18.5683C19.1095 40.5582 19.5466 41.1773 19.5466 41.9425L19.5501 41.9391Z" fill="#4A2B2E"/>
<path d="M25.5 39.4661C25.5 43.4451 22.2804 46.6693 18.315 46.6693C16.1155 46.6693 14.1449 45.678 12.837 44.1198C12.83 44.1129 12.8231 44.1059 12.8196 44.1059C11.758 42.8538 11.1266 41.233 11.1266 39.4626C11.1266 35.4837 14.3461 32.2595 18.3185 32.2595C20.0739 32.2595 21.6768 32.889 22.9257 33.9324C24.5043 35.2576 25.5034 37.2436 25.5034 39.4626L25.5 39.4661Z" fill="url(#paint0_radial_187_5223)"/>
<path opacity="0.5" d="M25.4999 39.4626C25.4999 43.4416 22.2839 46.6693 18.3184 46.6693C16.1154 46.6693 14.1483 45.6815 12.8369 44.1233C14.0824 45.1494 15.6783 45.765 17.4129 45.765C21.3784 45.765 24.5944 42.5408 24.5944 38.5549C24.5944 36.8054 23.9699 35.1915 22.9257 33.9359C24.5042 35.2611 25.5034 37.2471 25.5034 39.4626H25.4999Z" fill="#729046"/>
</g>
<defs>
<filter id="filter0_di_187_5223" x="0" y="0" width="170" height="106.152" filterUnits="userSpaceOnUse" color-interpolation-filters="sRGB">
<feFlood flood-opacity="0" result="BackgroundImageFix"/>
<feColorMatrix in="SourceAlpha" type="matrix" values="0 0 0 0 0 0 0 0 0 0 0 0 0 0 0 0 0 0 127 0" result="hardAlpha"/>
<feOffset dx="4" dy="4"/>
<feGaussianBlur stdDeviation="2"/>
<feComposite in2="hardAlpha" operator="out"/>
<feColorMatrix type="matrix" values="0 0 0 0 0 0 0 0 0 0 0 0 0 0 0 0 0 0 0.25 0"/>
<feBlend mode="normal" in2="BackgroundImageFix" result="effect1_dropShadow_187_5223"/>
<feBlend mode="normal" in="SourceGraphic" in2="effect1_dropShadow_187_5223" result="shape"/>
<feColorMatrix in="SourceAlpha" type="matrix" values="0 0 0 0 0 0 0 0 0 0 0 0 0 0 0 0 0 0 127 0" result="hardAlpha"/>
<feOffset dx="166" dy="4"/>
<feGaussianBlur stdDeviation="2"/>
<feComposite in2="hardAlpha" operator="arithmetic" k2="-1" k3="1"/>
<feColorMatrix type="matrix" values="0 0 0 0 0 0 0 0 0 0 0 0 0 0 0 0 0 0 0.5 0"/>
<feBlend mode="normal" in2="shape" result="effect2_innerShadow_187_5223"/>
</filter>
<radialGradient id="paint0_radial_187_5223" cx="0" cy="0" r="1" gradientUnits="userSpaceOnUse" gradientTransform="translate(15.6436 37.2958) scale(34.7382 34.8263)">
<stop stop-color="#D7E472"/>
<stop offset="1" stop-color="#729046"/>
</radialGradient>
</defs>
</svg>
