<svg width="115" height="139" viewBox="0 0 115 139" fill="none" xmlns="http://www.w3.org/2000/svg">
<path opacity="0.2" d="M21.8203 85.4512C16.8296 88.3239 8.73367 88.3239 3.74296 85.4512C0.559617 83.6201 -0.593229 81.0625 0.284422 78.705C0.303016 78.6531 0.325329 78.5975 0.347642 78.5456L0.366237 78.4974C0.901752 77.2334 2.02857 76.0325 3.74296 75.0465C8.73367 72.1738 16.8296 72.1738 21.8203 75.0465C23.438 75.9769 24.5314 77.0963 25.1004 78.2824C25.2157 78.5234 25.3086 78.768 25.383 79.0127C26.0487 81.2849 24.8624 83.7016 21.8203 85.4512Z" fill="#9D9D9C"/>
<path opacity="0.5" d="M21.8203 85.4512C16.8296 88.3239 8.73367 88.3239 3.74296 85.4512C0.559617 83.6201 -0.593229 81.0625 0.284422 78.705C0.284422 78.7013 0.347642 78.5456 0.347642 78.5456L0.366237 78.4974L9.28034 55.4417V46.3121C9.97949 43.7693 15.7586 43.5432 16.2867 46.3121V55.4417L25.1004 78.2824L25.383 79.0127C26.0487 81.2849 24.8624 83.7017 21.8203 85.4512Z" fill="#DADADA"/>
<path d="M24.7025 79.2425L20.0725 67.2513H5.47967L1.0282 78.7643L1.01332 78.8014L0.927787 79.0201C0.19889 81.0996 1.37777 83.268 4.09997 84.8322C6.40567 86.1592 9.4886 86.8894 12.7798 86.8894C16.071 86.8894 19.1539 86.1592 21.4596 84.8322C24.1037 83.3087 25.2826 81.2738 24.7025 79.2388V79.2425Z" fill="#3480A7"/>
<path d="M15.4351 44.5774C14.721 44.1659 13.7764 43.9398 12.7798 43.9398C11.7831 43.9398 10.8385 44.1659 10.1245 44.5774C9.34729 45.0259 8.91962 45.6412 8.91962 46.3121C8.91962 46.6717 9.04234 47.0127 9.27663 47.324C9.47745 47.5946 9.7638 47.8393 10.1245 48.0468C10.8385 48.4583 11.7831 48.6881 12.7798 48.6881C13.7764 48.6881 14.721 48.4583 15.4351 48.0468C15.7958 47.8393 16.0821 47.5946 16.283 47.324C16.5172 47.0127 16.64 46.6717 16.64 46.3121C16.64 45.6412 16.2123 45.0259 15.4388 44.5774H15.4351ZM12.7798 47.9727C11.9059 47.9727 11.0914 47.78 10.4815 47.4278C9.93487 47.1128 9.63364 46.7161 9.63364 46.3121C9.63364 45.9081 9.93487 45.5115 10.4815 45.1964C11.0914 44.848 11.9059 44.6552 12.7798 44.6552C13.6537 44.6552 14.4682 44.848 15.078 45.1964C15.6247 45.5115 15.9222 45.9081 15.9222 46.3121C15.9222 46.7161 15.621 47.1165 15.078 47.4278C14.4682 47.7763 13.6537 47.9727 12.7798 47.9727Z" fill="#C6C6C6"/>
<path d="M18.0085 70.9098C15.1227 72.5704 10.4406 72.5704 7.5548 70.9098C5.71396 69.8497 5.04829 68.3707 5.55405 67.0067C5.56521 66.977 5.57637 66.9436 5.59124 66.914L5.6024 66.8843C5.91106 66.1541 6.56558 65.461 7.5548 64.8901C10.4406 63.2295 15.1227 63.2295 18.0085 64.8901C18.9457 65.4276 19.5779 66.0763 19.9051 66.762C19.9721 66.9029 20.0279 67.0437 20.0688 67.1846C20.4555 68.5005 19.7675 69.8942 18.0085 70.9098Z" fill="#48B6EC"/>
<path opacity="0.5" d="M10.5299 48.766V55.6715L1.53396 78.9422L1.51165 78.9979L1.43356 79.198C0.790192 81.0402 1.85751 82.9195 4.37145 84.3652C4.56855 84.4801 4.77681 84.5913 4.98507 84.6951L12.1253 56.1423V49.1478C11.6009 49.1552 10.8609 49.018 10.5336 48.766H10.5299Z" fill="white"/>
<path opacity="0.5" d="M31.0729 70.7838V59.0113C30.5411 56.2164 24.7099 56.4463 24.007 59.0113V70.9024C24.007 71.325 23.7504 71.7142 23.3525 71.8624C18.9419 73.5342 15.8404 77.8451 15.9892 82.8602C16.1677 88.7724 20.9464 93.6171 26.8706 93.8877C33.4269 94.1879 38.8378 88.98 38.8378 82.5118C38.8378 77.8117 35.9818 73.7788 31.9022 72.0404C31.3964 71.8254 31.0691 71.3324 31.0691 70.7838H31.0729Z" fill="#DADADA"/>
<path d="M37.9379 82.5118C37.9379 85.3141 36.8445 87.9495 34.8549 89.9289C33.8583 90.9223 32.7017 91.6896 31.441 92.2086C30.1803 92.7275 28.8155 93.0018 27.4098 93.0018C27.2424 93.0018 27.0751 93.0018 26.9115 92.9907C21.4559 92.7423 17.0528 88.2794 16.8891 82.8306C16.7701 78.9274 18.8341 75.3282 22.1439 73.423C22.1625 73.4118 22.1811 73.397 22.2034 73.3896C22.5976 73.1672 23.0067 72.9707 23.4306 72.7965C24.5946 72.348 25.9669 72.1108 27.3949 72.1108C29.1502 72.1108 30.8163 72.4703 32.1216 73.1301C35.6768 74.8982 37.9379 78.516 37.9379 82.5118Z" fill="#EA4A49"/>
<path d="M30.2175 57.2617C29.4961 56.8466 28.544 56.6168 27.5399 56.6168C26.5359 56.6168 25.5838 56.8466 24.8624 57.2617C24.0814 57.7139 23.6463 58.333 23.6463 59.0113C23.6463 59.3746 23.769 59.7193 24.007 60.0306C24.2116 60.3049 24.4979 60.5496 24.8624 60.7571C25.5838 61.1723 26.5359 61.4021 27.5399 61.4021C28.544 61.4021 29.4961 61.1723 30.2175 60.7571C30.582 60.5496 30.8683 60.3012 31.0729 60.0306C31.3072 59.7193 31.4299 59.3746 31.4299 59.0113C31.4299 58.3367 30.9985 57.7139 30.2175 57.2617ZM27.5399 60.683C26.6586 60.683 25.8367 60.4866 25.2231 60.1344C24.6727 59.8194 24.3678 59.419 24.3678 59.0076C24.3678 58.5961 24.6727 58.1995 25.2231 57.8807C25.8367 57.5286 26.6586 57.3359 27.5399 57.3359C28.4213 57.3359 29.2432 57.5286 29.8568 57.8807C30.4072 58.1995 30.7084 58.5998 30.7084 59.0076C30.7084 59.4153 30.4072 59.8194 29.8568 60.1344C29.2432 60.4866 28.4213 60.683 27.5399 60.683Z" fill="#C6C6C6"/>
<path d="M30.2175 57.2617C29.4961 56.8466 28.544 56.6168 27.5399 56.6168C26.5359 56.6168 25.5838 56.8466 24.8624 57.2617C24.0814 57.7139 23.6463 58.333 23.6463 59.0113C23.6463 59.3746 23.769 59.7193 24.007 60.0306C24.2116 60.3049 24.4979 60.5496 24.8624 60.7571C25.5838 61.1723 26.5359 61.4021 27.5399 61.4021C28.544 61.4021 29.4961 61.1723 30.2175 60.7571C30.582 60.5496 30.8683 60.3012 31.0729 60.0306C31.3072 59.7193 31.4299 59.3746 31.4299 59.0113C31.4299 58.3367 30.9985 57.7139 30.2175 57.2617ZM27.5399 60.683C26.6586 60.683 25.8367 60.4866 25.2231 60.1344C24.6727 59.8194 24.3678 59.419 24.3678 59.0076C24.3678 58.5961 24.6727 58.1995 25.2231 57.8807C25.8367 57.5286 26.6586 57.3359 27.5399 57.3359C28.4213 57.3359 29.2432 57.5286 29.8568 57.8807C30.4072 58.1995 30.7084 58.5998 30.7084 59.0076C30.7084 59.4153 30.4072 59.8194 29.8568 60.1344C29.2432 60.4866 28.4213 60.683 27.5399 60.683Z" fill="#C6C6C6"/>
<path d="M34.6355 76.4106C34.6355 77.0629 34.405 77.682 33.9699 78.2454C33.5905 78.7347 33.0587 79.1795 32.3782 79.5539C31.0357 80.2989 29.2655 80.7141 27.3949 80.7141C25.5243 80.7141 23.7541 80.3026 22.4116 79.5539C21.7348 79.1795 21.203 78.7347 20.82 78.2454C20.3811 77.682 20.1506 77.0629 20.1506 76.4106C20.1506 75.2689 20.8572 74.2162 22.1476 73.423C22.1662 73.4118 22.1848 73.397 22.2071 73.3896C22.274 73.3451 22.3447 73.3081 22.4154 73.2673C22.7315 73.0931 23.0736 72.9337 23.4343 72.7965C24.5983 72.348 25.9706 72.1108 27.3986 72.1108C29.1539 72.1108 30.82 72.4703 32.1253 73.1301C32.2108 73.1746 32.2964 73.2191 32.3819 73.2673C33.836 74.0791 34.6393 75.1948 34.6393 76.4106H34.6355Z" fill="#FF5F5E"/>
<path opacity="0.5" d="M27.4135 61.8803V72.4963C27.4135 73.6417 26.7367 74.6684 25.6954 75.1466C17.5027 78.92 18.9903 90.8 27.4135 92.6422C27.1569 92.6422 26.8966 92.6348 26.6363 92.6126C21.6009 92.2382 17.5623 88.1497 17.2647 83.1271C16.9858 78.4122 19.92 74.2199 24.3826 72.8336C24.9144 72.6668 25.2677 72.1849 25.2677 71.6437V61.2909C25.7921 61.669 26.5916 61.8654 27.4135 61.8766V61.8803Z" fill="white"/>
<path opacity="0.4" d="M34.8587 101.857L66.971 120.335C67.4136 120.587 68.1276 120.587 68.5664 120.335L110.839 96.0116C111.281 95.7596 111.281 95.3481 110.839 95.0924L78.7263 76.6144C78.2838 76.3624 77.5698 76.3624 77.1309 76.6144L34.8587 100.938C34.4161 101.19 34.4161 101.601 34.8587 101.857Z" fill="#E76871"/>
<path d="M36.0747 97.3609L42.4786 94.6142L37.6738 90.0142L36.0747 90.9297V97.3609Z" fill="#8E2D59"/>
<path d="M104.468 92.2604L69.0313 112.651L67.54 113.511C67.0677 113.782 66.4541 113.919 65.8405 113.919V115.783C66.4169 115.787 66.9971 115.657 67.4396 115.405C67.659 115.279 67.8673 115.157 68.0606 115.049L68.3321 114.894C68.4586 114.823 68.5701 114.756 68.6705 114.701C68.7226 114.671 68.7635 114.645 68.8044 114.623C68.849 114.601 68.8788 114.579 68.9123 114.56C68.9532 114.538 68.9829 114.519 69.0052 114.508C69.0238 114.497 69.035 114.49 69.035 114.49L104.472 94.099C104.941 93.8284 105.324 93.1982 105.324 92.6904V91.2003C105.324 91.7674 104.74 92.1085 104.472 92.2641L104.468 92.2604Z" fill="#9B456C"/>
<path d="M65.8405 113.922C66.4541 113.922 67.0714 113.785 67.54 113.515L69.0275 112.658L104.613 92.1826C105.55 91.6414 105.55 90.7629 104.617 90.218L100.764 87.9681L78.254 74.1087C77.3169 73.5638 75.7921 73.5601 74.8513 74.0976L42.4749 92.7831V94.6179L36.6809 97.0087H36.6772C36.6809 97.031 36.6809 97.0532 36.6883 97.0717C36.6846 97.0866 36.6883 97.0977 36.6921 97.1125C36.6995 97.1607 36.7107 97.2089 36.7292 97.2608C36.7441 97.3164 36.7627 97.3757 36.7925 97.4276C36.8148 97.4832 36.8445 97.5388 36.8743 97.5907C36.904 97.6463 36.9375 97.6982 36.9747 97.7427C37.0007 97.7834 37.0305 97.8168 37.0602 97.8539L37.1272 97.9206C37.1681 97.9539 37.2015 97.991 37.2425 98.017C37.2759 98.0429 37.3168 98.0725 37.354 98.0948L62.646 112.651H62.6497L64.1372 113.507C64.6356 113.785 65.2046 113.919 65.8368 113.919L65.8405 113.922Z" fill="#9B456C"/>
<path d="M37.6738 97.0755L64.8587 112.721C65.4649 113.07 66.2161 113.07 66.8223 112.721L103.732 91.482C104.037 91.3078 104.223 90.9853 104.223 90.6332V84.9879L65.8368 107.143L37.6664 90.9334V97.0755H37.6738Z" fill="white"/>
<path d="M66.8222 112.721L103.732 91.482C104.037 91.3078 104.223 90.9853 104.223 90.6332V84.9879L65.8367 107.143V112.985C66.1752 112.985 66.5136 112.896 66.8185 112.721H66.8222Z" fill="#DAE6EA"/>
<path d="M37.2722 91.6303V96.8827C37.2759 97.2089 37.4544 97.5721 37.6738 97.6982C37.8932 97.8242 38.0718 97.6648 38.0718 97.3386V92.0862C38.0718 91.76 37.8933 91.3968 37.6701 91.267C37.447 91.1373 37.2722 91.3004 37.2722 91.6229V91.6303Z" fill="#FFDB4C"/>
<path d="M68.3321 106.628C68.6296 106.461 68.8527 106.331 68.9643 106.264L69.0275 106.227L94.8848 91.3523L104.472 85.8293C104.941 85.5587 105.324 84.9286 105.324 84.4208C105.324 84.1835 105.324 82.927 105.324 82.927C105.324 83.5126 104.725 83.8462 104.472 83.9908L93.2857 90.433L69.035 104.385L67.5474 105.238C67.0714 105.512 66.4578 105.645 65.8442 105.645V107.517C66.4206 107.521 67.0008 107.391 67.4433 107.139C67.6627 107.013 67.871 106.891 68.0644 106.783L68.3358 106.628H68.3321Z" fill="#9B456C"/>
<path d="M104.617 83.9129L99.9647 86.5892L69.0313 104.385L67.5437 105.241C67.0714 105.512 66.4541 105.645 65.8442 105.645C65.1934 105.653 64.6356 105.501 64.141 105.238L62.6571 104.385H62.6534L42.486 92.7757L37.7854 90.0698L36.7925 89.4989C36.6549 89.4248 36.5247 89.3655 36.3983 89.3284C36.3313 89.3099 36.2718 89.2914 36.2086 89.284C36.1454 89.2728 36.0822 89.2691 36.0227 89.2691C35.9818 89.2691 35.9446 89.2728 35.9037 89.2765C35.8628 89.2803 35.8293 89.2877 35.7921 89.2988C35.7661 89.3025 35.74 89.3099 35.7177 89.321C35.6954 89.3247 35.6694 89.3321 35.6471 89.347C35.621 89.3544 35.5876 89.3692 35.5615 89.3915L74.8587 66.7398C75.7959 66.1986 77.3206 66.206 78.2615 66.7509L104.624 81.941C105.558 82.4859 105.558 83.3606 104.621 83.9055L104.617 83.9129Z" fill="#E76871"/>
<g style="mix-blend-mode:multiply" opacity="0.5">
<path d="M70.2027 96.7937C79.8169 96.7937 87.6107 92.308 87.6107 86.7745C87.6107 81.2411 79.8169 76.7553 70.2027 76.7553C60.5885 76.7553 52.7947 81.2411 52.7947 86.7745C52.7947 92.308 60.5885 96.7937 70.2027 96.7937Z" fill="#C1CFF4"/>
</g>
<path d="M36.6772 92.0566V96.9198C36.6772 96.9457 36.6772 96.9754 36.6846 97.005C36.6809 97.0235 36.6846 97.0458 36.6921 97.068C36.6883 97.0829 36.6921 97.094 36.6958 97.1088C36.7032 97.157 36.7144 97.2052 36.733 97.2571C36.7478 97.3127 36.7664 97.372 36.7962 97.4239C36.8185 97.4795 36.8482 97.5351 36.878 97.587C36.9077 97.6426 36.9412 97.6945 36.9784 97.7389C37.0044 97.7797 37.0342 97.8131 37.0639 97.8501L37.1309 97.9169C37.1643 97.9576 37.2053 97.9873 37.2462 98.0132C37.2796 98.0392 37.3205 98.0688 37.3577 98.0911L62.6497 112.647L64.141 113.507C64.6133 113.778 65.2269 113.915 65.8405 113.915V115.779C65.2641 115.783 64.6839 115.653 64.2414 115.401C64.022 115.275 63.8137 115.153 63.6203 115.046L63.3488 114.89C63.2224 114.819 63.1108 114.753 63.0104 114.697C62.9584 114.667 62.9175 114.642 62.8765 114.619C62.8319 114.597 62.8022 114.575 62.7687 114.556C62.7278 114.534 62.698 114.515 62.6757 114.504C62.6571 114.493 62.646 114.486 62.646 114.486L36.7813 99.5997C35.8442 99.0585 35.0818 97.7427 35.0818 96.664V90.4775C35.0818 89.9512 35.264 89.5805 35.5541 89.3914H35.5578L35.6136 89.3618C35.6136 89.3618 35.6322 89.3544 35.6433 89.3507C35.6656 89.3395 35.6917 89.3284 35.714 89.3247C35.7363 89.3136 35.7623 89.3062 35.7884 89.3025C35.8256 89.2914 35.859 89.2839 35.8999 89.2802C35.9408 89.2765 35.978 89.2728 36.0189 89.2728C36.0784 89.2728 36.1417 89.2765 36.2049 89.2877C36.2681 89.2951 36.3276 89.3099 36.3945 89.3321C36.521 89.3729 36.6511 89.4285 36.7887 89.5026L37.7817 90.0735L42.4823 92.7794L62.6497 104.389H62.6534L64.1372 105.241H64.141C64.6133 105.516 65.2269 105.649 65.8405 105.649V107.521C65.2641 107.525 64.6839 107.395 64.2414 107.143C64.022 107.017 63.8137 106.895 63.6203 106.787L63.3488 106.631C63.0513 106.465 62.8282 106.335 62.7166 106.268L62.6534 106.231L62.646 106.227L40.8795 93.6986L37.3577 91.6711C36.9858 91.4561 36.6772 91.6303 36.6772 92.064V92.0566Z" fill="#E7478D"/>
<path d="M70.2027 90.2811C73.3184 90.2811 75.8442 87.7635 75.8442 84.658C75.8442 81.5524 73.3184 79.0349 70.2027 79.0349C67.087 79.0349 64.5612 81.5524 64.5612 84.658C64.5612 87.7635 67.087 90.2811 70.2027 90.2811Z" fill="#6F89D1"/>
<path d="M63.4381 85.0286C59.7006 82.8788 59.7006 79.3944 63.4381 77.2446C67.1755 75.0947 73.2298 75.0947 76.9673 77.2446C80.7048 79.3944 80.7048 82.8788 76.9673 85.0286C73.2298 87.1785 67.1755 87.1785 63.4381 85.0286Z" fill="#A5CBFA"/>
<path d="M70.2027 84.658C75.6475 84.658 80.0614 82.1172 80.0614 78.983C80.0614 75.8488 75.6475 73.3081 70.2027 73.3081C64.7579 73.3081 60.344 75.8488 60.344 78.983C60.344 82.1172 64.7579 84.658 70.2027 84.658Z" fill="#6F89D1"/>
<path d="M63.0141 80.9031C59.0461 78.6198 59.0461 74.9168 63.0141 72.6334C66.9822 70.3501 73.4195 70.3501 77.3875 72.6334C81.3556 74.9168 81.3556 78.6198 77.3875 80.9031C73.4195 83.1864 66.9822 83.1864 63.0141 80.9031Z" fill="#A5CBFA"/>
<path d="M70.2027 80.5139C75.9884 80.5139 80.6787 77.8155 80.6787 74.4868C80.6787 71.1581 75.9884 68.4597 70.2027 68.4597C64.4169 68.4597 59.7267 71.1581 59.7267 74.4868C59.7267 77.8155 64.4169 80.5139 70.2027 80.5139Z" fill="#6F89D1"/>
<path d="M70.2027 78.2824C76.1055 78.2824 80.8907 75.5293 80.8907 72.133C80.8907 68.7368 76.1055 65.9836 70.2027 65.9836C64.2999 65.9836 59.5147 68.7368 59.5147 72.133C59.5147 75.5293 64.2999 78.2824 70.2027 78.2824Z" fill="#A5CBFA"/>
<path d="M70.2027 10.9946C55.3607 10.9946 43.3302 22.9858 43.3302 37.7793C43.3302 59.0447 60.9316 62.5734 60.9316 71.1433C60.9316 72.5074 61.8353 73.8752 63.6463 74.9168C67.2685 76.9999 73.1369 76.9999 76.759 74.9168C78.5701 73.8752 79.4738 72.5111 79.4738 71.1433C79.4738 62.5734 97.0752 59.0409 97.0752 37.7793C97.0752 22.9858 85.0447 10.9946 70.2027 10.9946Z" fill="#FFDB4C"/>
<path d="M64.8327 74.2347C61.8687 72.5297 61.8687 69.7608 64.8327 68.0557C67.7966 66.3506 72.6051 66.3506 75.569 68.0557C78.533 69.7608 78.533 72.5297 75.569 74.2347C72.6051 75.9398 67.7966 75.9398 64.8327 74.2347Z" fill="#FDB724"/>
<path d="M71.8799 73.8085C71.8799 73.8085 71.8725 73.8085 71.8688 73.8085C71.6419 73.8011 71.4597 73.612 71.4671 73.3822C71.4671 73.3118 71.6903 66.4358 72.7948 61.8469C73.0662 60.7164 73.5274 59.723 74.1335 58.9186C73.3898 58.5443 72.6163 58.055 71.8316 57.4322C70.5746 56.4388 69.5222 55.2156 68.7598 53.8812C68.135 54.1333 67.3838 54.3038 66.5024 54.3408C65.8926 54.3668 65.305 54.3112 64.7509 54.1889C65.1451 55.3861 65.5058 56.7131 65.8107 58.1328C67.3429 65.2311 67.2499 70.5947 67.2499 70.6504C67.2462 70.8765 67.064 71.0618 66.826 71.0544C66.5991 71.0507 66.4169 70.8616 66.4206 70.6355C66.4206 70.5836 66.5136 65.309 65 58.3107C64.6319 56.5982 64.2116 55.1378 63.7802 53.9072C61.5936 53.0917 60.0354 51.3162 59.5333 49.9706C59.2246 49.1403 59.3102 48.4546 59.775 48.0876C60.0949 47.8356 60.4965 47.7763 60.913 47.9245C62.0844 48.3434 63.3563 50.3265 64.4236 53.2437C65.0633 53.4438 65.7475 53.5476 66.469 53.5143C67.2165 53.4846 67.8487 53.3474 68.3768 53.1436C68.2317 52.8396 68.1016 52.532 67.99 52.2206C67.3652 50.5007 67.3243 48.9328 67.8859 48.1358C68.321 47.5168 69.0424 47.4315 69.816 47.906C71.0543 48.6622 71.6084 49.9595 71.2626 51.2902C71.0655 52.0501 70.5039 52.8989 69.5073 53.5068C70.1469 54.63 71.0729 55.779 72.3448 56.7873C73.1704 57.4397 73.955 57.9252 74.6877 58.2774C75.357 57.6027 76.1492 57.1246 77.0268 56.8874C78.2392 56.5612 79.3734 56.7873 80.0614 57.5027C80.5709 58.0327 80.6044 58.6962 80.1469 59.2003C79.3809 60.0418 77.369 60.2975 74.8996 59.2745C74.3753 59.9194 73.8881 60.809 73.5943 62.0397C72.5121 66.5433 72.2927 73.3414 72.289 73.4081C72.2816 73.6305 72.0993 73.8085 71.8762 73.8085H71.8799ZM75.5207 58.6406C77.6181 59.4264 79.128 59.1003 79.5371 58.648C79.6077 58.5702 79.7713 58.3923 79.4664 58.0772C78.9978 57.5916 78.1462 57.4434 77.2425 57.688C76.9227 57.7733 76.2347 58.0179 75.517 58.6406H75.5207ZM60.4705 48.6733C60.3886 48.6733 60.3329 48.7029 60.292 48.7363C60.1358 48.8586 60.1432 49.233 60.3143 49.6852C60.7122 50.7453 61.839 52.0353 63.3749 52.8174C62.3262 50.219 61.2551 48.9253 60.6341 48.7029C60.5672 48.6807 60.5151 48.6696 60.4705 48.6696V48.6733ZM68.8825 48.4324C68.6929 48.4324 68.611 48.551 68.5627 48.614C68.1573 49.1959 68.2354 50.8825 69.128 52.7766C69.8866 52.2984 70.3143 51.6572 70.463 51.0827C70.7159 50.1189 70.2994 49.17 69.3846 48.6103C69.1652 48.4768 69.0015 48.4287 68.8825 48.4287V48.4324Z" fill="#EA9600"/>
<g style="mix-blend-mode:screen" opacity="0.3">
<path d="M51.8539 28.5607C47.4991 28.5681 44.2376 37.3604 47.9714 47.5909C51.7051 57.8214 57.7557 60.8016 61.9282 59.4895C66.1045 58.1773 67.0417 47.6614 63.8249 39.8587C60.1246 30.8885 55.8628 28.5533 51.8501 28.5607H51.8539Z" fill="#FFE484"/>
</g>
<path d="M108.834 96.3934L107.767 96.2266L109.645 103.143L110.712 103.31L108.834 96.3934Z" fill="#EEE8DE"/>
<path d="M106.871 89.1505L105.803 88.9837L107.581 95.5335L108.648 95.7003L106.871 89.1505Z" fill="#EEE8DE"/>
<path d="M104.907 81.9113L103.84 81.7445L105.617 88.2943L106.685 88.4611L104.907 81.9113Z" fill="#EEE8DE"/>
<path d="M108.648 95.7003L107.581 95.5335L100.839 99.4144L101.906 99.5812L108.648 95.7003Z" fill="#FFF8EF"/>
<path d="M102.944 74.6684L101.876 74.5016L103.654 81.0514L104.721 81.2182L102.944 74.6684Z" fill="#EEE8DE"/>
<path d="M106.685 88.4611L105.617 88.2943L98.8751 92.1715L99.9424 92.3383L106.685 88.4611Z" fill="#FFF8EF"/>
<path d="M100.98 67.4255L99.9127 67.2587L101.69 73.8085L102.758 73.9753L100.98 67.4255Z" fill="#EEE8DE"/>
<path d="M104.721 81.2181L103.654 81.0513L96.9116 84.9286L97.9789 85.0954L104.721 81.2181Z" fill="#FFF8EF"/>
<path d="M99.0164 60.1826L97.9491 60.0158L99.7267 66.5656L100.794 66.7324L99.0164 60.1826Z" fill="#EEE8DE"/>
<path d="M102.758 73.9753L101.69 73.8085L94.948 77.6894L96.0153 77.8562L102.758 73.9753Z" fill="#FFF8EF"/>
<path d="M97.0529 52.9434L95.9855 52.7766L97.7632 59.3264L98.8305 59.4932L97.0529 52.9434Z" fill="#EEE8DE"/>
<path d="M100.794 66.7324L99.7267 66.5656L92.9844 70.4465L94.0518 70.6133L100.794 66.7324Z" fill="#FFF8EF"/>
<path d="M95.0893 45.7005L94.022 45.5337L95.7959 52.0835L96.8669 52.2503L95.0893 45.7005Z" fill="#EEE8DE"/>
<path d="M98.8305 59.4932L97.7632 59.3264L91.0209 63.2073L92.0882 63.3741L98.8305 59.4932Z" fill="#FFF8EF"/>
<path d="M93.1258 38.4613L92.0584 38.2945L93.8361 44.8443L94.9034 45.0111L93.1258 38.4613Z" fill="#EEE8DE"/>
<path d="M96.8669 52.2503L95.7959 52.0835L89.0536 55.9644L90.1246 56.1312L96.8669 52.2503Z" fill="#FFF8EF"/>
<path d="M94.9034 45.0111L93.8361 44.8443L87.0938 48.7215L88.1611 48.892L94.9034 45.0111Z" fill="#FFF8EF"/>
<path d="M93.7319 38.1129L92.6646 37.9461L92.0584 38.2945L93.1258 38.4613L93.7319 38.1129Z" fill="#FFF8EF"/>
<path d="M86.3835 42.3422L85.3161 42.1754L84.71 42.5239L85.7773 42.6907L86.3835 42.3422Z" fill="#FFF8EF"/>
<path d="M85.7773 42.6907L103.364 107.539L103.97 107.191L102.096 100.274L108.838 96.3934L110.712 103.31L111.318 102.962L93.7319 38.1129L93.1258 38.4613L94.9034 45.0111L88.1611 48.892L86.3835 42.3422L85.7773 42.6907ZM100.128 93.0314L106.871 89.1505L108.648 95.7003L101.906 99.5812L100.128 93.0314ZM98.1648 85.7922L104.907 81.9113L106.685 88.4611L99.9424 92.342L98.1648 85.7922ZM96.2013 78.5493L102.944 74.6684L104.721 81.2182L97.9789 85.0991L96.2013 78.5493ZM94.2377 71.3101L100.98 67.4292L102.758 73.979L96.0153 77.8599L94.2377 71.3101ZM92.2741 64.0672L99.0164 60.1863L100.794 66.7361L94.0518 70.617L92.2741 64.0672ZM90.3106 56.828L97.0529 52.9471L98.8305 59.4969L92.0882 63.3778L90.3106 56.828ZM88.347 49.5851L95.0893 45.7042L96.8669 52.254L90.1246 56.1349L88.347 49.5851Z" fill="#D5CBBD"/>
<path d="M85.7773 42.6907L84.71 42.5239L102.296 107.373L103.364 107.539L85.7773 42.6907Z" fill="#EEE8DE"/>
<path d="M114.639 64.7084L110.787 64.9345C110.541 64.9494 110.359 64.7047 110.448 64.4749L114.108 57.8696C114.245 57.5174 113.955 57.3321 113.702 57.6101L103.97 68.3039C103.862 68.4226 103.963 68.6153 104.122 68.5931L108.537 68.0037C108.801 67.9666 109.002 68.2372 108.894 68.4782L106.447 73.8714C106.291 74.2198 106.499 74.483 106.763 74.2087L114.903 65.2793C115.119 65.0569 114.948 64.6862 114.639 64.7047V64.7084Z" fill="#FFD31D"/>
<g style="mix-blend-mode:screen" opacity="0.5">
<path d="M107.045 73.7974L109.492 68.4041C109.604 68.1632 109.403 67.8926 109.135 67.9296L108.592 68.0038C108.827 68.0112 108.99 68.2558 108.89 68.4819L106.443 73.8752C106.287 74.2236 106.495 74.4868 106.759 74.2125L106.997 73.953C107.005 73.9048 107.019 73.8567 107.045 73.8011V73.7974Z" fill="#FFD31D"/>
<path d="M105.777 68.0742L114.141 57.7102C114.152 57.4656 113.914 57.3729 113.702 57.6065L103.97 68.3003C103.862 68.4189 103.963 68.6117 104.122 68.5894L105.889 68.3633C105.751 68.3485 105.677 68.1817 105.777 68.0742Z" fill="#FFD31D"/>
</g>
<path d="M39.1947 43.9954L37.034 50.4488C37.0117 50.5823 37.1233 50.6972 37.2572 50.6823L41.6566 50.5081C41.8388 50.4896 41.9541 50.6935 41.8388 50.838L32.9507 62.0137C32.8168 62.1842 32.5454 62.0545 32.59 61.8432L35.2564 54.567C35.2862 54.4298 35.1672 54.3038 35.0296 54.3223L30.4926 54.7449C30.3103 54.7708 30.1876 54.5595 30.3029 54.415L38.8302 43.836C38.9604 43.6729 39.2244 43.7879 39.191 43.9954H39.1947Z" fill="#FFD31D"/>
<g style="mix-blend-mode:screen" opacity="0.5">
<path d="M35.8739 54.4854C35.9037 54.3483 35.7847 54.2222 35.6471 54.2408L32.1736 54.5818C31.9914 54.6077 31.8687 54.3964 31.984 54.2519L39.1502 44.1215L39.1911 43.9954C39.2246 43.7879 38.9606 43.6729 38.8304 43.836L30.3031 54.415C30.1878 54.5595 30.3068 54.7708 30.4927 54.7449L35.0297 54.3223C35.171 54.3038 35.2863 54.4261 35.2566 54.567L32.5902 61.8432C32.5455 62.0545 32.817 62.1805 32.9509 62.0137L33.2521 61.6356L35.8739 54.4891V54.4854Z" fill="#FFD31D"/>
</g>
<path d="M28.9085 35.1364C28.4585 35.1364 28.0308 34.8621 27.8635 34.4173C27.6478 33.8428 27.9379 33.2015 28.5143 32.9865L37.9713 29.4392C38.5478 29.2242 39.1911 29.5133 39.4068 30.0879C39.6225 30.6624 39.3324 31.3037 38.756 31.5187L29.299 35.066C29.1688 35.1142 29.0349 35.1364 28.9048 35.1364H28.9085Z" fill="#FFDC48"/>
<path d="M43.9401 17.3405C43.4827 17.3405 43.0513 17.0551 42.8877 16.5992L39.5072 7.13224C39.299 6.554 39.6039 5.91644 40.1841 5.71257C40.7642 5.505 41.4039 5.80895 41.6084 6.38719L44.9888 15.8541C45.1971 16.4324 44.8921 17.0699 44.312 17.2738C44.1893 17.3183 44.0628 17.3368 43.9364 17.3368L43.9401 17.3405Z" fill="#FFDC48"/>
<path d="M39.4849 24.1164C39.3139 24.1164 39.1353 24.0756 38.9717 23.9903L29.9572 19.3384C29.4105 19.0567 29.1948 18.3858 29.4812 17.8409C29.7638 17.296 30.4369 17.081 30.9836 17.3627L39.9981 22.0147C40.5448 22.2964 40.7605 22.9673 40.4741 23.5122C40.277 23.894 39.8866 24.1127 39.4812 24.1127L39.4849 24.1164Z" fill="#FFDC48"/>
<path d="M105.811 20.9916C106.145 15.6725 100.805 17.5555 100.805 17.5555C96.6921 13.0111 94.1336 18.0003 94.1336 18.0003C89.4627 16.4472 90.0205 20.8841 90.0205 20.8841C90.0205 20.8841 86.6847 22.8783 88.4623 25.4285C90.2399 27.9788 92.4675 27.2003 92.4675 27.2003C92.4675 27.2003 91.5787 29.1946 93.4679 30.0842C95.3571 30.9701 97.3615 28.8647 97.3615 28.8647C97.3615 28.8647 98.2503 31.3037 101.147 30.8144C104.044 30.3251 103.591 26.8705 103.591 26.8705C104.256 27.2041 106.703 28.09 107.927 25.0986C109.15 22.1073 105.814 20.999 105.814 20.999L105.811 20.9916Z" fill="white"/>
<path d="M100.4 31.2444C98.6036 31.2444 97.6553 30.1249 97.25 29.4614C96.536 30.0656 94.9182 31.1665 93.3043 30.4141C91.9171 29.7654 91.7609 28.5422 91.932 27.66C91.0618 27.7193 89.4738 27.5228 88.1536 25.6324C87.633 24.8874 87.4582 24.1127 87.6256 23.3268C87.9156 21.985 89.1429 21.0213 89.6263 20.6877C89.6003 20.1168 89.6375 18.6675 90.6378 17.852C91.4002 17.2293 92.5159 17.1292 93.9551 17.5555C94.3344 16.9439 95.3868 15.5131 97.0194 15.2981C98.295 15.1313 99.6077 15.7466 100.917 17.1292C101.605 16.9328 103.613 16.4806 104.967 17.4962C105.826 18.1412 106.238 19.2309 106.194 20.7396C106.703 20.962 107.8 21.5439 108.306 22.6374C108.667 23.4158 108.652 24.2869 108.269 25.2247C107.808 26.3552 107.127 27.0928 106.25 27.4227C105.398 27.7415 104.554 27.597 103.992 27.419C103.992 28.8054 103.423 30.7921 101.207 31.1665C100.92 31.2147 100.653 31.2369 100.4 31.2369V31.2444ZM97.5029 28.1715L97.7074 28.7349C97.7409 28.8202 98.5404 30.8774 101.08 30.4437C103.594 30.0174 103.234 27.041 103.215 26.9149L103.126 26.2218L103.751 26.5331C104.029 26.674 105.019 27.1003 105.986 26.737C106.662 26.485 107.198 25.8808 107.577 24.9504C107.878 24.209 107.897 23.5381 107.629 22.9562C107.112 21.833 105.703 21.3475 105.692 21.3438L105.42 21.2511L105.439 20.9657C105.524 19.5831 105.216 18.6156 104.52 18.0893C103.226 17.1144 100.95 17.8928 100.928 17.9002L100.694 17.9818L100.526 17.8001C99.3363 16.488 98.1908 15.8949 97.1198 16.032C95.4686 16.247 94.472 18.1449 94.4608 18.1634L94.3158 18.4451L94.0146 18.345C92.6906 17.9039 91.7163 17.9299 91.1176 18.4192C90.199 19.1679 90.385 20.8137 90.3887 20.8285L90.4184 21.0657L90.2139 21.1918C90.2139 21.1918 88.6445 22.1481 88.3582 23.4825C88.2317 24.0682 88.3693 24.6316 88.771 25.2061C90.3552 27.4783 92.2667 26.8667 92.3485 26.8408L93.1518 26.5702L92.8097 27.3412C92.7353 27.5117 92.1217 29.0315 93.6278 29.7357C95.2492 30.4993 97.0752 28.6163 97.0938 28.5978L97.5066 28.1641L97.5029 28.1715Z" fill="#57579E"/>
<path d="M91.7498 30.996C90.8498 30.7921 90.0019 31.1591 89.8531 31.8189C89.7044 32.475 90.3106 33.1719 91.2105 33.3757C92.1105 33.5796 92.9584 33.2126 93.1072 32.5528C93.2559 31.893 92.6497 31.1999 91.7498 30.996Z" fill="white"/>
<path d="M91.7051 33.802C91.5155 33.802 91.3221 33.7797 91.1287 33.7353C90.6192 33.6204 90.1655 33.3609 89.8606 33.0088C89.5296 32.6307 89.3957 32.1636 89.4924 31.7336C89.6858 30.8774 90.7382 30.3881 91.8353 30.6328C92.9324 30.8811 93.665 31.7781 93.4716 32.6344C93.3749 33.0644 93.0514 33.4239 92.5902 33.6241C92.3225 33.739 92.0212 33.7983 91.7051 33.7983V33.802ZM91.2626 31.3111C90.7382 31.3111 90.2994 31.5409 90.2176 31.9004C90.1581 32.171 90.318 32.4083 90.4221 32.5232C90.623 32.753 90.9428 32.9346 91.2961 33.0125C91.6494 33.094 92.0138 33.0681 92.2964 32.9457C92.4378 32.8827 92.6869 32.7382 92.7501 32.4713C92.8506 32.0228 92.3597 31.5112 91.6754 31.3593C91.5378 31.3296 91.4002 31.3148 91.2663 31.3148L91.2626 31.3111Z" fill="#57579E"/>
<path d="M88.8639 34.5841C88.2875 34.4544 87.7446 34.6916 87.6479 35.1105C87.5512 35.533 87.9417 35.9778 88.5181 36.1076C89.0945 36.2373 89.6375 36.0001 89.7342 35.5812C89.8308 35.1587 89.4404 34.7138 88.8639 34.5841Z" fill="white"/>
<path d="M88.8305 36.5153C88.7003 36.5153 88.5664 36.5005 88.4326 36.4708C88.0793 36.3893 87.7632 36.2114 87.5475 35.963C87.3057 35.685 87.209 35.3477 87.2834 35.0289C87.3541 34.7101 87.5884 34.447 87.9268 34.2987C88.228 34.169 88.5887 34.1393 88.9457 34.2209C89.3028 34.3024 89.6151 34.4803 89.8308 34.7287C90.0726 35.0067 90.1693 35.344 90.0949 35.6628C90.0242 35.9815 89.7899 36.2447 89.4515 36.393C89.2619 36.4745 89.0499 36.5153 88.8305 36.5153ZM88.5441 34.9177C88.4251 34.9177 88.3135 34.94 88.2206 34.9807C88.1536 35.0104 88.0346 35.0771 88.0049 35.192C87.9788 35.3069 88.0569 35.4181 88.1053 35.4737C88.2169 35.5998 88.3954 35.6998 88.5925 35.7443C88.7933 35.7888 88.9941 35.7777 89.1503 35.711C89.2172 35.6813 89.3362 35.6146 89.3623 35.4997C89.3883 35.3848 89.3102 35.2736 89.2619 35.218C89.1503 35.0919 88.9718 34.9919 88.7747 34.9474C88.6966 34.9288 88.6185 34.9214 88.5404 34.9214L88.5441 34.9177Z" fill="#57579E"/>
<path d="M51.4857 2.358C52.6013 -1.49697 55.9074 1.18669 55.9074 1.18669C59.9796 -0.996564 60.5225 3.1846 60.5225 3.1846C64.2265 3.26615 62.7055 6.26487 62.7055 6.26487C62.7055 6.26487 64.5612 8.52226 62.6534 9.87891C60.7456 11.2356 59.366 10.1236 59.366 10.1236C59.366 10.1236 59.4887 11.7619 57.923 11.9139C56.3574 12.0659 55.4723 10.068 55.4723 10.068C55.4723 10.068 54.2228 11.5729 52.2927 10.4942C50.3626 9.41557 51.5638 7.08035 51.5638 7.08035C51.006 7.14707 49.0461 7.15819 48.942 4.72659C48.8341 2.29499 51.482 2.3543 51.482 2.3543L51.4857 2.358Z" fill="white"/>
<path d="M57.752 12.203C56.5285 12.203 55.7326 11.1021 55.3979 10.5239C54.8773 10.9427 53.7096 11.6062 52.1588 10.7389C50.6824 9.91227 50.7865 8.36286 51.1361 7.38059C50.6936 7.36576 50.0576 7.25456 49.537 6.81346C48.9978 6.35754 48.704 5.66068 48.6668 4.74512C48.6333 3.98154 48.8453 3.36252 49.299 2.89918C49.9349 2.25051 50.8609 2.11336 51.2774 2.08741C51.6307 1.00505 52.1997 0.337847 52.9695 0.0969116C54.1856 -0.281172 55.4946 0.545423 55.9334 0.860493C57.2127 0.211819 58.2986 0.104325 59.1614 0.545423C60.2622 1.10884 60.6452 2.38766 60.7568 2.91771C61.8873 2.98073 62.6497 3.33287 63.0327 3.96671C63.5348 4.80072 63.1927 5.83489 63.0327 6.23522C63.2931 6.59477 63.9178 7.58816 63.7802 8.61121C63.7021 9.2117 63.3786 9.71581 62.8208 10.1124C61.4039 11.1169 60.2287 10.8575 59.6263 10.5943C59.5221 11.2615 59.1019 12.0881 57.9528 12.1993C57.8858 12.2067 57.8189 12.2104 57.752 12.2104V12.203ZM55.5504 9.54901L55.7326 9.95675C55.7326 9.95675 56.5545 11.7619 57.897 11.6396C59.1763 11.5173 59.0907 10.2051 59.087 10.1495L59.0387 9.50453L59.5407 9.91227C59.5891 9.94934 60.7903 10.8649 62.4898 9.6565C62.9212 9.34885 63.1592 8.98559 63.2187 8.53708C63.3563 7.52144 62.4935 6.45762 62.4861 6.4465L62.3708 6.30564L62.4526 6.14255C62.4526 6.14255 63.0104 5.012 62.5493 4.24842C62.2481 3.74802 61.5638 3.48484 60.5151 3.4626H60.2733L60.2436 3.21796C60.2436 3.20313 60.0167 1.60183 58.9011 1.03471C58.1759 0.664037 57.2127 0.797479 56.0376 1.42762L55.8739 1.51658L55.7289 1.39797C55.7289 1.39797 54.3009 0.260007 53.1369 0.623264C52.5121 0.819719 52.0472 1.42762 51.7572 2.42843L51.6977 2.6323H51.482C51.482 2.6323 50.3477 2.61747 49.6969 3.28097C49.3585 3.6257 49.1986 4.10757 49.2283 4.70805C49.2618 5.46422 49.4887 6.02393 49.9014 6.37607C50.4927 6.87648 51.3035 6.82458 51.5377 6.79493L52.0584 6.73191L51.8204 7.19896C51.7758 7.28421 50.7679 9.30807 52.4377 10.2422C54.1298 11.1874 55.2194 9.93451 55.264 9.88261L55.5541 9.5416L55.5504 9.54901Z" fill="#33B1E6"/>
<path d="M58.9085 13C59.5965 13.0815 60.106 13.5597 60.0428 14.0601C59.9833 14.5642 59.3734 14.9052 58.6854 14.8199C57.9974 14.7384 57.4879 14.2602 57.5512 13.7598C57.6107 13.2557 58.2206 12.9147 58.9085 13Z" fill="white"/>
<path d="M58.8899 15.1128C58.8118 15.1128 58.7337 15.1091 58.6556 15.098C57.8152 14.9979 57.1941 14.3826 57.2759 13.7265C57.354 13.0704 58.1053 12.6182 58.9457 12.722C59.7862 12.822 60.4035 13.4373 60.3254 14.0934C60.2548 14.6865 59.6337 15.1128 58.8936 15.1128H58.8899ZM58.7077 13.2668C58.254 13.2668 57.8672 13.4892 57.8301 13.7932C57.7891 14.1379 58.1982 14.4826 58.7226 14.5457C59.2469 14.6087 59.7267 14.3714 59.7676 14.0267C59.8085 13.682 59.3994 13.3373 58.8751 13.2743C58.8193 13.2668 58.7598 13.2631 58.704 13.2631L58.7077 13.2668Z" fill="#33B1E6"/>
<path d="M60.0428 16.273C60.4853 16.3249 60.8089 16.6325 60.7717 16.955C60.7308 17.2775 60.344 17.4962 59.9015 17.4443C59.4589 17.3924 59.1354 17.0847 59.1726 16.7623C59.2135 16.4398 59.6002 16.2211 60.0428 16.273Z" fill="white"/>
<path d="M60.0391 17.726C59.9833 17.726 59.9275 17.726 59.868 17.7149C59.5965 17.6815 59.3474 17.5703 59.1651 17.4035C58.9643 17.2145 58.8639 16.9698 58.8936 16.7252C58.9532 16.2433 59.4701 15.9208 60.0762 15.995C60.3477 16.0283 60.5969 16.1395 60.7791 16.3063C60.9799 16.4954 61.0803 16.74 61.0506 16.9847C60.9985 17.4221 60.5671 17.726 60.0391 17.726ZM59.9163 16.5399C59.6635 16.5399 59.4701 16.6622 59.4552 16.7882C59.444 16.8772 59.511 16.955 59.5519 16.9921C59.6449 17.0773 59.7862 17.1403 59.9386 17.1589C60.2362 17.1922 60.4779 17.0588 60.4965 16.9142C60.5076 16.8253 60.4407 16.7474 60.3998 16.7104C60.3068 16.6251 60.1655 16.5621 60.013 16.5436C59.9796 16.5399 59.9461 16.5361 59.9163 16.5361V16.5399Z" fill="#33B1E6"/>
<path d="M98.4735 24.7428C98.4549 24.8095 98.3991 24.8614 98.3061 24.9059C98.2132 24.9504 98.1127 24.9689 98.0086 24.9689C97.6962 24.9689 97.4434 24.8911 97.25 24.7354C97.0566 24.5797 96.9562 24.3795 96.9562 24.1386C96.9562 24.0459 96.9711 23.9607 96.9971 23.8828C97.0566 23.6716 97.1719 23.4973 97.3392 23.3639C97.5066 23.2305 97.7557 23.0674 98.0867 22.8746C98.4437 22.6782 98.7189 22.4965 98.9086 22.3297C99.102 22.1666 99.2321 21.9517 99.3065 21.6885C99.3251 21.5958 99.3363 21.5106 99.3363 21.4327C99.3363 21.2103 99.2619 21.0361 99.1094 20.9175C98.9569 20.7989 98.797 20.7396 98.6222 20.7396C98.4363 20.7396 98.2764 20.7655 98.1351 20.8174C98.2094 21.0101 98.2429 21.2103 98.2429 21.4216C98.2429 21.5217 98.2318 21.6106 98.2132 21.6885C98.1388 21.9405 98.0086 22.1333 97.8152 22.2704C97.6219 22.4076 97.3801 22.478 97.0826 22.478C96.7256 22.478 96.4393 22.3816 96.2198 22.1852C96.0004 21.9924 95.8926 21.7404 95.8926 21.4401C95.8926 21.3363 95.9075 21.2326 95.9335 21.1325C96.0339 20.7099 96.3277 20.3874 96.8223 20.1576C97.3132 19.9315 97.938 19.8166 98.6929 19.8166C99.3325 19.8166 99.8978 19.9204 100.378 20.1242C100.857 20.3281 101.229 20.5987 101.489 20.9397C101.75 21.2807 101.876 21.644 101.876 22.0332C101.876 22.1518 101.861 22.2853 101.828 22.4298C101.75 22.7523 101.612 23.0118 101.415 23.2045C101.218 23.3973 100.935 23.5604 100.563 23.6901C100.192 23.8198 99.671 23.9384 99.0127 24.0496C98.7598 24.0941 98.5888 24.1386 98.4958 24.1794C98.4028 24.2202 98.3433 24.272 98.3173 24.3388L98.3061 24.3795C98.3061 24.4203 98.3322 24.4796 98.3842 24.5575C98.4512 24.6353 98.4809 24.6983 98.4735 24.7465V24.7428ZM98.2541 25.4211C98.4326 25.5694 98.5218 25.751 98.5218 25.9697C98.5293 26.1291 98.4846 26.2811 98.3879 26.4331C98.2913 26.585 98.1574 26.7074 97.9863 26.8037C97.8152 26.9001 97.6219 26.9483 97.4099 26.9483C97.1384 26.9483 96.9153 26.8705 96.7405 26.7148C96.5657 26.5591 96.4764 26.37 96.4764 26.1476C96.4764 25.9957 96.5248 25.8474 96.6215 25.7028C96.7182 25.5583 96.8483 25.436 97.0194 25.3433C97.1868 25.2469 97.3764 25.1987 97.5884 25.1987C97.8524 25.1987 98.0756 25.2729 98.2541 25.4211Z" fill="#474793"/>
<path d="M56.9152 7.20637C57.1235 7.28421 57.276 7.42878 57.3689 7.63635C57.4322 7.78091 57.4545 7.93659 57.4396 8.11081C57.4247 8.28132 57.3652 8.44441 57.2685 8.58897C57.1718 8.73353 57.038 8.84844 56.8669 8.92258C56.6586 9.01524 56.4504 9.01895 56.2421 8.9374C56.0339 8.85586 55.8814 8.715 55.7847 8.50743C55.7215 8.36286 55.6954 8.20718 55.7103 8.03667C55.7252 7.86617 55.781 7.70678 55.8777 7.55851C55.9744 7.41024 56.1082 7.29904 56.2793 7.22491C56.4913 7.13224 56.7033 7.12483 56.9152 7.20267V7.20637ZM55.6099 2.36912C55.9037 2.23939 56.1603 2.20603 56.3797 2.26163C56.5991 2.31723 56.759 2.46179 56.8594 2.6879C56.9599 2.91401 56.997 3.22537 56.9636 3.59604L56.6921 6.37978C56.6809 6.53175 56.6549 6.64666 56.6103 6.7245C56.5657 6.80605 56.495 6.86536 56.3983 6.90613C56.1901 6.9988 56.0376 6.91725 55.9372 6.66149L54.9256 4.08533C54.6133 3.27726 54.8438 2.70273 55.6099 2.36541V2.36912Z" fill="#33B1E6"/>
<path d="M19.8084 108.963C19.7787 109.052 19.7452 109.144 19.7155 109.233C19.9944 108.448 20.2435 107.632 20.4518 106.806C20.3105 107.358 20.1543 107.899 19.9869 108.429C21.3257 107.517 23.0847 106.086 23.795 104.626C24.721 102.721 23.2893 101.865 21.1807 101.801C21.1807 101.757 21.1844 101.664 21.1844 101.412C24.7322 101.494 25.502 103.651 22.8728 106.461C22.0026 107.395 20.8906 108.255 19.8084 108.963Z" fill="#E84343"/>
<path d="M22.3744 114.286C21.8873 114.708 21.1026 114.66 20.6787 114.137C20.6563 114.115 20.6377 114.089 20.6191 114.063C20.2584 113.555 20.3663 112.844 20.846 112.455C20.8906 112.418 20.9427 112.384 20.9948 112.354C21.0171 112.395 21.1212 112.607 21.2104 112.829C21.2402 112.903 21.2699 112.981 21.296 113.051C21.296 113.051 21.5675 113.248 21.679 112.925C21.5972 112.688 21.4819 112.432 21.3741 112.214C21.6604 112.158 21.9505 112.214 22.1959 112.354C22.3447 112.44 22.4786 112.558 22.579 112.707C22.9323 113.214 22.8319 113.896 22.3744 114.289V114.286Z" fill="#0B45B2"/>
<path d="M22.0509 114.015C21.6679 114.345 21.1063 114.386 20.6749 114.137C20.6526 114.115 20.634 114.089 20.6154 114.063C20.2547 113.555 20.3625 112.844 20.8423 112.455C20.8869 112.562 20.9352 112.677 20.9687 112.781C20.9687 112.781 21.0914 112.866 21.2067 112.829C21.2365 112.903 21.2662 112.981 21.2923 113.051C21.2923 113.051 21.5637 113.248 21.6753 112.925C21.5935 112.688 21.4782 112.432 21.3704 112.214C21.6567 112.158 21.9468 112.214 22.1922 112.354C22.2145 112.38 22.2368 112.41 22.2554 112.436C22.6087 112.944 22.5083 113.626 22.0509 114.015Z" fill="#3E85F4"/>
<path d="M21.296 113.051C20.8609 111.795 19.6076 110.127 18.7709 109.1C17.1271 107.08 15.0446 104.997 13.081 103.377C12.2368 102.68 11.229 101.905 10.2919 101.327C9.72289 100.975 8.31344 100.145 7.68495 100.363C7.46926 100.437 7.45438 100.671 7.4767 100.901C7.59942 102.005 8.97168 103.833 9.00143 103.907C9.02746 103.959 9.00887 104.033 8.96796 104.085C8.8973 104.174 8.76714 104.203 8.68904 104.148C8.65186 104.148 7.5176 102.532 7.18291 101.442C7.07878 101.108 6.99324 100.701 7.13084 100.374C7.61801 99.2031 9.89767 100.567 10.9613 101.271C13.3041 102.825 16.666 105.842 19.1762 108.948C20.0167 109.99 21.2476 111.654 21.6827 112.918C21.5675 113.24 21.2997 113.044 21.2997 113.044L21.296 113.051Z" fill="#FCD561"/>
<path d="M20.8051 101.794V101.409C20.8051 99.9815 20.5968 98.2097 19.8493 96.9939C19.8084 96.9272 19.7675 96.8605 19.7229 96.7974C19.7229 96.7974 19.5816 96.6344 19.7638 96.5269C19.946 96.4231 20.0167 96.5232 20.0167 96.5232C20.0613 96.5825 20.1022 96.6455 20.1431 96.7085C21.3741 98.6545 21.3183 101.805 20.9947 104.077C20.7344 105.912 20.3142 107.621 19.6188 109.511C19.5332 109.397 19.444 109.285 19.351 109.17C20.1766 106.85 20.7567 104.274 20.8088 101.794H20.8051Z" fill="#69A4FC"/>
<path d="M21.2737 114.527C20.37 114.753 18.7151 113.726 17.9379 113.207C18.0122 113.07 18.1164 112.877 18.1312 112.851C18.7932 113.292 19.8754 113.952 20.6601 114.115C20.82 114.315 21.0319 114.456 21.2737 114.527Z" fill="#FCD561"/>
<path d="M13.4938 103.195C15.6693 102.28 18.4473 101.442 20.8051 101.405C20.8051 101.535 20.8051 101.664 20.8051 101.79C18.57 101.813 15.8292 102.613 13.8025 103.455C13.557 103.243 13.3079 103.04 13.0624 102.839C13.2112 102.958 13.3599 103.08 13.4938 103.192V103.195Z" fill="#E84343"/>
<path d="M20.1394 96.7048C20.0985 96.6418 20.0576 96.5787 20.013 96.5194C20.013 96.5194 19.9386 96.4194 19.7601 96.5231C19.5816 96.6306 19.7192 96.7937 19.7192 96.7937C19.7638 96.8605 19.8047 96.9235 19.8456 96.9902C19.2134 97.4646 18.3358 97.3757 17.8077 96.8382C17.7222 96.7493 17.6441 96.6492 17.5771 96.5343C17.0044 95.552 17.6775 94.2769 18.8527 94.2287C19.113 94.2176 19.3547 94.2695 19.563 94.3658C20.4072 94.755 20.7753 95.8782 20.1357 96.7085L20.1394 96.7048Z" fill="#E84343"/>
<path d="M19.6969 96.3971C19.2134 97.0198 18.425 97.131 17.8114 96.8382C17.7259 96.7493 17.6478 96.6492 17.5808 96.5343C17.0081 95.552 17.6812 94.2769 18.8564 94.2287C19.1167 94.2176 19.3584 94.2695 19.5667 94.3658C20.0836 94.8811 20.2101 95.741 19.6969 96.3971Z" fill="#FC5552"/>
<path d="M19.1837 109.615C19.1837 109.593 19.9386 110.59 20.422 111.35C20.1096 110.861 19.7675 110.379 19.4477 109.956C18.9828 111.113 18.5775 112.08 17.8635 113.348C16.7441 115.353 14.9256 117.837 12.8579 118.826C10.7679 119.823 8.88241 119.038 8.09029 116.195C7.8151 115.205 7.71469 114.108 7.71841 113.074C7.74072 113.074 8.04567 113.077 8.09401 113.074C8.09401 114.66 8.35433 116.743 9.39189 117.955C10.2175 118.919 11.4819 119.23 13.1851 118.222C15.0855 117.099 16.7999 114.604 17.83 112.64C18.1163 112.099 18.3804 111.546 18.5886 111.068C18.9196 110.334 19.1651 109.656 19.1837 109.608V109.615Z" fill="#69A4FC"/>
<path d="M19.4923 108.752C19.4923 108.752 19.3659 109.115 19.3473 109.167C19.2915 109.096 19.232 109.022 19.1762 108.952C19.2841 108.885 19.3882 108.818 19.4923 108.752Z" fill="#E84343"/>
<path d="M18.8266 109.167C18.8266 109.167 19.0423 109.437 19.0461 109.441C15.3346 111.676 11.3889 112.859 8.71507 113.051C7.84113 113.111 7.27587 113.07 6.79985 113.003C6.67341 112.729 6.9077 112.621 6.9077 112.621C7.25355 112.67 7.63288 112.699 8.09402 112.696C9.13158 112.684 10.1468 112.518 11.1695 112.295C12.579 111.988 15.0148 111.113 15.0966 111.031C16.2904 110.542 17.6031 109.901 18.8229 109.17L18.8266 109.167Z" fill="#E84343"/>
<path d="M17.9416 107.506C17.7147 107.254 17.4879 107.006 17.2499 106.757C16.1528 105.59 14.9665 104.455 13.8025 103.458C13.8025 103.458 14.0405 103.662 14.1595 103.766C15.3309 103.666 16.4057 104.159 17.1085 104.974C17.685 105.645 18.0122 106.539 17.9416 107.506Z" fill="#1C6DF6"/>
<path d="M15.8218 111.113C15.8962 111.187 16.9375 112.028 17.83 112.647C17.8226 112.673 17.4693 113.311 17.6366 113.003C17.2238 112.718 16.8147 112.418 16.4205 112.11C16.2569 111.984 15.4127 111.294 15.4053 111.291C15.1673 111.391 14.9218 111.491 14.6727 111.587C15.978 111.079 17.2461 110.475 18.3953 109.823C17.5994 110.275 16.7441 110.705 15.8218 111.113Z" fill="#FCD561"/>
<path d="M17.8635 108.029C17.5548 109.352 16.521 110.338 15.2677 110.638C14.431 110.838 13.5682 110.724 12.8319 110.338C12.367 110.097 11.984 109.767 11.6864 109.382C10.8237 108.266 10.6935 106.687 11.4447 105.456C11.9468 104.611 12.7686 104.055 13.6426 103.848C14.8289 104.874 16.0338 106.035 17.168 107.258C17.406 107.51 17.6366 107.769 17.8635 108.029Z" fill="#1C6DF6"/>
<path d="M17.4618 95.248C17.4507 95.2925 17.3986 95.4 17.3763 95.6484C16.1267 95.7781 14.8921 96.7418 14.0107 97.6463C13.1479 98.5322 12.1885 99.7925 11.2625 101.479C11.1584 101.409 11.0579 101.338 10.9575 101.275C12.0174 99.3514 13.5868 97.1533 15.4388 95.9894C16.0561 95.6002 16.7441 95.3073 17.4618 95.248Z" fill="#69A4FC"/>
<path d="M15.5131 110.853L15.0966 111.027C15.0966 111.027 15.0743 111.013 14.9628 110.913C14.9628 110.913 14.7508 110.731 14.7396 110.72C14.8028 110.72 15.2194 110.657 15.2603 110.638C15.2826 110.657 15.2714 110.649 15.5131 110.853Z" fill="#FCD561"/>
<path d="M10.3514 104.752C11.705 103.977 13.055 103.377 13.0773 103.377C13.1554 103.44 13.3637 103.614 13.386 103.636C12.3856 104.066 11.4187 104.548 10.4704 105.089C10.5782 105.026 10.4592 104.689 10.3514 104.752Z" fill="#E84343"/>
<path d="M11.0654 101.839C11.1137 101.868 10.634 102.513 9.83817 104.552C9.83073 104.567 9.81214 104.563 9.79355 104.563C9.70429 104.552 9.61132 104.522 9.52207 104.47C9.50719 104.459 9.4886 104.448 9.49232 104.433C9.85677 103.503 10.2844 102.547 10.7679 101.638C10.779 101.642 11.0542 101.835 11.0654 101.842V101.839Z" fill="#69A4FC"/>
<path d="M10.9613 106.98C10.5076 106.476 10.0948 105.986 9.73032 105.534C9.90138 105.427 10.0725 105.327 10.0799 105.323C10.1022 105.323 10.1803 105.479 11.0431 106.461C10.9761 106.728 10.9538 107.106 10.965 106.98H10.9613Z" fill="#FCD561"/>
<path d="M4.82143 111.009C4.92556 110.961 4.6764 111.065 4.48302 111.239C4.34914 110.142 5.19704 108.933 5.94825 108.114C6.93003 107.021 8.35063 105.975 9.59645 105.201C9.74149 105.112 10.3365 104.748 10.3663 104.741C10.4741 104.715 10.5671 104.997 10.4853 105.075C10.4853 105.075 9.75264 105.512 9.69686 105.549C9.47373 105.694 9.43282 105.719 9.41051 105.731C9.39563 105.738 8.93821 106.038 8.9159 106.057C7.65149 106.909 6.08213 108.207 5.30117 109.504C5.02969 109.953 4.79912 110.486 4.82143 111.005V111.009Z" fill="#E84343"/>
<path d="M9.85303 105.045C9.91625 105.008 9.97947 104.971 10.0427 104.934C9.89394 105.023 9.74519 105.112 9.59271 105.208C9.63362 105.097 9.67453 104.986 9.71543 104.874C9.76006 104.934 9.80841 104.993 9.85303 105.049V105.045Z" fill="#FCD561"/>
<path d="M9.49231 104.43C9.49231 104.43 9.50718 104.455 9.52206 104.467C9.59643 104.515 9.68941 104.548 9.79353 104.559C9.81213 104.559 9.83444 104.563 9.83816 104.548C9.75263 104.763 9.67081 104.989 9.59272 105.201C9.42909 105.304 9.26546 105.408 9.09811 105.516C9.08323 105.523 9.07579 105.553 9.18364 105.245C9.3138 104.885 9.38074 104.704 9.48859 104.426L9.49231 104.43Z" fill="#69A4FC"/>
<path d="M9.00142 103.911C8.98655 103.866 8.92704 103.829 9.45512 104.53C9.36215 104.774 9.29521 104.952 9.28777 104.974C9.06464 104.685 8.8601 104.407 8.65929 104.122C8.66672 104.133 8.6816 104.148 8.68904 104.152C8.83035 104.252 9.0758 104.059 9.00142 103.911Z" fill="#FCD561"/>
<path d="M7.72214 112.688C7.77421 110.479 8.24278 108.158 8.9159 106.06C8.93821 106.038 9.37704 105.753 9.39935 105.738C9.45885 105.701 8.17585 108.97 8.09775 112.692C7.8709 112.692 7.57339 112.684 7.72214 112.688Z" fill="#69A4FC"/>
<path d="M7.03415 112.636C6.99324 112.629 6.94862 112.621 6.90771 112.618C6.90771 112.618 6.67714 112.725 6.79986 112.999C6.87796 113.011 6.89655 113.014 6.91887 113.014C6.53954 113.852 5.52429 114.167 4.73961 113.715C4.47186 113.559 4.25616 113.326 4.12228 113.048C4.11113 113.018 4.09625 112.988 4.08509 112.959C3.73924 112.121 4.21525 111.105 5.16356 110.887C5.71767 110.753 6.25691 110.939 6.61764 111.305C6.94118 111.635 7.1234 112.114 7.03787 112.636H7.03415Z" fill="#FEB30F"/>
<path d="M6.71805 112.332C6.63623 112.666 6.44285 112.962 6.17138 113.174C5.5652 113.656 4.66896 113.596 4.12228 113.048C4.11113 113.018 4.09625 112.988 4.08509 112.959C3.73924 112.121 4.21525 111.105 5.16356 110.887C5.71767 110.753 6.25691 110.942 6.61764 111.305C6.76267 111.617 6.81102 111.976 6.72177 112.332H6.71805Z" fill="#FBC22C"/>
<path d="M16.9003 111.706C16.915 111.72 16.9556 111.698 16.9003 111.706V111.706Z" fill="#1C6DF6"/>
<path d="M17.1643 107.258C17.4023 107.51 17.6329 107.769 17.8597 108.029C17.5511 109.352 16.5172 110.338 15.264 110.638C14.4272 110.838 13.5645 110.724 12.8281 110.338C12.3633 110.097 11.9802 109.767 11.6827 109.382C12.698 109.756 14.3157 110.153 15.5131 109.511C16.4689 108.996 16.9598 108.136 17.1643 107.258Z" fill="#0B45B2"/>
<path d="M17.9416 107.506C17.7147 107.254 17.4879 107.006 17.2499 106.757C17.3279 106.083 17.2499 105.438 17.1085 104.974C17.685 105.645 18.0122 106.539 17.9416 107.506Z" fill="#0B45B2"/>
<path d="M13.9289 106.046C13.9289 106.435 13.6128 106.75 13.2223 106.75C12.8319 106.75 12.5157 106.435 12.5157 106.046C12.5157 105.656 12.8319 105.341 13.2223 105.341C13.6128 105.341 13.9289 105.656 13.9289 106.046Z" fill="#69A4FC"/>
<path d="M18.4101 95.4297C18.4101 95.5779 18.2874 95.7002 18.1387 95.7002C17.9899 95.7002 17.8672 95.5779 17.8672 95.4297C17.8672 95.2814 17.9899 95.1591 18.1387 95.1591C18.2874 95.1591 18.4101 95.2814 18.4101 95.4297Z" fill="#FC9F9C"/>
<path d="M5.51313 111.98C5.51313 112.202 5.33091 112.384 5.10778 112.384C4.88465 112.384 4.70242 112.202 4.70242 111.98C4.70242 111.758 4.88465 111.576 5.10778 111.576C5.33091 111.576 5.51313 111.758 5.51313 111.98Z" fill="#FCEAB2"/>
<path d="M80.3136 116.32C77.3556 115.163 73.5976 117.236 70.9061 121.148C70.4356 118.81 69.2561 117.026 67.4524 116.32C64.4943 115.163 60.7364 117.236 58.0449 121.148C57.5744 118.81 56.3949 117.026 54.5912 116.32C51.6331 115.163 47.8751 117.236 45.1837 121.148C44.7132 118.81 43.5337 117.026 41.73 116.32C37.9469 114.839 32.8558 118.646 30.3588 124.82C27.8618 130.994 28.9033 137.202 32.6864 138.68C35.6444 139.837 39.4024 137.764 42.0939 133.852C42.5644 136.19 43.7439 137.974 45.5476 138.68C48.5057 139.837 52.2636 137.764 54.9551 133.852C55.4256 136.19 56.6051 137.974 58.4088 138.68C61.3669 139.837 65.1249 137.764 67.8163 133.852C68.2868 136.19 69.4663 137.974 71.27 138.68C75.0531 140.161 80.1442 136.354 82.6412 130.18C85.1382 124.006 84.0967 117.798 80.3136 116.32Z" fill="#474793"/>
<path d="M78.3168 114.32C75.3587 113.163 71.6007 115.236 68.9093 119.149C68.4387 116.81 67.2593 115.026 65.4556 114.32C62.4975 113.163 58.7395 115.236 56.048 119.149C55.5775 116.81 54.398 115.026 52.5943 114.32C49.6363 113.163 45.8783 115.236 43.1868 119.149C42.7163 116.81 41.5368 115.026 39.7331 114.32C35.95 112.839 30.8589 116.644 28.3588 122.818C25.8618 128.993 26.9033 135.202 30.6864 136.68C33.6444 137.838 37.4024 135.764 40.0939 131.851C40.5644 134.19 41.7439 135.974 43.5476 136.68C46.5057 137.838 50.2636 135.764 52.9551 131.851C53.4256 134.19 54.6051 135.974 56.4088 136.68C59.3669 137.838 63.1249 135.764 65.8163 131.851C66.2868 134.19 67.4663 135.974 69.27 136.68C73.0531 138.162 78.1442 134.354 80.6412 128.179C83.1382 122.004 82.0967 115.795 78.3136 114.317L78.3168 114.32Z" fill="white" stroke="#474793" stroke-width="1.5" stroke-miterlimit="10" stroke-linejoin="round"/>
<path d="M51.4928 126.948C51.5986 127.03 51.6515 127.148 51.6515 127.299C51.6515 127.365 51.6416 127.437 51.6185 127.516L51.2581 128.782C51.1622 129.094 51.03 129.31 50.8614 129.432C50.6894 129.553 50.4382 129.615 50.1042 129.615H44.9763C44.8242 129.615 44.7051 129.589 44.6225 129.54C44.5398 129.491 44.4969 129.422 44.4969 129.333C44.4969 129.291 44.5068 129.245 44.5299 129.192C44.5531 129.133 44.5894 129.087 44.639 129.044C44.6886 129.005 44.7448 128.966 44.8043 128.93C44.9201 128.857 45.0159 128.782 45.0887 128.707C45.1614 128.631 45.2242 128.506 45.2738 128.332L46.6062 123.667C46.636 123.572 46.6492 123.483 46.6492 123.394C46.6492 123.316 46.636 123.247 46.6095 123.194C46.5831 123.142 46.55 123.076 46.507 123.004C46.4409 122.909 46.4079 122.833 46.4079 122.778C46.4079 122.755 46.4145 122.715 46.431 122.66C46.4608 122.564 46.5236 122.499 46.6228 122.459C46.722 122.42 46.8707 122.4 47.0757 122.4H49.638C49.7901 122.4 49.9092 122.423 49.9918 122.469C50.0745 122.515 50.1175 122.584 50.1175 122.669C50.1175 122.705 50.1075 122.751 50.0844 122.81C50.0612 122.86 50.0315 122.906 49.9918 122.945C49.9521 122.984 49.9158 123.014 49.8827 123.03C49.8496 123.05 49.8265 123.066 49.8133 123.079C49.6976 123.145 49.6017 123.217 49.5289 123.296C49.4562 123.375 49.3934 123.499 49.3438 123.664L47.9353 128.569H48.6131C48.7817 128.569 48.9239 128.539 49.0429 128.483C49.162 128.424 49.2876 128.316 49.4198 128.159L50.1737 127.269C50.3125 127.112 50.4448 126.994 50.5704 126.922C50.696 126.849 50.8514 126.813 51.0333 126.813C51.2383 126.813 51.3904 126.856 51.4962 126.938L51.4928 126.948Z" fill="#474793"/>
<path d="M57.5631 124.349C58.0656 124.658 58.3169 125.124 58.3169 125.75C58.3169 125.99 58.2739 126.259 58.1847 126.564L57.7383 128.057C57.7317 128.086 57.7284 128.123 57.7284 128.165C57.7284 128.28 57.7747 128.339 57.8706 128.339C57.9565 128.339 58.0326 128.3 58.0954 128.224C58.1582 128.149 58.1979 128.109 58.221 128.109C58.2574 128.109 58.2872 128.136 58.3136 128.185C58.3401 128.234 58.3533 128.293 58.3533 128.359C58.3599 128.552 58.2872 128.752 58.1285 128.956C57.9731 129.159 57.7615 129.323 57.5003 129.455C57.2391 129.586 56.9514 129.648 56.6373 129.648C56.2604 129.648 55.9364 129.579 55.6653 129.441C55.3975 129.304 55.2091 129.104 55.1099 128.834C54.8917 129.094 54.6338 129.294 54.3362 129.435C54.0386 129.576 53.7179 129.645 53.3774 129.645C52.9906 129.645 52.6666 129.573 52.4054 129.422C52.1442 129.271 51.9491 129.084 51.8202 128.848C51.6912 128.615 51.6284 128.365 51.6284 128.106C51.6284 127.991 51.6383 127.88 51.6615 127.771C51.7772 127.273 52.0318 126.899 52.4186 126.646C52.8087 126.393 53.2716 126.265 53.8105 126.265C54.4156 126.265 55.0074 126.361 55.5893 126.548L55.8637 125.832C55.9596 125.53 56.0059 125.294 56.0059 125.127C55.9992 124.953 55.9397 124.825 55.8306 124.736C55.7215 124.651 55.5529 124.605 55.3281 124.605C55.3711 124.72 55.3942 124.838 55.3942 124.963C55.3942 125.229 55.2917 125.462 55.09 125.655C54.885 125.849 54.5941 125.947 54.2172 125.947C53.8601 125.947 53.5824 125.868 53.384 125.714C53.1856 125.56 53.0831 125.366 53.0831 125.133C53.0831 124.773 53.2881 124.474 53.6948 124.234C54.1015 123.995 54.723 123.877 55.5595 123.877C56.396 123.877 57.0638 124.031 57.5664 124.336L57.5631 124.349ZM54.4486 127.404C54.3197 127.558 54.2569 127.725 54.2569 127.906C54.2569 128.021 54.2833 128.116 54.3395 128.188C54.3957 128.26 54.4718 128.296 54.5743 128.296C54.6701 128.296 54.7726 128.257 54.885 128.182C54.9975 128.106 55.0801 127.991 55.1297 127.84L55.3578 127.201C55.2355 127.178 55.0966 127.168 54.9446 127.168C54.7396 127.168 54.5743 127.246 54.4486 127.401V127.404Z" fill="#474793"/>
<path d="M65.4352 124.418C65.7592 124.802 65.9212 125.307 65.9212 125.934C65.9212 126.259 65.8816 126.577 65.8022 126.886C65.5708 127.817 65.1707 128.52 64.6087 128.999C64.0433 129.474 63.3953 129.714 62.6613 129.714C62.248 129.714 61.8876 129.645 61.5868 129.504C61.2859 129.363 61.0446 129.163 60.8627 128.903L60.4693 129.238C60.3172 129.369 60.1684 129.464 60.0229 129.527C59.8775 129.589 59.7088 129.619 59.5204 129.619H59.041C58.8591 129.619 58.7203 129.579 58.6211 129.504C58.5219 129.428 58.4723 129.317 58.4723 129.172C58.4723 129.107 58.4822 129.031 58.5054 128.946L60.3271 123.066C60.3502 123.001 60.3602 122.948 60.3602 122.902C60.3602 122.781 60.2841 122.663 60.132 122.555C60.0593 122.489 60.0097 122.436 59.9799 122.397C59.9502 122.358 59.9469 122.305 59.97 122.24C60.0196 122.072 60.2511 121.928 60.6643 121.8C61.0743 121.675 61.5074 121.61 61.9571 121.61C62.3803 121.61 62.6911 121.692 62.8894 121.852C63.0878 122.016 63.1903 122.233 63.1903 122.509C63.1903 122.66 63.1639 122.81 63.1143 122.965L62.6547 124.438C63.0779 124.041 63.5738 123.844 64.1491 123.844C64.688 123.844 65.1178 124.034 65.4418 124.418H65.4352ZM63.1275 125.632C63.1275 125.301 63.0283 125.133 62.8332 125.133C62.658 125.133 62.496 125.225 62.3406 125.406L61.6331 127.703L61.5669 127.909C61.5306 128.018 61.5107 128.129 61.5107 128.244C61.5107 128.497 61.6298 128.625 61.8711 128.625C62.0463 128.625 62.2117 128.5 62.3737 128.244C62.5324 127.991 62.7109 127.519 62.9093 126.826C63.0547 126.334 63.1275 125.937 63.1275 125.635V125.632Z" fill="#474793"/>
</svg>
