<svg width="83" height="33" viewBox="0 0 83 33" fill="none" xmlns="http://www.w3.org/2000/svg">
<path d="M68.7719 5C65.5452 5 62.5688 6.05833 60.1813 7.84197C57.7937 6.05833 54.8173 5 51.5906 5C48.3639 5 45.3876 6.05833 43 7.84197C40.6124 6.05833 37.6361 5 34.4094 5C31.1827 5 28.2063 6.05833 25.8187 7.84197C23.4312 6.05833 20.4548 5 17.2281 5C9.36996 5 3 11.2678 3 19C3 26.7322 9.36996 33 17.2281 33C20.4548 33 23.4312 31.9417 25.8187 30.158C28.2063 31.9417 31.1827 33 34.4094 33C37.6361 33 40.6124 31.9417 43 30.158C45.3876 31.9417 48.3639 33 51.5906 33C54.8173 33 57.7937 31.9417 60.1813 30.158C62.5688 31.9417 65.5452 33 68.7719 33C76.63 33 83 26.7322 83 19C83 11.2678 76.63 5 68.7719 5Z" fill="#E03434"/>
<path d="M66.7765 1C63.5498 1 60.5735 2.0963 58.1859 3.94395C55.7983 2.0963 52.822 1 49.5953 1C46.3686 1 43.3922 2.0963 41.0046 3.94395C38.6171 2.0963 35.6407 1 32.414 1C29.1873 1 26.2109 2.0963 23.8234 3.94395C21.4358 2.0963 18.4594 1 15.2327 1C7.36996 1 1 7.49275 1 15.4976C1 23.5025 7.36996 30 15.2281 30C18.4548 30 21.4312 28.9037 23.8187 27.0561C26.2063 28.9037 29.1827 30 32.4094 30C35.6361 30 38.6124 28.9037 41 27.0561C43.3876 28.9037 46.3639 30 49.5906 30C52.8173 30 55.7937 28.9037 58.1813 27.0561C60.5688 28.9037 63.5452 30 66.7719 30C74.63 30 81 23.5073 81 15.4976C81 7.48802 74.6347 1 66.7765 1Z" fill="white"/>
<path fill-rule="evenodd" clip-rule="evenodd" d="M0 14.9977C0 6.7163 6.72962 0 15.0354 0C18.2572 0 21.2442 1.01376 23.6918 2.73916C26.1395 1.01376 29.1265 0 32.3483 0C35.57 0 38.557 1.01376 41.0047 2.73916C43.4524 1.01376 46.4394 0 49.6611 0C52.8828 0 55.8698 1.01376 58.3175 2.73916C60.7652 1.01376 63.7522 0 66.9739 0C75.2753 0 82 6.71193 82 14.9977C82 23.2834 75.2707 30 66.9692 30C63.7475 30 60.7605 28.9862 58.3128 27.2608C55.8651 28.9862 52.8782 30 49.6564 30C46.4347 30 43.4477 28.9862 41 27.2608C38.5523 28.9862 35.5653 30 32.3436 30C29.1219 30 26.1349 28.9862 23.6872 27.2608C21.2395 28.9862 18.2525 30 15.0308 30C6.72918 30 0 23.2786 0 14.9977ZM15.0354 1.38483C7.4953 1.38483 1.38746 7.48171 1.38746 14.9977C1.38746 22.5141 7.49574 28.6152 15.0308 28.6152C18.1254 28.6152 20.9782 27.5862 23.2677 25.8512L23.6872 25.5333L24.1067 25.8512C26.3961 27.5862 29.249 28.6152 32.3436 28.6152C35.4382 28.6152 38.291 27.5862 40.5805 25.8512L41 25.5333L41.4195 25.8512C43.709 27.5862 46.5618 28.6152 49.6564 28.6152C52.751 28.6152 55.6039 27.5862 57.8933 25.8512L58.3128 25.5333L58.7323 25.8512C61.0218 27.5862 63.8746 28.6152 66.9692 28.6152C74.5044 28.6152 80.6125 22.5186 80.6125 14.9977C80.6125 7.47675 74.5091 1.38483 66.9739 1.38483C63.8793 1.38483 61.0265 2.41385 58.737 4.14878L58.3175 4.46666L57.898 4.14878C55.6085 2.41385 52.7557 1.38483 49.6611 1.38483C46.5665 1.38483 43.7136 2.41385 41.4242 4.14878L41.0047 4.46666L40.5852 4.14878C38.2957 2.41385 35.4429 1.38483 32.3483 1.38483C29.2536 1.38483 26.4008 2.41385 24.1113 4.14878L23.6918 4.46666L23.2724 4.14878C20.9829 2.41385 18.1301 1.38483 15.0354 1.38483Z" fill="#E03434"/>
<path d="M22.6441 13.6385C22.1396 13.3944 21.7432 13.0376 21.4459 12.5634C21.1486 12.0892 21 11.5164 21 10.8451C21 10.3756 21.0811 9.86854 21.2342 9.31925C21.5811 8.14554 22.1036 7.30047 22.8018 6.77934C23.5 6.25822 24.2477 6 25.045 6C25.473 6 25.8514 6.06573 26.1802 6.20188C26.509 6.33803 26.8153 6.52582 27.0901 6.77465L27.3964 6.52582C27.5991 6.3615 27.7703 6.24883 27.9099 6.18779C28.0496 6.12676 28.2027 6.0939 28.3784 6.0939C28.5676 6.0939 28.7162 6.13615 28.8288 6.22535C28.9414 6.31455 29 6.43662 29 6.60094C29 6.68545 28.9865 6.77465 28.955 6.85915L28.3243 8.69014C28.2568 8.90141 28.1757 9.05164 28.0811 9.13615C27.9865 9.22066 27.8468 9.26291 27.6577 9.26291C27.4685 9.26291 27.3018 9.19249 27.1802 9.04695C27.0586 8.90141 26.9144 8.65258 26.7568 8.30047C26.5766 7.93427 26.4324 7.69014 26.3198 7.57277C26.2072 7.4554 26.0405 7.39437 25.8243 7.39437C25.518 7.39437 25.2207 7.59155 24.9324 7.98592C24.6486 8.38028 24.3874 8.97183 24.1532 9.76526C23.9595 10.4319 23.8604 10.9859 23.8604 11.4319C23.8604 11.8216 23.9324 12.1127 24.0766 12.3052C24.2207 12.4977 24.4099 12.5915 24.6486 12.5915C25 12.5915 25.2928 12.507 25.5225 12.3427C25.7523 12.1784 25.9865 11.9531 26.2252 11.6761C26.3739 11.5023 26.4955 11.3756 26.5901 11.2958C26.6847 11.216 26.7838 11.1737 26.8874 11.1737C27.0225 11.1737 27.1667 11.2441 27.3153 11.385C27.464 11.5258 27.536 11.6667 27.5315 11.8075C27.5405 11.9812 27.4054 12.2441 27.1306 12.6056C26.8559 12.9671 26.4775 13.2864 25.991 13.5728C25.509 13.8592 24.955 14 24.3423 14C23.7297 14 23.1441 13.8779 22.6396 13.6338L22.6441 13.6385Z" fill="#E03434"/>
<path d="M32.7115 5.268C32.9038 5.44829 33 5.69193 33 5.99892C33 6.17921 32.9749 6.34976 32.9289 6.52518L31.2896 12.738C31.2687 12.8354 31.2562 12.9231 31.2562 12.9913C31.2562 13.0985 31.2729 13.1814 31.3063 13.2398C31.3398 13.2983 31.39 13.3617 31.4527 13.4153C31.5029 13.4737 31.5363 13.5176 31.5573 13.5566C31.5782 13.5907 31.5824 13.6394 31.5656 13.6979C31.5322 13.8051 31.4611 13.8831 31.3565 13.9269C31.252 13.9756 31.0931 14 30.8756 14H28.492C28.3121 14 28.1783 13.9659 28.0947 13.8977C28.011 13.8295 27.9818 13.7369 28.011 13.6248C28.0403 13.5273 28.1114 13.4396 28.2285 13.3714C28.333 13.3081 28.4209 13.2301 28.4878 13.1375C28.5589 13.0498 28.6174 12.9085 28.6676 12.7087L30.2567 6.63238C30.2776 6.55929 30.2902 6.49594 30.2902 6.44721C30.2902 6.3595 30.2692 6.28641 30.2316 6.22794C30.194 6.16946 30.1438 6.11586 30.0811 6.05739C30.01 5.99404 29.9598 5.93557 29.9305 5.88684C29.9012 5.83812 29.8929 5.77477 29.9138 5.69193C29.9556 5.50677 30.1731 5.34109 30.5745 5.20466C30.976 5.06822 31.3858 5 31.8207 5C32.2264 5 32.5233 5.08771 32.7156 5.268H32.7115Z" fill="#E03434"/>
<path d="M39.0608 12.3563C39.0483 12.4143 39.04 12.4588 39.04 12.49C39.04 12.5434 39.0525 12.5835 39.0775 12.6147C39.1026 12.6459 39.136 12.6592 39.1777 12.6592C39.2612 12.6592 39.3321 12.6192 39.3906 12.5434C39.449 12.4633 39.4908 12.4276 39.5116 12.4276C39.545 12.4276 39.5742 12.4499 39.5993 12.4989C39.6243 12.5479 39.6369 12.6058 39.6369 12.6726C39.6452 12.882 39.5742 13.0869 39.4281 13.2918C39.2821 13.4967 39.0775 13.6659 38.8104 13.7996C38.5474 13.9332 38.251 14 37.9255 14C37.5164 14 37.1866 13.9109 36.9445 13.7327C36.7024 13.5546 36.5438 13.3229 36.477 13.029C36.2266 13.3274 35.9511 13.5501 35.6464 13.7016C35.3417 13.853 35.037 13.9287 34.7239 13.9287C34.2355 13.9287 33.8265 13.7996 33.4967 13.5457C33.167 13.2873 33 12.931 33 12.4722C33 12.2628 33.0334 12.049 33.1044 11.8263L33.7722 9.50111C33.7931 9.4343 33.8056 9.37639 33.8056 9.33185C33.8056 9.25167 33.7889 9.18485 33.7555 9.13586C33.7221 9.08686 33.6679 9.03786 33.5969 8.98441C33.5259 8.9265 33.48 8.87305 33.4508 8.82851C33.4216 8.78396 33.4216 8.72606 33.4425 8.65033C33.4842 8.48107 33.7013 8.32962 34.102 8.20045C34.4985 8.07127 34.9117 8.00445 35.3417 8.00445C35.7466 8.00445 36.0429 8.08463 36.2266 8.24944C36.4144 8.41425 36.5104 8.63697 36.5104 8.91759C36.5104 9.08686 36.4854 9.25167 36.4353 9.40757L35.78 11.7238C35.7507 11.804 35.7382 11.8842 35.7382 11.9599C35.7382 12.0624 35.7674 12.1425 35.8217 12.1915C35.876 12.245 35.9511 12.2673 36.0388 12.2673C36.1723 12.2673 36.2767 12.2272 36.3602 12.147C36.4437 12.0668 36.5271 11.9287 36.6106 11.7372L37.2451 9.49666C37.266 9.42984 37.2785 9.37194 37.2785 9.32739C37.2785 9.24722 37.2618 9.1804 37.2284 9.1314C37.195 9.0824 37.1449 9.03341 37.0823 8.97996C37.0113 8.92205 36.9654 8.8686 36.9362 8.82405C36.907 8.77951 36.9028 8.7216 36.9278 8.64588C36.9612 8.47662 37.1783 8.32517 37.5748 8.19599C37.9714 8.06681 38.3846 8 38.8187 8C39.2236 8 39.52 8.08018 39.712 8.24499C39.904 8.4098 40 8.62806 40 8.89978C40 9.04232 39.9708 9.20713 39.9165 9.39866L39.0733 12.3474L39.0608 12.3563Z" fill="#E03434"/>
<path d="M47.4801 8.1139C47.8267 8.53743 48 9.10053 48 9.7984C48 10.1594 47.9578 10.5107 47.8688 10.8572C47.6206 11.892 47.1897 12.6717 46.5855 13.2059C45.9813 13.7353 45.2834 14 44.4965 14C44.0515 14 43.6674 13.923 43.3443 13.7642C43.0211 13.6053 42.7588 13.384 42.5667 13.0952L42.1452 13.4706C41.9813 13.615 41.822 13.7209 41.6628 13.7882C41.5082 13.8556 41.3255 13.8893 41.1241 13.8893H40.6089C40.4122 13.8893 40.2623 13.846 40.1592 13.7642C40.0562 13.6824 40 13.5572 40 13.3984C40 13.3262 40.0094 13.2444 40.0375 13.1481L41.9906 6.6123C42.0141 6.54011 42.0281 6.47754 42.0281 6.42941C42.0281 6.29465 41.9438 6.16471 41.7799 6.04439C41.7002 5.97219 41.6487 5.91444 41.6159 5.87112C41.5831 5.82781 41.5785 5.77005 41.6019 5.69786C41.6581 5.51497 41.9063 5.35134 42.3466 5.21176C42.7869 5.07219 43.2506 5 43.733 5C44.1874 5 44.5199 5.09144 44.7354 5.26952C44.9508 5.44759 45.0585 5.69305 45.0585 5.99626C45.0585 6.16471 45.0304 6.33316 44.9789 6.5016L44.4871 8.13797C44.9415 7.69519 45.4754 7.4738 46.089 7.4738C46.6651 7.4738 47.1288 7.68556 47.4754 8.1139H47.4801ZM45.0023 9.4615C45.0023 9.09091 44.8993 8.90802 44.6885 8.90802C44.5012 8.90802 44.3279 9.00909 44.1639 9.20642L43.4052 11.7572L43.3349 11.9834C43.2974 12.1037 43.2787 12.2289 43.2787 12.3588C43.2787 12.638 43.4052 12.7824 43.6628 12.7824C43.8501 12.7824 44.0281 12.6428 44.2014 12.3588C44.3747 12.0797 44.5621 11.5551 44.7728 10.7802C44.9274 10.2364 45.007 9.79358 45.007 9.45669L45.0023 9.4615Z" fill="#E03434"/>
<path d="M59.5828 8.61845C59.8624 8.82478 60 9.11463 60 9.4929C60 9.97434 59.8533 10.3133 59.5598 10.5147C59.2664 10.7112 58.9592 10.8095 58.6382 10.8095C58.5236 10.8095 58.4365 10.7849 58.3723 10.7309C58.3081 10.6769 58.2485 10.5933 58.1889 10.4803C58.1293 10.3723 58.0743 10.2986 58.0238 10.2544C57.9734 10.2102 57.9046 10.1856 57.8129 10.1856C57.8038 10.1856 57.7671 10.1856 57.6937 10.1807C57.6204 10.1807 57.5241 10.2347 57.4003 10.3575L57.1619 10.5884L57.7579 11.2271C57.9734 11.458 58.1339 11.7036 58.2439 11.964C58.354 12.2243 58.409 12.4896 58.409 12.75C58.409 12.9121 58.3861 13.0693 58.3402 13.2167C58.2027 13.7571 57.8909 14.1894 57.4049 14.5136C56.9188 14.8379 56.3503 15 55.6901 15C55.2545 15 54.8464 14.946 54.4704 14.833C54.0899 14.7249 53.9019 14.5628 53.9019 14.3614C53.9019 14.3368 53.911 14.3024 53.9248 14.2533C53.9477 14.1796 53.9982 14.1206 54.0807 14.0764C54.1586 14.0322 54.2366 14.0076 54.3054 14.0076L54.718 14.0322C54.9152 14.0322 55.0848 13.9733 55.2224 13.8603C55.3599 13.7473 55.4333 13.5852 55.4425 13.3788C55.4425 13.1676 55.3141 12.9023 55.0527 12.583L54.961 12.6714C54.5392 13.0644 54.1403 13.3493 53.7597 13.5262C53.3792 13.7031 52.9207 13.7915 52.3842 13.7915C51.6277 13.7915 51.0408 13.6294 50.6236 13.315C50.2063 12.9956 50 12.5781 50 12.0622C50 11.8903 50.0321 11.6987 50.0917 11.4825C50.2659 10.893 50.6052 10.4705 51.105 10.2102C51.6048 9.94978 52.1596 9.82697 52.7602 9.83679L52.4392 9.4536C52.1733 9.13428 52.0358 8.74618 52.0358 8.28439C52.0358 7.8226 52.155 7.43941 52.398 7.09552C52.6364 6.75164 52.994 6.48144 53.4617 6.28985C53.9294 6.09825 54.4934 6 55.1536 6C55.7726 6 56.2678 6.13264 56.6392 6.40775C57.0105 6.67795 57.1939 7.02675 57.1939 7.44924C57.1939 7.80786 57.0702 8.1321 56.8226 8.41703C56.575 8.70197 56.2265 8.93286 55.7726 9.1048L56.4145 9.79258L57.2169 9.03111C57.4828 8.77566 57.7304 8.59389 57.9597 8.48581C58.1889 8.37282 58.4273 8.31878 58.6703 8.31878C59.0005 8.31878 59.3031 8.42194 59.5828 8.62336V8.61845ZM52.8152 11.566C52.8152 11.7282 52.8702 11.8608 52.9757 11.9541C53.0812 12.0475 53.237 12.0966 53.4342 12.0966C53.6864 12.0966 53.9844 11.9689 54.3283 11.7134L53.503 10.7211C53.3196 10.7948 53.1729 10.8881 53.0582 11.006C52.9436 11.1239 52.8702 11.2369 52.8381 11.3597C52.8244 11.458 52.8152 11.5267 52.8152 11.566ZM54.7914 7.18886C54.6905 7.29203 54.6355 7.42467 54.6355 7.58679C54.6355 7.7833 54.7226 7.96998 54.9014 8.15175L55.094 8.36299C55.2636 8.2893 55.4058 8.18614 55.525 8.05841C55.6442 7.93068 55.7176 7.7833 55.7497 7.62609C55.7588 7.60153 55.7588 7.56714 55.7588 7.5131C55.7588 7.38046 55.7084 7.26747 55.6075 7.17413C55.5067 7.08079 55.3783 7.03166 55.2178 7.03166C55.0344 7.03166 54.8923 7.08079 54.7868 7.18395L54.7914 7.18886Z" fill="#E03434"/>
<path d="M20.3012 16.1609C20.6473 16.2698 21.0022 16.4355 21.3571 16.6627L21.6068 16.4402C21.782 16.2888 21.9266 16.1894 22.0405 16.1325C22.1544 16.0757 22.2815 16.0521 22.4304 16.0521C22.6057 16.0521 22.7459 16.0947 22.8467 16.1751C22.9474 16.2556 23 16.3787 23 16.5349C23 16.5965 22.9912 16.6627 22.965 16.7337L22.5049 18.3669C22.4524 18.5562 22.391 18.6888 22.3122 18.7692C22.2333 18.8497 22.1194 18.8876 21.966 18.8876C21.8127 18.8876 21.6637 18.8355 21.5455 18.7266C21.4272 18.6178 21.2388 18.4 20.9803 18.0686C20.7262 17.7515 20.494 17.529 20.2837 17.4012C20.0734 17.2734 19.8631 17.2071 19.644 17.2071C19.4819 17.2071 19.3461 17.2639 19.2366 17.3775C19.1271 17.4911 19.0701 17.6331 19.0701 17.7988C19.0701 17.9882 19.1577 18.1633 19.333 18.3243C19.5082 18.4852 19.7798 18.6888 20.1566 18.9349C20.5378 19.1811 20.8489 19.3988 21.0986 19.5976C21.3483 19.7965 21.5586 20.0379 21.7338 20.3314C21.9091 20.6249 21.9967 20.9609 21.9967 21.3349C21.9967 21.5811 21.9617 21.8225 21.8872 22.0686C21.7119 22.6982 21.3702 23.1811 20.8664 23.5077C20.3625 23.8343 19.7755 24 19.1051 24C18.6013 24 18.1763 23.9385 17.8346 23.8106C17.4929 23.6828 17.1424 23.4698 16.7831 23.1716L16.3888 23.5266C16.2048 23.6923 16.0559 23.8059 15.942 23.8627C15.828 23.9195 15.6922 23.9527 15.5476 23.9527C15.3812 23.9527 15.2453 23.9101 15.149 23.8201C15.0482 23.7349 15 23.6166 15 23.4651C15 23.3846 15.0131 23.3041 15.0438 23.2189L15.5783 21.4533C15.6353 21.2497 15.7185 21.103 15.8193 21.0178C15.92 20.9325 16.0515 20.8899 16.2136 20.8899C16.3757 20.8899 16.5334 20.9515 16.6692 21.0793C16.805 21.2071 16.9803 21.4343 17.1993 21.7657C17.4315 22.1302 17.6506 22.3811 17.8521 22.5231C18.0537 22.6651 18.2903 22.7361 18.5706 22.7361C18.7678 22.7361 18.9211 22.703 19.0263 22.6367C19.1314 22.5704 19.2059 22.4615 19.2497 22.3101C19.2629 22.2722 19.2716 22.2107 19.2716 22.1302C19.2716 21.9408 19.1884 21.7657 19.0175 21.6095C18.851 21.4533 18.5882 21.2639 18.2421 21.0414C17.8697 20.7953 17.5674 20.5775 17.3308 20.3834C17.0942 20.1893 16.8927 19.9479 16.7218 19.6544C16.5509 19.3609 16.4633 19.0201 16.4633 18.6272C16.4633 18.3527 16.5027 18.0781 16.5816 17.813C16.7349 17.2686 17.0504 16.8284 17.5235 16.497C17.9967 16.1657 18.5444 16 19.1577 16C19.5652 16 19.9463 16.0521 20.2924 16.1609H20.3012Z" fill="#E03434"/>
<path d="M27.888 17.6129C27.9612 17.6772 28 17.7712 28 17.885C28 17.9196 27.9914 17.974 27.9785 18.0581C27.8837 18.4193 27.6684 18.6024 27.3325 18.6024H26.708L25.8984 21.6549C25.8639 21.7786 25.8467 21.9072 25.8467 22.0408C25.8467 22.1892 25.8811 22.2931 25.9543 22.3476C26.0276 22.4069 26.1266 22.4317 26.2558 22.4317C26.3721 22.4317 26.5142 22.4168 26.6865 22.3822C26.7726 22.3575 26.8501 22.3426 26.9104 22.3426C26.9621 22.3426 26.9966 22.3624 27.0224 22.397C27.0482 22.4366 27.0612 22.4811 27.0612 22.5405C27.0698 22.7038 26.9621 22.9066 26.7425 23.1391C26.5228 23.3766 26.2257 23.5745 25.8553 23.7477C25.4806 23.9159 25.0672 24 24.615 24C24.1283 24 23.7364 23.8714 23.4393 23.619C23.1464 23.3618 23 23.0105 23 22.5702C23 22.3624 23.0301 22.1645 23.0861 21.9765L23.7752 19.5275C23.8096 19.389 23.8269 19.2752 23.8269 19.196C23.8269 19.0328 23.7924 18.8893 23.7235 18.7755C23.6546 18.6617 23.5599 18.538 23.4393 18.4143C23.3316 18.3006 23.2541 18.2016 23.2153 18.1224C23.1723 18.0433 23.1637 17.9493 23.1809 17.8454C23.211 17.7365 23.2713 17.6574 23.3618 17.598C23.4565 17.5387 23.6029 17.509 23.8053 17.509H24.4083L25.0844 16.7322C25.3213 16.4601 25.5366 16.2721 25.7347 16.1633C25.9328 16.0544 26.1869 16 26.5056 16C26.9578 16 27.1817 16.1979 27.1817 16.5937C27.1817 16.7174 27.1688 16.8312 27.1387 16.94L26.9879 17.509H27.5564C27.6942 17.509 27.7976 17.5436 27.8751 17.6079L27.888 17.6129Z" fill="#E03434"/>
<path d="M34.1766 17.5575C34.6993 17.9309 34.9629 18.4989 34.9629 19.2615C34.9629 19.5507 34.9175 19.8768 34.8266 20.2502L34.3584 22.0646C34.3494 22.1014 34.3493 22.1435 34.3493 22.1961C34.3493 22.3381 34.3993 22.4065 34.4993 22.4065C34.5902 22.4065 34.6675 22.3591 34.7311 22.2697C34.7948 22.1803 34.8402 22.133 34.8629 22.133C34.8993 22.133 34.9311 22.1645 34.9584 22.2224C34.9856 22.2802 34.9993 22.3539 34.9993 22.4328C35.0084 22.6694 34.9311 22.9113 34.7675 23.1585C34.6039 23.4057 34.3857 23.6056 34.113 23.7633C33.8403 23.9211 33.5403 24 33.2131 24C32.8177 24 32.4814 23.9159 32.1996 23.7476C31.9178 23.5793 31.7269 23.3373 31.6224 23.0113C31.3951 23.3268 31.127 23.5687 30.8179 23.7423C30.5088 23.9106 30.1725 24 29.818 24C29.418 24 29.0817 23.9106 28.809 23.7318C28.5363 23.553 28.3318 23.3216 28.2 23.0323C28.0682 22.7483 28 22.4485 28 22.133C28 21.991 28.0136 21.8542 28.0364 21.7228C28.1591 21.118 28.4227 20.6604 28.8272 20.3554C29.2317 20.0503 29.7135 19.8926 30.277 19.8926C30.9042 19.8926 31.5224 20.0083 32.1314 20.2344L32.4132 19.3666C32.5132 18.9985 32.5632 18.7145 32.5632 18.5146C32.5541 18.3043 32.495 18.1465 32.3814 18.0413C32.2677 17.9361 32.095 17.8835 31.8587 17.8835C31.9041 18.0255 31.9269 18.1675 31.9269 18.3201C31.9269 18.6461 31.8223 18.9249 31.6087 19.1615C31.3951 19.3982 31.0951 19.5139 30.6997 19.5139C30.327 19.5139 30.0407 19.4192 29.8316 19.2299C29.6226 19.0406 29.518 18.8092 29.518 18.5252C29.518 18.0887 29.7316 17.7258 30.1543 17.4313C30.577 17.142 31.2269 17 32.095 17C32.9631 17 33.6631 17.1841 34.1857 17.5575H34.1766ZM30.9315 21.2652C30.7997 21.4545 30.7315 21.6597 30.7315 21.8753C30.7315 22.0173 30.7588 22.1277 30.8179 22.2171C30.877 22.3065 30.9542 22.3486 31.0633 22.3486C31.1633 22.3486 31.2678 22.3013 31.386 22.2119C31.5042 22.1225 31.5905 21.9805 31.6405 21.7964L31.8769 21.018C31.7496 20.9917 31.6042 20.976 31.4451 20.976C31.2315 20.976 31.0588 21.0706 30.927 21.26L30.9315 21.2652Z" fill="#E03434"/>
<path d="M41.6405 17.4392C41.8802 17.7407 42 18.1111 42 18.5503C42 18.7196 41.9872 18.873 41.9572 19.0159C41.8844 19.3757 41.7518 19.6561 41.5506 19.8519C41.3495 20.0476 41.1141 20.1429 40.8359 20.1429C40.5577 20.1429 40.3608 20.0635 40.2196 19.9048C40.0783 19.746 39.9585 19.5344 39.8515 19.2698C39.7959 19.1217 39.7402 19.0106 39.6889 18.9418C39.6375 18.873 39.5819 18.836 39.5177 18.836C39.4449 18.836 39.385 18.873 39.3294 18.9418C39.2737 19.0106 39.2266 19.1376 39.1838 19.3122L38.3621 22.619C38.3493 22.6614 38.3407 22.7302 38.3407 22.8201C38.3407 22.9365 38.3664 23.0317 38.422 23.1058C38.4777 23.1799 38.5504 23.254 38.6403 23.3228C38.7259 23.3915 38.7815 23.4497 38.8115 23.4974C38.8415 23.5397 38.85 23.5979 38.8457 23.672C38.8329 23.7884 38.7815 23.873 38.6917 23.9206C38.6018 23.9735 38.452 24 38.238 24H35.4989C35.3148 24 35.1779 23.963 35.0966 23.8889C35.0152 23.8148 34.9853 23.7143 35.0067 23.5926C35.0366 23.4868 35.1094 23.3915 35.2292 23.3175C35.3362 23.2487 35.4261 23.164 35.4946 23.0635C35.5674 22.9683 35.6273 22.8148 35.6786 22.5979L36.6288 18.7778C36.6416 18.7355 36.6502 18.672 36.6502 18.5926C36.6502 18.4974 36.633 18.418 36.6031 18.3651C36.5731 18.3122 36.5175 18.2487 36.449 18.164C36.3762 18.0952 36.3292 18.0317 36.2992 17.9788C36.2692 17.9259 36.2693 17.8571 36.2906 17.7672C36.3334 17.5661 36.556 17.3862 36.9669 17.2328C37.3735 17.0794 37.7972 17 38.238 17C38.529 17 38.773 17.0794 38.9656 17.2434C39.1582 17.4074 39.2823 17.6402 39.3422 17.9365C39.6846 17.3122 40.134 17 40.6904 17C41.0884 17 41.4094 17.1481 41.6491 17.4497L41.6405 17.4392Z" fill="#E03434"/>
<path d="M47.8656 17.6129C47.9535 17.6772 48 17.7712 48 17.885C48 17.9196 47.9897 17.974 47.9742 18.0581C47.8605 18.4193 47.6021 18.6024 47.199 18.6024H46.4496L45.478 21.6549C45.4367 21.7786 45.416 21.9072 45.416 22.0408C45.416 22.1892 45.4574 22.2931 45.5452 22.3476C45.6331 22.4069 45.7519 22.4317 45.907 22.4317C46.0465 22.4317 46.2171 22.4168 46.4238 22.3822C46.5271 22.3575 46.6202 22.3426 46.6925 22.3426C46.7545 22.3426 46.7959 22.3624 46.8269 22.397C46.8579 22.4366 46.8734 22.4811 46.8734 22.5405C46.8837 22.7038 46.7545 22.9066 46.491 23.1391C46.2274 23.3766 45.8708 23.5745 45.4264 23.7477C44.9767 23.9159 44.4806 24 43.938 24C43.354 24 42.8837 23.8714 42.5271 23.619C42.1757 23.3618 42 23.0105 42 22.5702C42 22.3624 42.0362 22.1645 42.1034 21.9765L42.9302 19.5275C42.9716 19.389 42.9922 19.2752 42.9922 19.196C42.9922 19.0328 42.9509 18.8893 42.8682 18.7755C42.7855 18.6617 42.6718 18.538 42.5271 18.4143C42.3979 18.3006 42.3049 18.2016 42.2584 18.1224C42.2067 18.0433 42.1964 17.9493 42.2171 17.8454C42.2532 17.7365 42.3256 17.6574 42.4341 17.598C42.5478 17.5387 42.7235 17.509 42.9664 17.509H43.6899L44.5013 16.7322C44.7855 16.4601 45.0439 16.2721 45.2817 16.1633C45.5194 16.0544 45.8243 16 46.2067 16C46.7494 16 47.0181 16.1979 47.0181 16.5937C47.0181 16.7174 47.0026 16.8312 46.9664 16.94L46.7855 17.509H47.4677C47.6331 17.509 47.7571 17.5436 47.8501 17.6079L47.8656 17.6129Z" fill="#E03434"/>
<path d="M56.0608 22.0824C56.0483 22.15 56.04 22.2019 56.04 22.2383C56.04 22.3007 56.0525 22.3474 56.0775 22.3838C56.1026 22.4202 56.136 22.4358 56.1777 22.4358C56.2612 22.4358 56.3321 22.389 56.3906 22.3007C56.449 22.2071 56.4908 22.1656 56.5116 22.1656C56.545 22.1656 56.5742 22.1915 56.5993 22.2487C56.6243 22.3059 56.6369 22.3734 56.6369 22.4514C56.6452 22.6956 56.5742 22.9347 56.4281 23.1737C56.2821 23.4128 56.0775 23.6102 55.8104 23.7661C55.5474 23.922 55.251 24 54.9255 24C54.5164 24 54.1866 23.8961 53.9445 23.6882C53.7024 23.4803 53.5438 23.2101 53.477 22.8671C53.2266 23.2153 52.9511 23.4751 52.6464 23.6518C52.3417 23.8285 52.037 23.9169 51.7239 23.9169C51.2355 23.9169 50.8265 23.7661 50.4967 23.4699C50.167 23.1685 50 22.7528 50 22.2175C50 21.9733 50.0334 21.7238 50.1044 21.464L50.7722 18.7513C50.7931 18.6733 50.8056 18.6058 50.8056 18.5538C50.8056 18.4603 50.7889 18.3823 50.7555 18.3252C50.7221 18.268 50.6679 18.2108 50.5969 18.1485C50.5259 18.0809 50.48 18.0186 50.4508 17.9666C50.4216 17.9146 50.4216 17.8471 50.4425 17.7587C50.4842 17.5612 50.7013 17.3846 51.102 17.2339C51.4985 17.0831 51.9117 17.0052 52.3417 17.0052C52.7466 17.0052 53.0429 17.0987 53.2266 17.291C53.4144 17.4833 53.5104 17.7431 53.5104 18.0705C53.5104 18.268 53.4854 18.4603 53.4353 18.6422L52.78 21.3445C52.7507 21.438 52.7382 21.5316 52.7382 21.6199C52.7382 21.7394 52.7674 21.833 52.8217 21.8901C52.876 21.9525 52.9511 21.9785 53.0388 21.9785C53.1723 21.9785 53.2767 21.9317 53.3602 21.8382C53.4437 21.7446 53.5271 21.5835 53.6106 21.3601L54.2451 18.7461C54.266 18.6682 54.2785 18.6006 54.2785 18.5486C54.2785 18.4551 54.2618 18.3771 54.2284 18.32C54.195 18.2628 54.1449 18.2056 54.0823 18.1433C54.0113 18.0757 53.9654 18.0134 53.9362 17.9614C53.907 17.9094 53.9028 17.8419 53.9278 17.7535C53.9612 17.5561 54.1783 17.3794 54.5748 17.2287C54.9714 17.078 55.3846 17 55.8187 17C56.2236 17 56.52 17.0935 56.712 17.2858C56.904 17.4781 57 17.7327 57 18.0497C57 18.216 56.9708 18.4083 56.9165 18.6318L56.0733 22.072L56.0608 22.0824Z" fill="#E03434"/>
<path d="M64.4939 17.6421C64.8298 18.0653 65 18.6427 65 19.3695C65 19.7577 64.9494 20.1709 64.8482 20.604C64.6181 21.6344 64.1902 22.4159 63.5599 22.9486C62.9296 23.4862 62.2026 23.75 61.3744 23.75C60.8453 23.75 60.3852 23.6305 59.9941 23.3916L59.6261 24.7207C59.5938 24.8103 59.58 24.8999 59.58 24.9845C59.58 25.0741 59.5985 25.1538 59.6353 25.2135C59.6721 25.2732 59.7227 25.3379 59.7871 25.3927C59.8469 25.4574 59.8883 25.5122 59.9067 25.552C59.9251 25.5918 59.9297 25.6416 59.9113 25.7013C59.8791 25.8108 59.8055 25.8855 59.6905 25.9303C59.5754 25.9751 59.4006 26 59.1614 26H56.525C56.3272 26 56.1799 25.9652 56.0925 25.8955C56.0051 25.8258 55.9775 25.7362 56.0189 25.6267C56.0327 25.5619 56.0603 25.5072 56.0971 25.4624C56.1339 25.4226 56.1891 25.3827 56.2581 25.3529C56.3732 25.2683 56.4652 25.1836 56.5342 25.099C56.6032 25.0144 56.663 24.875 56.7182 24.6809L58.3976 18.7223C58.4206 18.6477 58.4344 18.583 58.4344 18.5332C58.4344 18.4436 58.416 18.3689 58.3792 18.3142C58.3424 18.2594 58.2826 18.2046 58.2044 18.1449C58.1261 18.0802 58.0755 18.0205 58.0433 17.9707C58.0111 17.9209 58.0065 17.8562 58.0341 17.7716C58.0801 17.5824 58.3194 17.4132 58.7565 17.2688C59.1936 17.1244 59.6491 17.0498 60.1276 17.0498C60.4634 17.0498 60.7441 17.1394 60.9603 17.3236C61.1766 17.5077 61.3054 17.7616 61.333 18.0802C61.8529 17.3584 62.4419 17 63.0952 17C63.6841 17 64.1488 17.2091 64.4847 17.6372L64.4939 17.6421ZM62.0416 19.1753C62.0416 19.0011 62.0186 18.8866 61.968 18.8319C61.9173 18.7771 61.8483 18.7522 61.7563 18.7522C61.6873 18.7522 61.5999 18.7871 61.4941 18.8567C61.3882 18.9264 61.2778 19.0459 61.172 19.2102L60.261 22.4707C60.353 22.5702 60.4634 22.62 60.5969 22.62C60.8039 22.62 61.0018 22.4956 61.1904 22.2417C61.379 21.9878 61.5723 21.4751 61.7701 20.7035C61.9542 19.9668 62.0462 19.4541 62.0462 19.1753H62.0416Z" fill="#E03434"/>
</svg>
