<svg width="82" height="32" viewBox="0 0 82 32" fill="none" xmlns="http://www.w3.org/2000/svg">
<path d="M68.1276 4C64.9816 4 62.0796 5.02053 59.7517 6.74047C57.4239 5.02053 54.5219 4 51.3759 4C48.2298 4 45.3279 5.02053 43 6.74047C40.6721 5.02053 37.7702 4 34.6241 4C31.4781 4 28.5761 5.02053 26.2483 6.74047C23.9204 5.02053 21.0184 4 17.8724 4C10.2107 4 4 10.044 4 17.5C4 24.956 10.2107 31 17.8724 31C21.0184 31 23.9204 29.9795 26.2483 28.2595C28.5761 29.9795 31.4781 31 34.6241 31C37.7702 31 40.6721 29.9795 43 28.2595C45.3279 29.9795 48.2298 31 51.3759 31C54.5219 31 57.4239 29.9795 59.7517 28.2595C62.0796 29.9795 64.9816 31 68.1276 31C75.7893 31 82 24.956 82 17.5C82 10.044 75.7893 4 68.1276 4Z" fill="#29561B"/>
<path fill-rule="evenodd" clip-rule="evenodd" d="M3 17.5C3 9.4882 9.49477 3 17.4991 3C20.5993 3 23.4745 3.97509 25.8327 5.63576C28.191 3.97509 31.0661 3 34.1664 3C37.2666 3 40.1418 3.97509 42.5 5.63576C44.8582 3.97509 47.7334 3 50.8336 3C53.9338 3 56.809 3.97509 59.1673 5.63576C61.5255 3.97509 64.4007 3 67.5009 3C75.5052 3 82 9.4882 82 17.5C82 25.5118 75.5052 32 67.5009 32C64.4007 32 61.5255 31.0249 59.1673 29.3642C56.809 31.0249 53.9338 32 50.8336 32C47.7334 32 44.8582 31.0249 42.5 29.3642C40.1418 31.0249 37.2666 32 34.1664 32C31.0661 32 28.191 31.0249 25.8327 29.3642C23.4745 31.0249 20.5993 32 17.4991 32C9.49477 32 3 25.5118 3 17.5ZM17.4991 4.40036C10.2573 4.40036 4.39323 10.2686 4.39323 17.5C4.39323 24.7314 10.2573 30.5996 17.4991 30.5996C20.4728 30.5996 23.2136 29.6091 25.4129 27.9397L25.8327 27.6211L26.2525 27.9397C28.4518 29.6091 31.1927 30.5996 34.1664 30.5996C37.14 30.5996 39.8809 29.6091 42.0802 27.9397L42.5 27.6211L42.9198 27.9397C45.1191 29.6091 47.86 30.5996 50.8336 30.5996C53.8073 30.5996 56.5482 29.6091 58.7475 27.9397L59.1673 27.6211L59.5871 27.9397C61.7864 29.6091 64.5272 30.5996 67.5009 30.5996C74.7427 30.5996 80.6068 24.7314 80.6068 17.5C80.6068 10.2686 74.7427 4.40036 67.5009 4.40036C64.5272 4.40036 61.7864 5.39085 59.5871 7.06026L59.1673 7.37893L58.7475 7.06026C56.5482 5.39085 53.8073 4.40036 50.8336 4.40036C47.86 4.40036 45.1191 5.39085 42.9198 7.06026L42.5 7.37893L42.0802 7.06026C39.8809 5.39085 37.14 4.40036 34.1664 4.40036C31.1927 4.40036 28.4518 5.39085 26.2525 7.06026L25.8327 7.37893L25.4129 7.06026C23.2136 5.39085 20.4728 4.40036 17.4991 4.40036Z" fill="#2D572A"/>
<path d="M65.1367 0C61.9906 0 59.0887 1.05833 56.7608 2.84197C54.4329 1.05833 51.5309 0 48.3849 0C45.2389 0 42.3369 1.05833 40.009 2.84197C37.6812 1.05833 34.7792 0 31.6332 0C28.4871 0 25.5852 1.05833 23.2573 2.84197C20.9294 1.05833 18.0275 0 14.8814 0C7.21071 0 1 6.26784 1 14C1 21.7322 7.21071 28 14.8724 28C18.0184 28 20.9204 26.9417 23.2483 25.158C25.5761 26.9417 28.4781 28 31.6241 28C34.7702 28 37.6721 26.9417 40 25.158C42.3279 26.9417 45.2298 28 48.3759 28C51.5219 28 54.4239 26.9417 56.7517 25.158C59.0796 26.9417 61.9816 28 65.1276 28C72.7893 28 79 21.7322 79 14C79 6.26784 72.7938 0 65.1367 0Z" fill="white"/>
<path fill-rule="evenodd" clip-rule="evenodd" d="M0 14.5C0 6.48791 6.57728 0 14.6917 0C17.8312 0 20.7427 0.975086 23.1308 2.63576C25.5189 0.975086 28.4305 0 31.57 0C34.7094 0 37.621 0.975087 40.0091 2.63576C42.3972 0.975087 45.3088 0 48.4482 0C51.5877 0 54.4993 0.975086 56.8874 2.63576C59.2755 0.975086 62.1871 0 65.3265 0C73.428 0 80 6.48865 80 14.5C80 22.5118 73.423 29 65.3174 29C62.1779 29 59.2664 28.0249 56.8783 26.3642C54.4902 28.0249 51.5786 29 48.4391 29C45.2997 29 42.3881 28.0249 40 26.3642C37.6119 28.0249 34.7003 29 31.5609 29C28.4214 29 25.5098 28.0249 23.1217 26.3642C20.7336 28.0249 17.8221 29 14.6826 29C6.57698 29 0 22.5118 0 14.5ZM14.6917 1.40036C7.34882 1.40036 1.41086 7.26889 1.41086 14.5C1.41086 21.7314 7.34912 27.5996 14.6826 27.5996C17.6939 27.5996 20.4695 26.6092 22.6966 24.9397L23.1217 24.6211L23.5469 24.9397C25.774 26.6092 28.5495 27.5996 31.5609 27.5996C34.5722 27.5996 37.3478 26.6092 39.5749 24.9397L40 24.6211L40.4251 24.9397C42.6522 26.6092 45.4278 27.5996 48.4391 27.5996C51.4505 27.5996 54.226 26.6092 56.4531 24.9397L56.8783 24.6211L57.3034 24.9397C59.5305 26.6092 62.3061 27.5996 65.3174 27.5996C72.6509 27.5996 78.5891 21.7314 78.5891 14.5C78.5891 7.26815 72.655 1.40036 65.3265 1.40036C62.3152 1.40036 59.5396 2.39085 57.3125 4.06026L56.8874 4.37894L56.4622 4.06026C54.2351 2.39085 51.4596 1.40036 48.4482 1.40036C45.4369 1.40036 42.6613 2.39085 40.4342 4.06026L40.0091 4.37894L39.584 4.06026C37.3569 2.39085 34.5813 1.40036 31.57 1.40036C28.5586 1.40036 25.7831 2.39085 23.556 4.06026L23.1308 4.37894L22.7057 4.06026C20.4786 2.39085 17.703 1.40036 14.6917 1.40036Z" fill="#29561B"/>
<path d="M24.7782 15.3029C24.9261 15.4166 25 15.5803 25 15.7894C25 15.8804 24.9861 15.9804 24.9538 16.0896L24.4501 17.8449C24.3161 18.2769 24.1312 18.5771 23.8956 18.7453C23.6553 18.9136 23.3041 19 22.8373 19H15.6701C15.4575 19 15.2911 18.9636 15.1756 18.8954C15.0601 18.8272 15 18.7317 15 18.6089C15 18.5498 15.0139 18.4861 15.0462 18.4134C15.0786 18.3315 15.1294 18.2678 15.1987 18.2087C15.268 18.1542 15.3466 18.0996 15.4298 18.0496C15.5915 17.9495 15.7255 17.8449 15.8272 17.7403C15.9288 17.6357 16.0166 17.4629 16.086 17.2219L17.9482 10.7553C17.9898 10.6235 18.0083 10.5007 18.0083 10.3779C18.0083 10.2688 17.9898 10.1733 17.9529 10.1005C17.9159 10.0277 17.8697 9.93679 17.8096 9.83674C17.7172 9.70487 17.671 9.60027 17.671 9.52296C17.671 9.49113 17.6802 9.43656 17.7033 9.35925C17.7449 9.22738 17.8327 9.13643 17.9713 9.08186C18.11 9.02729 18.3179 9 18.6044 9H22.1858C22.3983 9 22.5647 9.03183 22.6802 9.0955C22.7957 9.15916 22.8558 9.25466 22.8558 9.3729C22.8558 9.42292 22.842 9.48658 22.8096 9.56844C22.7773 9.63665 22.7357 9.70032 22.6802 9.75489C22.6248 9.80946 22.5739 9.85039 22.5277 9.87312C22.4815 9.90041 22.4492 9.92315 22.4307 9.94134C22.2689 10.0323 22.1349 10.1323 22.0333 10.2415C21.9316 10.3506 21.8438 10.5234 21.7745 10.7508L19.8059 17.5493H20.7532C20.9889 17.5493 21.1876 17.5084 21.354 17.4311C21.5203 17.3492 21.6959 17.1992 21.8808 16.9809L22.9344 15.7485C23.1285 15.5302 23.3133 15.3665 23.4889 15.2665C23.6645 15.1664 23.8817 15.1164 24.1359 15.1164C24.4224 15.1164 24.6349 15.1755 24.7828 15.2892L24.7782 15.3029Z" fill="#29561B"/>
<path d="M29.886 11.566C30.1587 11.7792 30.2974 12.0723 30.2974 12.4453C30.2974 12.6718 30.2604 12.8849 30.1911 13.0892L28.7859 17.4723C28.7536 17.5878 28.7397 17.6944 28.7397 17.7788C28.7397 17.9075 28.7628 18.0052 28.8183 18.0807C28.8691 18.1562 28.9384 18.2273 29.0309 18.2939C29.1002 18.3605 29.1511 18.4182 29.1834 18.4627C29.2158 18.5071 29.2204 18.5648 29.1973 18.6314C29.1464 18.7602 29.0448 18.8535 28.8922 18.9112C28.7397 18.9689 28.5039 19 28.1896 19H24.7136C24.4502 19 24.256 18.96 24.1359 18.8757C24.0157 18.7913 23.9741 18.6847 24.0157 18.547C24.0573 18.4316 24.1636 18.3294 24.3346 18.2406C24.4872 18.1607 24.612 18.0719 24.7136 17.9608C24.8153 17.8543 24.9032 17.6811 24.9725 17.4457L26.2991 13.2091C26.3315 13.1203 26.3453 13.0493 26.3453 12.9871C26.3453 12.8805 26.3176 12.7961 26.2667 12.7295C26.2159 12.6673 26.1373 12.6007 26.0356 12.5297C25.9339 12.4497 25.8646 12.3831 25.823 12.3254C25.7814 12.2677 25.7768 12.1877 25.8091 12.09C25.8692 11.8635 26.1928 11.6681 26.7706 11.495C27.3484 11.3262 27.9539 11.2374 28.5871 11.2374C29.1788 11.2374 29.6087 11.344 29.8814 11.5616L29.886 11.566ZM30.6025 8.37747C30.866 8.62616 31 8.93258 31 9.29229C31 9.54542 30.9307 9.79411 30.792 10.0384C30.6533 10.2826 30.4638 10.4824 30.2142 10.6334C29.9646 10.7844 29.6873 10.8599 29.3822 10.8599C28.9939 10.8599 28.675 10.7356 28.4115 10.4869C28.1527 10.2382 28.0186 9.92733 28.0094 9.5543C28.0094 9.31005 28.0741 9.07025 28.2081 8.83044C28.3422 8.59063 28.5271 8.39524 28.772 8.23537C29.017 8.07994 29.2944 8 29.6087 8C30.0062 8 30.3344 8.12434 30.6025 8.37303V8.37747Z" fill="#29561B"/>
<path d="M38.4701 11.5631C38.8218 11.9414 39 12.455 39 13.1081C39 13.991 38.6893 14.8919 38.0635 15.8153C37.4421 16.7387 36.6518 17.4955 35.697 18.0991C34.7421 18.6982 33.8147 19 32.9102 19C32.0056 19 31.3431 18.8288 30.8086 18.4775C30.2695 18.1306 30 17.6351 30 16.991C30 16.7523 30.0457 16.4865 30.1371 16.1892L31.0873 12.9955C31.1056 12.9144 31.1193 12.8559 31.1193 12.8153C31.1193 12.7162 31.0919 12.6306 31.0416 12.5631C30.9914 12.4955 30.9228 12.4189 30.8315 12.3378C30.6807 12.2072 30.6076 12.0946 30.6076 11.9955C30.5985 11.8559 30.6807 11.7072 30.8635 11.5495C31.0462 11.3919 31.2975 11.2613 31.6264 11.1577C31.9508 11.0541 32.3208 11 32.7365 11C33.4081 11 33.9335 11.1622 34.3127 11.482C34.6919 11.8063 34.8792 12.2252 34.8792 12.7387C34.8792 12.9685 34.8381 13.2162 34.7604 13.482L33.7782 16.6622C33.7462 16.7523 33.7325 16.8243 33.7325 16.8874C33.7325 17.018 33.7782 17.1171 33.8695 17.1847C33.9609 17.2523 34.0843 17.2883 34.2442 17.2883C34.4635 17.2883 34.7239 17.1937 35.0208 17C35.3178 16.8063 35.6102 16.5315 35.9025 16.1667C36.1949 15.8063 36.4279 15.3784 36.6107 14.8829C36.2086 14.536 35.9254 14.1937 35.7609 13.8559C35.5964 13.518 35.5142 13.1712 35.5142 12.8153C35.5142 12.3108 35.6558 11.8829 35.9345 11.5315C36.2178 11.1802 36.6244 11.0045 37.1543 11.0045C37.6843 11.0045 38.1274 11.1937 38.4792 11.5676L38.4701 11.5631Z" fill="#29561B"/>
<path d="M43.886 11.566C44.1587 11.7792 44.2974 12.0723 44.2974 12.4453C44.2974 12.6718 44.2604 12.8849 44.1911 13.0892L42.7859 17.4723C42.7536 17.5878 42.7397 17.6944 42.7397 17.7788C42.7397 17.9075 42.7628 18.0052 42.8183 18.0807C42.8691 18.1562 42.9384 18.2273 43.0309 18.2939C43.1002 18.3605 43.1511 18.4182 43.1834 18.4627C43.2158 18.5071 43.2204 18.5648 43.1973 18.6314C43.1464 18.7602 43.0448 18.8535 42.8922 18.9112C42.7397 18.9689 42.5039 19 42.1896 19H38.7136C38.4502 19 38.256 18.96 38.1359 18.8757C38.0157 18.7913 37.9741 18.6847 38.0157 18.547C38.0573 18.4316 38.1636 18.3294 38.3346 18.2406C38.4872 18.1607 38.612 18.0719 38.7136 17.9608C38.8153 17.8543 38.9032 17.6811 38.9725 17.4457L40.2991 13.2091C40.3315 13.1203 40.3453 13.0493 40.3453 12.9871C40.3453 12.8805 40.3176 12.7961 40.2667 12.7295C40.2159 12.6673 40.1373 12.6007 40.0356 12.5297C39.9339 12.4497 39.8646 12.3831 39.823 12.3254C39.7814 12.2677 39.7768 12.1877 39.8091 12.09C39.8692 11.8635 40.1928 11.6681 40.7706 11.495C41.3484 11.3262 41.9539 11.2374 42.5871 11.2374C43.1788 11.2374 43.6087 11.344 43.8814 11.5616L43.886 11.566ZM44.6025 8.37747C44.866 8.62616 45 8.93258 45 9.29229C45 9.54542 44.9307 9.79411 44.792 10.0384C44.6533 10.2826 44.4638 10.4824 44.2142 10.6334C43.9646 10.7844 43.6873 10.8599 43.3822 10.8599C42.9939 10.8599 42.675 10.7356 42.4115 10.4869C42.1527 10.2382 42.0186 9.92733 42.0094 9.5543C42.0094 9.31005 42.0741 9.07025 42.2081 8.83044C42.3422 8.59063 42.5271 8.39524 42.772 8.23537C43.017 8.07994 43.2944 8 43.6087 8C44.0062 8 44.3344 8.12434 44.6025 8.37303V8.37747Z" fill="#29561B"/>
<path d="M52.9334 16.821C52.9151 16.8616 52.9015 16.9201 52.9015 17.0011C52.9015 17.0687 52.9197 17.1272 52.9561 17.1632C52.9926 17.2037 53.0382 17.2217 53.0975 17.2217C53.216 17.2217 53.3208 17.1677 53.4074 17.0642C53.494 16.9606 53.5487 16.9066 53.5806 16.9066C53.6308 16.9066 53.6718 16.9381 53.6992 17.0011C53.7311 17.0642 53.7447 17.1407 53.7447 17.2307C53.7539 17.5189 53.6581 17.798 53.4576 18.0681C53.257 18.3427 52.9653 18.5633 52.5778 18.7389C52.1904 18.91 51.73 19 51.1875 19C50.5266 19 49.9978 18.8514 49.6058 18.5453C49.2138 18.2437 49.0132 17.8385 49.0041 17.3343C49.0041 16.9696 49.0953 16.5554 49.273 16.1007L50.0981 13.9623C50.1482 13.8317 50.1756 13.7282 50.1756 13.6517C50.1756 13.5211 50.1346 13.4221 50.048 13.3455C49.9613 13.269 49.8611 13.233 49.738 13.233C49.5192 13.233 49.305 13.3365 49.1044 13.5391C48.9038 13.7417 48.758 13.9938 48.6668 14.2909L47.7323 17.3208C47.6913 17.4288 47.6731 17.5324 47.6731 17.6314C47.6731 17.7485 47.6959 17.8475 47.7506 17.9195C47.8007 17.9961 47.8691 18.0726 47.9603 18.1491C48.0286 18.2077 48.0788 18.2617 48.1107 18.3112C48.1426 18.3607 48.1471 18.4192 48.1244 18.4913C48.0833 18.6218 47.9876 18.7164 47.8372 18.7749C47.6868 18.8334 47.4497 18.8649 47.1306 18.8649H43.7028C43.443 18.8649 43.2561 18.8244 43.1376 18.7389C43.0236 18.6533 42.978 18.5453 43.0099 18.4057C43.051 18.2887 43.1558 18.1851 43.3245 18.0951C43.4749 18.0141 43.6025 17.924 43.7028 17.8115C43.8031 17.7034 43.8897 17.5279 43.9581 17.2893L45.2982 12.9944C45.3164 12.9449 45.3301 12.8773 45.3301 12.7873C45.3301 12.6792 45.3073 12.5937 45.2617 12.5352C45.2162 12.4766 45.1432 12.4001 45.0429 12.3101C44.9427 12.229 44.8743 12.1615 44.8333 12.103C44.7922 12.0445 44.7877 11.9634 44.8196 11.8644C44.8788 11.6348 45.1934 11.4367 45.7677 11.2611C46.3375 11.09 46.9346 11 47.5591 11C48.0605 11 48.4571 11.1351 48.7488 11.4097C49.0406 11.6843 49.1682 12.0625 49.1409 12.5442C49.5511 11.9589 49.9887 11.5582 50.4491 11.3331C50.9095 11.108 51.4109 11 51.9533 11C52.5641 11 53.061 11.1846 53.4348 11.5492C53.8086 11.9139 54 12.3911 54 12.9764C54 13.2825 53.9499 13.5841 53.8496 13.8813L52.9334 16.8075V16.821Z" fill="#29561B"/>
<path d="M64.0036 9.19871C64.2951 9.33118 64.5344 9.50781 64.7215 9.73743C64.9086 9.96705 65 10.2099 65 10.4749C65 11.0489 64.6171 11.3359 63.8513 11.3359C63.6294 11.3359 63.4598 11.3183 63.3423 11.2829C63.2205 11.2476 63.0812 11.1946 62.9202 11.1151C62.8898 11.1814 62.8767 11.2785 62.8767 11.4066C62.8767 11.5611 62.9028 11.7466 62.955 11.9586C63.0073 12.1705 63.0725 12.3736 63.1508 12.5547C63.351 12.855 63.4511 13.2171 63.4511 13.6321C63.4511 13.8176 63.4249 14.0384 63.3771 14.3033C63.264 14.8067 63.0116 15.2704 62.6244 15.6855C62.2371 16.105 61.7368 16.4317 61.132 16.6702C60.5228 16.9086 59.8571 17.0279 59.1305 17.0279C58.5736 17.0279 58.0515 16.9881 57.5642 16.913C57.4206 17.0411 57.351 17.1957 57.351 17.3811C57.351 17.5092 57.4075 17.6107 57.525 17.6946C57.6381 17.7785 57.8296 17.8183 58.0993 17.8183H60.2531C60.9884 17.8183 61.5627 17.9463 61.9761 18.2069C62.3894 18.463 62.5939 18.8295 62.5939 19.3064C62.5939 19.483 62.5635 19.6596 62.5069 19.8451C62.3938 20.2249 62.1327 20.5781 61.7237 20.9005C61.3147 21.2272 60.7447 21.4922 60.0094 21.6953C59.2741 21.8984 58.3778 22 57.3249 22C56.3851 22 55.5932 21.9161 54.9405 21.7527C54.2879 21.5893 53.8049 21.3597 53.483 21.0771C53.161 20.7901 53 20.4721 53 20.1233C53 20.0438 53.0174 19.929 53.0566 19.7745C53.1436 19.4918 53.335 19.2622 53.6396 19.0812C53.9398 18.9001 54.4358 18.7809 55.1276 18.7235C54.897 18.4983 54.7839 18.2334 54.7839 17.9243C54.7839 17.8183 54.797 17.7035 54.8274 17.5887C54.9797 17.0853 55.4322 16.7099 56.1762 16.4671C55.4583 16.0696 55.0972 15.4868 55.0972 14.7184C55.0972 14.5065 55.1276 14.2812 55.1842 14.0472C55.2973 13.5438 55.554 13.0846 55.9456 12.6695C56.3372 12.2544 56.8419 11.9276 57.4554 11.6848C58.0689 11.4419 58.7389 11.3183 59.4656 11.3183C60.6055 11.3183 61.4975 11.4684 62.1501 11.7687C62.0065 11.5435 61.8934 11.305 61.8107 11.0489C61.7281 10.7928 61.6889 10.5543 61.6889 10.3424C61.6889 9.97147 61.8064 9.65795 62.0413 9.393C62.2763 9.13247 62.6331 9 63.1117 9C63.4162 9 63.7165 9.06624 64.008 9.19871H64.0036ZM57.1334 19.2887C56.8637 19.2887 56.62 19.2755 56.4025 19.2446C56.2893 19.3903 56.2284 19.5846 56.2284 19.8274C56.2371 20.0703 56.3372 20.2469 56.5243 20.3529C56.7114 20.4589 56.9985 20.5119 57.3945 20.5119C57.8731 20.5119 58.2647 20.4368 58.5649 20.2911C58.8651 20.1454 59.0174 19.9378 59.0174 19.6641C59.0174 19.5493 58.9739 19.4565 58.8869 19.3859C58.7999 19.3196 58.678 19.2843 58.5127 19.2843H57.1334V19.2887ZM60.2226 13.036C60.2226 12.7048 60.0834 12.5414 59.8049 12.5414C59.5656 12.5414 59.3568 12.6607 59.1784 12.8991C59 13.1376 58.8216 13.5615 58.6389 14.1753C58.4866 14.6787 58.4083 15.0628 58.4083 15.3278C58.4083 15.6501 58.5431 15.8091 58.8086 15.8091C59.0479 15.8091 59.2567 15.6855 59.4394 15.4426C59.6222 15.1997 59.8049 14.7758 59.9833 14.1753C60.1356 13.6807 60.2139 13.301 60.2139 13.0404L60.2226 13.036Z" fill="#29561B"/>
</svg>
