<svg width="85" height="33" viewBox="0 0 85 33" fill="none" xmlns="http://www.w3.org/2000/svg">
<path d="M70.594 5C67.327 5 64.3135 6.05833 61.896 7.84197C59.4786 6.05833 56.4651 5 53.198 5C49.931 5 46.9174 6.05833 44.5 7.84197C42.0826 6.05833 39.069 5 35.802 5C32.5349 5 29.5214 6.05833 27.104 7.84197C24.6865 6.05833 21.673 5 18.4059 5C10.4496 5 4 11.2678 4 19C4 26.7322 10.4496 33 18.4059 33C21.673 33 24.6865 31.9417 27.104 30.158C29.5214 31.9417 32.5349 33 35.802 33C39.069 33 42.0826 31.9417 44.5 30.158C46.9174 31.9417 49.931 33 53.198 33C56.4651 33 59.4786 31.9417 61.896 30.158C64.3135 31.9417 67.327 33 70.594 33C78.5504 33 85 26.7322 85 19C85 11.2678 78.5504 5 70.594 5Z" fill="#005995"/>
<path d="M68.421 1C65.1136 1 62.0628 2.0963 59.6156 3.94395C57.1683 2.0963 54.1175 1 50.8102 1C47.5028 1 44.452 2.0963 42.0048 3.94395C39.5575 2.0963 36.5067 1 33.1994 1C29.892 1 26.8412 2.0963 24.3939 3.94395C21.9467 2.0963 18.8959 1 15.5886 1C7.52921 1 1 7.49275 1 15.4976C1 23.5025 7.52921 30 15.5838 30C18.8912 30 21.9419 28.9037 24.3892 27.0561C26.8365 28.9037 29.8872 30 33.1946 30C36.502 30 39.5527 28.9037 42 27.0561C44.4473 28.9037 47.498 30 50.8054 30C54.1128 30 57.1635 28.9037 59.6108 27.0561C62.0581 28.9037 65.1088 30 68.4162 30C76.4708 30 83 23.5073 83 15.4976C83 7.48802 76.4755 1 68.421 1Z" fill="white"/>
<path fill-rule="evenodd" clip-rule="evenodd" d="M0 14.9977C0 6.70293 6.90577 0 15.3986 0C18.6986 0 21.7591 1.01401 24.2674 2.74133C26.7756 1.01401 29.8361 0 33.1361 0C36.436 0 39.4965 1.01401 42.0048 2.74133C44.5131 1.01401 47.5736 0 50.8735 0C54.1734 0 57.2339 1.01401 59.7422 2.74133C62.2505 1.01401 65.311 0 68.6109 0C77.0993 0 84 6.69857 84 14.9977C84 23.2968 77.0945 30 68.6061 30C65.3062 30 62.2457 28.986 59.7374 27.2587C57.2292 28.986 54.1687 30 50.8687 30C47.5688 30 44.5083 28.986 42 27.2587C39.4917 28.986 36.4312 30 33.1313 30C29.8313 30 26.7709 28.986 24.2626 27.2587C21.7543 28.986 18.6938 30 15.3939 30C6.90532 30 0 23.292 0 14.9977ZM15.3986 1.40142C7.65692 1.40142 1.41037 7.50424 1.41037 14.9977C1.41037 22.4915 7.65737 28.5986 15.3939 28.5986C18.5693 28.5986 21.4951 27.5685 23.8417 25.8339L24.2626 25.5227L24.6835 25.8339C27.03 27.5685 29.9559 28.5986 33.1313 28.5986C36.3067 28.5986 39.2326 27.5685 41.5791 25.8339L42 25.5227L42.4209 25.8339C44.7674 27.5685 47.6933 28.5986 50.8687 28.5986C54.0441 28.5986 56.97 27.5685 59.3165 25.8339L59.7374 25.5227L60.1584 25.8339C62.5049 27.5685 65.4307 28.5986 68.6061 28.5986C76.3428 28.5986 82.5896 22.4961 82.5896 14.9977C82.5896 7.49928 76.3476 1.40142 68.6109 1.40142C65.4355 1.40142 62.5097 2.43152 60.1631 4.16611L59.7422 4.47725L59.3213 4.16611C56.9748 2.43152 54.0489 1.40142 50.8735 1.40142C47.6981 1.40142 44.7722 2.43152 42.4257 4.16611L42.0048 4.47725L41.5839 4.16611C39.2374 2.43152 36.3115 1.40142 33.1361 1.40142C29.9606 1.40142 27.0348 2.43152 24.6883 4.16611L24.2674 4.47725L23.8464 4.16611C21.4999 2.43152 18.5741 1.40142 15.3986 1.40142Z" fill="#005995"/>
<path d="M11.4646 19.4918C10.7114 19.1595 10.1067 18.6659 9.6661 18.016C9.22033 17.3661 9 16.5793 9 15.6557C9 15.0107 9.11785 14.3119 9.35354 13.5593C9.87105 11.9467 10.655 10.7837 11.7054 10.0702C12.7558 9.35673 13.8728 9 15.0717 9C15.7122 9 16.281 9.09285 16.778 9.27366C17.275 9.45446 17.731 9.71835 18.146 10.0653L18.602 9.72812C18.9044 9.50333 19.1605 9.34696 19.3706 9.259C19.5807 9.17104 19.8113 9.13194 20.0726 9.13194C20.3544 9.13194 20.5798 9.19058 20.7489 9.30786C20.918 9.42514 21 9.59618 21 9.82586C21 9.94314 20.9795 10.0604 20.9334 10.1826L19.9855 12.6992C19.883 12.9876 19.7652 13.1928 19.6217 13.3101C19.4782 13.4274 19.2681 13.486 18.9863 13.486C18.7045 13.486 18.4535 13.3883 18.269 13.1879C18.0845 12.9876 17.8693 12.6455 17.6336 12.1617C17.3621 11.6584 17.1418 11.3212 16.9727 11.1599C16.8036 10.9987 16.5576 10.9156 16.2297 10.9156C15.7686 10.9156 15.3228 11.1892 14.8924 11.7317C14.462 12.2741 14.0726 13.0902 13.7242 14.175C13.4321 15.0888 13.2835 15.8512 13.2835 16.4669C13.2835 17.0044 13.3911 17.4052 13.6063 17.669C13.8215 17.9329 14.1085 18.0649 14.4671 18.0649C14.9949 18.0649 15.4355 17.9525 15.7788 17.7277C16.1221 17.5029 16.4757 17.195 16.8343 16.809C17.0598 16.5744 17.2442 16.3985 17.3826 16.2861C17.5209 16.1737 17.6746 16.1151 17.8284 16.1151C18.0333 16.1151 18.2434 16.2128 18.4688 16.4034C18.6943 16.5988 18.8019 16.7894 18.7916 16.9849C18.8019 17.2195 18.602 17.586 18.1921 18.0795C17.7822 18.5731 17.2135 19.0178 16.4859 19.4087C15.7583 19.7996 14.9334 20 14.0111 20C13.0888 20 12.2126 19.8339 11.4594 19.5016L11.4646 19.4918Z" fill="#005995"/>
<path d="M27.8244 12.6549C28.5717 13.0824 28.9453 13.7283 28.9453 14.5969C28.9453 14.9289 28.8814 15.3019 28.7487 15.7248L28.085 17.7942C28.0752 17.8351 28.0702 17.8852 28.0702 17.9443C28.0702 18.1035 28.1391 18.1853 28.2816 18.1853C28.4095 18.1853 28.5225 18.1308 28.6159 18.0262C28.7093 17.9215 28.7683 17.867 28.8027 17.867C28.8568 17.867 28.9011 17.9034 28.9404 17.9716C28.9797 18.0398 28.9994 18.1217 28.9994 18.2126C29.0092 18.481 28.9011 18.7584 28.6651 19.0404C28.434 19.3223 28.1194 19.5497 27.731 19.7317C27.3427 19.9136 26.9149 20 26.4479 20C25.8875 20 25.4057 19.9045 25.0026 19.7135C24.6044 19.5225 24.3242 19.245 24.1767 18.8721C23.8522 19.2314 23.4688 19.5088 23.0263 19.7044C22.5838 19.8999 22.107 19.9955 21.6006 19.9955C21.0254 19.9955 20.5437 19.8954 20.1553 19.6862C19.7669 19.477 19.4769 19.2177 19.2851 18.8903C19.0934 18.5674 19 18.2217 19 17.8624C19 17.7032 19.0147 17.5486 19.0492 17.3985C19.2212 16.7072 19.5998 16.1887 20.175 15.8385C20.7551 15.4883 21.4433 15.311 22.2446 15.311C23.1443 15.311 24.0243 15.4429 24.8895 15.7021L25.2975 14.7106C25.4401 14.2922 25.5089 13.9648 25.5089 13.7328C25.4991 13.4918 25.4106 13.3144 25.2484 13.1916C25.0862 13.0733 24.8354 13.0097 24.5011 13.0097C24.565 13.1688 24.5995 13.3326 24.5995 13.5054C24.5995 13.8738 24.4471 14.1967 24.1472 14.465C23.8424 14.7334 23.4098 14.8698 22.8493 14.8698C22.3184 14.8698 21.9054 14.7607 21.6105 14.5469C21.3155 14.3331 21.1631 14.0648 21.1631 13.7419C21.1631 13.2416 21.4679 12.8277 22.0726 12.4957C22.6773 12.1637 23.6015 12 24.8453 12C26.089 12 27.0821 12.2138 27.8293 12.6367L27.8244 12.6549ZM23.1934 16.8891C23.0017 17.1029 22.9083 17.3348 22.9083 17.585C22.9083 17.7442 22.9476 17.8761 23.0312 17.9761C23.1148 18.0762 23.2279 18.1262 23.3803 18.1262C23.5228 18.1262 23.6752 18.0716 23.8424 17.967C24.0095 17.8624 24.1324 17.7032 24.2062 17.494L24.5454 16.6072C24.3635 16.5753 24.157 16.5617 23.9309 16.5617C23.6261 16.5617 23.3803 16.6708 23.1934 16.8846V16.8891Z" fill="#005995"/>
<path d="M43.9331 17.8247C43.9148 17.8652 43.9012 17.9236 43.9012 18.0045C43.9012 18.0719 43.9194 18.1303 43.9559 18.1663C43.9924 18.2067 44.038 18.2247 44.0972 18.2247C44.2158 18.2247 44.3206 18.1708 44.4073 18.0674C44.4939 17.964 44.5486 17.9101 44.5805 17.9101C44.6307 17.9101 44.6717 17.9416 44.6991 18.0045C44.731 18.0674 44.7447 18.1438 44.7447 18.2337C44.7538 18.5213 44.658 18.8 44.4574 19.0697C44.2568 19.3438 43.965 19.564 43.5774 19.7393C43.1899 19.9101 42.7294 20 42.1868 20C41.5257 20 40.9968 19.8517 40.6047 19.5461C40.2126 19.2449 40.0119 18.8404 40.0028 18.3371C40.0028 17.973 40.094 17.5596 40.2718 17.1056L41.1017 14.9708C41.1518 14.8404 41.1792 14.7371 41.1792 14.6607C41.1792 14.5303 41.1381 14.4315 41.0515 14.3551C40.9649 14.2787 40.8646 14.2427 40.7415 14.2427C40.5728 14.2427 40.3949 14.3191 40.2126 14.4674C40.0302 14.6157 39.8706 14.8494 39.7293 15.164L38.904 17.8202C38.8858 17.8607 38.8721 17.9191 38.8721 18C38.8721 18.0674 38.8903 18.1258 38.9268 18.1618C38.9633 18.2022 39.0089 18.2202 39.0681 18.2202C39.1867 18.2202 39.2915 18.1663 39.3782 18.0629C39.4648 17.9596 39.5195 17.9056 39.5514 17.9056C39.6016 17.9056 39.6426 17.9371 39.67 18C39.7019 18.0629 39.7156 18.1393 39.7156 18.2292C39.7247 18.5169 39.6289 18.7955 39.4283 19.0652C39.2277 19.3393 38.9359 19.5596 38.5483 19.7348C38.1608 19.9056 37.7003 19.9955 37.1577 19.9955C36.4966 19.9955 35.9677 19.8472 35.5756 19.5416C35.1835 19.2404 34.9828 18.836 34.9737 18.3326C34.9737 17.9685 35.0649 17.5551 35.2427 17.1011L36.0726 14.9663C36.1227 14.836 36.1455 14.7326 36.1455 14.6562C36.1455 14.5258 36.1045 14.427 36.0178 14.3506C35.9312 14.2742 35.8309 14.2382 35.7078 14.2382C35.5391 14.2382 35.3613 14.3101 35.1789 14.4539C34.9965 14.5978 34.8461 14.827 34.7275 15.1416L33.7335 18.3146C33.6925 18.4225 33.6743 18.5258 33.6743 18.6247C33.6743 18.7416 33.6971 18.8405 33.7518 18.9124C33.8019 18.9888 33.8703 19.0652 33.9615 19.1416C34.0299 19.2 34.0801 19.2539 34.112 19.3034C34.1439 19.3528 34.1485 19.4112 34.1257 19.4831C34.0846 19.6135 33.9889 19.7079 33.8384 19.7663C33.688 19.8247 33.4509 19.8562 33.1317 19.8562H29.703C29.4431 19.8562 29.2562 19.8157 29.1376 19.7303C29.0236 19.6449 28.978 19.5371 29.0099 19.3978C29.051 19.2809 29.1558 19.1775 29.3245 19.0876C29.475 19.0067 29.6027 18.9169 29.703 18.8045C29.8033 18.6966 29.8899 18.5213 29.9583 18.2831L31.2988 13.9955C31.317 13.9461 31.3307 13.8787 31.3307 13.7888C31.3307 13.6809 31.3079 13.5955 31.2623 13.5371C31.2167 13.4787 31.1438 13.4022 31.0435 13.3124C30.9432 13.2315 30.8748 13.164 30.8337 13.1056C30.7927 13.0472 30.7881 12.9663 30.82 12.8674C30.8793 12.6382 31.1939 12.4404 31.7684 12.2652C32.3384 12.0944 32.9356 12.0045 33.5603 12.0045C34.0527 12.0045 34.4403 12.1393 34.7275 12.4045C35.0148 12.6697 35.1515 13.0382 35.1424 13.5011C35.5528 12.9393 35.9859 12.5483 36.4419 12.3281C36.8978 12.1124 37.3902 12 37.9237 12C38.5073 12 38.9815 12.1663 39.3463 12.4989C39.711 12.8315 39.9162 13.2629 39.9572 13.7978C40.3904 13.1236 40.8509 12.6562 41.3433 12.3955C41.8357 12.1348 42.3692 12 42.9528 12C43.5638 12 44.0607 12.1843 44.4346 12.5483C44.8131 12.9124 45 13.3888 45 13.973C45 14.2787 44.9498 14.5798 44.8495 14.8764L43.9331 17.7978V17.8247Z" fill="#005995"/>
<path d="M55.3254 12.7874C55.7767 13.3031 56 14.0075 56 14.9008C56 15.3797 55.9349 15.8769 55.7999 16.4064C55.4929 17.6635 54.9206 18.6166 54.0785 19.2704C53.2411 19.9242 52.2687 20.2512 51.1614 20.2512C50.4542 20.2512 49.84 20.1038 49.319 19.8091L48.8258 21.4345C48.7839 21.545 48.7653 21.6509 48.7653 21.7522C48.7653 21.8627 48.7886 21.9594 48.8444 22.0331C48.8956 22.1113 48.9607 22.1804 49.0445 22.2541C49.1282 22.337 49.1794 22.4014 49.2073 22.4521C49.2352 22.5027 49.2352 22.5626 49.2166 22.6362C49.1747 22.7698 49.077 22.8619 48.9235 22.9171C48.77 22.9724 48.5327 23 48.2163 23H44.699C44.4338 23 44.2431 22.9586 44.1221 22.8711C44.0011 22.7836 43.9732 22.6777 44.0244 22.5442C44.043 22.4613 44.0802 22.3968 44.1314 22.3462C44.1826 22.2955 44.2524 22.2495 44.3454 22.208C44.4989 22.1067 44.6199 22.0008 44.713 21.8949C44.806 21.789 44.8851 21.6187 44.9595 21.3838L47.2021 14.1042C47.2346 14.0121 47.2486 13.9385 47.2486 13.874C47.2486 13.7635 47.2207 13.676 47.1695 13.6069C47.1183 13.5425 47.0392 13.4734 46.9369 13.3997C46.8345 13.3169 46.7647 13.2478 46.7228 13.1879C46.681 13.1281 46.6763 13.0452 46.7089 12.9439C46.7694 12.7091 47.0951 12.5065 47.6766 12.3269C48.2582 12.1519 48.8677 12.0599 49.5051 12.0599C49.9564 12.0599 50.3286 12.1704 50.617 12.396C50.9101 12.617 51.073 12.9301 51.1148 13.3215C51.8127 12.442 52.5943 12 53.4644 12C54.2506 12 54.8694 12.2578 55.3207 12.7735L55.3254 12.7874ZM52.0547 14.6568C52.0547 14.445 52.0221 14.3068 51.9569 14.2378C51.8918 14.1733 51.7941 14.1411 51.6731 14.1411C51.5801 14.1411 51.4638 14.1825 51.3196 14.27C51.1753 14.3575 51.0311 14.5002 50.8915 14.7028L49.6772 18.6856C49.7982 18.8054 49.9471 18.8698 50.1239 18.8698C50.3984 18.8698 50.6635 18.7179 50.9148 18.4048C51.166 18.0963 51.4219 17.4701 51.6918 16.5262C51.9383 15.6237 52.0593 15.0021 52.0593 14.6568H52.0547Z" fill="#005995"/>
<path d="M65.5373 17.8268C65.5174 17.9078 65.5025 17.9663 65.5025 18.0067C65.5025 18.0742 65.5224 18.1327 65.5622 18.1687C65.602 18.2047 65.6517 18.2272 65.7164 18.2272C65.8458 18.2272 65.9602 18.1732 66.0547 18.0697C66.1493 17.9663 66.209 17.9123 66.2438 17.9123C66.2985 17.9123 66.3433 17.9438 66.3831 18.0067C66.4229 18.0697 66.4428 18.1462 66.4428 18.2362C66.4527 18.5152 66.3433 18.7897 66.1144 19.0596C65.8856 19.3341 65.5622 19.5591 65.1443 19.7345C64.7264 19.9145 64.2637 20 63.7463 20C63.0995 20 62.5871 19.883 62.204 19.6445C61.8209 19.4061 61.5721 19.0956 61.4677 18.7087C61.0746 19.1046 60.6368 19.4061 60.1642 19.6085C59.6915 19.811 59.204 19.9145 58.7114 19.9145C57.9453 19.9145 57.3035 19.7435 56.7811 19.4016C56.2587 19.0596 56 18.5827 56 17.9708C56 17.6918 56.0547 17.4083 56.1642 17.1114L57.2139 14.0067C57.2488 13.9168 57.2637 13.8448 57.2637 13.7818C57.2637 13.6738 57.2338 13.5883 57.1791 13.5208C57.1244 13.4578 57.0398 13.3903 56.9303 13.3183C56.8209 13.2373 56.7463 13.1699 56.7015 13.1114C56.6567 13.0529 56.6517 12.9719 56.6866 12.8729C56.7512 12.6434 57.0995 12.4454 57.7214 12.27C58.3433 12.099 58.995 12.009 59.6766 12.009C60.3134 12.009 60.7761 12.117 61.0746 12.3375C61.3682 12.5534 61.5174 12.8504 61.5174 13.2283C61.5174 13.4578 61.4776 13.6738 61.403 13.8808L60.3682 16.9674C60.3234 17.0754 60.3035 17.1789 60.3035 17.2778C60.3035 17.4173 60.3483 17.5208 60.4328 17.5883C60.5224 17.6558 60.6368 17.6918 60.7761 17.6918C60.9851 17.6918 61.1542 17.6378 61.2836 17.5298C61.4129 17.4218 61.5473 17.2373 61.6766 16.9809L62.6766 13.9978C62.7114 13.9078 62.7264 13.8358 62.7264 13.7728C62.7264 13.6648 62.6965 13.5793 62.6418 13.5118C62.5871 13.4488 62.5124 13.3813 62.4129 13.3093C62.3035 13.2283 62.2289 13.1609 62.1841 13.1024C62.1393 13.0439 62.1343 12.9629 62.1692 12.8639C62.2239 12.6344 62.5622 12.4364 63.1891 12.261C63.811 12.09 64.4627 12 65.1443 12C65.7811 12 66.2488 12.108 66.5473 12.3285C66.8458 12.5444 67 12.8369 67 13.2058C67 13.3948 66.9552 13.6153 66.8707 13.8763L65.5423 17.8133L65.5373 17.8268Z" fill="#005995"/>
<path d="M74.1627 11.2517C74.753 11.4178 75.2056 11.6493 75.5252 11.9513C75.8402 12.2483 76 12.5906 76 12.9631C76 13.3356 75.8669 13.6678 75.5962 13.9094C75.3254 14.151 74.9527 14.2768 74.4778 14.2768C74.003 14.2768 73.5769 14.1409 73.2396 13.8591C72.9024 13.5822 72.7337 13.2349 72.7337 12.8121C72.7337 12.6661 72.7515 12.5302 72.7914 12.3943C72.6139 12.3389 72.4586 12.3087 72.321 12.3087C72.0769 12.3087 71.8728 12.3742 71.713 12.5101C71.5533 12.6409 71.4778 12.8322 71.4867 13.0738C71.4867 13.3607 71.6154 13.6074 71.8683 13.8037C72.1213 14.005 72.534 14.2517 73.0976 14.5487C73.5858 14.7903 73.9896 15.0168 74.3047 15.2232C74.6198 15.4295 74.8905 15.6862 75.108 15.9933C75.3299 16.3054 75.4364 16.6678 75.4364 17.0906C75.4364 17.1812 75.4186 17.3473 75.3787 17.5889C75.2234 18.3289 74.7885 18.9178 74.074 19.3507C73.3595 19.7836 72.4231 20 71.2604 20C69.9512 20 68.9127 19.7987 68.1494 19.401C67.3817 19.0034 67 18.4547 67 17.755C67 17.2768 67.1287 16.9195 67.3817 16.6779C67.6346 16.4362 67.9719 16.3104 68.3935 16.3104C68.8817 16.3104 69.2988 16.4815 69.645 16.8238C69.9911 17.1661 70.1642 17.604 70.1642 18.1376C70.1642 18.2836 70.1509 18.4295 70.1198 18.5856C70.355 18.651 70.5769 18.6862 70.7944 18.6862C71.0473 18.6862 71.2559 18.6107 71.4246 18.4547C71.5888 18.2987 71.6731 18.0822 71.6731 17.8054C71.6642 17.5487 71.5488 17.3322 71.3358 17.151C71.1228 16.9698 70.7811 16.7483 70.3107 16.4966C69.8713 16.2651 69.5118 16.0436 69.2278 15.8423C68.9438 15.6359 68.7041 15.3792 68.5044 15.0721C68.3047 14.7601 68.2027 14.3977 68.2027 13.9748C68.2027 13.0688 68.5355 12.344 69.2056 11.8054C69.8757 11.2668 70.8254 11 72.0547 11C72.8669 11 73.5636 11.0856 74.1583 11.2517H74.1627Z" fill="#005995"/>
</svg>
