<svg width="84" height="33" viewBox="0 0 84 33" fill="none" xmlns="http://www.w3.org/2000/svg">
<path d="M69.7719 4C66.5452 4 63.5688 5.09612 61.1813 6.94347C58.7937 5.09612 55.8173 4 52.5906 4C49.3639 4 46.3876 5.09612 44 6.94347C41.6124 5.09612 38.6361 4 35.4094 4C32.1827 4 29.2063 5.09612 26.8187 6.94347C24.4312 5.09612 21.4548 4 18.2281 4C10.37 4 4 10.4917 4 18.5C4 26.5083 10.37 33 18.2281 33C21.4548 33 24.4312 31.9039 26.8187 30.0565C29.2063 31.9039 32.1827 33 35.4094 33C38.6361 33 41.6124 31.9039 44 30.0565C46.3876 31.9039 49.3639 33 52.5906 33C55.8173 33 58.7937 31.9039 61.1813 30.0565C63.5688 31.9039 66.5452 33 69.7719 33C77.63 33 84 26.5083 84 18.5C84 10.4917 77.63 4 69.7719 4Z" fill="#1B1F54"/>
<path d="M66.7812 0C63.5545 0 60.5781 1.09612 58.1905 2.94347C55.803 1.09612 52.8266 0 49.5999 0C46.3732 0 43.3969 1.09612 41.0093 2.94347C38.6217 1.09612 35.6453 0 32.4186 0C29.1919 0 26.2156 1.09612 23.828 2.94347C21.4404 1.09612 18.4641 0 15.2374 0C7.36996 0 1 6.49169 1 14.5C1 22.5083 7.36996 29 15.2281 29C18.4548 29 21.4312 27.9039 23.8187 26.0565C26.2063 27.9039 29.1827 29 32.4094 29C35.6361 29 38.6124 27.9039 41 26.0565C43.3876 27.9039 46.3639 29 49.5906 29C52.8173 29 55.7937 27.9039 58.1813 26.0565C60.5688 27.9039 63.5452 29 66.7719 29C74.63 29 81 22.5083 81 14.5C81 6.49169 74.6347 0 66.7812 0Z" fill="white"/>
<path fill-rule="evenodd" clip-rule="evenodd" d="M0 15C0 6.71525 6.73161 0 15.0445 0C18.2655 0 21.2518 1.01249 23.6995 2.73589C26.1471 1.01249 29.1335 0 32.3544 0C35.5753 0 38.5617 1.01249 41.0093 2.73589C43.457 1.01249 46.4434 0 49.6643 0C52.8852 0 55.8715 1.01249 58.3192 2.73589C60.7669 1.01249 63.7532 0 66.9741 0C75.2738 0 82 6.71599 82 15C82 23.2844 75.2687 30 66.9648 30C63.7439 30 60.7575 28.9875 58.3099 27.2641C55.8622 28.9875 52.8758 30 49.6549 30C46.434 30 43.4477 28.9875 41 27.2641C38.5523 28.9875 35.566 30 32.3451 30C29.1242 30 26.1378 28.9875 23.6901 27.2641C21.2425 28.9875 18.2561 30 15.0352 30C6.73131 30 0 23.2844 0 15ZM15.0445 1.39795C7.50489 1.39795 1.40123 7.48791 1.40123 15C1.40123 22.5124 7.50519 28.602 15.0352 28.602C18.1277 28.602 20.9786 27.5742 23.2665 25.8412L23.6901 25.5203L24.1138 25.8412C26.4017 27.5742 29.2525 28.602 32.3451 28.602C35.4376 28.602 38.2884 27.5742 40.5763 25.8412L41 25.5203L41.4237 25.8412C43.7116 27.5742 46.5624 28.602 49.6549 28.602C52.7475 28.602 55.5983 27.5742 57.8862 25.8412L58.3099 25.5203L58.7335 25.8412C61.0214 27.5742 63.8723 28.602 66.9648 28.602C74.4948 28.602 80.5988 22.5124 80.5988 15C80.5988 7.48717 74.499 1.39795 66.9741 1.39795C63.8816 1.39795 61.0308 2.42579 58.7429 4.15876L58.3192 4.47965L57.8955 4.15876C55.6076 2.42579 52.7568 1.39795 49.6643 1.39795C46.5718 1.39795 43.7209 2.42579 41.433 4.15876L41.0093 4.47965L40.5857 4.15876C38.2978 2.42579 35.4469 1.39795 32.3544 1.39795C29.2619 1.39795 26.411 2.42579 24.1231 4.15876L23.6995 4.47965L23.2758 4.15876C20.9879 2.42579 18.1371 1.39795 15.0445 1.39795Z" fill="#1B1F54"/>
<path d="M33.8152 10.0955C33.9368 10.1591 34 10.2545 34 10.3727C34 10.4227 33.9854 10.4864 33.9514 10.5682C33.9173 10.6591 33.8736 10.7273 33.8152 10.7727C33.7569 10.8182 33.6694 10.8773 33.5527 10.9455C33.3825 11.0364 33.2464 11.1364 33.1442 11.2455C33.0421 11.3545 32.9546 11.5273 32.8817 11.7545L30.9222 18.2045C30.8784 18.3364 30.859 18.4591 30.859 18.5818C30.859 18.6909 30.8784 18.7864 30.9173 18.8591C30.9562 18.9364 31.0049 19.0227 31.0681 19.1227C31.1118 19.1727 31.1507 19.2273 31.1799 19.2818C31.2091 19.3364 31.2285 19.3955 31.2285 19.4545C31.2285 19.4727 31.2188 19.5227 31.1945 19.6045C31.1507 19.7364 31.0535 19.8318 30.8979 19.8909C30.7423 19.95 30.5186 19.9818 30.2318 19.9818H26.4587C26.235 19.9818 26.06 19.9455 25.9384 19.8773C25.8169 19.8091 25.7536 19.7136 25.7536 19.5909C25.7536 19.5318 25.7682 19.4636 25.8023 19.3955C25.8363 19.3273 25.8801 19.2636 25.9384 19.2091C25.9968 19.1545 26.0502 19.1136 26.0989 19.0909C26.1475 19.0682 26.1815 19.0455 26.201 19.0227C26.3712 18.9318 26.5122 18.8318 26.6191 18.7227C26.7261 18.6136 26.8185 18.4409 26.8914 18.2136L28.1118 14.1636L23.9546 18.9773C23.6143 19.3682 23.3371 19.6364 23.128 19.7818C22.919 19.9273 22.6807 20 22.4133 20C22.1459 20 21.9562 19.9227 21.8104 19.7682C21.6645 19.6136 21.5332 19.35 21.4165 18.9818L19.9092 14.3455L18.7229 18.2318C18.6791 18.3636 18.6596 18.4864 18.6596 18.6045C18.6596 18.7227 18.6791 18.8227 18.718 18.9045C18.7569 18.9864 18.8104 19.0682 18.8882 19.1591C18.9854 19.2909 19.034 19.3955 19.034 19.4727C19.034 19.4909 19.0243 19.5409 19 19.6227C18.9562 19.7636 18.859 19.8591 18.7131 19.9136C18.5624 19.9682 18.3387 19.9955 18.0373 19.9955H16.705C16.4814 19.9955 16.3063 19.9591 16.1848 19.8909C16.0632 19.8227 16 19.7273 16 19.6045C16 19.5455 16.0146 19.4818 16.0486 19.4091C16.0924 19.3 16.1605 19.2136 16.2577 19.1545C16.3549 19.0955 16.4133 19.0591 16.4327 19.05C16.6029 18.95 16.7439 18.8455 16.8509 18.7409C16.9579 18.6364 17.0502 18.4636 17.1232 18.2227L19.0827 11.7409L18.825 10.9455C18.7715 10.7955 18.7472 10.65 18.7472 10.5091C18.7472 10.3273 18.8104 10.2 18.9319 10.1182C19.0535 10.0364 19.2431 10 19.5008 10H21.9854C22.3063 10 22.5446 10.0636 22.7002 10.1955C22.8558 10.3273 22.9822 10.55 23.0794 10.8682L24.684 15.85L29.0308 10.7955C29.3079 10.4773 29.5802 10.2636 29.8476 10.1591C30.1151 10.0545 30.47 10 30.9076 10H33.2998C33.5235 10 33.6985 10.0318 33.8201 10.0955H33.8152Z" fill="#1B1F54"/>
<path d="M40.8244 12.6549C41.5717 13.0824 41.9453 13.7283 41.9453 14.5969C41.9453 14.9289 41.8814 15.3019 41.7487 15.7248L41.085 17.7942C41.0752 17.8351 41.0702 17.8852 41.0702 17.9443C41.0702 18.1035 41.1391 18.1853 41.2816 18.1853C41.4095 18.1853 41.5225 18.1308 41.6159 18.0262C41.7093 17.9215 41.7683 17.867 41.8027 17.867C41.8568 17.867 41.9011 17.9034 41.9404 17.9716C41.9797 18.0398 41.9994 18.1217 41.9994 18.2126C42.0092 18.481 41.9011 18.7584 41.6651 19.0404C41.434 19.3223 41.1194 19.5497 40.731 19.7317C40.3427 19.9136 39.915 20 39.4479 20C38.8875 20 38.4057 19.9045 38.0026 19.7135C37.6044 19.5225 37.3242 19.245 37.1767 18.8721C36.8522 19.2314 36.4688 19.5088 36.0263 19.7044C35.5839 19.8999 35.107 19.9955 34.6006 19.9955C34.0254 19.9955 33.5437 19.8954 33.1553 19.6862C32.7669 19.477 32.4769 19.2177 32.2851 18.8903C32.0934 18.5674 32 18.2217 32 17.8624C32 17.7032 32.0147 17.5486 32.0492 17.3985C32.2212 16.7072 32.5998 16.1887 33.175 15.8385C33.7551 15.4883 34.4433 15.311 35.2446 15.311C36.1443 15.311 37.0243 15.4429 37.8895 15.7021L38.2975 14.7106C38.4401 14.2922 38.5089 13.9648 38.5089 13.7328C38.4991 13.4918 38.4106 13.3144 38.2484 13.1916C38.0862 13.0733 37.8354 13.0097 37.5011 13.0097C37.565 13.1688 37.5995 13.3326 37.5995 13.5054C37.5995 13.8738 37.4471 14.1967 37.1472 14.465C36.8424 14.7334 36.4098 14.8698 35.8493 14.8698C35.3184 14.8698 34.9054 14.7607 34.6105 14.5469C34.3155 14.3331 34.1631 14.0648 34.1631 13.7419C34.1631 13.2416 34.4679 12.8277 35.0726 12.4957C35.6773 12.1637 36.6015 12 37.8453 12C39.089 12 40.0821 12.2138 40.8294 12.6367L40.8244 12.6549ZM36.1934 16.8891C36.0017 17.1029 35.9083 17.3348 35.9083 17.585C35.9083 17.7442 35.9476 17.8761 36.0312 17.9761C36.1148 18.0762 36.2279 18.1262 36.3803 18.1262C36.5228 18.1262 36.6752 18.0716 36.8424 17.967C37.0095 17.8624 37.1324 17.7032 37.2062 17.494L37.5454 16.6072C37.3635 16.5753 37.157 16.5617 36.9309 16.5617C36.6261 16.5617 36.3803 16.6708 36.1934 16.8846V16.8891Z" fill="#1B1F54"/>
<path d="M43.3382 13.4756C43.3382 13.3599 43.3169 13.2683 43.2742 13.2057C43.2315 13.143 43.1632 13.0611 43.0693 12.9647C42.9754 12.8779 42.9114 12.8056 42.873 12.7429C42.8346 12.6803 42.8303 12.5935 42.8602 12.4875C42.9157 12.2416 43.2144 12.0296 43.748 11.8416C44.2815 11.6584 44.8407 11.562 45.4254 11.562C45.9718 11.562 46.3687 11.6777 46.6206 11.9139C46.8724 12.1452 47.0005 12.4634 47.0005 12.8683C47.0005 13.1141 46.9663 13.3454 46.9023 13.5672L45.1693 20.1513C44.8876 21.2021 44.448 21.9396 43.8462 22.3638C43.2443 22.7879 42.4376 23 41.4217 23C41.0163 23 40.6662 22.9422 40.3717 22.8265C40.0772 22.7108 39.9577 22.5517 40.0132 22.3493C40.0303 22.277 40.073 22.2047 40.1412 22.142C40.2095 22.0794 40.3077 22.0071 40.4358 21.9348C40.6791 21.7853 40.8839 21.6263 41.0504 21.4479C41.2169 21.2744 41.3449 21.0141 41.4388 20.6767L43.3126 13.6925C43.3297 13.6395 43.3425 13.5672 43.3425 13.4708L43.3382 13.4756ZM47.6194 8.42416C47.8712 8.70373 47.9992 9.04595 47.9992 9.45084C48.0078 9.74968 47.9438 10.0389 47.8072 10.3184C47.6706 10.598 47.4828 10.8294 47.2438 11.0029C47.0047 11.1764 46.7316 11.2632 46.42 11.2632C46.0443 11.2632 45.7328 11.1186 45.4852 10.8246C45.2376 10.5305 45.1139 10.1738 45.1139 9.74968C45.1139 9.47494 45.1779 9.20019 45.3102 8.93027C45.4425 8.66035 45.6261 8.43862 45.8651 8.26028C46.1041 8.08194 46.373 8 46.6761 8C47.0517 8 47.3675 8.13978 47.6194 8.41934V8.42416Z" fill="#1B1F54"/>
<path d="M55.9943 12.8198C56.6648 13.3649 57 14.0766 57 14.9595C57 15.2568 56.9575 15.5901 56.8772 15.955C56.6789 16.7658 56.3107 17.4775 55.7724 18.0901C55.2342 18.6982 54.5685 19.1712 53.7847 19.5C53.0009 19.8333 52.1511 20 51.2351 20C49.7904 20 48.7233 19.7252 48.034 19.1757C47.3447 18.6261 47 17.8964 47 16.982C47 16.6757 47.0425 16.3333 47.1228 15.955C47.3211 15.1802 47.6988 14.4955 48.2512 13.8964C48.8036 13.2973 49.4882 12.8288 50.2908 12.5C51.0935 12.1667 51.9575 12 52.8687 12C54.2805 12 55.3239 12.2748 55.9943 12.8198ZM52.1322 13.8829C51.8867 14.2568 51.5987 14.955 51.2682 15.9865C50.9377 17.018 50.7677 17.7387 50.7677 18.1577C50.7677 18.3739 50.8055 18.5225 50.8763 18.5946C50.9471 18.6667 51.0463 18.7072 51.1737 18.7072C51.3909 18.7252 51.6176 18.5495 51.8536 18.1712C52.0897 17.7928 52.3824 17.0631 52.7318 15.973C53.0529 15.0135 53.2134 14.3153 53.2134 13.8784C53.2134 13.6712 53.1804 13.527 53.1143 13.4459C53.0482 13.3649 52.949 13.3288 52.8262 13.3288C52.6091 13.3288 52.3777 13.5135 52.1322 13.8874V13.8829Z" fill="#1B1F54"/>
<path d="M65.4864 12.5129C65.8288 12.8563 66 13.2776 66 13.7813C66 13.9737 65.9815 14.1477 65.9398 14.3125C65.838 14.7247 65.6437 15.0452 65.3615 15.265C65.0746 15.4848 64.7368 15.5993 64.3389 15.5993C63.9409 15.5993 63.6587 15.5077 63.4597 15.3291C63.2608 15.146 63.0849 14.9078 62.9322 14.6056C62.8489 14.4362 62.7749 14.308 62.7009 14.2255C62.6315 14.1431 62.5482 14.1065 62.4556 14.1065C62.3538 14.1065 62.2659 14.1477 62.1873 14.2255C62.1086 14.308 62.0438 14.4453 61.979 14.6468L60.8038 18.4247C60.7853 18.4751 60.7714 18.5529 60.7714 18.6537C60.7714 18.7865 60.8084 18.8918 60.8871 18.9788C60.9657 19.0658 61.0675 19.1483 61.2017 19.2261C61.322 19.3085 61.4053 19.3726 61.4469 19.423C61.4886 19.4734 61.5025 19.5375 61.4932 19.6199C61.4747 19.7527 61.4007 19.8489 61.2711 19.9084C61.1415 19.9679 60.9287 20 60.6233 20H56.7134C56.4497 20 56.2599 19.9588 56.1396 19.8718C56.024 19.7848 55.9777 19.6749 56.0101 19.5329C56.0517 19.4139 56.1582 19.3085 56.3294 19.2169C56.4821 19.1345 56.6116 19.0429 56.7134 18.9284C56.8152 18.8185 56.9031 18.64 56.9725 18.3973L58.3329 14.0286C58.3514 13.9782 58.3653 13.9096 58.3653 13.818C58.3653 13.7081 58.3421 13.6211 58.2959 13.5615C58.2496 13.502 58.1756 13.4242 58.0738 13.3326C57.972 13.2501 57.9026 13.1815 57.8609 13.1219C57.8193 13.0624 57.8147 12.98 57.847 12.8792C57.9072 12.6457 58.2265 12.4442 58.8095 12.2656C59.3879 12.0916 59.994 12 60.6279 12C61.0444 12 61.3914 12.0916 61.6644 12.2793C61.9374 12.4671 62.1179 12.7327 62.1965 13.0716C62.687 12.3572 63.3255 12 64.1214 12C64.6905 12 65.1486 12.1694 65.4864 12.5129Z" fill="#1B1F54"/>
</svg>
