<svg width="85" height="33" viewBox="0 0 85 33" fill="none" xmlns="http://www.w3.org/2000/svg">
<path d="M70.594 4C67.327 4 64.3135 5.09612 61.896 6.94347C59.4786 5.09612 56.4651 4 53.198 4C49.931 4 46.9174 5.09612 44.5 6.94347C42.0826 5.09612 39.069 4 35.802 4C32.5349 4 29.5214 5.09612 27.104 6.94347C24.6865 5.09612 21.673 4 18.4059 4C10.4496 4 4 10.4917 4 18.5C4 26.5083 10.4496 33 18.4059 33C21.673 33 24.6865 31.9039 27.104 30.0565C29.5214 31.9039 32.5349 33 35.802 33C39.069 33 42.0826 31.9039 44.5 30.0565C46.9174 31.9039 49.931 33 53.198 33C56.4651 33 59.4786 31.9039 61.896 30.0565C64.3135 31.9039 67.327 33 70.594 33C78.5504 33 85 26.5083 85 18.5C85 10.4917 78.5504 4 70.594 4Z" fill="#DD2A80"/>
<path d="M68.4257 1C65.1183 1 62.0676 2.09612 59.6203 3.94347C57.173 2.09612 54.1223 1 50.8149 1C47.5075 1 44.4568 2.09612 42.0095 3.94347C39.5622 2.09612 36.5115 1 33.2041 1C29.8967 1 26.846 2.09612 24.3987 3.94347C21.9514 2.09612 18.9007 1 15.5933 1C7.52921 1 1 7.49169 1 15.5C1 23.5083 7.52921 30 15.5838 30C18.8912 30 21.9419 28.9039 24.3892 27.0565C26.8365 28.9039 29.8872 30 33.1946 30C36.502 30 39.5527 28.9039 42 27.0565C44.4473 28.9039 47.498 30 50.8054 30C54.1128 30 57.1635 28.9039 59.6108 27.0565C62.0581 28.9039 65.1088 30 68.4162 30C76.4708 30 83 23.5083 83 15.5C83 7.49169 76.4755 1 68.4257 1Z" fill="white"/>
<path fill-rule="evenodd" clip-rule="evenodd" d="M0 15.5C0 6.9369 6.89435 0 15.4034 0C18.7042 0 21.7646 1.04818 24.2721 2.83232C26.7797 1.04818 29.84 0 33.1408 0C36.4416 0 39.502 1.04818 42.0096 2.83232C44.5171 1.04818 47.5775 0 50.8783 0C54.1791 0 57.2395 1.04818 59.747 2.83232C62.2546 1.04818 65.3149 0 68.6158 0C77.1112 0 84 6.93765 84 15.5C84 24.0628 77.1059 31 68.6062 31C65.3054 31 62.245 29.9518 59.7375 28.1677C57.2299 29.9518 54.1695 31 50.8687 31C47.5679 31 44.5076 29.9518 42 28.1677C39.4924 29.9518 36.4321 31 33.1313 31C29.8305 31 26.7701 29.9518 24.2625 28.1677C21.755 29.9518 18.6946 31 15.3938 31C6.89405 31 0 24.0628 0 15.5ZM15.4034 1.42447C7.66826 1.42447 1.41029 7.72862 1.41029 15.5C1.41029 23.2717 7.66856 29.5755 15.3938 29.5755C18.5662 29.5755 21.4905 28.5115 23.837 26.7179L24.2625 26.3927L24.6881 26.7179C27.0346 28.5115 29.9589 29.5755 33.1313 29.5755C36.3037 29.5755 39.2279 28.5115 41.5745 26.7179L42 26.3927L42.4255 26.7179C44.7721 28.5115 47.6963 29.5755 50.8687 29.5755C54.0411 29.5755 56.9654 28.5115 59.3119 26.7179L59.7375 26.3927L60.163 26.7179C62.5095 28.5115 65.4338 29.5755 68.6062 29.5755C76.3314 29.5755 82.5897 23.2717 82.5897 15.5C82.5897 7.72786 76.3358 1.42447 68.6158 1.42447C65.4434 1.42447 62.5191 2.48849 60.1725 4.28206L59.747 4.60729L59.3215 4.28206C56.975 2.48849 54.0507 1.42447 50.8783 1.42447C47.7059 1.42447 44.7816 2.48849 42.4351 4.28206L42.0096 4.60729L41.5841 4.28206C39.2375 2.48849 36.3132 1.42447 33.1408 1.42447C29.9685 1.42447 27.0442 2.48849 24.6976 4.28206L24.2721 4.60729L23.8466 4.28206C21.5001 2.48849 18.5758 1.42447 15.4034 1.42447Z" fill="#DD2A80"/>
<path d="M20.9334 18.5487C20.9151 18.5943 20.9014 18.6601 20.9014 18.7513C20.9014 18.8272 20.9197 18.8931 20.9561 18.9336C20.9926 18.9792 21.0382 18.9994 21.0975 18.9994C21.216 18.9994 21.3208 18.9387 21.4074 18.8222C21.494 18.7057 21.5487 18.6449 21.5806 18.6449C21.6308 18.6449 21.6718 18.6804 21.6992 18.7513C21.7311 18.8222 21.7447 18.9083 21.7447 19.0096C21.7539 19.3337 21.6581 19.6477 21.4576 19.9516C21.257 20.2606 20.9653 20.5087 20.5778 20.7062C20.1904 20.8987 19.73 21 19.1875 21C18.5266 21 17.9978 20.8329 17.6058 20.4885C17.2138 20.1491 17.0132 19.6933 17.0041 19.1261C17.0041 18.7158 17.0953 18.2499 17.273 17.7383L18.0981 15.3326C18.1482 15.1857 18.1756 15.0692 18.1756 14.9831C18.1756 14.8362 18.1346 14.7248 18.048 14.6387C17.9613 14.5526 17.8611 14.5121 17.738 14.5121C17.5192 14.5121 17.3049 14.6286 17.1044 14.8565C16.9038 15.0844 16.758 15.368 16.6668 15.7023L15.7323 19.1109C15.6913 19.2324 15.6731 19.3489 15.6731 19.4603C15.6731 19.592 15.6959 19.7034 15.7506 19.7845C15.8007 19.8706 15.8691 19.9567 15.9603 20.0428C16.0286 20.1086 16.0788 20.1694 16.1107 20.2251C16.1426 20.2808 16.1471 20.3467 16.1243 20.4277C16.0833 20.5746 15.9876 20.6809 15.8372 20.7468C15.6868 20.8126 15.4497 20.8481 15.1306 20.8481H11.7028C11.443 20.8481 11.2561 20.8025 11.1376 20.7062C11.0236 20.61 10.978 20.4885 11.0099 20.3315C11.051 20.1998 11.1558 20.0833 11.3245 19.982C11.4749 19.8908 11.6025 19.7895 11.7028 19.6629C11.8031 19.5414 11.8897 19.3438 11.9581 19.0754L13.2982 14.2437C13.3164 14.188 13.3301 14.112 13.3301 14.0107C13.3301 13.8891 13.3073 13.7929 13.2617 13.7271C13.2162 13.6612 13.1432 13.5751 13.0429 13.4738C12.9427 13.3827 12.8743 13.3067 12.8333 13.2409C12.7922 13.175 12.7877 13.0838 12.8196 12.9724C12.8788 12.7141 13.1934 12.4913 13.7677 12.2938C14.3375 12.1013 14.9346 12 15.5591 12C16.0605 12 16.4571 12.1519 16.7488 12.4609C17.0406 12.7698 17.1682 13.1953 17.1409 13.7372C17.5511 13.0788 17.9887 12.628 18.4491 12.3748C18.9095 12.1216 19.4109 12 19.9533 12C20.5641 12 21.061 12.2077 21.4348 12.6179C21.8086 13.0281 22 13.565 22 14.2234C22 14.5678 21.9499 14.9071 21.8496 15.2414L20.9334 18.5335V18.5487Z" fill="#DD2A80"/>
<path d="M30.1923 12.6704C30.7293 13.1225 31 13.7015 31 14.4074C31 14.6208 30.9828 14.8138 30.9441 14.9966C30.8024 15.7331 30.4071 16.2613 29.7583 16.5813C29.1096 16.9012 28.3491 17.0587 27.4683 17.0587C27.0258 17.0587 26.609 17.0231 26.2223 16.9571C26.2137 17.5361 26.3469 17.9475 26.6176 18.1812C26.8883 18.4148 27.275 18.5316 27.7648 18.5316C27.9925 18.5316 28.2073 18.5011 28.4178 18.4402C28.6241 18.3792 28.8904 18.2878 29.2127 18.1659C29.4791 18.0542 29.6552 17.9983 29.7497 17.9983C29.8528 17.9983 29.9044 18.0694 29.9044 18.2167C29.913 18.6078 29.7927 19.0192 29.5349 19.4509C29.2814 19.8826 28.9033 20.2483 28.4006 20.548C27.898 20.8476 27.2965 21 26.5875 21C25.5392 21 24.6799 20.6851 24.0054 20.0604C23.3351 19.4357 23 18.5265 23 17.3279C23 16.9927 23.0387 16.6016 23.1117 16.1546C23.348 14.7782 23.8636 13.7421 24.6627 13.0463C25.4619 12.3505 26.4329 12 27.5757 12C28.7744 12 29.6466 12.2286 30.1837 12.6806L30.1923 12.6704ZM26.4758 15.9616C26.8711 15.9616 27.1762 15.7432 27.3824 15.3064C27.5886 14.8696 27.6874 14.3821 27.6788 13.8488C27.6702 13.5339 27.5929 13.3815 27.4511 13.3815C27.348 13.3815 27.2234 13.478 27.0816 13.6761C26.9399 13.8742 26.7981 14.1637 26.6649 14.5547C26.5274 14.9458 26.4114 15.408 26.3169 15.9464C26.3555 15.9565 26.4071 15.9616 26.4715 15.9616H26.4758Z" fill="#DD2A80"/>
<path d="M38.942 12.7368C39.6145 13.2177 39.9508 13.9443 39.9508 14.9215C39.9508 15.2951 39.8933 15.7146 39.7738 16.1904L39.1765 18.5185C39.1676 18.5645 39.1632 18.6208 39.1632 18.6873C39.1632 18.8664 39.2252 18.9585 39.3535 18.9585C39.4685 18.9585 39.5703 18.8971 39.6543 18.7794C39.7384 18.6617 39.7915 18.6003 39.8225 18.6003C39.8711 18.6003 39.911 18.6413 39.9464 18.718C39.9817 18.7948 39.9994 18.8869 39.9994 18.9892C40.0083 19.2911 39.911 19.6032 39.6986 19.9204C39.4906 20.2376 39.2075 20.4935 38.8579 20.6981C38.5084 20.9028 38.1235 21 37.7031 21C37.1987 21 36.7651 20.8926 36.4023 20.6777C36.0439 20.4628 35.7917 20.1507 35.659 19.7311C35.367 20.1353 35.0219 20.4474 34.6237 20.6674C34.2255 20.8874 33.7963 20.9949 33.3406 20.9949C32.8229 20.9949 32.3893 20.8823 32.0398 20.647C31.6902 20.4116 31.4292 20.12 31.2566 19.7516C31.0841 19.3883 31 18.9994 31 18.5952C31 18.4161 31.0133 18.2422 31.0442 18.0733C31.1991 17.2956 31.5398 16.7123 32.0575 16.3184C32.5795 15.9244 33.199 15.7248 33.9202 15.7248C34.7299 15.7248 35.5218 15.8732 36.3006 16.1649L36.6678 15.0495C36.7961 14.5787 36.858 14.2103 36.858 13.9494C36.8492 13.6782 36.7696 13.4787 36.6235 13.3405C36.4775 13.2075 36.2519 13.1359 35.951 13.1359C36.0085 13.315 36.0395 13.4991 36.0395 13.6936C36.0395 14.108 35.9024 14.4713 35.6325 14.7732C35.3581 15.075 34.9688 15.2285 34.4644 15.2285C33.9865 15.2285 33.6149 15.1057 33.3494 14.8653C33.0839 14.6248 32.9468 14.3229 32.9468 13.9596C32.9468 13.3968 33.2211 12.9312 33.7653 12.5577C34.3095 12.1842 35.1413 12 36.2607 12C37.3801 12 38.2739 12.2405 38.9464 12.7163L38.942 12.7368ZM34.7741 17.5003C34.6015 17.7408 34.5175 18.0017 34.5175 18.2831C34.5175 18.4622 34.5529 18.6106 34.6281 18.7231C34.7033 18.8357 34.8051 18.892 34.9422 18.892C35.0705 18.892 35.2077 18.8306 35.3581 18.7129C35.5086 18.5952 35.6192 18.4161 35.6856 18.1808L35.9908 17.1831C35.8271 17.1472 35.6413 17.1319 35.4378 17.1319C35.1635 17.1319 34.9422 17.2547 34.7741 17.4952V17.5003Z" fill="#DD2A80"/>
<path d="M49.4864 12.5129C49.8288 12.8563 50 13.2776 50 13.7813C50 13.9737 49.9815 14.1477 49.9398 14.3125C49.8381 14.7247 49.6437 15.0452 49.3615 15.265C49.0746 15.4848 48.7368 15.5993 48.3389 15.5993C47.9409 15.5993 47.6587 15.5077 47.4597 15.3291C47.2608 15.146 47.0849 14.9078 46.9322 14.6056C46.8489 14.4362 46.7749 14.308 46.7009 14.2255C46.6315 14.1431 46.5482 14.1065 46.4556 14.1065C46.3538 14.1065 46.2659 14.1477 46.1873 14.2255C46.1086 14.308 46.0438 14.4453 45.979 14.6468L44.8038 18.4247C44.7853 18.4751 44.7714 18.5529 44.7714 18.6537C44.7714 18.7865 44.8084 18.8918 44.887 18.9788C44.9657 19.0658 45.0675 19.1483 45.2017 19.2261C45.322 19.3085 45.4053 19.3726 45.4469 19.423C45.4886 19.4734 45.5025 19.5375 45.4932 19.6199C45.4747 19.7527 45.4007 19.8489 45.2711 19.9084C45.1415 19.9679 44.9287 20 44.6233 20H40.7134C40.4497 20 40.2599 19.9588 40.1396 19.8718C40.024 19.7848 39.9777 19.6749 40.0101 19.5329C40.0517 19.4139 40.1581 19.3085 40.3294 19.2169C40.482 19.1345 40.6116 19.0429 40.7134 18.9284C40.8152 18.8185 40.9031 18.64 40.9725 18.3973L42.3329 14.0286C42.3514 13.9782 42.3653 13.9096 42.3653 13.818C42.3653 13.7081 42.3421 13.6211 42.2959 13.5615C42.2496 13.502 42.1756 13.4242 42.0738 13.3326C41.972 13.2501 41.9026 13.1815 41.8609 13.1219C41.8193 13.0624 41.8147 12.98 41.847 12.8792C41.9072 12.6457 42.2265 12.4442 42.8095 12.2656C43.3879 12.0916 43.994 12 44.6279 12C45.0444 12 45.3914 12.0916 45.6644 12.2793C45.9374 12.4671 46.1179 12.7327 46.1965 13.0716C46.687 12.3572 47.3255 12 48.1214 12C48.6905 12 49.1486 12.1694 49.4864 12.5129Z" fill="#DD2A80"/>
<path d="M62.2823 13.1587C62.7608 13.7271 63 14.4753 63 15.4032C63 15.8842 62.9414 16.3555 62.8242 16.8121C62.4825 18.1919 61.8917 19.2316 61.0617 19.9409C60.2268 20.6453 59.2699 21 58.186 21C57.5757 21 57.0435 20.898 56.5992 20.6891C56.1549 20.4802 55.7985 20.1838 55.53 19.8L54.949 20.2955C54.7244 20.4899 54.5047 20.6308 54.2898 20.7231C54.075 20.8154 53.826 20.8591 53.5477 20.8591H52.8398C52.5712 20.8591 52.3662 20.8008 52.2197 20.6891C52.0732 20.5773 52 20.4121 52 20.1984C52 20.1012 52.0146 19.9895 52.0488 19.8632L54.739 11.1571C54.7732 11.0599 54.7878 10.9822 54.7878 10.9142C54.7878 10.7344 54.6755 10.5595 54.451 10.3992C54.3435 10.302 54.2703 10.2243 54.2264 10.166C54.1824 10.1077 54.1775 10.03 54.2117 9.93279C54.285 9.68502 54.6267 9.47126 55.237 9.28178C55.8424 9.09717 56.482 9 57.146 9C57.771 9 58.2299 9.12146 58.5229 9.35951C58.8158 9.60243 58.9672 9.92308 58.9672 10.3312C58.9672 10.5547 58.9281 10.7781 58.8549 11.0065L58.1762 13.1879C58.8012 12.6 59.5335 12.3085 60.383 12.3085C61.1789 12.3085 61.8136 12.5903 62.2921 13.1587H62.2823ZM58.8744 14.9563C58.8744 14.4656 58.7279 14.2178 58.4399 14.2178C58.1811 14.2178 57.9419 14.3538 57.7124 14.6211L56.6676 18.0219L56.5699 18.3279C56.5162 18.4883 56.4869 18.6534 56.4869 18.8235C56.4869 19.1976 56.6627 19.387 57.0191 19.387C57.2779 19.387 57.522 19.2024 57.7612 18.8235C57.9956 18.4494 58.2592 17.7498 58.5522 16.7247C58.767 15.996 58.8744 15.4081 58.8744 14.9611V14.9563Z" fill="#DD2A80"/>
<path d="M71.5862 12.5558C71.8621 12.9171 72 13.408 72 14.0286C72 14.5705 71.9001 15.1495 71.7004 15.7701C71.3152 17.0253 70.6922 18.2063 69.8409 19.3179C68.9896 20.4295 68.0099 21.3187 66.9066 21.9903C65.8033 22.6619 64.7 23 63.6014 23C63.0592 23 62.5884 22.9074 62.1984 22.7267C61.8037 22.5415 61.5089 22.3006 61.3044 21.9949C61.0999 21.6893 61 21.3651 61 21.0177C61 20.8648 61.0285 20.6981 61.0808 20.5128C61.176 20.2257 61.3329 20.008 61.5517 19.8552C61.7704 19.7023 62.032 19.6236 62.3364 19.6236C62.8167 19.6236 63.2114 19.7857 63.5205 20.1053C63.8297 20.4248 64.0246 20.8648 64.1102 21.4253C64.7808 21.3928 65.3991 21.1149 65.9602 20.5823C65.4276 20.4897 65.0329 20.3137 64.776 20.0543C64.5192 19.7949 64.3433 19.3874 64.2482 18.8408L63.6204 15.0985C63.5871 14.904 63.5443 14.7697 63.4872 14.6956C63.4302 14.6168 63.3541 14.5798 63.259 14.5798C63.1876 14.5798 63.0973 14.6168 63.0022 14.6863C62.9023 14.7558 62.831 14.7928 62.7882 14.7928C62.7025 14.7928 62.6645 14.7048 62.6645 14.5335C62.6645 14.3899 62.6883 14.2371 62.7454 14.0749C62.9356 13.496 63.2828 13.0004 63.7964 12.6021C64.31 12.1992 64.9045 12 65.5845 12C66.2646 12 66.7497 12.1945 67.0683 12.5789C67.3869 12.968 67.5962 13.5608 67.6866 14.3667L68.1574 17.7293C68.1907 17.984 68.281 18.1137 68.438 18.1137C68.6282 18.1137 68.8469 17.9469 69.099 17.6181C69.3511 17.2893 69.5936 16.8168 69.8361 16.2055C69.5223 15.9322 69.2797 15.6126 69.1133 15.256C68.9468 14.8994 68.8612 14.5196 68.8612 14.112C68.8612 13.7971 68.904 13.5099 68.9849 13.2552C69.1085 12.8476 69.3083 12.5419 69.5746 12.3288C69.8409 12.1204 70.1405 12.0139 70.4782 12.0139C70.9395 12.0139 71.3057 12.1945 71.5862 12.5558Z" fill="#DD2A80"/>
</svg>
