<svg preserveAspectRatio="none" width="157" height="134" viewBox="0 0 157 134" fill="none" xmlns="http://www.w3.org/2000/svg">
<path opacity="0.2" d="M24.4284 89.1088C19.2834 92.0805 10.937 92.0805 5.79198 89.1088C2.51018 87.2146 1.32169 84.5688 2.22648 82.1301C2.24565 82.0764 2.26865 82.0189 2.29165 81.9652L2.31082 81.9154C2.8629 80.6078 4.02456 79.3655 5.79198 78.3455C10.937 75.3738 19.2834 75.3738 24.4284 78.3455C26.0962 79.308 27.2233 80.466 27.8099 81.693C27.9287 81.9422 28.0246 82.1953 28.1013 82.4484C28.7875 84.7989 27.5645 87.299 24.4284 89.1088Z" fill="#9D9D9C"/>
<path opacity="0.5" d="M24.4284 89.1088C19.2834 92.0805 10.937 92.0805 5.79198 89.1088C2.51018 87.2146 1.32169 84.5688 2.22648 82.1301C2.22648 82.1263 2.29165 81.9652 2.29165 81.9652L2.31082 81.9154L11.5006 58.0651V48.6209C12.2214 45.9905 18.1792 45.7566 18.7236 48.6209V58.0651L27.8099 81.693L28.1013 82.4484C28.7875 84.7989 27.5645 87.299 24.4284 89.1088Z" fill="#DADADA"/>
<path d="M27.3997 82.6861L22.6265 70.2817H7.57857L2.98943 82.1915L2.97409 82.2298L2.88591 82.456C2.13447 84.6072 3.34981 86.8503 6.1562 88.4685C8.5332 89.8412 11.7115 90.5966 15.1045 90.5966C18.4974 90.5966 21.6757 89.8412 24.0527 88.4685C26.7786 86.8925 27.9939 84.7874 27.3958 82.6823L27.3997 82.6861Z" fill="#3480A7"/>
<path d="M17.8456 46.8302C17.1095 46.4046 16.1357 46.1707 15.1083 46.1707C14.0808 46.1707 13.107 46.4046 12.3709 46.8302C11.5696 47.2942 11.1287 47.9307 11.1287 48.6247C11.1287 48.9967 11.2552 49.3494 11.4968 49.6715C11.7038 49.9514 11.999 50.2045 12.3709 50.4192C13.107 50.8449 14.0808 51.0826 15.1083 51.0826C16.1357 51.0826 17.1095 50.8449 17.8456 50.4192C18.2175 50.2045 18.5127 49.9514 18.7198 49.6715C18.9613 49.3494 19.0878 48.9967 19.0878 48.6247C19.0878 47.9307 18.6469 47.2942 17.8495 46.8302H17.8456ZM15.1083 50.3426C14.2073 50.3426 13.3677 50.1432 12.7389 49.7789C12.1754 49.453 11.8648 49.0427 11.8648 48.6247C11.8648 48.2068 12.1754 47.7965 12.7389 47.4706C13.3677 47.1101 14.2073 46.9107 15.1083 46.9107C16.0092 46.9107 16.8488 47.1101 17.4776 47.4706C18.0412 47.7965 18.3479 48.2068 18.3479 48.6247C18.3479 49.0427 18.0373 49.4568 17.4776 49.7789C16.8488 50.1393 16.0092 50.3426 15.1083 50.3426Z" fill="#C6C6C6"/>
<path d="M20.4987 74.0701C17.5236 75.788 12.6968 75.788 9.7217 74.0701C7.82393 72.9735 7.13767 71.4435 7.65908 70.0325C7.67058 70.0018 7.68208 69.9673 7.69742 69.9366L7.70892 69.9059C8.02713 69.1505 8.70189 68.4335 9.7217 67.843C12.6968 66.1252 17.5236 66.1252 20.4987 67.843C21.4648 68.399 22.1166 69.07 22.454 69.7794C22.523 69.9251 22.5805 70.0708 22.6227 70.2165C23.0214 71.5777 22.3121 73.0195 20.4987 74.0701Z" fill="#48B6EC"/>
<path opacity="0.5" d="M12.7849 51.1631V58.3067L3.51082 82.3794L3.48781 82.4369L3.4073 82.6439C2.74404 84.5497 3.84436 86.4937 6.43606 87.9892C6.63925 88.108 6.85395 88.2231 7.06865 88.3304L14.4297 58.7937V51.5581C13.8891 51.5657 13.1262 51.4239 12.7888 51.1631H12.7849Z" fill="white"/>
<path opacity="0.5" d="M33.9671 73.9398V61.7615C33.4188 58.8704 27.4073 59.1081 26.6827 61.7615V74.0625C26.6827 74.4996 26.4182 74.9022 26.008 75.0556C21.461 76.7849 18.2635 81.2444 18.4169 86.4324C18.6009 92.5483 23.5274 97.5599 29.6348 97.8399C36.3939 98.1504 41.9722 92.7631 41.9722 86.0719C41.9722 81.2099 39.0278 77.038 34.822 75.2396C34.3006 75.0172 33.9632 74.5073 33.9632 73.9398H33.9671Z" fill="#DADADA"/>
<path d="M41.0444 86.0719C41.0444 88.9708 39.9172 91.6971 37.8661 93.7447C36.8386 94.7723 35.6463 95.566 34.3466 96.1028C33.0469 96.6397 31.6399 96.9234 30.1907 96.9234C30.0182 96.9234 29.8457 96.9234 29.677 96.9119C24.0527 96.655 19.5134 92.0383 19.3447 86.4017C19.222 82.364 21.3498 78.6408 24.762 76.6699C24.7811 76.6584 24.8003 76.643 24.8233 76.6354C25.2297 76.4053 25.6514 76.2021 26.0885 76.0218C27.2885 75.5579 28.7032 75.3125 30.1754 75.3125C31.985 75.3125 33.7025 75.6844 35.0482 76.3669C38.7134 78.196 41.0444 81.9384 41.0444 86.0719Z" fill="#EA4A49"/>
<path d="M33.0853 59.9517C32.3415 59.5222 31.3601 59.2845 30.3249 59.2845C29.2898 59.2845 28.3083 59.5222 27.5645 59.9517C26.7594 60.4195 26.3109 61.0598 26.3109 61.7615C26.3109 62.1373 26.4374 62.4939 26.6827 62.816C26.8936 63.0998 27.1888 63.3528 27.5645 63.5676C28.3083 63.997 29.2898 64.2348 30.3249 64.2348C31.3601 64.2348 32.3415 63.997 33.0853 63.5676C33.461 63.3528 33.7562 63.0959 33.9671 62.816C34.2086 62.4939 34.3351 62.1373 34.3351 61.7615C34.3351 61.0637 33.8904 60.4195 33.0853 59.9517ZM30.3249 63.4909C29.4163 63.4909 28.569 63.2876 27.9364 62.9234C27.369 62.5974 27.0546 62.1833 27.0546 61.7577C27.0546 61.3321 27.369 60.9218 27.9364 60.592C28.569 60.2278 29.4163 60.0284 30.3249 60.0284C31.2335 60.0284 32.0808 60.2278 32.7134 60.592C33.2808 60.9218 33.5914 61.3359 33.5914 61.7577C33.5914 62.1795 33.2808 62.5974 32.7134 62.9234C32.0808 63.2876 31.2335 63.4909 30.3249 63.4909Z" fill="#C6C6C6"/>
<path d="M33.0853 59.9517C32.3415 59.5222 31.3601 59.2845 30.3249 59.2845C29.2898 59.2845 28.3083 59.5222 27.5645 59.9517C26.7594 60.4195 26.3109 61.0598 26.3109 61.7615C26.3109 62.1373 26.4374 62.4939 26.6827 62.816C26.8936 63.0998 27.1888 63.3528 27.5645 63.5676C28.3083 63.997 29.2898 64.2348 30.3249 64.2348C31.3601 64.2348 32.3415 63.997 33.0853 63.5676C33.461 63.3528 33.7562 63.0959 33.9671 62.816C34.2086 62.4939 34.3351 62.1373 34.3351 61.7615C34.3351 61.0637 33.8904 60.4195 33.0853 59.9517ZM30.3249 63.4909C29.4163 63.4909 28.569 63.2876 27.9364 62.9234C27.369 62.5974 27.0546 62.1833 27.0546 61.7577C27.0546 61.3321 27.369 60.9218 27.9364 60.592C28.569 60.2278 29.4163 60.0284 30.3249 60.0284C31.2335 60.0284 32.0808 60.2278 32.7134 60.592C33.2808 60.9218 33.5914 61.3359 33.5914 61.7577C33.5914 62.1795 33.2808 62.5974 32.7134 62.9234C32.0808 63.2876 31.2335 63.4909 30.3249 63.4909Z" fill="#C6C6C6"/>
<path d="M37.6399 79.7604C37.6399 80.4353 37.4022 81.0756 36.9537 81.6585C36.5626 82.1646 36.0144 82.6248 35.3128 83.012C33.9287 83.7828 32.1038 84.2122 30.1754 84.2122C28.2469 84.2122 26.422 83.7866 25.038 83.012C24.3402 82.6248 23.792 82.1646 23.3971 81.6585C22.9447 81.0756 22.707 80.4353 22.707 79.7604C22.707 78.5794 23.4354 77.4904 24.7658 76.6699C24.785 76.6584 24.8041 76.643 24.8271 76.6354C24.8961 76.5893 24.969 76.551 25.0418 76.5088C25.3677 76.3286 25.7204 76.1637 26.0923 76.0218C27.2923 75.5579 28.707 75.3125 30.1792 75.3125C31.9888 75.3125 33.7064 75.6844 35.0521 76.3669C35.1402 76.413 35.2284 76.459 35.3166 76.5088C36.8156 77.3486 37.6438 78.5027 37.6438 79.7604H37.6399Z" fill="#FF5F5E"/>
<path opacity="0.5" d="M30.1946 64.7294V75.7113C30.1946 76.8961 29.4968 77.9582 28.4233 78.4529C19.9773 82.3563 21.5108 94.6457 30.1946 96.5515C29.93 96.5515 29.6616 96.5438 29.3933 96.5208C24.2022 96.1335 20.0386 91.9041 19.7319 86.7084C19.4444 81.831 22.4693 77.4943 27.07 76.0602C27.6182 75.8876 27.9824 75.3892 27.9824 74.8293V64.1197C28.523 64.5108 29.3473 64.7141 30.1946 64.7256V64.7294Z" fill="white"/>
<g style="mix-blend-mode:multiply" opacity="0.4">
<path d="M144.087 91.5935C134.33 91.7469 121.122 93.6104 111.016 96.0913L83.0981 79.9713C82.6419 79.7106 81.9058 79.7106 81.4534 79.9713L37.8738 105.133C37.4175 105.394 37.4175 105.819 37.8738 106.084L70.9792 125.199C71.4355 125.459 72.1716 125.459 72.624 125.199L89.4278 115.497L125.815 111.678C126.436 111.609 127.172 111.452 127.46 111.329C127.583 111.276 128.288 110.969 128.303 110.961C128.506 110.873 128.476 110.785 128.169 110.72L127.912 110.662L130.197 109.669L130.515 109.635C131.129 109.566 131.857 109.408 132.145 109.282C132.275 109.224 132.954 108.929 132.988 108.914C133.195 108.826 133.172 108.737 132.869 108.672L117.825 105.359C125.16 103.718 140.514 102.368 151.249 97.8283C159.86 94.1856 156.651 91.3941 144.083 91.5935H144.087Z" fill="#E76871"/>
</g>
<path d="M39.1236 101.429L45.7256 98.5914L40.7684 93.8328L39.1236 94.7799V101.429Z" fill="#8E2D59"/>
<path d="M109.632 96.1565L73.0994 117.25L71.562 118.139C71.0751 118.419 70.4425 118.561 69.8099 118.561V120.49C70.4042 120.494 71.0023 120.36 71.4585 120.099C71.6847 119.968 71.8994 119.842 72.0988 119.731L72.3786 119.57C72.509 119.497 72.624 119.428 72.7275 119.37C72.7812 119.34 72.8234 119.313 72.8655 119.29C72.9115 119.267 72.9422 119.244 72.9767 119.225C73.0189 119.202 73.0496 119.182 73.0726 119.171C73.0917 119.159 73.1032 119.152 73.1032 119.152L109.636 98.0584C110.119 97.7785 110.514 97.1266 110.514 96.6013V95.0598C110.514 95.6465 109.912 95.9993 109.636 96.1603L109.632 96.1565Z" fill="#9B456C"/>
<path d="M69.8099 118.561C70.4425 118.561 71.0789 118.419 71.562 118.139L73.0956 117.254L109.782 96.0721C110.748 95.5123 110.748 94.6035 109.786 94.0399L105.814 91.7124L82.6074 77.3754C81.6413 76.8117 80.0694 76.8079 79.0994 77.3639L45.7217 96.6933V98.5914L39.7486 101.065H39.7447C39.7486 101.088 39.7486 101.111 39.7562 101.13C39.7524 101.145 39.7562 101.157 39.7601 101.172C39.7677 101.222 39.7792 101.272 39.7984 101.325C39.8137 101.383 39.8329 101.444 39.8636 101.498C39.8866 101.555 39.9172 101.613 39.9479 101.667C39.9786 101.724 40.0131 101.778 40.0514 101.824C40.0783 101.866 40.1089 101.901 40.1396 101.939L40.2086 102.008C40.2508 102.042 40.2853 102.081 40.3275 102.108C40.362 102.134 40.4041 102.165 40.4425 102.188L66.5166 117.246H66.5205L68.054 118.132C68.5678 118.419 69.1543 118.557 69.8061 118.557L69.8099 118.561Z" fill="#9B456C"/>
<path d="M40.7722 101.137L68.7978 117.323C69.4227 117.683 70.1972 117.683 70.8221 117.323L108.873 95.3512C109.188 95.171 109.379 94.8374 109.379 94.4732V88.6333L69.8061 111.552L40.7645 94.7838V101.137H40.7722Z" fill="white"/>
<path d="M70.8221 117.319L108.873 95.3474C109.188 95.1672 109.379 94.8336 109.379 94.4693V88.6295L69.8061 111.548V117.591C70.155 117.591 70.5039 117.499 70.8182 117.319H70.8221Z" fill="#DAE6EA"/>
<path d="M40.3581 95.5046V100.938C40.362 101.275 40.546 101.651 40.7722 101.782C40.9984 101.912 41.1824 101.747 41.1824 101.41V95.9763C41.1824 95.6388 40.9984 95.2631 40.7684 95.1289C40.5383 94.9947 40.3581 95.1634 40.3581 95.497V95.5046Z" fill="#FFDB4C"/>
<path d="M72.3786 111.019C72.6853 110.846 72.9154 110.712 73.0304 110.643L73.0955 110.605L99.7524 95.2171L109.636 89.5037C110.119 89.2238 110.514 88.572 110.514 88.0466C110.514 87.8012 110.514 86.5014 110.514 86.5014C110.514 87.1072 109.897 87.4523 109.636 87.6018L98.1039 94.2661L73.1032 108.699L71.5697 109.581C71.0789 109.865 70.4463 110.003 69.8138 110.003V111.939C70.408 111.943 71.0061 111.809 71.4623 111.548C71.6885 111.418 71.9032 111.291 72.1026 111.18L72.3824 111.019H72.3786Z" fill="#9B456C"/>
<path d="M109.782 87.5213L104.986 90.2898L73.0956 108.699L71.562 109.585C71.0751 109.865 70.4387 110.003 69.8099 110.003C69.139 110.01 68.5639 109.853 68.054 109.581L66.5243 108.699H66.5205L45.7294 96.6895L40.8834 93.8903L39.8597 93.2998C39.7179 93.2231 39.5837 93.1618 39.4533 93.1234C39.3843 93.1043 39.323 93.0851 39.2578 93.0774C39.1926 93.0659 39.1275 93.0621 39.0661 93.0621C39.024 93.0621 38.9856 93.0659 38.9434 93.0698C38.9013 93.0736 38.8668 93.0813 38.8284 93.0928C38.8016 93.0966 38.7748 93.1043 38.7518 93.1158C38.7287 93.1196 38.7019 93.1273 38.6789 93.1426C38.6521 93.1503 38.6176 93.1656 38.5907 93.1886L79.1032 69.7563C80.0694 69.1965 81.6413 69.2042 82.6112 69.7678L109.79 85.4814C110.752 86.0451 110.752 86.95 109.786 87.5137L109.782 87.5213Z" fill="#E76871"/>
<g style="mix-blend-mode:multiply" opacity="0.5">
<path d="M74.3032 100.846C84.2147 100.846 92.2496 96.2057 92.2496 90.4815C92.2496 84.7574 84.2147 80.117 74.3032 80.117C64.3917 80.117 56.3569 84.7574 56.3569 90.4815C56.3569 96.2057 64.3917 100.846 74.3032 100.846Z" fill="#C1CFF4"/>
</g>
<path d="M39.7447 95.9456V100.976C39.7447 101.003 39.7447 101.034 39.7524 101.065C39.7486 101.084 39.7524 101.107 39.7601 101.13C39.7562 101.145 39.7601 101.157 39.7639 101.172C39.7716 101.222 39.7831 101.272 39.8022 101.325C39.8176 101.383 39.8367 101.444 39.8674 101.498C39.8904 101.555 39.9211 101.613 39.9518 101.667C39.9824 101.724 40.0169 101.778 40.0553 101.824C40.0821 101.866 40.1128 101.901 40.1434 101.939L40.2125 102.008C40.247 102.05 40.2891 102.081 40.3313 102.108C40.3658 102.134 40.408 102.165 40.4463 102.188L66.5205 117.246L68.0579 118.136C68.5448 118.415 69.1773 118.557 69.8099 118.557V120.486C69.2157 120.49 68.6176 120.356 68.1614 120.095C67.9352 119.965 67.7205 119.838 67.5211 119.727L67.2412 119.566C67.1109 119.493 66.9959 119.424 66.8924 119.366C66.8387 119.336 66.7965 119.309 66.7543 119.286C66.7083 119.263 66.6777 119.24 66.6432 119.221C66.601 119.198 66.5703 119.179 66.5473 119.167C66.5281 119.156 66.5166 119.148 66.5166 119.148L39.8521 103.749C38.8859 103.189 38.1 101.828 38.1 100.712V94.3121C38.1 93.7677 38.2879 93.3842 38.5869 93.1887H38.5907L38.6482 93.158C38.6482 93.158 38.6674 93.1503 38.6789 93.1465C38.7019 93.135 38.7287 93.1235 38.7517 93.1196C38.7748 93.1081 38.8016 93.1005 38.8284 93.0966C38.8668 93.0851 38.9013 93.0775 38.9434 93.0736C38.9856 93.0698 39.024 93.0659 39.0661 93.0659C39.1275 93.0659 39.1926 93.0698 39.2578 93.0813C39.323 93.089 39.3843 93.1043 39.4533 93.1273C39.5837 93.1695 39.7179 93.227 39.8597 93.3037L40.8834 93.8942L45.7294 96.6933L66.5205 108.703H66.5243L68.054 109.585H68.0579C68.5448 109.868 69.1773 110.007 69.8099 110.007V111.943C69.2157 111.947 68.6176 111.813 68.1614 111.552C67.9352 111.421 67.7205 111.295 67.5211 111.184L67.2412 111.023C66.9345 110.85 66.7045 110.716 66.5895 110.647L66.5243 110.609L66.5166 110.605L44.077 97.6443L40.4463 95.5468C40.0629 95.3244 39.7447 95.5047 39.7447 95.9533V95.9456Z" fill="#E7478D"/>
<path d="M74.3032 94.1089C77.5153 94.1089 80.1192 91.5046 80.1192 88.2921C80.1192 85.0795 77.5153 82.4752 74.3032 82.4752C71.0911 82.4752 68.4872 85.0795 68.4872 88.2921C68.4872 91.5046 71.0911 94.1089 74.3032 94.1089Z" fill="#6F89D1"/>
<path d="M67.3294 88.6755C63.4764 86.4515 63.4764 82.8472 67.3294 80.6232C71.1824 78.3992 77.424 78.3992 81.277 80.6232C85.1301 82.8472 85.1301 86.4515 81.277 88.6755C77.424 90.8995 71.1824 90.8995 67.3294 88.6755Z" fill="#A5CBFA"/>
<path d="M74.3032 88.2921C79.9164 88.2921 84.4668 85.6637 84.4668 82.4215C84.4668 79.1793 79.9164 76.551 74.3032 76.551C68.69 76.551 64.1396 79.1793 64.1396 82.4215C64.1396 85.6637 68.69 88.2921 74.3032 88.2921Z" fill="#6F89D1"/>
<path d="M66.8962 84.4078C62.8054 82.0458 62.8054 78.2151 66.8962 75.8531C70.9869 73.4911 77.6233 73.4911 81.7141 75.8531C85.8048 78.2151 85.8048 82.0458 81.7141 84.4078C77.6233 86.7698 70.9869 86.7698 66.8962 84.4078Z" fill="#A5CBFA"/>
<path d="M74.3032 84.0051C80.2679 84.0051 85.1032 81.2137 85.1032 77.7703C85.1032 74.3269 80.2679 71.5355 74.3032 71.5355C68.3385 71.5355 63.5032 74.3269 63.5032 77.7703C63.5032 81.2137 68.3385 84.0051 74.3032 84.0051Z" fill="#6F89D1"/>
<path d="M74.3032 81.6968C80.3886 81.6968 85.3218 78.8488 85.3218 75.3355C85.3218 71.8222 80.3886 68.9741 74.3032 68.9741C68.2178 68.9741 63.2847 71.8222 63.2847 75.3355C63.2847 78.8488 68.2178 81.6968 74.3032 81.6968Z" fill="#A5CBFA"/>
<path d="M74.3032 12.0901C59.0022 12.0901 46.5997 24.4946 46.5997 39.7978C46.5997 61.796 64.7454 65.4464 64.7454 74.3117C64.7454 75.7228 65.677 77.1377 67.5441 78.2151C71.2783 80.3701 77.3281 80.3701 81.0623 78.2151C82.9294 77.1377 83.8611 75.7266 83.8611 74.3117C83.8611 65.4464 102.007 61.7922 102.007 39.7978C102.007 24.4946 89.6042 12.0901 74.3032 12.0901Z" fill="#FFDB4C"/>
<path d="M68.7709 77.5096C65.7153 75.7458 65.7153 72.8814 68.7709 71.1176C71.8265 69.3537 76.7837 69.3537 79.8393 71.1176C82.8949 72.8814 82.8949 75.7458 79.8393 77.5096C76.7837 79.2734 71.8265 79.2734 68.7709 77.5096Z" fill="#FDB724"/>
<path d="M70.8412 73.794C70.8412 73.794 70.9562 68.3223 69.369 60.9448C67.7818 53.5673 65.0904 49.7942 63.8291 50.7988C62.5677 51.7996 65.7728 56.7077 70.4808 56.5083C75.1888 56.3089 76.3275 52.2598 73.6898 50.6416C71.0521 49.0235 71.0329 55.6571 76.2546 59.7983C81.4802 63.9395 85.6515 62.0414 84.1677 60.5C82.684 58.9585 78.5358 60.0398 77.3933 64.7984C76.2508 69.5569 76.0361 76.643 76.0361 76.643" stroke="#EA9600" stroke-linecap="round" stroke-linejoin="round"/>
<g style="mix-blend-mode:screen" opacity="0.3">
<path d="M55.3907 30.2616C50.9013 30.2692 47.539 39.3645 51.3882 49.9476C55.2374 60.5307 61.4751 63.6136 65.7767 62.2562C70.0821 60.8988 71.0482 50.0205 67.7319 41.9489C63.9172 32.6696 59.5236 30.2539 55.3869 30.2616H55.3907Z" fill="#FFE484"/>
</g>
<path d="M114.133 100.432L113.033 100.259L114.969 107.414L116.069 107.587L114.133 100.432Z" fill="#EEE8DE"/>
<path d="M112.109 92.9394L111.009 92.7668L112.841 99.5423L113.942 99.7149L112.109 92.9394Z" fill="#EEE8DE"/>
<path d="M110.085 85.4507L108.984 85.2782L110.817 92.0537L111.917 92.2262L110.085 85.4507Z" fill="#EEE8DE"/>
<path d="M113.942 99.7149L112.841 99.5423L105.89 103.553L106.991 103.73L113.942 99.7149Z" fill="#FFF8EF"/>
<path d="M108.06 77.9582L106.96 77.7818L108.793 84.5573L109.893 84.7299L108.06 77.9582Z" fill="#EEE8DE"/>
<path d="M111.917 92.2262L110.817 92.0536L103.866 96.0645L104.966 96.237L111.917 92.2262Z" fill="#FFF8EF"/>
<path d="M106.036 70.4657L104.936 70.2932L106.768 77.0686L107.869 77.2412L106.036 70.4657Z" fill="#EEE8DE"/>
<path d="M109.893 84.7298L108.793 84.5573L101.842 88.572L102.942 88.7445L109.893 84.7298Z" fill="#FFF8EF"/>
<path d="M104.012 62.9732L102.912 62.8007L104.74 69.5761L105.841 69.7487L104.012 62.9732Z" fill="#EEE8DE"/>
<path d="M107.869 77.2412L106.768 77.0686L99.8176 81.0833L100.918 81.2559L107.869 77.2412Z" fill="#FFF8EF"/>
<path d="M101.988 55.4846L100.887 55.312L102.72 62.0875L103.82 62.26L101.988 55.4846Z" fill="#EEE8DE"/>
<path d="M105.841 69.7487L104.74 69.5761L97.7895 73.5908L98.8898 73.7634L105.841 69.7487Z" fill="#FFF8EF"/>
<path d="M99.9633 47.992L98.863 47.8195L100.692 54.5949L101.792 54.7675L99.9633 47.992Z" fill="#EEE8DE"/>
<path d="M103.82 62.26L102.72 62.0875L95.7691 66.1021L96.8694 66.2747L103.82 62.26Z" fill="#FFF8EF"/>
<path d="M97.939 40.5034L96.8387 40.3308L98.6675 47.1063L99.7678 47.2788L97.939 40.5034Z" fill="#EEE8DE"/>
<path d="M101.792 54.7675L100.692 54.595L93.7409 58.6096L94.8412 58.7822L101.792 54.7675Z" fill="#FFF8EF"/>
<path d="M99.7678 47.2788L98.6674 47.1063L91.7166 51.1171L92.817 51.2897L99.7678 47.2788Z" fill="#FFF8EF"/>
<path d="M98.5639 40.1391L97.4636 39.9666L96.8387 40.3308L97.939 40.5034L98.5639 40.1391Z" fill="#FFF8EF"/>
<path d="M90.9882 44.5142L89.8879 44.3416L89.263 44.7059L90.3633 44.8785L90.9882 44.5142Z" fill="#FFF8EF"/>
<path d="M90.3633 44.8785L108.494 111.962L109.119 111.602L107.186 104.447L114.137 100.432L116.069 107.587L116.694 107.227L98.5639 40.1429L97.939 40.5034L99.7716 47.2788L92.8208 51.2935L90.9882 44.518L90.3633 44.8785ZM105.158 96.9541L112.109 92.9394L113.942 99.7149L106.991 103.73L105.158 96.9541ZM103.134 89.4654L110.085 85.4507L111.917 92.2262L104.967 96.2409L103.134 89.4654ZM101.11 81.9729L108.06 77.9582L109.893 84.7337L102.942 88.7484L101.11 81.9729ZM99.0854 74.4842L106.036 70.4696L107.869 77.245L100.918 81.2597L99.0854 74.4842ZM97.0611 66.9917L104.012 62.9771L105.844 69.7525L98.8937 73.7672L97.0611 66.9917ZM95.0368 59.503L101.988 55.4884L103.82 62.2639L96.8694 66.2785L95.0368 59.503ZM93.0125 52.0105L99.9633 47.9959L101.796 54.7713L94.8451 58.786L93.0125 52.0105Z" fill="#D5CBBD"/>
<path d="M90.3633 44.8785L89.263 44.7059L107.39 111.79L108.49 111.962L90.3633 44.8785Z" fill="#EEE8DE"/>
<path d="M120.118 67.6512L116.146 67.8851C115.893 67.9005 115.705 67.6474 115.797 67.4097L119.57 60.5767C119.712 60.2124 119.413 60.0207 119.152 60.3083L109.119 71.3707C109.007 71.4934 109.111 71.6928 109.276 71.6698L113.827 71.0601C114.099 71.0217 114.306 71.3016 114.195 71.5509L111.672 77.13C111.511 77.4904 111.726 77.7627 111.998 77.4789L120.39 68.2418C120.613 68.0117 120.436 67.6282 120.118 67.6474V67.6512Z" fill="#FFD31D"/>
<g style="mix-blend-mode:screen" opacity="0.5">
<path d="M112.289 77.0571L114.812 71.478C114.927 71.2288 114.72 70.9489 114.444 70.9872L113.884 71.0639C114.126 71.0716 114.294 71.3246 114.191 71.5585L111.668 77.1377C111.507 77.4981 111.722 77.7703 111.994 77.4866L112.239 77.2182C112.247 77.1683 112.262 77.1185 112.289 77.061V77.0571Z" fill="#FFD31D"/>
<path d="M110.982 71.1368L119.604 60.4157C119.616 60.1626 119.37 60.0667 119.152 60.3083L109.119 71.3707C109.007 71.4934 109.111 71.6928 109.276 71.6698L111.097 71.4359C110.955 71.4205 110.878 71.248 110.982 71.1368Z" fill="#FFD31D"/>
</g>
<path d="M42.3364 46.2282L40.1089 52.904C40.0859 53.042 40.2009 53.1609 40.3389 53.1455L44.8744 52.9653C45.0623 52.9461 45.1811 53.157 45.0623 53.3066L35.8993 64.8674C35.7613 65.0438 35.4814 64.9096 35.5274 64.6911L38.2763 57.164C38.307 57.0222 38.1843 56.8918 38.0425 56.911L33.3651 57.3481C33.1773 57.3749 33.0508 57.1564 33.1696 57.0068L41.9607 46.0633C42.0949 45.8946 42.3671 46.0135 42.3326 46.2282H42.3364Z" fill="#FFD31D"/>
<g style="mix-blend-mode:screen" opacity="0.5">
<path d="M38.9169 57.0797C38.9475 56.9378 38.8249 56.8074 38.683 56.8266L35.1022 57.1794C34.9143 57.2062 34.7878 56.9877 34.9066 56.8381L42.2945 46.3586L42.3367 46.2282C42.3712 46.0135 42.099 45.8946 41.9648 46.0633L33.1737 57.0068C33.0549 57.1564 33.1776 57.3749 33.3693 57.3481L38.0466 56.911C38.1923 56.8918 38.3111 57.0183 38.2805 57.164L35.5316 64.6911C35.4856 64.9096 35.7654 65.04 35.9035 64.8674L36.214 64.4763L38.9169 57.0835V57.0797Z" fill="#FFD31D"/>
</g>
<path fill-rule="evenodd" clip-rule="evenodd" d="M42.4173 31.8917C42.6119 32.4086 42.3506 32.9853 41.8337 33.1799L32.0842 36.8494C31.5673 37.044 30.9906 36.7827 30.796 36.2658C30.6015 35.7489 30.8628 35.1722 31.3797 34.9776L41.1292 31.3081C41.6461 31.1135 42.2228 31.3748 42.4173 31.8917Z" fill="#FFDC48"/>
<path fill-rule="evenodd" clip-rule="evenodd" d="M43.412 6.76906C43.9323 6.5839 44.5042 6.8556 44.6894 7.37592L48.1744 17.1691C48.3595 17.6894 48.0878 18.2613 47.5675 18.4465C47.0472 18.6316 46.4753 18.3599 46.2901 17.8396L42.8051 8.04645C42.62 7.52613 42.8917 6.95422 43.412 6.76906Z" fill="#FFDC48"/>
<path fill-rule="evenodd" clip-rule="evenodd" d="M32.4619 19.2415C32.7159 18.7511 33.3194 18.5595 33.8098 18.8136L43.0992 23.6258C43.5896 23.8798 43.7812 24.4833 43.5272 24.9737C43.2732 25.4641 42.6697 25.6557 42.1793 25.4016L32.8898 20.5894C32.3994 20.3354 32.2078 19.7319 32.4619 19.2415Z" fill="#FFDC48"/>
<g filter="url(#filter0_d_140_5556)">
<path d="M74.3032 12.0901C89.6042 12.0901 102.007 24.4945 102.007 39.7978C102.007 43.153 101.581 46.0825 100.864 48.6669L116.69 107.223L116.066 107.583L114.965 107.411L113.221 100.953L107.182 104.439L109.115 111.594L108.49 111.954L107.39 111.782L104.483 101.022L73.1032 119.144C73.1032 119.144 73.0917 119.152 73.0725 119.163C73.0495 119.175 73.015 119.19 72.9767 119.217C72.946 119.236 72.9115 119.259 72.8655 119.282C72.8233 119.305 72.7812 119.332 72.7275 119.363C72.6278 119.42 72.509 119.489 72.3786 119.562L72.0987 119.723C71.8994 119.838 71.6847 119.961 71.4585 120.091C71.0061 120.352 70.4233 120.482 69.8368 120.482C69.8291 120.482 69.8214 120.482 69.8099 120.482C69.8023 120.482 69.7946 120.482 69.7831 120.482C69.1965 120.482 68.6099 120.348 68.1614 120.091C67.9352 119.961 67.7205 119.834 67.5211 119.723L67.2412 119.562C67.1109 119.489 66.9959 119.42 66.8923 119.363C66.8387 119.332 66.7965 119.305 66.7543 119.282C66.7083 119.259 66.6776 119.236 66.6431 119.217C66.601 119.194 66.5703 119.175 66.5473 119.163C66.5281 119.152 66.5166 119.144 66.5166 119.144L39.8521 103.745C38.8859 103.185 38.1 101.824 38.1 100.708V94.7991C36.0105 96.6933 33.2386 97.8513 30.1945 97.8513C30.0105 97.8513 29.8265 97.8475 29.6386 97.8398C25.1147 97.6328 21.2425 94.826 19.4597 90.9033C18.045 91.1871 16.569 91.3289 15.0891 91.3289C11.723 91.3289 8.36065 90.5889 5.79195 89.1088C2.51016 87.2146 1.32166 84.5688 2.22646 82.1301C2.24563 82.0764 2.26863 82.0189 2.29163 81.9652L2.3108 81.9154L11.5006 58.0651V49.6677C11.2591 49.3456 11.1325 48.9928 11.1325 48.6209C11.1325 47.9268 11.5734 47.2903 12.3747 46.8264C13.1108 46.4007 14.0846 46.1668 15.1121 46.1668C16.1396 46.1668 17.1134 46.4007 17.8495 46.8264C18.6508 47.2903 19.0878 47.9268 19.0878 48.6209C19.0878 48.9928 18.9613 49.3456 18.7198 49.6677V58.0651L25.36 75.3278C25.5747 75.2319 25.7894 75.1361 26.008 75.0517C26.4182 74.8945 26.6827 74.4957 26.6827 74.0586V62.816C26.4412 62.4939 26.3108 62.1373 26.3108 61.7615C26.3108 61.0637 26.7556 60.4195 27.5645 59.9517C28.3083 59.5222 29.2897 59.2845 30.3249 59.2845C31.36 59.2845 32.3415 59.5222 33.0853 59.9517C33.8904 60.4195 34.3351 61.0598 34.3351 61.7615C34.3351 62.1373 34.2086 62.4939 33.9671 62.816V73.9397C33.9671 74.5072 34.3044 75.0172 34.8259 75.2396C39.0278 77.038 41.976 81.2098 41.976 86.0719C41.976 88.3342 41.3358 90.4509 40.2278 92.2454L63.6297 78.7098C63.4687 78.1039 63.4649 77.4866 63.6144 76.8808C62.978 75.4122 63.2655 73.8362 64.4732 72.4596C62.215 64.8214 46.5997 60.2009 46.5997 39.794C46.5997 24.4907 59.0022 12.0863 74.3032 12.0863M97.3026 56.5505L100.692 54.5911L99.8828 51.5926C99.1505 53.4216 98.2726 55.0628 97.3026 56.5467M96.6777 65.5691L102.716 62.0836L101.075 56.006L95.2246 59.3842C95.171 59.4532 95.1173 59.5184 95.0598 59.5874L96.6777 65.5691ZM98.5218 78.9705L93.7064 61.148C90.1294 65.0783 86.3914 67.8775 84.739 71.0025L98.5218 78.9705ZM98.702 73.0616L104.74 69.5761L103.099 63.4985L97.0611 66.984L98.702 73.0616ZM100.995 80.4008L106.768 77.0686L105.128 70.991L99.0892 74.4765L100.634 80.1899L100.998 80.4008M108.49 84.7337L108.797 84.5573L107.156 78.4797L102.413 81.2175L108.49 84.7337ZM109.383 92.8781L110.817 92.0498L110.035 89.1625C109.912 89.3005 109.778 89.4194 109.632 89.5037L109.379 89.6495V92.8781M110.506 95.0522V96.5936C110.506 97.119 110.115 97.7708 109.628 98.0507L106.017 100.137L106.795 103.024L112.834 99.5385L111.193 93.4609L109.974 94.1626C110.326 94.4233 110.503 94.7378 110.503 95.0522M68.8898 118.454C68.5907 118.385 68.3109 118.277 68.0502 118.132L66.5166 117.246H66.5128L68.0502 118.136C68.2994 118.277 68.5869 118.385 68.8898 118.454ZM71.5773 118.124C71.7153 118.044 72.5626 117.557 72.9268 117.342L71.5773 118.124ZM69.8061 118.557C70.431 118.557 71.0483 118.419 71.5275 118.151C71.0444 118.419 70.4233 118.557 69.8061 118.557ZM74.3032 10.1652C57.9709 10.1652 44.6827 23.4554 44.6827 39.7902C44.6827 54.0543 51.9901 61.1518 57.323 66.3322C59.5045 68.4488 61.4291 70.3162 62.307 72.1605C61.3562 73.6905 61.1147 75.4007 61.6323 77.0456C61.6054 77.2527 61.5901 77.4598 61.5863 77.6668L43.7549 87.9815C43.8431 87.3488 43.8891 86.7084 43.8891 86.0642C43.8891 80.6845 40.7569 75.8301 35.8802 73.6023V63.3336C36.1217 62.8352 36.2482 62.2983 36.2482 61.75C36.2482 60.3581 35.4431 59.0928 34.0399 58.2837C33.0086 57.6893 31.6897 57.3596 30.3172 57.3596C28.9447 57.3596 27.6258 57.6855 26.5984 58.2837C25.1913 59.0966 24.3862 60.362 24.3862 61.7539C24.3862 62.3022 24.5127 62.839 24.7581 63.3375V68.4411L20.629 57.7085V50.193C20.8706 49.6984 20.9971 49.1654 20.9971 48.6209C20.9971 47.2328 20.1958 45.9751 18.8003 45.1699C17.7766 44.5794 16.4616 44.2534 15.1006 44.2534C13.7396 44.2534 12.4284 44.5794 11.4047 45.1699C10.0054 45.979 9.2041 47.2366 9.2041 48.6247C9.2041 49.1692 9.33062 49.7022 9.57215 50.1968V57.7124L0.51655 81.2137V81.2213C0.478212 81.3019 0.44754 81.3824 0.416869 81.4667C-0.855976 84.9024 0.834762 88.4684 4.82199 90.7729C7.59004 92.3719 11.2322 93.25 15.0776 93.25C16.1971 93.25 17.3089 93.1733 18.3939 93.0276C20.7364 97.0039 24.8885 99.5423 29.5389 99.7571C29.7536 99.7686 29.9683 99.7724 30.183 99.7724C32.2802 99.7724 34.3236 99.2931 36.1715 98.392V100.712C36.1715 102.526 37.3102 104.504 38.8821 105.409L65.5121 120.789C65.5121 120.789 65.539 120.804 65.5505 120.812C65.5888 120.835 65.6272 120.854 65.6655 120.873C65.7077 120.896 65.7498 120.923 65.7997 120.95L65.838 120.973L65.8764 120.996C65.8994 121.011 65.9224 121.023 65.9454 121.034L66.0872 121.115C66.1486 121.149 66.2137 121.188 66.2789 121.226L66.5473 121.383L66.854 121.56L67.1952 121.755C67.9198 122.169 68.8323 122.399 69.7716 122.399H69.7984H69.8252C70.7607 122.399 71.677 122.169 72.4054 121.751L72.7428 121.556L73.0419 121.383L73.3217 121.222C73.3907 121.184 73.4521 121.149 73.5134 121.111L73.6553 121.031C73.6783 121.019 73.7013 121.004 73.7243 120.988L73.7626 120.965L73.801 120.942C73.8508 120.916 73.8968 120.889 73.9352 120.862C73.9735 120.843 74.0157 120.82 74.0502 120.797C74.0617 120.789 74.0732 120.781 74.0847 120.774L103.272 103.921L105.53 112.273C105.726 113.005 106.335 113.55 107.083 113.668L108.183 113.841C108.283 113.856 108.382 113.864 108.478 113.864C108.812 113.864 109.145 113.776 109.437 113.607L110.062 113.247C110.813 112.813 111.181 111.924 110.955 111.084L109.406 105.352L112.009 103.848L113.102 107.898C113.298 108.63 113.907 109.174 114.655 109.289L115.755 109.462C115.855 109.477 115.954 109.485 116.05 109.485C116.384 109.485 116.717 109.397 117.009 109.228L117.634 108.868C118.385 108.434 118.753 107.545 118.527 106.709L102.835 48.6477C103.548 45.8908 103.908 42.9114 103.908 39.7786C103.908 23.4439 90.6202 10.1537 74.2879 10.1537L74.3032 10.1652ZM97.2719 60.4156L99.8751 58.9125L100.481 61.1595L97.8777 62.6626L97.2719 60.4156ZM87.4534 70.3545C88.4425 69.0892 89.792 67.7778 91.2873 66.3284C91.7665 65.8644 92.2496 65.3927 92.7365 64.9096L95.4585 74.9827L87.4534 70.3545ZM99.2962 67.9043L101.899 66.4012L102.505 68.6482L99.902 70.1513L99.2962 67.9043ZM101.32 75.3968L103.924 73.8937L104.529 76.1407L101.926 77.6438L101.32 75.3968Z" fill="#FFFEFD"/>
<path d="M21.4418 98.1888C21.6833 98.1888 21.9057 98.2425 22.1051 98.3345C22.9754 98.7371 23.3549 99.8989 22.6955 100.758C23.5121 102.054 23.7766 103.868 23.7766 105.624C27.4303 105.708 28.2239 107.94 25.5134 110.846C24.6162 111.813 23.4699 112.702 22.3543 113.435C22.3236 113.527 22.2891 113.622 22.2584 113.714C22.2661 113.691 22.2738 113.665 22.2814 113.642C22.2393 113.76 22.1971 113.879 22.1549 114.002C22.1242 113.964 22.0936 113.922 22.0591 113.879C22.7415 114.761 23.5428 115.9 24.022 116.912C24.022 116.912 24.022 116.92 24.0258 116.924C24.0258 116.924 24.0258 116.916 24.022 116.912C24.0028 116.874 23.9875 116.832 23.9683 116.797C24.045 116.782 24.1217 116.774 24.1945 116.774C24.4131 116.774 24.6278 116.832 24.8118 116.943C24.9651 117.031 25.1032 117.154 25.2067 117.307C25.5709 117.833 25.4674 118.538 24.9958 118.945C24.7696 119.14 24.4859 119.24 24.1984 119.24C24.0833 119.24 23.9722 119.225 23.861 119.194C23.769 119.217 23.6731 119.228 23.5696 119.228C22.6073 119.228 21.1466 118.316 20.422 117.833C20.4565 117.771 20.4948 117.702 20.5293 117.637C20.468 117.748 20.4067 117.863 20.3415 117.978C19.1875 120.057 17.3127 122.622 15.1811 123.646C14.5907 123.929 14.0156 124.071 13.475 124.071C12.045 124.071 10.8565 123.055 10.2661 120.923C9.98237 119.899 9.87885 118.764 9.87885 117.695C9.56448 117.687 9.29994 117.664 9.05841 117.633C8.79004 118.231 8.20729 118.569 7.60537 118.569C7.337 118.569 7.06096 118.5 6.81176 118.354C6.53572 118.193 6.31336 117.955 6.17534 117.664C6.16383 117.633 6.1485 117.603 6.137 117.572C5.87246 116.928 6.07566 116.18 6.6009 115.747C6.58173 115.762 6.56256 115.777 6.54722 115.793C6.4092 114.658 7.28332 113.408 8.05777 112.56C8.93572 111.579 10.1549 110.635 11.3051 109.88C11.3051 109.88 11.3051 109.88 11.3089 109.88C11.3166 109.876 11.3204 109.872 11.3281 109.868C11.3242 109.868 11.3166 109.876 11.3127 109.88C11.3127 109.88 11.3127 109.88 11.3089 109.88C11.3051 109.88 11.3204 109.842 11.4047 109.596C11.4469 109.474 11.4852 109.374 11.5198 109.282C11.5313 109.255 11.5466 109.213 11.5658 109.159C11.5504 109.197 11.5351 109.24 11.5198 109.282C11.5159 109.297 11.5082 109.309 11.5082 109.312C11.2821 109.013 11.0674 108.726 10.8603 108.431C10.8603 108.431 10.868 108.438 10.8718 108.442C10.707 108.247 9.66416 106.717 9.34211 105.662C9.23476 105.317 9.14658 104.895 9.28844 104.558C9.43029 104.217 9.714 104.086 10.0782 104.086C11.0098 104.086 12.4475 104.964 13.2373 105.486C13.9389 105.954 14.7325 106.552 15.5645 107.238C15.5645 107.238 15.5722 107.246 15.576 107.246C15.576 107.246 15.5683 107.238 15.5645 107.238C15.5108 107.196 15.4571 107.15 15.4073 107.104C15.5606 107.227 15.714 107.353 15.852 107.468C18.0948 106.521 20.9587 105.654 23.3894 105.616C23.3894 104.14 23.1709 102.307 22.4003 101.049C22.1127 101.268 21.7754 101.368 21.4456 101.368C21.0239 101.368 20.606 101.203 20.3031 100.888C20.215 100.796 20.1345 100.693 20.0654 100.574C19.8891 100.271 19.8316 99.9411 19.8623 99.6267C19.8623 99.6382 19.8623 99.6459 19.8584 99.6612C18.5702 99.7954 17.2974 100.792 16.3888 101.728C15.4993 102.644 14.5102 103.948 13.5555 105.693C13.4482 105.62 13.3447 105.547 13.2412 105.482C14.3338 103.492 15.9517 101.218 17.861 100.014C18.4974 99.6113 19.2067 99.3084 19.9466 99.2471C19.9466 99.2509 19.9466 99.2586 19.9428 99.2624C19.9313 99.2969 19.9198 99.3314 19.9121 99.3621C19.9121 99.3698 19.9121 99.3736 19.9083 99.3813C19.9083 99.3736 19.9083 99.3698 19.9121 99.3621C19.9236 99.3161 19.9351 99.2816 19.9428 99.2624C20.1421 98.6796 20.675 98.2156 21.3843 98.1888C21.4073 98.1888 21.4303 98.1888 21.4533 98.1888M11.2207 108.208C11.2322 108.231 11.236 108.258 11.2322 108.285C11.2322 108.285 11.2322 108.293 11.2322 108.296C11.2322 108.296 11.2322 108.289 11.2322 108.285C11.2322 108.258 11.2322 108.231 11.2207 108.208C11.2207 108.197 11.213 108.185 11.213 108.185C11.213 108.185 11.2744 108.296 11.6923 108.849C11.6846 108.868 11.6769 108.887 11.6693 108.906C11.6884 108.856 11.7076 108.806 11.7306 108.749C12.1063 107.786 12.5472 106.801 13.0418 105.861C12.8769 105.75 12.7121 105.639 12.5511 105.539C12.0335 105.217 10.8335 104.504 10.1166 104.504C10.0245 104.504 9.9402 104.516 9.86352 104.542C9.64115 104.619 9.62582 104.861 9.64882 105.098C9.77534 106.241 11.19 108.131 11.2207 108.208ZM16.1702 107.74C16.0821 107.664 15.9977 107.595 15.9095 107.522C16.0361 107.629 16.1664 107.737 16.2929 107.848C16.2929 107.848 16.2929 107.848 16.2968 107.848C16.2968 107.848 16.2968 107.848 16.2929 107.848C16.2546 107.813 16.2162 107.779 16.1779 107.744C16.2239 107.783 16.4271 107.959 16.5383 108.055C16.6418 108.047 16.7453 108.043 16.8488 108.043C17.9338 108.043 18.9153 108.534 19.5785 109.305C20.1728 109.999 20.5102 110.923 20.4373 111.924C20.4105 111.893 20.3798 111.862 20.353 111.832C20.8246 112.353 21.2769 112.886 21.7063 113.419C21.7102 113.427 21.7178 113.431 21.7217 113.438C21.8137 113.55 21.9095 113.672 22.0054 113.799C22.0054 113.799 22.0092 113.806 22.0131 113.81C22.0131 113.81 22.0092 113.803 22.0054 113.799C21.967 113.749 21.9249 113.695 21.8865 113.645C21.8329 113.576 21.7792 113.507 21.7217 113.442C21.7178 113.435 21.7102 113.431 21.7063 113.423C21.8137 113.354 21.921 113.289 22.0284 113.22C22.799 110.934 23.3357 108.431 23.3856 106.019C21.0814 106.042 18.2559 106.87 16.1664 107.74M22.5421 112.879C23.9223 111.935 25.7357 110.455 26.468 108.944C27.4226 106.977 25.9466 106.088 23.7766 106.023C23.7575 106.851 23.6808 107.66 23.5773 108.381C23.3587 109.911 23.0329 111.356 22.5421 112.879ZM12.0987 109.382C12.1638 109.343 12.229 109.305 12.2942 109.266C12.2827 109.274 12.2674 109.282 12.2559 109.289C12.2559 109.289 12.252 109.289 12.2482 109.293C12.2482 109.293 12.252 109.293 12.2559 109.289C12.4284 109.186 12.5894 109.09 12.6162 109.079C14.0118 108.277 15.4073 107.656 15.4265 107.656C14.7939 107.131 14.0693 106.567 13.3523 106.069C13.3907 106.111 12.8999 106.786 12.0872 108.872C12.045 108.983 12.0067 109.094 11.9645 109.205C12.0105 109.266 12.0565 109.324 12.1025 109.385M12.7389 109.431C12.7159 109.447 12.5242 109.562 12.3287 109.677C12.3555 109.684 12.4514 109.865 13.3178 110.85C13.3983 110.49 13.5364 110.141 13.7357 109.815C14.2533 108.941 15.0968 108.365 15.9977 108.151C15.9095 108.074 15.8214 108.001 15.737 107.928C14.7057 108.373 13.7089 108.868 12.7351 109.431M19.6322 111.671C18.4974 110.44 17.2706 109.247 16.0591 108.197C17.2629 109.243 18.4859 110.424 19.6322 111.671ZM11.2054 110.386C11.3396 110.294 11.6118 110.118 11.6309 110.106C11.6769 110.106 10.3658 113.469 10.2852 117.3C11.3549 117.288 12.4015 117.116 13.4559 116.886C14.9089 116.567 17.4201 115.662 17.5044 115.578C17.5044 115.578 17.4814 115.563 17.3664 115.459C17.3664 115.459 17.1479 115.271 17.1364 115.26C17.1632 115.26 17.2437 115.248 17.3357 115.237C17.167 115.26 16.9984 115.271 16.8335 115.271C16.2507 115.271 15.6795 115.129 15.1658 114.865C14.6865 114.616 14.2916 114.274 13.9849 113.875C13.4329 113.158 13.1721 112.261 13.2373 111.379C13.2373 111.383 13.2373 111.387 13.2373 111.391C12.7696 110.869 12.344 110.363 11.9683 109.895C11.953 109.903 11.9376 109.915 11.9338 109.918C11.7038 110.068 11.6616 110.095 11.6386 110.106C11.6271 110.114 11.3396 110.298 11.2015 110.394M6.86927 115.586C6.78109 115.632 6.70058 115.685 6.62773 115.747C6.71975 115.674 6.81176 115.62 6.86927 115.586C6.88077 115.578 6.89227 115.574 6.90377 115.566L6.92677 115.555C6.92677 115.555 6.92677 115.555 6.91527 115.563C7.01879 115.513 7.1338 115.471 7.25265 115.44C7.37917 115.409 7.50185 115.398 7.62454 115.398C8.05777 115.398 8.46416 115.578 8.7517 115.873C9.08524 116.215 9.2731 116.709 9.18492 117.25C9.40345 117.277 9.63349 117.296 9.89419 117.303C9.94786 115.018 10.4309 112.618 11.1249 110.448C9.82135 111.329 8.20345 112.668 7.39834 114.014C7.11847 114.477 6.88077 115.026 6.90377 115.566C6.89227 115.57 6.88077 115.578 6.86927 115.586ZM13.2795 111.038C13.2642 111.134 13.2488 111.23 13.2412 111.326C13.2488 111.253 13.2603 111.145 13.2795 111.038C13.2872 110.992 13.2987 110.942 13.3063 110.896C13.2948 110.942 13.2872 110.988 13.2795 111.038ZM17.3702 115.237C17.5044 115.218 17.6424 115.191 17.6654 115.179C17.6884 115.198 17.6769 115.191 17.9223 115.402C19.038 114.922 20.2226 114.332 21.3383 113.661C21.3191 113.638 21.3 113.611 21.2808 113.592C20.9817 113.224 20.6674 112.856 20.3453 112.487C20.0271 113.856 18.9613 114.876 17.6693 115.183C17.5696 115.206 17.4661 115.225 17.3664 115.241M20.8629 114.359C20.8629 114.359 20.8821 114.347 20.8936 114.343C20.8821 114.351 20.8667 114.359 20.8552 114.366C20.8399 114.374 20.8246 114.385 20.8054 114.393C20.5945 114.512 20.376 114.631 20.1536 114.75C20.1115 114.773 20.0693 114.792 20.0271 114.815C20.0271 114.815 20.0194 114.815 20.0156 114.819C19.9696 114.842 19.9236 114.865 19.8776 114.888C19.8968 114.876 19.9159 114.869 19.9389 114.857C19.7856 114.938 19.6322 115.014 19.4712 115.095C19.3945 115.133 19.3178 115.172 19.2412 115.206C19.0955 115.279 18.946 115.348 18.7964 115.417C18.6853 115.467 18.5741 115.517 18.4629 115.566C18.39 115.601 18.3172 115.635 18.2405 115.666C18.3172 115.743 19.3907 116.613 20.3108 117.254C20.606 116.694 20.8782 116.122 21.0929 115.628C21.4303 114.872 21.6833 114.175 21.7063 114.121C21.6565 114.06 21.6105 113.998 21.5645 113.941C21.3306 114.083 21.0968 114.217 20.8629 114.351M23.2399 118.787C23.2207 118.764 23.2016 118.745 23.1862 118.722C22.8105 118.197 22.9255 117.461 23.4201 117.058C23.4661 117.02 23.5159 116.985 23.5696 116.955C23.3587 116.533 23.098 116.092 22.8105 115.659C22.7952 115.632 22.776 115.605 22.7607 115.578C22.7415 115.547 22.7185 115.517 22.6993 115.486C22.6878 115.467 22.6763 115.451 22.6648 115.432C22.5805 115.31 22.4961 115.187 22.4118 115.068C22.3773 115.022 22.3466 114.972 22.3121 114.926C22.2009 114.773 22.0897 114.619 21.9785 114.47C21.5645 115.501 21.1926 116.395 20.6252 117.465C21.3076 117.921 22.4233 118.6 23.2284 118.772C23.2284 118.776 23.2361 118.78 23.2399 118.784M17.0559 116.153C17.0789 116.145 17.1019 116.134 17.1249 116.126C14.8015 117.039 12.6086 117.549 10.9178 117.672C10.684 117.687 10.4693 117.695 10.2737 117.698C10.2737 119.34 10.5421 121.495 11.6118 122.748C12.0987 123.32 12.7313 123.669 13.5134 123.669C14.0999 123.669 14.7709 123.473 15.5223 123.024C17.3472 121.939 19.0073 119.627 20.0846 117.672C20.0923 117.656 20.1038 117.641 20.1153 117.618C20.1153 117.618 20.1268 117.599 20.1306 117.587C20.123 117.599 20.1191 117.61 20.1153 117.618C19.6897 117.323 19.268 117.012 18.8616 116.694C18.6929 116.563 17.8226 115.85 17.815 115.846C17.7421 115.877 17.6654 115.908 17.5888 115.938C17.4392 116 17.2936 116.061 17.144 116.119C17.1134 116.13 17.0865 116.142 17.0597 116.153M24.2827 117.537C24.229 117.687 24.1447 117.729 24.0642 117.729C23.9683 117.729 23.8878 117.668 23.8878 117.668C23.8878 117.668 23.9722 117.729 24.068 117.729C24.1485 117.729 24.2329 117.687 24.2865 117.537M8.9779 117.626C9.0239 117.633 9.04307 117.633 9.06224 117.637C9.0354 117.637 9.00857 117.629 8.9779 117.626C8.97023 117.626 8.95873 117.626 8.94722 117.622C8.95873 117.622 8.96639 117.622 8.9779 117.626ZM10.1779 117.702C10.2201 117.702 10.2546 117.702 10.2699 117.702C10.2162 117.702 10.1626 117.702 10.1127 117.702C10.1357 117.702 10.1587 117.702 10.1779 117.702ZM16.1664 107.748C16.1664 107.748 16.1741 107.752 16.1741 107.756C16.1664 107.752 16.1664 107.748 16.1664 107.748ZM20.0309 114.807C20.0309 114.807 19.9926 114.826 19.9773 114.838C19.9926 114.83 20.0079 114.823 20.0233 114.815C20.0233 114.815 20.0309 114.815 20.0348 114.811M19.9811 114.842C19.9811 114.842 19.9581 114.853 19.9466 114.857C19.9581 114.853 19.9696 114.846 19.9811 114.842ZM21.4533 96.2869C21.4035 96.2869 21.3536 96.2869 21.3038 96.2869C20.2916 96.3291 19.3792 96.793 18.7581 97.5369C18.1178 97.7133 17.4776 98.0047 16.8373 98.4073C15.0814 99.5155 13.6437 101.256 12.5741 102.886C11.3357 102.272 10.5843 102.18 10.082 102.18C8.90888 102.18 7.95042 102.798 7.52102 103.837C7.09546 104.865 7.40984 105.896 7.51336 106.233C7.82773 107.257 8.55233 108.465 9.02773 109.163C8.22646 109.765 7.36384 110.497 6.64307 111.299C5.78428 112.238 4.81048 113.615 4.65329 115.141C4.07054 116.08 3.94786 117.273 4.37725 118.32C4.38109 118.331 4.38492 118.339 4.38875 118.35C4.41176 118.404 4.43093 118.446 4.45009 118.484C4.45393 118.492 4.45776 118.504 4.4616 118.511C4.76831 119.148 5.25137 119.673 5.86479 120.03C6.40153 120.34 7.00729 120.501 7.62454 120.501C7.8239 120.501 8.01943 120.486 8.20729 120.452C8.26863 120.797 8.34531 121.13 8.43349 121.449C9.57214 125.559 12.3517 126 13.4904 126C14.3185 126 15.1696 125.793 16.0245 125.386C18.1907 124.347 19.9389 122.219 21.1006 120.455C22.0552 120.931 22.868 121.157 23.5849 121.157C23.6693 121.157 23.7536 121.157 23.838 121.149C23.9607 121.165 24.0872 121.172 24.2137 121.172C24.969 121.172 25.6974 120.904 26.2648 120.413C27.4917 119.359 27.7217 117.564 26.8016 116.234C26.5447 115.858 26.1881 115.528 25.7817 115.298C25.5939 115.191 25.3945 115.099 25.1875 115.033C25.0265 114.761 24.8463 114.481 24.6508 114.194C25.5287 113.534 26.2917 112.856 26.9281 112.173C28.0322 110.988 29.7421 108.649 28.7683 106.337C28.4501 105.585 27.645 104.424 25.6284 103.94C25.5057 102.713 25.2412 101.636 24.8386 100.716C24.992 100.152 24.9996 99.5538 24.8578 98.971C24.6047 97.9357 23.8801 97.0576 22.9217 96.6128C22.4693 96.4019 21.9747 96.2907 21.4533 96.2907V96.2869ZM16.0897 105.21C16.6303 104.389 17.1939 103.668 17.7613 103.085C18.1255 102.71 18.4936 102.391 18.8348 102.15C18.8654 102.184 18.8961 102.219 18.9306 102.249C19.5364 102.871 20.3645 103.246 21.2348 103.3C21.277 103.488 21.3153 103.684 21.3498 103.891C19.4175 104.178 17.5619 104.769 16.1894 105.29C16.1549 105.263 16.1242 105.236 16.0897 105.213V105.21ZM21.1504 108.216C21.1964 108.208 21.2424 108.197 21.2923 108.189C21.2846 108.247 21.2769 108.304 21.2654 108.365C21.2271 108.316 21.1888 108.266 21.1504 108.216ZM12.39 115.16C12.3977 115.103 12.4054 115.045 12.4169 114.984C12.436 115.007 12.4514 115.033 12.4706 115.056C12.4897 115.083 12.5089 115.106 12.5281 115.133C12.4821 115.141 12.436 115.152 12.39 115.16ZM12.3287 119.455C13.9274 119.213 15.7102 118.734 17.4929 118.059C17.5274 118.09 17.5619 118.116 17.5888 118.136C16.5881 119.654 15.5031 120.824 14.5562 121.387C14.0079 121.713 13.6744 121.763 13.5287 121.763C13.4367 121.763 13.2948 121.763 13.084 121.518C12.7351 121.107 12.4744 120.379 12.3287 119.455Z" fill="#FFFEFD"/>
<path d="M13.2296 111.379C13.2296 111.395 13.2296 111.402 13.2296 111.402C13.2296 111.402 13.2296 111.395 13.2296 111.375M13.2296 109.458C12.2443 109.458 11.4047 110.214 11.3204 111.218C11.259 111.97 11.6041 112.468 11.8188 112.702C12.183 113.097 12.6929 113.319 13.2296 113.319C14.238 113.319 15.0584 112.553 15.1428 111.536C15.2309 110.482 14.445 109.554 13.3907 109.47C13.337 109.466 13.2833 109.462 13.2296 109.462V109.458Z" fill="#FFFEFD"/>
<path d="M19.3715 116.268H19.383C19.383 116.268 19.383 116.268 19.3715 116.268ZM19.383 116.268C19.383 116.268 19.3754 116.272 19.3715 116.272C19.3792 116.272 19.383 116.272 19.383 116.268ZM19.3715 114.347C18.5779 114.347 17.8993 114.826 17.608 115.513C17.5083 115.747 17.4508 116.004 17.4508 116.272C17.4508 117.33 18.3096 118.189 19.3677 118.189C19.5862 118.189 19.7933 118.155 19.9888 118.086C20.7479 117.833 21.2961 117.112 21.2961 116.268C21.2961 115.363 20.6674 114.604 19.8239 114.405C19.6783 114.37 19.5249 114.351 19.3677 114.351L19.3715 114.347Z" fill="#FFFEFD"/>
</g>
<path d="M111.016 22.4278C111.361 16.9254 105.856 18.8733 105.856 18.8733C101.616 14.1722 98.978 19.3334 98.978 19.3334C94.1627 17.7268 94.7378 22.3166 94.7378 22.3166C94.7378 22.3166 91.2988 24.3795 93.1314 27.0176C94.964 29.6557 97.2605 28.8505 97.2605 28.8505C97.2605 28.8505 96.3441 30.9134 98.2918 31.8337C100.239 32.7501 102.306 30.5721 102.306 30.5721C102.306 30.5721 103.222 33.0952 106.209 32.5891C109.195 32.0829 108.728 28.5092 108.728 28.5092C109.414 28.8543 111.937 29.7707 113.198 26.6764C114.459 23.582 111.02 22.4355 111.02 22.4355L111.016 22.4278Z" fill="white"/>
<path fill-rule="evenodd" clip-rule="evenodd" d="M106.01 18.3041C104.985 17.2318 104.01 16.6649 103.095 16.4726C102.106 16.2647 101.252 16.5086 100.573 16.9099C99.9021 17.306 99.3942 17.8583 99.0591 18.2969C98.9334 18.4614 98.8297 18.613 98.7487 18.7392C97.6708 18.4327 96.8105 18.4229 96.1282 18.6466C95.3504 18.9016 94.8774 19.4358 94.6021 20.0047C94.3326 20.5615 94.247 21.1589 94.2238 21.5982C94.2144 21.7773 94.2151 21.9356 94.2194 22.0616C94.1336 22.1224 94.0306 22.1987 93.917 22.2894C93.6028 22.5404 93.1957 22.9108 92.8466 23.3789C92.4982 23.8459 92.1904 24.4332 92.1125 25.1132C92.0331 25.806 92.1978 26.5501 92.7207 27.3029C93.7157 28.7353 94.8686 29.2674 95.8042 29.4171C96.0923 29.4631 96.3551 29.4723 96.5809 29.4629C96.5565 29.6284 96.5414 29.8129 96.5459 30.0084C96.5545 30.3862 96.6365 30.8181 96.8769 31.2309C97.1199 31.6483 97.5076 32.0162 98.0781 32.2858C99.2717 32.8474 100.463 32.4412 101.275 31.9818C101.629 31.7816 101.932 31.5601 102.163 31.3729C102.312 31.6037 102.518 31.8742 102.794 32.1343C103.499 32.7978 104.629 33.364 106.292 33.082C108.04 32.7858 108.783 31.5647 109.071 30.4888C109.193 30.0323 109.238 29.5938 109.25 29.2445C109.683 29.3683 110.23 29.4546 110.812 29.3784C111.882 29.2381 112.969 28.5615 113.661 26.8651C114.012 26.0028 114.049 25.2392 113.873 24.5792C113.698 23.9255 113.326 23.4161 112.928 23.0347C112.531 22.6542 112.097 22.3882 111.767 22.2184C111.681 22.1742 111.601 22.1361 111.53 22.1038C111.556 20.834 111.269 19.8997 110.748 19.2409C110.178 18.5202 109.388 18.2054 108.64 18.0927C107.896 17.9806 107.157 18.0615 106.618 18.1636C106.375 18.2096 106.167 18.261 106.01 18.3041ZM110.861 22.9096L110.666 22.8443L110.509 22.531L110.517 22.3965C110.599 21.098 110.33 20.3247 109.963 19.8612C109.598 19.3995 109.076 19.1696 108.491 19.0815C107.902 18.9927 107.286 19.0549 106.804 19.1462C106.566 19.1912 106.367 19.2421 106.228 19.2813C106.159 19.3009 106.106 19.3175 106.071 19.3288C106.053 19.3344 106.04 19.3388 106.032 19.3415L106.023 19.3444L106.022 19.3447L105.708 19.4559L105.485 19.2081C104.469 18.0825 103.597 17.5998 102.89 17.4512C102.192 17.3047 101.591 17.4696 101.081 17.7709C100.562 18.0775 100.146 18.5217 99.8537 18.9039C99.7094 19.0928 99.5996 19.2612 99.5266 19.381C99.4902 19.4408 99.4632 19.4881 99.4458 19.5193C99.4371 19.5349 99.4309 19.5465 99.4271 19.5536L99.4233 19.5608L99.4228 19.5618L99.2276 19.9438L98.8198 19.8077C97.6736 19.4253 96.9242 19.438 96.4398 19.5968C95.9711 19.7505 95.685 20.0625 95.5022 20.4403C95.3135 20.8302 95.242 21.2797 95.2225 21.6508C95.2129 21.8329 95.2162 21.9883 95.2218 22.0967C95.2246 22.1508 95.2279 22.1927 95.2304 22.2199C95.2316 22.2335 95.2327 22.2434 95.2333 22.2493L95.2339 22.2549L95.2744 22.5777L94.9957 22.7449L94.9907 22.748L94.9681 22.7622C94.9474 22.7754 94.9156 22.796 94.8749 22.8237C94.7933 22.8793 94.6766 22.9626 94.5411 23.0708C94.2678 23.2891 93.9296 23.5994 93.6481 23.9768C93.3658 24.3552 93.1574 24.7783 93.106 25.2271C93.056 25.663 93.1487 26.1661 93.542 26.7324C94.3796 27.9381 95.2912 28.3223 95.9621 28.4296C96.3054 28.4845 96.5988 28.4687 96.8034 28.4399C96.9055 28.4256 96.9844 28.4082 97.0351 28.3953C97.0603 28.3889 97.0784 28.3836 97.0887 28.3805L97.0977 28.3777C97.0982 28.3775 97.0983 28.3775 97.0977 28.3777L98.1872 27.9957L97.7183 29.0515L97.7138 29.0622C97.7097 29.0724 97.703 29.0893 97.6946 29.1124C97.6777 29.1587 97.6542 29.2286 97.6308 29.3162C97.5834 29.4936 97.5398 29.7312 97.5456 29.9856C97.5514 30.2386 97.6055 30.4949 97.741 30.7277C97.8739 30.9559 98.102 31.1909 98.5051 31.3815C99.259 31.736 100.075 31.5117 100.783 31.1114C101.128 30.9161 101.421 30.6927 101.629 30.5166C101.733 30.4291 101.813 30.3545 101.867 30.3029C101.894 30.2771 101.914 30.2571 101.927 30.2442L101.941 30.2303L101.943 30.228L102.5 29.6413L102.775 30.3992L102.775 30.4003L102.78 30.4125C102.785 30.4249 102.794 30.4454 102.806 30.4728C102.831 30.5276 102.871 30.6093 102.928 30.7077C103.043 30.9054 103.222 31.1636 103.48 31.4065C103.981 31.878 104.802 32.3203 106.125 32.0961C107.364 31.8862 107.881 31.0674 108.105 30.2299C108.219 29.8047 108.251 29.387 108.254 29.0714C108.255 28.9148 108.249 28.7865 108.243 28.6989C108.24 28.6552 108.237 28.6219 108.235 28.6005L108.232 28.5777L108.232 28.5741L108.109 27.6387L108.952 28.0625C109.256 28.2151 109.951 28.4827 110.682 28.3868C111.36 28.298 112.165 27.8856 112.735 26.4876C113.014 25.8027 113.02 25.2626 112.907 24.8374C112.791 24.4058 112.54 24.0483 112.236 23.7563C111.931 23.4634 111.584 23.2493 111.309 23.1075C111.173 23.0372 111.057 22.9864 110.976 22.9537C110.936 22.9373 110.906 22.9256 110.886 22.9183L110.865 22.9108L110.861 22.9096Z" fill="#57579E"/>
<path d="M96.5205 32.7808C95.5927 32.5699 94.7186 32.9495 94.5652 33.632C94.4119 34.3107 95.0368 35.0316 95.9646 35.2425C96.8924 35.4534 97.7665 35.0738 97.9199 34.3912C98.0732 33.7087 97.4483 32.9917 96.5205 32.7808Z" fill="white"/>
<path fill-rule="evenodd" clip-rule="evenodd" d="M95.053 32.4129C95.5146 32.2121 96.075 32.1667 96.6313 32.2932C97.1871 32.4195 97.6728 32.7015 98.0029 33.081C98.3332 33.4608 98.5274 33.968 98.4077 34.5008C98.2878 35.0344 97.8938 35.4095 97.4321 35.6104C96.9705 35.8112 96.4101 35.8565 95.8538 35.73C95.2973 35.6036 94.8117 35.3203 94.4819 34.9405C94.1524 34.561 93.9574 34.0536 94.0775 33.5218L94.5652 33.632L94.0774 33.5224C94.1973 32.9889 94.5913 32.6137 95.053 32.4129ZM95.4519 33.3299C95.2063 33.4367 95.0866 33.5926 95.0531 33.7416L95.0529 33.7422C95.0197 33.8891 95.0605 34.0815 95.237 34.2849C95.4133 34.4879 95.7041 34.6705 96.0754 34.7549C96.4469 34.8394 96.7874 34.8003 97.0332 34.6934C97.2788 34.5866 97.3986 34.4306 97.432 34.2816C97.4657 34.1319 97.4242 33.9394 97.2483 33.7373C97.0724 33.5349 96.7817 33.3529 96.4097 33.2683C96.0382 33.1839 95.6977 33.2229 95.4519 33.3299Z" fill="#57579E"/>
<path d="M93.5416 36.4925C92.9473 36.3583 92.3876 36.6037 92.2879 37.037C92.1882 37.4741 92.5908 37.9343 93.185 38.0685C93.7793 38.2027 94.339 37.9573 94.4387 37.524C94.5384 37.0869 94.1358 36.6267 93.5416 36.4925Z" fill="white"/>
<path fill-rule="evenodd" clip-rule="evenodd" d="M92.5296 36.0936C92.8634 35.9482 93.2615 35.9167 93.6517 36.0048C94.041 36.0927 94.3878 36.2913 94.6274 36.5662C94.867 36.8413 95.02 37.2237 94.9262 37.6352L94.926 37.6361C94.8321 38.0444 94.5302 38.3223 94.197 38.4675C93.8632 38.6129 93.4651 38.6443 93.0749 38.5562C92.6856 38.4683 92.3389 38.2698 92.0993 37.9948C91.8596 37.7198 91.7066 37.3373 91.8004 36.9259L91.8007 36.9249L91.8007 36.9249C91.8946 36.5167 92.1964 36.2387 92.5296 36.0936ZM92.7753 37.1487C92.7695 37.1747 92.7685 37.2406 92.8532 37.3379C92.9386 37.4358 93.0902 37.5345 93.2952 37.5808C93.4992 37.6269 93.6781 37.6027 93.7977 37.5507C93.9171 37.4986 93.9453 37.4377 93.9513 37.4124C93.9571 37.3864 93.9582 37.3204 93.8734 37.2231C93.7881 37.1252 93.6364 37.0266 93.4314 36.9803C93.2274 36.9342 93.0485 36.9583 92.929 37.0104C92.8095 37.0624 92.7813 37.1233 92.7753 37.1487Z" fill="#57579E"/>
<path d="M55.0112 3.15202C56.1613 -0.835799 59.5697 1.94034 59.5697 1.94034C63.7677 -0.31815 64.3275 4.00711 64.3275 4.00711C68.146 4.09146 66.578 7.19353 66.578 7.19353C66.578 7.19353 68.4911 9.52871 66.5243 10.9321C64.5575 12.3355 63.1352 11.1852 63.1352 11.1852C63.1352 11.1852 63.2617 12.88 61.6476 13.0372C60.0336 13.1944 59.1211 11.1277 59.1211 11.1277C59.1211 11.1277 57.8329 12.6845 55.8431 11.5686C53.8534 10.4528 55.0917 8.03711 55.0917 8.03711C54.5166 8.10613 52.4962 8.11763 52.3888 5.60224C52.2776 3.08684 55.0074 3.14819 55.0074 3.14819L55.0112 3.15202Z" fill="white"/>
<path fill-rule="evenodd" clip-rule="evenodd" d="M56.4735 1.70444C56.1303 1.91875 55.7578 2.36782 55.4916 3.29058L55.2567 4.10505L54.8085 3.65649C54.7616 3.66028 54.7076 3.66574 54.648 3.6736C54.4242 3.70315 54.137 3.76466 53.8606 3.88834C53.5854 4.01146 53.3374 4.18843 53.1625 4.44171C52.9914 4.68955 52.8648 5.04689 52.8883 5.58015C52.9351 6.67699 53.3788 7.13141 53.7931 7.34396C54.2551 7.581 54.7872 7.57007 55.0321 7.54067L55.9655 7.42865L55.5373 8.26398L55.5362 8.26611L55.5294 8.28007C55.523 8.29357 55.5129 8.31524 55.5002 8.34418C55.4747 8.40221 55.439 8.48867 55.4014 8.59654C55.3255 8.81459 55.2455 9.1084 55.2196 9.42523C55.1688 10.0456 55.3184 10.7011 56.0877 11.1325C56.932 11.606 57.5854 11.5021 58.0279 11.3085C58.2586 11.2076 58.4411 11.0773 58.5657 10.9718C58.6275 10.9195 58.6736 10.8746 58.7027 10.8446C58.7172 10.8296 58.7273 10.8185 58.7329 10.8122L58.7376 10.8068L59.2517 10.1855L59.5781 10.9248L59.5785 10.9257L59.5845 10.9386C59.5899 10.9501 59.5986 10.9685 59.6107 10.9926C59.6348 11.0409 59.672 11.1119 59.7216 11.1976C59.8216 11.3704 59.9685 11.5961 60.1573 11.8143C60.5478 12.2659 61.0337 12.5947 61.5991 12.5396C61.9106 12.5092 62.1077 12.4094 62.2391 12.2989C62.3744 12.1851 62.4672 12.0365 62.5299 11.8731C62.5931 11.7084 62.6207 11.5412 62.6314 11.4112C62.6367 11.3474 62.6377 11.2956 62.6375 11.2616C62.6373 11.2447 62.6369 11.2325 62.6366 11.2256L62.6364 11.22L62.5505 10.0693L63.4467 10.7941C63.4473 10.7945 63.4482 10.7952 63.4495 10.7962C63.4545 10.7999 63.4644 10.807 63.479 10.8169C63.5082 10.8365 63.5558 10.8664 63.6201 10.9C63.749 10.9676 63.9411 11.0481 64.1839 11.0934C64.6537 11.181 65.3627 11.1468 66.2339 10.5251C66.633 10.2403 66.8077 9.93257 66.8755 9.64218C66.9463 9.33915 66.9106 9.00971 66.8106 8.68291C66.7109 8.35735 66.5555 8.06146 66.4207 7.8429C66.354 7.73488 66.2942 7.64878 66.2521 7.59085C66.231 7.56195 66.2145 7.54025 66.2039 7.52654L66.1926 7.51212L66.1912 7.5104L66.1906 7.5096L65.9849 7.25854L66.1311 6.96925L66.1326 6.96628L66.1411 6.94821C66.1491 6.93093 66.1614 6.90362 66.1764 6.86773C66.2064 6.79563 66.2465 6.6907 66.2843 6.56429C66.3618 6.30496 66.4202 5.98665 66.3876 5.68589C66.3564 5.39849 66.2452 5.13867 65.9835 4.93556C65.7088 4.72232 65.2103 4.52673 64.3165 4.50698L63.8868 4.49749L63.8318 4.07248C63.8318 4.07263 63.8318 4.07284 63.8318 4.07248L63.8316 4.07127L63.831 4.06714L63.8268 4.0403C63.8227 4.01527 63.8159 3.97656 63.8056 3.92675C63.7849 3.82684 63.7509 3.68404 63.6981 3.5185C63.5908 3.18212 63.4145 2.77836 63.1385 2.44656C62.869 2.12268 62.5114 1.87354 62.0164 1.80586C61.5114 1.73681 60.7973 1.84764 59.8066 2.38066L59.5127 2.53877L59.2546 2.32859L59.2496 2.32458L59.2268 2.30689C59.2058 2.29073 59.1732 2.26628 59.1305 2.23581C59.0449 2.17471 58.9198 2.09029 58.7662 2.00016C58.4538 1.81695 58.0467 1.6241 57.6254 1.54137C57.2086 1.45952 56.8148 1.49133 56.4735 1.70444ZM59.6153 1.35478C59.5215 1.29085 59.4057 1.21594 59.2721 1.13759C58.9095 0.924895 58.3926 0.672943 57.8181 0.560116C57.2391 0.446413 56.5651 0.468282 55.9438 0.856227C55.3938 1.19968 54.9499 1.78968 54.6411 2.66769C54.602 2.67168 54.5606 2.67646 54.5171 2.6822C54.2326 2.71976 53.8443 2.80013 53.4522 2.97553C53.0589 3.1515 52.6453 3.43083 52.3396 3.8735C52.0303 4.32153 51.8574 4.89967 51.8893 5.62393C51.9499 7.04226 52.5701 7.84044 53.3366 8.23369C53.6897 8.41485 54.0541 8.49994 54.3726 8.53494C54.3069 8.7667 54.2475 9.04361 54.2229 9.34364C54.152 10.2101 54.3781 11.3203 55.5986 12.0047C56.7441 12.6471 57.7297 12.5305 58.4287 12.2247C58.6461 12.1295 58.8324 12.0179 58.9853 11.9101C59.0952 12.0811 59.2339 12.2753 59.4009 12.4685C59.8701 13.011 60.6474 13.637 61.6961 13.5349C62.1917 13.4866 62.584 13.3156 62.8829 13.0641C63.1778 12.816 63.356 12.5114 63.4635 12.2314C63.4994 12.1376 63.528 12.0453 63.5507 11.9567C63.6842 12.0034 63.8347 12.0455 64.0005 12.0765C64.7336 12.2132 65.7192 12.1209 66.8147 11.3391C67.399 10.9222 67.7227 10.4118 67.8493 9.86962C67.973 9.34009 67.8992 8.82259 67.7668 8.39018C67.634 7.95652 67.4341 7.5809 67.2717 7.31776C67.2279 7.24688 67.1864 7.18327 67.1488 7.12792C67.1787 7.04859 67.2112 6.95515 67.2424 6.85073C67.3395 6.52579 67.4344 6.06332 67.3818 5.57801C67.3277 5.07935 67.1149 4.54784 66.5967 4.14558C66.1606 3.80711 65.5514 3.59405 64.7399 3.52766C64.7165 3.43437 64.6872 3.32873 64.6508 3.21464C64.5219 2.81061 64.2959 2.27422 63.9072 1.80702C63.512 1.33189 62.9425 0.923179 62.1519 0.815078C61.4385 0.717536 60.6002 0.872354 59.6153 1.35478Z" fill="#33B1E6"/>
<path d="M62.6636 14.1646C63.3729 14.2489 63.8981 14.7436 63.8329 15.2612C63.7716 15.7827 63.1428 16.1355 62.4336 16.0473C61.7243 15.9629 61.1991 15.4683 61.2642 14.9506C61.3256 14.4291 61.9543 14.0764 62.6636 14.1646Z" fill="white"/>
<path fill-rule="evenodd" clip-rule="evenodd" d="M61.9658 14.7649C61.8142 14.85 61.7683 14.9456 61.7608 15.009L61.7603 15.0131L61.7603 15.0131C61.7526 15.0741 61.7735 15.1774 61.9008 15.2969C62.0273 15.4158 62.2335 15.52 62.4926 15.5508L62.4953 15.5511C62.7549 15.5834 62.9802 15.5318 63.1314 15.4469C63.283 15.3618 63.3289 15.2662 63.3364 15.2028L63.3368 15.1987C63.3445 15.1377 63.3237 15.0344 63.1964 14.9149C63.0699 14.796 62.8636 14.6919 62.6045 14.6611L62.6019 14.6607C62.3423 14.6285 62.117 14.68 61.9658 14.7649ZM62.724 13.6682C62.2748 13.6126 61.8316 13.6934 61.4761 13.893C61.1212 14.0923 60.8224 14.4332 60.7679 14.8902C60.7113 15.346 60.9203 15.748 61.2162 16.0259C61.513 16.3046 61.9235 16.4899 62.3732 16.5436C62.8224 16.5992 63.2656 16.5184 63.621 16.3188C63.976 16.1195 64.2747 15.7787 64.3293 15.3216C64.3859 14.8658 64.1769 14.4638 63.881 14.1859C63.5842 13.9072 63.1736 13.722 62.724 13.6682Z" fill="#33B1E6"/>
<path d="M63.8329 17.5465C64.2892 17.6002 64.6227 17.9185 64.5844 18.2521C64.5422 18.5857 64.1435 18.8119 63.6872 18.7582C63.231 18.7045 62.8975 18.3863 62.9358 18.0527C62.978 17.7191 63.3767 17.4928 63.8329 17.5465Z" fill="white"/>
<path fill-rule="evenodd" clip-rule="evenodd" d="M63.4282 18.1281C63.4281 18.128 63.4284 18.1271 63.4296 18.1253C63.4289 18.1272 63.4283 18.1281 63.4282 18.1281ZM63.4402 18.1138C63.4473 18.1074 63.4584 18.0991 63.4751 18.0897C63.5351 18.0557 63.6404 18.0273 63.7745 18.0431C63.9063 18.0586 64.0008 18.1106 64.051 18.158C64.0655 18.1717 64.0745 18.1828 64.08 18.191C64.0728 18.1974 64.0618 18.2056 64.0451 18.2151C63.985 18.249 63.8798 18.2774 63.7457 18.2617C63.6139 18.2461 63.5194 18.1941 63.4692 18.1468C63.4547 18.133 63.4457 18.122 63.4402 18.1138ZM64.088 18.2078C64.0879 18.2078 64.0876 18.2069 64.0874 18.205C64.0881 18.2069 64.0882 18.2078 64.088 18.2078ZM64.0905 18.1795C64.0912 18.1775 64.0918 18.1766 64.092 18.1767C64.0921 18.1767 64.0917 18.1777 64.0905 18.1795ZM63.4328 18.0998C63.4321 18.0979 63.432 18.097 63.4321 18.0969C63.4322 18.0969 63.4326 18.0979 63.4328 18.0998ZM62.9831 17.2191C63.247 17.0699 63.5693 17.0121 63.8914 17.05C64.2158 17.0881 64.5162 17.2221 64.7373 17.4307C64.9578 17.6387 65.1225 17.9491 65.0811 18.3092L65.0805 18.3148L65.0804 18.3148C65.0349 18.6749 64.8009 18.9366 64.5371 19.0857C64.2732 19.2348 63.9509 19.2927 63.6288 19.2548C63.3043 19.2166 63.004 19.0827 62.7829 18.8741C62.5624 18.666 62.3977 18.3557 62.4391 17.9956L62.4397 17.99L62.4397 17.99C62.4853 17.6298 62.7192 17.3682 62.9831 17.2191Z" fill="#33B1E6"/>
<path d="M103.452 26.3121C103.433 26.3811 103.375 26.4348 103.28 26.4808C103.184 26.5268 103.08 26.546 102.973 26.546C102.651 26.546 102.39 26.4655 102.191 26.3044C101.991 26.1434 101.888 25.9363 101.888 25.6871C101.888 25.5912 101.903 25.503 101.93 25.4225C101.991 25.2039 102.11 25.0237 102.283 24.8857C102.455 24.7476 102.712 24.5789 103.053 24.3795C103.421 24.1763 103.705 23.9884 103.901 23.8159C104.1 23.6471 104.234 23.4247 104.311 23.1525C104.33 23.0566 104.342 22.9684 104.342 22.8879C104.342 22.6579 104.265 22.4776 104.108 22.3549C103.951 22.2322 103.786 22.1709 103.605 22.1709C103.414 22.1709 103.249 22.1977 103.103 22.2514C103.18 22.4508 103.214 22.6579 103.214 22.8764C103.214 22.9799 103.203 23.072 103.184 23.1525C103.107 23.4132 102.973 23.6126 102.774 23.7545C102.574 23.8964 102.325 23.9692 102.018 23.9692C101.65 23.9692 101.355 23.8695 101.129 23.6663C100.903 23.4669 100.791 23.2062 100.791 22.8956C100.791 22.7882 100.807 22.6809 100.834 22.5773C100.937 22.1402 101.24 21.8066 101.75 21.5689C102.256 21.335 102.9 21.2161 103.678 21.2161C104.338 21.2161 104.921 21.3235 105.415 21.5344C105.91 21.7453 106.293 22.0252 106.561 22.3779C106.83 22.7307 106.96 23.1065 106.96 23.5091C106.96 23.6318 106.945 23.7698 106.91 23.9194C106.83 24.253 106.688 24.5214 106.485 24.7208C106.282 24.9202 105.99 25.0889 105.607 25.2231C105.223 25.3573 104.687 25.48 104.008 25.595C103.747 25.6411 103.571 25.6871 103.475 25.7292C103.379 25.7714 103.318 25.8251 103.291 25.8941L103.28 25.9363C103.28 25.9785 103.306 26.0398 103.36 26.1204C103.429 26.2009 103.46 26.2661 103.452 26.3159V26.3121ZM103.226 27.0138C103.41 27.1672 103.502 27.3551 103.502 27.5813C103.51 27.7462 103.464 27.9034 103.364 28.0606C103.264 28.2178 103.126 28.3443 102.95 28.444C102.774 28.5437 102.574 28.5936 102.356 28.5936C102.076 28.5936 101.846 28.5131 101.666 28.352C101.485 28.191 101.393 27.9954 101.393 27.7653C101.393 27.6081 101.443 27.4547 101.543 27.3052C101.643 27.1557 101.777 27.0291 101.953 26.9333C102.126 26.8336 102.321 26.7837 102.54 26.7837C102.812 26.7837 103.042 26.8604 103.226 27.0138Z" fill="#474793"/>
<path d="M60.6086 8.17131C60.8233 8.25183 60.9805 8.40138 61.0764 8.6161C61.1415 8.76565 61.1645 8.92669 61.1492 9.10691C61.1339 9.2833 61.0725 9.45201 60.9729 9.60156C60.8732 9.7511 60.7352 9.86997 60.5588 9.94666C60.3441 10.0425 60.1294 10.0464 59.9147 9.96199C59.7 9.87764 59.5428 9.73193 59.4431 9.5172C59.378 9.36766 59.3511 9.20661 59.3665 9.03023C59.3818 8.85384 59.4393 8.68896 59.539 8.53558C59.6387 8.3822 59.7767 8.26717 59.953 8.19048C60.1716 8.09462 60.3901 8.08695 60.6086 8.16748V8.17131ZM59.2629 3.16736C59.5658 3.03315 59.8304 2.99864 60.0566 3.05616C60.2828 3.11367 60.4476 3.26322 60.5511 3.49712C60.6546 3.73102 60.693 4.05311 60.6585 4.43656L60.3786 7.31623C60.3671 7.47344 60.3403 7.59231 60.2943 7.67283C60.2482 7.75719 60.1754 7.81854 60.0757 7.86072C59.861 7.95658 59.7038 7.87222 59.6003 7.60765L58.5575 4.94271C58.2355 4.1068 58.4732 3.51246 59.2629 3.16352V3.16736Z" fill="#33B1E6"/>
<path d="M22.3542 113.435C22.3236 113.527 22.2891 113.622 22.2584 113.714C22.5459 112.902 22.8028 112.058 23.0175 111.203C22.8718 111.774 22.7108 112.334 22.5383 112.882C23.9185 111.939 25.7319 110.459 26.4641 108.948C27.4188 106.977 25.9427 106.092 23.7689 106.026C23.7689 105.98 23.7728 105.885 23.7728 105.624C27.4303 105.708 28.2239 107.94 25.5133 110.846C24.6162 111.813 23.4699 112.702 22.3542 113.435Z" fill="#E84343"/>
<path d="M24.9996 118.941C24.4974 119.378 23.6884 119.328 23.2514 118.787C23.2283 118.764 23.2092 118.738 23.19 118.711C22.8181 118.185 22.9293 117.449 23.4239 117.047C23.4699 117.008 23.5236 116.974 23.5772 116.943C23.6002 116.985 23.7076 117.204 23.7996 117.434C23.8303 117.511 23.8609 117.591 23.8878 117.664C23.8878 117.664 24.1676 117.867 24.2827 117.534C24.1983 117.288 24.0795 117.024 23.9683 116.797C24.2635 116.74 24.5625 116.797 24.8156 116.943C24.9689 117.031 25.1069 117.154 25.2105 117.307C25.5747 117.833 25.4712 118.538 24.9996 118.945V118.941Z" fill="#0B45B2"/>
<path d="M24.666 118.657C24.2712 118.998 23.6922 119.04 23.2475 118.784C23.2245 118.761 23.2053 118.734 23.1862 118.707C22.8143 118.182 22.9255 117.445 23.42 117.043C23.466 117.154 23.5159 117.273 23.5504 117.38C23.5504 117.38 23.6769 117.468 23.7958 117.43C23.8264 117.507 23.8571 117.587 23.8839 117.66C23.8839 117.66 24.1638 117.863 24.2788 117.53C24.1945 117.284 24.0756 117.02 23.9644 116.794C24.2596 116.736 24.5587 116.794 24.8117 116.939C24.8347 116.966 24.8577 116.997 24.8769 117.024C25.2411 117.549 25.1376 118.254 24.666 118.657Z" fill="#3E85F4"/>
<path d="M23.8878 117.664C23.4392 116.364 22.1472 114.639 21.2846 113.576C19.59 111.487 17.443 109.332 15.4188 107.656C14.5485 106.935 13.5095 106.134 12.5434 105.536C11.9568 105.171 10.5037 104.312 9.85582 104.539C9.63345 104.615 9.61812 104.857 9.64112 105.095C9.76764 106.237 11.1823 108.128 11.213 108.204C11.2398 108.258 11.2207 108.335 11.1785 108.388C11.1057 108.48 10.9715 108.511 10.891 108.454C10.8526 108.454 9.68329 106.782 9.33825 105.654C9.2309 105.309 9.14272 104.888 9.28457 104.55C9.78681 103.338 12.137 104.75 13.2335 105.478C15.6488 107.085 19.1146 110.206 21.7025 113.419C22.5689 114.497 23.8379 116.218 24.2865 117.526C24.1677 117.859 23.8916 117.656 23.8916 117.656L23.8878 117.664Z" fill="#FCD561"/>
<path d="M23.3817 106.019V105.62C23.3817 104.144 23.167 102.311 22.3964 101.053C22.3542 100.984 22.3121 100.915 22.266 100.85C22.266 100.85 22.1204 100.681 22.3082 100.57C22.4961 100.463 22.5689 100.566 22.5689 100.566C22.6149 100.627 22.6571 100.693 22.6993 100.758C23.9683 102.771 23.9108 106.03 23.5772 108.381C23.3089 110.279 22.8756 112.046 22.1587 114.002C22.0705 113.883 21.9785 113.768 21.8827 113.649C22.7338 111.249 23.3319 108.584 23.3855 106.019H23.3817Z" fill="#69A4FC"/>
<path d="M23.8648 119.19C22.9331 119.424 21.2271 118.362 20.4258 117.825C20.5025 117.683 20.6098 117.484 20.6251 117.457C21.3076 117.913 22.4232 118.596 23.2322 118.764C23.397 118.971 23.6156 119.117 23.8648 119.19Z" fill="#FCD561"/>
<path d="M15.8443 107.468C18.0871 106.521 20.951 105.654 23.3817 105.616C23.3817 105.75 23.3817 105.885 23.3817 106.015C21.0775 106.038 18.252 106.866 16.1625 107.737C15.9095 107.518 15.6526 107.307 15.3996 107.1C15.5529 107.223 15.7063 107.349 15.8443 107.464V107.468Z" fill="#E84343"/>
<path d="M22.6954 100.754C22.6533 100.689 22.6111 100.624 22.5651 100.562C22.5651 100.562 22.4884 100.459 22.3044 100.566C22.1204 100.677 22.2622 100.846 22.2622 100.846C22.3082 100.915 22.3504 100.98 22.3926 101.049C21.7408 101.54 20.836 101.448 20.2916 100.892C20.2034 100.8 20.1229 100.697 20.0539 100.578C19.4635 99.5615 20.1574 98.2425 21.3689 98.1926C21.6373 98.1811 21.8865 98.2348 22.1012 98.3345C22.9715 98.7371 23.351 99.8989 22.6916 100.758L22.6954 100.754Z" fill="#E84343"/>
<path d="M22.2392 100.432C21.7408 101.076 20.928 101.191 20.2954 100.888C20.2072 100.796 20.1267 100.693 20.0577 100.574C19.4673 99.5577 20.1612 98.2386 21.3727 98.1888C21.6411 98.1773 21.8903 98.231 22.105 98.3307C22.6379 98.8637 22.7683 99.7532 22.2392 100.432Z" fill="#FC5552"/>
<path d="M21.7101 114.109C21.7101 114.086 22.4884 115.118 22.9868 115.904C22.6648 115.398 22.3121 114.899 21.9823 114.462C21.5031 115.659 21.0852 116.659 20.3491 117.971C19.1951 120.045 17.3204 122.614 15.1887 123.638C13.0341 124.669 11.0903 123.857 10.2737 120.916C9.99 119.892 9.88648 118.757 9.89032 117.687C9.91332 117.687 10.2277 117.691 10.2775 117.687C10.2775 119.328 10.5459 121.483 11.6156 122.737C12.4667 123.734 13.7702 124.056 15.5261 123.013C17.4852 121.851 19.2526 119.271 20.3146 117.238C20.6098 116.678 20.882 116.107 21.0967 115.613C21.4379 114.853 21.691 114.152 21.7101 114.102V114.109Z" fill="#69A4FC"/>
<path d="M22.0245 113.216C22.0245 113.216 21.8942 113.592 21.875 113.645C21.8175 113.573 21.7561 113.496 21.6986 113.423C21.8098 113.354 21.9172 113.285 22.0245 113.216Z" fill="#E84343"/>
<path d="M21.3383 113.645C21.3383 113.645 21.5606 113.925 21.5645 113.929C17.7383 116.241 13.6705 117.465 10.914 117.664C10.013 117.725 9.43027 117.683 8.93953 117.614C8.80918 117.33 9.05071 117.219 9.05071 117.219C9.40726 117.269 9.79832 117.3 10.2737 117.296C11.3434 117.284 12.39 117.112 13.4443 116.882C14.8974 116.563 17.4086 115.659 17.4929 115.574C18.7236 115.068 20.0769 114.405 21.3344 113.649L21.3383 113.645Z" fill="#E84343"/>
<path d="M20.4258 111.928C20.1919 111.667 19.9581 111.41 19.7127 111.153C18.5817 109.945 17.3587 108.772 16.1587 107.74C16.1587 107.74 16.4041 107.951 16.5267 108.059C17.7344 107.955 18.8424 108.465 19.567 109.309C20.1613 110.003 20.4986 110.927 20.4258 111.928Z" fill="#1C6DF6"/>
<path d="M18.2443 115.655C18.321 115.731 19.3945 116.602 20.3146 117.242C20.3069 117.269 19.9427 117.929 20.1152 117.61C19.6897 117.315 19.268 117.004 18.8616 116.686C18.6929 116.556 17.8226 115.843 17.8149 115.839C17.5695 115.942 17.3165 116.046 17.0596 116.145C18.4053 115.62 19.7127 114.995 20.8973 114.32C20.0769 114.788 19.1951 115.233 18.2443 115.655Z" fill="#FCD561"/>
<path d="M20.3453 112.464C20.0271 113.833 18.9613 114.853 17.6692 115.164C16.8066 115.371 15.9172 115.252 15.1581 114.853C14.6788 114.604 14.2839 114.263 13.9772 113.864C13.0878 112.71 12.9536 111.076 13.728 109.803C14.2456 108.929 15.0929 108.354 15.9938 108.139C17.2168 109.201 18.459 110.402 19.6284 111.667C19.8737 111.928 20.1114 112.196 20.3453 112.464Z" fill="#1C6DF6"/>
<path d="M19.9351 99.2471C19.9236 99.2931 19.8699 99.4043 19.8469 99.6612C18.5587 99.7954 17.2858 100.792 16.3772 101.728C15.4878 102.644 14.4986 103.948 13.544 105.693C13.4366 105.62 13.3331 105.547 13.2296 105.482C14.3223 103.492 15.9402 101.218 17.8494 100.014C18.4859 99.6114 19.1951 99.3084 19.9351 99.2471Z" fill="#69A4FC"/>
<path d="M17.9261 115.39L17.4967 115.57C17.4967 115.57 17.4737 115.555 17.3587 115.451C17.3587 115.451 17.1402 115.264 17.1287 115.252C17.1939 115.252 17.6232 115.187 17.6654 115.168C17.6884 115.187 17.6769 115.179 17.9261 115.39Z" fill="#FCD561"/>
<path d="M12.6047 109.075C14.0002 108.273 15.3919 107.652 15.4149 107.652C15.4954 107.717 15.7101 107.898 15.7331 107.921C14.7018 108.365 13.705 108.864 12.7274 109.424C12.8386 109.359 12.7159 109.01 12.6047 109.075Z" fill="#E84343"/>
<path d="M13.3408 106.061C13.3906 106.092 12.8961 106.759 12.0756 108.868C12.0679 108.883 12.0488 108.879 12.0296 108.879C11.9376 108.868 11.8417 108.837 11.7497 108.783C11.7344 108.772 11.7152 108.76 11.7191 108.745C12.0948 107.783 12.5357 106.793 13.0341 105.854C13.0456 105.858 13.3293 106.057 13.3408 106.065V106.061Z" fill="#69A4FC"/>
<path d="M13.2296 111.379C12.7619 110.858 12.3363 110.352 11.9606 109.884C12.1369 109.773 12.3133 109.669 12.321 109.665C12.344 109.665 12.4245 109.826 13.3139 110.842C13.2449 111.119 13.2219 111.51 13.2334 111.379H13.2296Z" fill="#FCD561"/>
<path d="M6.90375 115.551C7.01109 115.501 6.75423 115.609 6.55486 115.789C6.41684 114.654 7.29097 113.404 8.06541 112.556C9.07755 111.425 10.5421 110.344 11.8264 109.543C11.976 109.451 12.5894 109.075 12.62 109.067C12.7312 109.04 12.8271 109.332 12.7427 109.412C12.7427 109.412 11.9875 109.865 11.9299 109.903C11.6999 110.053 11.6577 110.079 11.6347 110.091C11.6194 110.099 11.1478 110.409 11.1248 110.428C9.82132 111.31 8.20343 112.652 7.39831 113.994C7.11844 114.458 6.88074 115.01 6.90375 115.547V115.551Z" fill="#E84343"/>
<path d="M12.0909 109.378C12.1561 109.339 12.2213 109.301 12.2865 109.263C12.1331 109.355 11.9798 109.447 11.8226 109.546C11.8647 109.431 11.9069 109.316 11.9491 109.201C11.9951 109.263 12.0449 109.324 12.0909 109.382V109.378Z" fill="#FCD561"/>
<path d="M11.7191 108.745C11.7191 108.745 11.7344 108.772 11.7498 108.783C11.8264 108.833 11.9223 108.868 12.0296 108.879C12.0488 108.879 12.0718 108.883 12.0756 108.868C11.9875 109.09 11.9031 109.324 11.8226 109.543C11.6539 109.65 11.4852 109.757 11.3127 109.869C11.2974 109.876 11.2897 109.907 11.4009 109.589C11.5351 109.217 11.6041 109.029 11.7153 108.741L11.7191 108.745Z" fill="#69A4FC"/>
<path d="M11.2092 108.204C11.1938 108.158 11.1325 108.12 11.6769 108.845C11.5811 109.098 11.5121 109.282 11.5044 109.305C11.2744 109.006 11.0635 108.718 10.8565 108.423C10.8641 108.434 10.8795 108.45 10.8871 108.454C11.0328 108.557 11.2859 108.358 11.2092 108.204Z" fill="#FCD561"/>
<path d="M9.89414 117.288C9.94782 115.003 10.4309 112.602 11.1248 110.432C11.1478 110.409 11.6002 110.114 11.6232 110.099C11.6846 110.06 10.3619 113.442 10.2814 117.292C10.0475 117.292 9.74079 117.284 9.89414 117.288Z" fill="#69A4FC"/>
<path d="M9.18488 117.234C9.14271 117.227 9.0967 117.219 9.05453 117.215C9.05453 117.215 8.81683 117.327 8.94335 117.61C9.02386 117.622 9.04303 117.626 9.06603 117.626C8.67498 118.492 7.62833 118.818 6.81939 118.35C6.54335 118.189 6.32098 117.948 6.18296 117.66C6.17146 117.629 6.15613 117.599 6.14462 117.568C5.78807 116.701 6.27881 115.651 7.25645 115.425C7.82769 115.287 8.3836 115.478 8.75549 115.858C9.08904 116.199 9.2769 116.694 9.18872 117.234H9.18488Z" fill="#FEB30F"/>
<path d="M8.859 116.92C8.77466 117.265 8.5753 117.572 8.29543 117.79C7.6705 118.289 6.74654 118.228 6.18296 117.66C6.17146 117.629 6.15613 117.599 6.14462 117.568C5.78807 116.701 6.27881 115.651 7.25645 115.425C7.82769 115.287 8.3836 115.482 8.75549 115.858C8.90501 116.18 8.95485 116.552 8.86284 116.92H8.859Z" fill="#FBC22C"/>
<path d="M19.3561 116.268C19.3723 116.284 19.4167 116.26 19.3561 116.268V116.268Z" fill="#1C6DF6"/>
<path d="M19.6283 111.671C19.8737 111.931 20.1114 112.2 20.3453 112.468C20.0271 113.837 18.9612 114.857 17.6692 115.168C16.8066 115.375 15.9172 115.256 15.158 114.857C14.6788 114.608 14.2839 114.267 13.9772 113.868C15.0239 114.255 16.6916 114.665 17.9261 114.002C18.9114 113.469 19.4175 112.579 19.6283 111.671Z" fill="#0B45B2"/>
<path d="M20.4258 111.928C20.1919 111.667 19.958 111.41 19.7127 111.153C19.7932 110.455 19.7127 109.788 19.567 109.309C20.1612 110.003 20.4986 110.927 20.4258 111.928Z" fill="#0B45B2"/>
<path d="M16.2929 110.417C16.2929 110.819 15.967 111.145 15.5644 111.145C15.1619 111.145 14.836 110.819 14.836 110.417C14.836 110.014 15.1619 109.688 15.5644 109.688C15.967 109.688 16.2929 110.014 16.2929 110.417Z" fill="#69A4FC"/>
<path d="M20.9127 99.435C20.9127 99.5884 20.7862 99.7149 20.6328 99.7149C20.4795 99.7149 20.353 99.5884 20.353 99.435C20.353 99.2816 20.4795 99.1551 20.6328 99.1551C20.7862 99.1551 20.9127 99.2816 20.9127 99.435Z" fill="#FC9F9C"/>
<path d="M7.61684 116.556C7.61684 116.786 7.42898 116.974 7.19894 116.974C6.96891 116.974 6.78105 116.786 6.78105 116.556C6.78105 116.326 6.96891 116.138 7.19894 116.138C7.42898 116.138 7.61684 116.326 7.61684 116.556Z" fill="#FCEAB2"/>
<defs>
<filter id="filter0_d_140_5556" x="0" y="10.1537" width="126.593" height="123.846" filterUnits="userSpaceOnUse" color-interpolation-filters="sRGB">
<feFlood flood-opacity="0" result="BackgroundImageFix"/>
<feColorMatrix in="SourceAlpha" type="matrix" values="0 0 0 0 0 0 0 0 0 0 0 0 0 0 0 0 0 0 127 0" result="hardAlpha"/>
<feOffset dx="4" dy="4"/>
<feGaussianBlur stdDeviation="2"/>
<feComposite in2="hardAlpha" operator="out"/>
<feColorMatrix type="matrix" values="0 0 0 0 0 0 0 0 0 0 0 0 0 0 0 0 0 0 0.25 0"/>
<feBlend mode="normal" in2="BackgroundImageFix" result="effect1_dropShadow_140_5556"/>
<feBlend mode="normal" in="SourceGraphic" in2="effect1_dropShadow_140_5556" result="shape"/>
</filter>
</defs>
</svg>
