<svg width="84" height="33" viewBox="0 0 84 33" fill="none" xmlns="http://www.w3.org/2000/svg">
<path d="M69.7719 5C66.5452 5 63.5688 6.05832 61.1813 7.84197C58.7937 6.05832 55.8173 5 52.5906 5C49.3639 5 46.3876 6.05832 44 7.84197C41.6124 6.05832 38.6361 5 35.4094 5C32.1827 5 29.2063 6.05832 26.8187 7.84197C24.4312 6.05832 21.4548 5 18.2281 5C10.37 5 4 11.2678 4 19C4 26.7322 10.37 33 18.2281 33C21.4548 33 24.4312 31.9417 26.8187 30.158C29.2063 31.9417 32.1827 33 35.4094 33C38.6361 33 41.6124 31.9417 44 30.158C46.3876 31.9417 49.3639 33 52.5906 33C55.8173 33 58.7937 31.9417 61.1813 30.158C63.5688 31.9417 66.5452 33 69.7719 33C77.63 33 84 26.7322 84 19C84 11.2678 77.63 5 69.7719 5Z" fill="#774791"/>
<path d="M67.6034 1C64.3364 1 61.3228 2.09612 58.9054 3.94347C56.488 2.09612 53.4744 1 50.2074 1C46.9404 1 43.9268 2.09612 41.5094 3.94347C39.092 2.09612 36.0784 1 32.8114 1C29.5443 1 26.5308 2.09612 24.1134 3.94347C21.6959 2.09612 18.6824 1 15.4153 1C7.44958 1 1 7.49169 1 15.5C1 23.5083 7.44958 30 15.4059 30C18.673 30 21.6865 28.9039 24.104 27.0565C26.5214 28.9039 29.5349 30 32.802 30C36.069 30 39.0826 28.9039 41.5 27.0565C43.9174 28.9039 46.931 30 50.198 30C53.4651 30 56.4786 28.9039 58.896 27.0565C61.3135 28.9039 64.327 30 67.5941 30C75.5504 30 82 23.5083 82 15.5C82 7.49169 75.5551 1 67.6034 1Z" fill="white"/>
<path fill-rule="evenodd" clip-rule="evenodd" d="M0 15.5C0 6.9391 6.73161 0 15.0445 0C18.2655 0 21.2518 1.04624 23.6995 2.82709C26.1471 1.04624 29.1335 0 32.3544 0C35.5753 0 38.5617 1.04624 41.0093 2.82709C43.457 1.04624 46.4434 0 49.6643 0C52.8852 0 55.8715 1.04624 58.3192 2.82709C60.7669 1.04624 63.7532 0 66.9741 0C75.2738 0 82 6.93986 82 15.5C82 24.0606 75.2687 31 66.9648 31C63.7439 31 60.7575 29.9538 58.3099 28.1729C55.8622 29.9538 52.8758 31 49.6549 31C46.434 31 43.4477 29.9538 41 28.1729C38.5523 29.9538 35.566 31 32.3451 31C29.1242 31 26.1378 29.9538 23.6901 28.1729C21.2425 29.9538 18.2561 31 15.0352 31C6.73131 31 0 24.0606 0 15.5ZM15.0445 1.44455C7.50489 1.44455 1.40123 7.73751 1.40123 15.5C1.40123 23.2628 7.50519 29.5555 15.0352 29.5555C18.1277 29.5555 20.9786 28.4933 23.2665 26.7026L23.6901 26.371L24.1138 26.7026C26.4017 28.4933 29.2525 29.5555 32.3451 29.5555C35.4376 29.5555 38.2884 28.4933 40.5763 26.7026L41 26.371L41.4237 26.7026C43.7116 28.4933 46.5624 29.5555 49.6549 29.5555C52.7475 29.5555 55.5983 28.4933 57.8862 26.7026L58.3099 26.371L58.7335 26.7026C61.0214 28.4933 63.8723 29.5555 66.9648 29.5555C74.4948 29.5555 80.5988 23.2628 80.5988 15.5C80.5988 7.73674 74.499 1.44455 66.9741 1.44455C63.8816 1.44455 61.0308 2.50665 58.7429 4.29738L58.3192 4.62897L57.8955 4.29738C55.6076 2.50665 52.7568 1.44455 49.6643 1.44455C46.5718 1.44455 43.7209 2.50665 41.433 4.29738L41.0093 4.62897L40.5857 4.29738C38.2978 2.50665 35.4469 1.44455 32.3544 1.44455C29.2619 1.44455 26.411 2.50665 24.1231 4.29738L23.6995 4.62897L23.2758 4.29738C20.9879 2.50665 18.1371 1.44455 15.0445 1.44455Z" fill="#774791"/>
<path d="M18.4691 21.4511C17.7143 21.0868 17.1141 20.552 16.6684 19.8423C16.2228 19.1325 16 18.276 16 17.2634C16 16.5584 16.1182 15.7965 16.3547 14.9779C16.8731 13.2177 17.6552 11.9495 18.7056 11.1688C19.756 10.388 20.8746 10 22.0705 10C22.7116 10 23.28 10.0994 23.7757 10.2981C24.2713 10.4968 24.726 10.7855 25.1444 11.1593L25.5991 10.7902C25.9038 10.5442 26.1584 10.3738 26.3676 10.2792C26.5767 10.1845 26.8086 10.1372 27.0678 10.1372C27.3498 10.1372 27.5771 10.2035 27.7454 10.3312C27.9136 10.459 28 10.6483 28 10.8943C28 11.0221 27.9773 11.1546 27.9318 11.2823L26.986 14.0268C26.8859 14.3438 26.7632 14.5662 26.6222 14.694C26.4812 14.8218 26.2721 14.888 25.9901 14.888C25.7082 14.888 25.4581 14.7792 25.2717 14.5615C25.0853 14.3438 24.8761 13.97 24.6396 13.4448C24.3714 12.8959 24.1485 12.5315 23.9803 12.3565C23.8121 12.1814 23.562 12.0915 23.2391 12.0915C22.7753 12.0915 22.3297 12.3896 21.9022 12.9811C21.4748 13.5726 21.0837 14.4621 20.7336 15.6451C20.4426 16.6435 20.2925 17.4763 20.2925 18.1435C20.2925 18.7303 20.4017 19.1656 20.6154 19.4543C20.8291 19.7429 21.1156 19.8849 21.4793 19.8849C22.0068 19.8849 22.4479 19.7618 22.7889 19.5158C23.13 19.2697 23.4847 18.9338 23.8439 18.5126C24.0712 18.2571 24.2531 18.0631 24.3941 17.9401C24.5351 17.817 24.6851 17.7555 24.8443 17.7555C25.0489 17.7555 25.2626 17.8596 25.4854 18.0726C25.7128 18.2855 25.8174 18.4937 25.8083 18.7066C25.8174 18.9621 25.6173 19.3644 25.208 19.9038C24.7988 20.4432 24.2258 20.9259 23.5028 21.3565C22.7753 21.7871 21.9523 22 21.0246 22C20.097 22 19.2285 21.8202 18.4737 21.4558L18.4691 21.4511Z" fill="#774791"/>
<path d="M33.5405 9.39251C33.8468 9.6526 34 10.0025 34 10.4471C34 10.7024 33.9595 10.9578 33.8829 11.2037L31.2519 20.1699C31.2203 20.3118 31.2023 20.4347 31.2023 20.5387C31.2023 20.6901 31.2293 20.813 31.2879 20.8981C31.342 20.988 31.4231 21.0731 31.5222 21.1535C31.5988 21.2339 31.6573 21.3048 31.6889 21.3569C31.7204 21.4089 31.7294 21.4751 31.7069 21.5602C31.6528 21.7115 31.5402 21.825 31.3735 21.896C31.2068 21.9669 30.95 22 30.6031 22H26.7873C26.4989 22 26.2827 21.948 26.152 21.8487C26.0169 21.7494 25.9718 21.617 26.0169 21.4514C26.0619 21.3096 26.1791 21.1866 26.3683 21.0826C26.535 20.988 26.6746 20.8792 26.7873 20.7468C26.8999 20.6191 26.9945 20.4111 27.0711 20.132L29.6165 11.3598C29.648 11.2557 29.6661 11.1659 29.6661 11.0949C29.6661 10.9673 29.6345 10.8585 29.576 10.7781C29.5129 10.6977 29.4318 10.6126 29.3327 10.5322C29.22 10.4376 29.139 10.3572 29.0894 10.2863C29.0398 10.2154 29.0308 10.1208 29.0624 10.0025C29.1299 9.73299 29.4813 9.50127 30.1166 9.29793C30.7518 9.09931 31.4186 9 32.1078 9C32.7566 9 33.2341 9.12768 33.5405 9.38778V9.39251Z" fill="#774791"/>
<path d="M41.8341 12.8081C42.5805 13.3384 42.9515 14.1515 42.9515 15.2374C42.9515 15.6515 42.886 16.1212 42.7551 16.6465L42.0917 19.2374C42.0829 19.2879 42.0742 19.3485 42.0742 19.4242C42.0742 19.6263 42.144 19.7273 42.2837 19.7273C42.4146 19.7273 42.5238 19.6616 42.6154 19.5303C42.7071 19.399 42.7682 19.3333 42.8031 19.3333C42.8555 19.3333 42.9035 19.3788 42.9428 19.4646C42.9821 19.5505 42.9995 19.6515 42.9995 19.7677C43.0082 20.1061 42.8991 20.4495 42.6678 20.798C42.4365 21.1465 42.1222 21.4343 41.7338 21.6616C41.3453 21.8889 40.9176 22 40.4505 22C39.8875 22 39.4074 21.8838 39.0058 21.6414C38.6043 21.404 38.3293 21.0556 38.1765 20.5909C37.8535 21.0404 37.4694 21.3889 37.0242 21.6313C36.579 21.8737 36.1033 21.995 35.597 21.995C35.0252 21.995 34.5407 21.8687 34.1523 21.6111C33.7638 21.3535 33.4714 21.0253 33.2837 20.6162C33.096 20.2071 33 19.7828 33 19.3283C33 19.1263 33.0175 18.9343 33.048 18.7475C33.2226 17.8838 33.598 17.2323 34.1741 16.7929C34.7546 16.3535 35.4442 16.1364 36.243 16.1364C37.1421 16.1364 38.0238 16.298 38.888 16.6263L39.2939 15.3889C39.4336 14.8636 39.5034 14.4545 39.5034 14.1667C39.4947 13.8636 39.4074 13.6414 39.2459 13.4899C39.0844 13.3384 38.8356 13.2626 38.4995 13.2626C38.565 13.4646 38.5955 13.6717 38.5955 13.8838C38.5955 14.3485 38.4428 14.7475 38.1416 15.0859C37.8404 15.4242 37.404 15.5909 36.8453 15.5909C36.3172 15.5909 35.9025 15.4545 35.6057 15.1869C35.3089 14.9192 35.1605 14.5808 35.1605 14.1818C35.1605 13.5556 35.4617 13.0354 36.0684 12.6212C36.6751 12.2071 37.6004 12 38.8443 12C40.0883 12 41.0834 12.2677 41.8298 12.798L41.8341 12.8081ZM37.2032 18.101C37.0155 18.3687 36.9195 18.6616 36.9195 18.9747C36.9195 19.1768 36.9588 19.3384 37.0417 19.4646C37.1246 19.5909 37.2381 19.6515 37.3909 19.6515C37.5306 19.6515 37.6833 19.5859 37.8535 19.4545C38.0194 19.3232 38.1416 19.1263 38.2202 18.8636L38.5606 17.7576C38.3773 17.7222 38.1722 17.702 37.9452 17.702C37.644 17.702 37.3952 17.8384 37.2076 18.1061L37.2032 18.101Z" fill="#774791"/>
<path d="M51.7489 12.2827C52.472 12.4663 53.0263 12.7242 53.4167 13.0565C53.8072 13.3889 54 13.7659 54 14.1825C54 14.5992 53.8361 14.9613 53.5083 15.2341C53.1805 15.502 52.7226 15.6409 52.1394 15.6409C51.5561 15.6409 51.0355 15.4871 50.6258 15.1796C50.2112 14.872 50.0088 14.4851 50.0088 14.0188C50.0088 13.8601 50.0329 13.7063 50.0811 13.5575C49.8642 13.498 49.6762 13.4633 49.5074 13.4633C49.2086 13.4633 48.9628 13.5377 48.7651 13.6865C48.5675 13.8353 48.4759 14.0437 48.4855 14.3115C48.4855 14.629 48.6398 14.9018 48.9531 15.125C49.2616 15.3482 49.7677 15.621 50.4571 15.9534C51.0548 16.2262 51.5465 16.4742 51.9369 16.7024C52.3273 16.9306 52.6551 17.2183 52.9202 17.5605C53.1902 17.9028 53.3252 18.3095 53.3252 18.7758C53.3252 18.875 53.3011 19.0585 53.2529 19.3264C53.06 20.1498 52.5298 20.7996 51.6573 21.2808C50.7848 21.7619 49.6376 22 48.2156 22C46.6152 22 45.3475 21.7768 44.4075 21.3353C43.4676 20.8938 43 20.2837 43 19.5099C43 18.9841 43.1543 18.5823 43.4676 18.3095C43.7761 18.0417 44.1906 17.9028 44.7016 17.9028C45.2993 17.9028 45.8103 18.0962 46.2344 18.4732C46.6586 18.8552 46.8707 19.3413 46.8707 19.9315C46.8707 20.0903 46.8514 20.2589 46.8177 20.4276C47.1021 20.502 47.3769 20.5367 47.642 20.5367C47.9505 20.5367 48.2108 20.4524 48.4132 20.2788C48.6157 20.1052 48.7169 19.8671 48.7169 19.5595C48.7025 19.2768 48.5675 19.0337 48.3072 18.8304C48.0421 18.627 47.6275 18.3839 47.0539 18.1012C46.514 17.8433 46.0754 17.6002 45.7283 17.372C45.3812 17.1438 45.0872 16.8611 44.8414 16.5139C44.5955 16.1716 44.475 15.7649 44.475 15.2986C44.475 14.2917 44.8848 13.4881 45.7042 12.8929C46.5237 12.2976 47.6854 12 49.1893 12C50.1823 12 51.0355 12.0942 51.7585 12.2778L51.7489 12.2827Z" fill="#774791"/>
<path d="M61.7489 12.2827C62.472 12.4663 63.0263 12.7242 63.4167 13.0565C63.8072 13.3889 64 13.7659 64 14.1825C64 14.5992 63.8361 14.9613 63.5083 15.2341C63.1805 15.502 62.7226 15.6409 62.1394 15.6409C61.5561 15.6409 61.0355 15.4871 60.6258 15.1796C60.2112 14.872 60.0088 14.4851 60.0088 14.0188C60.0088 13.8601 60.0329 13.7063 60.0811 13.5575C59.8642 13.498 59.6762 13.4633 59.5074 13.4633C59.2086 13.4633 58.9628 13.5377 58.7651 13.6865C58.5675 13.8353 58.4759 14.0437 58.4855 14.3115C58.4855 14.629 58.6398 14.9018 58.9531 15.125C59.2616 15.3482 59.7677 15.621 60.4571 15.9534C61.0548 16.2262 61.5465 16.4742 61.9369 16.7024C62.3273 16.9306 62.6551 17.2183 62.9202 17.5605C63.1902 17.9028 63.3252 18.3095 63.3252 18.7758C63.3252 18.875 63.3011 19.0585 63.2528 19.3264C63.06 20.1498 62.5298 20.7996 61.6573 21.2808C60.7848 21.7619 59.6376 22 58.2156 22C56.6152 22 55.3475 21.7768 54.4075 21.3353C53.4676 20.8938 53 20.2837 53 19.5099C53 18.9841 53.1543 18.5823 53.4676 18.3095C53.7761 18.0417 54.1906 17.9028 54.7016 17.9028C55.2993 17.9028 55.8103 18.0962 56.2344 18.4732C56.6586 18.8552 56.8707 19.3413 56.8707 19.9315C56.8707 20.0903 56.8514 20.2589 56.8177 20.4276C57.1021 20.502 57.3769 20.5367 57.642 20.5367C57.9505 20.5367 58.2108 20.4524 58.4132 20.2788C58.6157 20.1052 58.7169 19.8671 58.7169 19.5595C58.7025 19.2768 58.5675 19.0337 58.3072 18.8304C58.0421 18.627 57.6275 18.3839 57.0539 18.1012C56.514 17.8433 56.0754 17.6002 55.7283 17.372C55.3812 17.1438 55.0872 16.8611 54.8414 16.5139C54.5955 16.1716 54.475 15.7649 54.475 15.2986C54.475 14.2917 54.8848 13.4881 55.7042 12.8929C56.5237 12.2976 57.6854 12 59.1893 12C60.1823 12 61.0355 12.0942 61.7585 12.2778L61.7489 12.2827Z" fill="#774791"/>
</svg>
