<svg width="84" height="33" viewBox="0 0 84 33" fill="none" xmlns="http://www.w3.org/2000/svg">
<path d="M69.5941 5C66.327 5 63.3135 6.05832 60.896 7.84197C58.4786 6.05832 55.4651 5 52.198 5C48.931 5 45.9174 6.05832 43.5 7.84197C41.0826 6.05832 38.069 5 34.802 5C31.5349 5 28.5214 6.05832 26.104 7.84197C23.6865 6.05832 20.673 5 17.4059 5C9.44958 5 3 11.2678 3 19C3 26.7322 9.44958 33 17.4059 33C20.673 33 23.6865 31.9417 26.104 30.158C28.5214 31.9417 31.5349 33 34.802 33C38.069 33 41.0826 31.9417 43.5 30.158C45.9174 31.9417 48.931 33 52.198 33C55.4651 33 58.4786 31.9417 60.896 30.158C63.3135 31.9417 66.327 33 69.5941 33C77.5504 33 84 26.7322 84 19C84 11.2678 77.5504 5 69.5941 5Z" fill="#A54300"/>
<path d="M66.7812 1C63.5545 1 60.5781 2.09612 58.1905 3.94347C55.803 2.09612 52.8266 1 49.5999 1C46.3732 1 43.3969 2.09612 41.0093 3.94347C38.6217 2.09612 35.6453 1 32.4186 1C29.1919 1 26.2156 2.09612 23.828 3.94347C21.4404 2.09612 18.4641 1 15.2374 1C7.36996 1 1 7.49169 1 15.5C1 23.5083 7.36996 30 15.2281 30C18.4548 30 21.4312 28.9039 23.8187 27.0565C26.2063 28.9039 29.1827 30 32.4094 30C35.6361 30 38.6124 28.9039 41 27.0565C43.3876 28.9039 46.3639 30 49.5906 30C52.8173 30 55.7937 28.9039 58.1813 27.0565C60.5688 28.9039 63.5452 30 66.7719 30C74.63 30 81 23.5083 81 15.5C81 7.49169 74.6347 1 66.7812 1Z" fill="white"/>
<path fill-rule="evenodd" clip-rule="evenodd" d="M0 15C0 6.71525 6.73161 0 15.0445 0C18.2655 0 21.2518 1.01249 23.6995 2.73589C26.1471 1.01249 29.1335 0 32.3544 0C35.5753 0 38.5617 1.01249 41.0093 2.73589C43.457 1.01249 46.4434 0 49.6643 0C52.8852 0 55.8715 1.01249 58.3192 2.73589C60.7669 1.01249 63.7532 0 66.9741 0C75.2738 0 82 6.71599 82 15C82 23.2844 75.2687 30 66.9648 30C63.7439 30 60.7575 28.9875 58.3099 27.2641C55.8622 28.9875 52.8758 30 49.6549 30C46.434 30 43.4477 28.9875 41 27.2641C38.5523 28.9875 35.566 30 32.3451 30C29.1242 30 26.1378 28.9875 23.6901 27.2641C21.2425 28.9875 18.2561 30 15.0352 30C6.73131 30 0 23.2844 0 15ZM15.0445 1.39795C7.50489 1.39795 1.40123 7.48791 1.40123 15C1.40123 22.5124 7.50519 28.602 15.0352 28.602C18.1277 28.602 20.9786 27.5742 23.2665 25.8412L23.6901 25.5203L24.1138 25.8412C26.4017 27.5742 29.2525 28.602 32.3451 28.602C35.4376 28.602 38.2884 27.5742 40.5763 25.8412L41 25.5203L41.4237 25.8412C43.7116 27.5742 46.5624 28.602 49.6549 28.602C52.7475 28.602 55.5983 27.5742 57.8862 25.8412L58.3099 25.5203L58.7335 25.8412C61.0214 27.5742 63.8723 28.602 66.9648 28.602C74.4948 28.602 80.5988 22.5124 80.5988 15C80.5988 7.48717 74.499 1.39795 66.9741 1.39795C63.8816 1.39795 61.0308 2.42579 58.7429 4.15876L58.3192 4.47965L57.8955 4.15876C55.6076 2.42579 52.7568 1.39795 49.6643 1.39795C46.5718 1.39795 43.7209 2.42579 41.433 4.15876L41.0093 4.47965L40.5857 4.15876C38.2978 2.42579 35.4469 1.39795 32.3544 1.39795C29.2619 1.39795 26.411 2.42579 24.1231 4.15876L23.6995 4.47965L23.2758 4.15876C20.9879 2.42579 18.1371 1.39795 15.0445 1.39795Z" fill="#A54300"/>
<path d="M30.047 10.6873C30.679 11.147 31 11.7569 31 12.5216C31 12.822 30.9498 13.1361 30.8495 13.4684C30.5385 14.4697 29.9316 15.2117 29.0187 15.6896C28.1059 16.1721 26.9572 16.4087 25.5678 16.4087H23.8624L23.3007 18.2249C23.2806 18.284 23.2656 18.366 23.2656 18.4661C23.2656 18.6072 23.3007 18.721 23.3709 18.812C23.4411 18.903 23.5515 19.0077 23.6919 19.1261C23.8123 19.2262 23.8976 19.299 23.9427 19.3537C23.9878 19.4037 24.0079 19.4629 24.0079 19.5357C24.0079 19.7087 23.9176 19.827 23.7421 19.8953C23.5665 19.9636 23.3057 20 22.9646 20H18.8115C18.5256 20 18.3099 19.9545 18.1644 19.8589C18.019 19.7633 17.9738 19.6313 18.014 19.4584C18.034 19.3673 18.0792 19.2945 18.1394 19.2399C18.1996 19.1853 18.2898 19.1215 18.4102 19.0533C18.5958 18.9531 18.7463 18.8484 18.8566 18.7392C18.967 18.6299 19.0573 18.457 19.1225 18.2294L21.1439 11.7569C21.189 11.6249 21.2091 11.502 21.2091 11.3792C21.2091 11.2699 21.189 11.1743 21.1489 11.1015C21.1087 11.0241 21.0586 10.9376 20.9934 10.8375C20.8931 10.7055 20.8429 10.6008 20.8429 10.5234C20.8429 10.4916 20.8529 10.437 20.878 10.3596C20.9232 10.2276 21.0185 10.1365 21.1689 10.0819C21.3194 10.0273 21.5451 10 21.8561 10H27.3334C28.5021 10 29.405 10.2321 30.042 10.6919L30.047 10.6873ZM27.0927 12.2212C27.0927 11.6386 26.7967 11.3518 26.1998 11.3518H25.4575L24.2838 15.0614H25.0111C25.4725 15.0614 25.8537 14.9294 26.1447 14.6655C26.4356 14.4015 26.6914 13.9099 26.9121 13.1998C27.0325 12.8311 27.0927 12.5034 27.0927 12.2258V12.2212Z" fill="#A54300"/>
<path d="M35.5382 9.32472C35.8427 9.54121 36 9.83887 36 10.2177C36 10.4342 35.9594 10.6507 35.8833 10.8581L33.2545 18.4485C33.219 18.5658 33.2037 18.674 33.2037 18.7597C33.2037 18.8905 33.2291 18.9897 33.29 19.0664C33.3458 19.1431 33.422 19.2153 33.5235 19.2829C33.5996 19.3506 33.6554 19.4092 33.6909 19.4543C33.7265 19.4994 33.7315 19.558 33.7062 19.6257C33.6503 19.7565 33.5387 19.8512 33.3712 19.9098C33.2037 19.9684 32.9449 20 32.5998 20H28.7835C28.4942 20 28.2811 19.9594 28.1492 19.8737C28.0172 19.788 27.9715 19.6798 28.0172 19.54C28.0629 19.4227 28.1796 19.319 28.3674 19.2288C28.5348 19.1476 28.6769 19.0574 28.7886 18.9446C28.9002 18.8364 28.9967 18.6605 29.0728 18.4215L31.6204 10.9934C31.6559 10.9032 31.6711 10.8311 31.6711 10.7679C31.6711 10.6597 31.6407 10.5695 31.5798 10.5018C31.5189 10.4342 31.4377 10.362 31.3362 10.2944C31.2245 10.2132 31.1433 10.1456 31.0926 10.0869C31.0418 10.0283 31.0317 9.94711 31.0672 9.84789C31.1332 9.61788 31.4884 9.41943 32.1228 9.25256C32.7571 9.08569 33.422 9 34.1172 9C34.7668 9 35.2438 9.10824 35.5483 9.32923L35.5382 9.32472Z" fill="#A54300"/>
<path d="M42.8244 12.6549C43.5717 13.0824 43.9453 13.7283 43.9453 14.5969C43.9453 14.9289 43.8814 15.3019 43.7487 15.7248L43.085 17.7942C43.0752 17.8351 43.0702 17.8852 43.0702 17.9443C43.0702 18.1035 43.1391 18.1853 43.2816 18.1853C43.4095 18.1853 43.5225 18.1308 43.6159 18.0262C43.7093 17.9215 43.7683 17.867 43.8027 17.867C43.8568 17.867 43.9011 17.9034 43.9404 17.9716C43.9797 18.0398 43.9994 18.1217 43.9994 18.2126C44.0092 18.481 43.9011 18.7584 43.6651 19.0404C43.434 19.3223 43.1194 19.5497 42.731 19.7317C42.3427 19.9136 41.915 20 41.4479 20C40.8875 20 40.4057 19.9045 40.0026 19.7135C39.6044 19.5225 39.3242 19.245 39.1767 18.8721C38.8522 19.2314 38.4688 19.5088 38.0263 19.7044C37.5839 19.8999 37.107 19.9955 36.6006 19.9955C36.0254 19.9955 35.5437 19.8954 35.1553 19.6862C34.7669 19.477 34.4769 19.2177 34.2851 18.8903C34.0934 18.5674 34 18.2217 34 17.8624C34 17.7032 34.0147 17.5486 34.0492 17.3985C34.2212 16.7072 34.5998 16.1887 35.175 15.8385C35.7551 15.4883 36.4433 15.311 37.2446 15.311C38.1443 15.311 39.0243 15.4429 39.8895 15.7021L40.2975 14.7106C40.4401 14.2922 40.5089 13.9648 40.5089 13.7328C40.4991 13.4918 40.4106 13.3144 40.2484 13.1916C40.0862 13.0733 39.8354 13.0097 39.5011 13.0097C39.565 13.1688 39.5995 13.3326 39.5995 13.5054C39.5995 13.8738 39.4471 14.1967 39.1472 14.465C38.8424 14.7334 38.4098 14.8698 37.8493 14.8698C37.3184 14.8698 36.9054 14.7607 36.6105 14.5469C36.3155 14.3331 36.1631 14.0648 36.1631 13.7419C36.1631 13.2416 36.4679 12.8277 37.0726 12.4957C37.6773 12.1637 38.6015 12 39.8453 12C41.089 12 42.0821 12.2138 42.8293 12.6367L42.8244 12.6549ZM38.1934 16.8891C38.0017 17.1029 37.9083 17.3348 37.9083 17.585C37.9083 17.7442 37.9476 17.8761 38.0312 17.9761C38.1148 18.0762 38.2279 18.1262 38.3803 18.1262C38.5228 18.1262 38.6752 18.0716 38.8424 17.967C39.0095 17.8624 39.1324 17.7032 39.2062 17.494L39.5454 16.6072C39.3635 16.5753 39.157 16.5617 38.9309 16.5617C38.6261 16.5617 38.3803 16.6708 38.1934 16.8846V16.8891Z" fill="#A54300"/>
<path d="M53.088 12.2504C53.3725 12.4098 53.5937 12.6147 53.7562 12.8651C53.9187 13.1155 54 13.3751 54 13.6483C54 14.0307 53.8962 14.3586 53.6885 14.6318C53.4808 14.905 53.1467 15.1781 52.6907 15.4513L49.5305 17.3455C49.8284 17.687 50.1219 17.8554 50.4108 17.8554C50.6411 17.8554 50.8442 17.7689 51.0203 17.6005C51.1964 17.432 51.4041 17.1861 51.6298 16.8628C51.7698 16.6716 51.8736 16.5396 51.9413 16.4576C52.009 16.3756 52.0813 16.3392 52.149 16.3392C52.3296 16.3392 52.5237 16.403 52.7359 16.535C52.9481 16.667 53.1332 16.8583 53.2867 17.1042C53.4402 17.3546 53.5169 17.6551 53.5169 18.0057C53.5169 18.3563 53.4266 18.6978 53.2415 19.0028C53.0564 19.3079 52.7991 19.5538 52.465 19.7314C52.1309 19.9135 51.7427 20 51.2957 20C50.8488 20 50.4921 19.9226 50.1941 19.7678C49.8962 19.613 49.6659 19.44 49.5034 19.2487C49.3409 19.0575 49.1783 18.8344 49.0203 18.5703C48.8894 18.3381 48.7901 18.2242 48.7223 18.2242C48.6637 18.2242 48.6005 18.2607 48.5372 18.329C48.474 18.3973 48.3792 18.5202 48.2619 18.6887C47.9955 19.0802 47.7201 19.3944 47.4357 19.6357C47.1512 19.8771 46.781 19.9954 46.3251 19.9954C45.8691 19.9954 45.4944 19.9135 45.1422 19.7541C44.7901 19.5948 44.5102 19.3808 44.307 19.1167C44.1038 18.8526 44 18.5612 44 18.2516C44 17.7006 44.3612 17.1952 45.088 16.7353L48.9165 14.3768C48.7494 14.1673 48.6005 14.0171 48.4695 13.926C48.3386 13.8349 48.2032 13.7894 48.0542 13.7894C47.8646 13.7894 47.702 13.8577 47.5711 13.9943C47.4357 14.1309 47.3002 14.3176 47.1603 14.5589C47.0609 14.7183 46.9797 14.8412 46.9165 14.9186C46.8533 14.996 46.781 15.037 46.6998 15.037C46.3928 15.037 46.1219 14.9277 45.8962 14.7046C45.6659 14.4861 45.553 14.1855 45.553 13.8031C45.553 13.4935 45.6298 13.1975 45.7833 12.9243C45.9368 12.6511 46.158 12.428 46.4379 12.255C46.7223 12.0865 47.0519 12 47.4266 12C47.9729 12 48.3973 12.132 48.6998 12.4007C49.0023 12.6648 49.2731 12.9926 49.5124 13.3842C49.6524 13.6027 49.7472 13.7166 49.7968 13.7166C49.8465 13.7166 49.9052 13.6847 49.9684 13.6209C50.0316 13.5572 50.0858 13.4889 50.1309 13.4252C50.1761 13.3614 50.2122 13.3113 50.2438 13.284C50.5418 12.8924 50.8307 12.5828 51.1061 12.3506C51.386 12.1184 51.7381 12.0046 52.1625 12.0046C52.4921 12.0046 52.7946 12.0865 53.079 12.2459L53.088 12.2504Z" fill="#A54300"/>
<path d="M61.942 12.6549C62.6145 13.0824 62.9508 13.7283 62.9508 14.5969C62.9508 14.9289 62.8933 15.3019 62.7738 15.7248L62.1765 17.7942C62.1676 17.8351 62.1632 17.8852 62.1632 17.9443C62.1632 18.1035 62.2252 18.1853 62.3535 18.1853C62.4685 18.1853 62.5703 18.1308 62.6543 18.0262C62.7384 17.9215 62.7915 17.867 62.8225 17.867C62.8711 17.867 62.911 17.9034 62.9464 17.9716C62.9818 18.0398 62.9994 18.1217 62.9994 18.2126C63.0083 18.481 62.911 18.7584 62.6986 19.0404C62.4906 19.3223 62.2075 19.5497 61.8579 19.7317C61.5084 19.9136 61.1235 20 60.7031 20C60.1987 20 59.7651 19.9045 59.4023 19.7135C59.0439 19.5225 58.7917 19.245 58.659 18.8721C58.367 19.2314 58.0219 19.5088 57.6237 19.7044C57.2255 19.8999 56.7963 19.9955 56.3406 19.9955C55.8229 19.9955 55.3893 19.8954 55.0398 19.6862C54.6902 19.477 54.4292 19.2177 54.2566 18.8903C54.0841 18.5674 54 18.2217 54 17.8624C54 17.7032 54.0133 17.5486 54.0442 17.3985C54.1991 16.7072 54.5398 16.1887 55.0575 15.8385C55.5795 15.4883 56.199 15.311 56.9202 15.311C57.7299 15.311 58.5218 15.4429 59.3006 15.7021L59.6678 14.7106C59.7961 14.2922 59.858 13.9648 59.858 13.7328C59.8492 13.4918 59.7696 13.3144 59.6235 13.1916C59.4775 13.0733 59.2519 13.0097 58.951 13.0097C59.0085 13.1688 59.0395 13.3326 59.0395 13.5054C59.0395 13.8738 58.9024 14.1967 58.6325 14.465C58.3581 14.7334 57.9688 14.8698 57.4644 14.8698C56.9865 14.8698 56.6149 14.7607 56.3494 14.5469C56.0839 14.3331 55.9468 14.0648 55.9468 13.7419C55.9468 13.2416 56.2211 12.8277 56.7653 12.4957C57.3095 12.1637 58.1413 12 59.2607 12C60.3801 12 61.2739 12.2138 61.9464 12.6367L61.942 12.6549ZM57.7741 16.8891C57.6015 17.1029 57.5175 17.3348 57.5175 17.585C57.5175 17.7442 57.5529 17.8761 57.6281 17.9761C57.7033 18.0762 57.8051 18.1262 57.9422 18.1262C58.0705 18.1262 58.2077 18.0716 58.3581 17.967C58.5086 17.8624 58.6192 17.7032 58.6856 17.494L58.9908 16.6072C58.8271 16.5753 58.6413 16.5617 58.4378 16.5617C58.1635 16.5617 57.9422 16.6708 57.7741 16.8846V16.8891Z" fill="#A54300"/>
</svg>
