<svg width="84" height="33" viewBox="0 0 84 33" fill="none" xmlns="http://www.w3.org/2000/svg">
<path d="M69.7719 4C66.5452 4 63.5688 5.09612 61.1813 6.94347C58.7937 5.09612 55.8173 4 52.5906 4C49.3639 4 46.3876 5.09612 44 6.94347C41.6124 5.09612 38.6361 4 35.4094 4C32.1827 4 29.2063 5.09612 26.8187 6.94347C24.4312 5.09612 21.4548 4 18.2281 4C10.37 4 4 10.4917 4 18.5C4 26.5083 10.37 33 18.2281 33C21.4548 33 24.4312 31.9039 26.8187 30.0565C29.2063 31.9039 32.1827 33 35.4094 33C38.6361 33 41.6124 31.9039 44 30.0565C46.3876 31.9039 49.3639 33 52.5906 33C55.8173 33 58.7937 31.9039 61.1813 30.0565C63.5688 31.9039 66.5452 33 69.7719 33C77.63 33 84 26.5083 84 18.5C84 10.4917 77.63 4 69.7719 4Z" fill="#474793"/>
<path d="M66.7812 1C63.5545 1 60.5781 2.05833 58.1905 3.84197C55.803 2.05833 52.8266 1 49.5999 1C46.3732 1 43.3969 2.05833 41.0093 3.84197C38.6217 2.05833 35.6453 1 32.4186 1C29.1919 1 26.2156 2.05833 23.828 3.84197C21.4404 2.05833 18.4641 1 15.2374 1C7.36996 1 1 7.26784 1 15C1 22.7322 7.36996 29 15.2281 29C18.4548 29 21.4312 27.9417 23.8187 26.158C26.2063 27.9417 29.1827 29 32.4094 29C35.6361 29 38.6124 27.9417 41 26.158C43.3876 27.9417 46.3639 29 49.5906 29C52.8173 29 55.7937 27.9417 58.1813 26.158C60.5688 27.9417 63.5452 29 66.7719 29C74.63 29 81 22.7322 81 15C81 7.26784 74.6347 1 66.7812 1Z" fill="white"/>
<path fill-rule="evenodd" clip-rule="evenodd" d="M0 15C0 6.71525 6.73161 0 15.0445 0C18.2655 0 21.2518 1.01249 23.6995 2.73589C26.1471 1.01249 29.1335 0 32.3544 0C35.5753 0 38.5617 1.01249 41.0093 2.73589C43.457 1.01249 46.4434 0 49.6643 0C52.8852 0 55.8715 1.01249 58.3192 2.73589C60.7669 1.01249 63.7532 0 66.9741 0C75.2738 0 82 6.71599 82 15C82 23.2844 75.2687 30 66.9648 30C63.7439 30 60.7575 28.9875 58.3099 27.2641C55.8622 28.9875 52.8758 30 49.6549 30C46.434 30 43.4477 28.9875 41 27.2641C38.5523 28.9875 35.566 30 32.3451 30C29.1242 30 26.1378 28.9875 23.6901 27.2641C21.2425 28.9875 18.2561 30 15.0352 30C6.73131 30 0 23.2844 0 15ZM15.0445 1.39795C7.50489 1.39795 1.40123 7.48791 1.40123 15C1.40123 22.5124 7.50519 28.602 15.0352 28.602C18.1277 28.602 20.9786 27.5742 23.2665 25.8412L23.6901 25.5203L24.1138 25.8412C26.4017 27.5742 29.2525 28.602 32.3451 28.602C35.4376 28.602 38.2884 27.5742 40.5763 25.8412L41 25.5203L41.4237 25.8412C43.7116 27.5742 46.5624 28.602 49.6549 28.602C52.7475 28.602 55.5983 27.5742 57.8862 25.8412L58.3099 25.5203L58.7335 25.8412C61.0214 27.5742 63.8723 28.602 66.9648 28.602C74.4948 28.602 80.5988 22.5124 80.5988 15C80.5988 7.48717 74.499 1.39795 66.9741 1.39795C63.8816 1.39795 61.0308 2.42579 58.7429 4.15876L58.3192 4.47965L57.8955 4.15876C55.6076 2.42579 52.7568 1.39795 49.6643 1.39795C46.5718 1.39795 43.7209 2.42579 41.433 4.15876L41.0093 4.47965L40.5857 4.15876C38.2978 2.42579 35.4469 1.39795 32.3544 1.39795C29.2619 1.39795 26.411 2.42579 24.1231 4.15876L23.6995 4.47965L23.2758 4.15876C20.9879 2.42579 18.1371 1.39795 15.0445 1.39795Z" fill="#474793"/>
<path d="M35.7782 16.3029C35.9261 16.4166 36 16.5803 36 16.7894C36 16.8804 35.9861 16.9804 35.9538 17.0896L35.4501 18.8449C35.3161 19.2769 35.1312 19.5771 34.8956 19.7453C34.6553 19.9136 34.3041 20 33.8373 20H26.6701C26.4575 20 26.2911 19.9636 26.1756 19.8954C26.0601 19.8272 26 19.7317 26 19.6089C26 19.5498 26.0139 19.4861 26.0462 19.4134C26.0786 19.3315 26.1294 19.2678 26.1987 19.2087C26.268 19.1542 26.3466 19.0996 26.4298 19.0496C26.5915 18.9495 26.7255 18.8449 26.8272 18.7403C26.9288 18.6357 27.0166 18.4629 27.086 18.2219L28.9482 11.7553C28.9898 11.6235 29.0083 11.5007 29.0083 11.3779C29.0083 11.2688 28.9898 11.1733 28.9529 11.1005C28.9159 11.0277 28.8697 10.9368 28.8096 10.8367C28.7172 10.7049 28.671 10.6003 28.671 10.523C28.671 10.4911 28.6802 10.4366 28.7033 10.3593C28.7449 10.2274 28.8327 10.1364 28.9713 10.0819C29.11 10.0273 29.3179 10 29.6044 10H33.1858C33.3983 10 33.5647 10.0318 33.6802 10.0955C33.7957 10.1592 33.8558 10.2547 33.8558 10.3729C33.8558 10.4229 33.842 10.4866 33.8096 10.5684C33.7773 10.6367 33.7357 10.7003 33.6802 10.7549C33.6248 10.8095 33.5739 10.8504 33.5277 10.8731C33.4815 10.9004 33.4492 10.9231 33.4307 10.9413C33.2689 11.0323 33.1349 11.1323 33.0333 11.2415C32.9316 11.3506 32.8438 11.5234 32.7745 11.7508L30.8059 18.5493H31.7532C31.9889 18.5493 32.1876 18.5084 32.354 18.4311C32.5203 18.3492 32.6959 18.1992 32.8808 17.9809L33.9344 16.7485C34.1285 16.5302 34.3133 16.3665 34.4889 16.2665C34.6645 16.1664 34.8817 16.1164 35.1359 16.1164C35.4224 16.1164 35.6349 16.1755 35.7828 16.2892L35.7782 16.3029Z" fill="#474793"/>
<path d="M44.8244 12.6549C45.5717 13.0824 45.9453 13.7283 45.9453 14.5969C45.9453 14.9289 45.8814 15.3019 45.7487 15.7248L45.085 17.7942C45.0752 17.8351 45.0702 17.8852 45.0702 17.9443C45.0702 18.1035 45.1391 18.1853 45.2816 18.1853C45.4095 18.1853 45.5225 18.1308 45.6159 18.0262C45.7093 17.9215 45.7683 17.867 45.8027 17.867C45.8568 17.867 45.9011 17.9034 45.9404 17.9716C45.9797 18.0398 45.9994 18.1217 45.9994 18.2126C46.0092 18.481 45.9011 18.7584 45.6651 19.0404C45.434 19.3223 45.1194 19.5497 44.731 19.7317C44.3427 19.9136 43.915 20 43.4479 20C42.8875 20 42.4057 19.9045 42.0026 19.7135C41.6044 19.5225 41.3242 19.245 41.1767 18.8721C40.8522 19.2314 40.4688 19.5088 40.0263 19.7044C39.5838 19.8999 39.107 19.9955 38.6006 19.9955C38.0254 19.9955 37.5437 19.8954 37.1553 19.6862C36.7669 19.477 36.4769 19.2177 36.2851 18.8903C36.0934 18.5674 36 18.2217 36 17.8624C36 17.7032 36.0147 17.5486 36.0492 17.3985C36.2212 16.7072 36.5998 16.1887 37.175 15.8385C37.7551 15.4883 38.4433 15.311 39.2446 15.311C40.1443 15.311 41.0243 15.4429 41.8895 15.7021L42.2975 14.7106C42.4401 14.2922 42.5089 13.9648 42.5089 13.7328C42.4991 13.4918 42.4106 13.3144 42.2484 13.1916C42.0862 13.0733 41.8354 13.0097 41.5011 13.0097C41.565 13.1688 41.5995 13.3326 41.5995 13.5054C41.5995 13.8738 41.4471 14.1967 41.1472 14.465C40.8424 14.7334 40.4098 14.8698 39.8493 14.8698C39.3184 14.8698 38.9054 14.7607 38.6105 14.5469C38.3155 14.3331 38.1631 14.0648 38.1631 13.7419C38.1631 13.2416 38.4679 12.8277 39.0726 12.4957C39.6773 12.1637 40.6015 12 41.8453 12C43.089 12 44.0821 12.2138 44.8294 12.6367L44.8244 12.6549ZM40.1934 16.8891C40.0017 17.1029 39.9083 17.3348 39.9083 17.585C39.9083 17.7442 39.9476 17.8761 40.0312 17.9761C40.1148 18.0762 40.2279 18.1262 40.3803 18.1262C40.5228 18.1262 40.6752 18.0716 40.8424 17.967C41.0095 17.8624 41.1324 17.7032 41.2062 17.494L41.5454 16.6072C41.3635 16.5753 41.157 16.5617 40.9309 16.5617C40.6261 16.5617 40.3803 16.6708 40.1934 16.8846V16.8891Z" fill="#474793"/>
<path d="M55.3475 12.8121C55.7825 13.3332 56 14.019 56 14.8696C56 15.3105 55.9467 15.7425 55.8402 16.1611C55.5295 17.4259 54.9925 18.3789 54.2379 19.0292C53.4789 19.6749 52.609 20 51.6236 20C51.0688 20 50.585 19.9065 50.1811 19.715C49.7772 19.5235 49.4532 19.2518 49.2091 18.9L48.6809 19.3543C48.4767 19.5324 48.277 19.6615 48.0817 19.7462C47.8864 19.8308 47.66 19.8708 47.407 19.8708H46.7634C46.5193 19.8708 46.3329 19.8174 46.1997 19.715C46.0666 19.6126 46 19.4611 46 19.2652C46 19.1761 46.0133 19.0737 46.0444 18.9579L48.49 10.9773C48.5211 10.8883 48.5344 10.817 48.5344 10.7547C48.5344 10.5899 48.4323 10.4296 48.2281 10.2826C48.1305 10.1935 48.0639 10.1223 48.024 10.0688C47.984 10.0154 47.9796 9.94413 48.0107 9.85506C48.0772 9.62794 48.3879 9.43198 48.9427 9.2583C49.4931 9.08907 50.0746 9 50.6782 9C51.2463 9 51.6636 9.11134 51.9299 9.32955C52.1962 9.55223 52.3338 9.84615 52.3338 10.2202C52.3338 10.4251 52.2983 10.63 52.2317 10.8393L51.6147 12.8389C52.1829 12.3 52.8486 12.0328 53.6209 12.0328C54.3444 12.0328 54.9214 12.2911 55.3564 12.8121H55.3475ZM52.2494 14.4599C52.2494 14.0101 52.1163 13.783 51.8544 13.783C51.6192 13.783 51.4017 13.9077 51.1931 14.1526L50.2432 17.27L50.1545 17.5506C50.1056 17.6976 50.079 17.849 50.079 18.0049C50.079 18.3478 50.2388 18.5215 50.5628 18.5215C50.798 18.5215 51.02 18.3522 51.2375 18.0049C51.4505 17.6619 51.6902 17.0206 51.9565 16.081C52.1518 15.413 52.2494 14.8741 52.2494 14.4644V14.4599Z" fill="#474793"/>
</svg>
