<svg id="그룹_5712" data-name="그룹 5712" xmlns="http://www.w3.org/2000/svg" width="20.098" height="22.969" viewBox="0 0 20.098 22.969">
  <path id="패스_6189" data-name="패스 6189" d="M13.178,7.216a.689.689,0,0,1,0,1h0L8.871,12.528a.689.689,0,0,1-1,0h0L5.713,10.374a.711.711,0,0,1,1-1l1.651,1.637,3.8-3.79a.689.689,0,0,1,1,0Z" transform="translate(0.962 3.048)" fill="#6768a7"/>
  <path id="패스_6190" data-name="패스 6190" d="M5.307,1.5H3.871A2.871,2.871,0,0,0,1,4.371V19.444a2.871,2.871,0,0,0,2.871,2.871H18.227A2.871,2.871,0,0,0,21.1,19.444V4.371A2.871,2.871,0,0,0,18.227,1.5H16.791V2.936h1.436a1.436,1.436,0,0,1,1.436,1.436V19.444a1.436,1.436,0,0,1-1.436,1.436H3.871a1.436,1.436,0,0,1-1.436-1.436V4.371A1.436,1.436,0,0,1,3.871,2.936H5.307Z" transform="translate(-1 0.653)" fill="#6768a7"/>
  <path id="패스_6191" data-name="패스 6191" d="M11.46,1.436a.718.718,0,0,1,.718.718V3.589a.718.718,0,0,1-.718.718H7.153a.718.718,0,0,1-.718-.718V2.153a.718.718,0,0,1,.718-.718ZM7.153,0A2.153,2.153,0,0,0,5,2.153V3.589A2.153,2.153,0,0,0,7.153,5.742H11.46a2.153,2.153,0,0,0,2.153-2.153V2.153A2.153,2.153,0,0,0,11.46,0Z" transform="translate(0.742)" fill="#6768a7"/>
</svg>
