<svg xmlns="http://www.w3.org/2000/svg" width="22.77" height="17.078" viewBox="0 0 22.77 17.078">
  <g id="그룹_3795" data-name="그룹 3795" transform="translate(0)">
    <path id="패스_3545" data-name="패스 3545" d="M21.347,16.231a1.424,1.424,0,0,1-1.423,1.423H2.846a1.424,1.424,0,0,1-1.423-1.423V7.693A1.424,1.424,0,0,1,2.846,6.269H4.514A4.269,4.269,0,0,0,7.531,5.018L8.713,3.84a1.425,1.425,0,0,1,1-.417h3.336a1.419,1.419,0,0,1,1.006.417l1.178,1.178a4.27,4.27,0,0,0,3.02,1.251h1.668a1.424,1.424,0,0,1,1.423,1.423ZM2.846,4.846A2.846,2.846,0,0,0,0,7.693v8.539a2.846,2.846,0,0,0,2.846,2.846H19.924a2.846,2.846,0,0,0,2.846-2.846V7.693a2.846,2.846,0,0,0-2.846-2.846H18.256a2.847,2.847,0,0,1-2.012-.834L15.065,2.834A2.847,2.847,0,0,0,13.053,2H9.717A2.847,2.847,0,0,0,7.7,2.834L6.527,4.012a2.847,2.847,0,0,1-2.012.834Z" transform="translate(0 -2)" fill="#fff"/>
    <path id="패스_3546" data-name="패스 3546" d="M10.539,13.539A3.558,3.558,0,1,1,14.1,9.981,3.557,3.557,0,0,1,10.539,13.539Zm0,1.423A4.981,4.981,0,1,0,5.558,9.981,4.981,4.981,0,0,0,10.539,14.962ZM3.423,7.135a.712.712,0,1,1-.712-.712A.712.712,0,0,1,3.423,7.135Z" transform="translate(0.846 -0.731)" fill="#fff"/>
  </g>
</svg>
