<svg id="그룹_5590" data-name="그룹 5590" xmlns="http://www.w3.org/2000/svg" xmlns:xlink="http://www.w3.org/1999/xlink" width="16" height="12" viewBox="0 0 16 12">
  <defs>
    <clipPath id="clip-path">
      <rect id="사각형_17523" data-name="사각형 17523" width="16" height="12" fill="#6768a7"/>
    </clipPath>
  </defs>
  <g id="그룹_5589" data-name="그룹 5589" clip-path="url(#clip-path)">
    <path id="패스_6156" data-name="패스 6156" d="M15,10a1,1,0,0,1-1,1H2a1,1,0,0,1-1-1V4A1,1,0,0,1,2,3H3.172a3,3,0,0,0,2.12-.879l.83-.828A1,1,0,0,1,6.827,1H9.171a1,1,0,0,1,.707.293l.828.828A3,3,0,0,0,12.828,3H14a1,1,0,0,1,1,1ZM2,2A2,2,0,0,0,0,4v6a2,2,0,0,0,2,2H14a2,2,0,0,0,2-2V4a2,2,0,0,0-2-2H12.828a2,2,0,0,1-1.414-.586L10.586.586A2,2,0,0,0,9.172,0H6.828A2,2,0,0,0,5.414.586l-.828.828A2,2,0,0,1,3.172,2Z" fill="#6768a7"/>
    <path id="패스_6157" data-name="패스 6157" d="M8,9a2.5,2.5,0,1,1,2.5-2.5A2.5,2.5,0,0,1,8,9m0,1A3.5,3.5,0,1,0,4.5,6.5,3.5,3.5,0,0,0,8,10M3,4.5A.5.5,0,1,1,2.5,4a.5.5,0,0,1,.5.5" fill="#6768a7"/>
  </g>
</svg>
