<svg xmlns="http://www.w3.org/2000/svg" xmlns:xlink="http://www.w3.org/1999/xlink" width="24" height="20" viewBox="0 0 24 20">
  <defs>
    <clipPath id="clip-path">
      <rect id="사각형_17579" data-name="사각형 17579" width="24" height="20" transform="translate(-0.489 -0.134)" fill="#6768a7"/>
    </clipPath>
  </defs>
  <g id="그룹_5709" data-name="그룹 5709" transform="translate(0.489 0.134)">
    <g id="그룹_5708" data-name="그룹 5708" clip-path="url(#clip-path)">
      <path id="패스_6188" data-name="패스 6188" d="M0,2.467A2.467,2.467,0,0,1,2.467,0H7.012a5.214,5.214,0,0,1,3.8,1.947,3.362,3.362,0,0,0,2.343,1.342h7.4a2.467,2.467,0,0,1,2.467,2.467V17.266a2.467,2.467,0,0,1-2.467,2.467H2.467A2.467,2.467,0,0,1,0,17.266Zm2.467-.822a.822.822,0,0,0-.822.822V6.578H21.377V5.755a.822.822,0,0,0-.822-.822h-7.4a4.956,4.956,0,0,1-3.575-1.9A3.6,3.6,0,0,0,7.012,1.644ZM21.377,8.222H1.644v9.044a.822.822,0,0,0,.822.822H20.555a.822.822,0,0,0,.822-.822Z" fill="#6768a7"/>
    </g>
  </g>
</svg>
