<svg xmlns="http://www.w3.org/2000/svg" width="17.64" height="18.754" viewBox="0 0 17.64 18.754">
  <g id="그룹_5600" data-name="그룹 5600" transform="translate(17.64 -5.395) rotate(90)">
    <path id="패스_4792" data-name="패스 4792" d="M5.868,5.129H1.141A1.141,1.141,0,0,1,0,3.99V1.141A1.142,1.142,0,0,1,1.141,0H5.868a1.142,1.142,0,0,1,1.14,1.141V3.99A1.141,1.141,0,0,1,5.868,5.129Zm-4.6-1.266H5.74v-2.6H1.267Z" transform="translate(19.019 7.007) rotate(-90)" fill="#6768a7"/>
    <path id="패스_4793" data-name="패스 4793" d="M5.868,5.129H1.141A1.141,1.141,0,0,1,0,3.99V1.141A1.142,1.142,0,0,1,1.141,0H5.868a1.142,1.142,0,0,1,1.14,1.141V3.99A1.141,1.141,0,0,1,5.868,5.129Zm-4.6-1.266H5.74v-2.6H1.267Z" transform="translate(5.395 12.184) rotate(-90)" fill="#6768a7"/>
    <path id="패스_4794" data-name="패스 4794" d="M5.868,5.129H1.141A1.143,1.143,0,0,1,0,3.989V1.14A1.142,1.142,0,0,1,1.141,0H5.868A1.142,1.142,0,0,1,7.009,1.14V3.989A1.143,1.143,0,0,1,5.868,5.129Zm-4.6-1.267H5.741V1.267H1.267Z" transform="translate(19.019 17.64) rotate(-90)" fill="#6768a7"/>
    <path id="패스_4795" data-name="패스 4795" d="M5.67,10.91H4.391V1.267H5.67A.634.634,0,0,0,5.67,0H3.757a.634.634,0,0,0-.634.634V5.455H.634a.633.633,0,1,0,0,1.266h2.49v4.822a.634.634,0,0,0,.634.634H5.67a.633.633,0,1,0,0-1.266Z" transform="translate(11.62 2.592)" fill="#6768a7"/>
  </g>
</svg>
