<svg id="구성_요소_10_1" data-name="구성 요소 10 – 1" xmlns="http://www.w3.org/2000/svg" xmlns:xlink="http://www.w3.org/1999/xlink" width="15.728" height="15.707" viewBox="0 0 15.728 15.707">
  <defs>
    <clipPath id="clip-path">
      <rect id="사각형_17484" data-name="사각형 17484" width="15.728" height="15.707" transform="translate(0 0)" fill="#6768a7"/>
    </clipPath>
  </defs>
  <g id="그룹_5574" data-name="그룹 5574" transform="translate(0 0)" clip-path="url(#clip-path)">
    <path id="패스_6150" data-name="패스 6150" d="M15.553.12A.5.5,0,0,1,15.685.7a45.024,45.024,0,0,1-7.1,10.64,6.058,6.058,0,0,1-2.373,1.534,4.161,4.161,0,0,1-.16.868,2.4,2.4,0,0,1-1.708,1.74,8.117,8.117,0,0,1-3.078.132,3.593,3.593,0,0,1-.562-.135,1.394,1.394,0,0,1-.466-.247.71.71,0,0,1-.2-.288.621.621,0,0,1,0-.443A.9.9,0,0,1,.5,14.053a2.1,2.1,0,0,0,.867-.826c.095-.144.184-.3.287-.472l.117-.2c.151-.255.326-.54.546-.848a1.961,1.961,0,0,1,1.746-.9,2.2,2.2,0,0,1,.348.048c.062-.172.142-.38.238-.608A8.757,8.757,0,0,1,5.84,8.184,46.017,46.017,0,0,1,14.957.08a.5.5,0,0,1,.6.04M4.433,11.912a1.218,1.218,0,0,0-.419-.1.965.965,0,0,0-.879.479c-.2.275-.355.532-.5.777l-.105.177c-.106.181-.213.362-.32.528a3.416,3.416,0,0,1-.76.861,7.126,7.126,0,0,0,2.657-.12,1.405,1.405,0,0,0,.993-1.06,3.13,3.13,0,0,0,.126-.75l-.793-.792m1.44.026a4.634,4.634,0,0,0,.458-.183,5.055,5.055,0,0,0,1.535-1.1,44.971,44.971,0,0,0,6.052-8.631,45.38,45.38,0,0,0-7.3,6.792,7.819,7.819,0,0,0-1.042,1.826c-.121.288-.214.54-.275.72h0l.575.575ZM.9,14.978l.007-.005-.007,0Zm3.582-3.043h0Z" fill="#6768a7"/>
  </g>
</svg>
