<svg id="구성_요소_12_1" data-name="구성 요소 12 – 1" xmlns="http://www.w3.org/2000/svg" width="22.475" height="16.856" viewBox="0 0 22.475 16.856">
  <path id="패스_6164" data-name="패스 6164" d="M55.428,8.428a4.214,4.214,0,1,0-4.214-4.214A4.214,4.214,0,0,0,55.428,8.428ZM48.4,16.856a1.4,1.4,0,0,1-1.4-1.4c0-1.4,1.4-5.619,8.428-5.619s8.428,4.214,8.428,5.619a1.4,1.4,0,0,1-1.4,1.4ZM62.452,2.107a.7.7,0,0,1,.7-.7h5.619a.7.7,0,0,1,0,1.4H63.154A.7.7,0,0,1,62.452,2.107Zm.7,3.512a.7.7,0,0,0,0,1.4h5.619a.7.7,0,0,0,0-1.4Zm2.809,4.214a.7.7,0,1,0,0,1.4h2.809a.7.7,0,0,0,0-1.4Zm0,4.214a.7.7,0,1,0,0,1.4h2.809a.7.7,0,0,0,0-1.4Z" transform="translate(-47)" fill="#bfbfda"/>
</svg>
