<svg id="_00_General_01_Icons_02_Common_01_Settings" data-name="00 General / 01 Icons / 02 Common / 01 Settings" xmlns="http://www.w3.org/2000/svg" width="17.521" height="17.521" viewBox="0 0 17.521 17.521">
  <rect id="BG" width="17.521" height="17.521" fill="none"/>
  <path id="color" d="M12.093,12.849a.758.758,0,0,1-.463-.158l-.071-.063L9.106,10.176a5.617,5.617,0,0,1-3.438,1.161,5.668,5.668,0,1,1,5.669-5.668,5.616,5.616,0,0,1-1.161,3.438l2.452,2.452a.756.756,0,0,1-.535,1.29ZM5.669,1.512a4.157,4.157,0,1,0,2.68,7.335c.192-.188.262-.255.3-.286s.033-.031.078-.08l.124-.133A4.156,4.156,0,0,0,5.669,1.512Z" transform="translate(2.336 2.336)"/>
</svg>
