<svg xmlns="http://www.w3.org/2000/svg" xmlns:xlink="http://www.w3.org/1999/xlink" width="16.299" height="17.234" viewBox="0 0 16.299 17.234">
  <defs>
    <clipPath id="clip-path">
      <rect id="사각형_17568" data-name="사각형 17568" width="16.299" height="17.234" transform="translate(0 0)" fill="#6768a7"/>
    </clipPath>
  </defs>
  <g id="그룹_5701" data-name="그룹 5701" transform="translate(0 0)">
    <g id="그룹_5700" data-name="그룹 5700" clip-path="url(#clip-path)">
      <path id="패스_6180" data-name="패스 6180" d="M14.723,1.736H11.56A2.014,2.014,0,0,0,9.572,0H6.728A2.014,2.014,0,0,0,4.74,1.736H1.577a1.577,1.577,0,1,0,0,3.153H1.8l.686,10.368a2.082,2.082,0,0,0,2.08,1.977h7.045a2.08,2.08,0,0,0,2.08-1.97l.685-10.375h.349a1.577,1.577,0,0,0,0-3.153M6.728.992H9.572a1.014,1.014,0,0,1,.968.744H5.76A1.014,1.014,0,0,1,6.728.992M12.7,15.207a1.091,1.091,0,0,1-1.09,1.035H4.564A1.093,1.093,0,0,1,3.474,15.2L2.792,4.889H13.38ZM14.723,3.9H1.577a.585.585,0,1,1,0-1.169H14.723a.585.585,0,1,1,0,1.169" fill="#6768a7"/>
      <line id="선_63" data-name="선 63" x2="0.579" y2="7.72" transform="translate(4.937 6.879)" fill="#969696"/>
      <path id="패스_6181" data-name="패스 6181" d="M5.515,15.1a.5.5,0,0,1-.494-.459L4.443,6.917A.5.5,0,0,1,4.9,6.385a.489.489,0,0,1,.531.457l.579,7.72a.5.5,0,0,1-.457.531.248.248,0,0,1-.038,0" fill="#6768a7"/>
      <line id="선_64" data-name="선 64" y2="7.72" transform="translate(8.111 6.879)" fill="#969696"/>
      <path id="패스_6182" data-name="패스 6182" d="M8.111,15.1a.5.5,0,0,1-.5-.5V6.879a.5.5,0,0,1,.992,0V14.6a.5.5,0,0,1-.5.5" fill="#6768a7"/>
      <line id="선_65" data-name="선 65" x1="0.479" y2="7.637" transform="translate(10.756 6.879)" fill="#969696"/>
      <path id="패스_6183" data-name="패스 6183" d="M10.756,15.012h-.031a.5.5,0,0,1-.464-.526l.48-7.637a.5.5,0,1,1,.989.062l-.48,7.637a.5.5,0,0,1-.494.465" fill="#6768a7"/>
    </g>
  </g>
</svg>
