<svg xmlns="http://www.w3.org/2000/svg" xmlns:xlink="http://www.w3.org/1999/xlink" width="16.272" height="11.677" viewBox="0 0 16.272 11.677">
  <defs>
    <clipPath id="clip-path">
      <rect id="사각형_17569" data-name="사각형 17569" width="16.272" height="11.677" fill="#6768a7"/>
    </clipPath>
  </defs>
  <g id="그룹_5703" data-name="그룹 5703" transform="translate(0 0)">
    <g id="그룹_5702" data-name="그룹 5702" transform="translate(0 0)" clip-path="url(#clip-path)">
      <path id="패스_6184" data-name="패스 6184" d="M15.873,3.7H.4A.4.4,0,0,1,0,3.3V.4A.4.4,0,0,1,.4,0H15.873a.4.4,0,0,1,.4.4V3.3a.4.4,0,0,1-.4.4M.8,2.9H15.474V.8H.8Z" transform="translate(0 0)" fill="#6768a7"/>
      <path id="패스_6185" data-name="패스 6185" d="M19.217,20.967H6.786a.4.4,0,0,1-.4-.4V12.594a.4.4,0,0,1,.4-.4H19.217a.4.4,0,0,1,.4.4v7.974a.4.4,0,0,1-.4.4m-12.032-.8H18.818V12.993H7.185Z" transform="translate(-4.866 -9.29)" fill="#6768a7"/>
      <path id="패스_6186" data-name="패스 6186" d="M27.9,15.507H23.364a.4.4,0,0,1-.4-.4V12.594a.4.4,0,0,1,.4-.4H27.9a.4.4,0,0,1,.4.4v2.514a.4.4,0,0,1-.4.4m-4.136-.8H27.5V12.992H23.762Z" transform="translate(-17.495 -9.29)" fill="#6768a7"/>
    </g>
  </g>
</svg>
