<svg id="구성_요소_11_1" data-name="구성 요소 11 – 1" xmlns="http://www.w3.org/2000/svg" xmlns:xlink="http://www.w3.org/1999/xlink" width="22" height="15" viewBox="0 0 22 15">
  <defs>
    <clipPath id="clip-path">
      <rect id="사각형_17513" data-name="사각형 17513" width="22" height="15" transform="translate(-0.172 -0.056)" fill="#6768a7"/>
    </clipPath>
  </defs>
  <g id="그룹_5580" data-name="그룹 5580" transform="translate(0.172 0.056)" clip-path="url(#clip-path)">
    <path id="패스_6151" data-name="패스 6151" d="M8.4,3.2a.676.676,0,0,1,.957,0h0L12.07,5.905a.678.678,0,1,1-.958.958L9.561,5.311v5.134a.677.677,0,1,1-1.354,0V5.311L6.656,6.863A.678.678,0,1,1,5.7,5.905Z" transform="translate(1.944 1.06)" fill="#6768a7"/>
    <path id="패스_6152" data-name="패스 6152" d="M5.964,1.816A7.481,7.481,0,0,1,10.828,0,6.952,6.952,0,0,1,17.82,6.2a4.407,4.407,0,0,1,3.836,4.323,4.428,4.428,0,0,1-4.484,4.368H5.118A5.052,5.052,0,0,1,0,9.905,5.018,5.018,0,0,1,3.982,5.042,5.692,5.692,0,0,1,5.964,1.816m.884,1.025A4.008,4.008,0,0,0,5.287,5.624V6.23l-.6.066A3.681,3.681,0,0,0,1.354,9.905a3.7,3.7,0,0,0,3.764,3.63H17.172A3.074,3.074,0,0,0,20.3,10.521a3.074,3.074,0,0,0-3.131-3.016H16.5V6.828a5.571,5.571,0,0,0-5.667-5.475A6.127,6.127,0,0,0,6.847,2.842Z" fill="#6768a7"/>
  </g>
</svg>
