<svg width="28" height="36" viewBox="0 0 28 36" fill="none" xmlns="http://www.w3.org/2000/svg">
<g clip-path="url(#clip0_2019_2115)">
<path d="M0.588379 1.76056V34.2392C0.588379 34.8955 1.1368 35.4282 1.81232 35.4282H26.1876C26.8631 35.4282 27.4115 34.8955 27.4115 34.2392V7.14029C27.4115 6.59982 27.1928 6.08236 26.8051 5.70576L22.1022 1.13701C21.7289 0.774382 21.229 0.571533 20.7086 0.571533H1.81232C1.1368 0.571533 0.588379 1.10431 0.588379 1.76056Z" fill="white" stroke="#6768A8" stroke-width="2.5" stroke-miterlimit="10" stroke-linejoin="round"/>
<path d="M26.5 7L20.9932 1.83911L21 7C21 7.14856 21.1209 7.26952 21.2694 7.26952L26.5 7Z" fill="#929597"/>
<path d="M22.916 19.9985H5.4866C5.13952 19.9985 4.85815 20.2719 4.85815 20.6091V21.7043C4.85815 22.0415 5.13952 22.3148 5.4866 22.3148H22.916C23.2631 22.3148 23.5444 22.0415 23.5444 21.7043V20.6091C23.5444 20.2719 23.2631 19.9985 22.916 19.9985Z" fill="#929597"/>
<path d="M22.916 14.241H5.4866C5.13952 14.241 4.85815 14.5143 4.85815 14.8515V15.9468C4.85815 16.2839 5.13952 16.5573 5.4866 16.5573H22.916C23.2631 16.5573 23.5444 16.2839 23.5444 15.9468V14.8515C23.5444 14.5143 23.2631 14.241 22.916 14.241Z" fill="#929597"/>
<path d="M22.916 25.7561H5.4866C5.13952 25.7561 4.85815 26.0294 4.85815 26.3666V27.4619C4.85815 27.7991 5.13952 28.0724 5.4866 28.0724H22.916C23.2631 28.0724 23.5444 27.7991 23.5444 27.4619V26.3666C23.5444 26.0294 23.2631 25.7561 22.916 25.7561Z" fill="#929597"/>
<path d="M15.3158 8.48096H5.4866C5.13952 8.48096 4.85815 8.75429 4.85815 9.09147V10.1867C4.85815 10.5239 5.13952 10.7973 5.4866 10.7973H15.3158C15.6629 10.7973 15.9442 10.5239 15.9442 10.1867V9.09147C15.9442 8.75429 15.6629 8.48096 15.3158 8.48096Z" fill="#929597"/>
</g>
<defs>
<clipPath id="clip0_2019_2115">
<rect width="28" height="36" rx="2" fill="white"/>
</clipPath>
</defs>
</svg>
