<svg width="10" height="12" viewBox="0 0 10 12" fill="none" xmlns="http://www.w3.org/2000/svg">
<path d="M9.99745 4.94989C9.99867 3.88448 9.99867 2.81907 9.99908 1.75366C9.99908 1.59403 9.90244 1.47411 9.74478 1.44177C9.55108 1.40207 9.35656 1.364 9.16286 1.32471C8.38437 1.16713 7.6194 0.957977 6.86672 0.705438C6.28111 0.508973 5.70739 0.281811 5.14226 0.032546C5.04643 -0.00961207 4.95183 -0.0120679 4.85519 0.032546C4.76714 0.0730668 4.67746 0.109904 4.5886 0.148378C3.61969 0.564638 2.62334 0.901902 1.59874 1.15199C1.15319 1.26086 0.701496 1.34599 0.253079 1.44218C0.09255 1.47656 0 1.5928 0 1.75489C0 2.51742 0 3.27953 0 4.04206C0 4.69326 0 5.34487 0 5.99607C0 6.32556 0.0245708 6.653 0.0798551 6.97757C0.301402 8.27711 0.873492 9.399 1.80513 10.3322C2.60409 11.1324 3.55785 11.6649 4.65371 11.944C4.84331 11.9923 5.02759 12.0247 5.2303 11.9756C6.06899 11.7717 6.83764 11.4226 7.52972 10.9077C8.01254 10.5483 8.4331 10.1251 8.7902 9.64008C9.53797 8.6246 9.94216 7.48674 9.99048 6.22691C10.0069 5.80165 9.99704 5.37557 9.99745 4.94989ZM4.28351 7.92511L2.15445 5.79715L2.84939 5.10256L4.2831 6.53553L7.1501 3.67001L7.84504 4.36459L4.28351 7.92511Z" fill="#8B8AD1"/>
</svg>
