<?xml version="1.0" encoding="utf-8"?>
<!-- Generator: Adobe Illustrator 24.1.1, SVG Export Plug-In . SVG Version: 6.00 Build 0)  -->
<svg version="1.1" id="레이어_1" xmlns="http://www.w3.org/2000/svg" xmlns:xlink="http://www.w3.org/1999/xlink" x="0px"
	 y="0px" viewBox="0 0 10 12" style="enable-background:new 0 0 10 12;" xml:space="preserve">
<style type="text/css">
	.st0{fill:#FFFFFF;}
</style>
<path class="st0" d="M10,4.9c0-1.1,0-2.1,0-3.2c0-0.2-0.1-0.3-0.3-0.3c-0.2,0-0.4-0.1-0.6-0.1C8.4,1.2,7.6,1,6.9,0.7
	C6.3,0.5,5.7,0.3,5.1,0C5,0,5,0,4.9,0c-0.1,0-0.2,0.1-0.3,0.1c-1,0.4-2,0.8-3,1C1.2,1.3,0.7,1.3,0.3,1.4C0.1,1.5,0,1.6,0,1.8
	C0,2.5,0,3.3,0,4c0,0.7,0,1.3,0,2c0,0.3,0,0.7,0.1,1c0.2,1.3,0.8,2.4,1.7,3.4c0.8,0.8,1.8,1.3,2.8,1.6C4.8,12,5,12,5.2,12
	c0.8-0.2,1.6-0.6,2.3-1.1c0.5-0.4,0.9-0.8,1.3-1.3c0.7-1,1.2-2.2,1.2-3.4C10,5.8,10,5.4,10,4.9z M4.3,7.9L2.2,5.8l0.7-0.7l1.4,1.4
	l2.9-2.9l0.7,0.7L4.3,7.9z"/>
</svg>
