<?xml version="1.0" ?><svg id="UBMainFeed" style="enable-background:new 0 0 120 120;" version="1.1" viewBox="0 0 120 120" xml:space="preserve" xmlns="http://www.w3.org/2000/svg" xmlns:xlink="http://www.w3.org/1999/xlink">
    <script>
        <!-- const svgs = documnet.getElementById('UBMainFeed')
        svgs.on("mouseover", function (d) {});
        svgs.on("mouseout", function (d) {}); -->
    </script>
    <style type="text/css">
	.st0{fill:#FCFCFC;}
    #hover:target ~ .st0 {
        fill:green;
      }
	.st1{fill:#D3F2FF;}
    .st1:hover {
        fill: red;
    }
	.st2{fill:#86E288;}
    .st2:hover {
        fill: red;
    }
	.st3{fill:#E85B6C;}
    .st3:hover {
        fill: red;
    }
	.st4{fill:#FCECA9;}
    .st4:hover {
        fill: red;
    }
</style><g><path class="st0" d="M94.7,107.7H25.3c-2,0-3.7-1.6-3.7-3.7V16c0-2,1.6-3.7,3.7-3.7h69.4c2,0,3.7,1.6,3.7,3.7v88   C98.4,106,96.7,107.7,94.7,107.7z"/><path class="st1" d="M88.6,82.3H31.4c-2,0-3.7-1.7-3.7-3.7V22.6c0-2,1.7-3.7,3.7-3.7h57.2c2,0,3.7,1.7,3.7,3.7v56.1   C92.3,80.7,90.7,82.3,88.6,82.3z"/><path class="st2" d="M92.3,78.6v-13L74.4,37.9c-1.7-2.6-5.9-2.6-7.5,0L54.7,56.8L47.8,46c-1.7-2.6-5.9-2.6-7.5,0L27.7,65.5v13.1   c0,1.8,1.3,3.3,2.9,3.6h14.3c0.3,0,0.5,0.1,0.8,0.1h42.9C90.7,82.3,92.3,80.7,92.3,78.6z"/><path class="st3" d="M47.8,89.7L47.8,89.7c-1.3-1.5-3.6-1.8-5.3-0.8L41,89.8c-0.2,0.2-0.6,0.2-0.8,0l-1.4-0.9c-1.7-1-4-0.7-5.3,0.8   l0,0c-1.4,1.6-1.4,3.9-0.1,5.5l5.9,6.9c0.7,0.8,2,0.8,2.7,0l5.9-6.9C49.2,93.6,49.2,91.3,47.8,89.7z"/><g><path class="st1" d="M54.7,93.9h31.5c0.8,0,1.4-0.7,1.4-1.5s-0.6-1.5-1.4-1.5H54.7c-0.8,0-1.4,0.7-1.4,1.5S53.9,93.9,54.7,93.9z"/><path class="st1" d="M86.2,97.2H54.7c-0.8,0-1.4,0.7-1.4,1.5s0.6,1.5,1.4,1.5h31.5c0.8,0,1.4-0.7,1.4-1.5S87,97.2,86.2,97.2z"/></g><circle class="st4" cx="53.2" cy="32.9" r="7.4"/></g></svg>