<svg width="21" height="21" viewBox="0 0 21 21" fill="none" xmlns="http://www.w3.org/2000/svg">
<mask id="path-1-inside-1_1891_13085" fill="white">
<path fill-rule="evenodd" clip-rule="evenodd" d="M3 0.5C1.34315 0.5 0 1.84315 0 3.5V13.5C0 15.1569 1.34315 16.5 3 16.5H10.1268C10.3434 16.5 10.554 16.5703 10.7272 16.7003L15.4608 20.2539C16.1032 20.736 16.9606 20.2784 16.9592 19.4541L16.956 17.5016C16.9551 16.9487 17.4031 16.5 17.956 16.5H18C19.6569 16.5 21 15.1569 21 13.5V3.5C21 1.84315 19.6569 0.5 18 0.5H3Z"/>
</mask>
<path d="M15.4608 20.2539L16.3614 19.0543H16.3614L15.4608 20.2539ZM16.9592 19.4541L15.4592 19.4566V19.4566L16.9592 19.4541ZM16.956 17.5016L18.456 17.4992L16.956 17.5016ZM10.7272 16.7003L9.82666 17.8999L10.7272 16.7003ZM1.5 3.5C1.5 2.67157 2.17157 2 3 2V-1C0.514719 -1 -1.5 1.01472 -1.5 3.5H1.5ZM1.5 13.5V3.5H-1.5V13.5H1.5ZM3 15C2.17157 15 1.5 14.3284 1.5 13.5H-1.5C-1.5 15.9853 0.514718 18 3 18V15ZM10.1268 15H3V18H10.1268V15ZM16.3614 19.0543L11.6277 15.5007L9.82666 17.8999L14.5603 21.4534L16.3614 19.0543ZM15.4592 19.4566C15.459 19.318 15.5468 19.1265 15.7451 19.0206C15.9511 18.9106 16.2042 18.9363 16.3614 19.0543L14.5603 21.4534C16.285 22.7482 18.4624 21.396 18.4592 19.4516L15.4592 19.4566ZM15.456 17.5041L15.4592 19.4566L18.4592 19.4516L18.456 17.4992L15.456 17.5041ZM18 15H17.956V18H18V15ZM19.5 13.5C19.5 14.3284 18.8284 15 18 15V18C20.4853 18 22.5 15.9853 22.5 13.5H19.5ZM19.5 3.5V13.5H22.5V3.5H19.5ZM18 2C18.8284 2 19.5 2.67157 19.5 3.5H22.5C22.5 1.01472 20.4853 -1 18 -1V2ZM3 2H18V-1H3V2ZM18.456 17.4992C18.4565 17.7756 18.2325 18 17.956 18V15C16.5737 15 15.4537 16.1218 15.456 17.5041L18.456 17.4992ZM10.1268 18C10.0186 18 9.91324 17.9649 9.82666 17.8999L11.6277 15.5007C11.1948 15.1757 10.6681 15 10.1268 15V18Z" fill="#2AA4FF" mask="url(#path-1-inside-1_1891_13085)"/>
</svg>
