<svg width="22" height="20" viewBox="0 0 22 20" fill="none" xmlns="http://www.w3.org/2000/svg">
<mask id="path-1-inside-1_1891_13076" fill="white">
<path fill-rule="evenodd" clip-rule="evenodd" d="M11.0412 2.2832C8.74149 -0.061913 4.97608 -0.0987236 2.63092 2.201C0.285767 4.50072 0.248911 8.26612 2.54859 10.6113L2.54865 10.6114L2.55089 10.6137L10.8767 19.104L19.368 10.7772C19.3684 10.7768 19.3688 10.7763 19.3693 10.7759C19.3693 10.7759 19.3693 10.7759 19.3693 10.7758C21.7145 8.4761 21.7513 4.7107 19.4515 2.36554C17.1518 0.0203812 13.3864 -0.0164753 11.0412 2.2832Z"/>
</mask>
<path d="M2.63092 2.201L3.68116 3.27198V3.27198L2.63092 2.201ZM11.0412 2.2832L9.97027 3.33345L11.0205 4.40439L12.0915 3.3542L11.0412 2.2832ZM2.54859 10.6113L3.6288 9.57048L3.61959 9.56109L2.54859 10.6113ZM2.54865 10.6114L1.46844 11.6522L1.4779 11.6618L2.54865 10.6114ZM2.55089 10.6137L3.62187 9.56342L3.62164 9.56318L2.55089 10.6137ZM10.8767 19.104L9.80571 20.1542L10.8559 21.2252L11.9269 20.1749L10.8767 19.104ZM19.368 10.7772L18.318 9.70591L18.3177 9.7062L19.368 10.7772ZM19.3693 10.7759L20.4192 11.8472L20.4246 11.8419L20.4299 11.8366L19.3693 10.7759ZM19.3693 10.7758L18.3191 9.70488L18.3139 9.71001L18.3087 9.71519L19.3693 10.7758ZM19.4515 2.36554L18.3806 3.41577L18.3806 3.41577L19.4515 2.36554ZM3.68116 3.27198C5.43483 1.55228 8.25055 1.57981 9.97027 3.33345L12.1122 1.23295C9.23242 -1.70364 4.51733 -1.74973 1.58069 1.13001L3.68116 3.27198ZM3.61959 9.56109C1.89992 7.80739 1.92748 4.99168 3.68116 3.27198L1.58069 1.13001C-1.35595 4.00976 -1.4021 8.72485 1.47759 11.6615L3.61959 9.56109ZM3.62882 9.57059L3.62875 9.57052L1.46842 11.6521L1.46848 11.6522L3.62882 9.57059ZM3.62164 9.56318L3.61941 9.56091L1.4779 11.6618L1.48013 11.6641L3.62164 9.56318ZM11.9477 18.0537L3.62187 9.56342L1.4799 11.6639L9.80571 20.1542L11.9477 18.0537ZM18.3177 9.7062L9.82646 18.033L11.9269 20.1749L20.4182 11.8482L18.3177 9.7062ZM18.3193 9.70464C18.3188 9.70519 18.3183 9.70568 18.3181 9.70585C18.3178 9.7061 18.3179 9.70603 18.318 9.70591L20.4179 11.8485C20.4185 11.8479 20.419 11.8474 20.4191 11.8472C20.4194 11.847 20.4193 11.8471 20.4192 11.8472L18.3193 9.70464ZM18.3087 9.71519C18.3123 9.71158 18.3152 9.70867 18.317 9.70689C18.3187 9.70526 18.3201 9.70388 18.3199 9.70411L18.3199 9.70412C18.3199 9.70412 18.3199 9.70412 18.3199 9.70412C18.3199 9.70412 18.3199 9.70412 18.3199 9.70413C18.3198 9.70413 18.3198 9.70415 18.3198 9.70416C18.3198 9.70419 18.3197 9.70424 18.3197 9.70429C18.3196 9.70441 18.3194 9.70459 18.3191 9.70482C18.3187 9.70527 18.3179 9.70601 18.317 9.70692C18.3152 9.70871 18.3122 9.71163 18.3086 9.71525L20.4299 11.8366C20.4263 11.8402 20.4234 11.8431 20.4216 11.8449C20.4199 11.8465 20.4185 11.8479 20.4187 11.8476C20.4187 11.8476 20.4187 11.8476 20.4187 11.8476C20.4187 11.8476 20.4187 11.8476 20.4187 11.8476C20.4187 11.8476 20.4188 11.8476 20.4188 11.8476C20.4188 11.8476 20.4188 11.8476 20.4188 11.8476C20.4188 11.8476 20.4189 11.8475 20.4189 11.8475C20.419 11.8474 20.4192 11.8472 20.4195 11.8469C20.4199 11.8465 20.4207 11.8458 20.4216 11.8448C20.4234 11.843 20.4264 11.8401 20.43 11.8365L18.3087 9.71519ZM18.3806 3.41577C20.1003 5.16945 20.0727 7.98516 18.3191 9.70488L20.4196 11.8468C23.3562 8.96704 23.4023 4.25194 20.5225 1.3153L18.3806 3.41577ZM12.0915 3.3542C13.8451 1.63454 16.6609 1.6621 18.3806 3.41577L20.5225 1.3153C17.6428 -1.62134 12.9277 -1.66749 9.99102 1.2122L12.0915 3.3542Z" fill="#FF4453" mask="url(#path-1-inside-1_1891_13076)"/>
</svg>
