<?xml version="1.0" ?><svg style="enable-background:new 0 0 48 48;" version="1.1" viewBox="0 0 48 48" xml:space="preserve" xmlns="http://www.w3.org/2000/svg" xmlns:xlink="http://www.w3.org/1999/xlink"><g id="Icons"><path d="M35.47148,10.90124c-2.09998-2.09998-5.51001-2.10999-7.60999-0.01001l-6.66003,6.66004   c-0.87,0.87-1.37,1.96997-1.51996,3.10999c-0.08002,0.57001-0.07001,1.16003,0.04999,1.72003   c0.02997,0.14996,0.07001,0.29999,0.10999,0.44995c0.10999,0.39001,0.27002,0.77002,0.47003,1.13l-0.01001,0.01001   c0.07001,0.13,0.14996,0.25,0.22998,0.37c0.19,0.29004,0.41998,0.56,0.67999,0.82001   c1.07001,1.08002,2.48999,1.59998,3.92004,1.54999l-0.45001-1.57001c-0.81-0.08997-1.70001-0.45996-2.32001-1.06   c-0.01001-0.00995-0.03003-0.02997-0.03998-0.03998c-0.14001-0.14001-0.26001-0.28003-0.37006-0.42999   c-0.12-0.16003-0.21997-0.33002-0.31-0.5c-0.16998-0.33002-0.28998-0.66998-0.34998-1.02002   c-0.03003-0.16998-0.04999-0.33997-0.06-0.51001c-0.03998-0.56,0.03998-1.13,0.26001-1.64996   c0.17999-0.46002,0.45996-0.89001,0.82001-1.26001l6.66998-6.66004c1.47998-1.47998,3.89002-1.47998,5.37,0   c1.47998,1.48004,1.47998,3.89001,0,5.37006l-5.65003,5.65997l0.01996,0.03717c-0.00928-0.01276-0.0155-0.02661-0.0249-0.03937   l0.78247,1.45319c-0.00427-0.01172-0.01093-0.02234-0.01532-0.03406l0.01782,0.03308l5.98999-5.98999   C37.57152,16.40124,37.56151,12.99127,35.47148,10.90124z" style="fill:#FFF;"/><path d="M27.69151,24.04126c-0.22003-0.42999-0.53003-0.84003-0.90002-1.20001   c-1.07001-1.07001-2.5-1.60999-3.90997-1.56l0.52997,1.59003c0.82001,0.08997,1.63,0.45001,2.27002,1.08997   c0.27997,0.28003,0.5,0.59003,0.67999,0.94c0.25,0.47003,0.39001,0.98999,0.40997,1.53003   c0.03003,0.56-0.04999,1.14996-0.27997,1.66998c-0.17999,0.45001-0.45001,0.85999-0.81,1.22003l-6.67004,6.66998   c-1.47998,1.47998-3.87994,1.47998-5.35998,0c-1.47998-1.48004-1.47998-3.89001,0-5.36999l5.66003-5.66003   c-0.34003-0.45001-0.60004-0.95001-0.78003-1.45996l-6,6c-2.09998,2.09998-2.09998,5.50995,0,7.60998   c2.10004,2.08997,5.5,2.08997,7.60004,0l6.65997-6.66998c0.85999-0.86005,1.37-1.93005,1.52002-3.06   c0.07996-0.58002,0.07001-1.17004-0.04004-1.75C28.16148,25.08124,27.98149,24.54126,27.69151,24.04126z" style="fill:#fff;"/><g><path d="    M23.4083,22.87573c-0.60764-0.70728-0.52452-1.55636-0.52452-1.59075" style="fill:none;stroke:#FFF;stroke-width:0.7;stroke-linecap:round;stroke-linejoin:round;stroke-miterlimit:10;"/></g><path d="   M22.88379,21.28498c1.41018-0.05159,2.83755,0.48152,3.91239,1.55636c0.36115,0.36114,0.6707,0.77388,0.89426,1.20381   c0.29235,0.49872,0.47293,1.04044,0.57611,1.59075c0.11178,0.57611,0.12898,1.16082,0.04299,1.74553   c-0.14618,1.12642-0.6535,2.20126-1.51336,3.06112l-6.66396,6.66396c-2.09807,2.09807-5.50314,2.09807-7.60121,0   s-2.09807-5.50314,0-7.60121l6.00186-6.00186c0.18057,0.50732,0.43853,1.00604,0.77388,1.46177l-5.65791,5.65791   c-1.47897,1.47897-1.47897,3.88659,0,5.36556c1.47897,1.47897,3.88659,1.47897,5.36556,0l6.66396-6.66396   c0.36114-0.36115,0.6363-0.77388,0.80827-1.22101c0.23216-0.52452,0.31815-1.10923,0.28376-1.67674   c-0.0172-0.53312-0.16337-1.05763-0.41273-1.53056c-0.17197-0.34395-0.39554-0.6535-0.67929-0.93725   c-0.6363-0.6363-1.44457-0.99744-2.27004-1.08343" style="fill:none;stroke:#FFF;stroke-width:0.7;stroke-linecap:round;stroke-linejoin:round;stroke-miterlimit:10;"/><path d="   M25.12803,26.71073c-1.42738,0.05159-2.84615-0.47293-3.92099-1.54776c-1.04741-1.10633-1.36719-2.22705-1.47897-2.78596   c-0.11178-0.55891-0.12898-1.14362-0.05159-1.71973c0.15478-1.13502,0.6535-2.23565,1.52196-3.10411l6.66396-6.66396   c2.09807-2.09807,5.51174-2.08947,7.60981,0.0086c2.08947,2.08947,2.09807,5.50314,0,7.60121l-5.99326,5.99326   c-0.18917-0.51592-0.44713-0.99744-0.78248-1.45317l5.65791-5.65792c1.47897-1.47897,1.47897-3.88659,0-5.36556   c-1.48756-1.48757-3.89519-1.48757-5.37416-0.0086l-6.66396,6.66396c-0.36974,0.36974-0.6449,0.79967-0.82547,1.2554   c-0.21497,0.52452-0.30095,1.09203-0.25796,1.65094c0.0172,0.53312,0.16337,1.05763,0.41273,1.53056   c0.17197,0.34395,0.39554,0.6535,0.67929,0.93725c0.0086,0.0086,0.0258,0.02579,0.0344,0.03439   c0.6191,0.60191,1.51005,0.97543,2.31832,1.06141C25.16409,25.70766,25.12803,26.71073,25.12803,26.71073z" style="fill:none;stroke:#FFF;stroke-width:0.7;stroke-linecap:round;stroke-linejoin:round;stroke-miterlimit:10;"/></g></svg>