<svg width="18" height="18" fill="#a9aacd" xmlns="http://www.w3.org/2000/svg"><path d="M17.237 1.42c.77.77.77 2.016 0 2.785l-1.055 1.058-3.445-3.445L13.795.762a1.969 1.969 0 0 1 2.785 0l.657.658ZM6.061 8.497l5.882-5.883 3.445 3.444-5.885 5.881a1.95 1.95 0 0 1-.77.478l-3.122 1.04c-.334.1-.636.022-.865-.235-.225-.197-.302-.53-.204-.833l1.04-3.122a1.95 1.95 0 0 1 .479-.77Zm.689-6.279c.622 0 1.125.536 1.125 1.125 0 .654-.503 1.125-1.125 1.125H3.375c-.621 0-1.125.535-1.125 1.125v9.032c0 .622.504 1.125 1.125 1.125h9c.622 0 1.125-.503 1.125-1.125v-3.407c0-.59.503-1.125 1.125-1.125s1.125.535 1.125 1.125v3.407A3.376 3.376 0 0 1 12.375 18h-9A3.375 3.375 0 0 1 0 14.625V5.593a3.375 3.375 0 0 1 3.375-3.375H6.75Z" fill="#000"/></svg>