<svg width="13" height="15" viewBox="0 0 13 15" fill="none" xmlns="http://www.w3.org/2000/svg">
<path fill-rule="evenodd" clip-rule="evenodd" d="M1.73716 0.824281C1.36397 0.417162 0.7314 0.389659 0.324281 0.762852C-0.0828377 1.13604 -0.110341 1.76861 0.262852 2.17573L5.14344 7.50001L0.262852 12.8243C-0.110341 13.2314 -0.0828377 13.864 0.324281 14.2372C0.7314 14.6104 1.36397 14.5828 1.73716 14.1757L6.50001 8.9799L11.2629 14.1757C11.636 14.5828 12.2686 14.6104 12.6757 14.2372C13.0828 13.864 13.1104 13.2314 12.7372 12.8243L7.85657 7.50001L12.7372 2.17573C13.1104 1.76861 13.0828 1.13604 12.6757 0.762852C12.2686 0.389659 11.636 0.417162 11.2629 0.824281L6.50001 6.02011L1.73716 0.824281Z" fill="#C7C7E3"/>
</svg>
