<svg width="15" height="16" viewBox="0 0 15 16" fill="none" xmlns="http://www.w3.org/2000/svg">
<path d="M14.841 14.5308L11.3354 10.7577C12.1772 9.68462 12.6846 8.32308 12.6846 6.84615C12.6846 3.35 9.83633 0.5 6.3423 0.5C2.84827 0.5 0 3.35 0 6.84615C0 10.3423 2.84827 13.1923 6.3423 13.1923C7.95671 13.1923 9.4212 12.5808 10.5398 11.5885L13.9992 15.3154C14.1145 15.4423 14.2644 15.5 14.4259 15.5C14.5642 15.5 14.7026 15.4538 14.8179 15.35C15.0486 15.1308 15.0601 14.7731 14.8525 14.5308H14.841ZM1.15315 6.84615C1.15315 3.98462 3.4825 1.65385 6.3423 1.65385C9.2021 1.65385 11.5315 3.98462 11.5315 6.84615C11.5315 9.70769 9.2021 12.0385 6.3423 12.0385C3.4825 12.0385 1.15315 9.70769 1.15315 6.84615Z" fill="#BDBDBD"/>
</svg>
