<svg xmlns="http://www.w3.org/2000/svg" width="584.25" height="511.97" style="enable-background:new 0 0 584.25 511.97" xml:space="preserve"><style>.st0{fill:rgb(74 102 158)}</style><circle class="st0" cx="224" cy="128" r="128"/><path class="st0" d="M333 471.93V350.21c0-12.16 5.37-23.07 13.86-30.51-21.97-10.08-46.41-15.7-72.16-15.7H173.3C77.61 304 0 381.6 0 477.3c0 19.14 15.52 34.67 34.66 34.67h332.39c-19.31-3.13-34.05-19.88-34.05-40.04z"/><path class="st0" d="M469.63 267.25c-22.62 0-40.94 18.33-40.94 40.94v24.56H551.5c18.06 0 32.75 14.69 32.75 32.75v98.25c0 18.06-14.69 32.75-32.75 32.75H387.75c-18.09 0-32.75-14.69-32.75-32.75V365.5c0-18.06 14.66-32.75 32.75-32.75h8.19v-24.56c0-40.7 33.01-73.69 73.69-73.69 29.42 0 54.75 17.24 66.57 42.1 3.89 8.17.41 17.93-8.19 21.81-8.19 3.89-17.5.41-21.39-7.78-6.6-13.85-20.67-23.38-36.99-23.38zM486 431c9.06 0 16.38-7.32 16.38-16.38s-7.32-16.38-16.38-16.38h-32.75c-9.06 0-16.38 7.32-16.38 16.38S444.19 431 453.25 431H486z"/></svg>