<svg width="17" height="18" viewBox="0 0 17 18" fill="none" xmlns="http://www.w3.org/2000/svg">
<path fill-rule="evenodd" clip-rule="evenodd" d="M13.4458 0.372266C13.7941 0.281077 14.7009 0.152878 15.5164 0.938468C16.3318 1.72406 16.2997 2.6948 16.248 3.07175C16.2152 3.31101 16.1062 3.49826 15.9945 3.62906L10.0623 10.5721C9.94299 10.7118 9.79379 10.819 9.62732 10.8846L7.82588 11.5945C7.01118 11.9156 6.18255 11.1604 6.3579 10.2567L6.76105 8.17899C6.80104 7.97287 6.89241 7.78188 7.02561 7.62598L12.9481 0.694264C13.0598 0.563461 13.2248 0.430145 13.4458 0.372266ZM13.8134 1.62369L7.95845 8.47641L7.60683 10.2886L9.17227 9.67164L15.0394 2.80472C15.0529 2.59683 15.0212 2.22507 14.6898 1.90584C14.3585 1.58662 14.007 1.58923 13.8134 1.62369Z" fill="#6768A7" stroke-linejoin="round"/>
<path fill-rule="evenodd" clip-rule="evenodd" d="M2.74194 8.30163C2.74194 7.93946 3.01596 7.64587 3.35398 7.64587H7.16177C7.49979 7.64587 7.77381 7.93946 7.77381 8.30163C7.77381 8.66379 7.49979 8.95738 7.16177 8.95738H3.35398C3.01596 8.95738 2.74194 8.66379 2.74194 8.30163Z" fill="#6768A7" stroke-linecap="round" stroke-linejoin="round"/>
<path fill-rule="evenodd" clip-rule="evenodd" d="M2.74194 12.911C2.74194 12.5488 3.01596 12.2552 3.35398 12.2552H10.9696C11.3076 12.2552 11.5816 12.5488 11.5816 12.911C11.5816 13.2732 11.3076 13.5668 10.9696 13.5668H3.35398C3.01596 13.5668 2.74194 13.2732 2.74194 12.911Z" fill="#6768A7" stroke-width="0.25" stroke-linecap="round" stroke-linejoin="round"/>
<path fill-rule="evenodd" clip-rule="evenodd" d="M0.521973 5.04554C0.521973 4.12626 1.21751 3.38104 2.0755 3.38104H7.8432C8.1732 3.38104 8.44071 3.66767 8.44071 4.02123C8.44071 4.3748 8.1732 4.66142 7.8432 4.66142H2.0755C1.8775 4.66142 1.717 4.8334 1.717 5.04554V15.6285C1.717 15.8406 1.8775 16.0126 2.0755 16.0126H12.0593C12.2573 16.0126 12.4178 15.8406 12.4178 15.6285V9.33016C12.4178 8.97659 12.6853 8.68997 13.0153 8.68997C13.3453 8.68997 13.6128 8.97659 13.6128 9.33016V15.6285C13.6128 16.5478 12.9173 17.293 12.0593 17.293H2.0755C1.21751 17.293 0.521973 16.5478 0.521973 15.6285V5.04554Z" fill="#6768A7" stroke-linecap="round"/>
</svg>
