<svg xmlns="http://www.w3.org/2000/svg" width="876.18" height="824.39" style="enable-background:new 0 0 876.18 824.39" xml:space="preserve"><path d="M777.66 302.52 442.15 133.3 545.7 6.6c5.39-6.59 14.69-8.46 22.2-4.45L866.74 161.6c9.96 5.31 12.54 18.43 5.33 27.11l-94.41 113.81zM337.17 6.82l99.28 126.48-332.53 169.22L4.29 186.07c-7.49-8.75-4.84-22.2 5.41-27.45L315 1.97c7.6-3.9 16.89-1.87 22.17 4.85zm93.93 455.05L374.27 622.4c-1.35 3.82-5.75 5.59-9.37 3.76L53.38 466.45a11.348 11.348 0 0 1-5.52-14.1l55.81-149.31L431.1 461.87zm-2.59 62.71v294.47c0 3.89-4.03 6.47-7.56 4.83L93.11 669.59a17.51 17.51 0 0 1-10.14-15.99l.97-140.45c.03-4.3 4.56-7.06 8.4-5.12l279.5 144.37c5.15 2.6 11.42.18 13.49-5.2l43.18-122.62zm75.12 99-54.87-161.71 328.9-158.83 62.59 147.42c2.36 5.56-.05 11.99-5.48 14.63l-325.3 160.92a4.208 4.208 0 0 1-5.84-2.43zm291.84 31.61c0 5.9-3.42 11.26-8.77 13.74L458.55 823.87c-3.53 1.64-7.57-.94-7.57-4.83V524.58l40.58 124.11c1.48 4.18 6.29 6.12 10.26 4.15l282.96-142.62c4.91-2.44 10.68 1.13 10.68 6.62l.01 138.35z" style="fill:rgb(74 102 158)"/></svg>