<svg width="22" height="25" viewBox="0 0 22 25" fill="none" xmlns="http://www.w3.org/2000/svg">
<path d="M11 24C12.5736 24 13.8553 22.7082 13.8553 21.1222H8.14467C8.14467 22.7082 9.4264 24 11 24ZM11 3.74039L9.85787 3.97061C7.19289 4.52059 5.28934 6.87398 5.28934 9.61107C5.22589 11.4273 5.01015 13.2179 4.62944 14.9957C4.41371 16.1085 4.09645 17.1956 3.67766 18.2444H18.3096C17.9036 17.1956 17.5863 16.1085 17.3579 14.9957C16.9898 13.2179 16.7614 11.4273 16.698 9.61107C16.698 6.87398 14.7944 4.52059 12.1294 3.97061L10.9873 3.74039H11ZM19.8832 18.2444C20.1244 18.8072 20.5051 19.306 21 19.6769H1C1.48223 19.2932 1.86294 18.8072 2.11675 18.2316C3.19543 15.4818 3.77919 12.5528 3.85533 9.59828C3.85533 6.18331 6.24112 3.22878 9.57868 2.55091C9.51523 1.75792 10.1117 1.06725 10.8985 1.0033C11.6599 0.952136 12.3325 1.50211 12.4213 2.25673C12.4213 2.34626 12.4213 2.44858 12.4213 2.55091C15.7462 3.22878 18.1447 6.18331 18.1447 9.59828C18.2208 12.5528 18.8173 15.4818 19.8832 18.2316V18.2444Z" fill="rgb(74 102 158)" stroke-linecap="round" stroke-linejoin="round"/>
</svg>
