<?xml version="1.0" encoding="utf-8"?>
<!-- Generator: Adobe Illustrator 24.1.1, SVG Export Plug-In . SVG Version: 6.00 Build 0)  -->
<svg version="1.1" id="레이어_1" xmlns="http://www.w3.org/2000/svg" xmlns:xlink="http://www.w3.org/1999/xlink" x="0px"
	 y="0px" viewBox="0 0 112 432" style="enable-background:new 0 0 112 432;" xml:space="preserve">
<style type="text/css">
	.st0{fill:#ADADAD;}
</style>
<path class="st0" d="M56,320c30.9,0,56,25.1,56,56s-25.1,56-56,56S0,406.9,0,376S25.1,320,56,320z M56,160c30.9,0,56,25.1,56,56
	s-25.1,56-56,56S0,246.9,0,216S25.1,160,56,160z M56,112C25.1,112,0,86.9,0,56C0,25.1,25.1,0,56,0s56,25.1,56,56
	C112,86.9,86.9,112,56,112z"/>
</svg>
