<?xml version="1.0" encoding="utf-8"?>
<!-- Generator: Adobe Illustrator 24.1.1, SVG Export Plug-In . SVG Version: 6.00 Build 0)  -->
<svg version="1.1" id="레이어_1" xmlns="http://www.w3.org/2000/svg" xmlns:xlink="http://www.w3.org/1999/xlink" x="0px"
	 y="0px" viewBox="0 0 576 512" style="enable-background:new 0 0 576 512;" xml:space="preserve">
<style type="text/css">
	.st0{fill:rgb(74 102 158);}
</style>
<path class="st0" d="M568.9,143.5L418,5.3C404.8-6.8,384,3,384,21.8V96c-142.8,1.6-256,30.1-256,164.6c0,54.3,35.2,108.1,74.1,136.2
	c12.1,8.8,29.4-2.2,24.9-16.5C186.7,252.2,256,224,384,223.1v74.2c0,18.8,20.8,28.6,34,16.5l150.9-138.2
	C578.4,167.8,578.4,152.2,568.9,143.5z M416,384c-17.7,0-32,14.3-32,32v31.1l-320,0V128h32c17.7,0,32-14.3,32-32s-14.3-32-32-32H64
	C28.6,64,0,92.7,0,128v319.1c0,35.3,28.6,64,64,64l320,0c35.4,0,64-28.7,64-64V416C448,398.3,433.7,384,416,384z"/>
</svg>
