<svg xmlns="http://www.w3.org/2000/svg" width="511.1" height="448" style="enable-background:new 0 0 511.1 448" xml:space="preserve"><path d="M256 30c31.22 0 61.42 4.95 89.74 14.71 27.03 9.32 51.21 22.59 71.86 39.45 40.95 33.43 63.5 77.41 63.5 123.84s-22.55 90.4-63.5 123.84c-20.65 16.86-44.83 30.14-71.86 39.45C317.41 381.05 287.22 386 256 386c-33.51 0-66.08-5.87-96.82-17.46l-15.64-5.9-13.24 10.2c-23.64 18.2-48.1 30.95-73.12 38.16 11.5-18.39 22.96-41.01 28.93-65.07l4.08-16.43-11.95-11.98C46.7 285.89 30.03 248.02 30.03 208c0-46.36 22.69-90.33 63.88-123.8 20.76-16.87 45.05-30.16 72.19-39.48C194.51 34.95 224.76 30 256 30m0-30C114.6 0 .03 93.1.03 208c0 49.63 21.35 94.98 56.97 130.7-12.5 50.37-54.27 95.27-54.77 95.77-2.25 2.25-2.87 5.73-1.5 8.73 1.25 3 4.02 4.8 7.27 4.8 66.25 0 115.1-31.76 140.6-51.39C181.2 408.9 217.6 416 256 416c141.4 0 255.1-93.13 255.1-208S397.4 0 256 0z" style="fill:#6768a7"/></svg>