<?xml version="1.0" encoding="utf-8"?>
<!-- Generator: Adobe Illustrator 24.1.1, SVG Export Plug-In . SVG Version: 6.00 Build 0)  -->
<svg version="1.1" id="레이어_1" xmlns="http://www.w3.org/2000/svg" xmlns:xlink="http://www.w3.org/1999/xlink" x="0px"
	 y="0px" viewBox="0 0 511.1 448" style="enable-background:new 0 0 511.1 448;" xml:space="preserve">
<style type="text/css">
	.st0{fill:#6768A7;}
	.st1{fill:none;stroke:#6768A7;stroke-width:30;stroke-linecap:round;stroke-linejoin:round;stroke-miterlimit:10;}
</style>
<path class="st0" d="M256,30c31.2,0,61.4,5,89.7,14.7c27,9.3,51.2,22.6,71.9,39.5c41,33.4,63.5,77.4,63.5,123.8
	s-22.5,90.4-63.5,123.8c-20.6,16.9-44.8,30.1-71.9,39.5C317.4,381,287.2,386,256,386c-33.5,0-66.1-5.9-96.8-17.5l-15.6-5.9
	l-13.2,10.2c-23.6,18.2-48.1,31-73.1,38.2c11.5-18.4,23-41,28.9-65.1l4.1-16.4l-11.9-12C46.7,285.9,30,248,30,208
	c0-46.4,22.7-90.3,63.9-123.8C114.7,67.3,139,54,166.1,44.7C194.5,35,224.8,30,256,30 M256,0C114.6,0,0,93.1,0,208
	c0,49.6,21.4,95,57,130.7C44.5,389.1,2.7,434,2.2,434.5c-2.3,2.3-2.9,5.7-1.5,8.7c1.3,3,4,4.8,7.3,4.8c66.3,0,115.1-31.8,140.6-51.4
	c32.6,12.3,69,19.4,107.4,19.4c141.4,0,255.1-93.1,255.1-208S397.4,0,256,0z"/>
<line class="st1" x1="20.5" y1="20.8" x2="486.1" y2="423.9"/>
</svg>
