<svg xmlns="http://www.w3.org/2000/svg" width="639.99" height="512" style="enable-background:new 0 0 639.99 512" xml:space="preserve"><path d="M425.1 482.6c-2.3-1.25-4.57-2.56-6.81-3.93l-7.82 4.49c-6 3.5-12.83 5.35-19.75 5.35-10.71 0-21.13-4.49-28.97-12.75-18.41-20.09-32.29-44.15-40.22-69.9-5.35-18.06 2.34-36.87 17.83-45.24l8.02-4.67c-.07-2.62-.07-5.24 0-7.86l-7.65-4.46c-12.3-6.95-19.4-19.66-19.64-33.38C305.6 306.3 290.4 304 274.7 304H173.3C77.61 304 0 381.7 0 477.4 0 496.5 15.52 512 34.66 512H413.3c5.73 0 10.9-1.73 15.66-4.19-2.27-4.98-3.86-10.3-3.86-16.06v-9.15zM224 256c70.7 0 128-57.31 128-128S294.7 0 224 0 96 57.31 96 128s57.3 128 128 128zm386.5 117.3c2.63-14 2.63-28.5 0-42.5l25.75-15c3-1.63 4.38-5.13 3.38-8.5-6.75-21.5-18.25-41.13-33.25-57.38-2.25-2.5-6-3.13-9-1.38l-25.75 14.88c-10.88-9.25-23.38-16.5-36.88-21.25V212.3c0-3.38-2.5-6.38-5.75-7-22.25-5-45-4.88-66.25 0-3.25.63-5.63 3.63-5.63 7v29.88c-13.5 4.75-26 12-36.88 21.25L394.4 248.5c-2.88-1.75-6.63-1.13-9 1.38-15 16.25-26.5 35.88-33.13 57.38-1 3.38.38 6.88 3.25 8.5l25.75 15c-2.5 14-2.5 28.5 0 42.5l-25.75 15c-3 1.63-4.25 5.13-3.25 8.5 6.63 21.5 18.13 41 33.13 57.38 2.38 2.5 6 3.13 9 1.38l25.88-14.88c10.88 9.25 23.38 16.5 36.88 21.25v29.88c0 3.38 2.38 6.38 5.63 7 22.38 5 45 4.88 66.25 0 3.25-.63 5.75-3.63 5.75-7v-29.88c13.5-4.75 26-12 36.88-21.25l25.75 14.88c2.88 1.75 6.75 1.13 9-1.38 15-16.25 26.5-35.88 33.25-57.38 1-3.38-.38-6.88-3.38-8.5L610.5 373.3zM496 400.5c-26.75 0-48.5-21.75-48.5-48.5s21.75-48.5 48.5-48.5 48.5 21.75 48.5 48.5-21.7 48.5-48.5 48.5z" style="fill:rgb(74 102 158)"/></svg>