<svg xmlns="http://www.w3.org/2000/svg" width="18.667" height="17.501" viewBox="0 0 18.667 17.501">
  <g id="그룹_3878" data-name="그룹 3878" transform="translate(0 0)">
    <g id="그룹_3879" data-name="그룹 3879" transform="translate(0 0)">
      <path id="패스_3577" data-name="패스 3577" d="M9.334,3.206,8.5,2.346A4.382,4.382,0,0,0,1.633,3.562C1.023,4.756.886,6.479,2,8.678,3.073,10.8,5.306,13.333,9.334,16.1c4.028-2.763,6.26-5.3,7.334-7.417,1.114-2.2.978-3.923.366-5.116a4.382,4.382,0,0,0-6.864-1.217Zm0,14.3C-8.556,5.68,3.826-3.547,9.129,1.334c.07.064.139.131.205.2.065-.069.134-.135.205-.2,5.3-4.884,17.685,4.344-.205,16.167" transform="translate(0 0)" fill="#6768a7"/>
    </g>
  </g>
</svg>
