<?xml version="1.0" ?><svg data-name="004_ROMANTIC" height="24" id="_004_ROMANTIC" viewBox="0 0 24 24" width="24" xmlns="http://www.w3.org/2000/svg"><title/><path d="M10,22H3.8335a2.83328,2.83328,0,0,1-1.2002-5.3999L7,14.5581v-.144l-.5356-.5357A4.96623,4.96623,0,0,1,5,10.3433V8A4.00556,4.00556,0,0,1,8.562,4.0239L10.293,2.293a.99985.99985,0,1,1,1.414,1.414l-2,2A1.00015,1.00015,0,0,1,9,6,2.002,2.002,0,0,0,7,8v2.3433a3.0221,3.0221,0,0,0,.8784,2.1211l.8286.8286A1.00015,1.00015,0,0,1,9,14v1.1943a.9997.9997,0,0,1-.5767.9058L3.48,18.4116A.83355.83355,0,0,0,3.8335,20H10a1,1,0,0,1,0,2Z" style="fill:#00000085"/><path d="M14,11a1.00011,1.00011,0,0,1-1-1V8a2.0025,2.0025,0,0,0-.6689-1.4927,1.00011,1.00011,0,1,1,1.332-1.4922A4.00657,4.00657,0,0,1,15,8v2A1.00011,1.00011,0,0,1,14,11Z" style="fill:#00000085"/><path d="M16.5,22c-1.5063,0-5.4995-2.8652-5.4995-6.3086a4.59828,4.59828,0,0,1,.1777-1.2642,3.27274,3.27274,0,0,1,3.1387-2.3598,3.14049,3.14049,0,0,1,2.1836.8672,3.13745,3.13745,0,0,1,2.1826-.8667,3.27422,3.27422,0,0,1,3.1387,2.3589l.0005.0024a4.62492,4.62492,0,0,1,.1772,1.2627C21.9995,19.1348,18.0063,22,16.5,22Zm-2.1831-7.9326a1.26678,1.26678,0,0,0-1.2153.9087,2.58741,2.58741,0,0,0-.1011.7153c0,2.1665,2.7319,4.0996,3.4995,4.3003.7676-.2007,3.4995-2.1328,3.4995-4.2998a2.63807,2.63807,0,0,0-.1011-.7168,1.26816,1.26816,0,0,0-1.2153-.9072,1.376,1.376,0,0,0-1.2549,1.0053,1.00006,1.00006,0,0,1-.9282.6285h-.0005a.99982.99982,0,0,1-.9282-.6289A1.3745,1.3745,0,0,0,14.3169,14.0674Z" style="fill:#00000085"/></svg>