<?xml version="1.0" ?><svg enable-background="new 0 0 64 64" height="64px" fill="#6768A7" version="1.1" viewBox="0 0 64 64" width="64px" xml:space="preserve" xmlns="http://www.w3.org/2000/svg" xmlns:xlink="http://www.w3.org/1999/xlink"><g id="_x31_-Call"/><g id="_x32_-24_Hours_Call"/><g id="_x33_-Sending_Call"/><g id="_x34_-Incoming_Call"/><g id="_x35_-Talk_On_Phone"/><g id="_x36_-Block_Call"/><g id="_x37_-Hold_Call"/><g id="_x38_-Mute_Call"/><g id="_x39_-Phone_Book"/><g id="_x31_0-Add_Contact"/><g id="_x31_1-Delete_Contact"/><g id="_x31_2-Mail"/><g id="_x31_3-Message_Read"/><g id="_x31_4-Email"/><g id="_x31_5-Send_Mail"/><g id="_x31_6-Important_Mail"/><g id="_x31_7-Mail_Chain"/><g id="_x31_8-Messaging"/><g id="_x31_9-Sending"/><g id="_x32_0-Chat"><g><path d="M55.8037109,24.5966797h-30c-0.5527344,0-1,0.4477539-1,1v20c0,0.5522461,0.4472656,1,1,1h15.7841797l3.5556641,6.2910156    c0.1767578,0.3139648,0.5097656,0.5078125,0.8701172,0.5078125s0.6933594-0.1938477,0.8701172-0.5078125l3.5556641-6.2910156    h5.3642578c0.5527344,0,1-0.4477539,1-1v-20C56.8037109,25.0444336,56.3564453,24.5966797,55.8037109,24.5966797z     M49.9111328,41.5966797H31.6962891c-0.5527344,0-1-0.4477539-1-1s0.4472656-1,1-1h18.2148438c0.5527344,0,1,0.4477539,1,1    S50.4638672,41.5966797,49.9111328,41.5966797z M49.9111328,36.5966797H31.6962891c-0.5527344,0-1-0.4477539-1-1s0.4472656-1,1-1    h18.2148438c0.5527344,0,1,0.4477539,1,1S50.4638672,36.5966797,49.9111328,36.5966797z M49.9111328,31.5966797H34.9951172    c-0.5527344,0-1-0.4477539-1-1s0.4472656-1,1-1h14.9160156c0.5527344,0,1,0.4477539,1,1    S50.4638672,31.5966797,49.9111328,31.5966797z"/><path d="M39.1962891,22.5966797V11.6044922c0-0.5522461-0.4472656-1-1-1h-30c-0.5527344,0-1,0.4477539-1,1v20    c0,0.5522461,0.4472656,1,1,1h4.3642578l3.5556641,6.2910156c0.1767578,0.3139648,0.5097656,0.5078125,0.8701172,0.5078125    s0.6933594-0.1938477,0.8701172-0.5078125l3.5556641-6.2910156h1.3916016v-7.0078125c0-1.6542969,1.3457031-3,3-3H39.1962891z     M19.2919922,27.6044922h-5.203125c-0.5527344,0-1-0.4477539-1-1s0.4472656-1,1-1h5.203125c0.5527344,0,1,0.4477539,1,1    S19.8447266,27.6044922,19.2919922,27.6044922z M19.2919922,22.6044922h-5.203125c-0.5527344,0-1-0.4477539-1-1s0.4472656-1,1-1    h5.203125c0.5527344,0,1,0.4477539,1,1S19.8447266,22.6044922,19.2919922,22.6044922z M14.0888672,17.6044922    c-0.5527344,0-1-0.4477539-1-1s0.4472656-1,1-1h14.9160156c0.5527344,0,1,0.4477539,1,1s-0.4472656,1-1,1H14.0888672z"/></g></g><g id="_x32_1-Mail_Attachment"/><g id="_x32_2-Mobile_Link"/><g id="_x32_3-Smartphone"/><g id="_x32_4-Social_Media"/><g id="_x32_5-Support"/><g id="_x32_6-Links"/><g id="_x32_7-Phone"/><g id="_x32_8-Phone-2"/><g id="_x32_9-Map"/><g id="_x33_0-Location"/><g id="_x33_1-Write"/><g id="_x33_2-World"/><g id="_x33_3-Home"/><g id="_x33_4-Calendar"/><g id="_x33_5-Website"/><g id="_x33_6-Info"/><g id="_x33_7-Bull_Horn"/><g id="_x33_8-Profile"/><g id="_x33_9-Quote__x26__Answer"/><g id="_x34_0-Notification"/><g id="_x34_1-Share"/><g id="_x34_2-Time"/></svg>