<?xml version="1.0" ?>
<svg enable-background="new 0 0 64 64" height="64px" fill="rgb(74 102 158)" version="1.1" viewBox="0 0 64 64" width="64px" xml:space="preserve" xmlns="http://www.w3.org/2000/svg" xmlns:xlink="http://www.w3.org/1999/xlink"><g id="_x31_-Call"/><g id="_x32_-24_Hours_Call"/><g id="_x33_-Sending_Call"/><g id="_x34_-Incoming_Call"/><g id="_x35_-Talk_On_Phone"/><g id="_x36_-Block_Call"/><g id="_x37_-Hold_Call"/><g id="_x38_-Mute_Call"/><g id="_x39_-Phone_Book"/><g id="_x31_0-Add_Contact"/><g id="_x31_1-Delete_Contact"/><g id="_x31_2-Mail"><g><path d="M13.4545898,23.0166016l13.6975098,7.9957275c0.0008545,0.0004883,0.001709,0.0009766,0.0025024,0.0014648    l3.3214722,1.9388428c0.4584961,0.2675781,0.9814453,0.4091797,1.5126953,0.4091797h0.0224609    c0.53125,0,1.0541992-0.1416016,1.512207-0.4091797l17.0219727-9.9360352C52.6762695,21.7734375,54,19.4677734,54,17v-2H10v2    C10,19.4677734,11.3237305,21.7734375,13.4545898,23.0166016z"/><path d="M51.5532227,24.7441406l-12.3536987,7.2113037L56,44.0621948V17    C56,20.1762695,54.2958984,23.1435547,51.5532227,24.7441406z"/><path d="M34.5317383,34.6801758c-0.7636719,0.4458008-1.6357422,0.6816406-2.5205078,0.6816406    c-0.8896484,0.0244141-1.7783203-0.2348633-2.543457-0.6816406l-2.7774658-1.6213379L8,46.527832V48c0,0.5522461,0.4477539,1,1,1    h46c0.5522461,0,1-0.4477539,1-1v-1.4724121l-18.6906128-13.468811L34.5317383,34.6801758z"/><path d="M12.4467773,24.7441406C9.7041016,23.1435547,8,20.1762695,8,17v27.062439l16.8002319-12.1069946L12.4467773,24.7441406z"/></g></g><g id="_x31_3-Message_Read"/><g id="_x31_4-Email"/><g id="_x31_5-Send_Mail"/><g id="_x31_6-Important_Mail"/><g id="_x31_7-Mail_Chain"/><g id="_x31_8-Messaging"/><g id="_x31_9-Sending"/><g id="_x32_0-Chat"/><g id="_x32_1-Mail_Attachment"/><g id="_x32_2-Mobile_Link"/><g id="_x32_3-Smartphone"/><g id="_x32_4-Social_Media"/><g id="_x32_5-Support"/><g id="_x32_6-Links"/><g id="_x32_7-Phone"/><g id="_x32_8-Phone-2"/><g id="_x32_9-Map"/><g id="_x33_0-Location"/><g id="_x33_1-Write"/><g id="_x33_2-World"/><g id="_x33_3-Home"/><g id="_x33_4-Calendar"/><g id="_x33_5-Website"/><g id="_x33_6-Info"/><g id="_x33_7-Bull_Horn"/><g id="_x33_8-Profile"/><g id="_x33_9-Quote__x26__Answer"/><g id="_x34_0-Notification"/><g id="_x34_1-Share"/><g id="_x34_2-Time"/></svg>