<svg width="13" height="13" viewBox="0 0 13 13" fill="none" xmlns="http://www.w3.org/2000/svg">
<path fill-rule="evenodd" clip-rule="evenodd" d="M10.9628 11.877C11.3533 12.2675 11.9865 12.2675 12.377 11.877C12.7675 11.4865 12.7675 10.8533 12.377 10.4628L7.99917 6.08495L12.377 1.70711C12.7675 1.31658 12.7675 0.683418 12.377 0.292894C11.9865 -0.0976306 11.3533 -0.0976306 10.9628 0.292894L6.58495 4.67074L2.20711 0.292893C1.81658 -0.0976311 1.18342 -0.0976311 0.792893 0.292893C0.402369 0.683417 0.402369 1.31658 0.792893 1.70711L5.17074 6.08495L0.792893 10.4628C0.402369 10.8533 0.402369 11.4865 0.792893 11.877C1.18342 12.2675 1.81658 12.2675 2.20711 11.877L6.58495 7.49917L10.9628 11.877Z" fill="#6768A8"/>
</svg>
