<svg xmlns="http://www.w3.org/2000/svg" width="22.951" height="21.804" viewBox="0 0 22.951 21.804">
  <g id="_Color" data-name=" ↳Color" fill="none">
    <path d="M11.476,17.523l7.092,4.28-1.882-8.067,6.266-5.428-8.251-.7L11.476,0,8.251,7.608,0,8.308l6.266,5.428L4.384,21.8Z" stroke="none"/>
    <path d="M 17.05542945861816 19.72307014465332 L 15.57469654083252 13.37580013275146 L 20.50524711608887 9.104469299316406 L 14.01497650146484 8.553830146789551 L 11.47570610046387 2.562606573104858 L 8.936435699462891 8.553830146789551 L 2.446165084838867 9.104469299316406 L 7.376716136932373 13.37580013275146 L 5.895982265472412 19.72307014465332 L 11.47570610046387 16.35536956787109 L 17.05542945861816 19.72307014465332 M 18.56769561767578 21.80384063720703 L 11.47570610046387 17.52340126037598 L 4.383716106414795 21.80384063720703 L 6.265736103057861 13.73642063140869 L -3.899536295648431e-06 8.30841064453125 L 8.251035690307617 7.608390331268311 L 11.47570610046387 3.186035257840558e-07 L 14.70037651062012 7.608390331268311 L 22.951416015625 8.30841064453125 L 16.68567657470703 13.73642063140869 L 18.56769561767578 21.80384063720703 Z" stroke="none" fill="#6768a7"/>
  </g>
</svg>
