<svg width="16" height="16" viewBox="0 0 16 16" fill="none" xmlns="http://www.w3.org/2000/svg">
<circle cx="8" cy="8" r="8" fill="rgb(74 102 158)"/>
<path d="M7.54468 4.0035C7.72218 3.61229 8.27782 3.61229 8.45532 4.0035L9.46437 6.22738C9.53998 6.39401 9.70056 6.50603 9.88305 6.51944L12.4188 6.70579C12.8743 6.73926 13.0502 7.31563 12.691 7.5977L10.8254 9.06257C10.669 9.1854 10.6002 9.38926 10.6503 9.58174L11.2313 11.8143C11.3422 12.2407 10.8875 12.5917 10.5031 12.3765L8.24427 11.1118C8.09251 11.0268 7.90749 11.0268 7.75573 11.1118L5.49687 12.3765C5.11247 12.5917 4.65777 12.2407 4.76872 11.8143L5.34968 9.58174C5.39976 9.38926 5.33101 9.1854 5.17458 9.06257L3.30903 7.5977C2.94982 7.31563 3.12568 6.73926 3.58118 6.70579L6.11695 6.51944C6.29944 6.50603 6.46002 6.39401 6.53563 6.22738L7.54468 4.0035Z" fill="#FFD901"/>
</svg>
