<svg id="그룹_5585" data-name="그룹 5585" xmlns="http://www.w3.org/2000/svg" width="17.503" height="18.67" viewBox="0 0 17.503 18.67">
  <path id="패스_3531" data-name="패스 3531" d="M17.226.087a.584.584,0,0,1,.277.5v17.5a.584.584,0,0,1-.583.583h-3.5a.584.584,0,0,1-.583-.583v-1.75H11.669v1.75a.584.584,0,0,1-.583.583H.583A.584.584,0,0,1,0,18.086V11.669a.583.583,0,0,1,.4-.553L7,8.915V5.251a.584.584,0,0,1,.322-.522L16.658.062A.584.584,0,0,1,17.226.087ZM7,10.145,1.167,12.089V17.5H7ZM8.168,17.5H10.5v-1.75a.584.584,0,0,1,.583-.583h2.334a.584.584,0,0,1,.583.583V17.5h2.334V1.527L8.168,5.611Z" transform="translate(0 0)" fill="#6768a7"/>
  <path id="패스_3532" data-name="패스 3532" d="M2,12.335H3.167V13.5H2Zm2.334,0H5.5V13.5H4.334ZM2,14.669H3.167v1.167H2Zm2.334,0H5.5v1.167H4.334ZM9,10h1.167v1.167H9Zm2.334,0H12.5v1.167H11.335ZM9,12.335h1.167V13.5H9Zm2.334,0H12.5V13.5H11.335ZM13.669,10h1.167v1.167H13.669Zm0,2.334h1.167V13.5H13.669ZM9,7.667h1.167V8.834H9Zm2.334,0H12.5V8.834H11.335Zm2.334,0h1.167V8.834H13.669ZM9,5.334h1.167V6.5H9Zm2.334,0H12.5V6.5H11.335Zm2.334,0h1.167V6.5H13.669Zm0-2.334h1.167V4.167H13.669Z" transform="translate(0.334 0.5)" fill="#6768a7"/>
</svg>
