<svg xmlns="http://www.w3.org/2000/svg" xmlns:xlink="http://www.w3.org/1999/xlink" width="16.001" height="16.001" viewBox="0 0 16.001 16.001">
  <defs>
    <clipPath id="clip-path">
      <rect id="사각형_17524" data-name="사각형 17524" width="16.001" height="16.001" transform="translate(0 0)" fill="#6768a7"/>
    </clipPath>
  </defs>
  <g id="그룹_5594" data-name="그룹 5594" transform="translate(0 0)">
    <g id="그룹_5593" data-name="그룹 5593" clip-path="url(#clip-path)">
      <path id="패스_6158" data-name="패스 6158" d="M12.146.147a.5.5,0,0,1,.707,0h0l3,3a.5.5,0,0,1,0,.707h0l-10,10a.5.5,0,0,1-.168.11l-5,2a.5.5,0,0,1-.65-.65l2-5a.5.5,0,0,1,.11-.168ZM11.207,2.5,13.5,4.794,14.793,3.5,12.5,1.208Zm1.586,3L10.5,3.208,4,9.708V10h.5a.5.5,0,0,1,.5.5V11h.5a.5.5,0,0,1,.5.5V12h.293l6.5-6.5M3.032,10.676l-.106.106L1.4,14.6l3.821-1.528.106-.106A.5.5,0,0,1,5,12.5V12H4.5a.5.5,0,0,1-.5-.5V11H3.5a.5.5,0,0,1-.468-.325" fill="#6768a7"/>
    </g>
  </g>
</svg>
