<svg xmlns="http://www.w3.org/2000/svg" width="18.306" height="18.763" viewBox="0 0 18.306 18.763">
  <path id="패스_3518" data-name="패스 3518" d="M19.984,10.332c0-4.8-3.639-8.142-8.87-8.142-5.421,0-9.136,3.751-9.136,9.226,0,5.652,3.616,9.236,9.323,9.236a11.936,11.936,0,0,0,3.728-.542V18.716a10.574,10.574,0,0,1-3.705.531c-4.735,0-7.788-3.042-7.788-7.764,0-4.6,3.108-7.9,7.434-7.9,4.425,0,7.456,2.731,7.456,6.725,0,2.722-.9,4.481-2.291,4.481a1.13,1.13,0,0,1-1.249-1.23V7.07h-1.67V8.42h-.178a2.755,2.755,0,0,0-2.589-1.56C8.183,6.86,6.6,8.74,6.6,11.428c0,2.811,1.549,4.7,3.849,4.7a2.834,2.834,0,0,0,2.765-1.759h.178a2.279,2.279,0,0,0,2.432,1.858c2.544,0,4.159-2.29,4.159-5.895ZM8.371,11.471c0-1.937.874-3.086,2.356-3.086,1.5,0,2.466,1.194,2.466,3.086s-.972,3.1-2.489,3.1C9.256,14.568,8.371,13.4,8.371,11.471Z" transform="translate(-1.828 -2.04)" fill="#6768a7" stroke="#6768a7" stroke-width="0.3"/>
</svg>
