<svg id="그룹_3773" data-name="그룹 3773" xmlns="http://www.w3.org/2000/svg" width="17.092" height="16.92" viewBox="0 0 17.092 16.92">
  <path id="패스_3527" data-name="패스 3527" d="M17.421,2.18a.582.582,0,0,1,0,.824L16.2,4.222,13.87,1.889,15.087.67a.584.584,0,0,1,.825,0l1.509,1.509ZM15.379,5.046,13.045,2.712,5.1,10.663a.589.589,0,0,0-.141.229l-.939,2.817a.292.292,0,0,0,.369.369L7.2,13.138A.573.573,0,0,0,7.429,13l7.95-7.951Z" transform="translate(-0.499 -0.5)" fill="#6768a7"/>
  <path id="패스_3528" data-name="패스 3528" d="M1,15.586a1.751,1.751,0,0,0,1.75,1.75H15.586a1.751,1.751,0,0,0,1.75-1.75v-7a.583.583,0,1,0-1.167,0v7a.584.584,0,0,1-.583.583H2.75a.584.584,0,0,1-.583-.583V2.75a.584.584,0,0,1,.583-.583h7.585a.583.583,0,1,0,0-1.167H2.75A1.751,1.751,0,0,0,1,2.75Z" transform="translate(-1 -0.416)" fill="#6768a7"/>
</svg>
