<svg xmlns="http://www.w3.org/2000/svg" width="15.308" height="18.762" viewBox="0 0 15.308 18.762">
  <g id="그룹_3764" data-name="그룹 3764" transform="translate(0.15 0.15)">
    <path id="패스_3516" data-name="패스 3516" d="M15.108,5.862a1.415,1.415,0,0,1,1.45,1.377V20.192a1.415,1.415,0,0,1-1.45,1.377H5.9a1.415,1.415,0,0,1-1.45-1.377V7.239A1.415,1.415,0,0,1,5.9,5.862ZM5.9,4.485A2.829,2.829,0,0,0,3,7.239V20.192a2.829,2.829,0,0,0,2.9,2.755h9.209a2.829,2.829,0,0,0,2.9-2.755V7.239a2.829,2.829,0,0,0-2.9-2.755Z" transform="translate(-3 -4.485)" fill="#6768a7" stroke="#6768a7" stroke-width="0.3"/>
    <path id="패스_3517" data-name="패스 3517" d="M8.45,14.9A1.45,1.45,0,1,0,7,13.45,1.45,1.45,0,0,0,8.45,14.9Z" transform="translate(-0.933 0.795)" fill="#6768a7" stroke="#6768a7" stroke-width="0.3"/>
  </g>
</svg>
