<svg width="20" height="18" viewBox="0 0 20 18" fill="none" xmlns="http://www.w3.org/2000/svg">
<rect width="20" height="18" rx="5" fill="#8B8AD1"/>
<path d="M9.84333 7.89409L14.3529 2.52005C14.4025 2.46098 14.464 2.41458 14.5361 2.39702C14.7466 2.34579 15.2305 2.2943 15.6723 2.72771C16.1142 3.16111 16.1137 3.68673 16.087 3.91824C16.0778 3.99758 16.0411 4.06824 15.9915 4.12732L11.4726 9.51254C11.4214 9.57354 11.3573 9.62034 11.2858 9.64904L10.1052 10.1228C9.75117 10.2648 9.3883 9.92789 9.46454 9.52783L9.7298 8.13591C9.74699 8.04567 9.78619 7.96219 9.84333 7.89409Z" stroke="white" stroke-linejoin="round"/>
<path d="M6.65991 8.23999H9.58076" stroke="white" stroke-linecap="round" stroke-linejoin="round"/>
<path d="M6.65991 11.3977H12.5016" stroke="white" stroke-linecap="round" stroke-linejoin="round"/>
<path d="M10.1904 4.4502H5.90747C5.35519 4.4502 4.90747 4.89791 4.90747 5.4502V13.5555C4.90747 14.1077 5.35519 14.5555 5.90747 14.5555H13.2542C13.8065 14.5555 14.2542 14.1077 14.2542 13.5555V8.69734" stroke="white" stroke-linecap="round"/>
</svg>
