<svg width="19" height="21" viewBox="0 0 19 21" fill="none" xmlns="http://www.w3.org/2000/svg">
<path fill-rule="evenodd" clip-rule="evenodd" d="M10.0881 0.735107C9.67392 0.735107 9.33813 1.07089 9.33813 1.48511C9.33813 1.89932 9.67392 2.23511 10.0881 2.23511H16.2999L5.53527 13.9783C5.25537 14.2837 5.276 14.7581 5.58134 15.038C5.88668 15.3179 6.36111 15.2972 6.641 14.9919L17.3381 3.3223V9.48511C17.3381 9.89932 17.6739 10.2351 18.0881 10.2351C18.5023 10.2351 18.8381 9.89932 18.8381 9.48511V2.48511C18.8381 1.51861 18.0546 0.735107 17.0881 0.735107H10.0881ZM0.338135 5.48511C0.338135 4.51861 1.12163 3.73511 2.08813 3.73511H8.37385C8.78806 3.73511 9.12385 4.07089 9.12385 4.48511C9.12385 4.89932 8.78806 5.23511 8.37385 5.23511H2.08813C1.95006 5.23511 1.83813 5.34704 1.83813 5.48511V18.4851C1.83813 18.6232 1.95006 18.7351 2.08813 18.7351H15.0881C15.2262 18.7351 15.3381 18.6232 15.3381 18.4851V11.9851C15.3381 11.5709 15.6739 11.2351 16.0881 11.2351C16.5023 11.2351 16.8381 11.5709 16.8381 11.9851V18.4851C16.8381 19.4516 16.0546 20.2351 15.0881 20.2351H2.08813C1.12164 20.2351 0.338135 19.4516 0.338135 18.4851V5.48511Z" fill="#5F61BD"/>
</svg>
