<svg width="19" height="24" viewBox="0 0 19 24" fill="none" xmlns="http://www.w3.org/2000/svg">
<path fill-rule="evenodd" clip-rule="evenodd" d="M9.72215 0.0908203C10.1364 0.0908203 10.4721 0.426607 10.4721 0.84082V2.93675C10.4721 2.95036 10.4718 2.96388 10.4711 2.97731C10.6338 2.99355 10.7975 3.01511 10.9621 3.04217C14.3656 3.60899 16.6943 6.68039 16.6943 9.98907H16.6806C16.6806 12.8759 17.3833 15.7232 18.7337 18.3069L18.8853 18.5837C19.2435 19.2824 18.7199 20.0996 17.9069 20.0996H13.7041V20.8497H13.6138C13.2511 22.5977 11.6444 23.9092 9.70813 23.9092C7.77189 23.9092 6.16512 22.5977 5.8025 20.8497H5.73958V20.4194C5.73049 20.314 5.72585 20.2074 5.72585 20.0996H1.50932C0.69633 20.0996 0.172709 19.2824 0.530976 18.5837L0.682551 18.3069C2.03294 15.7232 2.7357 12.8759 2.7357 9.98907V9.60679C2.7357 6.16268 5.46461 3.33116 8.97321 2.97694C8.9725 2.96363 8.97215 2.95024 8.97215 2.93675V0.84082C8.97215 0.426607 9.30794 0.0908203 9.72215 0.0908203Z" fill="#5F61BD"/>
</svg>
