<svg width="20" height="19" viewBox="0 0 20 19" fill="none" xmlns="http://www.w3.org/2000/svg">
<rect y="0.5" width="20" height="18" rx="5" fill="#5F61BD"/>
<path fill-rule="evenodd" clip-rule="evenodd" d="M10.0067 3.42065C10.2829 3.42065 10.5067 3.64451 10.5067 3.92065V4.46634C10.5669 4.4736 10.6272 4.48219 10.6877 4.49214L10.6887 4.49231C12.5977 4.81023 13.8794 6.52341 13.8794 8.34587V8.6745C13.9281 9.87495 14.2434 11.054 14.8068 12.1335L14.8778 12.2631L14.8843 12.275L14.8841 12.2751C15.2416 12.9723 14.7029 13.7366 13.966 13.7366H12.3717C12.1337 14.8043 11.1487 15.5793 10 15.5793C8.85132 15.5793 7.86633 14.8043 7.6284 13.7366H6.03411C5.29717 13.7366 4.75843 12.9723 5.11596 12.2751L5.12215 12.263L5.12231 12.2631L5.19327 12.1335C5.80805 10.9556 6.12733 9.65925 6.12733 8.34587V8.16095C6.12733 6.24495 7.61475 4.70074 9.50673 4.4668V3.92065C9.50673 3.64451 9.73059 3.42065 10.0067 3.42065ZM12.8727 8.14809C12.7851 6.849 11.8419 5.69839 10.525 5.47881C8.67432 5.17481 7.12733 6.52158 7.12733 8.16095V8.34587C7.12733 9.82377 6.76751 11.2804 6.07731 12.601L6.07283 12.6095L6.07275 12.6095L6.00754 12.7286C6.00879 12.7299 6.01041 12.7311 6.01242 12.7323C6.01404 12.7332 6.01624 12.7341 6.01929 12.7349C6.02227 12.7357 6.02705 12.7366 6.03411 12.7366H8.07373H8.08037V12.7365H11.933V12.7366H13.966C13.973 12.7366 13.9778 12.7357 13.9808 12.7349L13.9842 12.7338L13.9859 12.7332L13.9877 12.7323C13.9897 12.7311 13.9913 12.7299 13.9925 12.7286L13.9273 12.6095L13.9227 12.601L13.9228 12.601C13.2326 11.2804 12.8727 9.82377 12.8727 8.34587V8.14809ZM11.3241 13.7365H8.67599C8.88309 14.2236 9.38512 14.5793 10 14.5793C10.615 14.5793 11.117 14.2236 11.3241 13.7365Z" fill="white"/>
</svg>
