<svg width="18" height="22" viewBox="0 0 18 22" fill="none" xmlns="http://www.w3.org/2000/svg">
<path fill-rule="evenodd" clip-rule="evenodd" d="M9.16596 0.204834C9.58017 0.204834 9.91596 0.54062 9.91596 0.954834V2.07169C10.0657 2.08708 10.2163 2.10713 10.3674 2.13199L10.369 2.13224C13.727 2.6915 15.988 5.70761 15.988 8.92211V9.51681C16.0762 11.702 16.6499 13.848 17.6754 15.8123L17.8039 16.047L17.8088 16.0559L17.8135 16.065C18.4018 17.2123 17.5176 18.4774 16.294 18.4774H13.3012C12.9357 20.3889 11.1971 21.7952 9.1537 21.7952C7.1103 21.7952 5.37173 20.3889 5.00618 18.4774H2.01336C0.789792 18.4774 -0.094397 17.2123 0.493949 16.065L0.498591 16.0559L0.503477 16.047L0.631951 15.8124C1.75037 13.6701 2.33141 11.3117 2.33141 8.92211V8.58919C2.33141 5.17795 5.01648 2.42783 8.41596 2.07201V0.954834C8.41596 0.54062 8.75174 0.204834 9.16596 0.204834ZM14.476 8.5612C14.316 6.15676 12.5712 4.02003 10.1233 3.61198C6.70654 3.05066 3.83141 5.53822 3.83141 8.58919V8.92211C3.83141 11.5585 3.18954 14.1573 1.95801 16.5135L1.95465 16.52L1.95116 16.5263L1.82588 16.7551C1.80343 16.8027 1.80768 16.8464 1.83545 16.8895C1.86526 16.9358 1.92229 16.9774 2.01336 16.9774H5.68554H6.43554V16.9774H11.8719V16.9774H12.6219H16.294C16.3851 16.9774 16.4421 16.9358 16.472 16.8895C16.4997 16.8464 16.504 16.8027 16.4815 16.7551L16.3562 16.5263L16.3528 16.52L16.3494 16.5135C15.1179 14.1573 14.476 11.5585 14.476 8.92211V8.5612ZM11.754 18.4774H6.55342C6.88839 19.5169 7.90294 20.2952 9.1537 20.2952C10.4045 20.2952 11.419 19.5169 11.754 18.4774Z" fill="rgb(74 102 158)"/>
</svg>
