<svg width="22" height="23" viewBox="0 0 22 23" fill="none" xmlns="http://www.w3.org/2000/svg">
<mask id="path-1-inside-1_2322_13943" fill="white">
<path fill-rule="evenodd" clip-rule="evenodd" d="M21.3381 9.39931C21.3381 9.3993 21.3381 9.3993 21.3381 9.3993L18.8709 0.726522C18.7293 0.228635 18.2311 -0.078868 17.7225 0.0176881L8.14559 1.836C8.14349 1.8364 8.14302 1.83919 8.14487 1.84024C8.14596 1.84087 8.14634 1.84224 8.14574 1.84334L0.978593 14.8805C0.716541 15.3572 0.883572 15.9559 1.35454 16.228L12.7885 22.8358C13.274 23.1164 13.8952 22.943 14.1653 22.4516L21.3381 9.39933L21.3381 9.39932C21.3381 9.39932 21.3381 9.39931 21.3381 9.39931Z"/>
</mask>
<path d="M21.3381 9.39933L20.0268 8.67086L20.0235 8.67691L21.3381 9.39933ZM21.3381 9.39932L22.6493 10.1278L21.3381 9.39932ZM0.978593 14.8805L-0.335871 14.1579L0.978593 14.8805ZM1.35454 16.228L0.604001 17.5268L1.35454 16.228ZM8.14574 1.84334L6.83128 1.12072L8.14574 1.84334ZM8.14559 1.836L8.42538 3.30967L8.14559 1.836ZM21.3381 9.3993L22.7808 8.98887L21.3381 9.3993ZM18.8709 0.726522L20.3137 0.316099L18.8709 0.726522ZM17.7225 0.0176881L17.4427 -1.45599L17.7225 0.0176881ZM17.4282 1.13695L19.8953 9.80972L22.7808 8.98887L20.3137 0.316099L17.4282 1.13695ZM8.42538 3.30967L18.0023 1.49136L17.4427 -1.45599L7.86579 0.362328L8.42538 3.30967ZM2.29306 15.6031L9.46021 2.56596L6.83128 1.12072L-0.335871 14.1579L2.29306 15.6031ZM13.5391 21.5371L2.10508 14.9293L0.604001 17.5268L12.038 24.1345L13.5391 21.5371ZM20.0235 8.67691L12.8507 21.7292L15.4799 23.174L22.6526 10.1217L20.0235 8.67691ZM20.0268 8.67086L20.0268 8.67087L22.6493 10.1278L22.6493 10.1278L20.0268 8.67086ZM22.6493 10.1278C23.0516 9.40361 22.7907 8.49039 22.0665 8.08807L20.6096 10.7105C19.8854 10.3082 19.6245 9.39503 20.0268 8.67086L22.6493 10.1278ZM12.038 24.1345C13.2517 24.8359 14.8048 24.4025 15.4799 23.174L12.8507 21.7292C12.9857 21.4835 13.2963 21.3968 13.5391 21.5371L12.038 24.1345ZM-0.335871 14.1579C-0.991002 15.3496 -0.573422 16.8463 0.604001 17.5268L2.10508 14.9293C2.34057 15.0654 2.42408 15.3648 2.29306 15.6031L-0.335871 14.1579ZM7.39916 3.14175C6.69035 2.73563 6.43779 1.83649 6.83128 1.12072L9.46021 2.56596C9.8549 1.848 9.60156 0.946107 8.89059 0.538743L7.39916 3.14175ZM7.86579 0.362328C6.49502 0.622586 6.18854 2.4481 7.39916 3.14175L8.89059 0.538743C10.0975 1.23027 9.79196 3.05021 8.42538 3.30967L7.86579 0.362328ZM19.8953 9.80972C19.9993 10.1753 20.2456 10.5083 20.6096 10.7105L22.0665 8.08807C22.4305 8.29027 22.6768 8.62326 22.7808 8.98887L19.8953 9.80972ZM20.3137 0.316099C19.9596 -0.928617 18.7141 -1.69738 17.4427 -1.45599L18.0023 1.49136C17.7481 1.53964 17.499 1.38589 17.4282 1.13695L20.3137 0.316099Z" fill="rgb(74 102 158)" mask="url(#path-1-inside-1_2322_13943)"/>
<ellipse cx="14.4304" cy="5.77037" rx="1.5" ry="1.5" transform="rotate(-159.957 14.4304 5.77037)" fill="rgb(74 102 158)"/>
</svg>
