<svg xmlns="http://www.w3.org/2000/svg" width="298.48" height="308.14" style="enable-background:new 0 0 298.48 308.14" xml:space="preserve"><style>.st1{fill:none;stroke:#6768a7;stroke-width:20;stroke-linecap:round;stroke-miterlimit:10}.st2{fill:#6768a7}</style><circle cx="149.14" cy="157.35" r="119.96" style="fill:none;stroke:#6768a7;stroke-width:20;stroke-miterlimit:10"/><path class="st1" d="m76.99 256.47-41.67 41.67"/><path class="st2" d="M135.98 16.76C121.32 5.89 103.09-.4 83.43.02 36.36 1.02-.98 40 .02 87.07c.3 13.9 3.92 26.93 10.07 38.4C24.21 67.06 74.26 22.38 135.98 16.76z"/><path class="st1" d="m221.49 256.47 41.68 41.67"/><path class="st2" d="M162.5 16.76C177.16 5.89 195.39-.4 215.05.02c47.07 1 84.42 39.98 83.41 87.05-.3 13.9-3.92 26.93-10.07 38.4C274.28 67.06 224.23 22.38 162.5 16.76z"/><path class="st1" d="M149.14 72.8v84.55M206.14 157.98h-56.9"/></svg>