<svg xmlns="http://www.w3.org/2000/svg" width="298.48" height="308.14" style="enable-background:new 0 0 298.48 308.14" xml:space="preserve"><style>.st0{fill:#be4d4d}</style><path class="st0" d="M135.98 16.76C121.32 5.89 103.09-.4 83.43.02 36.36 1.02-.98 40 .02 87.07c.3 13.9 3.92 26.93 10.07 38.4C24.21 67.06 74.26 22.38 135.98 16.76z"/><path class="st0" d="M234.46 255.3c27.34-23.84 44.64-58.91 44.64-97.95 0-71.66-58.3-129.96-129.96-129.96S19.19 85.69 19.19 157.35c0 39.09 17.35 74.19 44.74 98.04l-35.68 35.68c-3.91 3.91-3.91 10.24 0 14.14a9.973 9.973 0 0 0 7.07 2.93c2.56 0 5.12-.98 7.07-2.93l37.78-37.78c20 12.58 43.65 19.87 68.98 19.87 25.38 0 49.07-7.32 69.1-19.94l37.85 37.85c1.95 1.95 4.51 2.93 7.07 2.93s5.12-.98 7.07-2.93c3.91-3.91 3.91-10.24 0-14.14l-35.78-35.77zm-85.32 12.01c-60.63 0-109.96-49.33-109.96-109.96 0-60.63 49.33-109.96 109.96-109.96 60.63 0 109.96 49.33 109.96 109.96 0 60.63-49.33 109.96-109.96 109.96z"/><path class="st0" d="M162.5 16.76C177.16 5.89 195.39-.4 215.05.02c47.07 1 84.42 39.98 83.41 87.05-.3 13.9-3.92 26.93-10.07 38.4C274.28 67.06 224.23 22.38 162.5 16.76zM206.14 147.98h-47V72.8c0-5.52-4.48-10-10-10s-10 4.48-10 10v84.55c0 .7.07 1.39.21 2.05.69 4.85 4.85 8.58 9.89 8.58h56.9c5.52 0 10-4.48 10-10s-4.47-10-10-10z"/></svg>