<?xml version="1.0" encoding="utf-8"?>
<!-- Generator: Adobe Illustrator 24.1.1, SVG Export Plug-In . SVG Version: 6.00 Build 0)  -->
<svg version="1.1" id="레이어_1" xmlns="http://www.w3.org/2000/svg" xmlns:xlink="http://www.w3.org/1999/xlink" x="0px"
	 y="0px" viewBox="0 0 512 512" style="enable-background:new 0 0 512 512;" xml:space="preserve">
<style type="text/css">
	.st0{fill:#6768A8;}
</style>
<path class="st0" d="M0,224c0,17.7,14.3,32,32,32s32-14.3,32-32c0-53,43-96,96-96h160v32c0,12.9,7.8,24.6,19.8,29.6
	s25.7,2.2,34.9-6.9l64-64c12.5-12.5,12.5-32.8,0-45.3l-64-64c-9.2-9.2-22.9-11.9-34.9-6.9S320,19.1,320,32v32H160
	C71.6,64,0,135.6,0,224z M512,288c0-17.7-14.3-32-32-32s-32,14.3-32,32c0,53-43,96-96,96H192v-32c0-12.9-7.8-24.6-19.8-29.6
	s-25.7-2.2-34.9,6.9l-64,64c-12.5,12.5-12.5,32.8,0,45.3l64,64c9.2,9.2,22.9,11.9,34.9,6.9s19.8-16.6,19.8-29.6V448h160
	C440.4,448,512,376.4,512,288z"/>
</svg>
