<svg width="29" height="31" viewBox="0 0 29 31" fill="none" xmlns="http://www.w3.org/2000/svg">
<path d="M15.063 4.23972C14.7488 3.92009 14.2382 3.92009 13.9239 4.23972L4.23566 14.095C4.07855 14.2548 4 14.4545 4 14.6809V26.1743C4 26.6271 4.36658 27 4.81172 27H12.0648C12.51 27 12.8766 26.6271 12.8766 26.1743V19.6086H16.1103V26.1743C16.1103 26.6271 16.4769 27 16.9221 27H24.1883C24.6334 27 25 26.6271 25 26.1743V14.6676C25 14.4545 24.9214 14.2415 24.7643 14.0816L22.5779 11.8576V6.46381C22.5779 6.011 22.2113 5.6381 21.7662 5.6381H20.1559C19.7107 5.6381 19.3441 6.011 19.3441 6.46381V8.58135L15.063 4.23972ZM5.61035 25.3353V15.0006L14.4869 5.98437L23.3635 15.0139V25.3486H17.7207V18.7829C17.7207 18.3301 17.3541 17.9571 16.909 17.9571H12.0648C11.6197 17.9571 11.2531 18.3301 11.2531 18.7829V25.3486H5.61035V25.3353Z" fill="#5F61BD" stroke="#5F61BD" stroke-width="0.5" stroke-linecap="round"/>
</svg>
