<svg width="27" height="24" viewBox="0 0 27 24" fill="none" xmlns="http://www.w3.org/2000/svg">
<path d="M8.88379 12.25C8.88379 14.7391 11.042 16.75 13.6779 16.75C16.3139 16.75 18.4721 14.7391 18.4721 12.25C18.4721 9.76093 16.3139 7.75 13.6779 7.75C11.042 7.75 8.88379 9.76093 8.88379 12.25ZM10.4678 12.25C10.4678 10.6016 11.8982 9.25 13.6779 9.25C15.4577 9.25 16.8881 10.6016 16.8881 12.25C16.8881 13.8984 15.4577 15.25 13.6779 15.25C11.8982 15.25 10.4678 13.8984 10.4678 12.25Z" fill="#5F61BD" stroke="#5F61BD" stroke-width="0.25"/>
<path d="M5.14163 21.3349L5.14163 21.3349L5.14128 21.336C4.96787 21.8641 5.06987 22.4196 5.41451 22.8638C5.78766 23.3479 6.39976 23.625 7.04766 23.625H20.3081C20.9554 23.625 21.5671 23.3484 21.9403 22.865C22.3009 22.4183 22.387 21.8616 22.2145 21.336L22.2141 21.3349C21.2431 18.4646 17.7096 16.5 13.6779 16.5C9.64615 16.5 6.11259 18.4646 5.14163 21.3349ZM6.68089 21.9752L6.6811 21.975L6.67581 21.9688C6.6476 21.9358 6.62118 21.8681 6.64616 21.789C7.01351 20.7031 7.92963 19.7561 9.18158 19.0787C10.4327 18.4018 12.0095 18 13.6779 18C15.3462 18 16.9231 18.4018 18.1741 19.0787C19.4265 19.7563 20.3428 20.7038 20.7099 21.79L20.7098 21.7901L20.7118 21.7952C20.729 21.8395 20.7274 21.8717 20.7209 21.8959C20.7139 21.9221 20.699 21.9464 20.6799 21.9688C20.6 22.0624 20.4632 22.125 20.3081 22.125H7.04766C6.87535 22.125 6.74449 22.0603 6.68089 21.9752Z" fill="#5F61BD" stroke="#5F61BD" stroke-width="0.25"/>
<path d="M2.56042 5.05C2.56042 7.36407 4.55854 9.225 7.00773 9.225C9.45692 9.225 11.455 7.36407 11.455 5.05C11.455 2.73593 9.45692 0.875 7.00773 0.875C4.55854 0.875 2.56042 2.73593 2.56042 5.05ZM4.14447 5.05C4.14447 3.57692 5.42773 2.375 7.00773 2.375C8.6007 2.375 9.87099 3.57657 9.87099 5.05C9.87099 6.52343 8.6007 7.725 7.00773 7.725C5.41476 7.725 4.14447 6.52343 4.14447 5.05Z" fill="#5F61BD" stroke="#5F61BD" stroke-width="0.25"/>
<path d="M15.0737 5.05C15.0737 7.36407 17.0718 9.225 19.521 9.225C21.9702 9.225 23.9683 7.36407 23.9683 5.05C23.9683 2.73593 21.9702 0.875 19.521 0.875C17.0718 0.875 15.0737 2.73593 15.0737 5.05ZM16.6578 5.05C16.6578 3.57692 17.941 2.375 19.521 2.375C21.114 2.375 22.3843 3.57657 22.3843 5.05C22.3843 6.52343 21.114 7.725 19.521 7.725C17.9281 7.725 16.6578 6.52343 16.6578 5.05Z" fill="#5F61BD" stroke="#5F61BD" stroke-width="0.25"/>
<path d="M24.5386 13.7775L24.5387 13.7775C24.2449 12.9081 23.9677 12.2049 23.5018 11.6645C23.0406 11.1294 22.3845 10.7437 21.3115 10.5352L21.3098 10.5349L21.3098 10.5349C20.889 10.4473 20.6112 10.0618 20.6924 9.65078C20.7746 9.23466 21.2091 8.99247 21.6235 9.06436L21.6262 9.06483L21.6262 9.06486C23.0831 9.35058 24.0232 9.91878 24.6828 10.6724C25.3388 11.4219 25.7086 12.3455 26.0426 13.3218M24.5386 13.7775L25.9244 13.3625M24.5386 13.7775L24.5393 13.7794C24.5498 13.8089 24.5492 13.841 24.5173 13.8871C24.4639 13.9519 24.3696 14 24.2435 14H19.0141C18.5793 14 18.222 14.3234 18.222 14.75C18.222 15.1766 18.5793 15.5 19.0141 15.5H24.2302M24.5386 13.7775L24.2302 15.5M26.0426 13.3218C26.0426 13.3219 26.0427 13.322 26.0427 13.3221L25.9244 13.3625M26.0426 13.3218C26.0426 13.3217 26.0426 13.3217 26.0425 13.3216L25.9244 13.3625M26.0426 13.3218C26.2173 13.8267 26.1141 14.3584 25.7825 14.7774M25.9244 13.3625C26.0845 13.825 25.9911 14.3125 25.6843 14.7M25.7825 14.7774C25.7825 14.7773 25.7826 14.7773 25.7826 14.7772L25.6843 14.7M25.7825 14.7774C25.4259 15.2317 24.8604 15.4962 24.2435 15.5M25.7825 14.7774C25.7824 14.7775 25.7823 14.7775 25.7823 14.7776L25.6843 14.7M25.6843 14.7L24.2435 15.5M24.2302 15.5H24.2435V15.5M24.2302 15.5L24.2435 15.5" fill="#5F61BD" stroke="#5F61BD" stroke-width="0.25"/>
<path d="M7.98157 15.5H7.99491V15.4999C8.42363 15.4934 8.77359 15.1722 8.77359 14.75C8.77359 14.3235 8.41635 14 7.98157 14H2.75211C2.62968 14 2.53728 13.9547 2.48317 13.8928C2.45081 13.8294 2.44919 13.7995 2.45633 13.7794L2.45698 13.7776C2.75055 12.9086 3.03109 12.2051 3.49866 11.6646C3.96156 11.1295 4.61751 10.7439 5.68306 10.5355C6.10558 10.4614 6.40059 10.0609 6.30223 9.6462C6.20634 9.24189 5.7938 8.97696 5.36884 9.06501C3.9057 9.35075 2.9657 9.91886 2.30776 10.6725C1.65332 11.4222 1.28681 12.346 0.952942 13.3221L0.952913 13.3221L0.952068 13.3247C0.793223 13.8254 0.879819 14.3563 1.21318 14.7774C1.57233 15.235 2.14343 15.5 2.76545 15.5H7.98157Z" fill="#5F61BD" stroke="#5F61BD" stroke-width="0.25"/>
</svg>
