<svg width="20" height="23" viewBox="0 0 20 23" fill="none" xmlns="http://www.w3.org/2000/svg">
<path fill-rule="evenodd" clip-rule="evenodd" d="M12.8553 20.1222C12.8553 21.7082 11.5736 23 10 23C8.4264 23 7.14467 21.7082 7.14467 20.1222H12.8553ZM20 18.6769C19.5051 18.306 19.1244 17.8072 18.8832 17.2444V17.2316C17.8173 14.4818 17.2208 11.5528 17.1447 8.59828C17.1447 5.18331 14.7462 2.22878 11.4213 1.55091V1.25673C11.3325 0.502113 10.6599 -0.0478638 9.89848 0.00329679C9.11167 0.0672476 8.51523 0.757916 8.57868 1.55091C5.24112 2.22878 2.85533 5.18331 2.85533 8.59828C2.77919 11.5528 2.19543 14.4818 1.11675 17.2316C0.862944 17.8072 0.482233 18.2932 0 18.6769H20Z" fill="#5F61BD"/>
</svg>
