<svg width="18" height="19" viewBox="0 0 18 19" fill="none" xmlns="http://www.w3.org/2000/svg">
<path fill-rule="evenodd" clip-rule="evenodd" d="M8.49892 9.97509C5.97619 9.72296 4 7.58805 4 5C4 2.24286 6.24286 0 9 0C11.7571 0 14 2.24286 14 5C14 7.57896 12.0377 9.70796 9.52764 9.97237L9.5 10L9.5265 10.0133C13.5403 10.2151 16.9543 12.7058 17.9157 16.2182C18.0853 16.8564 18.0005 17.5273 17.6472 18.0673C17.2798 18.6564 16.6721 19 16.0221 19H1.97492C1.32485 19 0.717181 18.6564 0.349751 18.0673C0.0105852 17.5273 -0.0883384 16.8564 0.0812447 16.2182C1.04504 12.6973 4.47326 10.2031 8.49967 10.0118C8.49992 10.0079 8.50004 10.0039 8.50004 10C8.50004 9.99149 8.49966 9.98319 8.49892 9.97509Z" fill="rgb(74 102 158)"/>
</svg>
