<svg width="20" height="20" viewBox="0 0 20 20" fill="none" xmlns="http://www.w3.org/2000/svg">
<path fill-rule="evenodd" clip-rule="evenodd" d="M13.2593 8.32166C13.2593 11.0161 11.075 13.2004 8.38048 13.2004C5.686 13.2004 3.50169 11.0161 3.50169 8.32166C3.50169 5.62718 5.686 3.44287 8.38048 3.44287C11.075 3.44287 13.2593 5.62718 13.2593 8.32166ZM12.8404 14.8175C11.5723 15.6898 10.036 16.2004 8.38048 16.2004C4.02915 16.2004 0.501694 12.673 0.501694 8.32166C0.501694 3.97032 4.02915 0.442871 8.38048 0.442871C12.7318 0.442871 16.2593 3.97032 16.2593 8.32166C16.2593 9.93258 15.7758 11.4306 14.9461 12.6785L19.0846 17.0224C19.656 17.6222 19.633 18.5717 19.0332 19.1431C18.4334 19.7146 17.4839 19.6916 16.9125 19.0918L12.8404 14.8175Z" fill="rgb(74 102 158)"/>
</svg>
