<svg width="20" height="23" viewBox="0 0 20 23" fill="none" xmlns="http://www.w3.org/2000/svg">
<path d="M10.4825 1.74121C10.2132 1.46419 9.77556 1.46419 9.50623 1.74121L1.202 10.2824C1.06733 10.4209 1 10.5941 1 10.7903V20.7512C1 21.1436 1.31421 21.4668 1.69576 21.4668H7.91272C8.29426 21.4668 8.60848 21.1436 8.60848 20.7512V15.0609H11.3803V20.7512C11.3803 21.1436 11.6945 21.4668 12.0761 21.4668H18.3042C18.6858 21.4668 19 21.1436 19 20.7512V10.7787C19 10.5941 18.9327 10.4094 18.798 10.2709L16.9239 8.34333V3.66875C16.9239 3.27632 16.6097 2.95313 16.2282 2.95313H14.8479C14.4663 2.95313 14.1521 3.27632 14.1521 3.66875V5.50395L10.4825 1.74121Z" stroke="#7E7E7E" stroke-width="1.5" stroke-linecap="round"/>
</svg>
