<svg width="23" height="22" viewBox="0 0 23 22" fill="none" xmlns="http://www.w3.org/2000/svg">
<path d="M11.663 14.7748C9.29447 14.7748 7.36771 12.9694 7.36771 10.7501C7.36771 8.53072 9.29447 6.72534 11.663 6.72534C14.0316 6.72534 15.9584 8.53072 15.9584 10.7501C15.9584 12.9694 14.0316 14.7748 11.663 14.7748ZM11.663 7.87526C9.96944 7.87526 8.59494 9.16317 8.59494 10.7501C8.59494 12.3369 9.96944 13.6249 11.663 13.6249C13.3566 13.6249 14.7311 12.3369 14.7311 10.7501C14.7311 9.16317 13.3566 7.87526 11.663 7.87526Z" fill="#7E7E7E"/>
<path d="M17.7623 21.0993H5.5636C4.99907 21.0993 4.47136 20.8579 4.15228 20.4439C3.85774 20.0644 3.77183 19.5929 3.9191 19.1445C4.79044 16.5687 7.98125 14.7748 11.663 14.7748C15.3447 14.7748 18.5355 16.5687 19.4068 19.1445C19.5541 19.5929 19.4804 20.0644 19.1736 20.4439C18.8546 20.8579 18.3268 21.0993 17.7623 21.0993ZM11.663 15.9247C8.55805 15.9247 5.7845 17.4196 5.08497 19.4894C5.04816 19.6044 5.08497 19.7079 5.13406 19.7654C5.21997 19.8804 5.37951 19.9494 5.5636 19.9494H17.7623C17.9341 19.9494 18.0937 19.8804 18.1918 19.7654C18.2409 19.7079 18.29 19.6159 18.2409 19.4894C17.5414 17.4196 14.7679 15.9247 11.663 15.9247Z" fill="#7E7E7E"/>
<path d="M5.52675 7.85224C3.33 7.85224 1.55051 6.18485 1.55051 4.1265C1.55051 2.06814 3.33 0.400757 5.52675 0.400757C7.7235 0.400757 9.50299 2.06814 9.50299 4.1265C9.50299 6.18485 7.7235 7.85224 5.52675 7.85224ZM5.52675 1.55068C4.01725 1.55068 2.77774 2.7006 2.77774 4.1265C2.77774 5.5524 4.00498 6.70232 5.52675 6.70232C7.04852 6.70232 8.27576 5.5524 8.27576 4.1265C8.27576 2.7006 7.04852 1.55068 5.52675 1.55068Z" fill="#7E7E7E"/>
<path d="M17.0383 7.85224C14.8415 7.85224 13.0621 6.18485 13.0621 4.1265C13.0621 2.06814 14.8415 0.400757 17.0383 0.400757C19.235 0.400757 21.0145 2.06814 21.0145 4.1265C21.0145 6.18485 19.235 7.85224 17.0383 7.85224ZM17.0383 1.55068C15.5288 1.55068 14.2893 2.7006 14.2893 4.1265C14.2893 5.5524 15.5165 6.70232 17.0383 6.70232C18.5601 6.70232 19.7873 5.5524 19.7873 4.1265C19.7873 2.7006 18.5601 1.55068 17.0383 1.55068Z" fill="#7E7E7E"/>
<path d="M21.3828 13.6248H16.572C16.2284 13.6248 15.9584 13.3719 15.9584 13.0499C15.9584 12.7279 16.2284 12.4749 16.572 12.4749H21.3828C21.5301 12.4749 21.6528 12.4174 21.7264 12.3254C21.7755 12.2564 21.7878 12.1874 21.7632 12.1184C21.2233 10.5201 20.7201 9.45064 18.7074 9.05966C18.3761 8.99067 18.1674 8.69169 18.2288 8.38121C18.2902 8.07073 18.6215 7.87525 18.9529 7.93274C21.5914 8.45021 22.3155 9.9796 22.9291 11.7735C23.0764 12.1989 22.9905 12.6474 22.7082 13.0039C22.4014 13.3949 21.9105 13.6248 21.3705 13.6248H21.3828Z" fill="#7E7E7E"/>
<path d="M6.435 13.6248H1.62424C1.08426 13.6248 0.593361 13.3948 0.286552 13.0039C0.00428827 12.6474 -0.0693458 12.1989 0.06565 11.7735C0.679268 9.97959 1.39106 8.45019 4.04189 7.93273C4.37325 7.86373 4.69233 8.07072 4.76596 8.3812C4.8396 8.69168 4.61869 9.00215 4.28734 9.05965C2.28695 9.45062 1.77151 10.52 1.23152 12.1184C1.20698 12.1874 1.23152 12.2564 1.26834 12.3254C1.34197 12.4174 1.4647 12.4749 1.61197 12.4749H6.42273C6.76635 12.4749 7.03635 12.7279 7.03635 13.0499C7.03635 13.3718 6.76635 13.6248 6.42273 13.6248H6.435Z" fill="#7E7E7E"/>
</svg>
