<svg width="18" height="18" viewBox="0 0 18 18" fill="none" xmlns="http://www.w3.org/2000/svg">
<path d="M17.3198 16.4015L13.3468 12.1254C14.3008 10.9092 14.8759 9.36615 14.8759 7.69231C14.8759 3.73 11.6478 0.5 7.68794 0.5C3.72804 0.5 0.5 3.73 0.5 7.69231C0.5 11.6546 3.72804 14.8846 7.68794 14.8846C9.5176 14.8846 11.1774 14.1915 12.4451 13.0669L16.3658 17.2908C16.4964 17.4346 16.6663 17.5 16.8493 17.5C17.0061 17.5 17.163 17.4477 17.2936 17.33C17.555 17.0815 17.5681 16.6762 17.3329 16.4015H17.3198ZM1.8069 7.69231C1.8069 4.44923 4.44683 1.80769 7.68794 1.80769C10.9291 1.80769 13.569 4.44923 13.569 7.69231C13.569 10.9354 10.9291 13.5769 7.68794 13.5769C4.44683 13.5769 1.8069 10.9354 1.8069 7.69231Z" fill="#7E7E7E"/>
</svg>
