<svg width="18" height="20" viewBox="0 0 18 20" fill="none" xmlns="http://www.w3.org/2000/svg">
<path d="M9 10.5C6.24286 10.5 4 8.25714 4 5.5C4 2.74286 6.24286 0.5 9 0.5C11.7571 0.5 14 2.74286 14 5.5C14 8.25714 11.7571 10.5 9 10.5ZM9 1.92857C7.02857 1.92857 5.42857 3.52857 5.42857 5.5C5.42857 7.47143 7.02857 9.07143 9 9.07143C10.9714 9.07143 12.5714 7.47143 12.5714 5.5C12.5714 3.52857 10.9714 1.92857 9 1.92857Z" fill="#7E7E7E"/>
<path d="M16.022 19.5H1.97492C1.32485 19.5 0.717178 19.1564 0.349748 18.5673C0.0105823 18.0273 -0.0883412 17.3564 0.0812418 16.7182C1.08461 13.0527 4.75891 10.5 8.99848 10.5C13.2381 10.5 16.9124 13.0527 17.9157 16.7182C18.0853 17.3564 18.0005 18.0273 17.6472 18.5673C17.2798 19.1564 16.6721 19.5 16.022 19.5ZM8.99848 12.1364C5.42311 12.1364 2.22929 14.2636 1.42377 17.2091C1.38138 17.3727 1.42377 17.52 1.4803 17.6018C1.57923 17.7655 1.76294 17.8636 1.97492 17.8636H16.022C16.2199 17.8636 16.4036 17.7655 16.5167 17.6018C16.5732 17.52 16.6297 17.3891 16.5732 17.2091C15.7677 14.2636 12.5739 12.1364 8.99848 12.1364Z" fill="#7E7E7E"/>
</svg>
