<svg width="28" height="30" viewBox="0 0 28 30" fill="none" xmlns="http://www.w3.org/2000/svg">
<path d="M14.563 3.73972C14.2488 3.42009 13.7382 3.42009 13.4239 3.73972L3.73566 13.595C3.57855 13.7548 3.5 13.9545 3.5 14.1809V25.6743C3.5 26.1271 3.86658 26.5 4.31172 26.5H11.5648C12.01 26.5 12.3766 26.1271 12.3766 25.6743V19.1086H15.6103V25.6743C15.6103 26.1271 15.9769 26.5 16.4221 26.5H23.6883C24.1334 26.5 24.5 26.1271 24.5 25.6743V14.1676C24.5 13.9545 24.4214 13.7415 24.2643 13.5816L22.0779 11.3576V5.96381C22.0779 5.511 21.7113 5.1381 21.2662 5.1381H19.6559C19.2107 5.1381 18.8441 5.511 18.8441 5.96381V8.08135L14.563 3.73972Z" fill="#5F61BD" stroke="#5F61BD" stroke-width="0.5" stroke-linecap="round"/>
</svg>
