<svg width="26" height="23" viewBox="0 0 26 23" fill="none" xmlns="http://www.w3.org/2000/svg">
<path fill-rule="evenodd" clip-rule="evenodd" d="M4.5 7.84699C2.85595 7.27395 1.68539 5.79057 1.68539 4.05C1.68539 1.8125 3.61976 0 6.0077 0C8.39564 0 10.33 1.8125 10.33 4.05C10.33 5.53927 9.47305 6.84025 8.19578 7.54383C8.28123 7.60157 8.40396 7.65916 8.58027 7.72862L9.4958 8.05106C10.3303 7.32179 11.4494 6.875 12.6779 6.875C14.0016 6.875 15.1984 7.3937 16.0488 8.22559L16.5 8C16.5 7.86508 16.48 7.73251 16.4444 7.60312C15.1058 6.91503 14.1987 5.58216 14.1987 4.05C14.1987 1.8125 16.1331 0 18.521 0C20.909 0 22.8434 1.8125 22.8434 4.05C22.8434 5.74958 21.7273 7.20394 20.1441 7.805L20.2462 8.2133C20.3571 8.17683 20.4796 8.16628 20.6022 8.18754C23.4704 8.75004 24.2574 10.4125 24.9245 12.3625C25.0845 12.825 24.9912 13.3125 24.6843 13.7C24.3508 14.125 23.8172 14.375 23.2302 14.375H18.0141C17.7359 14.375 17.5021 14.2225 17.4009 14H16.3069C15.5391 14.8879 14.4083 15.4896 13.128 15.6048L13.1644 15.6346C16.9585 15.7853 20.1872 17.6891 21.0957 20.375C21.2558 20.8625 21.1758 21.375 20.8423 21.7875C20.4954 22.2375 19.9218 22.5 19.3081 22.5H6.04772C5.43406 22.5 4.86042 22.2375 4.51357 21.7875C4.1934 21.375 4.10001 20.8625 4.2601 20.375C5.18493 17.641 8.51356 15.7175 12.3956 15.6282L12.4043 15.6176C11.0517 15.544 9.85185 14.9285 9.0489 14H7.5948C7.49358 14.2225 7.25977 14.375 6.98157 14.375H1.76545C1.17847 14.375 0.644855 14.125 0.311344 13.7C0.00451373 13.3125 -0.075529 12.825 0.071216 12.3625C0.738238 10.4125 1.51198 8.75002 4.39352 8.18752C4.42923 8.18008 4.4648 8.1756 4.5 8.17387V7.84699Z" fill="rgb(74 102 158)"/>
</svg>
