<svg width="20" height="21" viewBox="0 0 20 21" fill="none" xmlns="http://www.w3.org/2000/svg">
<path d="M4.875 6C4.875 8.82618 7.17382 11.125 10 11.125C12.8262 11.125 15.125 8.82618 15.125 6C15.125 3.17382 12.8262 0.875 10 0.875C7.17382 0.875 4.875 3.17382 4.875 6ZM6.55357 6C6.55357 4.09761 8.09761 2.55357 10 2.55357C11.9024 2.55357 13.4464 4.09761 13.4464 6C13.4464 7.90239 11.9024 9.44643 10 9.44643C8.09761 9.44643 6.55357 7.90239 6.55357 6Z" fill="#5F61BD" stroke="#5F61BD" stroke-width="0.25"/>
<path d="M0.960677 17.1852L0.960674 17.1852L0.960434 17.1861C0.782251 17.8566 0.885693 18.5632 1.24369 19.1334C1.63265 19.757 2.27931 20.125 2.97492 20.125H17.022C17.7172 20.125 18.3635 19.7575 18.7526 19.1346C19.1267 18.562 19.2141 17.8544 19.0365 17.1861L19.0363 17.1852C18.0157 13.4569 14.285 10.875 9.99848 10.875C5.71193 10.875 1.98125 13.4569 0.960677 17.1852ZM2.58727 18.0372L2.58747 18.037L2.58314 18.0308C2.54674 17.9781 2.51189 17.8684 2.54458 17.7412C3.33231 14.8627 6.46614 12.7614 9.99848 12.7614C13.5312 12.7614 16.6653 14.8631 17.4526 17.7421L17.4525 17.7421L17.4539 17.7465C17.4957 17.8794 17.4555 17.9705 17.4138 18.0308C17.3236 18.1614 17.1779 18.2386 17.022 18.2386H2.97492C2.80169 18.2386 2.66108 18.1592 2.58727 18.0372Z" fill="#5F61BD" stroke="#5F61BD" stroke-width="0.25"/>
</svg>
