<svg id="그룹_140" data-name="그룹 140" xmlns="http://www.w3.org/2000/svg" xmlns:xlink="http://www.w3.org/1999/xlink" width="62.42" height="36.785" viewBox="0 0 62.42 36.785">
  <defs>
    <clipPath id="clip-path">
      <rect id="사각형_64" data-name="사각형 64" width="62.42" height="36.785" fill="none"/>
    </clipPath>
  </defs>
  <g id="그룹_139" data-name="그룹 139" transform="translate(0 0)" clip-path="url(#clip-path)">
    <path id="패스_277" data-name="패스 277" d="M8.291,35.938l.146,0H28.789l.1,0a8.113,8.113,0,0,0,1.9-.239,1.289,1.289,0,0,0,.031.246,1.181,1.181,0,0,0,1.13.839H50.731A11.579,11.579,0,0,0,62.422,25.44,11.561,11.561,0,0,0,50.712,14.1a14.291,14.291,0,0,0-28.261-2.814,9.728,9.728,0,0,0-10.423,1.884,9.86,9.86,0,0,0-3.058,5.976,8.405,8.405,0,1,0-.68,16.791M36.407,2.358a12.024,12.024,0,0,1,11.949,12.07c0,.28-.009.561-.027.837a1.179,1.179,0,0,0,.36.926,1.167,1.167,0,0,0,.94.322,10.1,10.1,0,0,1,1.042-.054,9.207,9.207,0,0,1,9.394,8.981,9.213,9.213,0,0,1-9.339,8.985H34.906a8.929,8.929,0,0,0,1.8-4.859,7.35,7.35,0,0,0,.127-1.316,7.685,7.685,0,0,0-4.417-6.875,9.566,9.566,0,0,0-3.931-1.385,9.879,9.879,0,0,0-3.875-7.443,11.916,11.916,0,0,1,11.8-10.189M8.345,21.482a6.132,6.132,0,0,1,.792.052l.741.1a1.178,1.178,0,0,0,1.334-1.074l.06-.756a7.521,7.521,0,0,1,2.367-4.911,7.371,7.371,0,0,1,5.058-2,7.5,7.5,0,0,1,7.448,7.526c0,.166-.005.34-.018.521l-.058.852a1.181,1.181,0,0,0,1.3,1.253l.841-.089a5.653,5.653,0,0,1,.631-.034A5.492,5.492,0,0,1,34.47,28.25a5.5,5.5,0,0,1-5.611,5.331l-20.408,0-.137,0a6.05,6.05,0,0,1,.031-12.1" transform="translate(0 -0.001)" fill="#272525"/>
  </g>
</svg>
