<svg id="그룹_70" data-name="그룹 70" xmlns="http://www.w3.org/2000/svg" xmlns:xlink="http://www.w3.org/1999/xlink" width="47.572" height="47.572" viewBox="0 0 47.572 47.572">
  <defs>
    <clipPath id="clip-path">
      <rect id="사각형_29" data-name="사각형 29" width="47.572" height="47.572" fill="none"/>
    </clipPath>
  </defs>
  <g id="그룹_69" data-name="그룹 69" transform="translate(0 0)" clip-path="url(#clip-path)">
    <path id="패스_144" data-name="패스 144" d="M7.143,10.089a1.056,1.056,0,0,0,0,1.491,1.057,1.057,0,0,0,1.491,0,1.056,1.056,0,0,0,0-1.491,1.078,1.078,0,0,0-1.491,0M8.264,11.21a.545.545,0,0,1-.751,0,.533.533,0,0,1,0-.751.531.531,0,0,1,.751,0,.53.53,0,0,1,0,.751" transform="translate(4.718 6.759)" fill="#272525"/>
    <path id="패스_145" data-name="패스 145" d="M8.569,8.667a1.054,1.054,0,1,0,1.491,0,1.056,1.056,0,0,0-1.491,0M9.69,9.788a.531.531,0,1,1,0-.751.533.533,0,0,1,0,.751" transform="translate(5.703 5.771)" fill="#272525"/>
    <path id="패스_146" data-name="패스 146" d="M10.64,9.136a1.043,1.043,0,0,0,.745-.309,1.056,1.056,0,0,0,0-1.491,1.078,1.078,0,0,0-1.491,0,1.055,1.055,0,0,0,.745,1.8m-.375-1.43a.531.531,0,0,1,.751.751.542.542,0,0,1-.751,0,.533.533,0,0,1,0-.751" transform="translate(6.618 4.858)" fill="#272525"/>
    <path id="패스_147" data-name="패스 147" d="M6.43,10.434a1.055,1.055,0,1,0-.745-.309,1.057,1.057,0,0,0,.745.309M6.055,9a.522.522,0,0,1,.375-.156A.527.527,0,0,1,6.806,9a.531.531,0,1,1-.751,0" transform="translate(3.712 5.748)" fill="#272525"/>
    <path id="패스_148" data-name="패스 148" d="M7.11,7.208a1.056,1.056,0,0,0,0,1.491A1.057,1.057,0,0,0,8.6,8.7,1.054,1.054,0,1,0,7.11,7.208M8.232,8.329a.531.531,0,0,1-.752-.751.529.529,0,0,1,.375-.156.541.541,0,0,1,.377.156.533.533,0,0,1,0,.751" transform="translate(4.696 4.764)" fill="#272525"/>
    <path id="패스_149" data-name="패스 149" d="M9.181,7.682a1.055,1.055,0,1,0-.745-.309,1.047,1.047,0,0,0,.745.309m-.375-1.43A.531.531,0,1,1,9.557,7a.531.531,0,0,1-.751-.751" transform="translate(5.611 3.848)" fill="#272525"/>
    <path id="패스_150" data-name="패스 150" d="M4.275,7.225a1.054,1.054,0,1,0,1.491,0,1.056,1.056,0,0,0-1.491,0M5.4,8.346a.531.531,0,1,1,0-.751.535.535,0,0,1,0,.751" transform="translate(2.738 4.775)" fill="#272525"/>
    <path id="패스_151" data-name="패스 151" d="M6.446,7.6A1.055,1.055,0,1,0,5.7,7.29a1.049,1.049,0,0,0,.745.309m-.375-1.43a.531.531,0,1,1,0,.751.53.53,0,0,1,0-.751" transform="translate(3.723 3.791)" fill="#272525"/>
    <path id="패스_152" data-name="패스 152" d="M7.772,6.273a1.055,1.055,0,1,0-.745-.309,1.047,1.047,0,0,0,.745.309M7.4,4.843a.533.533,0,0,1,.375-.154.53.53,0,1,1-.375.9.533.533,0,0,1,0-.751" transform="translate(4.638 2.875)" fill="#272525"/>
    <path id="패스_153" data-name="패스 153" d="M19.873,22.823a1.054,1.054,0,1,0,1.493,0,1.051,1.051,0,0,0-1.493,0M21,23.944a.531.531,0,1,1,.156-.375.53.53,0,0,1-.156.375" transform="translate(13.507 15.543)" fill="#272525"/>
    <path id="패스_154" data-name="패스 154" d="M21.3,21.4a1.056,1.056,0,0,0,0,1.491,1.039,1.039,0,0,0,.745.308,1.054,1.054,0,1,0-.745-1.8m1.121,1.121a.531.531,0,1,1-.375-.906.531.531,0,0,1,.375.906" transform="translate(14.492 14.559)" fill="#272525"/>
    <path id="패스_155" data-name="패스 155" d="M22.626,20.072a1.053,1.053,0,0,0,.745,1.8,1.05,1.05,0,0,0,1.053-1.055,1.04,1.04,0,0,0-.308-.744,1.053,1.053,0,0,0-1.491,0m1.121,1.121a.53.53,0,1,1,0-.752.533.533,0,0,1,0,.752" transform="translate(15.407 13.644)" fill="#272525"/>
    <path id="패스_156" data-name="패스 156" d="M18.415,21.364a1.053,1.053,0,1,0,1.491,0,1.046,1.046,0,0,0-1.491,0m1.121,1.121a.531.531,0,1,1,.156-.375.529.529,0,0,1-.156.375" transform="translate(12.5 14.536)" fill="#272525"/>
    <path id="패스_157" data-name="패스 157" d="M20.586,21.737a1.053,1.053,0,0,0,.745-1.8,1.054,1.054,0,1,0-.745,1.8m-.375-1.428a.531.531,0,0,1,.751,0,.531.531,0,0,1,0,.751.531.531,0,1,1-.751-.751" transform="translate(13.485 13.552)" fill="#272525"/>
    <path id="패스_158" data-name="패스 158" d="M21.913,20.412a1.056,1.056,0,1,0-.745-.309,1.049,1.049,0,0,0,.745.309m-.375-1.43a.531.531,0,1,1-.156.375.531.531,0,0,1,.156-.375" transform="translate(14.399 12.636)" fill="#272525"/>
    <path id="패스_159" data-name="패스 159" d="M17.007,19.955a1.056,1.056,0,0,0,0,1.491,1.039,1.039,0,0,0,.745.308,1.054,1.054,0,1,0-.745-1.8m1.121,1.121a.531.531,0,0,1-.751-.751.521.521,0,0,1,.372-.156.531.531,0,0,1,.379.906" transform="translate(11.528 13.563)" fill="#272525"/>
    <path id="패스_160" data-name="패스 160" d="M18.432,18.53a1.055,1.055,0,1,0,1.491,0,1.046,1.046,0,0,0-1.491,0m1.121,1.121a.542.542,0,0,1-.751,0,.531.531,0,1,1,.751,0" transform="translate(12.511 12.58)" fill="#272525"/>
    <path id="패스_161" data-name="패스 161" d="M20.5,19a1.053,1.053,0,1,0-.747-.309A1.046,1.046,0,0,0,20.5,19m-.377-1.43a.534.534,0,0,1,.375-.156.531.531,0,1,1-.375.156" transform="translate(13.427 11.664)" fill="#272525"/>
    <path id="패스_162" data-name="패스 162" d="M0,36.89a5.7,5.7,0,0,0,1.68,4.055l4.946,4.946a5.736,5.736,0,0,0,8.112,0l9.048-9.047,9.048,9.047a5.738,5.738,0,0,0,8.114,0l4.944-4.946a5.743,5.743,0,0,0,0-8.112l-9.048-9.048,9.048-9.048a5.743,5.743,0,0,0,0-8.112L40.949,1.678a5.745,5.745,0,0,0-8.114,0l-9.048,9.048L14.738,1.678a5.743,5.743,0,0,0-8.112,0L1.68,6.624a5.736,5.736,0,0,0,0,8.112l9.048,9.048L1.68,32.833A5.7,5.7,0,0,0,0,36.89M12.887,3.529l9.048,9.048L12.58,21.933,3.531,12.885a3.118,3.118,0,0,1,0-4.412L8.475,3.529a3.122,3.122,0,0,1,4.412,0m21.8,0a3.128,3.128,0,0,1,4.414,0l4.944,4.944a3.118,3.118,0,0,1,0,4.412L12.887,44.04a3.116,3.116,0,0,1-4.41,0h0L3.531,39.094a3.116,3.116,0,0,1,0-4.41Zm2.208,41.425a3.1,3.1,0,0,1-2.208-.914l-9.047-9.048L35,25.635l9.047,9.048a3.118,3.118,0,0,1,0,4.412L39.1,44.04a3.1,3.1,0,0,1-2.206.914" transform="translate(0 0.001)" fill="#272525"/>
    <path id="패스_163" data-name="패스 163" d="M13.121,23.73h0a3.14,3.14,0,0,0,4.437,0l6.57-6.57a3.136,3.136,0,0,0,0-4.437l-2.448-2.448a3.136,3.136,0,0,0-4.437,0l-6.57,6.57a3.14,3.14,0,0,0,0,4.437Zm5.6-11.974a1.069,1.069,0,0,1,1.476,0L22.648,14.2a1.043,1.043,0,0,1,0,1.476l-6.57,6.57a1.044,1.044,0,0,1-1.476,0L12.155,19.8a1.046,1.046,0,0,1,0-1.477Z" transform="translate(6.735 6.459)" fill="#272525"/>
    <path id="패스_164" data-name="패스 164" d="M18.167,8.942a1.055,1.055,0,1,0-.747-.309,1.046,1.046,0,0,0,.747.309m-.377-1.43a.534.534,0,0,1,.377-.154.53.53,0,1,1-.377.9.533.533,0,0,1,0-.751" transform="translate(11.813 4.718)" fill="#272525"/>
    <path id="패스_165" data-name="패스 165" d="M19.591,10.365a1.05,1.05,0,0,0,1.055-1.053,1.043,1.043,0,0,0-.309-.745,1.055,1.055,0,1,0-.745,1.8m-.375-1.428a.531.531,0,0,1,.751,0,.531.531,0,1,1-.751,0" transform="translate(12.798 5.702)" fill="#272525"/>
    <path id="패스_166" data-name="패스 166" d="M20.917,11.692a1.05,1.05,0,1,0-.745-.308,1.052,1.052,0,0,0,.745.308m-.375-1.428a.531.531,0,1,1-.156.375.531.531,0,0,1,.156-.375" transform="translate(13.713 6.618)" fill="#272525"/>
    <path id="패스_167" data-name="패스 167" d="M19.624,7.481a1.053,1.053,0,0,0,.745-1.8,1.054,1.054,0,1,0-.745,1.8m-.375-1.428a.531.531,0,1,1-.156.375.531.531,0,0,1,.156-.375" transform="translate(12.821 3.711)" fill="#272525"/>
    <path id="패스_168" data-name="패스 168" d="M20.3,7.109a1.054,1.054,0,1,0,1.491,0,1.056,1.056,0,0,0-1.491,0M21.426,8.23a.53.53,0,1,1,0-.752.533.533,0,0,1,0,.752" transform="translate(13.805 4.695)" fill="#272525"/>
    <path id="패스_169" data-name="패스 169" d="M22.377,10.235a1.056,1.056,0,1,0-.745-.309,1.049,1.049,0,0,0,.745.309M22,8.805a.531.531,0,1,1-.156.375A.528.528,0,0,1,22,8.805" transform="translate(14.72 5.611)" fill="#272525"/>
    <path id="패스_170" data-name="패스 170" d="M21.033,6.072a1.05,1.05,0,1,0-.745-.308,1.045,1.045,0,0,0,.745.308m-.375-1.428a.535.535,0,0,1,.751,0,.531.531,0,0,1,0,.751.531.531,0,1,1-.751-.751" transform="translate(13.793 2.738)" fill="#272525"/>
    <path id="패스_171" data-name="패스 171" d="M22.459,7.5a1.054,1.054,0,1,0-.745-.309,1.047,1.047,0,0,0,.745.309m-.375-1.43a.531.531,0,1,1,0,.751.531.531,0,0,1,0-.751" transform="translate(14.777 3.722)" fill="#272525"/>
    <path id="패스_172" data-name="패스 172" d="M23.785,8.824a1.045,1.045,0,0,0,.745-.308,1.054,1.054,0,1,0-1.491,0,1.045,1.045,0,0,0,.745.308M23.41,7.4a.531.531,0,0,1,.751,0,.531.531,0,1,1-.751,0" transform="translate(15.693 4.638)" fill="#272525"/>
    <path id="패스_173" data-name="패스 173" d="M4.69,19.868a1.056,1.056,0,0,0,0,1.491,1.057,1.057,0,0,0,1.491,0,1.056,1.056,0,0,0,0-1.491,1.078,1.078,0,0,0-1.491,0m1.121,1.121a.542.542,0,0,1-.751,0,.533.533,0,0,1,0-.751.531.531,0,0,1,.751,0,.53.53,0,0,1,0,.751" transform="translate(3.025 13.51)" fill="#272525"/>
    <path id="패스_174" data-name="패스 174" d="M6.116,21.3a1.054,1.054,0,1,0,1.491,0,1.056,1.056,0,0,0-1.491,0m1.121,1.121a.531.531,0,1,1,0-.751.529.529,0,0,1,0,.751" transform="translate(4.009 14.491)" fill="#272525"/>
    <path id="패스_175" data-name="패스 175" d="M7.442,22.624a1.054,1.054,0,1,0,1.491,0,1.053,1.053,0,0,0-1.491,0m1.121,1.121a.531.531,0,1,1-.377-.906.531.531,0,0,1,.377.906" transform="translate(4.924 15.406)" fill="#272525"/>
    <path id="패스_176" data-name="패스 176" d="M6.149,18.409a1.054,1.054,0,1,0,1.491,0,1.082,1.082,0,0,0-1.491,0M7.27,19.529a.542.542,0,0,1-.751,0,.531.531,0,1,1,.751,0" transform="translate(4.032 12.503)" fill="#272525"/>
    <path id="패스_177" data-name="패스 177" d="M7.574,19.839a1.054,1.054,0,1,0,1.491,0,1.056,1.056,0,0,0-1.491,0M8.695,20.96a.531.531,0,1,1,0-.751.53.53,0,0,1,0,.751" transform="translate(5.016 13.483)" fill="#272525"/>
    <path id="패스_178" data-name="패스 178" d="M8.9,21.161a1.054,1.054,0,1,0,1.491,0,1.078,1.078,0,0,0-1.491,0m1.122,1.121a.548.548,0,0,1-.752,0,.531.531,0,0,1,.375-.906.531.531,0,0,1,.377.906" transform="translate(5.931 14.402)" fill="#272525"/>
    <path id="패스_179" data-name="패스 179" d="M8.3,18.8a1.055,1.055,0,1,0-.745-.309A1.047,1.047,0,0,0,8.3,18.8m-.375-1.43a.531.531,0,1,1,0,.751.529.529,0,0,1,0-.751" transform="translate(5.005 11.526)" fill="#272525"/>
    <path id="패스_180" data-name="패스 180" d="M8.982,18.43a1.055,1.055,0,1,0,1.493,0,1.061,1.061,0,0,0-1.493,0M10.1,19.552a.531.531,0,1,1-.751-.751.522.522,0,0,1,.375-.156.527.527,0,0,1,.375.156.533.533,0,0,1,0,.751" transform="translate(5.989 12.511)" fill="#272525"/>
    <path id="패스_181" data-name="패스 181" d="M10.31,19.752a1.056,1.056,0,0,0,0,1.491,1.053,1.053,0,0,0,1.491,0,1.056,1.056,0,0,0,0-1.491,1.082,1.082,0,0,0-1.491,0m1.121,1.121a.542.542,0,0,1-.751,0,.531.531,0,1,1,.751,0" transform="translate(6.905 13.43)" fill="#272525"/>
  </g>
</svg>
