<svg id="그룹_60" data-name="그룹 60" xmlns="http://www.w3.org/2000/svg" xmlns:xlink="http://www.w3.org/1999/xlink" width="58.723" height="53.398" viewBox="0 0 58.723 53.398">
  <defs>
    <clipPath id="clip-path">
      <rect id="사각형_24" data-name="사각형 24" width="58.723" height="53.398" fill="none"/>
    </clipPath>
  </defs>
  <g id="그룹_59" data-name="그룹 59" transform="translate(0 0)" clip-path="url(#clip-path)">
    <path id="패스_135" data-name="패스 135" d="M10.716,10.5H33.56a.781.781,0,1,0,0-1.563H10.716a.781.781,0,0,0,0,1.563" transform="translate(6.849 6.163)" fill="#272525"/>
    <path id="패스_136" data-name="패스 136" d="M34.342,13.782A.781.781,0,0,0,33.562,13H10.716a.781.781,0,1,0,0,1.561H33.562a.781.781,0,0,0,.781-.781" transform="translate(6.849 8.964)" fill="#272525"/>
    <path id="패스_137" data-name="패스 137" d="M58.241,20.824,48.6,13.777v-1.7a6.3,6.3,0,0,0-6.408-6.163H37.84L30.053.226a1.171,1.171,0,0,0-1.382,0l-7.788,5.69H16.531a6.3,6.3,0,0,0-6.406,6.163v1.7L.481,20.824A1.168,1.168,0,0,0,0,21.763a1.09,1.09,0,0,0,.024.2A1,1,0,0,0,0,22.118V51.267a1.143,1.143,0,0,0,.117.483,1.158,1.158,0,0,0-.054.855,1.172,1.172,0,0,0,1.11.792H57.55a1.171,1.171,0,0,0,1.11-.794,1.154,1.154,0,0,0-.056-.853,1.12,1.12,0,0,0,.118-.483V22.118a1.187,1.187,0,0,0-.022-.155,1.2,1.2,0,0,0,.022-.208,1.176,1.176,0,0,0-.481-.931M48.6,16.679l7,5.114-6.751,5.2-.248.181ZM29.362,2.622l4.506,3.294H24.853Zm-16.9,9.457a3.954,3.954,0,0,1,4.065-3.821H42.192a3.954,3.954,0,0,1,4.065,3.821V28.872l-9.218,6.69a1.2,1.2,0,0,0-.443.2l-7.163,5.413-7.5-5.428h0l-9.464-6.871Zm-2.342,4.6V26.949L3.147,21.775ZM2.343,24.415,19.251,36.692,2.343,48.969ZM4.6,51.056l16.67-12.9,7.494,5.42a1.174,1.174,0,0,0,1.392-.015l7.143-5.4L54.1,51.056ZM56.38,48.969,39.472,36.692,56.38,24.415Z" transform="translate(0 0.001)" fill="#272525"/>
  </g>
</svg>
