<?xml version="1.0" encoding="iso-8859-1"?>
<!-- Generator: Adobe Illustrator 19.1.0, SVG Export Plug-In . SVG Version: 6.00 Build 0)  -->
<svg version="1.1" id="Capa_1" xmlns="http://www.w3.org/2000/svg" xmlns:xlink="http://www.w3.org/1999/xlink" x="0px" y="0px"
	 viewBox="0 0 25.482 25.482" style="enable-background:new 0 0 25.482 25.482;" xml:space="preserve">
<g>
	<path d="M24.021,23.258l-2.701,0.477l-1.801-9.85c1.112-0.424,1.959-1.589,2.436-3.389c0.53-1.906,0.583-4.29,0.159-6.726
		c-0.212-1.218-0.53-2.33-0.953-3.442c-0.106-0.212-0.318-0.371-0.583-0.318l-7.838,1.43L4.904,0.01
		C4.639-0.043,4.427,0.116,4.321,0.328C3.897,1.387,3.58,2.552,3.368,3.77c-0.424,2.436-0.371,4.819,0.159,6.726
		c0.477,1.748,1.377,2.913,2.436,3.389l-1.801,9.85l-2.701-0.477c-0.265-0.053-0.583,0.159-0.635,0.424
		c-0.053,0.265,0.159,0.583,0.424,0.635l6.461,1.165c0.053,0,0.053,0,0.106,0c0.265,0,0.477-0.159,0.53-0.424
		s-0.159-0.583-0.424-0.635l-2.701-0.477l1.801-9.85c2.33-0.053,4.713-3.124,5.719-7.467c1.059,4.342,3.389,7.414,5.719,7.467
		l1.801,9.85l-2.701,0.477c-0.265,0.053-0.477,0.318-0.424,0.635c0.053,0.265,0.265,0.424,0.53,0.424c0.053,0,0.053,0,0.106,0
		l6.461-1.165c0.265-0.053,0.477-0.318,0.424-0.635C24.604,23.417,24.286,23.205,24.021,23.258z M11.947,5.359
		c-0.794,4.501-3.23,7.996-5.243,7.626l0,0l0,0c-0.9-0.159-1.695-1.165-2.118-2.754C4.109,8.483,4.056,6.259,4.48,3.982
		c0.159-1.006,0.424-1.906,0.741-2.807l7.043,1.271C12.212,3.4,12.106,4.406,11.947,5.359z M13.536,5.359
		c-0.159-1.006-0.265-1.959-0.265-2.913l7.043-1.271c0.318,0.9,0.583,1.853,0.741,2.807c0.424,2.277,0.371,4.501-0.106,6.249
		c-0.424,1.589-1.218,2.595-2.118,2.754l0,0l0,0C16.766,13.408,14.383,9.86,13.536,5.359z"/>
</g>
<g>
</g>
<g>
</g>
<g>
</g>
<g>
</g>
<g>
</g>
<g>
</g>
<g>
</g>
<g>
</g>
<g>
</g>
<g>
</g>
<g>
</g>
<g>
</g>
<g>
</g>
<g>
</g>
<g>
</g>
</svg>
