<svg id="그룹_13" data-name="그룹 13" xmlns="http://www.w3.org/2000/svg" width="52.079" height="48.83" viewBox="0 0 52.079 48.83">
  <path id="패스_65" data-name="패스 65" d="M129.6,32.548a1.429,1.429,0,0,1-1.428,1.427h-1.531a1.429,1.429,0,0,1-1.428-1.427V29.375h-1.635a2.562,2.562,0,0,1-.4-.04v3.213a3.463,3.463,0,0,0,3.461,3.459h1.531a3.464,3.464,0,0,0,3.461-3.459V29.375H129.6Z" transform="translate(-120.933 11.997)" fill="#272525"/>
  <path id="패스_66" data-name="패스 66" d="M155.22,29.463v4a1.429,1.429,0,0,1-1.428,1.427h-1.533a1.429,1.429,0,0,1-1.427-1.427v-4H148.8v4a3.463,3.463,0,0,0,3.459,3.459h1.533a3.463,3.463,0,0,0,3.459-3.459V29.178a2.6,2.6,0,0,1-1.17.285Z" transform="translate(-106.649 11.909)" fill="#272525"/>
  <path id="패스_67" data-name="패스 67" d="M125.346,37.6V26.554a1.407,1.407,0,0,1,1.344-1.459h41.6a1.406,1.406,0,0,1,1.344,1.459V37.6h.861a2.6,2.6,0,0,1,1.17.285V26.554a3.439,3.439,0,0,0-3.375-3.492h-.852V17.932a3.519,3.519,0,0,0,1.519.333,2.743,2.743,0,0,0,3-2.475V11.534a2.744,2.744,0,0,0-3-2.475,3.519,3.519,0,0,0-1.519.333V6.881c0-2.251-1.553-4.082-3.459-4.082H131c-1.908,0-3.459,1.832-3.459,4.082V9.324a3.9,3.9,0,0,0-1.436-.265c-1.774,0-3.163,1.087-3.163,2.475v4.257c0,1.389,1.389,2.475,3.163,2.475A3.967,3.967,0,0,0,127.544,18v5.059h-.854a3.439,3.439,0,0,0-3.375,3.492v11.09a2.745,2.745,0,0,1,.4-.039Zm42.646-26.071c0-.134.365-.444.967-.444s.967.31.967.444v4.257c0,.136-.366.442-.967.442s-.967-.307-.967-.442ZM129.576,6.881c0-1.112.654-2.051,1.427-2.051h32.978c.774,0,1.427.939,1.427,2.051v16.18H129.576Zm-2.338,8.909c-.017.1-.4.442-1.131.442s-1.115-.34-1.132-.442V11.535c.017-.1.4-.445,1.132-.445s1.115.341,1.131.444Z" transform="translate(-121.066 -2.799)" fill="#272525"/>
  <path id="패스_68" data-name="패스 68" d="M171.171,25.145H124.383a2.541,2.541,0,0,0-.4.04,2.642,2.642,0,0,0-2.249,2.606v1.276a2.642,2.642,0,0,0,2.249,2.606,2.541,2.541,0,0,0,.4.039h46.788a2.614,2.614,0,0,0,1.17-.283,2.642,2.642,0,0,0,1.477-2.361V27.791a2.642,2.642,0,0,0-1.477-2.361,2.615,2.615,0,0,0-1.17-.285m1.162,3.922a1.164,1.164,0,0,1-1.162,1.162H124.383a1.164,1.164,0,0,1-1.162-1.162V27.791a1.163,1.163,0,0,1,1.162-1.16h46.788a1.163,1.163,0,0,1,1.162,1.16Z" transform="translate(-121.738 9.66)" fill="#272525"/>
  <path id="패스_69" data-name="패스 69" d="M158.307,6.023H131.151a2.34,2.34,0,0,0-2.338,2.336V16.3a2.34,2.34,0,0,0,2.338,2.336h27.156a2.339,2.339,0,0,0,2.336-2.336V8.359a2.339,2.339,0,0,0-2.336-2.336M159.628,16.3a1.323,1.323,0,0,1-1.321,1.321H131.151A1.322,1.322,0,0,1,129.83,16.3V8.359a1.322,1.322,0,0,1,1.321-1.319h27.156a1.322,1.322,0,0,1,1.321,1.319Z" transform="translate(-117.793 -1.001)" fill="#272525" stroke="#272525" stroke-width="0.3"/>
  <path id="패스_70" data-name="패스 70" d="M131.365,19.176a2.878,2.878,0,1,0,2.878,2.878,2.882,2.882,0,0,0-2.878-2.878m0,4.74a1.862,1.862,0,1,1,1.861-1.861,1.865,1.865,0,0,1-1.861,1.861" transform="translate(-117.975 6.332)" fill="#272525" stroke="#272525" stroke-width="0.3"/>
  <path id="패스_71" data-name="패스 71" d="M148.758,19.176a2.878,2.878,0,1,0,2.878,2.878,2.882,2.882,0,0,0-2.878-2.878m0,4.74a1.862,1.862,0,1,1,1.861-1.861,1.864,1.864,0,0,1-1.861,1.861" transform="translate(-108.277 6.332)" fill="#272525" stroke="#272525" stroke-width="0.3"/>
</svg>
