<svg id="그룹_3" data-name="그룹 3" xmlns="http://www.w3.org/2000/svg" width="52.115" height="57.691" viewBox="0 0 52.115 57.691">
  <path id="패스_60" data-name="패스 60" d="M727.337,30.147a16.555,16.555,0,1,0,15.628,22.011c1.119.045,2.14.062,2.975.062,5.084,0,16.908-.54,16.908-5.522V39.964a2.218,2.218,0,0,0,.047-.456,2.067,2.067,0,0,0-.047-.429V33.606a2.218,2.218,0,0,0,.047-.456,2.1,2.1,0,0,0-.047-.431V26.627a2.218,2.218,0,0,0,.047-.456,2.147,2.147,0,0,0-.136-.741,2.929,2.929,0,0,0,.089-.687V18.007a2.192,2.192,0,0,0,.047-.456,2.067,2.067,0,0,0-.047-.429V11.03a2.223,2.223,0,0,0,.047-.458,2.168,2.168,0,0,0-.144-.767,2.115,2.115,0,0,0-.89-1.208c-3.455-2.93-14.46-3.032-15.922-3.032s-12.463.1-15.918,3.032A2.113,2.113,0,0,0,729.13,9.8a2.172,2.172,0,0,0-.144.768,2.223,2.223,0,0,0,.047.458v6.093a2.059,2.059,0,0,0-.047.429,2.192,2.192,0,0,0,.047.456V24.66l0,.045,0,.038a2.922,2.922,0,0,0,.089.687,2.185,2.185,0,0,0-.136.741,2.218,2.218,0,0,0,.047.456v3.608a15.886,15.886,0,0,0-1.7-.087m33.58,16.418c0,.04,0,.084,0,.118,0,.018,0,.036,0,.056-.1,1.856-6.777,3.359-14.977,3.359-.814,0-1.609-.02-2.387-.047a16.685,16.685,0,0,0,.34-3.35c0-.292-.009-.581-.024-.87.761.02,1.468.029,2.071.029,3.813,0,11.413-.3,14.977-2.552Zm0-6.36c0,.04,0,.084,0,.12l0,.056c-.1,1.855-6.777,3.359-14.977,3.359-.794,0-1.566-.02-2.327-.045a16.409,16.409,0,0,0-1.751-4.93c1.548.091,2.975.118,4.078.118,3.813,0,11.413-.3,14.977-2.554Zm0-15.6c0,.04,0,.084,0,.118,0,.018,0,.036,0,.058-.1,1.855-6.777,3.357-14.977,3.357s-14.883-1.5-14.975-3.359c0-.038,0-.073,0-.105s0-.045,0-.071l0-3.878c3.564,2.254,11.168,2.556,14.979,2.556s11.413-.3,14.977-2.552ZM745.94,8.009c8.5,0,13.773,1.579,14.661,2.563-.888.986-6.158,2.565-14.661,2.565s-13.771-1.579-14.659-2.565c.888-.985,6.158-2.563,14.659-2.563m0,7.571c1.348,0,10.8-.087,14.977-2.394V17.63c0,.044,0,.085,0,.12l0,.056c-.1,1.855-6.777,3.359-14.977,3.359s-14.883-1.5-14.975-3.361c0-.036,0-.073,0-.105s0-.044,0-.069l0-4.445c4.174,2.309,13.635,2.4,14.979,2.4m0,15.6c1.348,0,10.8-.087,14.977-2.394v4.445c0,.04,0,.084,0,.118,0,.018,0,.036,0,.056-.1,1.856-6.777,3.359-14.977,3.359-1.967,0-3.844-.087-5.566-.245a16.586,16.586,0,0,0-9.413-5.965V28.781c4.174,2.309,13.635,2.4,14.979,2.4M741.771,46.7a14.434,14.434,0,1,1-14.434-14.434A14.45,14.45,0,0,1,741.771,46.7" transform="translate(-710.781 -5.566)" fill="#272525"/>
  <path id="패스_61" data-name="패스 61" d="M713.754,33.225A11.154,11.154,0,1,0,724.907,22.07a11.169,11.169,0,0,0-11.153,11.155m20.9,0a9.741,9.741,0,1,1-9.742-9.74,9.753,9.753,0,0,1,9.742,9.74" transform="translate(-708.353 7.91)" fill="#272525"/>
  <path id="패스_62" data-name="패스 62" d="M720.346,24.657v1.193a3.955,3.955,0,0,0-1.49.979,3.583,3.583,0,0,0-.964,2.476,3.427,3.427,0,0,0,.278,1.386,3.711,3.711,0,0,0,1.288,1.519,8.282,8.282,0,0,0,1.807.93,2.921,2.921,0,0,1,1,.565.506.506,0,0,1,.12.165.432.432,0,0,1,.029.174.36.36,0,0,1-.136.307,1.137,1.137,0,0,1-.7.193,3.007,3.007,0,0,1-1.729-.512l-.418-.28a.708.708,0,0,0-1.057.351l-.658,1.84a.7.7,0,0,0,.252.814l.242.174a4.818,4.818,0,0,0,1.433.661c.194.056.392.1.592.144v1.048a.707.707,0,0,0,.707.707h1.809a.708.708,0,0,0,.708-.707V37.54a4,4,0,0,0,1.64-1.121,3.763,3.763,0,0,0,.928-2.481,3.958,3.958,0,0,0-.223-1.348,3.682,3.682,0,0,0-1.164-1.613,6.712,6.712,0,0,0-1.778-1.014l-.073-.031a4.612,4.612,0,0,1-1.2-.625.364.364,0,0,1-.093-.1.411.411,0,0,1-.007-.093.208.208,0,0,1,.058-.154.844.844,0,0,1,.563-.144,2.871,2.871,0,0,1,.937.147,3.175,3.175,0,0,1,.565.258l.4.229a.7.7,0,0,0,1.012-.363l.689-1.811a.712.712,0,0,0-.3-.861l-.285-.167a5.15,5.15,0,0,0-1.571-.6v-.992a.707.707,0,0,0-.706-.708h-1.793a.708.708,0,0,0-.707.708m1.415,1.713V25.362h.378v.9a.706.706,0,0,0,.64.7,4.141,4.141,0,0,1,1.4.378l-.182.481a4.387,4.387,0,0,0-.492-.2,4.32,4.32,0,0,0-1.392-.22,2.148,2.148,0,0,0-1.546.543,1.621,1.621,0,0,0-.487,1.17,1.563,1.563,0,0,0,.145.7,1.686,1.686,0,0,0,.434.561,5.885,5.885,0,0,0,1.628.886h0a5.559,5.559,0,0,1,1.451.814,2.291,2.291,0,0,1,.732,1,2.562,2.562,0,0,1,.138.872,2.339,2.339,0,0,1-.576,1.551h0a2.764,2.764,0,0,1-1.45.843.705.705,0,0,0-.539.687v1.055h-.394v-.954a.709.709,0,0,0-.645-.7,5.1,5.1,0,0,1-.966-.182,3.863,3.863,0,0,1-.81-.331l.178-.492a4.715,4.715,0,0,0,2.16.547,2.388,2.388,0,0,0,1.62-.527,1.779,1.779,0,0,0,.641-1.382,1.833,1.833,0,0,0-.143-.734,1.923,1.923,0,0,0-.412-.6,4.361,4.361,0,0,0-1.481-.886,6.971,6.971,0,0,1-1.51-.767,2.278,2.278,0,0,1-.814-.934,2.055,2.055,0,0,1-.16-.821,2.18,2.18,0,0,1,.583-1.506,2.7,2.7,0,0,1,1.333-.741.706.706,0,0,0,.54-.687" transform="translate(-705.156 9.444)" fill="#272525"/>
</svg>
