<?xml version="1.0" ?><svg viewBox="0 0 64 64" xmlns="http://www.w3.org/2000/svg"><title/><g data-name="Layer 7" id="Layer_7"><path d="M62.865,3.831a3.838,3.838,0,0,0-1.708-.988,3.841,3.841,0,1,0-7.031,2.921L41.4,18.494l-.007-.007a1,1,0,0,0-1.045-.235L24.117,24.073a18.308,18.308,0,0,1-5.489,1.059,19.442,19.442,0,0,0-.215,38.838c.358.02.714.03,1.07.03A19.379,19.379,0,0,0,38.868,45.376a18.356,18.356,0,0,1,1.059-5.495l5.822-16.225a1,1,0,0,0-.234-1.045l-.008-.007L58.235,9.875a3.843,3.843,0,0,0,1.923.519h.014a3.8,3.8,0,0,0,2.708-1.12A3.853,3.853,0,0,0,62.865,3.831ZM38.044,39.206A20.349,20.349,0,0,0,36.87,45.3,17.472,17.472,0,1,1,18.706,27.13a20.307,20.307,0,0,0,6.086-1.174l15.632-5.607,3.228,3.228ZM61.466,7.86a1.827,1.827,0,0,1-1.3.534,1.856,1.856,0,0,1-1.314-.549,1.029,1.029,0,0,0-1.414,0L44.1,21.188l-1.282-1.282L56.155,6.563a1,1,0,0,0,0-1.414,1.861,1.861,0,0,1-.549-1.315,1.815,1.815,0,0,1,.534-1.3,1.853,1.853,0,0,1,3.151,1.232,1,1,0,0,0,.943.943A1.853,1.853,0,0,1,61.466,7.86Z"/><path d="M18,54a1,1,0,0,0-1,1v2a1,1,0,0,0,2,0V55A1,1,0,0,0,18,54Z"/><path d="M22,54a1,1,0,0,0-1,1v2a1,1,0,0,0,2,0V55A1,1,0,0,0,22,54Z"/><path d="M26,54a1,1,0,0,0-1,1v2a1,1,0,0,0,2,0V55A1,1,0,0,0,26,54Z"/></g></svg>