<svg id="그룹_106" data-name="그룹 106" xmlns="http://www.w3.org/2000/svg" xmlns:xlink="http://www.w3.org/1999/xlink" width="39.035" height="54.698" viewBox="0 0 39.035 54.698">
  <defs>
    <clipPath id="clip-path">
      <rect id="사각형_47" data-name="사각형 47" width="39.035" height="54.698" fill="none"/>
    </clipPath>
  </defs>
  <g id="그룹_105" data-name="그룹 105" transform="translate(0 0)" clip-path="url(#clip-path)">
    <path id="패스_223" data-name="패스 223" d="M34.894.3A1.353,1.353,0,0,0,33.746.033L1.088,7.282h0l-.018.005a1.447,1.447,0,0,0-.232.072c-.015.008-.028.017-.043.023a1.429,1.429,0,0,0-.179.1C.59,7.5.57,7.514.548,7.531a1.105,1.105,0,0,0-.129.105c-.022.022-.042.047-.065.07a1.115,1.115,0,0,0-.1.117A.926.926,0,0,0,.2,7.908a1.075,1.075,0,0,0-.07.129c-.015.033-.03.064-.042.1a1.463,1.463,0,0,0-.045.145c-.008.03-.017.064-.023.1a1.43,1.43,0,0,0-.017.172c0,.023-.007.045-.007.069V53.336A1.362,1.362,0,0,0,1.362,54.7H37.671a1.363,1.363,0,0,0,1.364-1.362V8.617a1.363,1.363,0,0,0-1.364-1.364H35.4V1.364A1.356,1.356,0,0,0,34.894.3M32.679,7.253H13.788L32.679,3.062Zm3.632,44.721H2.726V9.979H36.311Z" transform="translate(0 0.001)" fill="#272525"/>
    <path id="패스_224" data-name="패스 224" d="M5.662,30.163H7.123V27.235h.6a2.2,2.2,0,0,0-.01-4.4H5.662Zm1.461-5.856h.588a.73.73,0,1,1,0,1.459H7.123Z" transform="translate(3.801 15.33)" fill="#272525"/>
    <path id="패스_225" data-name="패스 225" d="M10.674,22.838,8.027,30.163H9.581l.745-2.049h2.251l.744,2.049h1.556L12.23,22.838Zm.184,3.807.59-1.651.6,1.651Z" transform="translate(5.388 15.33)" fill="#272525"/>
    <path id="패스_226" data-name="패스 226" d="M17.141,27.969a2.1,2.1,0,0,0-2.116-2.126,1.338,1.338,0,0,1-.976-.329.762.762,0,0,1-.174-.473.734.734,0,0,1,.734-.734,2.194,2.194,0,0,1,1.2.358l1.053-1.053a3.645,3.645,0,0,0-2.253-.774,2.2,2.2,0,0,0-.521,4.339,4.885,4.885,0,0,1,1.3.232.621.621,0,0,1,.289.56.73.73,0,0,1-.724.734,2.188,2.188,0,0,1-1.5-.588l-1.033,1.034a3.645,3.645,0,0,0,2.532,1.014,2.2,2.2,0,0,0,2.193-2.194" transform="translate(8.334 15.33)" fill="#272525"/>
    <path id="패스_227" data-name="패스 227" d="M17.726,24.307a2.185,2.185,0,0,1,1.2.358l1.053-1.055a3.649,3.649,0,0,0-2.251-.772,2.2,2.2,0,0,0-.521,4.339,4.885,4.885,0,0,1,1.294.232.619.619,0,0,1,.291.56.732.732,0,0,1-.725.734,2.183,2.183,0,0,1-1.5-.588l-1.034,1.033a3.642,3.642,0,0,0,2.532,1.016,2.2,2.2,0,0,0,2.194-2.194,2.1,2.1,0,0,0-2.116-2.126,1.34,1.34,0,0,1-.976-.329.762.762,0,0,1-.174-.473.733.733,0,0,1,.734-.734" transform="translate(10.426 15.33)" fill="#272525"/>
    <path id="패스_228" data-name="패스 228" d="M15.481,27.466A9.468,9.468,0,1,0,6.012,18a9.479,9.479,0,0,0,9.469,9.469m0-16.213A6.743,6.743,0,1,1,8.738,18a6.752,6.752,0,0,1,6.743-6.743" transform="translate(4.035 5.726)" fill="#272525"/>
  </g>
</svg>
