<svg id="그룹_34" data-name="그룹 34" xmlns="http://www.w3.org/2000/svg" xmlns:xlink="http://www.w3.org/1999/xlink" width="49.208" height="49.206" viewBox="0 0 49.208 49.206">
  <defs>
    <clipPath id="clip-path">
      <rect id="사각형_11" data-name="사각형 11" width="49.208" height="49.206" fill="none"/>
    </clipPath>
  </defs>
  <g id="그룹_33" data-name="그룹 33" transform="translate(0 0)" clip-path="url(#clip-path)">
    <path id="패스_106" data-name="패스 106" d="M42.281,7.512a24.557,24.557,0,0,0-34.808-.55v0a24.559,24.559,0,0,0,0,35.281l0,0A24.59,24.59,0,0,0,42.283,7.514ZM8.237,9.316A22.186,22.186,0,0,1,14.25,23.505H2.221A22.19,22.19,0,0,1,8.237,9.316M2.221,25.7H14.25A22.183,22.183,0,0,1,8.237,39.89,22.186,22.186,0,0,1,2.221,25.7M23.507,46.985A22.254,22.254,0,0,1,9.812,41.42a.386.386,0,0,1,.035-.039c.1-.1.19-.214.284-.32.175-.2.352-.387.52-.586.106-.123.205-.251.308-.377.151-.185.3-.37.448-.56.1-.135.2-.273.3-.411.136-.183.273-.369.4-.555.1-.143.2-.291.293-.436.123-.185.246-.37.363-.56.094-.151.183-.3.274-.454.113-.19.224-.379.332-.57.086-.155.17-.311.254-.466.1-.2.2-.389.3-.584.079-.16.155-.32.231-.48.093-.2.183-.4.271-.6.071-.162.14-.325.207-.488.084-.2.163-.407.242-.613.061-.165.123-.326.182-.493q.111-.313.212-.631c.054-.165.108-.328.156-.5.066-.215.125-.431.183-.65q.068-.245.131-.495c.056-.222.1-.448.155-.671.035-.165.072-.326.1-.491.047-.234.084-.468.125-.7.027-.158.056-.315.079-.473.037-.252.064-.5.094-.757.017-.145.037-.289.05-.434.029-.289.047-.579.066-.87.007-.111.019-.224.024-.335l.005-.123h7.059Zm0-23.48H16.447l-.005-.123c-.005-.113-.017-.224-.024-.335-.019-.291-.037-.581-.066-.87-.013-.145-.034-.288-.05-.432-.03-.252-.057-.508-.094-.759-.024-.158-.052-.316-.079-.471-.04-.237-.077-.473-.125-.705-.032-.165-.069-.328-.1-.49-.05-.225-.1-.451-.155-.673-.042-.165-.086-.33-.131-.5-.059-.217-.118-.432-.183-.648-.049-.167-.1-.332-.156-.5q-.1-.316-.212-.631c-.059-.165-.121-.33-.182-.491-.079-.205-.158-.411-.242-.616-.067-.162-.136-.323-.207-.486-.088-.2-.178-.4-.271-.6-.076-.16-.151-.32-.229-.476-.1-.2-.2-.394-.3-.587-.082-.156-.167-.31-.252-.464-.108-.194-.219-.384-.333-.574-.089-.151-.178-.3-.273-.451-.118-.19-.241-.377-.365-.564-.1-.145-.19-.289-.289-.432-.131-.188-.269-.374-.406-.559-.1-.138-.2-.274-.3-.409-.146-.19-.3-.375-.453-.564-.1-.123-.2-.249-.3-.372-.17-.2-.345-.394-.522-.589-.1-.1-.187-.212-.283-.315-.013-.013-.024-.029-.035-.04A22.24,22.24,0,0,1,23.507,2.223ZM25.7,2.221A22.182,22.182,0,0,1,39.968,8.31l-.039.047c-.1.109-.188.222-.284.333-.156.185-.313.367-.464.554-.1.128-.2.256-.293.382-.138.177-.276.357-.407.537-.1.135-.194.271-.288.409-.125.178-.249.357-.369.538-.094.141-.183.284-.274.427-.113.182-.225.362-.335.545-.089.148-.172.3-.256.444-.1.183-.207.367-.306.554q-.121.227-.237.459c-.094.185-.187.372-.274.56-.076.156-.146.313-.219.469-.084.192-.167.382-.247.574-.066.16-.131.32-.2.48-.076.2-.15.389-.22.586-.059.162-.118.321-.173.485-.066.2-.131.4-.192.6-.05.162-.1.326-.15.491-.059.2-.113.407-.167.611-.042.165-.086.328-.125.495-.05.207-.1.417-.138.628-.035.165-.071.326-.1.491-.04.217-.076.436-.111.655-.027.158-.054.316-.076.478-.034.229-.059.461-.086.692-.017.151-.037.3-.05.451-.024.257-.04.515-.056.772-.008.13-.02.256-.027.384,0,.024,0,.044,0,.066H25.7Zm0,44.764V25.7h8.1c0,.02,0,.044,0,.066.007.128.019.254.027.382.015.259.032.517.056.772.013.151.034.3.05.451.027.234.052.464.086.695.022.16.049.316.076.476.035.219.071.438.111.656.032.163.067.326.1.49.044.21.089.421.14.629.039.163.082.328.125.493.054.2.108.409.167.613.047.163.1.326.148.49.062.2.128.4.2.6.054.162.113.321.172.483.071.2.145.392.22.587.064.16.128.32.194.476.082.194.165.385.251.576.071.158.141.313.215.469.089.188.182.377.278.564.076.151.155.3.236.456.1.187.2.374.308.557.082.148.165.294.252.441.111.183.225.367.34.549.089.141.177.284.269.424.121.182.246.362.372.542.094.135.187.271.284.4.133.183.271.36.409.54.1.126.194.254.293.379.151.187.306.369.463.55.1.114.187.229.286.34l.039.045A22.17,22.17,0,0,1,25.7,46.985M41.494,39.31A22.265,22.265,0,0,1,36,25.7H46.985A22.274,22.274,0,0,1,41.494,39.31M36,23.505A22.26,22.26,0,0,1,41.494,9.9a22.258,22.258,0,0,1,5.489,13.607Z" transform="translate(0 0)" fill="#272525"/>
  </g>
</svg>
