<svg id="그룹_122" data-name="그룹 122" xmlns="http://www.w3.org/2000/svg" xmlns:xlink="http://www.w3.org/1999/xlink" width="53.624" height="37.956" viewBox="0 0 53.624 37.956">
  <defs>
    <clipPath id="clip-path">
      <rect id="사각형_55" data-name="사각형 55" width="53.624" height="37.956" fill="none"/>
    </clipPath>
  </defs>
  <g id="그룹_121" data-name="그룹 121" transform="translate(0 0)" clip-path="url(#clip-path)">
    <path id="패스_256" data-name="패스 256" d="M52.44,1.181A4.036,4.036,0,0,0,49.584,0H4.04A4.04,4.04,0,0,0,0,4.042V33.916a4.037,4.037,0,0,0,4.042,4.04H49.584a4.037,4.037,0,0,0,4.04-4.04V4.04a4.026,4.026,0,0,0-1.179-2.854l-.005-.005m-.994,32.733a1.859,1.859,0,0,1-1.862,1.864H4.042a1.862,1.862,0,0,1-1.862-1.862V4.042A1.859,1.859,0,0,1,4.042,2.179H49.583a1.859,1.859,0,0,1,1.864,1.862Z" transform="translate(0 0)" fill="#272525"/>
    <path id="패스_257" data-name="패스 257" d="M30.22,15.321,19.974,8.837,12.968,4.407A1.089,1.089,0,0,0,11.3,5.32l-.115,21.654a1.089,1.089,0,0,0,1.663.932L30.211,17.168a1.089,1.089,0,0,0,.008-1.847m-16.849,9.7.1-17.721,14.119,8.933Z" transform="translate(7.492 2.84)" fill="#272525"/>
  </g>
</svg>
