<svg id="그룹_90" data-name="그룹 90" xmlns="http://www.w3.org/2000/svg" xmlns:xlink="http://www.w3.org/1999/xlink" width="42.588" height="54.031" viewBox="0 0 42.588 54.031">
  <defs>
    <clipPath id="clip-path">
      <rect id="사각형_39" data-name="사각형 39" width="42.588" height="54.031" fill="none"/>
    </clipPath>
  </defs>
  <g id="그룹_89" data-name="그룹 89" transform="translate(0 0)" clip-path="url(#clip-path)">
    <path id="패스_206" data-name="패스 206" d="M40.949,19.812A18.789,18.789,0,1,0,22.159,38.6,18.824,18.824,0,0,0,40.949,19.812m-1.938,0a16.784,16.784,0,0,1-.192,2.534,29.229,29.229,0,0,1-8.443,4.095,18.745,18.745,0,0,0,.418-2.484,24.665,24.665,0,0,0-1.6-10.841,24.611,24.611,0,0,0,6.794-2.935,16.882,16.882,0,0,1,3.027,9.631m-9.182,4.05a17.768,17.768,0,0,1-.52,2.865,24.365,24.365,0,0,1-14.188-.908c-.122-.043-.235-.091-.355-.135a17.419,17.419,0,0,1-.275-1.816,24.052,24.052,0,0,1,1.827-11.059,25.419,25.419,0,0,0,7.1,1.042,23.07,23.07,0,0,0,4.795-.5,23.674,23.674,0,0,1,1.617,10.512M35.184,9.123c.076.091.146.184.218.276a23.556,23.556,0,0,1-6.565,2.8,41.014,41.014,0,0,0-5.229-9.173A16.8,16.8,0,0,1,35.184,9.123M22.159,2.963l.169,0a41.293,41.293,0,0,1,5.524,9.464,23.374,23.374,0,0,1-11.165-.52,41.7,41.7,0,0,1,5.3-8.944c.056,0,.111,0,.166,0m-1.449.067a41.442,41.442,0,0,0-4.985,8.585A27.654,27.654,0,0,1,9.511,8.691a16.781,16.781,0,0,1,11.2-5.661M5.309,19.812A16.881,16.881,0,0,1,8.886,9.438a28.49,28.49,0,0,0,6.474,3.075,25.028,25.028,0,0,0-1.834,11.444c.043.441.107.875.178,1.306a31.886,31.886,0,0,1-8.39-5.215c0-.079-.006-.158-.006-.236m.077,1.574A32.586,32.586,0,0,0,13.935,26.4,19.771,19.771,0,0,0,20.1,36.532,16.874,16.874,0,0,1,5.386,21.386M22.159,36.663c-.149,0-.3-.007-.443-.012a19.516,19.516,0,0,1-6.679-9.836,26.322,26.322,0,0,0,8.681,1.506A25.154,25.154,0,0,0,29,27.753a19.863,19.863,0,0,1-6.391,8.9c-.149,0-.3.012-.446.012m2.06-.131a20.059,20.059,0,0,0,5.875-9.042,29.16,29.16,0,0,0,8.461-3.8A16.888,16.888,0,0,1,24.219,36.532" transform="translate(1.639 0.497)" fill="#272525"/>
    <path id="패스_207" data-name="패스 207" d="M20.168,45.947H14.582a4.042,4.042,0,0,0,0,8.084H33.017a4.042,4.042,0,0,0,0-8.084H27.432v-.932a3.614,3.614,0,0,0-.32-1.483A34.916,34.916,0,0,0,33.729,41.9a1.212,1.212,0,0,0-.8-2.289,27.714,27.714,0,0,1-11.279,1.7C11.26,40.46,2.455,30.538,2.424,19.641A21.357,21.357,0,0,1,3,14.556,18.339,18.339,0,0,1,6.55,7.351,17.725,17.725,0,0,1,12.927,2.32,1.211,1.211,0,1,0,11.948.1a19.928,19.928,0,0,0-7.28,5.718A20.789,20.789,0,0,0,.641,13.985,23.8,23.8,0,0,0,0,19.648C.034,31.4,9.3,42.133,20.451,43.614a3.6,3.6,0,0,0-.282,1.4Zm.969,1.94a.969.969,0,0,0,.969-.969v-1.9a1.685,1.685,0,0,1,.537-1.231c.245.007.492.015.74.015.5,0,1.014-.021,1.528-.052a1.684,1.684,0,0,1,.583,1.268v1.9a.969.969,0,0,0,.969.969h6.554a2.1,2.1,0,1,1,0,4.206H14.582a2.1,2.1,0,0,1,0-4.206Z" transform="translate(0 0)" fill="#272525"/>
  </g>
</svg>
