<svg id="그룹_7" data-name="그룹 7" xmlns="http://www.w3.org/2000/svg" width="56.049" height="61.085" viewBox="0 0 56.049 61.085">
  <path id="패스_2" data-name="패스 2" d="M267.214,28.6h4.222V41.847a.726.726,0,0,0,.725.727h3.709a.726.726,0,0,0,.725-.727V21.615a.725.725,0,0,0-.725-.725h-3.159a.726.726,0,0,0-.726.725,2.583,2.583,0,0,1-.124.6,2.82,2.82,0,0,1-.607,1.153,2.964,2.964,0,0,1-1.575.847,17.12,17.12,0,0,1-2.5.235.722.722,0,0,0-.692.723v2.7a.725.725,0,0,0,.725.725m.725-2.737a14.209,14.209,0,0,0,2.056-.232,4.424,4.424,0,0,0,2.313-1.266,4.214,4.214,0,0,0,.948-1.746c.028-.1.053-.193.075-.282h1.814V41.124h-2.256V27.879a.726.726,0,0,0-.726-.725h-4.223Z" transform="translate(-252.205 8.781)" fill="#272525"/>
  <path id="패스_3" data-name="패스 3" d="M276.509,41.048a7.858,7.858,0,0,0,5.192,1.713,7.238,7.238,0,0,0,5.931-2.467,8.441,8.441,0,0,0,1.955-5.454,6.811,6.811,0,0,0-6.951-7.307,6.678,6.678,0,0,0-2.355.367c-.105.039-.218.086-.339.144l.193-2.362h6.608a.725.725,0,0,0,.725-.725V21.593a.726.726,0,0,0-.725-.727H275.9a.727.727,0,0,0-.723.676l-.761,11.147a.727.727,0,0,0,.7.775l3.96.166a.717.717,0,0,0,.673-.391,1.757,1.757,0,0,1,.992-.887,3.191,3.191,0,0,1,1.017-.141,1.811,1.811,0,0,1,1.649.745,3.862,3.862,0,0,1,.6,2.2,3.571,3.571,0,0,1-.626,2.176,1.9,1.9,0,0,1-1.662.747,1.856,1.856,0,0,1-1.419-.48,3.149,3.149,0,0,1-.714-1.627.724.724,0,0,0-.712-.595h-3.954a.728.728,0,0,0-.723.778,6.729,6.729,0,0,0,2.316,4.888m1.784-4.216a4.173,4.173,0,0,0,.951,1.772,3.264,3.264,0,0,0,2.471.931,3.324,3.324,0,0,0,2.824-1.331,4.976,4.976,0,0,0,.913-3.043,5.271,5.271,0,0,0-.846-3.016,3.224,3.224,0,0,0-2.85-1.384,4.617,4.617,0,0,0-1.5.224,3.169,3.169,0,0,0-1.552,1.177l-2.79-.116.664-9.729h9.434v1.916h-6.548a.724.724,0,0,0-.723.665l-.362,4.414a.726.726,0,0,0,1.122.665,7.244,7.244,0,0,1,1.285-.72,5.374,5.374,0,0,1,1.847-.275,5.366,5.366,0,0,1,5.5,5.858,6.929,6.929,0,0,1-1.629,4.538A5.792,5.792,0,0,1,281.7,41.31a6.371,6.371,0,0,1-4.262-1.376,4.987,4.987,0,0,1-1.706-3.1Z" transform="translate(-247.822 8.767)" fill="#272525"/>
  <path id="패스_4" data-name="패스 4" d="M307.265,11.421h-1.779a1.069,1.069,0,0,0-.435.093V5.562a3.58,3.58,0,1,0-7.16,0v5.88a1.175,1.175,0,0,0-.2-.02H273.127a1.108,1.108,0,0,0-.27.038v-5.9a3.58,3.58,0,1,0-7.16,0v5.927a1.063,1.063,0,0,0-.363-.067h-1.779a6.177,6.177,0,0,0-6.17,6.171V56.9a6.176,6.176,0,0,0,6.17,6.168h43.71a6.177,6.177,0,0,0,6.17-6.168V17.592a6.178,6.178,0,0,0-6.17-6.171M299.9,5.562a1.575,1.575,0,1,1,3.149,0V16.337a1.575,1.575,0,1,1-3.149,0Zm-32.194,0a1.575,1.575,0,1,1,3.149,0V16.337a1.575,1.575,0,1,1-3.149,0ZM311.26,56.9a4,4,0,0,1-4,3.993h-43.71a4,4,0,0,1-3.995-3.993V17.592a4,4,0,0,1,3.995-3.995h.692v2.131a4.984,4.984,0,1,0,9.969,0V13.6H296.6v2.131a4.985,4.985,0,0,0,9.97,0V13.6h.69a4,4,0,0,1,4,3.995Z" transform="translate(-257.386 -1.981)" fill="#272525"/>
  <path id="패스_5" data-name="패스 5" d="M306.486,17.981H261.3a1.089,1.089,0,0,0-1.089,1.087v26.7a3.749,3.749,0,0,0,3.744,3.742h39.872a3.749,3.749,0,0,0,3.744-3.742v-26.7a1.088,1.088,0,0,0-1.087-1.087M305.4,45.772a1.569,1.569,0,0,1-1.567,1.566H263.958a1.569,1.569,0,0,1-1.568-1.566V20.157H305.4Z" transform="translate(-255.776 7.125)" fill="#272525"/>
</svg>
