<svg id="그룹_16" data-name="그룹 16" xmlns="http://www.w3.org/2000/svg" xmlns:xlink="http://www.w3.org/1999/xlink" width="58.889" height="57.779" viewBox="0 0 58.889 57.779">
  <defs>
    <clipPath id="clip-path">
      <rect id="사각형_2" data-name="사각형 2" width="58.889" height="57.779" fill="none"/>
    </clipPath>
  </defs>
  <g id="그룹_15" data-name="그룹 15" transform="translate(0 0)" clip-path="url(#clip-path)">
    <path id="패스_80" data-name="패스 80" d="M55.439,34.6H41.626V29.168a4.458,4.458,0,0,0-.589-2.243.909.909,0,0,0,.477-1.367L31.1,9.836V7.324l6.434-2.65a.91.91,0,0,0,0-1.682L30.445.069A.909.909,0,0,0,29.188.91V6.756a.909.909,0,0,0,.1.4V9.914L18.927,25.559a.911.911,0,0,0,.477,1.367,4.458,4.458,0,0,0-.589,2.243V34.6H3.451A3.453,3.453,0,0,0,0,38.05V54.33A3.454,3.454,0,0,0,3.451,57.78H55.439a3.455,3.455,0,0,0,3.451-3.451V38.05A3.454,3.454,0,0,0,55.439,34.6M31.008,2.269l3.8,1.564L31.008,5.4ZM30.222,11.8,39.063,25.15H21.379Zm2.121,44.03h-5.08v-10.1h5.08Zm24.728-1.5a1.634,1.634,0,0,1-1.632,1.632H34.162V44.819a.91.91,0,0,0-.909-.909h-6.9a.91.91,0,0,0-.909.909V55.961H3.451A1.634,1.634,0,0,1,1.819,54.33V38.05a1.634,1.634,0,0,1,1.632-1.632H19.736a.914.914,0,0,0,.908-.974c-.006-.074-.01-.146-.01-.223V29.168c0-1.193.748-2.2,1.63-2.2H38.177c.884,0,1.63,1.006,1.63,2.2v6.053c0,.075,0,.148-.008.22a.912.912,0,0,0,.908.976H55.439a1.634,1.634,0,0,1,1.632,1.632Z" transform="translate(0 0)" fill="#272525"/>
    <path id="패스_81" data-name="패스 81" d="M21.941,22.069H17.394a.455.455,0,0,0-.455.455v4.547a.455.455,0,0,0,.455.455h4.547a.456.456,0,0,0,.456-.455V22.524a.456.456,0,0,0-.456-.455m-.455,4.546H17.848V22.978h3.638Z" transform="translate(6.687 8.712)" fill="#272525" stroke="#272525" stroke-width="0.3"/>
    <path id="패스_82" data-name="패스 82" d="M27.166,22.069H22.621a.454.454,0,0,0-.455.455v4.547a.454.454,0,0,0,.455.455h4.546a.455.455,0,0,0,.456-.455V22.524a.455.455,0,0,0-.456-.455m-.453,4.546H23.075V22.978h3.638Z" transform="translate(8.75 8.712)" fill="#272525" stroke="#272525" stroke-width="0.3"/>
    <path id="패스_83" data-name="패스 83" d="M9.712,31.28H5.165a.455.455,0,0,0-.455.455v4.547a.455.455,0,0,0,.455.455H9.712a.455.455,0,0,0,.455-.455V31.735a.455.455,0,0,0-.455-.455m-.455,4.547H5.619V32.191H9.257Z" transform="translate(1.859 12.348)" fill="#272525" stroke="#272525" stroke-width="0.3"/>
    <path id="패스_84" data-name="패스 84" d="M14.939,31.28H10.392a.455.455,0,0,0-.455.455v4.547a.455.455,0,0,0,.455.455h4.547a.455.455,0,0,0,.455-.455V31.735a.455.455,0,0,0-.455-.455m-.455,4.547H10.848V32.191h3.636Z" transform="translate(3.923 12.348)" fill="#272525" stroke="#272525" stroke-width="0.3"/>
    <path id="패스_85" data-name="패스 85" d="M33.958,31.28H29.411a.455.455,0,0,0-.455.455v4.547a.455.455,0,0,0,.455.455h4.547a.455.455,0,0,0,.455-.455V31.735a.455.455,0,0,0-.455-.455M33.5,35.827H29.865V32.191H33.5Z" transform="translate(11.431 12.348)" fill="#272525" stroke="#272525" stroke-width="0.3"/>
    <path id="패스_86" data-name="패스 86" d="M39.185,31.28H34.638a.455.455,0,0,0-.455.455v4.547a.455.455,0,0,0,.455.455h4.547a.455.455,0,0,0,.455-.455V31.735a.455.455,0,0,0-.455-.455m-.455,4.547H35.094V32.191H38.73Z" transform="translate(13.494 12.348)" fill="#272525" stroke="#272525" stroke-width="0.3"/>
  </g>
</svg>
