<svg id="그룹_78" data-name="그룹 78" xmlns="http://www.w3.org/2000/svg" xmlns:xlink="http://www.w3.org/1999/xlink" width="46.541" height="53.371" viewBox="0 0 46.541 53.371">
  <defs>
    <clipPath id="clip-path">
      <rect id="사각형_33" data-name="사각형 33" width="46.541" height="53.371" fill="none"/>
    </clipPath>
  </defs>
  <g id="그룹_77" data-name="그룹 77" transform="translate(0 0)" clip-path="url(#clip-path)">
    <path id="패스_188" data-name="패스 188" d="M0,29.525a16.952,16.952,0,0,0,33.79,1.967.954.954,0,0,0-.95-1.066H29.468a.956.956,0,0,0-.947.817,11.694,11.694,0,1,1-12.58-13.366.954.954,0,0,0,.859-1.123l-.595-3.308a.959.959,0,0,0-1.042-.781A16.912,16.912,0,0,0,0,29.525M14.485,14.688,14.74,16.1A13.6,13.6,0,1,0,30.266,32.34h1.461A15.041,15.041,0,1,1,14.485,14.688" transform="translate(0 6.892)" fill="#272525"/>
    <path id="패스_189" data-name="패스 189" d="M32.066,11.147a2.634,2.634,0,0,0-2.631-2.63H14.027a2.628,2.628,0,0,0-2.588,3.1l3.144,17.472A2.628,2.628,0,0,0,17.17,31.25H30.418l4.8,10.164a2.63,2.63,0,0,0,5-1.646,1.1,1.1,0,0,0-.043-.111L34.74,27.769a2.619,2.619,0,0,0-2.488-1.781H19.37l-2.2-12.212H29.434a2.634,2.634,0,0,0,2.631-2.63M32.937,28.4a.874.874,0,0,0,.043.111L38.4,40.388a.714.714,0,0,1-.483.854.729.729,0,0,1-.9-.471.984.984,0,0,0-.046-.122L31.888,29.883a.956.956,0,0,0-.865-.547H17.17a.72.72,0,0,1-.706-.59L13.321,11.274a.716.716,0,0,1,.706-.845H29.434a.718.718,0,0,1,0,1.436H16.028a.954.954,0,0,0-.94,1.126l2.54,14.124a.958.958,0,0,0,.942.788H32.252a.715.715,0,0,1,.684.5" transform="translate(6.203 4.635)" fill="#272525"/>
    <path id="패스_190" data-name="패스 190" d="M14.249,0a6.016,6.016,0,1,0,6.016,6.015A6.022,6.022,0,0,0,14.249,0m0,10.118a4.1,4.1,0,1,1,4.1-4.1,4.108,4.108,0,0,1-4.1,4.1" transform="translate(4.481 0)" fill="#272525"/>
  </g>
</svg>
