<svg id="그룹_22" data-name="그룹 22" xmlns="http://www.w3.org/2000/svg" xmlns:xlink="http://www.w3.org/1999/xlink" width="35.932" height="52.411" viewBox="0 0 35.932 52.411">
  <defs>
    <clipPath id="clip-path">
      <rect id="사각형_5" data-name="사각형 5" width="35.932" height="52.411" fill="none"/>
    </clipPath>
  </defs>
  <g id="그룹_21" data-name="그룹 21" transform="translate(0 0)" clip-path="url(#clip-path)">
    <path id="패스_93" data-name="패스 93" d="M17.184,5.72a2.249,2.249,0,1,0,2.249,2.248A2.252,2.252,0,0,0,17.184,5.72m0,3.065A.816.816,0,1,1,18,7.968a.817.817,0,0,1-.816.817" transform="translate(1.468 0.562)" fill="#272525"/>
    <path id="패스_94" data-name="패스 94" d="M26.17,3.858a3.857,3.857,0,1,0-3.857,3.857A3.862,3.862,0,0,0,26.17,3.858M22.313,6.283a2.425,2.425,0,1,1,2.424-2.425,2.428,2.428,0,0,1-2.424,2.425" transform="translate(1.813 0)" fill="#272525"/>
    <path id="패스_95" data-name="패스 95" d="M19.426,9.739a2.624,2.624,0,1,0,2.625-2.624,2.628,2.628,0,0,0-2.625,2.624m3.815,0a1.191,1.191,0,1,1-1.191-1.192,1.192,1.192,0,0,1,1.191,1.192" transform="translate(1.909 0.699)" fill="#272525"/>
    <path id="패스_96" data-name="패스 96" d="M.428,49.6a3.126,3.126,0,0,0,2.737,1.579H33.183a2.743,2.743,0,0,0,2.377-4.115L26.487,31.344a.709.709,0,0,0-.2-.216.715.715,0,0,0-.206-.441L21.9,23.452V17.38a2.477,2.477,0,0,0-.87-4.8H14.6a2.477,2.477,0,0,0-.87,4.8v6.072L9.55,30.687a.707.707,0,0,0-.2.426.712.712,0,0,0-.192.209L.428,46.436a3.128,3.128,0,0,0,0,3.16M13.551,15.062A1.046,1.046,0,0,1,14.6,14.016h6.435a1.046,1.046,0,1,1,0,2.091H14.6a1.046,1.046,0,0,1-1.044-1.046M15.063,24a.71.71,0,0,0,.1-.358v-6.1h5.308v6.1a.719.719,0,0,0,.1.358L24.6,30.985l-13.551-.02ZM1.669,47.152,10.186,32.4l15.267.023,8.865,15.356a1.31,1.31,0,0,1-1.136,1.966H3.165a1.726,1.726,0,0,1-1.5-2.59" transform="translate(0 1.237)" fill="#272525"/>
  </g>
</svg>
