<svg id="그룹_6" data-name="그룹 6" xmlns="http://www.w3.org/2000/svg" width="69.739" height="45.386" viewBox="0 0 69.739 45.386">
  <path id="패스_14" data-name="패스 14" d="M509.469,16l0-.269H508.24c-.452-1.1-2.072-2.437-8.86-3.495a148.493,148.493,0,0,0-38.237,0c-6.864,1.071-8.458,2.426-8.884,3.547l-.25.013L452,17.3c0,9.95,3.675,19.3,10.109,25.761-5.083,1.373-7.661,3.262-7.661,5.624,0,6.088,17.2,7.7,26.3,7.7s26.291-1.607,26.291-7.7c0-2.365-2.58-4.255-7.674-5.628.363-.361.693-.7,1-1.04a32.439,32.439,0,0,0,5.057.428c4.742,0,8.6-1.212,11.462-3.608,3.18-2.661,4.861-6.61,4.861-11.421,0-7.37-6.536-10.739-12.268-11.421m-.319,6.384c2.348.654,4.961,2.139,4.961,5.511a8.068,8.068,0,0,1-2.667,6.447,10.474,10.474,0,0,1-6.983,2.05,37.5,37.5,0,0,0,4.689-14.008M480.259,13.83c13.406,0,22.633,1.523,24.938,2.75-2.3,1.227-11.531,2.75-24.938,2.75s-22.631-1.523-24.935-2.75c2.3-1.227,11.534-2.75,24.935-2.75M504.2,48.688c0,1.714-8.908,4.863-23.459,4.863s-23.461-3.15-23.461-4.863c0-.693,1.966-2.148,7.37-3.338a25.13,25.13,0,0,0,32.162,0c5.415,1.192,7.387,2.648,7.387,3.343m-23.461-.354c-13.641,0-24.9-12.65-25.837-28.9a30.015,30.015,0,0,0,6.24,1.494,130.474,130.474,0,0,0,19.116,1.238,130.539,130.539,0,0,0,19.121-1.238,24.232,24.232,0,0,0,7.229-1.946c-.732,16.514-11.992,29.356-25.869,29.356m34.319-11.666c-2.872,2.4-7.218,3.356-12.592,2.778.076-.106.152-.211.23-.317.762.07,1.39.1,1.964.1.445,0,.877-.015,1.3-.043a12.405,12.405,0,0,0,7.3-2.676,10.164,10.164,0,0,0,3.445-6.028,13.848,13.848,0,0,0,.237-2.593c0-5.791-5.05-7.759-7.533-8.378.013-.213.022-.426.03-.636a17.11,17.11,0,0,1,4.19,1.164c3.5,1.51,5.274,3.992,5.274,7.376,0,3.947-1.329,7.144-3.847,9.249" transform="translate(-451.998 -10.998)" fill="#272525"/>
</svg>
