<svg id="그룹_114" data-name="그룹 114" xmlns="http://www.w3.org/2000/svg" xmlns:xlink="http://www.w3.org/1999/xlink" width="55.567" height="37.578" viewBox="0 0 55.567 37.578">
  <defs>
    <clipPath id="clip-path">
      <rect id="사각형_51" data-name="사각형 51" width="55.567" height="37.578" fill="none"/>
    </clipPath>
  </defs>
  <g id="그룹_113" data-name="그룹 113" transform="translate(0 0)" clip-path="url(#clip-path)">
    <path id="패스_241" data-name="패스 241" d="M55.567,26.477c0-6.12-5.227-11.1-11.651-11.1a12.119,12.119,0,0,0-1.267.067c.022-.333.032-.663.032-.981A14.464,14.464,0,0,0,13.8,13.277a12.6,12.6,0,0,0-1.6-.1,12.2,12.2,0,0,0-.075,24.4l12.19,0A1.114,1.114,0,0,0,25.429,36.4l0-.027V27.289a1.115,1.115,0,0,0-1.115-1.117H22.751l4.858-5.981c.118-.144.231-.144.347,0l4.858,5.981H31.255a1.116,1.116,0,0,0-1.117,1.117v9.1c0,.026,0,.053,0,.075a1.115,1.115,0,0,0,1.115,1.115H43.819l.159,0c6.39-.031,11.589-5.01,11.589-11.1m-11.6,8.867-11.593,0V28.4h1.048a1.973,1.973,0,0,0,1.942-1.034,1.88,1.88,0,0,0-.378-2.064l-5.294-6.518a2.4,2.4,0,0,0-3.81,0l-5.3,6.52a1.881,1.881,0,0,0-.378,2.062A1.976,1.976,0,0,0,22.15,28.4H23.2v6.944H12.359l-.212,0A9.97,9.97,0,0,1,12.2,15.4a10.161,10.161,0,0,1,1.323.089l1.149.15a1.121,1.121,0,0,0,.846-.238,1.109,1.109,0,0,0,.41-.778l.094-1.154a12.234,12.234,0,0,1,24.427.992c0,.274-.01.557-.029.845l-.089,1.306a1.115,1.115,0,0,0,.339.879,1.1,1.1,0,0,0,.889.306l1.306-.135a9.857,9.857,0,0,1,1.048-.056,9.167,9.167,0,0,1,9.42,8.869c0,4.863-4.2,8.842-9.373,8.867" transform="translate(0 0.001)" fill="#272525"/>
  </g>
</svg>
