<svg id="그룹_36" data-name="그룹 36" xmlns="http://www.w3.org/2000/svg" xmlns:xlink="http://www.w3.org/1999/xlink" width="37.354" height="50.674" viewBox="0 0 37.354 50.674">
  <defs>
    <clipPath id="clip-path">
      <rect id="사각형_12" data-name="사각형 12" width="37.354" height="50.674" fill="none"/>
    </clipPath>
  </defs>
  <g id="그룹_35" data-name="그룹 35" transform="translate(0 0)" clip-path="url(#clip-path)">
    <path id="패스_107" data-name="패스 107" d="M0,5.58V45.092a5.714,5.714,0,0,0,5.827,5.58h25.7c3.213,0,5.827-2.3,5.827-5.137V9.786a4.917,4.917,0,0,0-2.244-4.05V5.58A5.715,5.715,0,0,0,29.283,0H5.827A5.714,5.714,0,0,0,0,5.58m1.863,0A3.851,3.851,0,0,1,5.827,1.863H29.283A3.851,3.851,0,0,1,33.247,5.58v.674a.929.929,0,0,0,.48.814,3.172,3.172,0,0,1,1.764,2.717v35.75c0,1.8-1.779,3.274-3.964,3.274H5.827a3.851,3.851,0,0,1-3.964-3.717Z" transform="translate(0 0)" fill="#272525"/>
    <path id="패스_108" data-name="패스 108" d="M5.039,7.392a.936.936,0,0,0,.593.213h4.576V23.193a.931.931,0,0,0,.567.857.905.905,0,0,0,.364.076.933.933,0,0,0,.644-.257l3.857-3.684,4.05,3.7a.931.931,0,0,0,1.56-.689V7.6h9.061a.932.932,0,0,0,.857-.564,3.875,3.875,0,0,0-.03-3.093A3.343,3.343,0,0,0,28.66,2.292a.873.873,0,0,0-.183-.019H5.631a.87.87,0,0,0-.161.014c-.193.033-1.89.371-2.247,1.737C2.816,5.562,4.49,6.939,5.039,7.392m.689-3.256H28.378a1.564,1.564,0,0,1,1.109.673,1.572,1.572,0,0,1,.113.931H20.318a.933.933,0,0,0-.933.931v14.41l-3.131-2.86a.933.933,0,0,0-1.271.014l-2.911,2.78V6.672a.932.932,0,0,0-.933-.931H5.974C5,4.883,5.023,4.5,5.023,4.5a1.319,1.319,0,0,1,.7-.363" transform="translate(1.354 0.975)" fill="#272525"/>
    <path id="패스_109" data-name="패스 109" d="M10.888,11.829l-.22,1.276a.465.465,0,0,0,.676.491l1.147-.6,1.144.6a.467.467,0,0,0,.677-.491l-.219-1.276.926-.9a.465.465,0,0,0-.257-.794l-1.281-.186-.573-1.161a.466.466,0,0,0-.836,0L11.5,9.946l-1.28.186a.466.466,0,0,0-.259.794Zm.989-1a.468.468,0,0,0,.35-.256l.264-.534.263.534a.468.468,0,0,0,.35.256l.59.084-.426.416a.468.468,0,0,0-.136.413l.1.586-.526-.277A.473.473,0,0,0,12.491,12a.464.464,0,0,0-.217.053l-.527.277.1-.586a.467.467,0,0,0-.134-.413l-.426-.416Z" transform="translate(4.209 3.654)" fill="#272525"/>
  </g>
</svg>
