<svg id="그룹_50" data-name="그룹 50" xmlns="http://www.w3.org/2000/svg" xmlns:xlink="http://www.w3.org/1999/xlink" width="40.339" height="41.958" viewBox="0 0 40.339 41.958">
  <defs>
    <clipPath id="clip-path">
      <rect id="사각형_19" data-name="사각형 19" width="40.339" height="41.958" fill="none"/>
    </clipPath>
  </defs>
  <g id="그룹_49" data-name="그룹 49" transform="translate(0 0)" clip-path="url(#clip-path)">
    <path id="패스_127" data-name="패스 127" d="M20.16,41.958h.153C31.437,41.877,40.42,32.4,40.338,20.829a21.245,21.245,0,0,0-6-14.768A19.666,19.666,0,0,0,20.027,0C8.905.081-.077,9.559,0,21.125H0A21.279,21.279,0,0,0,6,35.9,19.636,19.636,0,0,0,20.16,41.958M20.041,1.979h.13A17.678,17.678,0,0,1,32.92,7.44a19.282,19.282,0,0,1,5.44,13.4c.076,10.478-8.028,19.064-18.063,19.138a17.653,17.653,0,0,1-12.879-5.46,19.3,19.3,0,0,1-5.44-13.408C1.907,10.635,10.011,2.051,20.041,1.979" transform="translate(0 -0.001)" fill="#272525"/>
    <path id="패스_128" data-name="패스 128" d="M13.4,34.315H23.558V24.47h9.449v-10.5H23.558V4.127H13.4v9.841H3.956v10.5H13.4Zm-2.52-11.823H5.933V15.946h9.446V6.105h6.2v9.841h9.447v6.546H21.581v9.845h-6.2V22.492Z" transform="translate(1.687 1.759)" fill="#272525"/>
  </g>
</svg>
