<svg id="그룹_2" data-name="그룹 2" xmlns="http://www.w3.org/2000/svg" xmlns:xlink="http://www.w3.org/1999/xlink" width="80.407" height="46.734" viewBox="0 0 80.407 46.734">
  <defs>
    <clipPath id="clip-path">
      <rect id="사각형_1" data-name="사각형 1" width="80.407" height="46.734" fill="none"/>
    </clipPath>
  </defs>
  <g id="그룹_1" data-name="그룹 1" transform="translate(0 0)" clip-path="url(#clip-path)">
    <path id="패스_1" data-name="패스 1" d="M11.023,25.259A3.25,3.25,0,0,0,9.114,30.4l-1.357,8.04a1.184,1.184,0,0,0,1.168,1.381h5.557a1.184,1.184,0,0,0,1.173-1.346L14.5,30.1a3.24,3.24,0,0,0-1.1-4.432V21.315l7.322,3.177V42.671a4.068,4.068,0,0,0,4.062,4.064H58.189a4.07,4.07,0,0,0,4.065-4.064V23.383l17.439-7.568a1.185,1.185,0,0,0-.089-2.209L39.937.064a1.184,1.184,0,0,0-.8.013C25.553,5.221,3.248,13.419,1.176,13.544a1.184,1.184,0,0,0-.461,2.271l10.309,4.472Zm-.7,12.194,1.221-7.233a1.182,1.182,0,0,0-.409-1.106.882.882,0,1,1,1.446-.678.874.874,0,0,1-.218.579,1.183,1.183,0,0,0-.28.941l1.035,7.5Zm49.557,5.217a1.7,1.7,0,0,1-1.695,1.693H24.778a1.7,1.7,0,0,1-1.693-1.693V25.519l16.649,7.224a1.182,1.182,0,0,0,.943,0l19.208-8.334ZM4.781,15C13.357,12.322,33.953,4.571,39.573,2.443L75.942,14.859,40.2,30.364,16.6,20.126,36.531,17.5a7.176,7.176,0,0,0,3.673.865c2.747,0,4.819-1.094,4.819-2.543S42.95,13.274,40.2,13.274c-2.371,0-4.234.814-4.7,1.969L12.38,18.293Zm31.788.821c0-.554,1.417-1.359,3.635-1.359s3.635.8,3.635,1.359-1.417,1.361-3.635,1.361-3.635-.807-3.635-1.361" transform="translate(0 0)" fill="#272525"/>
  </g>
</svg>
