<svg id="그룹_54" data-name="그룹 54" xmlns="http://www.w3.org/2000/svg" xmlns:xlink="http://www.w3.org/1999/xlink" width="65.343" height="38.331" viewBox="0 0 65.343 38.331">
  <defs>
    <clipPath id="clip-path">
      <rect id="사각형_21" data-name="사각형 21" width="65.343" height="38.331" fill="none"/>
    </clipPath>
  </defs>
  <g id="그룹_53" data-name="그룹 53" transform="translate(0 0)" clip-path="url(#clip-path)">
    <path id="패스_130" data-name="패스 130" d="M1.131,0,1.115,0c-.023,0-.045.005-.066.007A1.035,1.035,0,0,0,.9.025l-.012,0L.858.037.8.056A1.063,1.063,0,0,0,.522.178L.51.189a1.152,1.152,0,0,0-.23.2A.119.119,0,0,0,.259.411L.25.425a.253.253,0,0,0-.033.04L.209.479a.99.99,0,0,0-.1.165L.1.665.092.686C.085.705.078.721.073.74a.742.742,0,0,0-.037.1l0,.005L.03.884A1.083,1.083,0,0,0,0,1.038l0,.019c0,.019,0,.038,0,.057a.936.936,0,0,0,.005.157A.146.146,0,0,0,.012,1.3l.009.045L.033,1.4c.005.024.01.049.017.073l.005.012a1,1,0,0,0,.075.177l.009.014,0,.009L.15,1.7l20.9,36.061a1.137,1.137,0,0,0,.882.564c.033,0,.066,0,.1,0a1.138,1.138,0,0,0,.868-.4L34.974,23.608l13.189,5.008.066.024a1.107,1.107,0,0,0,.4.073,1.123,1.123,0,0,0,1.07-1.487L48.455,9.72,64.671,2.488A1.135,1.135,0,0,0,64.216.317L1.138,0Zm35.393,21.77.985-1.165L40.542,17l5.292,8.3ZM58.939,2.561,47.119,7.83,14.932,2.34ZM46.2,9.975l.934,13.144-5.507-8.635c-.021-.031-.047-.057-.07-.085s-.05-.066-.078-.1a.905.905,0,0,0-.077-.066.55.55,0,0,0-.061-.05c-.023-.017-.045-.037-.07-.052-.045-.026-.092-.047-.141-.07-.028-.01-.052-.028-.08-.04h0L14.036,4.489Zm-7.456,5.643L22.2,35.232l-18.547-32Z" transform="translate(0 -0.001)" fill="#272525"/>
  </g>
</svg>
