<svg id="그룹_132" data-name="그룹 132" xmlns="http://www.w3.org/2000/svg" xmlns:xlink="http://www.w3.org/1999/xlink" width="47.612" height="65.973" viewBox="0 0 47.612 65.973">
  <defs>
    <clipPath id="clip-path">
      <rect id="사각형_60" data-name="사각형 60" width="47.612" height="65.973" fill="none"/>
    </clipPath>
  </defs>
  <g id="그룹_131" data-name="그룹 131" transform="translate(0 0)" clip-path="url(#clip-path)">
    <path id="패스_270" data-name="패스 270" d="M4.754,33.369h.063L17.4,33.211a4.682,4.682,0,0,0,4.046-2.379,1.063,1.063,0,0,0,.183.019h.015l4.2-.054a1.256,1.256,0,0,0,.361-.064,4.68,4.68,0,0,0,4.067,2.314h.064l12.581-.16a4.747,4.747,0,0,0,3.931-7.316L40.43,15.6A4.734,4.734,0,0,0,37.6,13.555L37.439,1.2A1.218,1.218,0,0,0,36.223,0h-.016a1.217,1.217,0,0,0-1.2,1.232l.157,12.358A4.72,4.72,0,0,0,32.38,15.7L26.217,25.834a4.725,4.725,0,0,0-.694,2.535l-3.436.043A4.717,4.717,0,0,0,21.33,25.9l-6.418-9.974a4.722,4.722,0,0,0-2.833-2.038L11.923,1.525A1.232,1.232,0,0,0,10.69.324a1.218,1.218,0,0,0-1.2,1.232l.157,12.358a4.707,4.707,0,0,0-2.781,2.108L.7,26.158a4.745,4.745,0,0,0,4.053,7.211M1.974,28.3a2.83,2.83,0,0,1,.389-1.137l1.756-2.887,4.408-7.247a2.787,2.787,0,0,1,2.357-1.347h.037a2.788,2.788,0,0,1,2.356,1.286l4.59,7.135,1.827,2.84a2.822,2.822,0,0,1,.419,1.126,2.806,2.806,0,0,1-2.74,3.191l-12.581.158H4.754A2.8,2.8,0,0,1,1.974,28.3m25.907-1.46,1.754-2.885,4.408-7.249A2.783,2.783,0,0,1,36.4,15.364h.037a2.788,2.788,0,0,1,2.356,1.284l4.59,7.135,1.827,2.84a2.81,2.81,0,0,1,.419,1.125,2.806,2.806,0,0,1-2.74,3.192l-12.581.16h-.037a2.805,2.805,0,0,1-2.782-3.121,2.81,2.81,0,0,1,.391-1.137" transform="translate(0 0.001)" fill="#272525"/>
    <path id="패스_271" data-name="패스 271" d="M23.855,51.325A1.212,1.212,0,0,0,24.686,51L43.342,33.545l.088,6.891a.975.975,0,0,0,.973.961h.012a.974.974,0,0,0,.961-.986l-.11-8.7a1.215,1.215,0,0,0-1.235-1.9c-13.1,2.793-41.365.534-41.65.51a1.213,1.213,0,0,0-1.062,1.948l.11,8.7a.973.973,0,0,0,.973.962h.013a.974.974,0,0,0,.959-.986L3.286,34,23.062,51.031a1.22,1.22,0,0,0,.794.294M40.52,32.853l-16.7,15.622L5.855,33.007c7.258.464,23.583,1.256,34.666-.154" transform="translate(0.524 14.649)" fill="#272525"/>
  </g>
</svg>
