<svg id="그룹_116" data-name="그룹 116" xmlns="http://www.w3.org/2000/svg" xmlns:xlink="http://www.w3.org/1999/xlink" width="54.856" height="44.908" viewBox="0 0 54.856 44.908">
  <defs>
    <clipPath id="clip-path">
      <rect id="사각형_52" data-name="사각형 52" width="54.856" height="44.908" fill="none"/>
    </clipPath>
  </defs>
  <g id="그룹_115" data-name="그룹 115" transform="translate(0 0)" clip-path="url(#clip-path)">
    <path id="패스_242" data-name="패스 242" d="M0,.7V3.236a.7.7,0,0,0,.7.7h1.89V5.481H.7a.7.7,0,0,0-.7.7v2.59a.7.7,0,0,0,.7.7H5.931V35.443H.7a.7.7,0,0,0-.7.7v2.538a.7.7,0,0,0,.7.7h1.89v1.549H.7a.7.7,0,0,0-.7.7v2.59a.7.7,0,0,0,.7.7H54.156a.7.7,0,0,0,.7-.7v-2.59a.7.7,0,0,0-.7-.7H51.932V39.377h2.224a.7.7,0,0,0,.7-.7V36.141a.7.7,0,0,0-.7-.7h-5.9V9.467h5.9a.7.7,0,0,0,.7-.7V6.179a.7.7,0,0,0-.7-.7H51.932V3.935h2.224a.7.7,0,0,0,.7-.7V.7a.7.7,0,0,0-.7-.7H.7A.7.7,0,0,0,0,.7m1.4.7H53.458v1.14H51.234a.7.7,0,0,0-.7.7V6.179a.7.7,0,0,0,.7.7h2.224V8.071H47.735a.639.639,0,0,0-.178-.027H43.351a.629.629,0,0,0-.176.027H11.509a.639.639,0,0,0-.178-.027h-4.7a.629.629,0,0,0-.176.027H1.4V6.879H3.288a.7.7,0,0,0,.7-.7V3.236a.7.7,0,0,0-.7-.7H1.4ZM46.86,35.116H44.051V9.442H46.86Zm6.6,2.863H51.234a.7.7,0,0,0-.7.7v2.943a.7.7,0,0,0,.7.7h2.224v1.192H1.4V42.322H3.288a.7.7,0,0,0,.7-.7V38.679a.7.7,0,0,0-.7-.7H1.4V36.841H53.458ZM7.328,9.443h3.306V35.116H7.328Zm4.875.024H42.654V35.443H12.2Z" transform="translate(0 -0.001)" fill="#272525"/>
    <path id="패스_243" data-name="패스 243" d="M22.7,6.042h5.178a.7.7,0,0,0,.7-.7V2.4a.7.7,0,0,0-.7-.7H22.7a.7.7,0,0,0-.7.7V5.343a.7.7,0,0,0,.7.7M23.4,3.1h3.782V4.647H23.4Z" transform="translate(10.822 0.836)" fill="#272525"/>
    <path id="패스_244" data-name="패스 244" d="M16.768,6.042h5.178a.7.7,0,0,0,.7-.7V2.4a.7.7,0,0,0-.7-.7H16.768a.7.7,0,0,0-.7.7V5.343a.7.7,0,0,0,.7.7m.7-2.943h3.782V4.647H17.466Z" transform="translate(7.904 0.836)" fill="#272525"/>
    <path id="패스_245" data-name="패스 245" d="M28.638,6.042h5.178a.7.7,0,0,0,.7-.7V2.4a.7.7,0,0,0-.7-.7H28.638a.7.7,0,0,0-.7.7V5.343a.7.7,0,0,0,.7.7m.7-2.943h3.782V4.647H29.336Z" transform="translate(13.742 0.836)" fill="#272525"/>
    <path id="패스_246" data-name="패스 246" d="M4.673,6.042h5.18a.7.7,0,0,0,.7-.7V2.4a.7.7,0,0,0-.7-.7H4.673a.7.7,0,0,0-.7.7V5.343a.7.7,0,0,0,.7.7m.7-2.943H9.154V4.647H5.372Z" transform="translate(1.955 0.836)" fill="#272525"/>
    <path id="패스_247" data-name="패스 247" d="M10.608,6.042h5.18a.7.7,0,0,0,.7-.7V2.4a.7.7,0,0,0-.7-.7h-5.18a.7.7,0,0,0-.7.7V5.343a.7.7,0,0,0,.7.7m.7-2.943H15.09V4.647H11.308Z" transform="translate(4.874 0.836)" fill="#272525"/>
    <path id="패스_248" data-name="패스 248" d="M9.852,25.458H4.673a.7.7,0,0,0-.7.7V29.1a.7.7,0,0,0,.7.7h5.18a.7.7,0,0,0,.7-.7V26.158a.7.7,0,0,0-.7-.7m-.7,2.946H5.372V26.856H9.154Z" transform="translate(1.955 12.52)" fill="#272525"/>
    <path id="패스_249" data-name="패스 249" d="M21.946,25.458H16.768a.7.7,0,0,0-.7.7V29.1a.7.7,0,0,0,.7.7h5.178a.7.7,0,0,0,.7-.7V26.158a.7.7,0,0,0-.7-.7m-.7,2.946H17.466V26.856h3.782Z" transform="translate(7.904 12.52)" fill="#272525"/>
    <path id="패스_250" data-name="패스 250" d="M27.94,26.158V29.1a.7.7,0,0,0,.7.7h5.178a.7.7,0,0,0,.7-.7V26.158a.7.7,0,0,0-.7-.7H28.638a.7.7,0,0,0-.7.7M33.118,28.4H29.336V26.856h3.782Z" transform="translate(13.742 12.52)" fill="#272525"/>
    <path id="패스_251" data-name="패스 251" d="M15.788,25.458h-5.18a.7.7,0,0,0-.7.7V29.1a.7.7,0,0,0,.7.7h5.18a.7.7,0,0,0,.7-.7V26.158a.7.7,0,0,0-.7-.7m-.7,2.946H11.308V26.856H15.09Z" transform="translate(4.874 12.52)" fill="#272525"/>
    <path id="패스_252" data-name="패스 252" d="M27.882,25.458H22.7a.7.7,0,0,0-.7.7V29.1a.7.7,0,0,0,.7.7h5.178a.7.7,0,0,0,.7-.7V26.158a.7.7,0,0,0-.7-.7m-.7,2.946H23.4V26.856h3.782Z" transform="translate(10.822 12.52)" fill="#272525"/>
    <path id="패스_253" data-name="패스 253" d="M30.083,17.625,15.38,7.716a.7.7,0,0,0-1.089.579V28.113a.7.7,0,0,0,.37.618.711.711,0,0,0,.328.081.7.7,0,0,0,.391-.118l14.7-9.909a.7.7,0,0,0,0-1.159M15.687,26.8V9.608l12.757,8.6Z" transform="translate(7.029 3.736)" fill="#272525"/>
  </g>
</svg>
