<svg id="그룹_138" data-name="그룹 138" xmlns="http://www.w3.org/2000/svg" xmlns:xlink="http://www.w3.org/1999/xlink" width="46.758" height="46.758" viewBox="0 0 46.758 46.758">
  <defs>
    <clipPath id="clip-path">
      <rect id="사각형_63" data-name="사각형 63" width="46.758" height="46.758" fill="none"/>
    </clipPath>
  </defs>
  <g id="그룹_137" data-name="그룹 137" transform="translate(0 0)" clip-path="url(#clip-path)">
    <path id="패스_276" data-name="패스 276" d="M10.408,31.659a21.084,21.084,0,0,1-8.3-1.684A1.515,1.515,0,0,0,.121,31.962,24.284,24.284,0,1,0,31.962.119a1.515,1.515,0,0,0-1.985,1.988,21.143,21.143,0,0,1,1.684,8.3A21.276,21.276,0,0,1,10.408,31.659M34.69,10.408a24.2,24.2,0,0,0-.7-5.8A21.256,21.256,0,1,1,4.61,33.993,24.309,24.309,0,0,0,34.69,10.408" transform="translate(0 0)" fill="#272525"/>
  </g>
</svg>
