<svg id="그룹_126" data-name="그룹 126" xmlns="http://www.w3.org/2000/svg" xmlns:xlink="http://www.w3.org/1999/xlink" width="53.808" height="44.618" viewBox="0 0 53.808 44.618">
  <defs>
    <clipPath id="clip-path">
      <rect id="사각형_57" data-name="사각형 57" width="53.808" height="44.618" fill="none"/>
    </clipPath>
  </defs>
  <g id="그룹_125" data-name="그룹 125" transform="translate(0 0)" clip-path="url(#clip-path)">
    <path id="패스_262" data-name="패스 262" d="M17.844,0A1.141,1.141,0,0,0,16.7,1.143V43.477a1.141,1.141,0,0,0,1.142,1.142h4.713A1.142,1.142,0,0,0,23.7,43.477V1.143A1.142,1.142,0,0,0,22.556,0Zm3.57,42.335H18.986V2.285h2.428Z" transform="translate(6.696 0.001)" fill="#272525"/>
    <path id="패스_263" data-name="패스 263" d="M40.4,21.034l4-3.54a1.14,1.14,0,0,0,0-1.709l-4-3.54a1.134,1.134,0,0,0-.757-.287H23.654A1.141,1.141,0,0,0,22.511,13.1v7.08a1.143,1.143,0,0,0,1.143,1.143H39.643a1.135,1.135,0,0,0,.757-.289M24.8,14.241H39.21l2.708,2.4-2.708,2.4H24.8Z" transform="translate(9.025 4.794)" fill="#272525"/>
    <path id="패스_264" data-name="패스 264" d="M23.654,3.7a1.142,1.142,0,0,0-1.143,1.142v7.08a1.143,1.143,0,0,0,1.143,1.143H39.643a1.141,1.141,0,0,0,.757-.287l4-3.542a1.14,1.14,0,0,0,0-1.709l-4-3.54a1.141,1.141,0,0,0-.757-.287Zm1.142,7.08V5.98H39.21l2.708,2.4-2.708,2.4Z" transform="translate(9.025 1.482)" fill="#272525"/>
    <path id="패스_265" data-name="패스 265" d="M4.382,12.774a1.144,1.144,0,0,0,.757.287h15.99a1.143,1.143,0,0,0,1.142-1.143V4.836A1.141,1.141,0,0,0,21.129,3.7H5.139a1.136,1.136,0,0,0-.757.287l-4,3.54a1.14,1.14,0,0,0,0,1.709Zm15.6-6.795v4.8H5.573l-2.708-2.4,2.708-2.4Z" transform="translate(0 1.482)" fill="#272525"/>
  </g>
</svg>
