<svg id="그룹_64" data-name="그룹 64" xmlns="http://www.w3.org/2000/svg" xmlns:xlink="http://www.w3.org/1999/xlink" width="62.979" height="63.124" viewBox="0 0 62.979 63.124">
  <defs>
    <clipPath id="clip-path">
      <rect id="사각형_26" data-name="사각형 26" width="62.979" height="63.124" fill="none"/>
    </clipPath>
  </defs>
  <g id="그룹_63" data-name="그룹 63" transform="translate(0 0)" clip-path="url(#clip-path)">
    <path id="패스_140" data-name="패스 140" d="M62.752,27.947a1.182,1.182,0,0,0-.954-.487c-3.232,0-5.415-1.619-7.942-3.494-.547-.407-1.1-.816-1.664-1.211A15.771,15.771,0,0,0,42.777,19.5c-1.764,0-3.2.015-4.359.051H29.513a3.539,3.539,0,0,0,0,7.078h8.257a2.353,2.353,0,0,1,.783,4.311c-.451.119-1.607.426-3.07.816-1.052.252-2.122.535-3.142.831l-.221.056c-5.723,1.515-7.647,2.013-8.206,2.149a3.384,3.384,0,0,1-.671-.029l-12.956-8.4L7.923,24.656a1.045,1.045,0,0,0-.138-.087c-.117-.073-.242-.141-.371-.206a4.618,4.618,0,0,0-.756-.31,5.35,5.35,0,0,0-.622-.136,4.345,4.345,0,0,0-1.55.026,4.948,4.948,0,0,0-3.036,8.427c.02.024.043.044.063.065a5.057,5.057,0,0,0,1.12.826L24.12,48.835a1.156,1.156,0,0,0,.329.169l.177.068a.333.333,0,0,0,.058.02,5.656,5.656,0,0,0,1.858.33,5.792,5.792,0,0,0,1.112-.111c.026-.005.051-.01.073-.017l.1-.024c13.614-3.465,23.366-5.926,28.2-7.118a1.2,1.2,0,0,0,.133-.041l.424-.158a25,25,0,0,1,5.2-.9,1.182,1.182,0,0,0,1.182-1.182v-.785a1.334,1.334,0,0,0,.017-.22l-.017-10.026a1.178,1.178,0,0,0-.209-.9M60.607,38.768a35.727,35.727,0,0,0-4.667.913c-.041.01-.1.031-.141.044l-.407.152c-4.863,1.2-14.593,3.654-28.164,7.107L27.164,47a3.178,3.178,0,0,1-1.694-.133L3.954,31.3a1.27,1.27,0,0,0-.153-.094,2.725,2.725,0,0,1-.628-.453l-.034-.036A2.563,2.563,0,0,1,2.36,28.88a2.6,2.6,0,0,1,2.4-2.593,1.283,1.283,0,0,0,.138-.02,2.076,2.076,0,0,1,.775-.017,2.339,2.339,0,0,1,.3.065,2.262,2.262,0,0,1,.376.157,1.933,1.933,0,0,1,.223.128l.049.031,2.3,1.665.049.034,13.169,8.538a1.194,1.194,0,0,0,.358.155,5.627,5.627,0,0,0,1.638.123,1.038,1.038,0,0,0,.206-.031c.6-.14,3.416-.875,8.367-2.186l.247-.063c1.022-.3,2.057-.57,3.1-.821l3.256-.863a1.227,1.227,0,0,0,.264-.107,4.715,4.715,0,0,0-1.514-8.79,1.037,1.037,0,0,0-.192-.017H29.513a1.177,1.177,0,0,1,0-2.355h8.941c1.168-.036,2.583-.053,4.323-.053a13.41,13.41,0,0,1,8.064,2.833c.548.383,1.081.778,1.607,1.17,2.355,1.747,4.781,3.547,8.151,3.9v7.785l.015,1.154c0,.022-.007.044-.009.068" transform="translate(0 13.702)" fill="#272525"/>
    <path id="패스_141" data-name="패스 141" d="M37.9,1.214V1.153A1.182,1.182,0,0,0,36.782.005l-.063,0-.061,0a19.982,19.982,0,0,0-18.5,12.425A16.2,16.2,0,0,0,13.627,3.61c-.082-.082-.17-.16-.259-.237-.036-.032-.075-.065-.112-.1a1.209,1.209,0,0,0-1.59-.024.591.591,0,0,0-.077.07,16.258,16.258,0,0,0-.625,22.3l.043.051L3.828,32.847l1.229,1.228,7.184-7.186.053.044a16.248,16.248,0,0,0,22.289-.622c.007-.007.048-.053.058-.06a1.233,1.233,0,0,0,0-1.624c-.019-.02-.036-.041-.058-.061a16.2,16.2,0,0,0-9.547-4.637A19.894,19.894,0,0,0,37.9,1.214M32.048,25.438a13.9,13.9,0,0,1-18.184-.267c-.056-.051-.114-.1-.17-.146a1.21,1.21,0,0,1-.1-.087c-.061-.056-.121-.112-.184-.167-.046-.039-.094-.08-.174-.16-.116-.117-.22-.238-.325-.358l-.184-.209a13.9,13.9,0,0,1-.242-18.211,13.881,13.881,0,0,1,1.09,17.15,1.18,1.18,0,0,0,1.641,1.641,13.878,13.878,0,0,1,16.835.814M19.059,18.829a18.014,18.014,0,0,1,.262-2.026A17.613,17.613,0,0,1,35.5,2.4,17.54,17.54,0,0,1,19.059,18.829" transform="translate(2.69 -0.001)" fill="#272525"/>
  </g>
</svg>
