<svg id="그룹_42" data-name="그룹 42" xmlns="http://www.w3.org/2000/svg" xmlns:xlink="http://www.w3.org/1999/xlink" width="49.208" height="45.745" viewBox="0 0 49.208 45.745">
  <defs>
    <clipPath id="clip-path">
      <rect id="사각형_15" data-name="사각형 15" width="49.208" height="45.745" fill="none"/>
    </clipPath>
  </defs>
  <g id="그룹_41" data-name="그룹 41" clip-path="url(#clip-path)">
    <path id="패스_116" data-name="패스 116" d="M45.855,8.5H34.642V1.622A1.827,1.827,0,0,0,32.633,0a2.492,2.492,0,0,0-.352.024A2.136,2.136,0,0,0,31.957,0H16.846c-.044,0-.086,0-.129,0s-.092,0-.141,0a1.825,1.825,0,0,0-2.007,1.622V8.5H3.355A3.358,3.358,0,0,0,0,11.853V26.965a3.354,3.354,0,0,0,3.149,3.342V42.389a3.2,3.2,0,0,0,3.007,3.355h36.9a3.2,3.2,0,0,0,3.007-3.355V30.307a3.354,3.354,0,0,0,3.149-3.342V11.853A3.358,3.358,0,0,0,45.855,8.5M16.238,1.743a.83.83,0,0,1,.414-.069.782.782,0,0,0,.145,0l.049,0H31.957a.55.55,0,0,1,.133.017.856.856,0,0,0,.356,0,.879.879,0,0,1,.524.054V10a.83.83,0,0,1-.675,0V3.668a.835.835,0,0,0-.837-.834H17.75a.835.835,0,0,0-.837.834V10a.83.83,0,0,1-.675,0ZM30.623,8.5H18.584v-4H30.623Zm13.766,33.89a1.542,1.542,0,0,1-1.336,1.683H6.155a1.541,1.541,0,0,1-1.335-1.683V30.318H17.945v1.526A3.358,3.358,0,0,0,21.3,35.2H27.28a3.359,3.359,0,0,0,3.355-3.354V30.318H44.389ZM19.615,31.844V27.122A1.685,1.685,0,0,1,21.3,25.439H27.28a1.684,1.684,0,0,1,1.683,1.683v4.722a1.685,1.685,0,0,1-1.683,1.683H21.3a1.686,1.686,0,0,1-1.683-1.683m27.921-4.879a1.684,1.684,0,0,1-1.682,1.682H30.635V27.122a3.359,3.359,0,0,0-3.355-3.355H21.3a3.358,3.358,0,0,0-3.354,3.355v1.524H3.355a1.684,1.684,0,0,1-1.683-1.682V11.853a1.683,1.683,0,0,1,1.683-1.682H14.573a1.836,1.836,0,0,0,2,1.573,1.837,1.837,0,0,0,2-1.573H30.63a1.837,1.837,0,0,0,2,1.573,1.837,1.837,0,0,0,2-1.573H45.855a1.683,1.683,0,0,1,1.682,1.682Z" transform="translate(0 0)" fill="#272525"/>
    <path id="패스_117" data-name="패스 117" d="M19.605,26.595a2.935,2.935,0,1,0-2.936-2.935,2.939,2.939,0,0,0,2.936,2.935m0-5.037a2.1,2.1,0,1,1-2.1,2.1,2.1,2.1,0,0,1,2.1-2.1" transform="translate(4.685 5.824)" fill="#272525"/>
  </g>
</svg>
