<svg id="그룹_108" data-name="그룹 108" xmlns="http://www.w3.org/2000/svg" xmlns:xlink="http://www.w3.org/1999/xlink" width="51.129" height="56.849" viewBox="0 0 51.129 56.849">
  <defs>
    <clipPath id="clip-path">
      <rect id="사각형_48" data-name="사각형 48" width="51.129" height="56.849" fill="none"/>
    </clipPath>
  </defs>
  <g id="그룹_107" data-name="그룹 107" transform="translate(0 0)" clip-path="url(#clip-path)">
    <path id="패스_229" data-name="패스 229" d="M25.566,56.849A25.564,25.564,0,0,0,29.317,6a4.109,4.109,0,1,0-7.3-.027,25.563,25.563,0,0,0,3.549,50.878M25.673,2.73A1.378,1.378,0,1,1,24.3,4.108,1.38,1.38,0,0,1,25.673,2.73m-.107,5.718A22.836,22.836,0,1,1,2.728,31.284,22.862,22.862,0,0,1,25.566,8.448" transform="translate(0 0)" fill="#272525"/>
    <path id="패스_230" data-name="패스 230" d="M22.9,45.25A18.937,18.937,0,1,0,3.96,26.313,18.958,18.958,0,0,0,22.9,45.25M39.649,26.313A16.753,16.753,0,1,1,22.9,9.56,16.771,16.771,0,0,1,39.649,26.313" transform="translate(2.669 4.971)" fill="#272525"/>
    <path id="패스_231" data-name="패스 231" d="M10.53,32.713a.553.553,0,0,0,.31-.1l7.084-4.894a4.834,4.834,0,0,0,.914.089,4.783,4.783,0,0,0,4.777-4.777c0-.159-.008-.316-.023-.47L29.6,13.079a.545.545,0,0,0-.752-.753L19.43,18.3a4.938,4.938,0,0,0-.593-.04,4.769,4.769,0,0,0-4.521,6.311l-4.258,7.327a.545.545,0,0,0,.1.675.552.552,0,0,0,.372.144M20.835,18.7l6.542-4.148-4.165,6.568a4.792,4.792,0,0,0-2.377-2.42m-2,2.285a2.049,2.049,0,1,1-2.049,2.049,2.052,2.052,0,0,1,2.049-2.049m-2.189,6.291-4.419,3.053L14.9,25.736a4.811,4.811,0,0,0,1.748,1.54" transform="translate(6.728 8.25)" fill="#272525"/>
    <path id="패스_232" data-name="패스 232" d="M5.708,18.909a.546.546,0,0,0,.546.546h4.036a.546.546,0,1,0,0-1.091H6.254a.546.546,0,0,0-.546.546" transform="translate(3.847 12.375)" fill="#272525"/>
    <path id="패스_233" data-name="패스 233" d="M22.449,19.454h4.036a.546.546,0,1,0,0-1.091H22.449a.546.546,0,1,0,0,1.091" transform="translate(14.761 12.375)" fill="#272525"/>
    <path id="패스_234" data-name="패스 234" d="M15.557,14.187a.546.546,0,0,0,.546-.546V9.606a.546.546,0,0,0-1.091,0v4.036a.546.546,0,0,0,.546.546" transform="translate(10.116 6.106)" fill="#272525"/>
    <path id="패스_235" data-name="패스 235" d="M15.557,25.255a.545.545,0,0,0-.546.546v4.036a.546.546,0,1,0,1.091,0V25.8a.545.545,0,0,0-.546-.546" transform="translate(10.116 17.02)" fill="#272525"/>
  </g>
</svg>
