<svg id="그룹_110" data-name="그룹 110" xmlns="http://www.w3.org/2000/svg" xmlns:xlink="http://www.w3.org/1999/xlink" width="35.216" height="58.596" viewBox="0 0 35.216 58.596">
  <defs>
    <clipPath id="clip-path">
      <rect id="사각형_49" data-name="사각형 49" width="35.216" height="58.596" fill="none"/>
    </clipPath>
  </defs>
  <g id="그룹_109" data-name="그룹 109" transform="translate(0 0)" clip-path="url(#clip-path)">
    <path id="패스_236" data-name="패스 236" d="M34.718,21.772a17.609,17.609,0,1,0-34.217,0,26.273,26.273,0,0,0,1.92,6.85c1.73,3.634,9.013,15.633,12.355,21.1-4.518.575-6.616,2.518-6.616,4.351,0,2.178,2.957,4.525,9.448,4.525s9.45-2.347,9.45-4.525c0-1.833-2.1-3.776-6.616-4.351,3.342-5.465,10.624-17.464,12.354-21.1a26.326,26.326,0,0,0,1.923-6.85m-10.382,32.3c-.185.514-2.458,1.8-6.728,1.8-4.318,0-6.595-1.321-6.731-1.788.122-.452,1.978-1.561,5.486-1.783.042.065.073.117.088.143a1.359,1.359,0,0,0,2.315,0l.088-.143c3.462.218,5.315,1.3,5.482,1.766M4.875,27.453a24.189,24.189,0,0,1-1.7-6.173c-.005-.035-.013-.07-.022-.105a14.89,14.89,0,1,1,28.91,0,1.062,1.062,0,0,0-.02.105,24.327,24.327,0,0,1-1.7,6.173c-1.748,3.669-9.72,16.763-12.734,21.684C14.6,44.216,6.623,31.122,4.875,27.453" transform="translate(0 0)" fill="#272525"/>
    <path id="패스_237" data-name="패스 237" d="M14.34,4.587a9.45,9.45,0,1,0,9.45,9.45,9.46,9.46,0,0,0-9.45-9.45m-6.73,9.45a6.73,6.73,0,1,1,6.73,6.73,6.737,6.737,0,0,1-6.73-6.73" transform="translate(3.267 3.064)" fill="#272525"/>
  </g>
</svg>
