<svg id="그룹_130" data-name="그룹 130" xmlns="http://www.w3.org/2000/svg" xmlns:xlink="http://www.w3.org/1999/xlink" width="54.035" height="61.385" viewBox="0 0 54.035 61.385">
  <defs>
    <clipPath id="clip-path">
      <rect id="사각형_59" data-name="사각형 59" width="54.035" height="61.385" fill="none"/>
    </clipPath>
  </defs>
  <g id="그룹_129" data-name="그룹 129" transform="translate(0 0)" clip-path="url(#clip-path)">
    <path id="패스_269" data-name="패스 269" d="M32.9,37.639,52.06,47.6A1.353,1.353,0,0,0,53.8,45.628l-4.479-6.517a2.8,2.8,0,0,0,.305-.464l.95-1.832a2.82,2.82,0,0,0-4.825-2.9l-2-2.905.783-1.5a2.82,2.82,0,0,0-4.24-3.53L39.7,25.11C44.885,14.388,48.271,2.232,44.479.259S32.086,7.934,26.234,18.4l-1.479.015a2.822,2.822,0,0,0-5.306-1.658l-.9,1.725-3.5.035a2.823,2.823,0,0,0-5.061-2.5l-.952,1.832a2.8,2.8,0,0,0-.247.735l-7.457.076A1.352,1.352,0,0,0,.729,21.21l19.164,9.959A52.6,52.6,0,0,0,16.915,42.81c-.189,1.139-.373,2.227-.579,3.209L6.3,49.19a1.352,1.352,0,0,0,.478,2.64c.095-.007,9.606-.386,17.268,9.055a1.352,1.352,0,0,0,2.34-1.259L23.221,49.616q.527-.58,1.108-1.214A73.709,73.709,0,0,0,32.9,37.639M12.691,50.006l5.2-1.645a1.348,1.348,0,0,0,.907-.975c.3-1.249.534-2.648.783-4.129a46.742,46.742,0,0,1,3.28-12.15,1.353,1.353,0,0,0-.609-1.759L6.778,21.306l2.92-.03a2.851,2.851,0,0,0,.549.383,2.8,2.8,0,0,0,3.2-.423l5.051-.053A2.811,2.811,0,0,0,21,22.719a2.869,2.869,0,0,0,.856-.133,2.811,2.811,0,0,0,1.657-1.393l.033-.063,3.5-.036a1.351,1.351,0,0,0,1.172-.7C34.633,8.641,41.454,2.809,43.21,2.691c.726,1.346-.04,9.3-6.281,21.935a1.348,1.348,0,0,0,.1,1.365l1.688,2.456-.146.282a2.827,2.827,0,0,0,2.5,4.131,2.873,2.873,0,0,0,.622-.075l2.681,3.9a2.821,2.821,0,0,0,2.378,3.461L48.507,42.7,33.026,34.658a1.348,1.348,0,0,0-1.786.514,66.987,66.987,0,0,1-8.9,11.4c-.592.645-1.146,1.249-1.648,1.814A1.355,1.355,0,0,0,20.41,49.7l1.7,5.371a25.844,25.844,0,0,0-9.417-5.061M10.962,18.844l.95-1.831a.665.665,0,1,1,1.181.614l-.952,1.829v0a.666.666,0,0,1-.9.284.66.66,0,0,1-.284-.9m10.405-1.091a.664.664,0,0,1,.592-.358.656.656,0,0,1,.632.464.655.655,0,0,1-.045.506L21.6,20.2a.665.665,0,0,1-1.181-.612Zm20.46,9.815a.636.636,0,0,1,.2-.033.668.668,0,0,1,.633.466.663.663,0,0,1-.045.506l-.95,1.832a.665.665,0,0,1-1.181-.614l.952-1.831a.648.648,0,0,1,.39-.327m4.7,9.468.952-1.831a.664.664,0,0,1,1.222.106.659.659,0,0,1-.043.507L47.7,37.651a.664.664,0,1,1-1.177-.615" transform="translate(0 0)" fill="#272525"/>
  </g>
</svg>
