<svg id="그룹_136" data-name="그룹 136" xmlns="http://www.w3.org/2000/svg" xmlns:xlink="http://www.w3.org/1999/xlink" width="64.399" height="33.062" viewBox="0 0 64.399 33.062">
  <defs>
    <clipPath id="clip-path">
      <rect id="사각형_62" data-name="사각형 62" width="64.399" height="33.062" fill="none"/>
    </clipPath>
  </defs>
  <g id="그룹_135" data-name="그룹 135" transform="translate(0 0)" clip-path="url(#clip-path)">
    <path id="패스_275" data-name="패스 275" d="M54.247,22.148c-1.273-.2-2.64-.381-4.08-.541l-.876-4.267v0L45.94,1.041A1.308,1.308,0,0,0,44.381.029c-.094.022-9.47,2.078-12.485,2.078-3.1,0-12.744-2.058-12.842-2.078A1.3,1.3,0,0,0,17.5,1.068l-3,16.27,0,0-.8,4.323c-1.247.146-2.435.307-3.555.484C5.132,22.939,0,24.121,0,26.883s5.132,3.944,10.15,4.736A149.1,149.1,0,0,0,32.2,33.062a149.08,149.08,0,0,0,22.049-1.443c5.02-.793,10.152-1.974,10.152-4.736s-5.132-3.944-10.152-4.735M52.76,29.2A152.6,152.6,0,0,1,32.2,30.451,152.6,152.6,0,0,1,11.639,29.2c-6.2-.889-8.225-1.893-8.835-2.32.61-.426,2.631-1.431,8.835-2.319.508-.072,1.034-.143,1.569-.208l-.335,1.824a1.306,1.306,0,0,0,1.284,1.542H49.825A1.306,1.306,0,0,0,51.1,26.153L50.722,24.3c.7.083,1.382.171,2.038.266,6.2.887,8.225,1.893,8.835,2.319-.61.428-2.631,1.431-8.835,2.32M43.647,2.857,46.411,16.3H17.348L19.823,2.855c2.828.578,9.4,1.862,12.073,1.862,2.6,0,8.991-1.281,11.751-1.861M15.78,24.811l1.087-5.9h30.08l1.276,6.2h-32.5Z" transform="translate(0 -0.001)" fill="#272525"/>
  </g>
</svg>
