<svg id="그룹_88" data-name="그룹 88" xmlns="http://www.w3.org/2000/svg" xmlns:xlink="http://www.w3.org/1999/xlink" width="35.169" height="51.435" viewBox="0 0 35.169 51.435">
  <defs>
    <clipPath id="clip-path">
      <rect id="사각형_38" data-name="사각형 38" width="35.169" height="51.435" fill="none"/>
    </clipPath>
  </defs>
  <g id="그룹_87" data-name="그룹 87" transform="translate(0 0)" clip-path="url(#clip-path)">
    <path id="패스_203" data-name="패스 203" d="M4.645,42.176a20.027,20.027,0,0,0,8.417,3.8V48.53a2.912,2.912,0,0,0,2.912,2.905h3.6a2.909,2.909,0,0,0,2.908-2.905V45.984a19.176,19.176,0,0,0,7.1-2.741A11.66,11.66,0,0,0,35.167,33.3a10.073,10.073,0,0,0-2.25-6.83c-2.29-2.733-5.8-4.51-10.434-5.292V16.839a10.126,10.126,0,0,1,.908.707,3.53,3.53,0,0,0,2.284.828,3.863,3.863,0,0,0,1.627-.446,1.011,1.011,0,0,0,.119-.064l4.038-2.533a2.494,2.494,0,0,0,1.283-2.116,2.419,2.419,0,0,0-.8-1.816,17.113,17.113,0,0,0-9.462-5.45V2.912A2.912,2.912,0,0,0,19.574,0h-3.6a2.915,2.915,0,0,0-2.912,2.912v2.91A18.474,18.474,0,0,0,8.569,7.186C3.375,9.55.787,13.172.877,17.951a10.474,10.474,0,0,0,2.128,6.269c2.123,2.846,5.505,4.714,10.057,5.556v6.237A14.771,14.771,0,0,1,8.941,32.8a2.848,2.848,0,0,0-2.312-1.107,4.332,4.332,0,0,0-1.456.39c-.02.01-.042.018-.062.03l-.047.025L1.4,34.29a2.486,2.486,0,0,0-.762,3.892,19.309,19.309,0,0,0,4.011,3.994m-2.3-6.256,3.625-2.126a3.417,3.417,0,0,1,.657-.216.965.965,0,0,1,.844.409c.017.022.035.044.054.064a15.541,15.541,0,0,0,6.165,4.282.943.943,0,0,0,1.258-.89V28.979a.944.944,0,0,0-.8-.933c-4.453-.687-7.695-2.354-9.637-4.957a8.519,8.519,0,0,1-1.749-5.172C2.69,13.9,4.845,10.955,9.353,8.9a17.174,17.174,0,0,1,4.785-1.339.946.946,0,0,0,.813-.937V2.912a1.025,1.025,0,0,1,1.024-1.024h3.6A1.024,1.024,0,0,1,20.6,2.912V6.728a.944.944,0,0,0,.782.93,15.393,15.393,0,0,1,9.179,5.023.511.511,0,0,0,.074.074.535.535,0,0,1,.221.429c0,.1-.005.3-.4.55l-3.991,2.5a2.479,2.479,0,0,1-.776.248,1.646,1.646,0,0,1-1.072-.379,11.7,11.7,0,0,0-2.669-1.757A.945.945,0,0,0,20.6,15.2v6.782a.944.944,0,0,0,.814.933c4.56.638,7.946,2.242,10.056,4.756a8.117,8.117,0,0,1,1.813,5.584,9.745,9.745,0,0,1-4.73,8.409A17.733,17.733,0,0,1,21.4,44.25a.944.944,0,0,0-.806.933V48.53a1.022,1.022,0,0,1-1.022,1.019h-3.6A1.022,1.022,0,0,1,14.95,48.53V45.19a.945.945,0,0,0-.794-.933,18.253,18.253,0,0,1-8.365-3.58,17.419,17.419,0,0,1-3.649-3.632l-.064-.08a.619.619,0,0,1-.191-.431c0-.121-.005-.345.459-.613" transform="translate(0.001 0)" fill="#272525"/>
    <path id="패스_204" data-name="패스 204" d="M10.642,9.344a.944.944,0,0,0-1.287-.88l-.276.109c-.022.008-.044.018-.065.028A3.97,3.97,0,0,0,6.38,12.288v0a4.1,4.1,0,0,0,2.979,3.947A.954.954,0,0,0,9.7,16.3a.946.946,0,0,0,.945-.945ZM8.754,13.658a2,2,0,0,1-.488-1.382,1.687,1.687,0,0,1,.488-1.233Z" transform="translate(4.309 5.673)" fill="#272525"/>
    <path id="패스_205" data-name="패스 205" d="M12.728,26.443a.947.947,0,0,0,.9.064,7.88,7.88,0,0,0,.888-.466,5.021,5.021,0,0,0,2.575-4.4c.012-1.453-.6-3.381-3.572-4.319a.945.945,0,0,0-1.228.9v7.429a.944.944,0,0,0,.434.794m1.453-6.763a2.122,2.122,0,0,1,1.027,1.943,2.987,2.987,0,0,1-1.027,2.332Z" transform="translate(8.303 11.666)" fill="#272525"/>
  </g>
</svg>
