<?xml version="1.0" ?><svg id="Layer_1" style="enable-background:new 0 0 60 60;" version="1.1" viewBox="0 0 60 60" xml:space="preserve" xmlns="http://www.w3.org/2000/svg" xmlns:xlink="http://www.w3.org/1999/xlink"><path d="M25.86,30c0-1.59-1.29-2.88-2.88-2.88S20.1,28.41,20.1,30s1.29,2.88,2.88,2.88S25.86,31.59,25.86,30z M22.98,30.88  c-0.48,0-0.88-0.39-0.88-0.88s0.39-0.88,0.88-0.88s0.88,0.39,0.88,0.88S23.46,30.88,22.98,30.88z"/><path d="M22.98,24.58c2.53,0,4.59-2.06,4.59-4.59s-2.06-4.59-4.59-4.59s-4.59,2.06-4.59,4.59S20.45,24.58,22.98,24.58z M22.98,17.39  c1.43,0,2.59,1.16,2.59,2.59s-1.16,2.59-2.59,2.59s-2.59-1.16-2.59-2.59S21.55,17.39,22.98,17.39z"/><path d="M15.54,31c1.09-0.56,1.9-1.51,2.28-2.67s0.28-2.41-0.28-3.5s-1.51-1.9-2.67-2.28c-1.17-0.38-2.41-0.28-3.5,0.28  c-1.09,0.56-1.9,1.51-2.28,2.67c-0.38,1.17-0.28,2.41,0.28,3.5c0.56,1.09,1.51,1.9,2.67,2.28c0.47,0.15,0.95,0.23,1.42,0.23  C14.17,31.5,14.88,31.33,15.54,31z M11.15,28.08c-0.31-0.62-0.37-1.32-0.16-1.98c0.21-0.66,0.67-1.19,1.29-1.51  c0.37-0.19,0.77-0.28,1.17-0.28c0.27,0,0.54,0.04,0.8,0.13c0.66,0.21,1.19,0.67,1.51,1.29c0.31,0.62,0.37,1.32,0.16,1.98  s-0.67,1.19-1.29,1.51s-1.32,0.37-1.98,0.16C12,29.16,11.46,28.7,11.15,28.08z"/><path d="M19.79,34.39c-2.05-1.49-4.93-1.03-6.41,1.02c-1.49,2.05-1.03,4.93,1.02,6.41c0.81,0.59,1.76,0.88,2.69,0.88  c1.42,0,2.82-0.66,3.72-1.89C22.3,38.75,21.84,35.87,19.79,34.39z M19.19,39.62c-0.84,1.16-2.46,1.41-3.62,0.57  c-1.16-0.84-1.41-2.46-0.57-3.62c0.84-1.16,2.46-1.41,3.62-0.57S20.03,38.47,19.19,39.62z"/><path d="M29.58,33.57c-1.21-0.19-2.42,0.1-3.42,0.82c-0.99,0.72-1.64,1.79-1.84,3c-0.19,1.21,0.1,2.42,0.82,3.42  c0.72,0.99,1.78,1.64,3,1.84c0.24,0.04,0.49,0.06,0.73,0.06c0.96,0,1.9-0.3,2.69-0.88c0.99-0.72,1.64-1.79,1.84-3  c0.19-1.21-0.1-2.42-0.82-3.42C31.86,34.41,30.79,33.76,29.58,33.57z M30.39,40.2c-0.56,0.41-1.25,0.57-1.93,0.46  c-0.68-0.11-1.28-0.48-1.69-1.04c-0.84-1.16-0.58-2.78,0.57-3.62c0.45-0.33,0.97-0.5,1.52-0.5c0.14,0,0.27,0.01,0.41,0.03  c0.68,0.11,1.28,0.48,1.69,1.04C31.8,37.73,31.54,39.36,30.39,40.2z"/><path d="M36.59,28.99c0.56-1.09,0.65-2.34,0.28-3.5s-1.19-2.12-2.28-2.67c-1.09-0.56-2.34-0.66-3.5-0.28  c-1.17,0.38-2.12,1.19-2.67,2.28c-0.56,1.09-0.65,2.34-0.28,3.5c0.38,1.17,1.19,2.12,2.28,2.67c0.66,0.33,1.36,0.5,2.08,0.5  c0.48,0,0.96-0.08,1.42-0.23C35.09,30.89,36.04,30.08,36.59,28.99z M34.81,28.08c-0.31,0.62-0.85,1.07-1.51,1.29  c-0.66,0.21-1.36,0.16-1.98-0.16s-1.07-0.85-1.29-1.51c-0.21-0.66-0.16-1.36,0.16-1.98c0.31-0.62,0.85-1.07,1.51-1.29  c0.26-0.09,0.53-0.13,0.8-0.13c0.4,0,0.8,0.1,1.17,0.28c0.62,0.31,1.07,0.85,1.29,1.51C35.18,26.76,35.13,27.47,34.81,28.08z"/><path d="M54,22.89c-0.55,0-1,0.45-1,1v7.4c-1.55,0.01-3.12,0.34-4.75,0.97l-0.89-4.63c1.19-0.84,2.4-1.51,3.63-1.97  c0.52-0.2,0.78-0.77,0.58-1.29c-0.2-0.52-0.77-0.78-1.29-0.58c-1.56,0.59-3.1,1.45-4.58,2.56c0,0-0.01,0.01-0.01,0.01  c-0.01,0.01-0.03,0.02-0.04,0.03c-1.65,1.24-3.25,2.82-4.75,4.67c0.02-0.35,0.05-0.69,0.05-1.04c0-9.91-8.07-17.98-17.98-17.98  S5,20.09,5,30s8.06,17.98,17.98,17.98c3.84,0,7.4-1.22,10.32-3.28c0.03-0.02,0.07-0.03,0.1-0.05c2.01-1.41,3.82-2.78,5.56-4.1  c1.41-1.07,2.75-2.09,4.03-2.99c0.03-0.02,0.06-0.04,0.08-0.07c1.9-1.35,3.45-2.28,4.85-2.93c2.15-1,4.05-1.39,6-1.23  c0.28,0.03,0.55-0.07,0.76-0.26C54.88,32.86,55,32.6,55,32.32v-8.43C55,23.33,54.55,22.89,54,22.89z M45.6,29.01l0.78,4.08  c-1.05,0.54-2.19,1.22-3.46,2.08l-0.85-2.38C43.19,31.35,44.38,30.08,45.6,29.01z M40.04,35.62c0.19-0.29,0.39-0.59,0.59-0.89  l0.58,1.63c-0.69,0.5-1.41,1.03-2.13,1.58C39.45,37.2,39.78,36.43,40.04,35.62z M7,30c0-8.81,7.17-15.98,15.98-15.98  c8.81,0,15.98,7.17,15.98,15.98c0,8.81-7.17,15.98-15.98,15.98C14.17,45.98,7,38.81,7,30z"/></svg>