<svg id="그룹_30" data-name="그룹 30" xmlns="http://www.w3.org/2000/svg" xmlns:xlink="http://www.w3.org/1999/xlink" width="56.935" height="38.959" viewBox="0 0 56.935 38.959">
  <defs>
    <clipPath id="clip-path">
      <rect id="사각형_9" data-name="사각형 9" width="56.935" height="38.959" fill="none"/>
    </clipPath>
  </defs>
  <g id="그룹_29" data-name="그룹 29" transform="translate(0 0)" clip-path="url(#clip-path)">
    <path id="패스_100" data-name="패스 100" d="M56.176,13.835l-6.855-1.578V.979A.979.979,0,0,0,48.342,0H.978A.978.978,0,0,0,0,.979V26.417a.977.977,0,0,0,.978.978H5.111l-.025.106a.976.976,0,0,0,.735,1.172l.509.117L50.475,38.943a1.037,1.037,0,0,0,.145.016.976.976,0,0,0,.942-.733l4.407-19.132.941-4.086a.977.977,0,0,0-.734-1.172m-6.855,7.188.023.01-.023.1ZM31.24,28.664a7.313,7.313,0,0,0,3.888-1.123c.073-.047.14-.1.212-.147h12.54L47.4,29.471c-.151-.016-.3-.024-.45-.025a5.325,5.325,0,0,0-4.7,2.717,5.764,5.764,0,0,0-.353.762L17.875,27.395H27.1q.279.188.573.351c.148.082.3.157.45.229a7.158,7.158,0,0,0,1.45.5,7.347,7.347,0,0,0,1.663.19m-1.14-1.27h2.282a6.147,6.147,0,0,1-2.282,0M1.955,1.956H47.364V25.438H1.955Zm47.93,34.852-40.9-9.414h6.153a.453.453,0,0,0,.344.386L42.1,33.906a.438.438,0,0,0,.1.013.457.457,0,0,0,.439-.331,4.417,4.417,0,0,1,5.034-3.158.455.455,0,0,0,.523-.348l.653-2.831a1.055,1.055,0,0,0,.192-.154.966.966,0,0,0,.279-.678V25.2l1.006-4.37a.456.456,0,0,0-.32-.542,4.247,4.247,0,0,1-.686-.261V14.264l5.463,1.257Z" transform="translate(0 0)" fill="#272525"/>
    <path id="패스_101" data-name="패스 101" d="M42.09,7.217a4.648,4.648,0,0,1-4.339-4.5.48.48,0,0,0-.48-.457H8.993a.481.481,0,0,0-.48.457,4.647,4.647,0,0,1-4.339,4.5.48.48,0,0,0-.454.48V17.842a.481.481,0,0,0,.454.48,4.645,4.645,0,0,1,4.339,4.5.481.481,0,0,0,.48.457H37.272a.48.48,0,0,0,.48-.457,4.646,4.646,0,0,1,4.338-4.5.482.482,0,0,0,.456-.48V7.7a.48.48,0,0,0-.456-.48M41.584,17.4a5.6,5.6,0,0,0-4.752,4.916H9.434A5.605,5.605,0,0,0,4.679,17.4V8.134A5.6,5.6,0,0,0,9.434,3.218h27.4a5.6,5.6,0,0,0,4.754,4.916Z" transform="translate(1.527 0.927)" fill="#272525"/>
    <path id="패스_102" data-name="패스 102" d="M19.875,4.144A7.75,7.75,0,0,0,12.249,12a7.75,7.75,0,0,0,7.626,7.851A7.749,7.749,0,0,0,27.5,12a7.749,7.749,0,0,0-7.624-7.851m0,14.487A6.532,6.532,0,0,1,13.466,12,6.532,6.532,0,0,1,19.875,5.36,6.532,6.532,0,0,1,26.283,12a6.532,6.532,0,0,1-6.408,6.635" transform="translate(5.029 1.701)" fill="#272525"/>
  </g>
</svg>
