<svg id="그룹_92" data-name="그룹 92" xmlns="http://www.w3.org/2000/svg" xmlns:xlink="http://www.w3.org/1999/xlink" width="46.114" height="43.151" viewBox="0 0 46.114 43.151">
  <defs>
    <clipPath id="clip-path">
      <rect id="사각형_40" data-name="사각형 40" width="46.114" height="43.151" fill="none"/>
    </clipPath>
  </defs>
  <g id="그룹_91" data-name="그룹 91" transform="translate(0 0)" clip-path="url(#clip-path)">
    <path id="패스_208" data-name="패스 208" d="M1.773,6.417,5.2,8.3l5.063,20.247L7.874,30.431a2.336,2.336,0,0,0-.9,1.848v3.549A2.363,2.363,0,0,0,9.3,38.183l2.354.035a3.74,3.74,0,0,0-.183,1.158,3.777,3.777,0,0,0,7.553,0,3.737,3.737,0,0,0-.151-1.056l15.642.22a3.7,3.7,0,0,0-.095.837,3.776,3.776,0,0,0,7.551,0,3.61,3.61,0,0,0-.073-.734l1.03.015a2.357,2.357,0,0,0,.033-4.713l-31.272-.439v-.083l1.657-1.306a3.228,3.228,0,0,0,.451.037l25.579.236a3.4,3.4,0,0,0,3.334-2.655L46.028,15.3a3.422,3.422,0,0,0-6.671-1.531l-2.7,11.749-20.152-.186L11.471,5.191A3.445,3.445,0,0,0,9.8,3.023L5.069.421a3.421,3.421,0,0,0-3.3,6m.291-3.742a1.55,1.55,0,0,1,2.1-.611l4.73,2.6a1.563,1.563,0,0,1,.757.982l5.212,20.846a.937.937,0,0,0,.9.71l21.631.2a.965.965,0,0,0,.922-.727l2.867-12.484a1.547,1.547,0,0,1,3.016.692L40.885,29.314a1.542,1.542,0,0,1-1.522,1.2L13.81,30.278a1.508,1.508,0,0,1-.424-.072.936.936,0,0,0-.85.163l-2.362,1.863a.934.934,0,0,0-.356.735v1.461a.936.936,0,0,0,.923.937l32.194.453a.483.483,0,0,1,.339.148.471.471,0,0,1,.136.341.485.485,0,0,1-.489.476l-2.442-.033a.937.937,0,0,0-.765,1.5,1.868,1.868,0,0,1,.384,1.13A1.9,1.9,0,1,1,36.716,38.2a.936.936,0,0,0-.722-1.517l-18.736-.263h-.013a.937.937,0,0,0-.659,1.6,1.882,1.882,0,0,1,.566,1.349,1.9,1.9,0,1,1-3.8,0,1.882,1.882,0,0,1,.612-1.386.938.938,0,0,0-.626-1.624l-4.008-.058a.481.481,0,0,1-.472-.481V32.279a.484.484,0,0,1,.181-.378l2.86-2.258a.936.936,0,0,0,.328-.963L6.914,7.448a.937.937,0,0,0-.458-.594l-3.78-2.08a1.548,1.548,0,0,1-.612-2.1" transform="translate(0 -0.001)" fill="#272525"/>
    <path id="패스_209" data-name="패스 209" d="M21.335,2.417H16.886a2.424,2.424,0,0,0-2.419,2.421v5.745H13.094a1.926,1.926,0,0,0-1.825.955,1.922,1.922,0,0,0,.324,2.033l5.655,7.591a2.243,2.243,0,0,0,3.723,0l5.657-7.591a1.923,1.923,0,0,0,.324-2.033,1.925,1.925,0,0,0-1.825-.955H23.755V4.838a2.424,2.424,0,0,0-2.421-2.421m3.787,10.04L19.47,20.042a.4.4,0,0,1-.717,0L13.1,12.457h2.3a.937.937,0,0,0,.937-.937V4.838a.546.546,0,0,1,.544-.546h4.449a.546.546,0,0,1,.546.546v6.683a.937.937,0,0,0,.937.937Z" transform="translate(7.369 1.603)" fill="#272525"/>
  </g>
</svg>
