<svg id="그룹_118" data-name="그룹 118" xmlns="http://www.w3.org/2000/svg" xmlns:xlink="http://www.w3.org/1999/xlink" width="51.861" height="52.308" viewBox="0 0 51.861 52.308">
  <defs>
    <clipPath id="clip-path">
      <rect id="사각형_53" data-name="사각형 53" width="51.861" height="52.308" fill="none"/>
    </clipPath>
  </defs>
  <g id="그룹_117" data-name="그룹 117" transform="translate(0 0)" clip-path="url(#clip-path)">
    <path id="패스_254" data-name="패스 254" d="M11.565,52.308a1.352,1.352,0,0,0,.813-.274H16.7a1.1,1.1,0,0,0,1.1-1.1V30.551a1.1,1.1,0,0,0-1.1-1.1H15.5V17.133c0-4.388,4.458-9.3,10.429-9.3s10.428,4.908,10.428,9.3V29.454h-1.2a1.1,1.1,0,0,0-1.1,1.1V50.939a1.1,1.1,0,0,0,1.1,1.1h4.32a1.355,1.355,0,0,0,.816.274,11.556,11.556,0,0,0,3.9-22.437V17.133C44.2,8.005,35.66,0,25.931,0S7.665,8.005,7.665,17.133V29.872a11.556,11.556,0,0,0,3.9,22.437M41.456,17.133V29.24a11.5,11.5,0,0,0-1.158-.06,1.366,1.366,0,0,0-.816.274H39.1V17.133C39.1,10.721,32.945,5.1,25.931,5.1S12.762,10.721,12.762,17.133V29.454h-.384a1.364,1.364,0,0,0-.813-.274,11.482,11.482,0,0,0-1.16.06V17.133C10.4,9.466,17.659,2.74,25.931,2.74S41.456,9.466,41.456,17.133m-5.2,14.514H39.2v18.2H36.257Zm5.41,17.817V32.027a8.825,8.825,0,0,1,0,17.436M15.6,49.842H12.66v-18.2H15.6Zm-5.41-17.815V49.463a8.825,8.825,0,0,1,0-17.436" transform="translate(0 0.001)" fill="#272525"/>
  </g>
</svg>
