<svg id="그룹_112" data-name="그룹 112" xmlns="http://www.w3.org/2000/svg" xmlns:xlink="http://www.w3.org/1999/xlink" width="46.609" height="51.358" viewBox="0 0 46.609 51.358">
  <defs>
    <clipPath id="clip-path">
      <rect id="사각형_50" data-name="사각형 50" width="46.609" height="51.358" fill="none"/>
    </clipPath>
  </defs>
  <g id="그룹_111" data-name="그룹 111" clip-path="url(#clip-path)">
    <path id="패스_238" data-name="패스 238" d="M.9,0h0A.892.892,0,0,0,0,.9V50.37a.9.9,0,0,0,.892.9l44.82.092h0a.892.892,0,0,0,.894-.9V.989a.893.893,0,0,0-.892-.9ZM44.818,49.567,1.789,49.476V1.792l43.029.089Z" fill="#272525"/>
    <path id="패스_239" data-name="패스 239" d="M10.587,14.538a4.357,4.357,0,0,0,.006-8.714h-.006a4.357,4.357,0,0,0-.006,8.714ZM8.02,10.177a2.571,2.571,0,0,1,2.567-2.564h0a2.567,2.567,0,0,1,0,5.135h0A2.564,2.564,0,0,1,8.02,10.177" transform="translate(3.874 3.622)" fill="#272525"/>
    <path id="패스_240" data-name="패스 240" d="M3.949,36.691H38.984a.9.9,0,0,0,.9-.894V3.894a.9.9,0,0,0-.9-.9H3.9a.9.9,0,0,0-.9.9v31.67a.9.9,0,0,0,.06.311.891.891,0,0,0,.887.816m34.142-2.022V34.9H4.843V28.991L10.4,22.126l6.737,5.728a.9.9,0,0,0,1.293-.139L27.6,15.677,38.091,25.859ZM4.793,4.79h33.3V23.365l-9.97-9.674a.895.895,0,0,0-1.335.1L17.573,25.878l-6.716-5.711a.9.9,0,0,0-.663-.209.887.887,0,0,0-.611.329L4.793,26.209Z" transform="translate(1.867 1.865)" fill="#272525"/>
  </g>
</svg>
