<svg id="그룹_102" data-name="그룹 102" xmlns="http://www.w3.org/2000/svg" xmlns:xlink="http://www.w3.org/1999/xlink" width="43.211" height="52.744" viewBox="0 0 43.211 52.744">
  <defs>
    <clipPath id="clip-path">
      <rect id="사각형_45" data-name="사각형 45" width="43.211" height="52.744" fill="none"/>
    </clipPath>
  </defs>
  <g id="그룹_101" data-name="그룹 101" transform="translate(0 0)" clip-path="url(#clip-path)">
    <path id="패스_217" data-name="패스 217" d="M8.577,25.491h5a.694.694,0,0,0,.66-.5q.279-1.729.691-3.432a.692.692,0,0,0-.66-.866H9.526a.7.7,0,0,0-.66.5q-.531,1.7-.948,3.432c-.206.856,1.113,1.22,1.319.364q.418-1.732.948-3.432l-.66.5h4.741l-.66-.866q-.413,1.7-.693,3.432l.661-.5h-5a.684.684,0,0,0,0,1.368" transform="translate(5.356 14.035)" fill="#272525"/>
    <path id="패스_218" data-name="패스 218" d="M13.443,16.511c-.837.077-1.623-.3-2.5-.3-.943,0-1.2-.023-1.841.755a.7.7,0,0,0-.107.831c.235.356,1.521,1.964,1.422,2.185a.694.694,0,0,0,.591,1.03h2.945a.679.679,0,0,0,.591-.339q.876-1.765,1.917-3.432a.69.69,0,0,0-.591-1.03,8.064,8.064,0,0,0-2.606.324.684.684,0,0,0,.363,1.319,2.868,2.868,0,0,1,1.155-.275h1.089c-.2-.342-.394-.685-.591-1.029q-1.04,1.672-1.917,3.432c.2-.112.394-.227.591-.337H11.006c.2.342.394.685.591,1.029.572-1.292-.737-2.526-1.422-3.568-.037.277-.072.552-.107.829.354-.43-.154-.3.411-.356a5.174,5.174,0,0,1,1.032,0,7.1,7.1,0,0,0,1.932.3c.869-.081.878-1.448,0-1.368" transform="translate(6.037 10.997)" fill="#272525"/>
    <path id="패스_219" data-name="패스 219" d="M7.987,30.02h5.666a.691.691,0,0,0,.685-.683c-.042-1.146-.037-2.288.01-3.432a.692.692,0,0,0-.685-.685H8.424a.689.689,0,0,0-.66.5q-.272,1.8-.462,3.615c-.091.874,1.279.868,1.369,0q.169-1.631.411-3.251l-.66.5h5.24q-.34-.342-.683-.683c-.049,1.145-.052,2.286-.01,3.432q.342-.342.683-.685H7.987a.684.684,0,0,0,0,1.368" transform="translate(4.951 17.107)" fill="#272525"/>
    <path id="패스_220" data-name="패스 220" d="M.816,5.969c.827.005,1.611.05,2.373.112a.5.5,0,0,0,.072.012l.029-.005c.191.017.388.029.574.047l-1.17.91A.821.821,0,0,0,3.7,8.343L6.106,6.475c.759.146,1.477.321,2.16.522L5.543,8.571A.821.821,0,0,0,5.955,10.1a.81.81,0,0,0,.411-.111l3.947-2.284c.477.195.93.4,1.363.621L7.042,11.338a.821.821,0,0,0,.446,1.509.806.806,0,0,0,.446-.133l5.35-3.474c.5.317.965.648,1.4.987L7.646,14.066a.821.821,0,1,0,.787,1.44L16,11.377c.305.3.591.594.858.895a.82.82,0,0,0,.274.31c.087.1.168.2.252.305L11.9,15.579a.821.821,0,1,0,.723,1.474l5.75-2.821c.082.126.159.248.235.371.005.018.013.034.02.052a4.94,4.94,0,0,0-3.988,2.788l-.163-.124a.821.821,0,1,0-.987,1.312l.683.514c-.013.139-.022.282-.022.425a4.779,4.779,0,0,0,.064.75l-3.768-2.7A.82.82,0,0,0,9.5,18.951l5.253,3.769c-.357.27-.715.566-1.071.881l-4.6-2.949a.821.821,0,1,0-.886,1.383l4.281,2.746c-.139.151-.279.307-.416.468a.313.313,0,0,0-.069.025.818.818,0,0,0-.361.329l-3.7-1.653a.822.822,0,0,0-.67,1.5L10.731,27c-.294.44-.572.915-.843,1.408L7.41,27.395a.821.821,0,0,0-.621,1.521l2.365.968q-.252.564-.483,1.168l-2.209-.314a.821.821,0,0,0-.232,1.625l1.9.272c-.119.4-.235.812-.339,1.239l-1.967.258a.821.821,0,0,0,.106,1.635.785.785,0,0,0,.107-.007l1.393-.183c-.065.351-.129.7-.183,1.067a.819.819,0,0,0,.693.93.581.581,0,0,0,.119.01.819.819,0,0,0,.811-.7c.1-.7.235-1.366.376-2.009a.772.772,0,0,0,.04-.185c.022-.091.04-.183.062-.274l.552.962a.821.821,0,1,0,1.423-.817L9.988,32.226q.295-.858.631-1.63l.989,2.428a.821.821,0,0,0,.762.51.809.809,0,0,0,.309-.06.744.744,0,0,0,.225-.143A70.587,70.587,0,0,0,10.36,51.381a1.368,1.368,0,0,0,1.369,1.363h8.259a1.369,1.369,0,0,0,1.354-1.574A45.233,45.233,0,0,1,24.11,28.163a4.907,4.907,0,0,0,1.62-.676.82.82,0,0,0,1.552-.134l.859-3.652a4.94,4.94,0,0,0,1-.426c.109.064.215.134.322.2l-1.823,6.482a.822.822,0,0,0,.567,1.012.854.854,0,0,0,.223.032.823.823,0,0,0,.79-.6l1.656-5.893c.252.208.5.426.735.655L29.9,29.833a.822.822,0,0,0,.488,1.054.833.833,0,0,0,.282.05.823.823,0,0,0,.772-.539l1.415-3.872c.168.21.331.428.488.648l-1.051,3.4a.82.82,0,0,0,.542,1.027.805.805,0,0,0,.242.037.823.823,0,0,0,.785-.579l.626-2.027q.3.561.567,1.161l-1,2.14a.82.82,0,0,0,.4,1.091.809.809,0,0,0,.344.077.823.823,0,0,0,.745-.477l.319-.685a.912.912,0,0,0,.065.2c.175.556.336,1.128.477,1.722a.821.821,0,0,0,.8.633.755.755,0,0,0,.191-.023.822.822,0,0,0,.609-.989c-.067-.28-.143-.545-.215-.816l1.128.049.035,0A.821.821,0,0,0,39,31.481l-1.7-.074c-.109-.319-.225-.621-.344-.921l1.571-.366a.821.821,0,0,0-.373-1.6l-1.866.435c-.144-.294-.29-.584-.441-.859l1.938-1a.821.821,0,0,0-.752-1.46l-2.048,1.056c-.243-.363-.493-.713-.752-1.041l2.868-1.591a.821.821,0,0,0-.8-1.437L33.205,24.34a.812.812,0,0,0-.334-.235.256.256,0,0,0-.049-.012c-.1-.1-.208-.2-.312-.3l3.5-2.7a.82.82,0,1,0-1-1.3l-3.8,2.929c-.253-.188-.507-.366-.76-.53a4.594,4.594,0,0,0,.368-.475l3.8-3.261a.821.821,0,1,0-1.069-1.247l-1.9,1.631A4.944,4.944,0,0,0,26.72,14.03a5.061,5.061,0,0,0-.785.069c.067-.146.141-.3.217-.45a.788.788,0,0,0,.188-.361c.057-.109.114-.217.176-.327l5.555,2.252a.842.842,0,0,0,.309.06.822.822,0,0,0,.309-1.583L27.407,11.55c.06-.084.117-.168.18-.252a.8.8,0,0,0,.238-.316c.225-.289.463-.577.72-.866l7.364,3.36a.821.821,0,1,0,.681-1.494L29.78,8.876c.363-.326.755-.643,1.17-.952l5.235,2.892a.821.821,0,0,0,.8-1.437L32.492,6.9c.364-.215.747-.423,1.145-.621l3.845,1.871a.788.788,0,0,0,.359.084A.821.821,0,0,0,38.2,6.676l-2.568-1.25c.589-.215,1.212-.413,1.868-.589l2.37,1.583a.821.821,0,0,0,.911-1.366L39.72,4.345c.863-.151,1.771-.269,2.734-.344a.821.821,0,1,0-.129-1.636c-.408.032-.8.077-1.188.123l.3-1.5A.821.821,0,1,0,39.828.661l-.415,2.074c-.48.084-.947.18-1.4.284L37.859.953a.821.821,0,0,0-1.638.123L36.4,3.449c-.46.139-.9.29-1.331.45L34.2,1.305a.821.821,0,0,0-1.557.519l.9,2.709c-.564.26-1.106.534-1.611.824l-1.4-3.8A.821.821,0,0,0,29,2.124l1.489,4.038a.815.815,0,0,0-.389.352.767.767,0,0,0-.034.077c-.195.146-.384.292-.567.441L26.891,2.3a.821.821,0,1,0-1.438.79l2.786,5.063q-.569.556-1.059,1.124L23.565,3.454a.818.818,0,0,0-1.509.332.777.777,0,0,0-.143-.094.819.819,0,0,0-1.108.344l-3.419,6.5c-.394-.4-.821-.8-1.277-1.182l2.581-5.6a.82.82,0,1,0-1.49-.686L14.777,8.322c-.223-.158-.455-.31-.691-.462a.872.872,0,0,0-.044-.089.826.826,0,0,0-.46-.337L14.866,3a.821.821,0,0,0-1.578-.458L12.077,6.731c-.586-.285-1.207-.547-1.858-.792l.76-2.976A.82.82,0,1,0,9.39,2.557l-.732,2.86c-.493-.148-1-.282-1.529-.4l.01-2.563a.823.823,0,0,0-.819-.826h0a.82.82,0,0,0-.821.819L5.488,4.7C4.974,4.62,4.444,4.551,3.9,4.5L3.295,2.3a.821.821,0,1,0-1.583.436l.45,1.635c-.438-.02-.878-.04-1.334-.044H.822A.822.822,0,0,0,.816,5.969m23.8,7.222c-.225.463-.416.906-.579,1.324l-.2-.326L24,13.874a.819.819,0,0,0-1.061-1.129l-.4-.643a.818.818,0,0,0-.723-.384l.846-1.524ZM21.043,28.464c-.376,1.041-.75,2.189-1.1,3.432-.309,1.1-.6,2.272-.851,3.514-.222,1.094-.416,2.241-.571,3.432-.173,1.334-.3,2.727-.352,4.169-.045,1.116-.05,2.261-.008,3.432s.126,2.351.267,3.563h-5.3c.03-.861.092-2.091.218-3.563.089-1.037.208-2.2.371-3.432.173-1.319.393-2.724.675-4.169.22-1.129.482-2.282.784-3.432.31-1.183.668-2.363,1.079-3.514.082-.232.164-.462.252-.69l.237.628c.008.023.025.04.034.062a.819.819,0,0,0,.733.47.838.838,0,0,0,.29-.054.825.825,0,0,0,.478-1.057l-.844-2.235c.087-.188.175-.374.267-.556.193-.391.4-.77.608-1.143l.3.918a.792.792,0,0,0,.116.225.819.819,0,0,0,.663.339.8.8,0,0,0,.257-.042.82.82,0,0,0,.524-1.036l-.164-.5a5.01,5.01,0,0,0,1.229.707c-.065.173-.131.351-.195.53m-1.949-11.1a2.2,2.2,0,0,1,2.051,1.418,4.963,4.963,0,0,0-2.731,2.868,2.2,2.2,0,0,1,.68-4.286m-2.853,6.226a4.928,4.928,0,0,0,.874.5q-.511.73-.97,1.51l-.572-1.519c.222-.173.445-.337.668-.49m-1.989,1.64.864,2.289q-.3.622-.579,1.259l-1.2-2.564c.3-.349.6-.68.913-.983m8.8.312a2.2,2.2,0,1,1,2.2-2.2,2.207,2.207,0,0,1-2.2,2.2m5.874-6.574a2.2,2.2,0,0,1-1.5,2.078,4.951,4.951,0,0,0-2.868-2.41,2.2,2.2,0,0,1,4.372.332m-7.791-6.025.008.022.8,1.289-.507.965a4.809,4.809,0,0,0-.844-.357c-.082-.156-.17-.31-.262-.468Zm-8,19.46L11.6,28.66c.2-.337.4-.661.613-.968l1.492,3.189c-.195.537-.378,1.081-.55,1.625-.008-.032-.017-.065-.029-.1M22.259,4.8a.817.817,0,0,0,.074-.218l3.773,6.082c-.213.3-.41.6-.594.9L22.947,7.628a.821.821,0,0,0-1.376.9l.074.114-2.326,4.2c-.237-.331-.488-.661-.76-1Z" transform="translate(0 0.001)" fill="#272525"/>
  </g>
</svg>
