<?xml version="1.0" ?><svg viewBox="0 0 64 64" xmlns="http://www.w3.org/2000/svg"><title/><g data-name="Layer 12" id="Layer_12"><path d="M55,14H35V1a1,1,0,0,0-1-1H30a1,1,0,0,0-1,1V14H9a1,1,0,0,0-1,1v4a1,1,0,0,0,1,1h3.087l1.279,14.074c0,.013,0,.025,0,.037L16,63.091A1,1,0,0,0,17,64H47a1,1,0,0,0,1-.909l2.64-28.98c0-.012,0-.024,0-.037L51.913,20H55a1,1,0,0,0,1-1V15A1,1,0,0,0,55,14ZM31,2h2V14H31ZM17.914,62,15.42,34.58a6.093,6.093,0,0,1,6.428.829,1,1,0,0,0,1.3,0A5.893,5.893,0,0,1,27,34a5.99,5.99,0,0,1,4.282,1.806,1.027,1.027,0,0,0,1.436,0A5.99,5.99,0,0,1,37,34a5.893,5.893,0,0,1,3.848,1.409,1,1,0,0,0,1.3,0,6.1,6.1,0,0,1,6.428-.829L46.086,62ZM48.767,32.52a8.159,8.159,0,0,0-7.267.87A7.928,7.928,0,0,0,37,32a8.02,8.02,0,0,0-5,1.76A8.02,8.02,0,0,0,27,32a7.928,7.928,0,0,0-4.5,1.39,8.162,8.162,0,0,0-7.267-.869L14.1,20h35.81ZM54,18H10V16H54Z"/></g></svg>