<svg id="그룹_98" data-name="그룹 98" xmlns="http://www.w3.org/2000/svg" xmlns:xlink="http://www.w3.org/1999/xlink" width="40.819" height="53.134" viewBox="0 0 40.819 53.134">
  <defs>
    <clipPath id="clip-path">
      <rect id="사각형_43" data-name="사각형 43" width="40.819" height="53.134" fill="none"/>
    </clipPath>
  </defs>
  <g id="그룹_97" data-name="그룹 97" transform="translate(0 0)" clip-path="url(#clip-path)">
    <path id="패스_215" data-name="패스 215" d="M5.773,52.5a1.323,1.323,0,0,0,1.131.634H30.572a1.322,1.322,0,0,0,1.094-.577l6.255-9.144a1.323,1.323,0,0,0-1.094-2.072H15.209V38.715H39.494a1.323,1.323,0,0,0,1.32-1.435,60.576,60.576,0,0,0-3.482-14.646C33.538,12.485,27.5,5.439,19.852,2.211a1.326,1.326,0,0,0-.777-.254H15.209V1.325a1.326,1.326,0,0,0-2.651,0V41.34H1.324A1.326,1.326,0,0,0,.193,43.354ZM20.32,31.073V5.339c8.426,4.3,12.948,13.242,15.331,20.608.595,1.84,1.057,3.579,1.412,5.125.484,2.107.774,3.854.935,4.992H20.32ZM15.209,4.606h2.462V36.064H15.209ZM34.315,43.99l-4.442,6.5H7.647l-3.961-6.5Z" transform="translate(0 -0.001)" fill="#272525"/>
  </g>
</svg>
