<svg id="그룹_94" data-name="그룹 94" xmlns="http://www.w3.org/2000/svg" xmlns:xlink="http://www.w3.org/1999/xlink" width="50.312" height="43.02" viewBox="0 0 50.312 43.02">
  <defs>
    <clipPath id="clip-path">
      <rect id="사각형_41" data-name="사각형 41" width="50.312" height="43.02" fill="none"/>
    </clipPath>
  </defs>
  <g id="그룹_93" data-name="그룹 93" transform="translate(0 0)" clip-path="url(#clip-path)">
    <path id="패스_210" data-name="패스 210" d="M1.262,43.02H49.052a1.26,1.26,0,0,0,1.26-1.26V8.069a1.26,1.26,0,0,0-1.26-1.262H35.91V1.26A1.26,1.26,0,0,0,34.65,0H21.565A1.26,1.26,0,0,0,20.3,1.26V6.808H13.912V5.877a1.26,1.26,0,0,0-1.26-1.26H8.22a1.26,1.26,0,0,0-1.26,1.26v.931h-5.7A1.261,1.261,0,0,0,0,8.069V41.76a1.261,1.261,0,0,0,1.262,1.26m21.563-40.5H33.389V6.808H22.825ZM2.522,9.329H47.791V40.5H2.522Z" transform="translate(0 0)" fill="#272525"/>
    <path id="패스_211" data-name="패스 211" d="M24.453,8.144A11.886,11.886,0,1,0,36.338,20.031,11.9,11.9,0,0,0,24.453,8.144m0,21.25a9.364,9.364,0,1,1,9.363-9.363,9.374,9.374,0,0,1-9.363,9.363" transform="translate(7.735 5.012)" fill="#272525"/>
    <path id="패스_212" data-name="패스 212" d="M22.282,11.671a6.187,6.187,0,1,0,6.187,6.187,6.2,6.2,0,0,0-6.187-6.187m0,9.854a3.666,3.666,0,1,1,3.666-3.667,3.67,3.67,0,0,1-3.666,3.667" transform="translate(9.906 7.183)" fill="#272525"/>
    <path id="패스_213" data-name="패스 213" d="M13.257,7.177H4.393A1.262,1.262,0,0,0,3.131,8.439v5.347a1.262,1.262,0,0,0,1.262,1.262h8.864a1.26,1.26,0,0,0,1.26-1.262V8.439a1.26,1.26,0,0,0-1.26-1.262M12,12.526H5.654V9.7H12Z" transform="translate(1.927 4.417)" fill="#272525"/>
  </g>
</svg>
