<svg id="그룹_134" data-name="그룹 134" xmlns="http://www.w3.org/2000/svg" xmlns:xlink="http://www.w3.org/1999/xlink" width="60.911" height="43.221" viewBox="0 0 60.911 43.221">
  <defs>
    <clipPath id="clip-path">
      <rect id="사각형_61" data-name="사각형 61" width="60.911" height="43.221" fill="none"/>
    </clipPath>
  </defs>
  <g id="그룹_133" data-name="그룹 133" transform="translate(0 0)" clip-path="url(#clip-path)">
    <path id="패스_272" data-name="패스 272" d="M14.173,33.348a1.214,1.214,0,0,0,1.193.473l9.1-1.64,6.507,6.563a1.21,1.21,0,0,0,.862.36,1.184,1.184,0,0,0,.386-.063,1.215,1.215,0,0,0,.819-.989L34.29,28.9l8.253-4.161a1.216,1.216,0,0,0-.019-2.181L34.2,18.533,32.8,9.4a1.217,1.217,0,0,0-2.081-.656L24.32,15.415,15.2,13.931a1.217,1.217,0,0,0-1.268,1.777L18.3,23.85,14.07,32.067a1.221,1.221,0,0,0,.1,1.281M20.756,24.4a1.216,1.216,0,0,0-.009-1.132L17.24,16.728l7.32,1.192a1.219,1.219,0,0,0,1.073-.36L30.765,12.2l1.129,7.332a1.223,1.223,0,0,0,.674.91l6.679,3.225-6.624,3.339a1.217,1.217,0,0,0-.656.922l-1.005,7.349L25.74,30.016a1.213,1.213,0,0,0-.864-.361,1.063,1.063,0,0,0-.216.021l-7.3,1.314Z" transform="translate(6.78 4.116)" fill="#272525"/>
    <path id="패스_273" data-name="패스 273" d="M38.544,4.9,36.336,7.541l-3.43-.319A1.217,1.217,0,0,0,31.763,9.08L33.6,12,32.233,15.16a1.216,1.216,0,0,0,1.414,1.66l3.34-.841,2.587,2.274a1.213,1.213,0,0,0,.8.3,1.2,1.2,0,0,0,.464-.092,1.215,1.215,0,0,0,.749-1.043l.233-3.437,2.961-1.759a1.215,1.215,0,0,0-.167-2.174L41.42,8.77l-.756-3.361a1.216,1.216,0,0,0-2.12-.512m.9,8.286L39.33,14.8l-1.217-1.07a1.216,1.216,0,0,0-.8-.3,1.182,1.182,0,0,0-.3.037l-1.571.4.641-1.487A1.215,1.215,0,0,0,36,11.243l-.861-1.371,1.613.149a1.216,1.216,0,0,0,1.046-.431l1.038-1.243.355,1.58a1.215,1.215,0,0,0,.734.861l1.5.6-1.393.826a1.213,1.213,0,0,0-.592.964" transform="translate(15.53 2.194)" fill="#272525"/>
    <path id="패스_274" data-name="패스 274" d="M4.477,12.961,3.239,18.84a1.216,1.216,0,0,0,1.714,1.347l5.42-2.594,5.208,2.994a1.217,1.217,0,0,0,1.813-1.216L16.6,13.416l4.458-4.028a1.215,1.215,0,0,0-.6-2.1L14.553,6.2,12.1.72A1.216,1.216,0,0,0,9.919.638L7.059,5.921l-5.973.64a1.217,1.217,0,0,0-.75,2.048Zm4.417-5.32,1.992-3.679,1.708,3.819a1.218,1.218,0,0,0,.891.7l4.114.756-3.1,2.806a1.219,1.219,0,0,0-.389,1.062l.552,4.146-3.627-2.084A1.217,1.217,0,0,0,9.9,15.124L6.127,16.929l.861-4.094a1.215,1.215,0,0,0-.309-1.089L3.8,8.716,7.954,8.27a1.213,1.213,0,0,0,.94-.63" transform="translate(0 0.001)" fill="#272525"/>
  </g>
</svg>
