<svg id="그룹_82" data-name="그룹 82" xmlns="http://www.w3.org/2000/svg" xmlns:xlink="http://www.w3.org/1999/xlink" width="48.263" height="46.91" viewBox="0 0 48.263 46.91">
  <defs>
    <clipPath id="clip-path">
      <rect id="사각형_35" data-name="사각형 35" width="48.263" height="46.91" fill="none"/>
    </clipPath>
  </defs>
  <g id="그룹_81" data-name="그룹 81" transform="translate(0 0)" clip-path="url(#clip-path)">
    <path id="패스_193" data-name="패스 193" d="M12.9,0H8.941A1.494,1.494,0,0,0,7.449,1.492V7.446H1.492A1.494,1.494,0,0,0,0,8.939v3.952a1.494,1.494,0,0,0,1.49,1.494H7.449v5.954a1.5,1.5,0,0,0,1.492,1.492H12.9a1.5,1.5,0,0,0,1.492-1.492V14.385h5.95a1.494,1.494,0,0,0,1.492-1.494V8.939a1.494,1.494,0,0,0-1.492-1.494h-5.95V1.492A1.494,1.494,0,0,0,12.9,0m6.947,9.433V12.4H13.394a.993.993,0,0,0-.995.993v6.455H9.437V13.391a.993.993,0,0,0-.995-.993H1.988V9.433H8.442a.993.993,0,0,0,.995-.993V1.986H12.4V8.44a.993.993,0,0,0,.995.993Z" transform="translate(0 0)" fill="#272525"/>
    <path id="패스_194" data-name="패스 194" d="M14.732,19.5V23.45a1.494,1.494,0,0,0,1.494,1.492H35.073a1.492,1.492,0,0,0,1.49-1.492V19.5A1.493,1.493,0,0,0,35.073,18H16.226A1.5,1.5,0,0,0,14.732,19.5m1.988.5H34.577v2.963H16.72Z" transform="translate(11.249 13.747)" fill="#272525"/>
    <path id="패스_195" data-name="패스 195" d="M36.819,9.667V5.715a1.494,1.494,0,0,0-1.492-1.492H16.48a1.492,1.492,0,0,0-1.492,1.492V9.667a1.494,1.494,0,0,0,1.492,1.494H35.327a1.5,1.5,0,0,0,1.492-1.494m-1.988-.494H16.974V6.211H34.831Z" transform="translate(11.444 3.224)" fill="#272525"/>
    <path id="패스_196" data-name="패스 196" d="M22.4,13.339a3.448,3.448,0,0,0-3.444,3.444v.06a3.47,3.47,0,0,0,6.94,0v-.06a3.449,3.449,0,0,0-3.444-3.444Zm1.508,3.444v.06a1.482,1.482,0,0,1-2.965,0v-.06A1.46,1.46,0,0,1,22.4,15.325h.051a1.459,1.459,0,0,1,1.457,1.458" transform="translate(14.475 10.185)" fill="#272525"/>
    <path id="패스_197" data-name="패스 197" d="M22.4,22.66A3.448,3.448,0,0,0,18.958,26.1v.06a3.47,3.47,0,0,0,6.94,0V26.1a3.449,3.449,0,0,0-3.444-3.444ZM23.91,26.1v.06a1.482,1.482,0,0,1-2.965,0V26.1A1.46,1.46,0,0,1,22.4,24.646h.051A1.459,1.459,0,0,1,23.91,26.1" transform="translate(14.475 17.302)" fill="#272525"/>
    <path id="패스_198" data-name="패스 198" d="M3.8,32.921a2.7,2.7,0,0,0,1.259.319A2.488,2.488,0,0,0,6.834,32.5l3.49-3.49L13.81,32.5a2.553,2.553,0,0,0,3.559,0l2.072-2.074a1.494,1.494,0,0,0,0-2.109l-4.213-4.211,4.21-4.208a1.494,1.494,0,0,0,0-2.109L16.646,15a1.492,1.492,0,0,0-1.056-.441h0a1.493,1.493,0,0,0-1.058.437l-4.2,4.208-4.21-4.21a1.49,1.49,0,0,0-2.111,0l-2.8,2.8a1.5,1.5,0,0,0,0,2.107l4.21,4.21-3.6,3.6a1.729,1.729,0,0,0-.307.414,2.572,2.572,0,0,0,.423,3.03L3.4,32.623a1.644,1.644,0,0,0,.4.3m-.557-3.832,4.282-4.28a.994.994,0,0,0,0-1.406L2.963,18.839l2.1-2.093,4.564,4.561a.991.991,0,0,0,1.406,0l4.559-4.557,2.1,2.093L13.123,23.4a.989.989,0,0,0,0,1.4l4.562,4.564-1.721,1.723a.567.567,0,0,1-.748,0l-4.19-4.19a1.024,1.024,0,0,0-1.406,0L5.428,31.1a.561.561,0,0,1-.66.086L3.333,29.745a.559.559,0,0,1-.088-.656" transform="translate(0.591 11.111)" fill="#272525"/>
  </g>
</svg>
