<?xml version="1.0" encoding="iso-8859-1"?>
<!-- Generator: Adobe Illustrator 19.0.0, SVG Export Plug-In . SVG Version: 6.00 Build 0)  -->
<svg xmlns="http://www.w3.org/2000/svg" xmlns:xlink="http://www.w3.org/1999/xlink" version="1.1" id="Layer_1" x="0px" y="0px" viewBox="0 0 512 512" style="enable-background:new 0 0 512 512;" xml:space="preserve">
<g>
	<g>
		<g>
			<path d="M236.581,218.383c30.459,25.93,60.445,43.636,61.707,44.377c1.541,0.904,3.309,1.382,5.096,1.382     s3.543-0.478,5.084-1.382c1.262-0.741,31.248-18.446,61.707-44.377c42.345-36.048,63.815-69.269,63.815-98.741     c0-38.9-31.647-70.546-70.546-70.546c-25.179,0-47.57,13.278-60.066,33.528c-12.495-20.25-34.887-33.528-60.066-33.528     c-38.9,0-70.546,31.647-70.546,70.546C172.766,149.113,194.236,182.334,236.581,218.383z M243.312,69.172     c25.55,0,47.086,19.108,50.097,44.446c0.599,5.051,4.882,8.854,9.969,8.854c5.087,0,9.369-3.804,9.969-8.854     c3.011-25.338,24.547-44.446,50.097-44.446c27.829,0,50.468,22.641,50.468,50.468c0,45.113-75.48,101.102-110.534,122.742     c-35.056-21.642-110.534-77.629-110.534-122.742C192.844,91.811,215.484,69.172,243.312,69.172z"/>
			<path d="M303.387,216.322c1.964,0,3.947-0.574,5.686-1.773c13.061-8.998,25.13-18.227,35.876-27.428     c3.841-3.29,7.543-6.609,11.005-9.863c4.038-3.798,4.233-10.151,0.435-14.19c-3.798-4.038-10.15-4.234-14.191-0.436     c-3.234,3.042-6.703,6.151-10.309,9.238c-10.214,8.748-21.722,17.545-34.206,26.144c-4.566,3.146-5.716,9.396-2.572,13.962     C297.059,214.804,300.196,216.322,303.387,216.322z"/>
			<path d="M368.31,150.148c1.747,1.215,3.745,1.798,5.723,1.798c3.175,0,6.299-1.503,8.251-4.308     c0.253-0.363,0.501-0.726,0.745-1.085c3.107-4.592,1.903-10.833-2.688-13.941c-4.592-3.106-10.832-1.903-13.941,2.688     c-0.195,0.289-0.397,0.58-0.6,0.873C362.635,140.726,363.759,146.982,368.31,150.148z"/>
			<path d="M506.383,315.208c-11.384-19.72-35.972-26.679-56-15.858l-70.772,37.331c-0.034,0.018-0.067,0.035-0.101,0.053     c-8.968,4.862-18.967,7.692-29.138,8.275c2.981-5.472,4.675-11.742,4.675-18.399c0-21.277-17.311-38.588-38.588-38.588h-57.487     c-38.896,0-72.095,12.97-95.033,36.39v-12.507c0-11.771-9.575-21.346-21.345-21.346H10.039C4.495,290.557,0,295.053,0,300.596     v152.139c0,5.543,4.495,10.039,10.039,10.039l132.555,0.13c11.77,0,21.345-9.575,21.345-21.345v-9.962l40.784,10.639     c10.606,2.768,21.544,4.171,32.51,4.171h92.283c14.828,0,29.56-3.732,42.539-10.757l118.065-62.863     c9.992-5.416,17.196-14.421,20.285-25.357C513.494,336.494,512.065,325.05,506.383,315.208z M84.925,442.695H20.078V310.634     h64.847V442.695z M143.861,354.396c-0.039,0.532-0.046,1.067,0,1.598v62.609v22.955c0,0.698-0.568,1.267-1.267,1.267h-37.592     V310.634h37.592c0.698,0,1.267,0.568,1.267,1.268V354.396z M491.083,341.973c-1.604,5.677-5.343,10.352-10.465,13.127     l-118.061,62.861c-10.113,5.474-21.539,8.368-33.041,8.368h-92.283c-9.256,0-18.488-1.185-27.441-3.521l-45.853-11.961v-53.227     c17.709-31.511,52.185-49.525,95.033-49.525h57.487c10.208,0,18.511,8.303,18.511,18.511s-8.303,18.512-18.511,18.512h-68.554     c-5.543,0-10.039,4.495-10.039,10.039c0,5.543,4.495,10.039,10.039,10.039h68.554h29.976c14.827,0,29.552-3.729,42.592-10.786     l70.772-37.331c0.034-0.018,0.067-0.035,0.1-0.053c10.404-5.639,23.183-2.028,29.097,8.218     C491.944,330.355,492.686,336.296,491.083,341.973z"/>
		</g>
	</g>
</g>
<g>
</g>
<g>
</g>
<g>
</g>
<g>
</g>
<g>
</g>
<g>
</g>
<g>
</g>
<g>
</g>
<g>
</g>
<g>
</g>
<g>
</g>
<g>
</g>
<g>
</g>
<g>
</g>
<g>
</g>
</svg>
