<svg id="그룹_20" data-name="그룹 20" xmlns="http://www.w3.org/2000/svg" xmlns:xlink="http://www.w3.org/1999/xlink" width="65.177" height="49.052" viewBox="0 0 65.177 49.052">
  <defs>
    <clipPath id="clip-path">
      <rect id="사각형_4" data-name="사각형 4" width="65.177" height="49.052" fill="none"/>
    </clipPath>
  </defs>
  <g id="그룹_19" data-name="그룹 19" transform="translate(0 0)" clip-path="url(#clip-path)">
    <path id="패스_88" data-name="패스 88" d="M55.713,1.453H39.726a5.675,5.675,0,0,0-3.758,1.422V0H2.741V29.17A4.351,4.351,0,0,0,0,33.2v3.579a4.35,4.35,0,0,0,4.345,4.345H8.113c0,.035-.005.065-.005.1a7.827,7.827,0,0,0,15.655,0c0-.033-.005-.064-.005-.1H44.151c0,.035-.005.065-.005.1a7.827,7.827,0,1,0,15.653,0,7.6,7.6,0,0,0-.071-1,9.467,9.467,0,0,0,5.45-8.56V10.916a9.474,9.474,0,0,0-9.464-9.462M4.687,1.946H34.022V28.859H4.687ZM15.935,47.108a5.882,5.882,0,1,1,5.882-5.882,5.89,5.89,0,0,1-5.882,5.882m36.038,0a5.882,5.882,0,1,1,5.88-5.882,5.888,5.888,0,0,1-5.88,5.882M63.233,31.664a7.519,7.519,0,0,1-4.005,6.641,7.817,7.817,0,0,0-14.8.877H23.482a7.815,7.815,0,0,0-15.094,0H4.345a2.4,2.4,0,0,1-2.4-2.4V33.2a2.4,2.4,0,0,1,2.4-2.4H35.967V7.155A3.762,3.762,0,0,1,39.726,3.4H55.713a7.527,7.527,0,0,1,7.52,7.517Z" transform="translate(0 -0.001)" fill="#272525"/>
    <path id="패스_89" data-name="패스 89" d="M10.469,20.617a3.774,3.774,0,1,0,3.773,3.773,3.779,3.779,0,0,0-3.773-3.773m0,5.6a1.828,1.828,0,1,1,1.826-1.829,1.83,1.83,0,0,1-1.826,1.829" transform="translate(5.466 16.834)" fill="#272525"/>
    <path id="패스_90" data-name="패스 90" d="M30.306,20.617a3.774,3.774,0,1,0,3.775,3.773,3.778,3.778,0,0,0-3.775-3.773m0,5.6a1.828,1.828,0,1,1,1.827-1.829,1.83,1.83,0,0,1-1.827,1.829" transform="translate(21.665 16.834)" fill="#272525"/>
    <path id="패스_91" data-name="패스 91" d="M16.909,4.44H10.9V9.432H5.912v6.005H10.9v4.994h6.005V15.437H21.9V9.432H16.909Zm3.048,6.937v2.116H14.966v4.992H12.849V13.494H7.856V11.377h4.994V6.386h2.116v4.992h4.992Z" transform="translate(4.827 3.625)" fill="#272525"/>
    <path id="패스_92" data-name="패스 92" d="M37.065,5.293H32.509v-.06H21.6V19.075H37.065a5.106,5.106,0,0,0,5.1-5.1V10.392a5.1,5.1,0,0,0-5.1-5.1m3.153,8.681a3.156,3.156,0,0,1-3.153,3.153H23.541V7.18h7.025v.058h6.5a3.156,3.156,0,0,1,3.153,3.154Z" transform="translate(17.635 4.272)" fill="#272525"/>
  </g>
</svg>
