<?xml version="1.0" ?><svg id="Layer_1" style="enable-background:new 0 0 60 60;" version="1.1" viewBox="0 0 60 60" xml:space="preserve" xmlns="http://www.w3.org/2000/svg" xmlns:xlink="http://www.w3.org/1999/xlink"><path d="M21.08,23.77c-3.13,0-5.67,2.54-5.67,5.67v12.65c0,3.13,2.54,5.67,5.67,5.67h17.84c3.13,0,5.67-2.54,5.67-5.67V29.44  c0-3.13-2.54-5.67-5.67-5.67H21.08z M42.59,29.44v12.65c0,2.03-1.65,3.67-3.67,3.67H21.08c-2.03,0-3.67-1.65-3.67-3.67V29.44  c0-2.03,1.65-3.67,3.67-3.67h17.84C40.95,25.77,42.59,27.42,42.59,29.44z"/><path d="M49.55,29.4v-3.79c0-0.55-0.45-1-1-1s-1,0.45-1,1v20.32c0,2.73-2.22,4.95-4.95,4.95H17.4c-2.73,0-4.95-2.22-4.95-4.95V25.61  c0-2.73,2.22-4.95,4.95-4.95h25.2c1.55,0,2.98,0.71,3.93,1.94c0.34,0.44,0.96,0.52,1.4,0.18c0.44-0.34,0.52-0.96,0.18-1.4  c-1.33-1.73-3.34-2.72-5.51-2.72H31v-2.74c1.98-0.46,3.46-2.22,3.46-4.34c0-2.46-2-4.46-4.46-4.46c-2.46,0-4.46,2-4.46,4.46  c0,2.11,1.48,3.88,3.46,4.34v2.74H17.4c-3.83,0-6.95,3.12-6.95,6.95v3.79C7.37,29.88,5,32.55,5,35.77c0,3.22,2.37,5.88,5.45,6.37  v3.79c0,3.83,3.12,6.95,6.95,6.95h25.2c3.83,0,6.95-3.12,6.95-6.95v-3.79c3.08-0.48,5.45-3.15,5.45-6.37  C55,32.55,52.63,29.88,49.55,29.4z M27.54,11.59c0-1.36,1.1-2.46,2.46-2.46s2.46,1.1,2.46,2.46s-1.1,2.46-2.46,2.46  S27.54,12.94,27.54,11.59z M7,35.77c0-2.11,1.48-3.87,3.45-4.33v8.66C8.48,39.64,7,37.88,7,35.77z M49.55,40.1v-8.66  c1.97,0.46,3.45,2.22,3.45,4.33S51.52,39.64,49.55,40.1z"/><path d="M26.84,31.32c0-1.61-1.31-2.92-2.92-2.92c-1.61,0-2.92,1.31-2.92,2.92c0,1.61,1.31,2.92,2.92,2.92  C25.53,34.23,26.84,32.92,26.84,31.32z M23.01,31.32c0-0.51,0.41-0.92,0.92-0.92c0.51,0,0.92,0.41,0.92,0.92  c0,0.5-0.41,0.92-0.92,0.92C23.42,32.23,23.01,31.82,23.01,31.32z"/><path d="M36.08,28.4c-1.61,0-2.92,1.31-2.92,2.92c0,1.61,1.31,2.92,2.92,2.92c1.61,0,2.92-1.31,2.92-2.92  C38.99,29.71,37.69,28.4,36.08,28.4z M36.08,32.23c-0.5,0-0.92-0.41-0.92-0.92c0-0.51,0.41-0.92,0.92-0.92  c0.51,0,0.92,0.41,0.92,0.92C36.99,31.82,36.58,32.23,36.08,32.23z"/><path d="M35.12,39.38H24.88c-0.55,0-1,0.45-1,1s0.45,1,1,1h10.24c0.55,0,1-0.45,1-1S35.67,39.38,35.12,39.38z"/></svg>