<?xml version="1.0" ?><svg id="Layer_1" style="enable-background:new 0 0 60 60;" version="1.1" viewBox="0 0 60 60" xml:space="preserve" xmlns="http://www.w3.org/2000/svg" xmlns:xlink="http://www.w3.org/1999/xlink"><path d="M48.76,15.96h-4.08c-1.73,0-3.31-1.08-3.95-2.69l-0.37-0.94c-0.95-2.41-3.23-3.96-5.81-3.96h-9.1  c-2.58,0-4.86,1.56-5.81,3.96l-0.37,0.94c-0.53,1.34-1.67,2.28-3.04,2.58v-2.11c0-0.55-0.45-1-1-1h-4.04c-0.55,0-1,0.45-1,1v2.32  C7.25,16.56,5,19.12,5,22.21v20.76c0,3.44,2.8,6.24,6.25,6.24h4.62c0.55,0,1-0.45,1-1s-0.45-1-1-1h-4.62C8.91,47.21,7,45.3,7,42.97  V22.21c0-2.34,1.91-4.25,4.25-4.25h3.98h0.09c2.58,0,4.86-1.55,5.81-3.95l0.37-0.94c0.63-1.61,2.22-2.7,3.95-2.7h9.1  c1.76,0,3.31,1.06,3.95,2.7L38.87,14c0.93,2.36,3.27,3.95,5.81,3.95h4.08c2.34,0,4.24,1.91,4.24,4.25v20.76  c0,2.34-1.9,4.24-4.24,4.24h-4.63c-0.55,0-1,0.45-1,1s0.45,1,1,1h4.63c3.44,0,6.24-2.8,6.24-6.24V22.21  C55,18.76,52.2,15.96,48.76,15.96z M12.19,15.96v-1.22h2.04v1.22H12.19z"/><path d="M30,20.1c-8.7,0-15.77,7.07-15.77,15.77S21.31,51.63,30,51.63s15.77-7.07,15.77-15.77S38.7,20.1,30,20.1z M30,49.63  c-7.59,0-13.77-6.18-13.77-13.77S22.41,22.1,30,22.1s13.77,6.18,13.77,13.77S37.59,49.63,30,49.63z"/><path d="M30,27.86c-4.41,0-8,3.59-8,8s3.59,8,8,8s8-3.59,8-8S34.41,27.86,30,27.86z M30,41.86c-3.31,0-6-2.69-6-6c0-3.31,2.69-6,6-6  s6,2.69,6,6C36,39.17,33.31,41.86,30,41.86z"/><path d="M48.85,23.56c0.55,0,1-0.45,1-1s-0.45-1-1-1h-4.46c-0.55,0-1,0.45-1,1s0.45,1,1,1H48.85z"/></svg>