<svg id="그룹_72" data-name="그룹 72" xmlns="http://www.w3.org/2000/svg" xmlns:xlink="http://www.w3.org/1999/xlink" width="65.099" height="48.666" viewBox="0 0 65.099 48.666">
  <defs>
    <clipPath id="clip-path">
      <rect id="사각형_30" data-name="사각형 30" width="65.099" height="48.666" fill="none"/>
    </clipPath>
  </defs>
  <g id="그룹_71" data-name="그룹 71" transform="translate(0 0)" clip-path="url(#clip-path)">
    <path id="패스_182" data-name="패스 182" d="M32.722.791a3.834,3.834,0,0,0-3.6,2.527L8.751,5.854a3.2,3.2,0,0,0,.393,6.367,3.373,3.373,0,0,0,.4-.024l.83-.1-6.1,18.068a1.074,1.074,0,0,0-.037.136H0l.09,1.16A7.316,7.316,0,0,0,7.349,38.2H18.4a7.318,7.318,0,0,0,7.261-6.737l.088-1.16H21.8a1.073,1.073,0,0,0-.037-.136l-6.313-18.7L28.893,9.788V41.006H21.885a3.83,3.83,0,1,0,0,7.66H43.56a3.83,3.83,0,1,0,0-7.66H36.553V8.833L49.583,7.212,43.624,24.855a1.138,1.138,0,0,0-.035.136H39.354l.088,1.162A7.315,7.315,0,0,0,46.7,32.889H57.751a7.314,7.314,0,0,0,7.26-6.737l.09-1.16H61.152a1.139,1.139,0,0,0-.035-.136L54.936,6.545l1.412-.176A3.2,3.2,0,1,0,55.559.026L35.892,2.474A3.828,3.828,0,0,0,32.722.791M23.28,32.456A5.175,5.175,0,0,1,18.4,36.037H7.349a5.177,5.177,0,0,1-4.884-3.581ZM19.8,30.3H6.233l6.236-18.464,1.056-.133ZM43.56,42.92a1.915,1.915,0,1,1,0,3.831H21.885a1.915,1.915,0,1,1,0-3.831H43.56ZM62.634,27.15a5.178,5.178,0,0,1-4.884,3.583H46.7A5.178,5.178,0,0,1,41.82,27.15Zm-3.48-2.158H45.587L51.678,6.95l1.33-.165ZM55.795,1.926c.053,0,.106-.01.16-.01a1.281,1.281,0,0,1,.157,2.552L36.553,6.9l-.958.12-.958.119V41.006H30.808V7.62l-.958.119-.957.12L9.306,10.3A1.281,1.281,0,0,1,8.99,7.755l19.9-2.479.957-.119.958-.12V4.622A1.871,1.871,0,0,1,30.9,4.06a1.917,1.917,0,0,1,1.822-1.352,1.88,1.88,0,0,1,.556.091,1.909,1.909,0,0,1,1.354,1.762l.945-.117.961-.12Z" transform="translate(0 0)" fill="#272525"/>
  </g>
</svg>
