<svg xmlns="http://www.w3.org/2000/svg" width="50.745" height="37.977" viewBox="0 0 50.745 37.977">
  <g id="그룹_141" data-name="그룹 141" transform="translate(-755.533 -262.162)">
    <path id="패스_278" data-name="패스 278" d="M39.386,10.333H26.065a.52.52,0,1,0,0,1.04H39.386a9.629,9.629,0,0,1,9.619,9.617V26.62a9.629,9.629,0,0,1-9.619,9.617H10.659A9.629,9.629,0,0,1,1.04,26.62V20.989a9.629,9.629,0,0,1,9.619-9.617H23.431a.485.485,0,0,0,.119-.024.49.49,0,0,0,.12.024.519.519,0,0,0,.52-.519V8.11c0-1.05,1.157-1.9,2.579-1.9H42.8c1.995,0,3.619-1.321,3.619-2.944V.519a.52.52,0,0,0-1.04,0V3.262c0,1.05-1.157,1.9-2.579,1.9H26.769c-1.995,0-3.619,1.321-3.619,2.944v2.223H10.659A10.67,10.67,0,0,0,0,20.989V26.62A10.67,10.67,0,0,0,10.659,37.276H39.386A10.67,10.67,0,0,0,50.045,26.62V20.989A10.67,10.67,0,0,0,39.386,10.333" transform="translate(755.883 262.512)" stroke="#000" stroke-width="0.7"/>
    <path id="패스_279" data-name="패스 279" d="M52.949,22.96a2.716,2.716,0,1,0,2.716,2.717,2.719,2.719,0,0,0-2.716-2.717m0,4.392a1.676,1.676,0,1,1,1.676-1.676,1.678,1.678,0,0,1-1.676,1.676" transform="translate(741.162 255.779)" stroke="#000" stroke-width="0.7"/>
    <path id="패스_280" data-name="패스 280" d="M52.949,36.716a2.716,2.716,0,1,0,2.716,2.716,2.719,2.719,0,0,0-2.716-2.716m0,4.392a1.676,1.676,0,1,1,1.676-1.676,1.679,1.679,0,0,1-1.676,1.676" transform="translate(741.162 251.745)" stroke="#000" stroke-width="0.7"/>
    <path id="패스_281" data-name="패스 281" d="M59.827,35.27a2.716,2.716,0,1,0-2.717-2.716,2.719,2.719,0,0,0,2.717,2.716m0-4.392a1.676,1.676,0,1,1-1.677,1.676,1.678,1.678,0,0,1,1.677-1.676" transform="translate(739.146 253.762)" stroke="#000" stroke-width="0.7"/>
    <path id="패스_282" data-name="패스 282" d="M46.072,29.838a2.716,2.716,0,1,0,2.717,2.716,2.72,2.72,0,0,0-2.717-2.716m0,4.392a1.676,1.676,0,1,1,1.677-1.676,1.678,1.678,0,0,1-1.677,1.676" transform="translate(743.177 253.762)" stroke="#000" stroke-width="0.7"/>
    <path id="패스_283" data-name="패스 283" d="M10.78,38.063h4.139a.52.52,0,0,0,.52-.52v-4.38H19.82a.52.52,0,0,0,.52-.519V28.5a.52.52,0,0,0-.52-.52H15.439V23.605a.52.52,0,0,0-.52-.52H10.78a.52.52,0,0,0-.52.52v4.379H5.879a.52.52,0,0,0-.52.52v4.139a.52.52,0,0,0,.52.519h4.38v4.38a.52.52,0,0,0,.52.52M6.4,32.123v-3.1H10.78a.519.519,0,0,0,.52-.519v-4.38h3.1V28.5a.519.519,0,0,0,.52.519H19.3v3.1H14.919a.52.52,0,0,0-.52.52v4.38H11.3v-4.38a.52.52,0,0,0-.52-.52Z" transform="translate(754.313 255.742)" stroke="#000" stroke-width="0.7"/>
    <path id="패스_284" data-name="패스 284" d="M28.447,44.073a.52.52,0,0,0-.52.519v1.521a.52.52,0,0,0,.52.519h3.717a.52.52,0,0,0,.52-.519V44.592a.52.52,0,0,0-.52-.519Zm3.2,1.52H28.968v-.481h2.677Z" transform="translate(747.699 249.587)" stroke="#000" stroke-width="0.7"/>
    <path id="패스_285" data-name="패스 285" d="M36.655,46.633h3.718a.519.519,0,0,0,.52-.519V44.592a.519.519,0,0,0-.52-.519H36.655a.519.519,0,0,0-.52.519v1.521a.519.519,0,0,0,.52.519m.52-1.52h2.677v.481H37.175Z" transform="translate(745.293 249.587)" stroke="#000" stroke-width="0.7"/>
  </g>
</svg>
