<svg id="그룹_26" data-name="그룹 26" xmlns="http://www.w3.org/2000/svg" xmlns:xlink="http://www.w3.org/1999/xlink" width="47.273" height="46.041" viewBox="0 0 47.273 46.041">
  <defs>
    <clipPath id="clip-path">
      <rect id="사각형_7" data-name="사각형 7" width="47.273" height="46.041" fill="none"/>
    </clipPath>
  </defs>
  <g id="그룹_25" data-name="그룹 25" transform="translate(0 0)" clip-path="url(#clip-path)">
    <path id="패스_98" data-name="패스 98" d="M37.151.5a.78.78,0,0,0-1.455.564l2.258,5.83c.008.02.024.037.034.057L36.327,8.611l-2.04-5.431a.78.78,0,1,0-1.461.548l2.257,6.012c.011.028.03.048.042.074l-3.939,3.939a18.652,18.652,0,1,0,1.1,1.1l3.5-3.5a.778.778,0,0,0,.549.327l7.328.8a.693.693,0,0,0,.086,0,.781.781,0,0,0,.085-1.557l-6.872-.755L38.98,8.164a.737.737,0,0,0,.1.022l7.329.805c.029,0,.057,0,.086,0a.781.781,0,0,0,.084-1.557l-6.192-.68L44.147,3a.78.78,0,0,0-1.1-1.1L39.185,5.752ZM35.644,27.438a17.063,17.063,0,1,1-5.562-12.582L26.4,18.538a11.879,11.879,0,1,0,1.1,1.1l3.683-3.683a16.979,16.979,0,0,1,4.457,11.479M18.05,27.99a.779.779,0,0,0,1.1,0l2.4-2.4a3.5,3.5,0,1,1-1.1-1.1l-2.4,2.4a.778.778,0,0,0,0,1.1m3.525-4.627a5.076,5.076,0,1,0,1.1,1.1L26.4,20.747a10.311,10.311,0,1,1-1.1-1.1Z" transform="translate(0 0)" fill="#272525"/>
  </g>
</svg>
