<svg id="그룹_84" data-name="그룹 84" xmlns="http://www.w3.org/2000/svg" xmlns:xlink="http://www.w3.org/1999/xlink" width="43.896" height="49.665" viewBox="0 0 43.896 49.665">
  <defs>
    <clipPath id="clip-path">
      <rect id="사각형_36" data-name="사각형 36" width="43.896" height="49.665" fill="none"/>
    </clipPath>
  </defs>
  <g id="그룹_83" data-name="그룹 83" transform="translate(0 0)" clip-path="url(#clip-path)">
    <path id="패스_199" data-name="패스 199" d="M28.478,0a14.709,14.709,0,0,0-6.53,1.866A14.715,14.715,0,0,0,15.419,0,15.435,15.435,0,0,0,0,15.418c0,.968.975,3.69,3.026,9.057.515,1.348,1,2.623,1.127,3.033.154.789.3,1.907.479,3.2.651,4.829,1.632,12.108,4.622,17.579a1.951,1.951,0,0,0,1.034,1.193,2.1,2.1,0,0,0,.883.188,4.458,4.458,0,0,0,2.308-.84c1.191-.758,1.394-2.722,1.73-5.979C15.882,36.3,16.9,30.4,21.869,30c4.967.392,5.984,6.3,6.657,12.84.334,3.257.537,5.222,1.73,5.979,1.3.827,2.344,1.04,3.19.653a1.959,1.959,0,0,0,1.036-1.193c2.813-5.14,3.946-11.563,4.859-16.733.219-1.24.426-2.412.638-3.461.4-1.051,3.918-10.483,3.918-12.673A15.434,15.434,0,0,0,28.478,0m9.273,27.543c-.225,1.1-.439,2.32-.667,3.61-.891,5.045-2,11.325-4.679,16.148-.007.012-.013.025-.019.037a3.441,3.441,0,0,1-.849-.413,17.172,17.172,0,0,1-.732-4.315c-.589-5.735-1.481-14.4-8.86-14.9a.891.891,0,0,0-.154,0c-7.377.494-8.27,9.162-8.86,14.9a17.325,17.325,0,0,1-.731,4.315,3.441,3.441,0,0,1-.849.413l-.021-.037C8.493,42.2,7.536,35.1,6.9,30.4c-.183-1.355-.34-2.527-.51-3.387-.006-.031-.015-.064-.024-.095-.123-.429-.516-1.466-1.2-3.261a80.823,80.823,0,0,1-2.873-8.238A13.142,13.142,0,0,1,15.419,2.29a13.542,13.542,0,0,1,6,1.879,1.154,1.154,0,0,0,1.051,0,13.542,13.542,0,0,1,6-1.879A13.142,13.142,0,0,1,41.605,15.418c0,1.372-2.7,9.088-3.8,11.94a1.11,1.11,0,0,0-.055.185" transform="translate(0 -0.001)" fill="#272525"/>
    <path id="패스_200" data-name="패스 200" d="M24.174,5.881A4.694,4.694,0,1,0,25.206,14.5h0a4.7,4.7,0,0,0-1.031-8.614M20.409,11.8a2.863,2.863,0,1,1,3.9,1.095,2.851,2.851,0,0,1-3.9-1.095" transform="translate(8.732 2.735)" fill="#272525"/>
  </g>
</svg>
