<svg id="그룹_76" data-name="그룹 76" xmlns="http://www.w3.org/2000/svg" xmlns:xlink="http://www.w3.org/1999/xlink" width="36.652" height="54.387" viewBox="0 0 36.652 54.387">
  <defs>
    <clipPath id="clip-path">
      <rect id="사각형_32" data-name="사각형 32" width="36.652" height="54.387" fill="none"/>
    </clipPath>
  </defs>
  <g id="그룹_75" data-name="그룹 75" transform="translate(0 0)" clip-path="url(#clip-path)">
    <path id="패스_186" data-name="패스 186" d="M31.678,10.739l-.368-.22,1.829-3.074c1.192-2,.027-4.906-2.6-6.472s-5.735-1.2-6.929.8L21.782,4.848,21.19,4.5a3.923,3.923,0,0,0-4.276,6.572l-5.679,9.539.14.083-.14-.083L6.553,28.475a6.441,6.441,0,0,0-.332,5.916l-.371.625A3.8,3.8,0,0,0,12.381,38.9l.382-.642q.04-.068.076-.137A6.4,6.4,0,0,0,17.58,35.04l4.683-7.868,5.682-9.544a3.9,3.9,0,0,0,1.792.411,3.937,3.937,0,0,0,3.31-1.918,3.925,3.925,0,0,0-1.369-5.381M25,2.6a2.348,2.348,0,0,1,2.061-.986,5.1,5.1,0,0,1,2.647.75c1.825,1.089,2.758,3.033,2.034,4.249L29.916,9.69,23.172,5.677ZM16.188,34.209a4.787,4.787,0,0,1-3.923,2.338l-.538.022-.187.5a2.329,2.329,0,0,1-.17.36l-.382.642a2.179,2.179,0,1,1-3.744-2.231l.378-.637a2.534,2.534,0,0,1,.173-.245l.333-.422-.258-.472A4.813,4.813,0,0,1,7.945,29.3l4.192-7.041,8.241,4.9Zm5.174-8.693L21.34,25.5,13.12,20.61l5.179-8.7,8.243,4.9ZM31.653,15.29a2.3,2.3,0,0,1-3.16.8L18,9.847a2.3,2.3,0,0,1,.61-4.213,2.334,2.334,0,0,1,.529-.071,2.3,2.3,0,0,1,1.218.324L30.85,12.133a2.3,2.3,0,0,1,.8,3.157" transform="translate(3.046 0)" fill="#272525"/>
    <path id="패스_187" data-name="패스 187" d="M9.56,26.319a.808.808,0,0,0-.72-.053c-2.424.988-5.392,3.583-6.977,5.073a4.383,4.383,0,0,0-.964.934l-.011.013a.735.735,0,0,0-.153.222c-.039.057-.077.115-.115.176A4.425,4.425,0,0,0,8.226,37.21c.035-.058.069-.12.1-.179a.769.769,0,0,0,.12-.231l.009-.03a4.376,4.376,0,0,0,.36-1.29c.554-2.1,1.422-5.951,1.136-8.551a.814.814,0,0,0-.392-.609m-2.327,8.8a.664.664,0,0,0-.022.124,2.736,2.736,0,0,1-.252.9l-.008.016-.02.044c-.03.061-.063.121-.1.182a2.8,2.8,0,0,1-4.818-2.866c.038-.064.079-.123.127-.2l.008-.011.019-.025a2.742,2.742,0,0,1,.667-.647.927.927,0,0,0,.1-.079,33,33,0,0,1,5.452-4.266,32.968,32.968,0,0,1-1.151,6.827" transform="translate(0 15.017)" fill="#272525"/>
  </g>
</svg>
