<svg xmlns="http://www.w3.org/2000/svg" width="58.314" height="32.171" viewBox="0 0 58.314 32.171">
  <g id="그룹_142" data-name="그룹 142" transform="translate(-839.269 -264.299)">
    <path id="패스_286" data-name="패스 286" d="M11.529,33.2A11.544,11.544,0,0,0,23.06,21.672a10.659,10.659,0,0,0-3.683-8.444.624.624,0,1,0-.817.944,9.461,9.461,0,0,1,3.251,7.5A10.281,10.281,0,1,1,11.529,11.39a7.1,7.1,0,0,1,2.6.335.625.625,0,0,0,.379-1.19,8.292,8.292,0,0,0-2.978-.393,11.531,11.531,0,0,0,0,23.061" transform="translate(839.519 263.018)" stroke="#000" stroke-width="0.5"/>
    <path id="패스_287" data-name="패스 287" d="M52.579,10.141a11.54,11.54,0,0,0-3.26.468.624.624,0,1,0,.352,1.2,10.283,10.283,0,1,1-6.757,13.385.625.625,0,0,0-1.173.429,11.533,11.533,0,1,0,10.84-15.48" transform="translate(833.223 263.018)" stroke="#000" stroke-width="0.5"/>
    <path id="패스_288" data-name="패스 288" d="M42.013,20.577a.605.605,0,0,0,.11.01.624.624,0,0,0,.614-.516,8.318,8.318,0,0,1,2.738-4.816.624.624,0,0,0-.818-.942,9.562,9.562,0,0,0-3.149,5.541.624.624,0,0,0,.506.723" transform="translate(833.254 262.412)" stroke="#000" stroke-width="0.5"/>
    <path id="패스_289" data-name="패스 289" d="M43.047,2.968a6.86,6.86,0,0,0,3.317-1.9.624.624,0,1,0-.883-.883C43.2,2.47,40.669,2,38.44,1.587A7.379,7.379,0,0,0,35.472,1.4a.625.625,0,0,0,.3,1.212,6.716,6.716,0,0,1,2.439.2,16.344,16.344,0,0,0,3.031.36c.091,0,.183-.007.274-.01L39.936,5.95H22.5L25.441.941A.625.625,0,0,0,24.9,0H19.357a2.225,2.225,0,1,0,0,4.45.624.624,0,1,0,0-1.248.976.976,0,0,1,0-1.953h4.455L12.44,20.63a.624.624,0,0,0,.223.854.613.613,0,0,0,.315.086.625.625,0,0,0,.539-.308l8.068-13.75,7.491,10.672a.573.573,0,0,0,.053.049,4.082,4.082,0,1,0,6.92,3.76h11.6a.625.625,0,0,0,.565-.891L41.235,6.307a.572.572,0,0,0-.036-.053l1.824-3.21a.617.617,0,0,0,.025-.076M22.891,7.2H39.227l-5.7,10.041a4.042,4.042,0,0,0-3.419.239s0-.008-.006-.013Zm9.184,16.693a2.837,2.837,0,1,1,2.837-2.837,2.839,2.839,0,0,1-2.837,2.837m14.592-3.148H36.146a4.079,4.079,0,0,0-1.536-2.887L40.45,7.573Z" transform="translate(837.654 264.549)" stroke="#000" stroke-width="0.5"/>
  </g>
</svg>
