<svg id="그룹_96" data-name="그룹 96" xmlns="http://www.w3.org/2000/svg" xmlns:xlink="http://www.w3.org/1999/xlink" width="73.753" height="33.528" viewBox="0 0 73.753 33.528">
  <defs>
    <clipPath id="clip-path">
      <rect id="사각형_42" data-name="사각형 42" width="73.753" height="33.528" fill="none"/>
    </clipPath>
  </defs>
  <g id="그룹_95" data-name="그룹 95" transform="translate(0 0)" clip-path="url(#clip-path)">
    <path id="패스_214" data-name="패스 214" d="M48.084,33.528H72.511a1.242,1.242,0,0,0,.98-2.006L53.848,6.314a1.243,1.243,0,0,0-1.96,0L48.158,11.1A9.211,9.211,0,0,0,32.615,9.721L25.655.5a1.24,1.24,0,0,0-1.983,0L.25,31.538a1.242,1.242,0,0,0,.992,1.99H48.084ZM24.663,3.306,45.59,31.044H3.736ZM46.4,13.351l-5.613,7.206-6.6-8.748A6.741,6.741,0,0,1,46.4,13.351m2.3,17.693L42.34,22.61,52.868,9.1l17.1,21.944Z" transform="translate(0 0)" fill="#272525"/>
  </g>
</svg>
