<?xml version="1.0" encoding="iso-8859-1"?>
<!-- Generator: Adobe Illustrator 19.1.0, SVG Export Plug-In . SVG Version: 6.00 Build 0)  -->
<svg version="1.1" id="Capa_1" xmlns="http://www.w3.org/2000/svg" xmlns:xlink="http://www.w3.org/1999/xlink" x="0px" y="0px"
	 viewBox="0 0 299.47 299.47" style="enable-background:new 0 0 299.47 299.47;" xml:space="preserve">
<g>
	<g>
		<path d="M293.248,65.56H173.566h-47.661H6.275c-3.442,0-6.249,2.807-6.249,6.249v59.788c0,3.442,2.807,6.249,6.249,6.249h8.844
			v155.375c0,3.442,2.807,6.249,6.249,6.249h104.537h47.661h104.537c3.442,0,6.249-2.807,6.249-6.249V137.846h8.844
			c3.442,0,6.249-2.807,6.249-6.249V71.809C299.444,68.367,296.69,65.56,293.248,65.56z M167.37,78.058v47.29h-35.216
			c0-16.575,0-47.29,0-47.29L167.37,78.058L167.37,78.058z M12.524,78.058h107.184v47.29H21.368h-8.844V78.058z M27.617,137.846
			h92.039v149.179H27.617V137.846z M132.154,286.973c0,0,0-88.226,0-149.179h35.216v149.179H132.154z M271.906,286.973h-92.092
			V137.846h92.039v149.126H271.906z M286.999,125.349h-8.844h-98.341v-47.29h107.184V125.349z"/>
		<path d="M89.206,63.866c1.959,0,4.607,0.053,7.573,0.159c4.978,0.159,9.85,0.265,14.563,0.265c16.681,0,31.086-1.324,38.394-7.096
			c7.308,5.772,21.712,7.096,38.394,7.096c4.713,0,9.585-0.106,14.563-0.265c3.019-0.106,5.613-0.159,7.573-0.159
			c17.582,0,31.933-14.298,31.933-31.933C242.198,14.351,227.899,0,210.265,0c-12.657,0-47.396,18.111-60.53,35.11
			C136.602,18.111,101.809,0,89.206,0c-17.582,0-31.933,14.298-31.88,31.933C57.273,49.568,71.624,63.866,89.206,63.866z
			 M210.318,12.498c10.697,0,19.435,8.738,19.435,19.435s-8.738,19.435-19.435,19.435c-2.065,0-4.819,0.053-7.943,0.159
			c-34.793,0.953-43.795-1.959-45.225-4.448h-2.224l0,0c1.218,0,2.224,0,2.224,0C157.096,38.341,196.867,12.498,210.318,12.498z
			 M89.206,12.498c13.398,0,53.063,25.79,53.222,34.528c-1.589,2.595-10.75,5.507-45.278,4.501
			c-3.124-0.106-5.878-0.159-7.944-0.159c-10.697,0-19.435-8.738-19.435-19.435S78.455,12.498,89.206,12.498z"/>
	</g>
</g>
<g>
</g>
<g>
</g>
<g>
</g>
<g>
</g>
<g>
</g>
<g>
</g>
<g>
</g>
<g>
</g>
<g>
</g>
<g>
</g>
<g>
</g>
<g>
</g>
<g>
</g>
<g>
</g>
<g>
</g>
</svg>
