<svg id="그룹_11" data-name="그룹 11" xmlns="http://www.w3.org/2000/svg" width="32.303" height="60.163" viewBox="0 0 32.303 60.163">
  <path id="패스_75" data-name="패스 75" d="M1.768,23.511a22.2,22.2,0,0,0,.669,5.7A79.33,79.33,0,0,0,6.7,40.64a3.058,3.058,0,0,0-.568,1.739,3.1,3.1,0,0,0,.8,2.1,3.089,3.089,0,0,0-.8,2.027,3.13,3.13,0,0,0,.992,2.3A3.1,3.1,0,0,0,6.4,50.75a3.4,3.4,0,0,0,3.48,3.292l12.579.164h.052a3.653,3.653,0,0,0,2.545-1.01,3.085,3.085,0,0,0-.036-4.5,3.079,3.079,0,0,0,.718-1.946,3.114,3.114,0,0,0-.8-2.1,3.058,3.058,0,0,0,.007-4.113A78.709,78.709,0,0,0,29.165,29.2a22.21,22.21,0,0,0,.668-5.691,14.032,14.032,0,0,0-28.064,0M23.573,51.677a1.447,1.447,0,0,1-1.083.407L9.91,51.919a1.29,1.29,0,0,1-1.384-1.148,1.174,1.174,0,0,1,.953-1.05,1.062,1.062,0,0,0-.1-2.073,1.247,1.247,0,0,1-1.125-1.124,1.161,1.161,0,0,1,.891-1.031,1.062,1.062,0,0,0,.008-2.026,1.179,1.179,0,0,1-.9-1.068.911.911,0,0,1,.158-.5H23.3a1,1,0,0,1,.313.708,1.159,1.159,0,0,1-.889,1.029,1.062,1.062,0,0,0-.01,2.026,1.181,1.181,0,0,1,.9,1.068,1.167,1.167,0,0,1-.948,1.05,1.061,1.061,0,0,0,.1,2.073,1.249,1.249,0,0,1,1.125,1.124.992.992,0,0,1-.318.7M15.8,11.6A11.921,11.921,0,0,1,27.709,23.511,20.2,20.2,0,0,1,27.1,28.7a78.34,78.34,0,0,1-4.136,11.078H8.638A78.521,78.521,0,0,1,4.5,28.7a20.182,20.182,0,0,1-.609-5.193A11.92,11.92,0,0,1,15.8,11.6" transform="translate(1.111 5.956)" fill="#272525"/>
  <path id="패스_76" data-name="패스 76" d="M2.211,3.252A1.233,1.233,0,0,0,.474,3.047,1.233,1.233,0,0,0,.267,4.786L6.6,12.828a1.246,1.246,0,0,0,.974.471h.042a1.252,1.252,0,0,0,.721-.265A1.238,1.238,0,0,0,8.546,11.3ZM7.681,12.2a.155.155,0,0,1-.1.037.158.158,0,0,1-.143-.067L1.1,4.128A.178.178,0,0,1,1.063,4a.176.176,0,0,1,.067-.117.178.178,0,0,1,.107-.039l.021,0a.182.182,0,0,1,.119.065L7.71,11.952a.171.171,0,0,1,.037.127.166.166,0,0,1-.067.119" transform="translate(0 1.746)" fill="#272525"/>
  <path id="패스_77" data-name="패스 77" d="M15.662,12.964h0a1.223,1.223,0,0,0,.684.207h.044a1.239,1.239,0,0,0,.988-.55L22.6,4.762a1.239,1.239,0,0,0-1.277-1.9,1.242,1.242,0,0,0-.786.529l-5.222,7.857a1.239,1.239,0,0,0,.345,1.716m.539-1.128,5.224-7.857a.174.174,0,0,1,.243-.049.18.18,0,0,1,.077.112.176.176,0,0,1-.026.132l-5.224,7.857a.172.172,0,0,1-.142.078.177.177,0,0,1-.1-.029.175.175,0,0,1-.05-.244" transform="translate(9.494 1.781)" fill="#272525"/>
  <path id="패스_78" data-name="패스 78" d="M10.686,12.912h.093a1.246,1.246,0,0,0,1.2-1.187l.44-10.434A1.24,1.24,0,0,0,10.341.324a1.225,1.225,0,0,0-.4.861L9.5,11.623a1.238,1.238,0,0,0,1.184,1.29Zm-.125-1.246L11,1.232a.177.177,0,0,1,.057-.125.192.192,0,0,1,.127-.046.176.176,0,0,1,.122.057.183.183,0,0,1,.047.129l-.44,10.434a.18.18,0,0,1-.177.169H10.73a.177.177,0,0,1-.124-.057.186.186,0,0,1-.046-.127" transform="translate(5.969 -0.001)" fill="#272525"/>
  <path id="패스_79" data-name="패스 79" d="M6.187,19.747h0a1.173,1.173,0,0,0,1.238-1.084,4.92,4.92,0,0,1,.142-.894,4.11,4.11,0,0,1,3.266-2.97,5.453,5.453,0,0,1,1.037-.155,1.165,1.165,0,0,0-.05-2.33c-2.185.046-6.4,1.4-6.72,6.193a1.166,1.166,0,0,0,1.086,1.241" transform="translate(3.204 7.736)" fill="#272525"/>
</svg>
