<?xml version="1.0" ?><svg id="Layer_1" style="enable-background:new 0 0 60 60;" version="1.1" viewBox="0 0 60 60" xml:space="preserve" xmlns="http://www.w3.org/2000/svg" xmlns:xlink="http://www.w3.org/1999/xlink"><path d="M54.11,21.67c-0.85-1.4-2.38-2.25-4.55-2.52c0.41-1.28,0.75-3.23-0.18-4.91c-0.89-1.61-2.69-2.56-5.35-2.84  c-0.65-1.69-2.43-4.07-5.91-4.21c-0.56-0.03-1.02,0.41-1.04,0.96s0.41,1.02,0.96,1.04c3.45,0.14,4.23,3.25,4.26,3.37  c0.1,0.44,0.47,0.75,0.92,0.78c2.31,0.14,3.8,0.76,4.41,1.87c0.98,1.76-0.39,4.35-0.4,4.37c-0.17,0.31-0.16,0.68,0.02,0.98  s0.5,0.49,0.85,0.49c2.2,0.03,3.65,0.58,4.3,1.64c1.01,1.65,0.02,4.42-0.45,5.34c-0.15,0.31-0.14,0.67,0.04,0.97  c0.98,1.61,1.25,2.98,0.81,4.05c-0.72,1.75-3.15,2.38-3.17,2.38c-0.44,0.11-0.75,0.49-0.76,0.94c-0.05,1.63-0.54,2.86-1.46,3.66  c-1.03,0.89-2.39,1.11-3.23,1.15c-0.26-1.8-1.03-3.53-2.27-5.06c-0.11-0.13-0.23-0.34-0.19-0.6c0.13-0.8,0.23-2.03,0.03-3.4h1.23  c0.55,0,1-0.45,1-1s-0.45-1-1-1H41.2c-0.3-0.77-0.72-1.54-1.32-2.26l1.27-1.13c0.41-0.37,0.45-1,0.08-1.41  c-0.37-0.41-1-0.45-1.41-0.08l-1.4,1.25c-0.49-0.36-1.03-0.71-1.66-1.01c-0.59-0.29-1.23-0.45-1.9-0.5v-1.19c0-0.55-0.45-1-1-1  s-1,0.45-1,1v1.38c-0.58,0.15-1.18,0.37-1.77,0.67c-0.53,0.28-1.16,0.28-1.69,0c-0.58-0.3-1.17-0.52-1.77-0.66v-1.39  c0-0.55-0.45-1-1-1s-1,0.45-1,1v1.21c-0.75,0.06-1.47,0.25-2.13,0.59c-0.54,0.27-1,0.58-1.43,0.9l-1.41-1.26  c-0.41-0.37-1.05-0.33-1.41,0.08c-0.37,0.41-0.33,1.04,0.08,1.41l1.28,1.14c-0.6,0.72-1.01,1.49-1.31,2.25h-1.78c-0.55,0-1,0.45-1,1  s0.45,1,1,1h1.25c-0.18,1.19-0.13,2.26-0.05,2.96c0.02,0.18-0.06,0.38-0.22,0.57c-1.47,1.64-2.37,3.53-2.65,5.53  c-0.84-0.04-2.2-0.25-3.22-1.14c-0.93-0.8-1.42-2.04-1.47-3.67c-0.01-0.45-0.33-0.83-0.76-0.94c-0.02-0.01-2.45-0.63-3.17-2.38  c-0.44-1.07-0.17-2.44,0.81-4.05c0.18-0.29,0.19-0.66,0.04-0.97c-0.47-0.93-1.45-3.69-0.45-5.34c0.65-1.06,2.1-1.62,4.3-1.64  c0.35,0,0.67-0.19,0.85-0.49c0.18-0.3,0.19-0.67,0.02-0.98c-0.01-0.03-1.38-2.62-0.4-4.38c0.62-1.1,2.1-1.73,4.41-1.87  c0.45-0.03,0.82-0.34,0.92-0.78c0-0.02,0.46-1.85,2.11-2.79c1.32-0.75,3.09-0.78,5.25-0.08c0.37,0.12,0.78,0.01,1.05-0.28  C27.11,8.33,28.52,7.7,30,7.7s2.89,0.63,3.88,1.71c0.37,0.41,1,0.44,1.41,0.07c0.41-0.37,0.44-1,0.07-1.41  C33.99,6.57,32.04,5.7,30,5.7c-1.82,0-3.58,0.69-4.91,1.91c-2.47-0.69-4.57-0.54-6.27,0.42c-1.67,0.95-2.49,2.47-2.84,3.37  c-2.67,0.28-4.47,1.23-5.37,2.84c-0.93,1.68-0.6,3.63-0.18,4.91c-2.17,0.27-3.7,1.11-4.55,2.52c-1.44,2.37-0.37,5.55,0.14,6.77  c-1.1,2.01-1.33,3.82-0.67,5.4c0.81,1.95,2.76,2.92,3.83,3.32c0.19,1.87,0.9,3.35,2.12,4.41c1.47,1.27,3.31,1.57,4.46,1.63  c0.39,6.17,6.61,11.1,14.24,11.1c7.62,0,13.85-4.93,14.24-11.1c1.15-0.05,2.99-0.36,4.46-1.63c1.22-1.05,1.93-2.53,2.12-4.41  c1.06-0.4,3.02-1.37,3.83-3.32c0.66-1.58,0.43-3.39-0.67-5.4C54.48,27.22,55.55,24.05,54.11,21.67z M30,52.3  c-6.77,0-12.27-4.35-12.27-9.7c0-2.01,0.78-3.95,2.26-5.59c0.55-0.61,0.81-1.39,0.72-2.14c-0.23-1.96-0.06-5.54,3.71-7.47  c0.56-0.29,1.12-0.39,1.66-0.39c0.98,0,1.85,0.36,2.4,0.64c1.11,0.58,2.43,0.58,3.54,0c0.82-0.43,2.42-1.04,3.87-0.34  c2.19,1.06,3.23,2.64,3.68,4.2c0,0.01,0.01,0.03,0.01,0.04c0.38,1.36,0.32,2.71,0.16,3.69v0c-0.12,0.76,0.1,1.53,0.61,2.17  c1.26,1.56,1.93,3.36,1.93,5.2C42.27,47.95,36.77,52.3,30,52.3z"/><path d="M24.95,33.66c0.47-0.47,1.25-0.47,1.72,0c0.2,0.2,0.45,0.29,0.71,0.29s0.51-0.1,0.71-0.29c0.39-0.39,0.39-1.02,0-1.41  c-1.25-1.25-3.29-1.25-4.55,0c-0.39,0.39-0.39,1.02,0,1.41S24.56,34.05,24.95,33.66z"/><path d="M31.92,32.24c-0.39,0.39-0.39,1.02,0,1.41c0.2,0.2,0.45,0.29,0.71,0.29s0.51-0.1,0.71-0.29c0.47-0.47,1.25-0.47,1.72,0  c0.39,0.39,1.02,0.39,1.41,0s0.39-1.02,0-1.41C35.21,30.99,33.17,30.99,31.92,32.24z"/><path d="M34.92,45.43c-2.85,2.43-6.99,2.43-9.84,0c-0.42-0.36-1.05-0.31-1.41,0.11c-0.36,0.42-0.31,1.05,0.11,1.41  c1.8,1.54,4.01,2.31,6.22,2.31c2.21,0,4.42-0.77,6.22-2.31c0.42-0.36,0.47-0.99,0.11-1.41C35.97,45.12,35.34,45.07,34.92,45.43z"/></svg>