<svg id="그룹_80" data-name="그룹 80" xmlns="http://www.w3.org/2000/svg" xmlns:xlink="http://www.w3.org/1999/xlink" width="57.058" height="53.89" viewBox="0 0 57.058 53.89">
  <defs>
    <clipPath id="clip-path">
      <rect id="사각형_34" data-name="사각형 34" width="57.058" height="53.89" fill="none"/>
    </clipPath>
  </defs>
  <g id="그룹_79" data-name="그룹 79" transform="translate(0 0)" clip-path="url(#clip-path)">
    <path id="패스_191" data-name="패스 191" d="M44.67,29.442l0-.006a1.654,1.654,0,0,0-1.166-.48H18.523a1.652,1.652,0,0,0-1.65,1.652v1.946H14.86a.839.839,0,0,0-.839.839v1.945H10.515a.837.837,0,0,0-.837.837v2.782a.837.837,0,0,0,.837.837H51.51a.838.838,0,0,0,.837-.837V36.175a.838.838,0,0,0-.837-.837H48V33.393a.839.839,0,0,0-.837-.839H45.154V30.608a1.645,1.645,0,0,0-.483-1.166m1.658,4.788v1.945a.837.837,0,0,0,.839.837h3.5v1.108H11.354V37.012H14.86a.838.838,0,0,0,.837-.837V34.23H17.71a.837.837,0,0,0,.837-.837l-.024-2.761,24.955,0v2.765a.837.837,0,0,0,.837.837Z" transform="translate(4.712 14.096)" fill="#272525"/>
    <path id="패스_192" data-name="패스 192" d="M29.8,25.978a3.383,3.383,0,0,0,4.642,4.875l9.373-7.29a3.374,3.374,0,0,0-3.087-5.883L30.978,5.147A3.372,3.372,0,0,0,26.037.714L16.667,8A3.378,3.378,0,0,0,20.244,13.7l3.082,3.964L.6,34.259a1.461,1.461,0,0,0-.583.974,1.35,1.35,0,0,0,0,.379,1.445,1.445,0,0,0,.29.723l2.919,3.753a1.534,1.534,0,0,0,.993.553,1.374,1.374,0,0,0,.156.009,1.474,1.474,0,0,0,.934-.336L26.99,22.369Zm11.037-6.524.043-.025h0a1.714,1.714,0,0,1,.861-.232,1.691,1.691,0,0,1,1.34.65,1.711,1.711,0,0,1-.3,2.4L33.412,29.53a1.707,1.707,0,1,1-2.1-2.694l9.371-7.29a1.3,1.3,0,0,1,.149-.092M19.917,11.923l-.123.1a1.708,1.708,0,0,1-2.1-2.7l9.37-7.288h0a1.687,1.687,0,0,1,1.044-.36,1.746,1.746,0,0,1,.216.012,1.7,1.7,0,0,1,1,2.883l-.039.039a1.184,1.184,0,0,1-.123.12Zm1.695.806L27.792,7.92,29.8,6.359l9.467,12.17L31.079,24.9ZM24.326,22.4,4.408,38.883l-2.647-3.4L22.65,20.23l1.707-1.246,1.606,2.062Z" transform="translate(0 0)" fill="#272525"/>
  </g>
</svg>
