<svg id="그룹_100" data-name="그룹 100" xmlns="http://www.w3.org/2000/svg" xmlns:xlink="http://www.w3.org/1999/xlink" width="46.476" height="51.153" viewBox="0 0 46.476 51.153">
  <defs>
    <clipPath id="clip-path">
      <rect id="사각형_44" data-name="사각형 44" width="46.476" height="51.153" fill="none"/>
    </clipPath>
  </defs>
  <g id="그룹_99" data-name="그룹 99" transform="translate(0 0)" clip-path="url(#clip-path)">
    <path id="패스_216" data-name="패스 216" d="M18.071,29.59V44.665c-6.465.135-9.743,1.223-9.743,3.236,0,2.157,3.758,3.252,11.169,3.252s11.17-1.094,11.17-3.252c0-2.017-3.286-3.1-9.767-3.236V30.245L32.448,18.7a9.821,9.821,0,1,0-5.609-9.178H1.413a1.414,1.414,0,0,0-1,2.414ZM36.65,2.829a7,7,0,1,1-2.029,13.694l4.592-4.591a1.415,1.415,0,0,0-1-2.414H29.668A7,7,0,0,1,36.65,2.829M34.8,12.346,19.814,27.333,4.826,12.346ZM19.5,48.326a39.277,39.277,0,0,1-6.113-.425,39.533,39.533,0,0,1,6.113-.423,39.576,39.576,0,0,1,6.115.423,39.32,39.32,0,0,1-6.115.425" transform="translate(0 0)" fill="#272525"/>
  </g>
</svg>
