<svg id="그룹_38" data-name="그룹 38" xmlns="http://www.w3.org/2000/svg" xmlns:xlink="http://www.w3.org/1999/xlink" width="41.578" height="52.749" viewBox="0 0 41.578 52.749">
  <defs>
    <clipPath id="clip-path">
      <rect id="사각형_13" data-name="사각형 13" width="41.578" height="52.749" fill="none"/>
    </clipPath>
  </defs>
  <g id="그룹_37" data-name="그룹 37" transform="translate(0 0)" clip-path="url(#clip-path)">
    <path id="패스_110" data-name="패스 110" d="M40.058,19.366A18.343,18.343,0,1,0,21.712,37.711,18.381,18.381,0,0,0,40.058,19.366m-1.894,0a16.562,16.562,0,0,1-.187,2.474,28.492,28.492,0,0,1-8.242,4,18.54,18.54,0,0,0,.408-2.425,24.094,24.094,0,0,0-1.567-10.582,24.115,24.115,0,0,0,6.632-2.866,16.477,16.477,0,0,1,2.956,9.4M29.2,23.322a17.331,17.331,0,0,1-.509,2.8,23.794,23.794,0,0,1-13.85-.885c-.119-.042-.232-.09-.348-.133a17.4,17.4,0,0,1-.267-1.773,23.484,23.484,0,0,1,1.783-10.8,24.8,24.8,0,0,0,6.93,1.019,22.429,22.429,0,0,0,4.681-.49A23.119,23.119,0,0,1,29.2,23.322M34.431,8.931c.071.089.141.18.212.271a23.07,23.07,0,0,1-6.409,2.735,40.11,40.11,0,0,0-5.1-8.954,16.411,16.411,0,0,1,11.3,5.948M21.712,2.917c.055,0,.11,0,.165,0a40.29,40.29,0,0,1,5.395,9.24,22.841,22.841,0,0,1-10.9-.508,40.725,40.725,0,0,1,5.18-8.732c.055,0,.109,0,.161,0M20.3,2.983a40.249,40.249,0,0,0-4.867,8.381A26.966,26.966,0,0,1,9.366,8.51,16.37,16.37,0,0,1,20.3,2.983M5.264,19.366A16.48,16.48,0,0,1,8.755,9.24a27.96,27.96,0,0,0,6.322,3,24.448,24.448,0,0,0-1.793,11.171c.045.431.106.855.177,1.275A31.135,31.135,0,0,1,5.27,19.6c0-.078-.006-.154-.006-.232M5.338,20.9a31.9,31.9,0,0,0,8.346,4.9,19.314,19.314,0,0,0,6.02,9.888A16.479,16.479,0,0,1,5.338,20.9M21.712,35.817c-.144,0-.287-.007-.431-.01a19.075,19.075,0,0,1-6.522-9.6,25.7,25.7,0,0,0,8.475,1.471,24.529,24.529,0,0,0,5.151-.556,19.4,19.4,0,0,1-6.236,8.688c-.147,0-.29.01-.437.01m2.012-.128a19.588,19.588,0,0,0,5.734-8.826,28.5,28.5,0,0,0,8.262-3.71,16.491,16.491,0,0,1-14,12.536" transform="translate(1.521 0.461)" fill="#272525"/>
    <path id="패스_111" data-name="패스 111" d="M19.69,44.857H14.237a3.947,3.947,0,0,0,0,7.893h18a3.947,3.947,0,0,0,0-7.893H26.781v-.91a3.521,3.521,0,0,0-.312-1.447,34.06,34.06,0,0,0,6.46-1.595,1.183,1.183,0,0,0-.778-2.234,27.022,27.022,0,0,1-11.011,1.656C10.994,39.5,2.4,29.813,2.367,19.176a20.938,20.938,0,0,1,.559-4.965A17.887,17.887,0,0,1,6.4,7.176a17.283,17.283,0,0,1,6.225-4.91A1.183,1.183,0,1,0,11.664.1,19.439,19.439,0,0,0,4.559,5.685,20.27,20.27,0,0,0,.627,13.653,23.317,23.317,0,0,0,0,19.183c.033,11.473,9.077,21.95,19.965,23.4a3.5,3.5,0,0,0-.276,1.368Zm.946,1.894a.946.946,0,0,0,.946-.946V43.947a1.643,1.643,0,0,1,.525-1.2c.239.007.479.016.721.016.492,0,.99-.022,1.493-.051a1.647,1.647,0,0,1,.567,1.236V45.8a.946.946,0,0,0,.946.946h6.4a2.054,2.054,0,0,1,0,4.108h-18a2.054,2.054,0,0,1,0-4.108Z" transform="translate(0 0)" fill="#272525"/>
  </g>
</svg>
