<svg id="그룹_10" data-name="그룹 10" xmlns="http://www.w3.org/2000/svg" width="66.02" height="58.205" viewBox="0 0 66.02 58.205">
  <path id="패스_36" data-name="패스 36" d="M15.761,50.983A25.383,25.383,0,0,0,32.9,58.421q.425.011.85.011a25.552,25.552,0,0,0,18.016-7.45A25.439,25.439,0,0,0,32.9,7.557a25.956,25.956,0,0,0-4.191.485l-.138.036a3.522,3.522,0,0,0-2.331,1.993,4.536,4.536,0,0,0,.456,3.691l.091.153c.035.056.069.113.1.169l.035.091.027.031a8.873,8.873,0,0,1-1.66,10.3c-2.837,2.836-7.3,3.461-12.507.872a3.549,3.549,0,0,0-1.568.2,4.414,4.414,0,0,0-2.367,2.392l-.073.24a25.44,25.44,0,0,0,6.986,22.776M11.076,28.788a2.013,2.013,0,0,1,.955-.99,1.8,1.8,0,0,1,1.4.218l.234.12q.259.139.523.262l1.56.6a11.213,11.213,0,0,0,13.015-16.38,2.271,2.271,0,0,1-.332-1.658,1.256,1.256,0,0,1,.814-.607,23.382,23.382,0,0,1,3.731-.423A23.074,23.074,0,0,1,50.093,49.308a23.076,23.076,0,0,1-39.017-20.52" transform="translate(6.795 -3.697)" fill="#272525"/>
  <path id="패스_37" data-name="패스 37" d="M17.61,31.532a5.309,5.309,0,1,0-1.393.185,5.38,5.38,0,0,0,1.393-.185m-3.47-1.56a4.168,4.168,0,1,1,3.163.418,4.141,4.141,0,0,1-3.163-.418" transform="translate(8.875 7.296)" fill="#272525" stroke="#252424" stroke-width="0.3"/>
  <path id="패스_38" data-name="패스 38" d="M17.417,35.016a5.355,5.355,0,1,0,8.291-6.594,5.357,5.357,0,0,0-8.825,2.53,5.315,5.315,0,0,0,.534,4.064m.61-3.757a4.176,4.176,0,0,1,5.108-2.948,4.129,4.129,0,0,1,1.764.977,4.171,4.171,0,1,1-6.872,1.971" transform="translate(13.634 12.178)" fill="#272525" stroke="#252424" stroke-width="0.3"/>
  <path id="패스_39" data-name="패스 39" d="M30.123,25.175a5.352,5.352,0,1,0,3.787,1.568,5.318,5.318,0,0,0-3.787-1.568m2.95,8.3a4.173,4.173,0,1,1,1.221-2.948,4.141,4.141,0,0,1-1.221,2.948" transform="translate(20.227 10.702)" fill="#272525" stroke="#252424" stroke-width="0.3"/>
  <path id="패스_40" data-name="패스 40" d="M27.575,24.179a5.352,5.352,0,0,0,6.559,3.786,5.356,5.356,0,1,0-6.559-3.786m4.093-5.417a4.172,4.172,0,1,1-2.948,5.11,4.178,4.178,0,0,1,2.948-5.11" transform="translate(22.367 4.381)" fill="#272525" stroke="#252424" stroke-width="0.3"/>
  <path id="패스_41" data-name="패스 41" d="M25.54,21.891A5.354,5.354,0,1,0,22.288,19.4a5.326,5.326,0,0,0,3.252,2.494M22.9,15.643a4.171,4.171,0,1,1,.416,3.161,4.135,4.135,0,0,1-.416-3.161" transform="translate(17.61 -0.576)" fill="#272525" stroke="#252424" stroke-width="0.3"/>
  <path id="패스_42" data-name="패스 42" d="M8.211,6l-.75-.572-.719.541C6.467,6.173,0,11.123,0,17.469c0,4.272,1.484,6.271,3.441,7.183-.076.434-.147.863-.209,1.279a72.758,72.758,0,0,0-.55,15.47C3.9,58.669,4.868,63.209,7.371,63.485l1.313.145v-.6c1.922-1.382,2.589-7.155,3.5-21.764a82.032,82.032,0,0,0-.5-15.442l-.154-1.03h-.011c-.007-.049-.015-.1-.024-.145,1.94-.91,3.419-2.906,3.419-7.177,0-6.122-6-10.932-6.7-11.471m1.6,35.117c-.383,6.158-1.072,17.3-2.285,19.637C6.238,58.077,5.413,46.424,5.045,41.232a70.435,70.435,0,0,1,.53-14.954q.074-.5.162-1.006a14.7,14.7,0,0,0,1.76.1H7.5a14.346,14.346,0,0,0,1.689-.1c.044.282.084.569.124.861l.14,1.026h.005a80.62,80.62,0,0,1,.352,13.953m2.463-22.687a2.066,2.066,0,0,0,.263-.91C12.53,22.137,10.83,22.993,7.455,23s-5.086-.856-5.086-5.533a7.494,7.494,0,0,1,.145-1.428,2.56,2.56,0,0,0,1.152.314c1.631.051,2.167-1.4,2.521-2.358.189-.51.4-1.092.589-1.114a7.166,7.166,0,0,1,1.092,2.267c.708,1.889,1.5,4.013,3.034,4.013a1.684,1.684,0,0,0,.372-.042,1.5,1.5,0,0,0,1-.694M10.863,14.66c.291,1.045.727,2.621.4,3.152a.3.3,0,0,1-.236.149c-.788.163-1.517-1.795-2.053-3.226C8.345,13.047,7.844,11.71,6.83,11.71H6.776c-1.025.049-1.4,1.063-1.7,1.876C4.672,14.68,4.4,15.2,3.7,15.169a1.549,1.549,0,0,1-1.3-.852A18.139,18.139,0,0,1,7.459,7.67a20.278,20.278,0,0,1,3.64,3.995.8.8,0,0,0-.365.22c-.5.5-.251,1.4.129,2.776" transform="translate(0 -5.425)" fill="#272525"/>
</svg>
