<svg id="그룹_44" data-name="그룹 44" xmlns="http://www.w3.org/2000/svg" xmlns:xlink="http://www.w3.org/1999/xlink" width="42.505" height="42.885" viewBox="0 0 42.505 42.885">
  <defs>
    <clipPath id="clip-path">
      <rect id="사각형_16" data-name="사각형 16" width="42.505" height="42.885" fill="none"/>
    </clipPath>
  </defs>
  <g id="그룹_43" data-name="그룹 43" transform="translate(0 0)" clip-path="url(#clip-path)">
    <path id="패스_118" data-name="패스 118" d="M35.43,22.268a1.958,1.958,0,0,0,1.957-1.956A20.336,20.336,0,0,0,17.075,0a1.957,1.957,0,1,0,0,3.914,16.418,16.418,0,0,1,16.4,16.4,1.958,1.958,0,0,0,1.957,1.956M17.075,2.677a.72.72,0,1,1,0-1.44A19.1,19.1,0,0,1,36.15,20.313a.72.72,0,0,1-1.44,0A17.655,17.655,0,0,0,17.075,2.677" transform="translate(5.118 0)" fill="#272525"/>
    <path id="패스_119" data-name="패스 119" d="M16.914,4.894a1.956,1.956,0,1,0,0,3.913A10.075,10.075,0,0,1,26.978,18.87a1.956,1.956,0,1,0,3.913,0A13.991,13.991,0,0,0,16.914,4.894m12.019,14.7a.721.721,0,0,1-.72-.72,11.313,11.313,0,0,0-11.3-11.3.72.72,0,1,1,0-1.44A12.754,12.754,0,0,1,29.654,18.87a.72.72,0,0,1-.72.72" transform="translate(5.064 1.657)" fill="#272525"/>
    <path id="패스_120" data-name="패스 120" d="M29.651,41.651q.476.042.946.043a8.7,8.7,0,0,0,4.539-1.2,6.658,6.658,0,0,0,1.626-1.31l1.249-1.381a6.678,6.678,0,0,0-.473-9.421l-2.108-1.906a6.669,6.669,0,0,0-9.421.471l-1.249,1.383a6.618,6.618,0,0,0-1.146,1.756A23.252,23.252,0,0,1,12.177,19.626a6.686,6.686,0,0,0,2.355-1.673l1.248-1.38a6.67,6.67,0,0,0-.471-9.422L13.2,5.244a6.67,6.67,0,0,0-9.422.473L2.53,7.1a6.261,6.261,0,0,0-.49.613C.645,8.952-.457,11.665.19,15A33.148,33.148,0,0,0,29.651,41.651M3.3,9.07a1.082,1.082,0,0,0,.088-.087l.056-.063a.77.77,0,0,0,.072-.091,4.622,4.622,0,0,1,.386-.486L5.155,6.961a4.815,4.815,0,0,1,6.8-.34l2.108,1.9a4.818,4.818,0,0,1,.339,6.8l-1.248,1.379h0a4.8,4.8,0,0,1-2.178,1.38l-.38.114a.929.929,0,0,0-.564,1.3l.177.353A25.108,25.108,0,0,0,23.485,32.042l.328.129a.928.928,0,0,0,1.219-.569l.112-.333a4.787,4.787,0,0,1,.992-1.692l1.25-1.381a4.811,4.811,0,0,1,6.8-.34l2.108,1.906a4.822,4.822,0,0,1,.341,6.8l-1.25,1.381a4.93,4.93,0,0,1-1.2.962,7.146,7.146,0,0,1-4.368.9A31.281,31.281,0,0,1,2.012,14.653c-.545-2.82.475-4.884,1.293-5.583" transform="translate(0 1.192)" fill="#272525"/>
  </g>
</svg>
