<?xml version="1.0" ?><svg id="Layer_1" style="enable-background:new 0 0 60 60;" version="1.1" viewBox="0 0 60 60" xml:space="preserve" xmlns="http://www.w3.org/2000/svg" xmlns:xlink="http://www.w3.org/1999/xlink"><path d="M53,12.78c0,0.55,0.45,1,1,1s1-0.45,1-1c0-2.48-2.02-4.5-4.5-4.5h-41c-2.48,0-4.5,2.02-4.5,4.5v29c0,2.48,2.02,4.5,4.5,4.5  h10.49l-2.96,3.82c-0.34,0.44-0.26,1.06,0.18,1.4c0.18,0.14,0.4,0.21,0.61,0.21c0.3,0,0.59-0.13,0.79-0.39l3.91-5.05h14.96  l3.91,5.05c0.2,0.25,0.49,0.39,0.79,0.39c0.21,0,0.43-0.07,0.61-0.21c0.44-0.34,0.52-0.97,0.18-1.4l-2.96-3.82H50.5  c2.48,0,4.5-2.02,4.5-4.5V17.51c0-0.55-0.45-1-1-1s-1,0.45-1,1v24.27c0,1.38-1.12,2.5-2.5,2.5h-41c-1.38,0-2.5-1.12-2.5-2.5v-29  c0-1.38,1.12-2.5,2.5-2.5h41C51.88,10.28,53,11.4,53,12.78z"/><path d="M21.28,41.51h6.11c0.55,0,1-0.45,1-1v-7.3l3.29,7.68c0,0,0,0,0,0.01l0,0c0.05,0.11,0.12,0.2,0.19,0.29  c0.02,0.02,0.05,0.04,0.07,0.06c0.07,0.06,0.14,0.11,0.21,0.14c0.03,0.02,0.06,0.03,0.09,0.04c0.11,0.04,0.23,0.07,0.35,0.07  c0,0,0,0,0,0h6.11c0,0,0,0,0,0c0.04,0,0.08-0.02,0.12-0.02c0.09-0.01,0.19-0.02,0.27-0.06c0,0,0,0,0,0  c0.02-0.01,0.03-0.03,0.05-0.04c0.1-0.05,0.19-0.11,0.27-0.18c0.05-0.05,0.07-0.11,0.11-0.16c0.04-0.05,0.08-0.1,0.1-0.16  c0.04-0.1,0.05-0.2,0.06-0.31c0-0.02,0.01-0.05,0.01-0.07v0c0,0,0,0,0,0V14.05c0-0.55-0.45-1-1-1h-6.11c-0.55,0-1,0.45-1,1v7.3  l-3.29-7.68c0,0,0,0,0-0.01l0,0c0-0.01-0.01-0.01-0.01-0.02c-0.05-0.11-0.12-0.21-0.21-0.3c-0.04-0.04-0.09-0.06-0.14-0.09  c-0.06-0.04-0.12-0.09-0.18-0.12c-0.1-0.04-0.2-0.05-0.3-0.06c-0.03,0-0.05-0.01-0.07-0.01h0c0,0,0,0,0,0h-6.1c0,0,0,0,0,0  c-0.08,0-0.16,0.03-0.24,0.05c-0.05,0.01-0.1,0.01-0.15,0.03c0,0,0,0,0,0c-0.02,0.01-0.03,0.03-0.06,0.04  c-0.1,0.05-0.19,0.11-0.26,0.18c-0.05,0.05-0.07,0.11-0.11,0.16c-0.04,0.05-0.08,0.1-0.1,0.16c-0.04,0.1-0.06,0.2-0.06,0.31  c0,0.02-0.01,0.04-0.01,0.07v0c0,0,0,0,0,0v26.45C20.28,41.06,20.73,41.51,21.28,41.51z M26.39,39.51h-4.11V18.93l4.11,9.61V39.51z   M26.74,15.05l4.95,11.56c0,0,0,0,0,0l5.52,12.89h-3.94l-4.95-11.56c0,0,0,0,0,0L22.8,15.05H26.74z M33.61,15.05h4.11v20.58  l-4.11-9.61V15.05z"/></svg>