<svg id="그룹_52" data-name="그룹 52" xmlns="http://www.w3.org/2000/svg" xmlns:xlink="http://www.w3.org/1999/xlink" width="54.685" height="45.012" viewBox="0 0 54.685 45.012">
  <defs>
    <clipPath id="clip-path">
      <rect id="사각형_20" data-name="사각형 20" width="54.685" height="45.012" fill="none"/>
    </clipPath>
  </defs>
  <g id="그룹_51" data-name="그룹 51" transform="translate(0 0)" clip-path="url(#clip-path)">
    <path id="패스_129" data-name="패스 129" d="M36.52,4.659c-.234-.034-.469-.056-.7-.071C34.15,3.91,31.18,3.434,27.7,6.114l-.083.073L26.474,7.335c-4.3-2.92-7.718-1.121-8.678-.488L13.512,2.561,0,16.073l5.121,5.119a13.1,13.1,0,0,0,2.443,7.029A18.512,18.512,0,0,0,9.805,30.94c1.057,1.069,2.126,2.126,3.188,3.19-1.152,1.679-.659,3.068.544,4.32a3.535,3.535,0,0,0,4.084.961.036.036,0,0,1,.041.015c1.213,1.814,2.331,2.7,3.535,2.79.5.488,1,.981,1.5,1.465a4.683,4.683,0,0,0,5.561.73,3.151,3.151,0,0,0,1.306-1.443c3.041,2.553,5.069,2.6,7.46-.981a.035.035,0,0,1,.039-.015,3.531,3.531,0,0,0,4.086-.962c1.271-1.321,1.753-2.8.335-4.606-.012-.014-.379-.49-.363-.49a2.843,2.843,0,0,0,2.256-1.184,3.471,3.471,0,0,0-.158-4.691c.552-.554,1.11-1.1,1.658-1.66a18.2,18.2,0,0,0,2.241-2.719,13.093,13.093,0,0,0,2.443-7.025l5.121-5.123L41.175,0ZM10.627,28.978A12.415,12.415,0,0,1,7.4,23.469a9.663,9.663,0,0,1-.241-1.411,9.848,9.848,0,0,1-.036-1.21L2.41,16.295,13.574,5.13l3.1,2.937.235.237-.015.037,1.73.144.114-.28c.681-.464,3.513-2.036,7.293.845l5,5.023a1.346,1.346,0,0,1-.005,1.9l-.33.33a1.341,1.341,0,0,1-1.894-.005l-5.118-5.14-1.242.869,1.384,1.621.6.6q-.884.879-1.765,1.763a1.014,1.014,0,0,0-.271.466c-.027.03-.056.061-.088.091q-5.153,5.163-10.313,10.325a5.286,5.286,0,0,0-1.359,2.084M27.2,42.911a1.7,1.7,0,0,1-1.392.559,2.982,2.982,0,0,1-1.779-1.077c-.242-.239-.481-.479-.723-.718a10.91,10.91,0,0,0,1.811-1.269,3.186,3.186,0,0,0,1.308,1.445,4.472,4.472,0,0,0,1.088.446,1.3,1.3,0,0,1-.312.615m7.371-.693c-.766.9-1.643.979-2.765-.059-.173-.163-.344-.325-.518-.488a4.83,4.83,0,0,0,.7-.552c.642-.62,1.274-1.248,1.914-1.87.069.068.136.137.2.2,1.054,1.057,1.194,1.909.466,2.765m5.345-2.8c-.776,1.059-1.962,1.082-3.022.025q-.788-.788-1.579-1.581c.867-.849,1.743-1.692,2.609-2.546.488.49.981.977,1.469,1.469.942.947,1.1,1.841.523,2.633m2.165-6.259a1.792,1.792,0,0,1-2.5.938,2.824,2.824,0,0,1-.261-.166c.835-.832,1.665-1.669,2.5-2.5a1.627,1.627,0,0,1,.259,1.73M52.332,13.645l-4.765,4.642a9.506,9.506,0,0,1-.039,1.21,9.851,9.851,0,0,1-.237,1.411,12.482,12.482,0,0,1-3.251,5.531c-2.123,2.231-4.343,4.367-6.52,6.546-2.287,2.285-4.562,4.579-6.868,6.847a2.97,2.97,0,0,1-1.777,1.077,1.706,1.706,0,0,1-1.394-.559,2.059,2.059,0,0,1-.334-1.714,3.925,3.925,0,0,1,1.1-1.548c1.04-1.067,2.1-2.114,3.154-3.17.512-.515,1.023-1.03,1.525-1.552.54-.556,2.111-1.728,1.228-2.553-.808-.756-1.965.7-2.453,1.193-.512.515-1.025,1.03-1.547,1.536C27.74,34.905,25.351,37.3,22.874,39.6c-1.12,1.04-2,.961-2.765.061-.727-.855-.588-1.709.468-2.766q4.111-4.116,8.226-8.231a1.943,1.943,0,0,0,.784-1.223c.053-.435-.107-.82-.551-.888a1.6,1.6,0,0,0-1.569.661q-4.841,4.838-9.681,9.676c-1.06,1.057-2.245,1.033-3.02-.025-.581-.791-.418-1.686.523-2.631Q20.2,29.3,25.133,24.391c.535-.534.957-1.132.3-1.747-.628-.59-1.169-.068-1.648.413Q20,26.856,16.2,30.636a5.155,5.155,0,0,1-1.1.906,1.792,1.792,0,0,1-2.5-.94c-.4-1.01.117-1.65.756-2.289q6.292-6.269,12.548-12.576l1.718,1.726a3,3,0,0,0,4.24.01l.329-.329a2.985,2.985,0,0,0,.1-4.128L28.482,9.17l-.747-.754,1.016-1.021a7.126,7.126,0,0,1,8.135-.761l1.128-1.128L41.165,2.48Z" transform="translate(0 0)" fill="#272525"/>
  </g>
</svg>
