<svg id="그룹_104" data-name="그룹 104" xmlns="http://www.w3.org/2000/svg" xmlns:xlink="http://www.w3.org/1999/xlink" width="44.026" height="56.68" viewBox="0 0 44.026 56.68">
  <defs>
    <clipPath id="clip-path">
      <rect id="사각형_46" data-name="사각형 46" width="44.026" height="56.68" fill="none"/>
    </clipPath>
  </defs>
  <g id="그룹_103" data-name="그룹 103" transform="translate(0 0)" clip-path="url(#clip-path)">
    <path id="패스_221" data-name="패스 221" d="M7.021,56.68H37a7.031,7.031,0,0,0,7.023-7.023v-19.2a7.027,7.027,0,0,0-6.1-6.955V15.912a15.913,15.913,0,0,0-31.826,0V23.5A7.028,7.028,0,0,0,0,30.457v19.2A7.03,7.03,0,0,0,7.021,56.68m-4.4-26.224a4.4,4.4,0,0,1,4.4-4.4H37a4.4,4.4,0,0,1,4.4,4.4v19.2a4.4,4.4,0,0,1-4.4,4.4H7.021a4.4,4.4,0,0,1-4.4-4.4ZM22.014,2.623A13.305,13.305,0,0,1,35.3,15.912v7.522H33.2V15.912a11.192,11.192,0,0,0-22.384,0v7.522h-2.1V15.912A13.3,13.3,0,0,1,22.014,2.623m8.567,20.811H13.445V15.912a8.568,8.568,0,0,1,17.136,0Z" transform="translate(0 0)" fill="#272525"/>
    <path id="패스_222" data-name="패스 222" d="M11.967,33.836H17.2a1.049,1.049,0,0,0,1.049-1.049V20.651A1.049,1.049,0,0,0,17.2,19.6H11.967a1.049,1.049,0,0,0-1.05,1.049V32.787a1.049,1.049,0,0,0,1.05,1.049M13.016,21.7h3.137V31.737H13.016Z" transform="translate(7.429 13.338)" fill="#272525"/>
  </g>
</svg>
