<svg id="그룹_28" data-name="그룹 28" xmlns="http://www.w3.org/2000/svg" xmlns:xlink="http://www.w3.org/1999/xlink" width="40.484" height="41.495" viewBox="0 0 40.484 41.495">
  <defs>
    <clipPath id="clip-path">
      <rect id="사각형_8" data-name="사각형 8" width="40.484" height="41.495" fill="none"/>
    </clipPath>
  </defs>
  <g id="그룹_27" data-name="그룹 27" transform="translate(0 0)" clip-path="url(#clip-path)">
    <path id="패스_99" data-name="패스 99" d="M8.642,41.371a11.665,11.665,0,0,0,1.755.124,21.809,21.809,0,0,0,5.074-.69c4.066-.985,4.973-1.337,5.559-1.645a24.362,24.362,0,0,0,6.06-3.113h0C33.7,31.4,37.126,24.375,38.579,20.6c.5-1.306.73-2.123.739-2.16.327-1.2.586-2.37.793-3.586.922-5.41.127-9.428-2.363-11.94C34.537-.328,29.362-.287,25.586.32a24.3,24.3,0,0,0-3.168.71c-.768.283-1.574.607-2.465.99C13.34,4.865,8.269,8.842,4.878,13.848h0a27.854,27.854,0,0,0-3.127,6.11A28.813,28.813,0,0,0,.362,34.39c.478,3.718,3.494,6.26,8.28,6.981M36.487,4.165C38.292,5.987,39,8.891,38.6,12.813L27.643,1.858c2.8-.232,6.553,0,8.844,2.307M23.008,2.706a22.743,22.743,0,0,1,2.414-.557L38.281,15.006c-.182,1-.4,1.975-.675,2.965,0,0-.071.255-.217.693L21.869,3.145c.391-.157.767-.3,1.138-.439M20.1,3.892l8.472,8.472L36.71,20.5c-1.435,3.556-4.491,9.5-10.035,13.655L16.723,24.2,6.765,14.246A32.132,32.132,0,0,1,20.1,3.892M5.76,15.752l19.43,19.429A22.423,22.423,0,0,1,20.9,37.321L3.617,20.038A26.021,26.021,0,0,1,5.76,15.752M2.108,34.063a27.183,27.183,0,0,1,.865-12.157c1.686,1.685,5.208,5.206,8.618,8.616l.68.681L13.46,32.4c1.567,1.565,3.025,3.022,4.169,4.167l.8.8c.242.244.462.464.656.658-.737.23-1.941.558-4.03,1.064a16.572,16.572,0,0,1-6.146.537c-1.871-.282-6.279-1.38-6.787-5.479,0-.025-.007-.049-.011-.074" transform="translate(0 -0.001)" fill="#272525"/>
  </g>
</svg>
