<svg id="그룹_40" data-name="그룹 40" xmlns="http://www.w3.org/2000/svg" xmlns:xlink="http://www.w3.org/1999/xlink" width="40.994" height="51.454" viewBox="0 0 40.994 51.454">
  <defs>
    <clipPath id="clip-path">
      <rect id="사각형_14" data-name="사각형 14" width="40.994" height="51.454" fill="none"/>
    </clipPath>
  </defs>
  <g id="그룹_39" data-name="그룹 39" transform="translate(0 0)" clip-path="url(#clip-path)">
    <path id="패스_112" data-name="패스 112" d="M14.965,9.532V4.909c0-.761-.326-1.378-.729-1.378s-.729.617-.729,1.378V5.79c1.165,2.109,1.337,4.3.252,5.964-.076.115-.165.222-.252.33v8.322h1.457V13.849l-.016-.035a6.063,6.063,0,0,1,.016-4.282" transform="translate(2.681 0.701)" fill="#272525"/>
    <path id="패스_113" data-name="패스 113" d="M37.765,5.3C36.138,1.151,29.658-.2,23.322,2.281a16.3,16.3,0,0,0-7.179,5.239,9.641,9.641,0,0,0-1.353,2.507,6.063,6.063,0,0,0-.016,4.282l.016.035c1.088,2.718,4.269,4.227,8.123,4.227a17.428,17.428,0,0,0,6.3-1.243C35.556,14.843,39.39,9.448,37.765,5.3M17.4,8.447a14.716,14.716,0,0,1,6.489-4.71h0a16.173,16.173,0,0,1,5.828-1.163c3,0,5.447,1.031,6.423,2.929l-11.71,4.76.94-3.719a.782.782,0,0,0-1.516-.382L22.636,11l-6.448,2.622c-.544-1.532-.117-3.361,1.214-5.17m11.244,7.426c-4.777,1.872-9.578,1.413-11.647-.9l11.791-4.8,5.864.826c.037,0,.073.007.11.007a.782.782,0,0,0,.108-1.557l-3.2-.449,4.9-1.991c.26,3.163-3,6.926-7.924,8.857" transform="translate(2.856 0.206)" fill="#272525"/>
    <path id="패스_114" data-name="패스 114" d="M9.671,17.611A7.026,7.026,0,0,0,2.49,24.452V41.117a7.027,7.027,0,0,0,7.181,6.842H25.4a7.028,7.028,0,0,0,7.182-6.842V24.452A7.027,7.027,0,0,0,25.4,17.611H9.671Zm21.35,23.506A5.463,5.463,0,0,1,25.4,46.395H9.671a5.462,5.462,0,0,1-5.617-5.278V36.809H31.021Zm0-5.871H4.054v-4.6H31.021ZM25.4,19.174a5.463,5.463,0,0,1,5.618,5.278V29.08H4.054V24.452a5.462,5.462,0,0,1,5.617-5.278Z" transform="translate(0.494 3.496)" fill="#272525"/>
    <path id="패스_115" data-name="패스 115" d="M16.189,6.491a12.71,12.71,0,0,0-4.21-4.367A12.329,12.329,0,0,0,5.6,0a5.943,5.943,0,0,0-4.1,1.3.768.768,0,0,0-.084.081,4.347,4.347,0,0,0-.7.805c-1.9,2.917.056,7.455,4.462,10.33a12.3,12.3,0,0,0,6.377,2.122H11.7a5.522,5.522,0,0,0,4.485-1.861c.086-.108.176-.213.252-.33,1.087-1.663.913-3.854-.252-5.964m-4.6,6.59a10.74,10.74,0,0,1-5.548-1.867C2.494,8.9.659,5.157,2.036,3.048c.026-.041.06-.076.087-.114l12.885,8.824a4.052,4.052,0,0,1-3.418,1.323m3.987-2.828L13.452,8.8a.756.756,0,0,0-.05-.233L12.06,5.189a.782.782,0,1,0-1.453.578L11.2,7.253l-7.77-5.32a5.228,5.228,0,0,1,2.035-.369h.114a10.729,10.729,0,0,1,5.547,1.867c2.881,1.882,4.631,4.7,4.454,6.821" transform="translate(0 0)" fill="#272525"/>
  </g>
</svg>
