<?xml version="1.0" encoding="iso-8859-1"?>
<!-- Generator: Adobe Illustrator 19.1.0, SVG Export Plug-In . SVG Version: 6.00 Build 0)  -->
<svg version="1.1" id="Capa_1" xmlns="http://www.w3.org/2000/svg" xmlns:xlink="http://www.w3.org/1999/xlink" x="0px" y="0px"
	 viewBox="0 0 287.025 287.025" style="enable-background:new 0 0 287.025 287.025;" xml:space="preserve">
<g>
	<g>
		<path d="M280.724,142.99h-77.37V71.657c0-1.43-0.53-2.86-1.43-3.972L148.332,2.231c-2.383-2.913-7.308-2.913-9.638,0
			L84.996,67.738c-0.9,1.112-1.43,2.489-1.43,3.972v71.28H6.249c-3.442,0-6.249,2.807-6.249,6.249V280.73
			c0,3.442,2.807,6.249,6.249,6.249h106.655h61.218h106.655c3.442,0,6.249-2.807,6.249-6.249V149.186
			C286.972,145.743,284.166,142.99,280.724,142.99z M119.1,274.428v-52.745c0-13.451,10.909-24.36,24.36-24.36
			s24.36,10.909,24.36,24.36v52.745H119.1z M274.475,274.428h-94.157v-52.745c0-20.335-16.523-36.858-36.858-36.858
			s-36.858,16.523-36.858,36.858v52.745H12.498V155.435h77.37c3.442,0,6.249-2.807,6.249-6.249V73.881l47.396-57.882l47.396,57.882
			v75.304c0,3.442,2.807,6.249,6.249,6.249h77.37v118.994H274.475z"/>
		<path d="M216.593,234.234h33.998c3.442,0,6.249-2.807,6.249-6.249v-33.998c0-3.442-2.807-6.249-6.249-6.249h-33.998
			c-3.442,0-6.249,2.807-6.249,6.249v33.998C210.344,231.48,213.151,234.234,216.593,234.234z M222.842,200.236h21.553v21.553
			h-21.553V200.236z"/>
		<path d="M70.379,187.791H36.381c-3.442,0-6.249,2.807-6.249,6.249v33.998c0,3.442,2.807,6.249,6.249,6.249h33.998
			c3.442,0,6.249-2.807,6.249-6.249V194.04C76.575,190.545,73.822,187.791,70.379,187.791z M64.131,221.789H42.577v-21.553h21.553
			C64.131,200.236,64.131,221.789,64.131,221.789z"/>
		<path d="M165.807,70.227h-16.099V56.088c0-3.442-2.807-6.249-6.249-6.249c-3.442,0-6.249,2.807-6.249,6.249v14.139h-16.099
			c-3.442,0-6.249,2.807-6.249,6.249c0,3.442,2.807,6.249,6.249,6.249h16.099v60.741c0,3.442,2.807,6.249,6.249,6.249
			c3.442,0,6.249-2.807,6.249-6.249V82.672h16.099c3.442,0,6.249-2.807,6.249-6.249S169.25,70.227,165.807,70.227z"/>
	</g>
</g>
<g>
</g>
<g>
</g>
<g>
</g>
<g>
</g>
<g>
</g>
<g>
</g>
<g>
</g>
<g>
</g>
<g>
</g>
<g>
</g>
<g>
</g>
<g>
</g>
<g>
</g>
<g>
</g>
<g>
</g>
</svg>
