<svg id="그룹_24" data-name="그룹 24" xmlns="http://www.w3.org/2000/svg" xmlns:xlink="http://www.w3.org/1999/xlink" width="29.912" height="44.896" viewBox="0 0 29.912 44.896">
  <defs>
    <clipPath id="clip-path">
      <rect id="사각형_6" data-name="사각형 6" width="29.912" height="44.896" fill="none"/>
    </clipPath>
  </defs>
  <g id="그룹_23" data-name="그룹 23" transform="translate(0 0)" clip-path="url(#clip-path)">
    <path id="패스_97" data-name="패스 97" d="M29.357,3.2a4.228,4.228,0,0,0-7.729-1.144L15.535,12.225l-.04.074c-.015.025-.031.046-.045.07L.6,37.147a4.209,4.209,0,0,0,.131,4.546L.429,42.2A1.779,1.779,0,0,0,1.953,44.9a1.7,1.7,0,0,0,.436-.055,1.772,1.772,0,0,0,1.095-.81l.305-.51c.143.014.289.029.433.029a4.249,4.249,0,0,0,3.634-2.058L22.7,16.715c.016-.026.026-.053.041-.078s.031-.044.045-.067l.3-.5c.025.022.046.048.074.068a1.2,1.2,0,0,0,.727.247,1.253,1.253,0,0,0,1.081-.628h0L29.7,8.009a1.434,1.434,0,0,0-.329-1.88,1.237,1.237,0,0,0-.267-.15A4.2,4.2,0,0,0,29.357,3.2M2.721,43.573h0a.891.891,0,1,1-1.528-.916l.15-.252a3.984,3.984,0,0,0,1.532.909Zm3.61-2.995h0a2.449,2.449,0,1,1-4.2-2.518l13.161-21.97a4.231,4.231,0,0,0,3.865,2.537c.113,0,.228-.012.342-.022ZM21.264,15.657a2.45,2.45,0,0,1-4.2-2.519L23.153,2.97a2.449,2.449,0,1,1,4.2,2.516Zm7.675-8.111-4.726,7.748a.4.4,0,0,1-.262.2.318.318,0,0,1-.254-.064.433.433,0,0,1-.127-.161l5.089-8.492a.315.315,0,0,1,.176.063.553.553,0,0,1,.1.709" transform="translate(0 0)" fill="#272525"/>
  </g>
</svg>
