<?xml version="1.0" encoding="utf-8"?>
<!-- Generator: Adobe Illustrator 24.1.1, SVG Export Plug-In . SVG Version: 6.00 Build 0)  -->
<svg version="1.1" id="레이어_1" xmlns="http://www.w3.org/2000/svg" xmlns:xlink="http://www.w3.org/1999/xlink" x="0px"
	 y="0px" viewBox="0 0 512 512" style="enable-background:new 0 0 512 512;" xml:space="preserve">
<style type="text/css">
	.st0{fill:rgb(74 102 158);}
</style>
<path class="st0" d="M272,288h-64c-44.2,0-80,35.8-80,80c0,8.8,7.2,16,16,16h192c8.8,0,16-7.2,16-16C352,323.8,316.2,288,272,288z
	 M240,256c35.4,0,64-28.6,64-64s-28.6-64-64-64c-35.3,0-64,28.6-64,64S204.7,256,240,256z M496,320h-16v96h16c8.8,0,16-7.2,16-16
	v-64C512,327.2,504.8,320,496,320z M496,64h-16v96h16c8.8,0,16-7.2,16-16V80C512,71.2,504.8,64,496,64z M496,192h-16v96h16
	c8.8,0,16-7.2,16-16v-64C512,199.2,504.8,192,496,192z M384,0H96C60.7,0,32,28.6,32,64v384c0,35.4,28.7,64,64,64h288
	c35.4,0,64-28.6,64-64V64C448,28.6,419.3,0,384,0z M400,448c0,8.8-7.2,16-16,16H96c-8.8,0-16-7.2-16-16V64c0-8.8,7.2-16,16-16h288
	c8.8,0,16,7.2,16,16V448z"/>
</svg>
