<?xml version="1.0" encoding="utf-8"?>
<!-- Generator: Adobe Illustrator 24.1.1, SVG Export Plug-In . SVG Version: 6.00 Build 0)  -->
<svg version="1.1" id="레이어_1" xmlns="http://www.w3.org/2000/svg" xmlns:xlink="http://www.w3.org/1999/xlink" x="0px"
	 y="0px" viewBox="0 0 640 512" style="enable-background:new 0 0 640 512;" xml:space="preserve">
<style type="text/css">
	.st0{fill:#6768A7;}
</style>
<path class="st0" d="M623.5,164c14.6,8.6,21.1,28.1,11.6,43.5c-7.7,14.6-27.2,21.1-42.6,11.6L319.1,68.6L47.5,219.1
	c-15.5,9.5-34.9,3-43.5-11.6c-8.6-15.4-3-34.9,12.4-43.5l288-160c9.6-5.4,21.4-5.4,31,0L623.5,164z M279.1,200c0-22.1,18.8-40,40-40
	c23,0,40,17.9,40,40s-17,40-40,40C297.9,240,279.1,222.1,279.1,200z M103.1,296c0-22.1,18.8-40,40-40c23,0,40,17.9,40,40
	s-17,40-40,40C121.9,336,103.1,318.1,103.1,296L103.1,296z M535.1,296c0,22.1-17,40-40,40c-21.2,0-40-17.9-40-40s18.8-40,40-40
	C518.1,256,535.1,273.9,535.1,296z M226.9,491.4l-27.8-49.9V480c0,17.7-13.4,32-32,32h-48c-16.8,0-32-14.3-32-32v-38.5l-26,49.9
	c-6.3,11.6-20.8,16-32.5,9.7c-11.7-6.3-16-20.8-9.8-32.5l37.9-70.3c15.3-28.5,45.2-46.3,77.5-46.3h19.6c16.3,0,31.9,4.5,45.4,12.6
	l33.5-62.3c15.4-28.5,45.2-47.2,77.5-47.2h19.6c32.3,0,62.1,18.7,77.5,47.2l33.5,62.3c13.5-8.1,29.1-12.6,45.4-12.6h19.6
	c32.3,0,62.1,17.8,77.5,46.3l37.8,70.3c6.3,11.7,1.9,26.2-9.7,32.5c-11.7,6.3-26.2,1.9-32.5-9.7l-27.8-49.9V480
	c0,17.7-13.4,32-32,32h-48c-16.8,0-32-14.3-32-32v-38.5l-26,49.9c-6.3,11.6-20.8,16-32.5,9.7c-12.5-6.3-16-20.8-9.7-32.5l36.3-67.5
	c-1.7-1.6-3.2-3.5-4.3-5.7l-27.8-49.9V400c0,17.7-13.4,32-32,32h-48c-16.8,0-32-14.3-32-32v-54.5l-26,49.9c-2,2.2-2.6,4.1-4.3,5.7
	l36.3,67.5c6.3,11.7,1.9,26.2-9.7,32.5C247.7,507.4,233.2,503,226.9,491.4L226.9,491.4z"/>
</svg>
