<?xml version="1.0" encoding="utf-8"?>
<!-- Generator: Adobe Illustrator 24.1.1, SVG Export Plug-In . SVG Version: 6.00 Build 0)  -->
<svg version="1.1" id="레이어_1" xmlns="http://www.w3.org/2000/svg" xmlns:xlink="http://www.w3.org/1999/xlink" x="0px"
	 y="0px" viewBox="0 0 640 512" style="enable-background:new 0 0 640 512;" xml:space="preserve">
<style type="text/css">
	.st0{fill:#6768A7;}
</style>
<path class="st0" d="M192,48c0-26.5,21.5-48,48-48h160c26.5,0,48,21.5,48,48v464h-80v-80c0-26.5-21.5-48-48-48s-48,21.5-48,48v80
	h-80V48z M312,64c-8.8,0-16,7.2-16,16v24h-24c-8.8,0-16,7.2-16,16v16c0,8.8,7.2,16,16,16h24v24c0,8.8,7.2,16,16,16h16
	c8.8,0,16-7.2,16-16v-24h24c8.8,0,16-7.2,16-16v-16c0-8.8-7.2-16-16-16h-24V80c0-8.8-7.2-16-16-16H312z M160,96v416H48
	c-26.5,0-48-21.5-48-48V320h80c8.8,0,16-7.2,16-16s-7.2-16-16-16H0v-64h80c8.8,0,16-7.2,16-16s-7.2-16-16-16H0v-48
	c0-26.5,21.5-48,48-48H160z M592,96c26.5,0,48,21.5,48,48v48h-80c-8.8,0-16,7.2-16,16s7.2,16,16,16h80v64h-80c-8.8,0-16,7.2-16,16
	s7.2,16,16,16h80v144c0,26.5-21.5,48-48,48H480V96H592z"/>
</svg>
