<svg class="svg-icon" style="width: 1em; height: 1em;vertical-align: middle;fill: currentColor;overflow: hidden;" viewBox="0 0 1024 1024" version="1.1" xmlns="http://www.w3.org/2000/svg"><path d="M1020.19072 401.8176c-8.86784-25.55904-31.62112-44.29824-59.00288-48.35328l-266.42432-39.60832-115.8144-240.45568c-12.1856-25.25184-38.27712-41.41056-66.94912-41.41056s-54.74304 16.15872-66.94912 41.41056l-115.8144 240.45568-266.46528 39.60832c-27.36128 4.05504-50.11456 22.79424-58.94144 48.35328-8.8064 25.64096-2.1504 53.8624 17.18272 73.1136l195.25632 194.94912-45.28128 270.4384c-4.608 27.2384 7.20896 54.55872 30.33088 70.49216 12.6976 8.74496 27.648 13.18912 42.5984 13.18912 12.288 0 24.61696-3.01056 35.77856-8.99072l232.28416-125.05088 232.32512 125.05088c11.1616 5.98016 23.49056 8.99072 35.7376 8.99072 14.9504 0 29.88032-4.44416 42.61888-13.18912 23.1424-15.93344 34.87744-43.27424 30.3104-70.49216l-45.30176-270.4384 195.31776-194.94912c19.29216-19.29216 25.92768-47.5136 17.18272-73.1136zM754.81088 619.6224c-16.384 16.32256-23.81824 39.3216-20.0704 61.89056l45.30176 270.4384-232.32512-124.98944c-11.14112-6.02112-23.42912-8.99072-35.77856-8.99072-12.288 0-24.61696 3.01056-35.7376 8.99072l-232.32512 124.98944 45.32224-270.4384c3.76832-22.56896-3.64544-45.568-20.02944-61.89056l-195.25632-194.94912 266.42432-39.69024c24.35072-3.62496 45.32224-18.8416 55.76704-40.57088l115.87584-240.37376 115.83488 240.41472c10.48576 21.72928 31.41632 36.92544 55.74656 40.57088l266.50624 39.69024-195.25632 194.90816z" fill="#7879c6" /></svg>