<svg xmlns="http://www.w3.org/2000/svg" width="57.88" height="55" style="enable-background:new 0 0 57.88 55" xml:space="preserve"><style>.st0{fill:#fff}</style><path class="st0" d="M25.17 53.18 27 43.91l2.36-13.81 2.06-13.58h-2.44l-2.27.03-2.17.03-8.08.22c.54-3.05.91-5.36 1.12-6.95 6.7.04 13.71.06 21.05.06l12.54-.03 6.71-.03c-.58 3.01-.97 5.33-1.15 6.95-4.19-.19-8.22-.29-12.09-.29h-2.69l-1.09 5.8-3.58 22.31-.5 3.74c-.2 1.54-.4 3.15-.59 4.82l-5.31-.06c-.59-.01-2.49.02-5.71.06z"/><path class="st0" d="M27.5 55C12.34 55 0 42.66 0 27.5S12.34 0 27.5 0 55 12.34 55 27.5 42.66 55 27.5 55zm0-49C15.64 6 6 15.64 6 27.5S15.64 49 27.5 49 49 39.36 49 27.5 39.36 6 27.5 6z"/></svg>