<svg xmlns="http://www.w3.org/2000/svg" width="54.91" height="43.92" style="enable-background:new 0 0 54.91 43.92" xml:space="preserve"><style>.st0{fill:#6768a5}</style><path class="st0" d="M.01 39.2C.01 30.46 0 21.72 0 12.97c.03-.04.08-.07.09-.11.6-2.88 2.72-4.61 5.66-4.61 2.03 0 4.06 0 6.1-.01 1.17-.01 2.04-.62 2.42-1.72.54-1.57 1.05-3.16 1.6-4.73C16.28.63 17.16.01 18.33.01 24.33 0 30.32 0 36.32 0c1.47 0 2.31.62 2.77 1.99.48 1.44.97 2.87 1.46 4.3.46 1.36 1.27 1.94 2.72 1.94 2.06 0 4.12-.06 6.17.02.81.03 1.65.27 2.4.6 1.75.79 2.62 2.3 3.06 4.1 0 8.74.01 17.48.01 26.23-.04.09-.1.17-.12.26-.54 2.66-2.73 4.46-5.46 4.46-14.57.01-29.14.02-43.7.02-.55 0-1.12-.07-1.64-.24C1.75 42.99.53 41.4.01 39.2zm27.33-.78c7.48.12 13.72-6.02 13.82-13.58.1-7.57-5.98-13.72-13.71-13.85-7.31-.13-13.62 6.04-13.73 13.42-.11 7.68 5.92 13.89 13.62 14.01zm18.24-22.83c-.01 1.1.81 1.93 1.9 1.93 1.07 0 1.9-.82 1.91-1.86.01-1.02-.85-1.92-1.85-1.95-1.1-.02-1.95.8-1.96 1.88z"/><path class="st0" d="M27.44 32.94c-4.45.03-8.2-3.68-8.23-8.15-.04-4.5 3.64-8.3 8.05-8.32 4.63-.02 8.4 3.6 8.42 8.1.02 4.64-3.62 8.34-8.24 8.37z"/></svg>