<?xml version="1.0" encoding="utf-8"?>
<!-- Generator: Adobe Illustrator 24.1.1, SVG Export Plug-In . SVG Version: 6.00 Build 0)  -->
<svg version="1.1" id="레이어_1" xmlns="http://www.w3.org/2000/svg" xmlns:xlink="http://www.w3.org/1999/xlink" x="0px"
	 y="0px" viewBox="0 0 384 512" style="enable-background:new 0 0 384 512;" xml:space="preserve">
<style type="text/css">
	.st0{fill:#6768A7;}
</style>
<path class="st0" d="M32,448c0,35.2,28.8,64,64,64h192c35.2,0,64-28.8,64-64V128H32V448z M96,304c0-8.8,7.2-16,16-16h48v-48
	c0-8.8,7.2-16,16-16h32c8.8,0,16,7.2,16,16v48h48c8.8,0,16,7.2,16,16v32c0,8.8-7.2,16-16,16h-48v48c0,8.8-7.2,16-16,16h-32
	c-8.8,0-16-7.2-16-16v-48h-48c-8.8,0-16-7.2-16-16V304z M360,0H24C10.8,0,0,10.8,0,24v48c0,13.3,10.8,24,24,24h336
	c13.3,0,24-10.8,24-24V24C384,10.8,373.3,0,360,0z"/>
</svg>
