<?xml version="1.0" encoding="utf-8"?>
<!-- Generator: Adobe Illustrator 24.1.1, SVG Export Plug-In . SVG Version: 6.00 Build 0)  -->
<svg version="1.1" id="레이어_1" xmlns="http://www.w3.org/2000/svg" xmlns:xlink="http://www.w3.org/1999/xlink" x="0px"
	 y="0px" viewBox="0 0 384 512" style="enable-background:new 0 0 384 512;" xml:space="preserve">
<style type="text/css">
	.st0{fill:rgb(74 102 158);}
</style>
<path class="st0" d="M336,0c26.5,0,48,21.5,48,48v416c0,26.5-21.5,48-48,48h-96v-80c0-26.5-21.5-48-48-48s-48,21.5-48,48v80H48
	c-26.5,0-48-21.5-48-48V48C0,21.5,21.5,0,48,0H336z M64,272c0,8.8,7.2,16,16,16h32c8.8,0,16-7.2,16-16v-32c0-8.8-7.2-16-16-16H80
	c-8.8,0-16,7.2-16,16V272z M176,224c-8.8,0-16,7.2-16,16v32c0,8.8,7.2,16,16,16h32c8.8,0,16-7.2,16-16v-32c0-8.8-7.2-16-16-16H176z
	 M256,272c0,8.8,7.2,16,16,16h32c8.8,0,16-7.2,16-16v-32c0-8.8-7.2-16-16-16h-32c-8.8,0-16,7.2-16,16V272z M80,96
	c-8.8,0-16,7.2-16,16v32c0,8.8,7.2,16,16,16h32c8.8,0,16-7.2,16-16v-32c0-8.8-7.2-16-16-16H80z M160,144c0,8.8,7.2,16,16,16h32
	c8.8,0,16-7.2,16-16v-32c0-8.8-7.2-16-16-16h-32c-8.8,0-16,7.2-16,16V144z M272,96c-8.8,0-16,7.2-16,16v32c0,8.8,7.2,16,16,16h32
	c8.8,0,16-7.2,16-16v-32c0-8.8-7.2-16-16-16H272z"/>
</svg>
