<?xml version="1.0" encoding="utf-8"?>
<!-- Generator: Adobe Illustrator 24.1.1, SVG Export Plug-In . SVG Version: 6.00 Build 0)  -->
<svg version="1.1" id="레이어_1" xmlns="http://www.w3.org/2000/svg" xmlns:xlink="http://www.w3.org/1999/xlink" x="0px"
	 y="0px" viewBox="0 0 576 512" style="enable-background:new 0 0 576 512;" xml:space="preserve">
<style type="text/css">
	.st0{fill:#6768A7;}
</style>
<path class="st0" d="M288,0h112c8.8,0,16,7.2,16,16v48c0,8.8-7.2,16-16,16h-80v15.5l90.3,64.5H512c35.3,0,64,28.7,64,64v224
	c0,35.3-28.7,64-64,64H336V400c0-26.5-21.5-48-48-48s-48,21.5-48,48v112H64c-35.3,0-64-28.7-64-64V224c0-35.3,28.6-64,64-64h101.7
	L256,95.5V32C256,14.3,270.3,0,288,0L288,0z M288,192c-26.5,0-48,21.5-48,48s21.5,48,48,48s48-21.5,48-48S314.5,192,288,192z
	 M80,224c-8.8,0-16,7.2-16,16v64c0,8.8,7.2,16,16,16h32c8.8,0,16-7.2,16-16v-64c0-8.8-7.2-16-16-16H80z M448,304c0,8.8,7.2,16,16,16
	h32c8.8,0,16-7.2,16-16v-64c0-8.8-7.2-16-16-16h-32c-8.8,0-16,7.2-16,16V304z M80,352c-8.8,0-16,7.2-16,16v64c0,8.8,7.2,16,16,16h32
	c8.8,0,16-7.2,16-16v-64c0-8.8-7.2-16-16-16H80z M464,352c-8.8,0-16,7.2-16,16v64c0,8.8,7.2,16,16,16h32c8.8,0,16-7.2,16-16v-64
	c0-8.8-7.2-16-16-16H464z"/>
</svg>
