<?xml version="1.0" encoding="utf-8"?>
<!-- Generator: Adobe Illustrator 24.1.1, SVG Export Plug-In . SVG Version: 6.00 Build 0)  -->
<svg version="1.1" id="레이어_1" xmlns="http://www.w3.org/2000/svg" xmlns:xlink="http://www.w3.org/1999/xlink" x="0px"
	 y="0px" viewBox="0 0 640 512" style="enable-background:new 0 0 640 512;" xml:space="preserve">
<style type="text/css">
	.st0{fill:#6768A7;}
</style>
<path class="st0" d="M344,48h32c13.3,0,24,10.8,24,24s-10.7,24-24,24h-32v46.4L456.7,210c14.5,8.7,23.3,24.3,23.3,41.2V512h-96v-96
	c0-35.3-28.7-64-64-64s-64,28.7-64,64v96h-96V251.2c0-16.9,8.8-32.5,23.3-41.2L296,142.4V96h-32c-13.3,0-24-10.8-24-24
	s10.7-24,24-24h32V24c0-13.3,10.7-24,24-24s24,10.8,24,24V48z M24.9,330.3L128,273.6V512H48c-26.5,0-48-21.5-48-48v-91.6
	C0,354.9,9.5,338.8,24.9,330.3L24.9,330.3z M592,512h-80V273.6l103.1,56.7c15.4,8.5,24.9,24.6,24.9,42.1V464
	C640,490.5,618.5,512,592,512L592,512z"/>
</svg>
