<?xml version="1.0" encoding="utf-8"?>
<!-- Generator: Adobe Illustrator 24.1.1, SVG Export Plug-In . SVG Version: 6.00 Build 0)  -->
<svg version="1.1" id="레이어_1" xmlns="http://www.w3.org/2000/svg" xmlns:xlink="http://www.w3.org/1999/xlink" x="0px"
	 y="0px" viewBox="0 0 390 373" style="enable-background:new 0 0 390 373;" xml:space="preserve">
<style type="text/css">
	.st0{fill:#FFFFFF;}
</style>
<g>
	<g id="Layer_x0020_1">
		<path id="path10" class="st0" d="M67.2,130H99l4.9,171H63L67.2,130L67.2,130z M37.2,307.2h315.3v22h18.9v22h18.3v22H0v-22h18.3
			v-22h18.9L37.2,307.2L37.2,307.2z M369,82.3L194.9,0L20.8,82.3v13.4H369V82.3L369,82.3z M54.3,101.9h281.1v22H54.3V101.9z
			 M290.2,130H322l4.9,171H286L290.2,130L290.2,130z M215.9,130h31.8l4.9,171h-40.9L215.9,130L215.9,130L215.9,130z M141.5,130h31.8
			l4.9,171h-40.9L141.5,130L141.5,130z"/>
	</g>
</g>
</svg>
