<?xml version="1.0" encoding="utf-8"?>
<!-- Generator: Adobe Illustrator 24.1.1, SVG Export Plug-In . SVG Version: 6.00 Build 0)  -->
<svg version="1.1" id="레이어_1" xmlns="http://www.w3.org/2000/svg" xmlns:xlink="http://www.w3.org/1999/xlink" x="0px"
	 y="0px" viewBox="0 0 576 512" style="enable-background:new 0 0 576 512;" xml:space="preserve">
<style type="text/css">
	.st0{fill:#FFFFFF;}
</style>
<path class="st0" d="M495.5,223.2c-3.9,0.5-7.9,0.8-12.1,0.8c-26,0-49.2-11.4-65.1-29c-15.9,17.6-39.1,29-65.2,29
	s-49.3-11.4-65.2-29c-15.9,17.6-39,29-65.2,29c-26,0-49.2-11.4-65.1-29c-15.9,17.6-39.1,29-65.2,29c-4.1,0-8.2-0.3-12.1-0.8
	C25,215.8-1.2,150.6,28.4,103.8l57.3-90.7C90.8,5,99.9,0,109.6,0h356.8c9.7,0,18.8,5,23.9,13.1l57.3,90.7
	C577.3,150.7,551,215.8,495.5,223.2L495.5,223.2z M499.7,254.9c3.4-0.5,8.3-1.3,12.3-2.3V448c0,35.3-28.7,64-64,64H128
	c-35.3,0-64-28.7-64-64V252.6c3.9,1,7.9,1.8,12,2.3h0.1c5.3,0.7,10.7,1.1,16.3,1.1c12.4,0,24.4-1.9,35.6-5.4V384h320V250.7
	c11.2,3.4,23.1,5.3,35.4,5.3C489,256,494.4,255.6,499.7,254.9L499.7,254.9z"/>
</svg>
