<svg width="16" height="16" viewBox="0 0 16 16" fill="none" xmlns="http://www.w3.org/2000/svg">
<path fill-rule="evenodd" clip-rule="evenodd" d="M8 16C12.4183 16 16 12.4183 16 8C16 3.58172 12.4183 0 8 0C3.58172 0 0 3.58172 0 8C0 12.4183 3.58172 16 8 16ZM14.7692 8C14.7692 11.7385 11.7385 14.7692 8 14.7692C4.26146 14.7692 1.23077 11.7385 1.23077 8C1.23077 4.26146 4.26146 1.23077 8 1.23077C11.7385 1.23077 14.7692 4.26146 14.7692 8ZM8 13.5385C11.0588 13.5385 13.5385 11.0588 13.5385 8C13.5385 4.94119 11.0588 2.46154 8 2.46154C4.94119 2.46154 2.46154 4.94119 2.46154 8C2.46154 11.0588 4.94119 13.5385 8 13.5385ZM12.3077 8C12.3077 10.3791 10.3791 12.3077 8 12.3077C5.62093 12.3077 3.69231 10.3791 3.69231 8C3.69231 5.62093 5.62093 3.69231 8 3.69231C10.3791 3.69231 12.3077 5.62093 12.3077 8ZM11.0769 8C11.0769 9.69934 9.69934 11.0769 8 11.0769C6.30066 11.0769 4.92308 9.69934 4.92308 8C4.92308 6.30066 6.30066 4.92308 8 4.92308C9.69934 4.92308 11.0769 6.30066 11.0769 8Z" fill="#CCCCCC"/>
</svg>
